G75*
G70*
%OFA0B0*%
%FSLAX24Y24*%
%IPPOS*%
%LPD*%
%AMOC8*
5,1,8,0,0,1.08239X$1,22.5*
%
%ADD10R,0.0709X0.0630*%
%ADD11R,0.1181X0.0630*%
%ADD12R,0.2250X0.1900*%
%ADD13R,0.0630X0.1181*%
%ADD14R,0.1900X0.2250*%
%ADD15R,0.0260X0.0800*%
%ADD16R,0.0630X0.0709*%
%ADD17R,0.0945X0.0866*%
D10*
X013620Y011899D03*
X013620Y013001D03*
X013600Y014049D03*
X013600Y015151D03*
X016000Y015151D03*
X016000Y014049D03*
X018250Y014049D03*
X018250Y015151D03*
D11*
X014809Y008648D03*
X014809Y006852D03*
X018091Y003748D03*
X018091Y001952D03*
X008641Y001952D03*
X008641Y003748D03*
X005459Y006402D03*
X005459Y008198D03*
D12*
X005925Y002850D03*
X008175Y007300D03*
X015375Y002850D03*
X017525Y007750D03*
D13*
X012498Y006259D03*
X010702Y006259D03*
X010702Y001409D03*
X012498Y001409D03*
D14*
X011600Y004125D03*
X011600Y008975D03*
D15*
X007100Y010620D03*
X006600Y010620D03*
X006100Y010620D03*
X005600Y010620D03*
X005100Y010620D03*
X004600Y010620D03*
X004100Y010620D03*
X003600Y010620D03*
X003100Y010620D03*
X002600Y010620D03*
X002600Y014580D03*
X003100Y014580D03*
X003600Y014580D03*
X004100Y014580D03*
X004600Y014580D03*
X005100Y014580D03*
X005600Y014580D03*
X006100Y014580D03*
X006600Y014580D03*
X007100Y014580D03*
D16*
X007401Y016350D03*
X006299Y016350D03*
X005401Y016350D03*
X004299Y016350D03*
X003401Y016350D03*
X002299Y016350D03*
D17*
X008850Y014566D03*
X010450Y014566D03*
X012100Y014566D03*
X012100Y012634D03*
X010450Y012634D03*
X008850Y012634D03*
M02*
