G75*
G70*
%OFA0B0*%
%FSLAX24Y24*%
%IPPOS*%
%LPD*%
%AMOC8*
5,1,8,0,0,1.08239X$1,22.5*
%
%ADD10C,0.0000*%
%ADD11C,0.0030*%
%ADD12C,0.0060*%
%ADD13C,0.0050*%
%ADD14C,0.0080*%
%ADD15C,0.0110*%
%ADD16C,0.0010*%
%ADD17R,0.0300X0.0340*%
%ADD18C,0.0040*%
%ADD19R,0.0340X0.0300*%
%ADD20C,0.0020*%
%ADD21R,0.0200X0.0050*%
D10*
X000100Y000100D02*
X023600Y000100D01*
X023600Y018600D01*
X000100Y018600D01*
X000100Y000100D01*
D11*
X000365Y000615D02*
X000365Y000905D01*
X000510Y000905D01*
X000558Y000857D01*
X000558Y000760D01*
X000510Y000712D01*
X000365Y000712D01*
X000660Y000663D02*
X000708Y000712D01*
X000853Y000712D01*
X000853Y000760D02*
X000853Y000615D01*
X000708Y000615D01*
X000660Y000663D01*
X000708Y000808D02*
X000805Y000808D01*
X000853Y000760D01*
X000954Y000808D02*
X001051Y000615D01*
X001148Y000808D01*
X001249Y000905D02*
X001297Y000905D01*
X001297Y000615D01*
X001249Y000615D02*
X001346Y000615D01*
X001445Y000663D02*
X001445Y000760D01*
X001494Y000808D01*
X001591Y000808D01*
X001639Y000760D01*
X001639Y000663D01*
X001591Y000615D01*
X001494Y000615D01*
X001445Y000663D01*
X001394Y001115D02*
X001442Y001163D01*
X001394Y001115D02*
X001297Y001115D01*
X001249Y001163D01*
X001249Y001357D01*
X001297Y001405D01*
X001394Y001405D01*
X001442Y001357D01*
X001838Y001405D02*
X001935Y001308D01*
X002032Y001405D01*
X002032Y001115D01*
X002133Y001163D02*
X002181Y001115D01*
X002278Y001115D01*
X002326Y001163D01*
X002326Y001260D01*
X002278Y001308D01*
X002181Y001308D01*
X002133Y001260D01*
X002133Y001163D01*
X002428Y001308D02*
X002524Y001308D01*
X002476Y001357D02*
X002476Y001163D01*
X002524Y001115D01*
X002624Y001163D02*
X002672Y001115D01*
X002769Y001115D01*
X002817Y001163D01*
X002817Y001260D01*
X002769Y001308D01*
X002672Y001308D01*
X002624Y001260D01*
X002624Y001163D01*
X002919Y001115D02*
X002919Y001308D01*
X002919Y001212D02*
X003015Y001308D01*
X003064Y001308D01*
X003459Y001405D02*
X003459Y001115D01*
X003604Y001115D01*
X003652Y001163D01*
X003652Y001357D01*
X003604Y001405D01*
X003459Y001405D01*
X003753Y001308D02*
X003753Y001115D01*
X003753Y001212D02*
X003850Y001308D01*
X003899Y001308D01*
X003999Y001308D02*
X004047Y001308D01*
X004047Y001115D01*
X003999Y001115D02*
X004096Y001115D01*
X004292Y001115D02*
X004195Y001308D01*
X004047Y001405D02*
X004047Y001454D01*
X004389Y001308D02*
X004292Y001115D01*
X004490Y001163D02*
X004490Y001260D01*
X004538Y001308D01*
X004635Y001308D01*
X004684Y001260D01*
X004684Y001212D01*
X004490Y001212D01*
X004490Y001163D02*
X004538Y001115D01*
X004635Y001115D01*
X004785Y001115D02*
X004785Y001308D01*
X004785Y001212D02*
X004882Y001308D01*
X004930Y001308D01*
X005325Y001260D02*
X005470Y001260D01*
X005518Y001212D01*
X005518Y001163D01*
X005470Y001115D01*
X005325Y001115D01*
X005325Y001405D01*
X005470Y001405D01*
X005518Y001357D01*
X005518Y001308D01*
X005470Y001260D01*
X005620Y001260D02*
X005620Y001163D01*
X005668Y001115D01*
X005765Y001115D01*
X005813Y001163D01*
X005813Y001260D01*
X005765Y001308D01*
X005668Y001308D01*
X005620Y001260D01*
X005914Y001163D02*
X005963Y001212D01*
X006108Y001212D01*
X006108Y001260D02*
X006108Y001115D01*
X005963Y001115D01*
X005914Y001163D01*
X005963Y001308D02*
X006059Y001308D01*
X006108Y001260D01*
X006209Y001212D02*
X006306Y001308D01*
X006354Y001308D01*
X006454Y001260D02*
X006503Y001308D01*
X006648Y001308D01*
X006648Y001405D02*
X006648Y001115D01*
X006503Y001115D01*
X006454Y001163D01*
X006454Y001260D01*
X006209Y001308D02*
X006209Y001115D01*
X004487Y000615D02*
X004294Y000615D01*
X004390Y000615D02*
X004390Y000905D01*
X004294Y000808D01*
X004193Y000808D02*
X004096Y000615D01*
X003999Y000808D01*
X003605Y000615D02*
X003508Y000615D01*
X003556Y000615D02*
X003556Y000808D01*
X003508Y000808D01*
X003407Y000808D02*
X003310Y000615D01*
X003213Y000808D01*
X003112Y000760D02*
X003064Y000808D01*
X002967Y000808D01*
X002919Y000760D01*
X002919Y000663D01*
X002967Y000615D01*
X003064Y000615D01*
X003112Y000663D01*
X003112Y000760D01*
X002817Y000760D02*
X002817Y000615D01*
X002817Y000760D02*
X002769Y000808D01*
X002624Y000808D01*
X002624Y000615D01*
X002523Y000615D02*
X002523Y000760D01*
X002474Y000808D01*
X002378Y000808D01*
X002378Y000712D02*
X002329Y000663D01*
X002378Y000615D01*
X002523Y000615D01*
X002523Y000712D02*
X002378Y000712D01*
X002228Y000615D02*
X002228Y000905D01*
X002131Y000808D01*
X002035Y000905D01*
X002035Y000615D01*
X001838Y001115D02*
X001838Y001405D01*
X001148Y001357D02*
X001148Y001163D01*
X001099Y001115D01*
X000954Y001115D01*
X000954Y001405D01*
X001099Y001405D01*
X001148Y001357D01*
X000853Y001115D02*
X000660Y001115D01*
X000660Y001405D01*
X000558Y001357D02*
X000558Y001308D01*
X000510Y001260D01*
X000365Y001260D01*
X000365Y001115D02*
X000510Y001115D01*
X000558Y001163D01*
X000558Y001212D01*
X000510Y001260D01*
X000558Y001357D02*
X000510Y001405D01*
X000365Y001405D01*
X000365Y001115D01*
X003556Y000954D02*
X003556Y000905D01*
D12*
X002440Y011130D02*
X007260Y011130D01*
X007283Y011132D01*
X007306Y011137D01*
X007328Y011146D01*
X007348Y011159D01*
X007366Y011174D01*
X007381Y011192D01*
X007394Y011212D01*
X007403Y011234D01*
X007408Y011257D01*
X007410Y011280D01*
X007410Y013920D01*
X007408Y013943D01*
X007403Y013966D01*
X007394Y013988D01*
X007381Y014008D01*
X007366Y014026D01*
X007348Y014041D01*
X007328Y014054D01*
X007306Y014063D01*
X007283Y014068D01*
X007260Y014070D01*
X002440Y014070D01*
X002417Y014068D01*
X002394Y014063D01*
X002372Y014054D01*
X002352Y014041D01*
X002334Y014026D01*
X002319Y014008D01*
X002306Y013988D01*
X002297Y013966D01*
X002292Y013943D01*
X002290Y013920D01*
X002290Y013100D01*
X002290Y012100D01*
X002290Y011280D01*
X002292Y011257D01*
X002297Y011234D01*
X002306Y011212D01*
X002319Y011192D01*
X002334Y011174D01*
X002352Y011159D01*
X002372Y011146D01*
X002394Y011137D01*
X002417Y011132D01*
X002440Y011130D01*
X002290Y012100D02*
X002334Y012102D01*
X002377Y012108D01*
X002419Y012117D01*
X002461Y012130D01*
X002501Y012147D01*
X002540Y012167D01*
X002577Y012190D01*
X002611Y012217D01*
X002644Y012246D01*
X002673Y012279D01*
X002700Y012313D01*
X002723Y012350D01*
X002743Y012389D01*
X002760Y012429D01*
X002773Y012471D01*
X002782Y012513D01*
X002788Y012556D01*
X002790Y012600D01*
X002788Y012644D01*
X002782Y012687D01*
X002773Y012729D01*
X002760Y012771D01*
X002743Y012811D01*
X002723Y012850D01*
X002700Y012887D01*
X002673Y012921D01*
X002644Y012954D01*
X002611Y012983D01*
X002577Y013010D01*
X002540Y013033D01*
X002501Y013053D01*
X002461Y013070D01*
X002419Y013083D01*
X002377Y013092D01*
X002334Y013098D01*
X002290Y013100D01*
X014350Y013700D02*
X014450Y013600D01*
X015250Y013600D01*
X015350Y013700D01*
X015350Y014500D01*
X015250Y014600D01*
X015350Y014700D01*
X015350Y015500D01*
X015250Y015600D01*
X014450Y015600D01*
X014350Y015500D01*
X014350Y014700D01*
X014450Y014600D01*
X014350Y014500D01*
X014350Y013700D01*
X016650Y013700D02*
X016750Y013600D01*
X017550Y013600D01*
X017650Y013700D01*
X017650Y014500D01*
X017550Y014600D01*
X017650Y014700D01*
X017650Y015500D01*
X017550Y015600D01*
X016750Y015600D01*
X016650Y015500D01*
X016650Y014700D01*
X016750Y014600D01*
X016650Y014500D01*
X016650Y013700D01*
X019000Y013700D02*
X019100Y013600D01*
X019900Y013600D01*
X020000Y013700D01*
X020000Y014500D01*
X019900Y014600D01*
X020000Y014700D01*
X020000Y015500D01*
X019900Y015600D01*
X019100Y015600D01*
X019000Y015500D01*
X019000Y014700D01*
X019100Y014600D01*
X019000Y014500D01*
X019000Y013700D01*
D13*
X020225Y014204D02*
X020225Y014429D01*
X020300Y014504D01*
X020450Y014504D01*
X020525Y014429D01*
X020525Y014204D01*
X020675Y014204D02*
X020225Y014204D01*
X020525Y014354D02*
X020675Y014504D01*
X020600Y014665D02*
X020675Y014740D01*
X020675Y014890D01*
X020600Y014965D01*
X020450Y014965D01*
X020375Y014890D01*
X020375Y014815D01*
X020450Y014665D01*
X020225Y014665D01*
X020225Y014965D01*
X021099Y015905D02*
X021024Y015980D01*
X021099Y015905D02*
X021174Y015905D01*
X021249Y015980D01*
X021249Y016355D01*
X021174Y016355D02*
X021324Y016355D01*
X021484Y016355D02*
X021709Y016355D01*
X021784Y016280D01*
X021784Y016130D01*
X021709Y016055D01*
X021484Y016055D01*
X021484Y015905D02*
X021484Y016355D01*
X021945Y016355D02*
X022245Y016355D01*
X022245Y016280D01*
X021945Y015980D01*
X021945Y015905D01*
X018745Y015880D02*
X018670Y015805D01*
X018520Y015805D01*
X018445Y015880D01*
X018445Y015955D01*
X018520Y016030D01*
X018670Y016030D01*
X018745Y015955D01*
X018745Y015880D01*
X018670Y016030D02*
X018745Y016105D01*
X018745Y016180D01*
X018670Y016255D01*
X018520Y016255D01*
X018445Y016180D01*
X018445Y016105D01*
X018520Y016030D01*
X018284Y016030D02*
X018284Y016180D01*
X018209Y016255D01*
X017984Y016255D01*
X017984Y015805D01*
X017984Y015955D02*
X018209Y015955D01*
X018284Y016030D01*
X017824Y016255D02*
X017674Y016255D01*
X017749Y016255D02*
X017749Y015880D01*
X017674Y015805D01*
X017599Y015805D01*
X017524Y015880D01*
X016356Y013575D02*
X016206Y013500D01*
X016055Y013350D01*
X016281Y013350D01*
X016356Y013275D01*
X016356Y013200D01*
X016281Y013125D01*
X016130Y013125D01*
X016055Y013200D01*
X016055Y013350D01*
X015895Y013350D02*
X015820Y013275D01*
X015595Y013275D01*
X015595Y013125D02*
X015595Y013575D01*
X015820Y013575D01*
X015895Y013500D01*
X015895Y013350D01*
X015745Y013275D02*
X015895Y013125D01*
X013881Y015625D02*
X013881Y016075D01*
X013655Y015850D01*
X013956Y015850D01*
X013495Y015850D02*
X013420Y015775D01*
X013195Y015775D01*
X013195Y015625D02*
X013195Y016075D01*
X013420Y016075D01*
X013495Y016000D01*
X013495Y015850D01*
X013345Y015775D02*
X013495Y015625D01*
X012931Y011595D02*
X012705Y011370D01*
X013006Y011370D01*
X012931Y011145D02*
X012931Y011595D01*
X012545Y011520D02*
X012470Y011595D01*
X012320Y011595D01*
X012245Y011520D01*
X012245Y011220D01*
X012320Y011145D01*
X012470Y011145D01*
X012545Y011220D01*
X007061Y016825D02*
X006910Y016825D01*
X006835Y016900D01*
X006675Y016900D02*
X006600Y016825D01*
X006450Y016825D01*
X006375Y016900D01*
X006375Y017200D01*
X006450Y017275D01*
X006600Y017275D01*
X006675Y017200D01*
X006835Y017200D02*
X006910Y017275D01*
X007061Y017275D01*
X007136Y017200D01*
X007136Y017125D01*
X007061Y017050D01*
X007136Y016975D01*
X007136Y016900D01*
X007061Y016825D01*
X007061Y017050D02*
X006986Y017050D01*
X005136Y017125D02*
X005136Y017200D01*
X005061Y017275D01*
X004910Y017275D01*
X004835Y017200D01*
X004675Y017200D02*
X004600Y017275D01*
X004450Y017275D01*
X004375Y017200D01*
X004375Y016900D01*
X004450Y016825D01*
X004600Y016825D01*
X004675Y016900D01*
X004835Y016825D02*
X005136Y017125D01*
X005136Y016825D02*
X004835Y016825D01*
X003136Y016825D02*
X002835Y016825D01*
X002986Y016825D02*
X002986Y017275D01*
X002835Y017125D01*
X002675Y017200D02*
X002600Y017275D01*
X002450Y017275D01*
X002375Y017200D01*
X002375Y016900D01*
X002450Y016825D01*
X002600Y016825D01*
X002675Y016900D01*
X002125Y011886D02*
X002125Y011585D01*
X001825Y011886D01*
X001750Y011886D01*
X001675Y011811D01*
X001675Y011660D01*
X001750Y011585D01*
X001675Y011425D02*
X002050Y011425D01*
X002125Y011350D01*
X002125Y011200D01*
X002050Y011125D01*
X001675Y011125D01*
D14*
X000998Y007899D02*
X000683Y007899D01*
X000683Y003301D01*
X000998Y003301D01*
X000998Y007899D01*
X004069Y007899D01*
X004069Y003301D01*
X000998Y003301D01*
X005579Y004140D02*
X008018Y004140D01*
X008018Y001560D01*
X005579Y001560D01*
X010310Y002032D02*
X010310Y004471D01*
X008521Y006010D02*
X006082Y006010D01*
X006082Y008590D01*
X008521Y008590D01*
X010310Y009321D02*
X010310Y006882D01*
X012890Y006882D01*
X012890Y009321D01*
X015432Y009040D02*
X017871Y009040D01*
X015432Y009040D02*
X015432Y006460D01*
X017871Y006460D01*
X020261Y006361D02*
X022702Y006361D01*
X022702Y001794D01*
X020261Y001794D01*
X020261Y006361D01*
X022702Y006361D02*
X023017Y006361D01*
X023017Y001794D01*
X022702Y001794D01*
X017468Y001560D02*
X015029Y001560D01*
X012890Y002032D02*
X010310Y002032D01*
X012890Y002032D02*
X012890Y004471D01*
X015029Y004140D02*
X017468Y004140D01*
X017468Y001560D01*
X012494Y013313D02*
X011706Y013313D01*
X012100Y013313D02*
X012494Y013853D01*
X011706Y013853D01*
X012100Y013313D01*
X010844Y013313D02*
X010056Y013313D01*
X010450Y013313D02*
X010844Y013853D01*
X010056Y013853D01*
X010450Y013313D01*
X009244Y013313D02*
X008456Y013313D01*
X008850Y013313D02*
X009244Y013853D01*
X008456Y013853D01*
X008850Y013313D01*
D15*
X003820Y002447D02*
X003820Y002054D01*
X003721Y001704D02*
X003229Y001704D01*
X003229Y001606D02*
X003229Y001803D01*
X003426Y002054D02*
X003229Y002251D01*
X003820Y002251D01*
X003721Y001704D02*
X003820Y001606D01*
X003820Y001508D01*
X003721Y001409D01*
D16*
X020445Y002255D02*
X020445Y002305D01*
X020445Y002280D02*
X020570Y002280D01*
X020595Y002255D01*
X020595Y002230D01*
X020570Y002205D01*
X020595Y002352D02*
X020445Y002352D01*
X020445Y002427D01*
X020470Y002452D01*
X020520Y002452D01*
X020545Y002427D01*
X020545Y002352D01*
X020520Y002500D02*
X020520Y002600D01*
X020595Y002575D02*
X020445Y002575D01*
X020520Y002500D01*
D17*
X017658Y002850D03*
X015242Y007750D03*
X008208Y002850D03*
X005892Y007300D03*
D18*
X006189Y008770D02*
X006113Y008847D01*
X006113Y009154D01*
X006189Y009230D01*
X006343Y009230D01*
X006419Y009154D01*
X006419Y008847D01*
X006343Y008770D01*
X006189Y008770D01*
X006266Y008923D02*
X006419Y008770D01*
X006573Y008770D02*
X006880Y008770D01*
X006726Y008770D02*
X006726Y009230D01*
X006573Y009077D01*
X009077Y009104D02*
X009077Y008797D01*
X009153Y008720D01*
X009307Y008720D01*
X009384Y008797D01*
X009384Y009104D01*
X009307Y009180D01*
X009153Y009180D01*
X009077Y009104D01*
X009230Y008873D02*
X009384Y008720D01*
X009537Y008797D02*
X009614Y008720D01*
X009767Y008720D01*
X009844Y008797D01*
X009844Y008873D01*
X009767Y008950D01*
X009691Y008950D01*
X009767Y008950D02*
X009844Y009027D01*
X009844Y009104D01*
X009767Y009180D01*
X009614Y009180D01*
X009537Y009104D01*
X009600Y012710D02*
X009600Y014490D01*
X009700Y014490D02*
X009700Y012710D01*
X009580Y012770D02*
X009580Y013000D01*
X009503Y013077D01*
X009196Y013077D01*
X009120Y013000D01*
X009120Y012770D01*
X009580Y012770D01*
X009580Y013230D02*
X009273Y013537D01*
X009196Y013537D01*
X009120Y013461D01*
X009120Y013307D01*
X009196Y013230D01*
X009580Y013230D02*
X009580Y013537D01*
X010770Y013537D02*
X010846Y013384D01*
X011000Y013230D01*
X011000Y013461D01*
X011077Y013537D01*
X011153Y013537D01*
X011230Y013461D01*
X011230Y013307D01*
X011153Y013230D01*
X011000Y013230D01*
X011153Y013077D02*
X010846Y013077D01*
X010770Y013000D01*
X010770Y012770D01*
X011230Y012770D01*
X011230Y013000D01*
X011153Y013077D01*
X011200Y012710D02*
X011200Y014490D01*
X011350Y014490D02*
X011350Y012710D01*
X012850Y012710D02*
X012850Y014490D01*
X008100Y014490D02*
X008100Y012710D01*
X007980Y012770D02*
X007980Y013000D01*
X007903Y013077D01*
X007596Y013077D01*
X007520Y013000D01*
X007520Y012770D01*
X007980Y012770D01*
X007980Y013230D02*
X007980Y013537D01*
X007980Y013384D02*
X007520Y013384D01*
X007673Y013230D01*
X015463Y009604D02*
X015463Y009297D01*
X015539Y009220D01*
X015693Y009220D01*
X015769Y009297D01*
X015769Y009604D01*
X015693Y009680D01*
X015539Y009680D01*
X015463Y009604D01*
X015616Y009373D02*
X015769Y009220D01*
X015923Y009297D02*
X016000Y009220D01*
X016153Y009220D01*
X016230Y009297D01*
X016230Y009450D01*
X016153Y009527D01*
X016076Y009527D01*
X015923Y009450D01*
X015923Y009680D01*
X016230Y009680D01*
X007474Y004704D02*
X007474Y004627D01*
X007167Y004320D01*
X007474Y004320D01*
X007474Y004704D02*
X007397Y004780D01*
X007244Y004780D01*
X007167Y004704D01*
X007014Y004704D02*
X007014Y004397D01*
X006937Y004320D01*
X006783Y004320D01*
X006707Y004397D01*
X006707Y004704D01*
X006783Y004780D01*
X006937Y004780D01*
X007014Y004704D01*
X006860Y004473D02*
X007014Y004320D01*
X011227Y001304D02*
X011227Y000997D01*
X011303Y000920D01*
X011457Y000920D01*
X011534Y000997D01*
X011534Y001304D01*
X011457Y001380D01*
X011303Y001380D01*
X011227Y001304D01*
X011380Y001073D02*
X011534Y000920D01*
X011687Y001150D02*
X011994Y001150D01*
X011917Y000920D02*
X011917Y001380D01*
X011687Y001150D01*
X016557Y000997D02*
X016633Y000920D01*
X016787Y000920D01*
X016864Y000997D01*
X016864Y001304D01*
X016787Y001380D01*
X016633Y001380D01*
X016557Y001304D01*
X016557Y000997D01*
X016710Y001073D02*
X016864Y000920D01*
X017017Y000997D02*
X017094Y000920D01*
X017247Y000920D01*
X017324Y000997D01*
X017324Y001073D01*
X017247Y001150D01*
X017017Y001150D01*
X017017Y000997D01*
X017017Y001150D02*
X017171Y001304D01*
X017324Y001380D01*
D19*
X011600Y001842D03*
X011600Y006692D03*
D20*
X007400Y011270D02*
X002300Y011270D01*
D21*
X002600Y011105D03*
X003100Y011105D03*
X003600Y011105D03*
X004100Y011105D03*
X004600Y011105D03*
X005100Y011105D03*
X005600Y011105D03*
X006100Y011105D03*
X006600Y011105D03*
X007100Y011105D03*
X007100Y014095D03*
X006600Y014095D03*
X006100Y014095D03*
X005600Y014095D03*
X005100Y014095D03*
X004600Y014095D03*
X004100Y014095D03*
X003600Y014095D03*
X003100Y014095D03*
X002600Y014095D03*
M02*
