G75*
G70*
%OFA0B0*%
%FSLAX24Y24*%
%IPPOS*%
%LPD*%
%AMOC8*
5,1,8,0,0,1.08239X$1,22.5*
%
%ADD10C,0.0600*%
%ADD11R,0.0709X0.0630*%
%ADD12R,0.1000X0.1000*%
%ADD13C,0.1000*%
%ADD14R,0.0800X0.0800*%
%ADD15C,0.0800*%
%ADD16OC8,0.0740*%
%ADD17C,0.0740*%
%ADD18R,0.1181X0.0630*%
%ADD19R,0.2250X0.1900*%
%ADD20R,0.0476X0.0476*%
%ADD21R,0.0630X0.1181*%
%ADD22R,0.1900X0.2250*%
%ADD23R,0.0260X0.0800*%
%ADD24R,0.0630X0.0709*%
%ADD25R,0.0945X0.0866*%
%ADD26C,0.0100*%
%ADD27C,0.0436*%
%ADD28C,0.1000*%
%ADD29C,0.0160*%
%ADD30R,0.0436X0.0436*%
D10*
X014550Y014100D02*
X015150Y014100D01*
X015150Y015100D02*
X014550Y015100D01*
X016850Y015100D02*
X017450Y015100D01*
X017450Y014100D02*
X016850Y014100D01*
X019200Y014100D02*
X019800Y014100D01*
X019800Y015100D02*
X019200Y015100D01*
D11*
X018250Y015151D03*
X018250Y014049D03*
X016000Y014049D03*
X016000Y015151D03*
X013600Y015151D03*
X013600Y014049D03*
X013620Y013001D03*
X013620Y011899D03*
D12*
X002100Y006600D03*
D13*
X002100Y004600D03*
D14*
X021600Y002630D03*
D15*
X021600Y004078D03*
X021600Y005526D03*
D16*
X022050Y007600D03*
X022050Y008600D03*
X021050Y008600D03*
X021050Y007600D03*
X021050Y009600D03*
X021050Y010600D03*
X022050Y010600D03*
X022050Y009600D03*
X022050Y011600D03*
X022050Y012600D03*
X022050Y013600D03*
X021050Y013600D03*
X021050Y012600D03*
X021050Y011600D03*
X015050Y016600D03*
X014050Y016600D03*
X013050Y016600D03*
X012050Y016600D03*
X011050Y016600D03*
X010050Y016600D03*
X009050Y016600D03*
X009050Y017600D03*
X010050Y017600D03*
X011050Y017600D03*
X012050Y017600D03*
X013050Y017600D03*
X014050Y017600D03*
X015050Y017600D03*
D17*
X016350Y016950D03*
X017350Y017050D03*
X018350Y016950D03*
X019850Y017050D03*
X020850Y017150D03*
X021850Y017050D03*
D18*
X014809Y008648D03*
X014809Y006852D03*
X018091Y003748D03*
X018091Y001952D03*
X008641Y001952D03*
X008641Y003748D03*
X005459Y006402D03*
X005459Y008198D03*
D19*
X008175Y007300D03*
X005925Y002850D03*
X015375Y002850D03*
X017525Y007750D03*
D20*
X017550Y007750D03*
X018400Y007750D03*
X018400Y007050D03*
X017550Y007100D03*
X016650Y007050D03*
X016650Y007750D03*
X016650Y008450D03*
X017550Y008450D03*
X018400Y008450D03*
X012300Y008100D03*
X011600Y008100D03*
X010900Y008100D03*
X010900Y009000D03*
X011600Y009000D03*
X012250Y009000D03*
X012300Y009850D03*
X011600Y009850D03*
X010900Y009850D03*
X009050Y008000D03*
X009050Y007300D03*
X009050Y006600D03*
X008200Y006650D03*
X008200Y007300D03*
X008200Y008000D03*
X007300Y008000D03*
X007300Y007300D03*
X007300Y006600D03*
X010900Y005000D03*
X011600Y005000D03*
X012300Y005000D03*
X012250Y004150D03*
X011600Y004150D03*
X010900Y004150D03*
X010900Y003250D03*
X011600Y003250D03*
X012300Y003250D03*
X014500Y003550D03*
X014500Y002850D03*
X015350Y002850D03*
X015350Y003500D03*
X016250Y003550D03*
X016250Y002850D03*
X016250Y002150D03*
X015350Y002150D03*
X014500Y002150D03*
X006800Y002150D03*
X006800Y002850D03*
X006800Y003550D03*
X005900Y003500D03*
X005900Y002850D03*
X005050Y002850D03*
X005050Y003550D03*
X005050Y002150D03*
X005900Y002150D03*
D21*
X010702Y001409D03*
X012498Y001409D03*
X012498Y006259D03*
X010702Y006259D03*
D22*
X011600Y004125D03*
X011600Y008975D03*
D23*
X007100Y010620D03*
X006600Y010620D03*
X006100Y010620D03*
X005600Y010620D03*
X005100Y010620D03*
X004600Y010620D03*
X004100Y010620D03*
X003600Y010620D03*
X003100Y010620D03*
X002600Y010620D03*
X002600Y014580D03*
X003100Y014580D03*
X003600Y014580D03*
X004100Y014580D03*
X004600Y014580D03*
X005100Y014580D03*
X005600Y014580D03*
X006100Y014580D03*
X006600Y014580D03*
X007100Y014580D03*
D24*
X007401Y016350D03*
X006299Y016350D03*
X005401Y016350D03*
X004299Y016350D03*
X003401Y016350D03*
X002299Y016350D03*
D25*
X008850Y014566D03*
X010450Y014566D03*
X012100Y014566D03*
X012100Y012634D03*
X010450Y012634D03*
X008850Y012634D03*
D26*
X000600Y001300D02*
X001500Y000400D01*
X017450Y000400D01*
X018100Y001050D01*
X018100Y001943D01*
X018091Y001952D01*
X017880Y001467D02*
X017430Y001467D01*
X017330Y001567D01*
X017330Y002338D01*
X017430Y002437D01*
X018752Y002437D01*
X018851Y002338D01*
X018851Y001567D01*
X018752Y001467D01*
X018320Y001467D01*
X018320Y000959D01*
X018191Y000830D01*
X018161Y000800D01*
X019350Y000800D01*
X019350Y004850D01*
X015479Y004850D01*
X015479Y003970D01*
X016570Y003970D01*
X016670Y003870D01*
X016670Y001830D01*
X016570Y001730D01*
X014179Y001730D01*
X014080Y001830D01*
X014080Y003870D01*
X014139Y003930D01*
X014139Y004850D01*
X013048Y004850D01*
X012720Y004522D01*
X012720Y002930D01*
X012620Y002830D01*
X010580Y002830D01*
X010480Y002930D01*
X010480Y005100D01*
X010150Y005100D01*
X010150Y004850D01*
X006129Y004850D01*
X006129Y003970D01*
X007120Y003970D01*
X007220Y003870D01*
X007220Y001830D01*
X007120Y001730D01*
X004729Y001730D01*
X004630Y001830D01*
X004630Y003870D01*
X004729Y003970D01*
X004789Y003970D01*
X004789Y004850D01*
X002900Y004850D01*
X002900Y005300D01*
X001070Y005300D01*
X001070Y001691D01*
X001941Y000820D01*
X010217Y000820D01*
X010217Y002070D01*
X010317Y002170D01*
X011088Y002170D01*
X011187Y002070D01*
X011187Y000800D01*
X017539Y000800D01*
X017880Y001141D01*
X017880Y001467D01*
X017880Y001391D02*
X011187Y001391D01*
X011187Y001489D02*
X017408Y001489D01*
X017330Y001588D02*
X011187Y001588D01*
X011187Y001686D02*
X017330Y001686D01*
X017330Y001785D02*
X016625Y001785D01*
X016670Y001883D02*
X017330Y001883D01*
X017330Y001982D02*
X016670Y001982D01*
X016670Y002080D02*
X017330Y002080D01*
X017330Y002179D02*
X016670Y002179D01*
X016670Y002277D02*
X017330Y002277D01*
X017368Y002376D02*
X016670Y002376D01*
X016670Y002474D02*
X019350Y002474D01*
X019350Y002376D02*
X018813Y002376D01*
X018851Y002277D02*
X019350Y002277D01*
X019350Y002179D02*
X018851Y002179D01*
X018851Y002080D02*
X019350Y002080D01*
X019350Y001982D02*
X018851Y001982D01*
X018851Y001883D02*
X019350Y001883D01*
X019350Y001785D02*
X018851Y001785D01*
X018851Y001686D02*
X019350Y001686D01*
X019350Y001588D02*
X018851Y001588D01*
X018773Y001489D02*
X019350Y001489D01*
X019350Y001391D02*
X018320Y001391D01*
X018320Y001292D02*
X019350Y001292D01*
X019350Y001194D02*
X018320Y001194D01*
X018320Y001095D02*
X019350Y001095D01*
X019350Y000997D02*
X018320Y000997D01*
X018259Y000898D02*
X019350Y000898D01*
X017880Y001194D02*
X011187Y001194D01*
X011187Y001292D02*
X017880Y001292D01*
X017834Y001095D02*
X011187Y001095D01*
X011187Y000997D02*
X017735Y000997D01*
X017637Y000898D02*
X011187Y000898D01*
X010702Y000952D02*
X010350Y000600D01*
X001850Y000600D01*
X000850Y001600D01*
X000850Y009150D01*
X001100Y009400D01*
X002050Y009400D01*
X002650Y008800D01*
X004550Y008800D01*
X004750Y009000D01*
X005150Y009000D01*
X005650Y009500D01*
X006550Y009500D01*
X006600Y009550D01*
X006600Y010620D01*
X006100Y010620D02*
X006100Y010350D01*
X005650Y009900D01*
X005600Y009900D01*
X005050Y009350D01*
X004650Y009350D01*
X004400Y009100D01*
X002800Y009100D01*
X002100Y009800D01*
X001050Y009800D01*
X000600Y009350D01*
X000600Y001300D01*
X001174Y001588D02*
X007880Y001588D01*
X007880Y001567D02*
X007980Y001467D01*
X009302Y001467D01*
X009401Y001567D01*
X009401Y002338D01*
X009302Y002437D01*
X008998Y002437D01*
X009023Y002462D01*
X009139Y002462D01*
X009238Y002561D01*
X009238Y003139D01*
X009139Y003238D01*
X008561Y003238D01*
X008462Y003139D01*
X008462Y002561D01*
X008481Y002542D01*
X008421Y002482D01*
X008421Y002437D01*
X007980Y002437D01*
X007880Y002338D01*
X007880Y001567D01*
X007958Y001489D02*
X001272Y001489D01*
X001371Y001391D02*
X010217Y001391D01*
X010217Y001489D02*
X009323Y001489D01*
X009401Y001588D02*
X010217Y001588D01*
X010217Y001686D02*
X009401Y001686D01*
X009401Y001785D02*
X010217Y001785D01*
X010217Y001883D02*
X009401Y001883D01*
X009401Y001982D02*
X010217Y001982D01*
X010227Y002080D02*
X009401Y002080D01*
X009401Y002179D02*
X014080Y002179D01*
X014080Y002277D02*
X009401Y002277D01*
X009363Y002376D02*
X014080Y002376D01*
X014080Y002474D02*
X009151Y002474D01*
X009238Y002573D02*
X014080Y002573D01*
X014080Y002671D02*
X009238Y002671D01*
X009238Y002770D02*
X014080Y002770D01*
X014080Y002868D02*
X012658Y002868D01*
X012720Y002967D02*
X014080Y002967D01*
X014080Y003065D02*
X012720Y003065D01*
X012720Y003164D02*
X014080Y003164D01*
X014080Y003262D02*
X012720Y003262D01*
X012720Y003361D02*
X014080Y003361D01*
X014080Y003459D02*
X012720Y003459D01*
X012720Y003558D02*
X014080Y003558D01*
X014080Y003656D02*
X012720Y003656D01*
X012720Y003755D02*
X014080Y003755D01*
X014080Y003853D02*
X012720Y003853D01*
X012720Y003952D02*
X014139Y003952D01*
X014139Y004050D02*
X012720Y004050D01*
X012720Y004149D02*
X014139Y004149D01*
X014139Y004247D02*
X012720Y004247D01*
X012720Y004346D02*
X014139Y004346D01*
X014139Y004444D02*
X012720Y004444D01*
X012740Y004543D02*
X014139Y004543D01*
X014139Y004641D02*
X012839Y004641D01*
X012937Y004740D02*
X014139Y004740D01*
X014139Y004838D02*
X013036Y004838D01*
X013200Y005100D02*
X013200Y005350D01*
X013168Y005350D01*
X013168Y006393D01*
X013066Y006639D01*
X012983Y006722D01*
X012983Y006920D01*
X012883Y007020D01*
X012112Y007020D01*
X012013Y006920D01*
X012013Y006722D01*
X011930Y006639D01*
X011828Y006393D01*
X011828Y005525D01*
X011723Y005420D01*
X010580Y005420D01*
X010509Y005350D01*
X010238Y005350D01*
X010238Y005578D01*
X010317Y005499D01*
X011088Y005499D01*
X011187Y005598D01*
X011187Y006920D01*
X011088Y007020D01*
X010317Y007020D01*
X010217Y006920D01*
X010217Y006279D01*
X009927Y005988D01*
X009561Y005988D01*
X009462Y005889D01*
X009462Y005311D01*
X009561Y005212D01*
X009900Y005212D01*
X009900Y005070D01*
X006129Y005070D01*
X006129Y005926D01*
X006220Y006017D01*
X006220Y006788D01*
X006120Y006887D01*
X005922Y006887D01*
X005839Y006970D01*
X005593Y007072D01*
X005326Y007072D01*
X005080Y006970D01*
X004997Y006887D01*
X004798Y006887D01*
X004699Y006788D01*
X004699Y006017D01*
X004789Y005926D01*
X004789Y005070D01*
X003150Y005070D01*
X003150Y005650D01*
X001070Y005650D01*
X001070Y009059D01*
X001191Y009180D01*
X001959Y009180D01*
X002430Y008709D01*
X002559Y008580D01*
X004641Y008580D01*
X004841Y008780D01*
X005239Y008780D01*
X005239Y008683D01*
X004798Y008683D01*
X004699Y008583D01*
X004699Y007812D01*
X004798Y007713D01*
X006120Y007713D01*
X006220Y007812D01*
X006220Y008583D01*
X006120Y008683D01*
X005744Y008683D01*
X005941Y008880D01*
X007441Y008880D01*
X007941Y009380D01*
X008070Y009509D01*
X008070Y009600D01*
X014501Y009600D01*
X014580Y009521D01*
X014589Y009517D01*
X014589Y009133D01*
X014148Y009133D01*
X014049Y009033D01*
X014049Y008262D01*
X014148Y008163D01*
X015470Y008163D01*
X015570Y008262D01*
X015570Y009033D01*
X015470Y009133D01*
X015029Y009133D01*
X015029Y009531D01*
X015099Y009600D01*
X018630Y009600D01*
X018630Y007009D01*
X018759Y006880D01*
X019350Y006880D01*
X019350Y006196D01*
X016161Y006196D01*
X015570Y006787D01*
X015570Y007238D01*
X015470Y007337D01*
X015272Y007337D01*
X015189Y007420D01*
X014943Y007522D01*
X014676Y007522D01*
X014430Y007420D01*
X014347Y007337D01*
X014148Y007337D01*
X014049Y007238D01*
X014049Y006467D01*
X014139Y006376D01*
X014139Y005100D01*
X013200Y005100D01*
X013200Y005134D02*
X014139Y005134D01*
X014139Y005232D02*
X013200Y005232D01*
X013200Y005331D02*
X014139Y005331D01*
X014139Y005429D02*
X013168Y005429D01*
X013168Y005528D02*
X014139Y005528D01*
X014139Y005626D02*
X013168Y005626D01*
X013168Y005725D02*
X014139Y005725D01*
X014139Y005823D02*
X013168Y005823D01*
X013168Y005922D02*
X014139Y005922D01*
X014139Y006020D02*
X013168Y006020D01*
X013168Y006119D02*
X014139Y006119D01*
X014139Y006217D02*
X013168Y006217D01*
X013168Y006316D02*
X014139Y006316D01*
X014102Y006414D02*
X013159Y006414D01*
X013118Y006513D02*
X014049Y006513D01*
X014049Y006611D02*
X013077Y006611D01*
X012995Y006710D02*
X014049Y006710D01*
X014049Y006808D02*
X012983Y006808D01*
X012983Y006907D02*
X014049Y006907D01*
X014049Y007005D02*
X012898Y007005D01*
X012097Y007005D02*
X011103Y007005D01*
X011187Y006907D02*
X012013Y006907D01*
X012013Y006808D02*
X011187Y006808D01*
X011187Y006710D02*
X012000Y006710D01*
X011918Y006611D02*
X011187Y006611D01*
X011187Y006513D02*
X011877Y006513D01*
X011836Y006414D02*
X011187Y006414D01*
X011187Y006316D02*
X011828Y006316D01*
X011828Y006217D02*
X011187Y006217D01*
X011187Y006119D02*
X011828Y006119D01*
X011828Y006020D02*
X011187Y006020D01*
X011187Y005922D02*
X011828Y005922D01*
X011828Y005823D02*
X011187Y005823D01*
X011187Y005725D02*
X011828Y005725D01*
X011828Y005626D02*
X011187Y005626D01*
X011116Y005528D02*
X011828Y005528D01*
X011731Y005429D02*
X010238Y005429D01*
X010238Y005528D02*
X010288Y005528D01*
X009850Y005600D02*
X010509Y006259D01*
X010702Y006259D01*
X010217Y006316D02*
X006220Y006316D01*
X006220Y006414D02*
X010217Y006414D01*
X010217Y006513D02*
X006220Y006513D01*
X006220Y006611D02*
X010217Y006611D01*
X010217Y006710D02*
X006220Y006710D01*
X006200Y006808D02*
X010217Y006808D01*
X010217Y006907D02*
X005903Y006907D01*
X005755Y007005D02*
X010302Y007005D01*
X010156Y006217D02*
X006220Y006217D01*
X006220Y006119D02*
X010057Y006119D01*
X009959Y006020D02*
X006220Y006020D01*
X006129Y005922D02*
X009495Y005922D01*
X009462Y005823D02*
X006129Y005823D01*
X006129Y005725D02*
X009462Y005725D01*
X009462Y005626D02*
X006129Y005626D01*
X006129Y005528D02*
X009462Y005528D01*
X009462Y005429D02*
X006129Y005429D01*
X006129Y005331D02*
X009462Y005331D01*
X009541Y005232D02*
X006129Y005232D01*
X006129Y005134D02*
X009900Y005134D01*
X010150Y005035D02*
X010480Y005035D01*
X010480Y004937D02*
X010150Y004937D01*
X010480Y004838D02*
X006129Y004838D01*
X006129Y004740D02*
X010480Y004740D01*
X010480Y004641D02*
X006129Y004641D01*
X006129Y004543D02*
X010480Y004543D01*
X010480Y004444D02*
X006129Y004444D01*
X006129Y004346D02*
X010480Y004346D01*
X010480Y004247D02*
X006129Y004247D01*
X006129Y004149D02*
X010480Y004149D01*
X010480Y004050D02*
X006129Y004050D01*
X007139Y003952D02*
X010480Y003952D01*
X010480Y003853D02*
X007220Y003853D01*
X007220Y003755D02*
X010480Y003755D01*
X010480Y003656D02*
X007220Y003656D01*
X007220Y003558D02*
X010480Y003558D01*
X010480Y003459D02*
X007220Y003459D01*
X007220Y003361D02*
X010480Y003361D01*
X010480Y003262D02*
X007220Y003262D01*
X007220Y003164D02*
X008487Y003164D01*
X008462Y003065D02*
X007220Y003065D01*
X007220Y002967D02*
X008462Y002967D01*
X008462Y002868D02*
X007220Y002868D01*
X007220Y002770D02*
X008462Y002770D01*
X008462Y002671D02*
X007220Y002671D01*
X007220Y002573D02*
X008462Y002573D01*
X008421Y002474D02*
X007220Y002474D01*
X007220Y002376D02*
X007918Y002376D01*
X007880Y002277D02*
X007220Y002277D01*
X007220Y002179D02*
X007880Y002179D01*
X007880Y002080D02*
X007220Y002080D01*
X007220Y001982D02*
X007880Y001982D01*
X007880Y001883D02*
X007220Y001883D01*
X007175Y001785D02*
X007880Y001785D01*
X007880Y001686D02*
X001075Y001686D01*
X001070Y001785D02*
X004675Y001785D01*
X004630Y001883D02*
X001070Y001883D01*
X001070Y001982D02*
X004630Y001982D01*
X004630Y002080D02*
X001070Y002080D01*
X001070Y002179D02*
X004630Y002179D01*
X004630Y002277D02*
X001070Y002277D01*
X001070Y002376D02*
X004630Y002376D01*
X004630Y002474D02*
X001070Y002474D01*
X001070Y002573D02*
X004630Y002573D01*
X004630Y002671D02*
X001070Y002671D01*
X001070Y002770D02*
X004630Y002770D01*
X004630Y002868D02*
X001070Y002868D01*
X001070Y002967D02*
X004630Y002967D01*
X004630Y003065D02*
X001070Y003065D01*
X001070Y003164D02*
X004630Y003164D01*
X004630Y003262D02*
X001070Y003262D01*
X001070Y003361D02*
X004630Y003361D01*
X004630Y003459D02*
X001070Y003459D01*
X001070Y003558D02*
X004630Y003558D01*
X004630Y003656D02*
X001070Y003656D01*
X001070Y003755D02*
X004630Y003755D01*
X004630Y003853D02*
X001070Y003853D01*
X001070Y003952D02*
X004711Y003952D01*
X004789Y004050D02*
X001070Y004050D01*
X001070Y004149D02*
X004789Y004149D01*
X004789Y004247D02*
X001070Y004247D01*
X001070Y004346D02*
X004789Y004346D01*
X004789Y004444D02*
X001070Y004444D01*
X001070Y004543D02*
X004789Y004543D01*
X004789Y004641D02*
X001070Y004641D01*
X001070Y004740D02*
X004789Y004740D01*
X004789Y004838D02*
X001070Y004838D01*
X001070Y004937D02*
X002900Y004937D01*
X002900Y005035D02*
X001070Y005035D01*
X001070Y005134D02*
X002900Y005134D01*
X002900Y005232D02*
X001070Y005232D01*
X001070Y005725D02*
X004789Y005725D01*
X004789Y005823D02*
X001070Y005823D01*
X001070Y005922D02*
X004789Y005922D01*
X004699Y006020D02*
X001070Y006020D01*
X001070Y006119D02*
X004699Y006119D01*
X004699Y006217D02*
X001070Y006217D01*
X001070Y006316D02*
X004699Y006316D01*
X004699Y006414D02*
X001070Y006414D01*
X001070Y006513D02*
X004699Y006513D01*
X004699Y006611D02*
X001070Y006611D01*
X001070Y006710D02*
X004699Y006710D01*
X004719Y006808D02*
X001070Y006808D01*
X001070Y006907D02*
X005016Y006907D01*
X005164Y007005D02*
X001070Y007005D01*
X001070Y007104D02*
X014049Y007104D01*
X014049Y007202D02*
X001070Y007202D01*
X001070Y007301D02*
X014112Y007301D01*
X014409Y007399D02*
X001070Y007399D01*
X001070Y007498D02*
X014616Y007498D01*
X015003Y007498D02*
X018630Y007498D01*
X018630Y007596D02*
X001070Y007596D01*
X001070Y007695D02*
X018630Y007695D01*
X018630Y007793D02*
X006201Y007793D01*
X006220Y007892D02*
X018630Y007892D01*
X018630Y007990D02*
X006220Y007990D01*
X006220Y008089D02*
X018630Y008089D01*
X018630Y008187D02*
X015495Y008187D01*
X015570Y008286D02*
X018630Y008286D01*
X018630Y008384D02*
X015570Y008384D01*
X015570Y008483D02*
X018630Y008483D01*
X018630Y008581D02*
X015570Y008581D01*
X015570Y008680D02*
X018630Y008680D01*
X018630Y008778D02*
X015570Y008778D01*
X015570Y008877D02*
X018630Y008877D01*
X018630Y008975D02*
X015570Y008975D01*
X015529Y009074D02*
X018630Y009074D01*
X018630Y009172D02*
X015029Y009172D01*
X015029Y009271D02*
X018630Y009271D01*
X018630Y009369D02*
X015029Y009369D01*
X015029Y009468D02*
X018630Y009468D01*
X018630Y009566D02*
X015065Y009566D01*
X014809Y009841D02*
X014800Y009850D01*
X014809Y009841D02*
X014809Y008648D01*
X014589Y009172D02*
X007733Y009172D01*
X007635Y009074D02*
X014089Y009074D01*
X014049Y008975D02*
X007536Y008975D01*
X007350Y009100D02*
X007850Y009600D01*
X007850Y010400D01*
X008208Y010551D02*
X013462Y010551D01*
X013462Y010523D02*
X013521Y010380D01*
X013630Y010271D01*
X013773Y010212D01*
X013927Y010212D01*
X014070Y010271D01*
X014179Y010380D01*
X015521Y010380D01*
X015630Y010271D01*
X015773Y010212D01*
X015927Y010212D01*
X016070Y010271D01*
X016179Y010380D01*
X016238Y010523D01*
X016238Y010677D01*
X016179Y010820D01*
X016070Y010929D01*
X015927Y010988D01*
X015773Y010988D01*
X015630Y010929D01*
X015521Y010820D01*
X014179Y010820D01*
X014070Y010929D01*
X013927Y010988D01*
X013773Y010988D01*
X013630Y010929D01*
X013521Y010820D01*
X013462Y010677D01*
X013462Y010523D01*
X013491Y010453D02*
X008238Y010453D01*
X008238Y010477D02*
X008238Y010323D01*
X008179Y010180D01*
X008099Y010100D01*
X010480Y010100D01*
X010480Y010171D01*
X010580Y010270D01*
X012620Y010270D01*
X012720Y010171D01*
X012720Y010100D01*
X014501Y010100D01*
X014580Y010179D01*
X014723Y010238D01*
X014877Y010238D01*
X015020Y010179D01*
X015099Y010100D01*
X016889Y010100D01*
X016780Y010209D01*
X016780Y010521D01*
X016671Y010630D01*
X016612Y010773D01*
X016612Y010927D01*
X016671Y011070D01*
X016780Y011179D01*
X016923Y011238D01*
X017077Y011238D01*
X017220Y011179D01*
X017329Y011070D01*
X017388Y010927D01*
X017388Y010773D01*
X017329Y010630D01*
X017220Y010521D01*
X017220Y010391D01*
X017491Y010120D01*
X018791Y010120D01*
X018811Y010100D01*
X018850Y010100D01*
X018850Y010061D01*
X019291Y009620D01*
X019420Y009491D01*
X019420Y007641D01*
X019961Y007100D01*
X020815Y007100D01*
X020530Y007385D01*
X020530Y007550D01*
X021000Y007550D01*
X021000Y007650D01*
X020530Y007650D01*
X020530Y007815D01*
X020800Y008086D01*
X020510Y008376D01*
X020510Y008824D01*
X020786Y009100D01*
X020510Y009376D01*
X020510Y009629D01*
X020259Y009880D01*
X020130Y010009D01*
X020130Y013765D01*
X020066Y013702D01*
X019893Y013630D01*
X019107Y013630D01*
X018934Y013702D01*
X018807Y013829D01*
X018774Y013829D01*
X018774Y013663D01*
X018675Y013564D01*
X017825Y013564D01*
X017726Y013663D01*
X017726Y013711D01*
X017716Y013702D01*
X017543Y013630D01*
X016757Y013630D01*
X016584Y013702D01*
X016524Y013761D01*
X016524Y013663D01*
X016425Y013564D01*
X015575Y013564D01*
X015476Y013663D01*
X015476Y013761D01*
X015416Y013702D01*
X015243Y013630D01*
X014457Y013630D01*
X014284Y013702D01*
X014157Y013829D01*
X014124Y013829D01*
X014124Y013663D01*
X014025Y013564D01*
X013175Y013564D01*
X013080Y013659D01*
X013080Y013601D01*
X013195Y013486D01*
X013195Y013486D01*
X014045Y013486D01*
X014144Y013387D01*
X014144Y012616D01*
X014045Y012516D01*
X013195Y012516D01*
X013096Y012616D01*
X013096Y012963D01*
X012769Y013290D01*
X012640Y013419D01*
X012640Y013963D01*
X011988Y013963D01*
X012070Y013929D01*
X012179Y013820D01*
X012238Y013677D01*
X012238Y013523D01*
X012320Y013441D01*
X012320Y013237D01*
X012643Y013237D01*
X012742Y013137D01*
X012742Y012130D01*
X012643Y012031D01*
X011557Y012031D01*
X011458Y012130D01*
X011458Y013137D01*
X011557Y013237D01*
X011712Y013237D01*
X011630Y013271D01*
X011521Y013380D01*
X011462Y013523D01*
X011462Y013677D01*
X011521Y013820D01*
X011630Y013929D01*
X011712Y013963D01*
X011557Y013963D01*
X011458Y014063D01*
X011458Y014346D01*
X011092Y014346D01*
X011092Y014063D01*
X010993Y013963D01*
X009907Y013963D01*
X009808Y014063D01*
X009808Y014346D01*
X009492Y014346D01*
X009492Y014063D01*
X009393Y013963D01*
X008307Y013963D01*
X008208Y014063D01*
X008208Y014360D01*
X007400Y014360D01*
X007400Y014110D01*
X007300Y014010D01*
X006900Y014010D01*
X006850Y014060D01*
X006800Y014010D01*
X006400Y014010D01*
X006350Y014060D01*
X006320Y014030D01*
X006320Y013909D01*
X006170Y013759D01*
X006041Y013630D01*
X005938Y013630D01*
X005938Y013570D01*
X010341Y013570D01*
X010470Y013441D01*
X010670Y013241D01*
X010670Y013237D01*
X010993Y013237D01*
X011092Y013137D01*
X011092Y012130D01*
X010993Y012031D01*
X009907Y012031D01*
X009808Y012130D01*
X009808Y013130D01*
X009492Y013130D01*
X009492Y012130D01*
X009393Y012031D01*
X008307Y012031D01*
X008208Y012130D01*
X008208Y012414D01*
X005938Y012414D01*
X005938Y012361D01*
X005839Y012262D01*
X005399Y012262D01*
X005441Y012220D01*
X007541Y012220D01*
X008441Y011320D01*
X009071Y011320D01*
X009180Y011429D01*
X009323Y011488D01*
X009477Y011488D01*
X009620Y011429D01*
X009729Y011320D01*
X009788Y011177D01*
X009788Y011023D01*
X009729Y010880D01*
X009620Y010771D01*
X009477Y010712D01*
X009323Y010712D01*
X009180Y010771D01*
X009071Y010880D01*
X008259Y010880D01*
X008130Y011009D01*
X007359Y011780D01*
X005259Y011780D01*
X005130Y011909D01*
X004630Y012409D01*
X004630Y013691D01*
X004759Y013820D01*
X004949Y014010D01*
X004900Y014010D01*
X004850Y014060D01*
X004800Y014010D01*
X004400Y014010D01*
X004350Y014060D01*
X004320Y014030D01*
X004320Y013738D01*
X004389Y013738D01*
X004488Y013639D01*
X004488Y013061D01*
X004389Y012962D01*
X003811Y012962D01*
X003712Y013061D01*
X003712Y013639D01*
X003811Y013738D01*
X003880Y013738D01*
X003880Y014030D01*
X003850Y014060D01*
X003800Y014010D01*
X003400Y014010D01*
X003350Y014060D01*
X003300Y014010D01*
X002900Y014010D01*
X002850Y014060D01*
X002820Y014030D01*
X002820Y013888D01*
X002889Y013888D01*
X002988Y013789D01*
X002988Y013715D01*
X003011Y013738D01*
X003589Y013738D01*
X003688Y013639D01*
X003688Y013061D01*
X003589Y012962D01*
X003520Y012962D01*
X003520Y011759D01*
X003320Y011559D01*
X003320Y011170D01*
X003350Y011140D01*
X003380Y011170D01*
X003380Y011491D01*
X003509Y011620D01*
X003709Y011820D01*
X004012Y011820D01*
X004012Y011889D01*
X004111Y011988D01*
X004689Y011988D01*
X004788Y011889D01*
X004788Y011820D01*
X004941Y011820D01*
X005070Y011691D01*
X005320Y011441D01*
X005320Y011170D01*
X005364Y011126D01*
X005378Y011140D01*
X005412Y011160D01*
X005450Y011170D01*
X005585Y011170D01*
X005585Y010635D01*
X005615Y010635D01*
X005615Y011170D01*
X005750Y011170D01*
X005788Y011160D01*
X005822Y011140D01*
X005836Y011126D01*
X005900Y011190D01*
X006300Y011190D01*
X006350Y011140D01*
X006400Y011190D01*
X006800Y011190D01*
X006850Y011140D01*
X006900Y011190D01*
X007300Y011190D01*
X007400Y011090D01*
X007400Y010150D01*
X007350Y010100D01*
X007601Y010100D01*
X007521Y010180D01*
X007462Y010323D01*
X007462Y010477D01*
X007521Y010620D01*
X007630Y010729D01*
X007773Y010788D01*
X007927Y010788D01*
X008070Y010729D01*
X008179Y010620D01*
X008238Y010477D01*
X008238Y010354D02*
X013547Y010354D01*
X013667Y010256D02*
X012635Y010256D01*
X012720Y010157D02*
X014558Y010157D01*
X014153Y010354D02*
X015547Y010354D01*
X015667Y010256D02*
X014033Y010256D01*
X013850Y010600D02*
X015850Y010600D01*
X016209Y010748D02*
X016622Y010748D01*
X016612Y010847D02*
X016152Y010847D01*
X016031Y010945D02*
X016619Y010945D01*
X016660Y011044D02*
X009788Y011044D01*
X009788Y011142D02*
X015100Y011142D01*
X015030Y011171D02*
X015173Y011112D01*
X015327Y011112D01*
X015470Y011171D01*
X015579Y011280D01*
X015638Y011423D01*
X015638Y011577D01*
X015579Y011720D01*
X015470Y011829D01*
X015470Y012003D01*
X015521Y011880D01*
X015630Y011771D01*
X015773Y011712D01*
X015927Y011712D01*
X016070Y011771D01*
X016179Y011880D01*
X017021Y011880D01*
X017130Y011771D01*
X017273Y011712D01*
X017427Y011712D01*
X017570Y011771D01*
X017679Y011880D01*
X017738Y012023D01*
X017738Y012177D01*
X017679Y012320D01*
X017570Y012429D01*
X017427Y012488D01*
X017273Y012488D01*
X017130Y012429D01*
X017021Y012320D01*
X016179Y012320D01*
X016070Y012429D01*
X015927Y012488D01*
X015773Y012488D01*
X015630Y012429D01*
X015521Y012320D01*
X015470Y012197D01*
X015470Y012421D01*
X015579Y012530D01*
X015638Y012673D01*
X015638Y012827D01*
X015579Y012970D01*
X015470Y013079D01*
X015327Y013138D01*
X015173Y013138D01*
X015030Y013079D01*
X014921Y012970D01*
X014862Y012827D01*
X014862Y012673D01*
X014921Y012530D01*
X015030Y012421D01*
X015030Y011829D01*
X014921Y011720D01*
X014862Y011577D01*
X014862Y011423D01*
X014921Y011280D01*
X015030Y011171D01*
X014961Y011241D02*
X009762Y011241D01*
X009710Y011339D02*
X014897Y011339D01*
X014862Y011438D02*
X014008Y011438D01*
X013994Y011434D02*
X014032Y011444D01*
X014066Y011464D01*
X014094Y011492D01*
X014114Y011526D01*
X014124Y011564D01*
X014124Y011849D01*
X013670Y011849D01*
X013670Y011949D01*
X013570Y011949D01*
X013570Y012364D01*
X013246Y012364D01*
X013208Y012354D01*
X013174Y012334D01*
X013146Y012306D01*
X013126Y012272D01*
X013116Y012234D01*
X013116Y011949D01*
X013570Y011949D01*
X013570Y011849D01*
X013116Y011849D01*
X013116Y011564D01*
X013126Y011526D01*
X013146Y011492D01*
X013174Y011464D01*
X013208Y011444D01*
X013246Y011434D01*
X013570Y011434D01*
X013570Y011849D01*
X013670Y011849D01*
X013670Y011434D01*
X013994Y011434D01*
X014117Y011536D02*
X014862Y011536D01*
X014886Y011635D02*
X014124Y011635D01*
X014124Y011733D02*
X014934Y011733D01*
X015030Y011832D02*
X014124Y011832D01*
X014124Y011949D02*
X014124Y012234D01*
X014114Y012272D01*
X014094Y012306D01*
X014066Y012334D01*
X014032Y012354D01*
X013994Y012364D01*
X013670Y012364D01*
X013670Y011949D01*
X014124Y011949D01*
X014124Y012029D02*
X015030Y012029D01*
X015030Y012127D02*
X014124Y012127D01*
X014124Y012226D02*
X015030Y012226D01*
X015030Y012324D02*
X014076Y012324D01*
X014050Y012521D02*
X014930Y012521D01*
X014884Y012620D02*
X014144Y012620D01*
X014144Y012718D02*
X014862Y012718D01*
X014862Y012817D02*
X014144Y012817D01*
X014144Y012915D02*
X014898Y012915D01*
X014965Y013014D02*
X014144Y013014D01*
X014144Y013112D02*
X015110Y013112D01*
X015390Y013112D02*
X017913Y013112D01*
X017871Y013070D02*
X017980Y013179D01*
X018123Y013238D01*
X018277Y013238D01*
X018420Y013179D01*
X018529Y013070D01*
X018588Y012927D01*
X018588Y012773D01*
X018529Y012630D01*
X018420Y012521D01*
X019280Y012521D01*
X019280Y012571D02*
X019171Y012680D01*
X019112Y012823D01*
X019112Y012977D01*
X019171Y013120D01*
X019280Y013229D01*
X019423Y013288D01*
X019577Y013288D01*
X019720Y013229D01*
X019829Y013120D01*
X019888Y012977D01*
X019888Y012823D01*
X019829Y012680D01*
X019720Y012571D01*
X019720Y011579D01*
X019829Y011470D01*
X019888Y011327D01*
X019888Y011173D01*
X019829Y011030D01*
X019720Y010921D01*
X019577Y010862D01*
X019423Y010862D01*
X019280Y010921D01*
X019171Y011030D01*
X019112Y011173D01*
X019112Y011327D01*
X019171Y011470D01*
X019280Y011579D01*
X019280Y012571D01*
X019232Y012620D02*
X018518Y012620D01*
X018565Y012718D02*
X019155Y012718D01*
X019114Y012817D02*
X018588Y012817D01*
X018588Y012915D02*
X019112Y012915D01*
X019127Y013014D02*
X018552Y013014D01*
X018487Y013112D02*
X019168Y013112D01*
X019262Y013211D02*
X018344Y013211D01*
X018056Y013211D02*
X014144Y013211D01*
X014144Y013309D02*
X020130Y013309D01*
X020130Y013211D02*
X019738Y013211D01*
X019832Y013112D02*
X020130Y013112D01*
X020130Y013014D02*
X019873Y013014D01*
X019888Y012915D02*
X020130Y012915D01*
X020130Y012817D02*
X019886Y012817D01*
X019845Y012718D02*
X020130Y012718D01*
X020130Y012620D02*
X019768Y012620D01*
X019720Y012521D02*
X020130Y012521D01*
X020130Y012423D02*
X019720Y012423D01*
X019720Y012324D02*
X020130Y012324D01*
X020130Y012226D02*
X019720Y012226D01*
X019720Y012127D02*
X020130Y012127D01*
X020130Y012029D02*
X019720Y012029D01*
X019720Y011930D02*
X020130Y011930D01*
X020130Y011832D02*
X019720Y011832D01*
X019720Y011733D02*
X020130Y011733D01*
X020130Y011635D02*
X019720Y011635D01*
X019763Y011536D02*
X020130Y011536D01*
X020130Y011438D02*
X019842Y011438D01*
X019883Y011339D02*
X020130Y011339D01*
X020130Y011241D02*
X019888Y011241D01*
X019875Y011142D02*
X020130Y011142D01*
X020130Y011044D02*
X019835Y011044D01*
X019744Y010945D02*
X020130Y010945D01*
X020130Y010847D02*
X017388Y010847D01*
X017381Y010945D02*
X018043Y010945D01*
X017980Y010971D02*
X018123Y010912D01*
X018277Y010912D01*
X018420Y010971D01*
X018529Y011080D01*
X018588Y011223D01*
X018588Y011377D01*
X018529Y011520D01*
X018420Y011629D01*
X018420Y012521D01*
X018420Y012423D02*
X019280Y012423D01*
X019280Y012324D02*
X018420Y012324D01*
X018420Y012226D02*
X019280Y012226D01*
X019280Y012127D02*
X018420Y012127D01*
X018420Y012029D02*
X019280Y012029D01*
X019280Y011930D02*
X018420Y011930D01*
X018420Y011832D02*
X019280Y011832D01*
X019280Y011733D02*
X018420Y011733D01*
X018420Y011635D02*
X019280Y011635D01*
X019237Y011536D02*
X018513Y011536D01*
X018563Y011438D02*
X019158Y011438D01*
X019117Y011339D02*
X018588Y011339D01*
X018588Y011241D02*
X019112Y011241D01*
X019125Y011142D02*
X018555Y011142D01*
X018492Y011044D02*
X019165Y011044D01*
X019256Y010945D02*
X018357Y010945D01*
X017980Y010971D02*
X017871Y011080D01*
X017812Y011223D01*
X017812Y011377D01*
X017871Y011520D01*
X017980Y011629D01*
X017980Y012521D01*
X015570Y012521D01*
X015616Y012620D02*
X017882Y012620D01*
X017871Y012630D02*
X017980Y012521D01*
X017980Y012423D02*
X017576Y012423D01*
X017675Y012324D02*
X017980Y012324D01*
X017980Y012226D02*
X017718Y012226D01*
X017738Y012127D02*
X017980Y012127D01*
X017980Y012029D02*
X017738Y012029D01*
X017700Y011930D02*
X017980Y011930D01*
X017980Y011832D02*
X017630Y011832D01*
X017478Y011733D02*
X017980Y011733D01*
X017980Y011635D02*
X015614Y011635D01*
X015638Y011536D02*
X017887Y011536D01*
X017837Y011438D02*
X015638Y011438D01*
X015603Y011339D02*
X017812Y011339D01*
X017812Y011241D02*
X015539Y011241D01*
X015400Y011142D02*
X016743Y011142D01*
X017000Y010850D02*
X017000Y010300D01*
X017400Y009900D01*
X018700Y009900D01*
X019200Y009400D01*
X019200Y007550D01*
X019900Y006850D01*
X022850Y006850D01*
X023200Y006500D01*
X023200Y005678D01*
X021600Y004078D01*
X021100Y005526D02*
X021100Y005840D01*
X021650Y006390D01*
X022285Y007100D02*
X022570Y007385D01*
X022570Y007550D01*
X022100Y007550D01*
X022100Y007650D01*
X022570Y007650D01*
X022570Y007815D01*
X022300Y008086D01*
X022590Y008376D01*
X022590Y008824D01*
X022314Y009100D01*
X022590Y009376D01*
X022590Y009824D01*
X022314Y010100D01*
X022590Y010376D01*
X022590Y010824D01*
X022314Y011100D01*
X022590Y011376D01*
X022590Y011679D01*
X022691Y011780D01*
X022820Y011909D01*
X022820Y014441D01*
X021441Y015820D01*
X020941Y015820D01*
X020270Y016491D01*
X020270Y016491D01*
X020162Y016599D01*
X020308Y016744D01*
X020371Y016896D01*
X020392Y016844D01*
X020544Y016692D01*
X020743Y016610D01*
X020957Y016610D01*
X021156Y016692D01*
X021308Y016844D01*
X021329Y016896D01*
X021392Y016744D01*
X021544Y016592D01*
X021743Y016510D01*
X021957Y016510D01*
X022156Y016592D01*
X022308Y016744D01*
X022390Y016943D01*
X022390Y017157D01*
X022308Y017356D01*
X022156Y017508D01*
X021957Y017590D01*
X021743Y017590D01*
X021544Y017508D01*
X021392Y017356D01*
X021371Y017304D01*
X021308Y017456D01*
X021156Y017608D01*
X020957Y017690D01*
X020743Y017690D01*
X020544Y017608D01*
X020392Y017456D01*
X020329Y017304D01*
X020308Y017356D01*
X020156Y017508D01*
X019981Y017580D01*
X019570Y017991D01*
X019441Y018120D01*
X015641Y018120D01*
X015530Y018231D01*
X015411Y018350D01*
X022900Y018350D01*
X022850Y007100D01*
X022285Y007100D01*
X022289Y007104D02*
X022850Y007104D01*
X022850Y007202D02*
X022387Y007202D01*
X022486Y007301D02*
X022851Y007301D01*
X022851Y007399D02*
X022570Y007399D01*
X022570Y007498D02*
X022852Y007498D01*
X022852Y007596D02*
X022100Y007596D01*
X022000Y007596D02*
X021100Y007596D01*
X021100Y007550D02*
X021100Y007650D01*
X022000Y007650D01*
X022000Y007550D01*
X021570Y007550D01*
X021100Y007550D01*
X021000Y007596D02*
X019465Y007596D01*
X019420Y007695D02*
X020530Y007695D01*
X020530Y007793D02*
X019420Y007793D01*
X019420Y007892D02*
X020606Y007892D01*
X020705Y007990D02*
X019420Y007990D01*
X019420Y008089D02*
X020798Y008089D01*
X020699Y008187D02*
X019420Y008187D01*
X019420Y008286D02*
X020601Y008286D01*
X020510Y008384D02*
X019420Y008384D01*
X019420Y008483D02*
X020510Y008483D01*
X020510Y008581D02*
X019420Y008581D01*
X019420Y008680D02*
X020510Y008680D01*
X020510Y008778D02*
X019420Y008778D01*
X019420Y008877D02*
X020563Y008877D01*
X020661Y008975D02*
X019420Y008975D01*
X019420Y009074D02*
X020760Y009074D01*
X020714Y009172D02*
X019420Y009172D01*
X019420Y009271D02*
X020616Y009271D01*
X020517Y009369D02*
X019420Y009369D01*
X019420Y009468D02*
X020510Y009468D01*
X020510Y009566D02*
X019345Y009566D01*
X019247Y009665D02*
X020474Y009665D01*
X020376Y009763D02*
X019148Y009763D01*
X019050Y009862D02*
X020277Y009862D01*
X020179Y009960D02*
X018951Y009960D01*
X018853Y010059D02*
X020130Y010059D01*
X020130Y010157D02*
X017454Y010157D01*
X017356Y010256D02*
X020130Y010256D01*
X020130Y010354D02*
X017257Y010354D01*
X017220Y010453D02*
X020130Y010453D01*
X020130Y010551D02*
X017250Y010551D01*
X017337Y010650D02*
X020130Y010650D01*
X020130Y010748D02*
X017378Y010748D01*
X017340Y011044D02*
X017908Y011044D01*
X017845Y011142D02*
X017257Y011142D01*
X017222Y011733D02*
X015978Y011733D01*
X016130Y011832D02*
X017070Y011832D01*
X017350Y012100D02*
X015850Y012100D01*
X015570Y011832D02*
X015470Y011832D01*
X015470Y011930D02*
X015500Y011930D01*
X015566Y011733D02*
X015722Y011733D01*
X015250Y011500D02*
X015250Y012750D01*
X015535Y013014D02*
X017848Y013014D01*
X017871Y013070D02*
X017812Y012927D01*
X017812Y012773D01*
X017871Y012630D01*
X017835Y012718D02*
X015638Y012718D01*
X015638Y012817D02*
X017812Y012817D01*
X017812Y012915D02*
X015602Y012915D01*
X015624Y012423D02*
X015471Y012423D01*
X015470Y012324D02*
X015525Y012324D01*
X015482Y012226D02*
X015470Y012226D01*
X015029Y012423D02*
X012742Y012423D01*
X012742Y012521D02*
X013190Y012521D01*
X013096Y012620D02*
X012742Y012620D01*
X012742Y012718D02*
X013096Y012718D01*
X013096Y012817D02*
X012742Y012817D01*
X012742Y012915D02*
X013096Y012915D01*
X013045Y013014D02*
X012742Y013014D01*
X012742Y013112D02*
X012947Y013112D01*
X012848Y013211D02*
X012669Y013211D01*
X012750Y013309D02*
X012320Y013309D01*
X012320Y013408D02*
X012651Y013408D01*
X012640Y013506D02*
X012255Y013506D01*
X012238Y013605D02*
X012640Y013605D01*
X012640Y013703D02*
X012227Y013703D01*
X012187Y013802D02*
X012640Y013802D01*
X012640Y013900D02*
X012099Y013900D01*
X011850Y013600D02*
X012100Y013350D01*
X012100Y012634D01*
X012742Y012324D02*
X013164Y012324D01*
X013116Y012226D02*
X012742Y012226D01*
X012739Y012127D02*
X013116Y012127D01*
X013116Y012029D02*
X007733Y012029D01*
X007634Y012127D02*
X008211Y012127D01*
X008208Y012226D02*
X005436Y012226D01*
X005350Y012000D02*
X007450Y012000D01*
X008350Y011100D01*
X009400Y011100D01*
X009695Y010847D02*
X013548Y010847D01*
X013491Y010748D02*
X009564Y010748D01*
X009756Y010945D02*
X013669Y010945D01*
X013462Y010650D02*
X008149Y010650D01*
X008024Y010748D02*
X009236Y010748D01*
X009105Y010847D02*
X007400Y010847D01*
X007400Y010945D02*
X008194Y010945D01*
X008095Y011044D02*
X007400Y011044D01*
X007348Y011142D02*
X007997Y011142D01*
X007898Y011241D02*
X005320Y011241D01*
X005320Y011339D02*
X007800Y011339D01*
X007701Y011438D02*
X005320Y011438D01*
X005225Y011536D02*
X007603Y011536D01*
X007504Y011635D02*
X005127Y011635D01*
X005028Y011733D02*
X007406Y011733D01*
X007831Y011930D02*
X013570Y011930D01*
X013570Y011832D02*
X013670Y011832D01*
X013670Y011930D02*
X015030Y011930D01*
X016076Y012423D02*
X017124Y012423D01*
X017025Y012324D02*
X016175Y012324D01*
X016465Y013605D02*
X017785Y013605D01*
X017726Y013703D02*
X017718Y013703D01*
X017150Y014100D02*
X016051Y014100D01*
X016000Y014049D01*
X015476Y013703D02*
X015418Y013703D01*
X015535Y013605D02*
X014065Y013605D01*
X014124Y013703D02*
X014282Y013703D01*
X014184Y013802D02*
X014124Y013802D01*
X014123Y013408D02*
X020130Y013408D01*
X020130Y013506D02*
X013175Y013506D01*
X013135Y013605D02*
X013080Y013605D01*
X012860Y013510D02*
X012860Y014466D01*
X012960Y014566D01*
X013015Y014566D01*
X013600Y015151D01*
X013600Y016050D01*
X013050Y016600D01*
X012622Y016264D02*
X012478Y016264D01*
X012550Y016336D02*
X012274Y016060D01*
X011826Y016060D01*
X011550Y016336D01*
X011274Y016060D01*
X010826Y016060D01*
X010550Y016336D01*
X010274Y016060D01*
X009826Y016060D01*
X009536Y016350D01*
X009265Y016080D01*
X009100Y016080D01*
X009100Y016550D01*
X009000Y016550D01*
X009000Y016080D01*
X008835Y016080D01*
X008530Y016385D01*
X008530Y016550D01*
X009000Y016550D01*
X009000Y016650D01*
X009000Y017120D01*
X009000Y017550D01*
X008530Y017550D01*
X008530Y017385D01*
X008815Y017100D01*
X008530Y016815D01*
X008530Y016650D01*
X009000Y016650D01*
X009100Y016650D01*
X009100Y017550D01*
X009000Y017550D01*
X009000Y017650D01*
X009000Y018120D01*
X008835Y018120D01*
X008530Y017815D01*
X008530Y017650D01*
X009000Y017650D01*
X009100Y017650D01*
X009100Y018120D01*
X009265Y018120D01*
X009536Y017850D01*
X009826Y018140D01*
X010274Y018140D01*
X010550Y017864D01*
X010826Y018140D01*
X011274Y018140D01*
X011550Y017864D01*
X011826Y018140D01*
X012274Y018140D01*
X012550Y017864D01*
X012826Y018140D01*
X013274Y018140D01*
X013276Y018137D01*
X013489Y018350D01*
X000550Y018350D01*
X000510Y011759D01*
X000530Y011779D01*
X000673Y011838D01*
X000827Y011838D01*
X001080Y012091D01*
X001080Y017141D01*
X001609Y017670D01*
X001667Y017670D01*
X001612Y017803D01*
X001612Y017957D01*
X001671Y018100D01*
X001780Y018209D01*
X001923Y018268D01*
X002077Y018268D01*
X002220Y018209D01*
X002329Y018100D01*
X004661Y018100D01*
X005070Y017691D01*
X005070Y016874D01*
X005113Y016874D01*
X005762Y017523D01*
X005762Y017677D01*
X005821Y017820D01*
X005930Y017929D01*
X006073Y017988D01*
X006227Y017988D01*
X006370Y017929D01*
X006479Y017820D01*
X006538Y017677D01*
X006538Y017523D01*
X006479Y017380D01*
X006370Y017271D01*
X006227Y017212D01*
X006073Y017212D01*
X005735Y016874D01*
X005787Y016874D01*
X005850Y016811D01*
X005913Y016874D01*
X006684Y016874D01*
X006784Y016775D01*
X006784Y016044D01*
X006916Y016176D01*
X006916Y016775D01*
X007016Y016874D01*
X007180Y016874D01*
X007180Y017271D01*
X007071Y017380D01*
X007012Y017523D01*
X007012Y017677D01*
X007071Y017820D01*
X007180Y017929D01*
X007323Y017988D01*
X007477Y017988D01*
X007620Y017929D01*
X007729Y017820D01*
X007788Y017677D01*
X007788Y017523D01*
X007729Y017380D01*
X007620Y017271D01*
X007620Y016874D01*
X007787Y016874D01*
X007886Y016775D01*
X007886Y015925D01*
X007787Y015826D01*
X007188Y015826D01*
X006820Y015458D01*
X006820Y015130D01*
X006850Y015100D01*
X006900Y015150D01*
X007300Y015150D01*
X007400Y015050D01*
X007400Y014800D01*
X008208Y014800D01*
X008208Y015070D01*
X008307Y015169D01*
X009393Y015169D01*
X009492Y015070D01*
X009492Y014786D01*
X009808Y014786D01*
X009808Y015070D01*
X009907Y015169D01*
X010993Y015169D01*
X011092Y015070D01*
X011092Y014786D01*
X011458Y014786D01*
X011458Y015070D01*
X011557Y015169D01*
X012643Y015169D01*
X012742Y015070D01*
X012742Y014786D01*
X012924Y014786D01*
X013076Y014938D01*
X013076Y015453D01*
X012977Y015412D01*
X012823Y015412D01*
X012791Y015380D01*
X011679Y015380D01*
X011570Y015271D01*
X011427Y015212D01*
X011273Y015212D01*
X011130Y015271D01*
X011021Y015380D01*
X010962Y015523D01*
X010962Y015677D01*
X011021Y015820D01*
X011130Y015929D01*
X011273Y015988D01*
X011427Y015988D01*
X011570Y015929D01*
X011679Y015820D01*
X012512Y015820D01*
X012512Y015877D01*
X012571Y016020D01*
X012680Y016129D01*
X012735Y016152D01*
X012550Y016336D01*
X012379Y016166D02*
X012721Y016166D01*
X012618Y016067D02*
X012281Y016067D01*
X012550Y015969D02*
X011474Y015969D01*
X011629Y015870D02*
X012512Y015870D01*
X012700Y015600D02*
X012900Y015800D01*
X012700Y015600D02*
X011350Y015600D01*
X011071Y015870D02*
X007831Y015870D01*
X007886Y015969D02*
X011226Y015969D01*
X011281Y016067D02*
X011819Y016067D01*
X011721Y016166D02*
X011379Y016166D01*
X011478Y016264D02*
X011622Y016264D01*
X011001Y015772D02*
X007134Y015772D01*
X007035Y015673D02*
X010962Y015673D01*
X010962Y015575D02*
X006937Y015575D01*
X006838Y015476D02*
X010981Y015476D01*
X011024Y015378D02*
X006820Y015378D01*
X006820Y015279D02*
X011122Y015279D01*
X011080Y015082D02*
X011470Y015082D01*
X011458Y014984D02*
X011092Y014984D01*
X011092Y014885D02*
X011458Y014885D01*
X011458Y014787D02*
X011092Y014787D01*
X010450Y014566D02*
X010151Y014865D01*
X009808Y014885D02*
X009492Y014885D01*
X009492Y014787D02*
X009808Y014787D01*
X009808Y014984D02*
X009492Y014984D01*
X009480Y015082D02*
X009820Y015082D01*
X010450Y014566D02*
X008850Y014566D01*
X008836Y014580D01*
X007100Y014580D01*
X007400Y014294D02*
X008208Y014294D01*
X008208Y014196D02*
X007400Y014196D01*
X007387Y014097D02*
X008208Y014097D01*
X008272Y013999D02*
X006320Y013999D01*
X006311Y013900D02*
X011601Y013900D01*
X011522Y013999D02*
X011028Y013999D01*
X011092Y014097D02*
X011458Y014097D01*
X011458Y014196D02*
X011092Y014196D01*
X011092Y014294D02*
X011458Y014294D01*
X011513Y013802D02*
X006213Y013802D01*
X006114Y013703D02*
X011473Y013703D01*
X011462Y013605D02*
X005938Y013605D01*
X005950Y013850D02*
X005100Y013850D01*
X004850Y013600D01*
X004850Y012500D01*
X005350Y012000D01*
X005207Y011832D02*
X004788Y011832D01*
X004747Y011930D02*
X005109Y011930D01*
X005010Y012029D02*
X003520Y012029D01*
X003520Y012127D02*
X004912Y012127D01*
X004813Y012226D02*
X003520Y012226D01*
X003520Y012324D02*
X004715Y012324D01*
X004630Y012423D02*
X003520Y012423D01*
X003520Y012521D02*
X004630Y012521D01*
X004630Y012620D02*
X003520Y012620D01*
X003520Y012718D02*
X004630Y012718D01*
X004630Y012817D02*
X003520Y012817D01*
X003520Y012915D02*
X004630Y012915D01*
X004630Y013014D02*
X004440Y013014D01*
X004488Y013112D02*
X004630Y013112D01*
X004630Y013211D02*
X004488Y013211D01*
X004488Y013309D02*
X004630Y013309D01*
X004630Y013408D02*
X004488Y013408D01*
X004488Y013506D02*
X004630Y013506D01*
X004630Y013605D02*
X004488Y013605D01*
X004424Y013703D02*
X004642Y013703D01*
X004740Y013802D02*
X004320Y013802D01*
X004320Y013900D02*
X004839Y013900D01*
X004937Y013999D02*
X004320Y013999D01*
X003880Y013999D02*
X002820Y013999D01*
X002820Y013900D02*
X003880Y013900D01*
X003880Y013802D02*
X002975Y013802D01*
X002600Y013500D02*
X002600Y014580D01*
X002600Y016049D01*
X002299Y016350D01*
X002850Y015850D02*
X003150Y015550D01*
X003150Y014630D01*
X003100Y014580D01*
X003600Y014580D02*
X003600Y016700D01*
X002850Y017450D01*
X001700Y017450D01*
X001300Y017050D01*
X001300Y012000D01*
X000750Y011450D01*
X000657Y011832D02*
X000510Y011832D01*
X000511Y011930D02*
X000919Y011930D01*
X001017Y012029D02*
X000512Y012029D01*
X000512Y012127D02*
X001080Y012127D01*
X001080Y012226D02*
X000513Y012226D01*
X000513Y012324D02*
X001080Y012324D01*
X001080Y012423D02*
X000514Y012423D01*
X000515Y012521D02*
X001080Y012521D01*
X001080Y012620D02*
X000515Y012620D01*
X000516Y012718D02*
X001080Y012718D01*
X001080Y012817D02*
X000516Y012817D01*
X000517Y012915D02*
X001080Y012915D01*
X001080Y013014D02*
X000518Y013014D01*
X000518Y013112D02*
X001080Y013112D01*
X001080Y013211D02*
X000519Y013211D01*
X000519Y013309D02*
X001080Y013309D01*
X001080Y013408D02*
X000520Y013408D01*
X000521Y013506D02*
X001080Y013506D01*
X001080Y013605D02*
X000521Y013605D01*
X000522Y013703D02*
X001080Y013703D01*
X001080Y013802D02*
X000522Y013802D01*
X000523Y013900D02*
X001080Y013900D01*
X001080Y013999D02*
X000524Y013999D01*
X000524Y014097D02*
X001080Y014097D01*
X001080Y014196D02*
X000525Y014196D01*
X000525Y014294D02*
X001080Y014294D01*
X001080Y014393D02*
X000526Y014393D01*
X000527Y014491D02*
X001080Y014491D01*
X001080Y014590D02*
X000527Y014590D01*
X000528Y014688D02*
X001080Y014688D01*
X001080Y014787D02*
X000528Y014787D01*
X000529Y014885D02*
X001080Y014885D01*
X001080Y014984D02*
X000530Y014984D01*
X000530Y015082D02*
X001080Y015082D01*
X001080Y015181D02*
X000531Y015181D01*
X000531Y015279D02*
X001080Y015279D01*
X001080Y015378D02*
X000532Y015378D01*
X000533Y015476D02*
X001080Y015476D01*
X001080Y015575D02*
X000533Y015575D01*
X000534Y015673D02*
X001080Y015673D01*
X001080Y015772D02*
X000534Y015772D01*
X000535Y015870D02*
X001080Y015870D01*
X001080Y015969D02*
X000536Y015969D01*
X000536Y016067D02*
X001080Y016067D01*
X001080Y016166D02*
X000537Y016166D01*
X000537Y016264D02*
X001080Y016264D01*
X001080Y016363D02*
X000538Y016363D01*
X000539Y016461D02*
X001080Y016461D01*
X001080Y016560D02*
X000539Y016560D01*
X000540Y016658D02*
X001080Y016658D01*
X001080Y016757D02*
X000540Y016757D01*
X000541Y016855D02*
X001080Y016855D01*
X001080Y016954D02*
X000542Y016954D01*
X000542Y017052D02*
X001080Y017052D01*
X001089Y017151D02*
X000543Y017151D01*
X000543Y017249D02*
X001188Y017249D01*
X001286Y017348D02*
X000544Y017348D01*
X000545Y017446D02*
X001385Y017446D01*
X001483Y017545D02*
X000545Y017545D01*
X000546Y017643D02*
X001582Y017643D01*
X001637Y017742D02*
X000546Y017742D01*
X000547Y017840D02*
X001612Y017840D01*
X001612Y017939D02*
X000548Y017939D01*
X000548Y018037D02*
X001645Y018037D01*
X001707Y018136D02*
X000549Y018136D01*
X000549Y018234D02*
X001841Y018234D01*
X002159Y018234D02*
X013373Y018234D01*
X013471Y018333D02*
X000550Y018333D01*
X002000Y017880D02*
X004570Y017880D01*
X004850Y017600D01*
X004850Y015600D01*
X004600Y015350D01*
X004600Y014580D01*
X004100Y014580D02*
X004100Y013350D01*
X003712Y013309D02*
X003688Y013309D01*
X003688Y013211D02*
X003712Y013211D01*
X003712Y013112D02*
X003688Y013112D01*
X003640Y013014D02*
X003760Y013014D01*
X003712Y013408D02*
X003688Y013408D01*
X003688Y013506D02*
X003712Y013506D01*
X003712Y013605D02*
X003688Y013605D01*
X003624Y013703D02*
X003776Y013703D01*
X003300Y013350D02*
X003300Y011850D01*
X003100Y011650D01*
X003100Y010620D01*
X003100Y010050D01*
X003350Y009800D01*
X002850Y009430D02*
X003930Y009430D01*
X004100Y009600D01*
X004100Y010620D01*
X003600Y010620D02*
X003600Y011400D01*
X003800Y011600D01*
X004400Y011600D01*
X004850Y011600D01*
X005100Y011350D01*
X005100Y010620D01*
X004750Y010470D02*
X004600Y010620D01*
X004750Y010470D02*
X004750Y009900D01*
X004650Y009800D01*
X004600Y009800D01*
X005585Y010650D02*
X005615Y010650D01*
X005615Y010748D02*
X005585Y010748D01*
X005585Y010847D02*
X005615Y010847D01*
X005615Y010945D02*
X005585Y010945D01*
X005585Y011044D02*
X005615Y011044D01*
X005615Y011142D02*
X005585Y011142D01*
X005381Y011142D02*
X005348Y011142D01*
X005819Y011142D02*
X005852Y011142D01*
X006348Y011142D02*
X006352Y011142D01*
X006848Y011142D02*
X006852Y011142D01*
X007100Y010620D02*
X007100Y009500D01*
X007350Y009100D02*
X005850Y009100D01*
X005459Y008709D01*
X005459Y008198D01*
X005239Y008778D02*
X004839Y008778D01*
X004795Y008680D02*
X004741Y008680D01*
X004699Y008581D02*
X004642Y008581D01*
X004699Y008483D02*
X001070Y008483D01*
X001070Y008581D02*
X002558Y008581D01*
X002459Y008680D02*
X001070Y008680D01*
X001070Y008778D02*
X002361Y008778D01*
X002262Y008877D02*
X001070Y008877D01*
X001070Y008975D02*
X002164Y008975D01*
X002065Y009074D02*
X001085Y009074D01*
X001183Y009172D02*
X001967Y009172D01*
X002600Y009680D02*
X002850Y009430D01*
X002600Y009680D02*
X002600Y010620D01*
X002600Y012100D01*
X003320Y011536D02*
X003425Y011536D01*
X003396Y011635D02*
X003523Y011635D01*
X003494Y011733D02*
X003622Y011733D01*
X003520Y011832D02*
X004012Y011832D01*
X004053Y011930D02*
X003520Y011930D01*
X003380Y011438D02*
X003320Y011438D01*
X003320Y011339D02*
X003380Y011339D01*
X003380Y011241D02*
X003320Y011241D01*
X003348Y011142D02*
X003352Y011142D01*
X001600Y011300D02*
X001600Y016900D01*
X001950Y017250D01*
X002600Y017250D01*
X002850Y017000D01*
X002850Y015850D01*
X003401Y016350D02*
X003600Y016151D01*
X003600Y014580D01*
X004100Y014580D02*
X004100Y016151D01*
X004299Y016350D01*
X005100Y016049D02*
X005401Y016350D01*
X005150Y016600D02*
X006150Y017600D01*
X005789Y017742D02*
X005020Y017742D01*
X005070Y017643D02*
X005762Y017643D01*
X005762Y017545D02*
X005070Y017545D01*
X005070Y017446D02*
X005685Y017446D01*
X005586Y017348D02*
X005070Y017348D01*
X005070Y017249D02*
X005488Y017249D01*
X005389Y017151D02*
X005070Y017151D01*
X005070Y017052D02*
X005291Y017052D01*
X005192Y016954D02*
X005070Y016954D01*
X005150Y016600D02*
X005150Y016050D01*
X005100Y016000D01*
X005100Y014580D01*
X005100Y016049D01*
X005600Y015651D02*
X006299Y016350D01*
X006784Y016363D02*
X006916Y016363D01*
X006916Y016461D02*
X006784Y016461D01*
X006784Y016560D02*
X006916Y016560D01*
X006916Y016658D02*
X006784Y016658D01*
X006784Y016757D02*
X006916Y016757D01*
X006997Y016855D02*
X006703Y016855D01*
X007180Y016954D02*
X005815Y016954D01*
X005806Y016855D02*
X005894Y016855D01*
X005913Y017052D02*
X007180Y017052D01*
X007180Y017151D02*
X006012Y017151D01*
X006317Y017249D02*
X007180Y017249D01*
X007104Y017348D02*
X006446Y017348D01*
X006506Y017446D02*
X007044Y017446D01*
X007012Y017545D02*
X006538Y017545D01*
X006538Y017643D02*
X007012Y017643D01*
X007039Y017742D02*
X006511Y017742D01*
X006459Y017840D02*
X007091Y017840D01*
X007203Y017939D02*
X006347Y017939D01*
X005953Y017939D02*
X004823Y017939D01*
X004724Y018037D02*
X008752Y018037D01*
X008653Y017939D02*
X007597Y017939D01*
X007709Y017840D02*
X008555Y017840D01*
X008530Y017742D02*
X007761Y017742D01*
X007788Y017643D02*
X009000Y017643D01*
X009000Y017545D02*
X009100Y017545D01*
X009100Y017446D02*
X009000Y017446D01*
X009000Y017348D02*
X009100Y017348D01*
X009100Y017249D02*
X009000Y017249D01*
X009000Y017151D02*
X009100Y017151D01*
X009100Y017052D02*
X009000Y017052D01*
X009000Y016954D02*
X009100Y016954D01*
X009100Y016855D02*
X009000Y016855D01*
X009000Y016757D02*
X009100Y016757D01*
X009100Y016658D02*
X009000Y016658D01*
X009050Y016600D02*
X009050Y016100D01*
X008560Y015610D01*
X007960Y015610D01*
X007760Y015410D01*
X007368Y015082D02*
X008220Y015082D01*
X008208Y014984D02*
X007400Y014984D01*
X007400Y014885D02*
X008208Y014885D01*
X007960Y014110D02*
X007960Y014010D01*
X008160Y013810D01*
X009428Y013999D02*
X009872Y013999D01*
X009808Y014097D02*
X009492Y014097D01*
X009492Y014196D02*
X009808Y014196D01*
X009808Y014294D02*
X009492Y014294D01*
X010450Y014566D02*
X012100Y014566D01*
X012960Y014566D01*
X012924Y014787D02*
X012742Y014787D01*
X012742Y014885D02*
X013023Y014885D01*
X013076Y014984D02*
X012742Y014984D01*
X012730Y015082D02*
X013076Y015082D01*
X013076Y015181D02*
X006820Y015181D01*
X006600Y015549D02*
X007401Y016350D01*
X007400Y016351D01*
X007400Y017600D01*
X007756Y017446D02*
X008530Y017446D01*
X008530Y017545D02*
X007788Y017545D01*
X007696Y017348D02*
X008567Y017348D01*
X008666Y017249D02*
X007620Y017249D01*
X007620Y017151D02*
X008764Y017151D01*
X008767Y017052D02*
X007620Y017052D01*
X007620Y016954D02*
X008668Y016954D01*
X008570Y016855D02*
X007806Y016855D01*
X007886Y016757D02*
X008530Y016757D01*
X008530Y016658D02*
X007886Y016658D01*
X007886Y016560D02*
X009000Y016560D01*
X009000Y016461D02*
X009100Y016461D01*
X009100Y016363D02*
X009000Y016363D01*
X009000Y016264D02*
X009100Y016264D01*
X009100Y016166D02*
X009000Y016166D01*
X008749Y016166D02*
X007886Y016166D01*
X007886Y016264D02*
X008651Y016264D01*
X008552Y016363D02*
X007886Y016363D01*
X007886Y016461D02*
X008530Y016461D01*
X007886Y016067D02*
X009819Y016067D01*
X009721Y016166D02*
X009351Y016166D01*
X009449Y016264D02*
X009622Y016264D01*
X010281Y016067D02*
X010819Y016067D01*
X010721Y016166D02*
X010379Y016166D01*
X010478Y016264D02*
X010622Y016264D01*
X011578Y015279D02*
X013076Y015279D01*
X013076Y015378D02*
X011676Y015378D01*
X013600Y015151D02*
X013799Y015151D01*
X014350Y014600D01*
X015449Y014600D01*
X016000Y015151D01*
X016000Y014950D01*
X016350Y014600D01*
X017699Y014600D01*
X018250Y015151D01*
X019199Y016100D01*
X019850Y016100D01*
X020350Y015600D01*
X020350Y010100D01*
X020850Y009600D01*
X021050Y009600D01*
X022355Y010059D02*
X022863Y010059D01*
X022864Y010157D02*
X022371Y010157D01*
X022469Y010256D02*
X022864Y010256D01*
X022864Y010354D02*
X022568Y010354D01*
X022590Y010453D02*
X022865Y010453D01*
X022865Y010551D02*
X022590Y010551D01*
X022590Y010650D02*
X022866Y010650D01*
X022866Y010748D02*
X022590Y010748D01*
X022567Y010847D02*
X022867Y010847D01*
X022867Y010945D02*
X022469Y010945D01*
X022370Y011044D02*
X022868Y011044D01*
X022868Y011142D02*
X022356Y011142D01*
X022454Y011241D02*
X022868Y011241D01*
X022869Y011339D02*
X022553Y011339D01*
X022590Y011438D02*
X022869Y011438D01*
X022870Y011536D02*
X022590Y011536D01*
X022590Y011635D02*
X022870Y011635D01*
X022871Y011733D02*
X022644Y011733D01*
X022743Y011832D02*
X022871Y011832D01*
X022871Y011930D02*
X022820Y011930D01*
X022820Y012029D02*
X022872Y012029D01*
X022872Y012127D02*
X022820Y012127D01*
X022820Y012226D02*
X022873Y012226D01*
X022873Y012324D02*
X022820Y012324D01*
X022820Y012423D02*
X022874Y012423D01*
X022874Y012521D02*
X022820Y012521D01*
X022820Y012620D02*
X022875Y012620D01*
X022875Y012718D02*
X022820Y012718D01*
X022820Y012817D02*
X022875Y012817D01*
X022876Y012915D02*
X022820Y012915D01*
X022820Y013014D02*
X022876Y013014D01*
X022877Y013112D02*
X022820Y013112D01*
X022820Y013211D02*
X022877Y013211D01*
X022878Y013309D02*
X022820Y013309D01*
X022820Y013408D02*
X022878Y013408D01*
X022878Y013506D02*
X022820Y013506D01*
X022820Y013605D02*
X022879Y013605D01*
X022879Y013703D02*
X022820Y013703D01*
X022820Y013802D02*
X022880Y013802D01*
X022880Y013900D02*
X022820Y013900D01*
X022820Y013999D02*
X022881Y013999D01*
X022881Y014097D02*
X022820Y014097D01*
X022820Y014196D02*
X022882Y014196D01*
X022882Y014294D02*
X022820Y014294D01*
X022820Y014393D02*
X022882Y014393D01*
X022883Y014491D02*
X022770Y014491D01*
X022672Y014590D02*
X022883Y014590D01*
X022884Y014688D02*
X022573Y014688D01*
X022475Y014787D02*
X022884Y014787D01*
X022885Y014885D02*
X022376Y014885D01*
X022278Y014984D02*
X022885Y014984D01*
X022885Y015082D02*
X022179Y015082D01*
X022081Y015181D02*
X022886Y015181D01*
X022886Y015279D02*
X021982Y015279D01*
X021884Y015378D02*
X022887Y015378D01*
X022887Y015476D02*
X021785Y015476D01*
X021687Y015575D02*
X022888Y015575D01*
X022888Y015673D02*
X021588Y015673D01*
X021490Y015772D02*
X022889Y015772D01*
X022889Y015870D02*
X020891Y015870D01*
X020793Y015969D02*
X022889Y015969D01*
X022890Y016067D02*
X020694Y016067D01*
X020596Y016166D02*
X022890Y016166D01*
X022891Y016264D02*
X020497Y016264D01*
X020399Y016363D02*
X022891Y016363D01*
X022892Y016461D02*
X020300Y016461D01*
X020202Y016560D02*
X021623Y016560D01*
X021478Y016658D02*
X021073Y016658D01*
X021220Y016757D02*
X021387Y016757D01*
X021346Y016855D02*
X021312Y016855D01*
X021353Y017348D02*
X021389Y017348D01*
X021312Y017446D02*
X021482Y017446D01*
X021633Y017545D02*
X021219Y017545D01*
X021071Y017643D02*
X022897Y017643D01*
X022896Y017545D02*
X022067Y017545D01*
X022218Y017446D02*
X022896Y017446D01*
X022896Y017348D02*
X022311Y017348D01*
X022352Y017249D02*
X022895Y017249D01*
X022895Y017151D02*
X022390Y017151D01*
X022390Y017052D02*
X022894Y017052D01*
X022894Y016954D02*
X022390Y016954D01*
X022354Y016855D02*
X022893Y016855D01*
X022893Y016757D02*
X022313Y016757D01*
X022222Y016658D02*
X022892Y016658D01*
X022892Y016560D02*
X022077Y016560D01*
X021350Y015600D02*
X020850Y015600D01*
X020050Y016400D01*
X018900Y016400D01*
X018350Y016950D01*
X018350Y016300D01*
X017150Y015100D01*
X018250Y014049D02*
X019449Y014049D01*
X019500Y014100D01*
X020068Y013703D02*
X020130Y013703D01*
X020130Y013605D02*
X018715Y013605D01*
X018774Y013703D02*
X018932Y013703D01*
X018834Y013802D02*
X018774Y013802D01*
X018200Y012850D02*
X018200Y011300D01*
X019500Y011250D02*
X019500Y012900D01*
X020570Y013855D02*
X020570Y015569D01*
X020759Y015380D01*
X020941Y015380D01*
X021259Y015380D01*
X022380Y014259D01*
X022380Y014005D01*
X022265Y014120D01*
X022100Y014120D01*
X022100Y013650D01*
X022000Y013650D01*
X022000Y014120D01*
X021835Y014120D01*
X021550Y013835D01*
X021265Y014120D01*
X021100Y014120D01*
X021100Y013650D01*
X021000Y013650D01*
X021000Y014120D01*
X020835Y014120D01*
X020570Y013855D01*
X020570Y013900D02*
X020615Y013900D01*
X020570Y013999D02*
X020713Y013999D01*
X020812Y014097D02*
X020570Y014097D01*
X020570Y014196D02*
X022380Y014196D01*
X022380Y014097D02*
X022288Y014097D01*
X022100Y014097D02*
X022000Y014097D01*
X022000Y013999D02*
X022100Y013999D01*
X022100Y013900D02*
X022000Y013900D01*
X022000Y013802D02*
X022100Y013802D01*
X022100Y013703D02*
X022000Y013703D01*
X022000Y013650D02*
X022000Y013550D01*
X021530Y013550D01*
X021100Y013550D01*
X021100Y013650D01*
X022000Y013650D01*
X022000Y013605D02*
X021100Y013605D01*
X021100Y013703D02*
X021000Y013703D01*
X021000Y013802D02*
X021100Y013802D01*
X021100Y013900D02*
X021000Y013900D01*
X021000Y013999D02*
X021100Y013999D01*
X021100Y014097D02*
X021000Y014097D01*
X021288Y014097D02*
X021812Y014097D01*
X021713Y013999D02*
X021387Y013999D01*
X021485Y013900D02*
X021615Y013900D01*
X022246Y014393D02*
X020570Y014393D01*
X020570Y014491D02*
X022148Y014491D01*
X022049Y014590D02*
X020570Y014590D01*
X020570Y014688D02*
X021951Y014688D01*
X021852Y014787D02*
X020570Y014787D01*
X020570Y014885D02*
X021754Y014885D01*
X021655Y014984D02*
X020570Y014984D01*
X020570Y015082D02*
X021557Y015082D01*
X021458Y015181D02*
X020570Y015181D01*
X020570Y015279D02*
X021360Y015279D01*
X021261Y015378D02*
X020570Y015378D01*
X020570Y015476D02*
X020663Y015476D01*
X021350Y015600D02*
X022600Y014350D01*
X022600Y012000D01*
X022200Y011600D01*
X022050Y011600D01*
X022454Y009960D02*
X022863Y009960D01*
X022862Y009862D02*
X022552Y009862D01*
X022590Y009763D02*
X022862Y009763D01*
X022861Y009665D02*
X022590Y009665D01*
X022590Y009566D02*
X022861Y009566D01*
X022861Y009468D02*
X022590Y009468D01*
X022583Y009369D02*
X022860Y009369D01*
X022860Y009271D02*
X022484Y009271D01*
X022386Y009172D02*
X022859Y009172D01*
X022859Y009074D02*
X022340Y009074D01*
X022439Y008975D02*
X022858Y008975D01*
X022858Y008877D02*
X022537Y008877D01*
X022590Y008778D02*
X022857Y008778D01*
X022857Y008680D02*
X022590Y008680D01*
X022590Y008581D02*
X022857Y008581D01*
X022856Y008483D02*
X022590Y008483D01*
X022590Y008384D02*
X022856Y008384D01*
X022855Y008286D02*
X022499Y008286D01*
X022401Y008187D02*
X022855Y008187D01*
X022854Y008089D02*
X022302Y008089D01*
X022395Y007990D02*
X022854Y007990D01*
X022854Y007892D02*
X022494Y007892D01*
X022570Y007793D02*
X022853Y007793D01*
X022853Y007695D02*
X022570Y007695D01*
X020811Y007104D02*
X019958Y007104D01*
X019859Y007202D02*
X020713Y007202D01*
X020614Y007301D02*
X019761Y007301D01*
X019662Y007399D02*
X020530Y007399D01*
X020530Y007498D02*
X019564Y007498D01*
X019350Y006808D02*
X015570Y006808D01*
X015570Y006907D02*
X018732Y006907D01*
X018634Y007005D02*
X015570Y007005D01*
X015570Y007104D02*
X018630Y007104D01*
X018630Y007202D02*
X015570Y007202D01*
X015507Y007301D02*
X018630Y007301D01*
X018630Y007399D02*
X015210Y007399D01*
X015647Y006710D02*
X019350Y006710D01*
X019350Y006611D02*
X015746Y006611D01*
X015844Y006513D02*
X019350Y006513D01*
X019350Y006414D02*
X015943Y006414D01*
X016041Y006316D02*
X019350Y006316D01*
X019350Y006217D02*
X016140Y006217D01*
X015479Y004838D02*
X019350Y004838D01*
X019350Y004740D02*
X015479Y004740D01*
X015479Y004641D02*
X019350Y004641D01*
X019350Y004543D02*
X015479Y004543D01*
X015479Y004444D02*
X019350Y004444D01*
X019350Y004346D02*
X015479Y004346D01*
X015479Y004247D02*
X019350Y004247D01*
X019350Y004149D02*
X015479Y004149D01*
X015479Y004050D02*
X019350Y004050D01*
X019350Y003952D02*
X016589Y003952D01*
X016670Y003853D02*
X019350Y003853D01*
X019350Y003755D02*
X016670Y003755D01*
X016670Y003656D02*
X019350Y003656D01*
X019350Y003558D02*
X016670Y003558D01*
X016670Y003459D02*
X019350Y003459D01*
X019350Y003361D02*
X016670Y003361D01*
X016670Y003262D02*
X019350Y003262D01*
X019350Y003164D02*
X016670Y003164D01*
X016670Y003065D02*
X019350Y003065D01*
X019350Y002967D02*
X016670Y002967D01*
X016670Y002868D02*
X019350Y002868D01*
X019350Y002770D02*
X016670Y002770D01*
X016670Y002671D02*
X019350Y002671D01*
X019350Y002573D02*
X016670Y002573D01*
X014080Y002080D02*
X011178Y002080D01*
X011187Y001982D02*
X014080Y001982D01*
X014080Y001883D02*
X011187Y001883D01*
X011187Y001785D02*
X014125Y001785D01*
X010702Y001409D02*
X010702Y000952D01*
X010217Y000997D02*
X001765Y000997D01*
X001666Y001095D02*
X010217Y001095D01*
X010217Y001194D02*
X001568Y001194D01*
X001469Y001292D02*
X010217Y001292D01*
X010217Y000898D02*
X001863Y000898D01*
X003150Y005134D02*
X004789Y005134D01*
X004789Y005232D02*
X003150Y005232D01*
X003150Y005331D02*
X004789Y005331D01*
X004789Y005429D02*
X003150Y005429D01*
X003150Y005528D02*
X004789Y005528D01*
X004789Y005626D02*
X003150Y005626D01*
X004718Y007793D02*
X001070Y007793D01*
X001070Y007892D02*
X004699Y007892D01*
X004699Y007990D02*
X001070Y007990D01*
X001070Y008089D02*
X004699Y008089D01*
X004699Y008187D02*
X001070Y008187D01*
X001070Y008286D02*
X004699Y008286D01*
X004699Y008384D02*
X001070Y008384D01*
X005839Y008778D02*
X014049Y008778D01*
X014049Y008680D02*
X006123Y008680D01*
X006220Y008581D02*
X014049Y008581D01*
X014049Y008483D02*
X006220Y008483D01*
X006220Y008384D02*
X014049Y008384D01*
X014049Y008286D02*
X006220Y008286D01*
X006220Y008187D02*
X014124Y008187D01*
X014049Y008877D02*
X005938Y008877D01*
X007400Y010157D02*
X007544Y010157D01*
X007490Y010256D02*
X007400Y010256D01*
X007400Y010354D02*
X007462Y010354D01*
X007462Y010453D02*
X007400Y010453D01*
X007400Y010551D02*
X007492Y010551D01*
X007551Y010650D02*
X007400Y010650D01*
X007400Y010748D02*
X007676Y010748D01*
X008210Y010256D02*
X010565Y010256D01*
X010480Y010157D02*
X008156Y010157D01*
X008070Y009566D02*
X014535Y009566D01*
X014589Y009468D02*
X008029Y009468D01*
X007930Y009369D02*
X014589Y009369D01*
X014589Y009271D02*
X007832Y009271D01*
X008422Y011339D02*
X009090Y011339D01*
X009201Y011438D02*
X008324Y011438D01*
X008225Y011536D02*
X013123Y011536D01*
X013116Y011635D02*
X008127Y011635D01*
X008028Y011733D02*
X013116Y011733D01*
X013116Y011832D02*
X007930Y011832D01*
X008208Y012324D02*
X005901Y012324D01*
X005566Y012634D02*
X005550Y012650D01*
X005566Y012634D02*
X008850Y012634D01*
X009492Y012620D02*
X009808Y012620D01*
X009808Y012718D02*
X009492Y012718D01*
X009492Y012817D02*
X009808Y012817D01*
X009808Y012915D02*
X009492Y012915D01*
X009492Y013014D02*
X009808Y013014D01*
X009808Y013112D02*
X009492Y013112D01*
X010250Y013350D02*
X005550Y013350D01*
X005950Y013850D02*
X006100Y014000D01*
X006100Y014580D01*
X005600Y014580D02*
X005600Y015600D01*
X005800Y015400D01*
X006100Y015400D01*
X006600Y015549D02*
X006600Y014580D01*
X005600Y015600D02*
X005600Y015651D01*
X006784Y016067D02*
X006807Y016067D01*
X006784Y016166D02*
X006906Y016166D01*
X006916Y016264D02*
X006784Y016264D01*
X005841Y017840D02*
X004921Y017840D01*
X002293Y018136D02*
X009822Y018136D01*
X009723Y018037D02*
X009348Y018037D01*
X009447Y017939D02*
X009625Y017939D01*
X009100Y017939D02*
X009000Y017939D01*
X009000Y018037D02*
X009100Y018037D01*
X009100Y017840D02*
X009000Y017840D01*
X009000Y017742D02*
X009100Y017742D01*
X010278Y018136D02*
X010822Y018136D01*
X010723Y018037D02*
X010377Y018037D01*
X010475Y017939D02*
X010625Y017939D01*
X011278Y018136D02*
X011822Y018136D01*
X011723Y018037D02*
X011377Y018037D01*
X011475Y017939D02*
X011625Y017939D01*
X012278Y018136D02*
X012822Y018136D01*
X012723Y018037D02*
X012377Y018037D01*
X012475Y017939D02*
X012625Y017939D01*
X013050Y017600D02*
X013590Y018140D01*
X015310Y018140D01*
X015550Y017900D01*
X019350Y017900D01*
X019850Y017400D01*
X019850Y017050D01*
X019310Y017052D02*
X018890Y017052D01*
X018890Y017057D02*
X018808Y017256D01*
X018656Y017408D01*
X018457Y017490D01*
X018243Y017490D01*
X018044Y017408D01*
X017892Y017256D01*
X017871Y017204D01*
X017808Y017356D01*
X017656Y017508D01*
X017457Y017590D01*
X017243Y017590D01*
X017044Y017508D01*
X016892Y017356D01*
X016829Y017204D01*
X016808Y017256D01*
X016656Y017408D01*
X016457Y017490D01*
X016243Y017490D01*
X016044Y017408D01*
X015892Y017256D01*
X015810Y017057D01*
X015810Y016843D01*
X015892Y016644D01*
X015988Y016549D01*
X015009Y015570D01*
X014457Y015570D01*
X014284Y015498D01*
X014152Y015366D01*
X014124Y015301D01*
X014124Y015537D01*
X014025Y015636D01*
X013820Y015636D01*
X013820Y016066D01*
X013826Y016060D01*
X014274Y016060D01*
X014564Y016350D01*
X014835Y016080D01*
X015000Y016080D01*
X015000Y016550D01*
X015100Y016550D01*
X015100Y016650D01*
X015570Y016650D01*
X015570Y016815D01*
X015285Y017100D01*
X015570Y017385D01*
X015570Y017550D01*
X015100Y017550D01*
X015100Y017650D01*
X015570Y017650D01*
X015570Y017680D01*
X019259Y017680D01*
X019488Y017451D01*
X019392Y017356D01*
X019310Y017157D01*
X019310Y016943D01*
X019392Y016744D01*
X019516Y016620D01*
X018991Y016620D01*
X018854Y016757D01*
X018890Y016843D01*
X018890Y017057D01*
X018851Y017151D02*
X019310Y017151D01*
X019348Y017249D02*
X018811Y017249D01*
X018716Y017348D02*
X019389Y017348D01*
X019482Y017446D02*
X018564Y017446D01*
X018136Y017446D02*
X017718Y017446D01*
X017811Y017348D02*
X017984Y017348D01*
X017889Y017249D02*
X017852Y017249D01*
X017567Y017545D02*
X019394Y017545D01*
X019296Y017643D02*
X015100Y017643D01*
X015100Y017550D02*
X015100Y016650D01*
X015000Y016650D01*
X015000Y017120D01*
X015000Y017550D01*
X015100Y017550D01*
X015100Y017545D02*
X015000Y017545D01*
X015000Y017446D02*
X015100Y017446D01*
X015100Y017348D02*
X015000Y017348D01*
X015000Y017249D02*
X015100Y017249D01*
X015100Y017151D02*
X015000Y017151D01*
X015000Y017052D02*
X015100Y017052D01*
X015100Y016954D02*
X015000Y016954D01*
X015000Y016855D02*
X015100Y016855D01*
X015100Y016757D02*
X015000Y016757D01*
X015000Y016658D02*
X015100Y016658D01*
X015100Y016560D02*
X015977Y016560D01*
X015900Y016461D02*
X015570Y016461D01*
X015570Y016385D02*
X015570Y016550D01*
X015100Y016550D01*
X015100Y016080D01*
X015265Y016080D01*
X015570Y016385D01*
X015548Y016363D02*
X015801Y016363D01*
X015703Y016264D02*
X015449Y016264D01*
X015351Y016166D02*
X015604Y016166D01*
X015506Y016067D02*
X014281Y016067D01*
X014379Y016166D02*
X014749Y016166D01*
X014651Y016264D02*
X014478Y016264D01*
X015000Y016264D02*
X015100Y016264D01*
X015100Y016166D02*
X015000Y016166D01*
X015000Y016363D02*
X015100Y016363D01*
X015100Y016461D02*
X015000Y016461D01*
X015570Y016658D02*
X015886Y016658D01*
X015846Y016757D02*
X015570Y016757D01*
X015530Y016855D02*
X015810Y016855D01*
X015810Y016954D02*
X015432Y016954D01*
X015333Y017052D02*
X015810Y017052D01*
X015849Y017151D02*
X015336Y017151D01*
X015434Y017249D02*
X015889Y017249D01*
X015984Y017348D02*
X015533Y017348D01*
X015570Y017446D02*
X016136Y017446D01*
X016564Y017446D02*
X016982Y017446D01*
X016889Y017348D02*
X016716Y017348D01*
X016811Y017249D02*
X016848Y017249D01*
X017133Y017545D02*
X015570Y017545D01*
X015626Y018136D02*
X022899Y018136D01*
X022899Y018234D02*
X015527Y018234D01*
X015429Y018333D02*
X022900Y018333D01*
X022899Y018037D02*
X019524Y018037D01*
X019623Y017939D02*
X022898Y017939D01*
X022898Y017840D02*
X019721Y017840D01*
X019820Y017742D02*
X022897Y017742D01*
X020629Y017643D02*
X019918Y017643D01*
X020067Y017545D02*
X020481Y017545D01*
X020388Y017446D02*
X020218Y017446D01*
X020311Y017348D02*
X020347Y017348D01*
X020354Y016855D02*
X020388Y016855D01*
X020313Y016757D02*
X020480Y016757D01*
X020627Y016658D02*
X020222Y016658D01*
X019478Y016658D02*
X018953Y016658D01*
X018855Y016757D02*
X019387Y016757D01*
X019346Y016855D02*
X018890Y016855D01*
X018890Y016954D02*
X019310Y016954D01*
X016350Y016950D02*
X016350Y016600D01*
X014850Y015100D01*
X014261Y015476D02*
X014124Y015476D01*
X014124Y015378D02*
X014163Y015378D01*
X014086Y015575D02*
X015013Y015575D01*
X015112Y015673D02*
X013820Y015673D01*
X013820Y015772D02*
X015210Y015772D01*
X015309Y015870D02*
X013820Y015870D01*
X013820Y015969D02*
X015407Y015969D01*
X014850Y014100D02*
X014799Y014049D01*
X013600Y014049D01*
X012860Y013510D02*
X013369Y013001D01*
X013620Y013001D01*
X013570Y012324D02*
X013670Y012324D01*
X013670Y012226D02*
X013570Y012226D01*
X013570Y012127D02*
X013670Y012127D01*
X013670Y012029D02*
X013570Y012029D01*
X013570Y011733D02*
X013670Y011733D01*
X013670Y011635D02*
X013570Y011635D01*
X013570Y011536D02*
X013670Y011536D01*
X013670Y011438D02*
X013570Y011438D01*
X013232Y011438D02*
X009599Y011438D01*
X009489Y012127D02*
X009811Y012127D01*
X009808Y012226D02*
X009492Y012226D01*
X009492Y012324D02*
X009808Y012324D01*
X009808Y012423D02*
X009492Y012423D01*
X009492Y012521D02*
X009808Y012521D01*
X010450Y012634D02*
X010450Y013150D01*
X010250Y013350D01*
X010405Y013506D02*
X011469Y013506D01*
X011510Y013408D02*
X010504Y013408D01*
X010602Y013309D02*
X011592Y013309D01*
X011531Y013211D02*
X011019Y013211D01*
X011092Y013112D02*
X011458Y013112D01*
X011458Y013014D02*
X011092Y013014D01*
X011092Y012915D02*
X011458Y012915D01*
X011458Y012817D02*
X011092Y012817D01*
X011092Y012718D02*
X011458Y012718D01*
X011458Y012620D02*
X011092Y012620D01*
X011092Y012521D02*
X011458Y012521D01*
X011458Y012423D02*
X011092Y012423D01*
X011092Y012324D02*
X011458Y012324D01*
X011458Y012226D02*
X011092Y012226D01*
X011089Y012127D02*
X011461Y012127D01*
X014031Y010945D02*
X015669Y010945D01*
X015548Y010847D02*
X014152Y010847D01*
X015042Y010157D02*
X016832Y010157D01*
X016780Y010256D02*
X016033Y010256D01*
X016153Y010354D02*
X016780Y010354D01*
X016780Y010453D02*
X016209Y010453D01*
X016238Y010551D02*
X016750Y010551D01*
X016663Y010650D02*
X016238Y010650D01*
X016524Y013703D02*
X016582Y013703D01*
X020570Y014294D02*
X022345Y014294D01*
X010480Y003164D02*
X009213Y003164D01*
X009238Y003065D02*
X010480Y003065D01*
X010480Y002967D02*
X009238Y002967D01*
X009238Y002868D02*
X010542Y002868D01*
X008850Y002850D02*
X008850Y002600D01*
X008641Y002391D01*
X008641Y001952D01*
D27*
X007100Y009500D03*
X007850Y010400D03*
X009400Y011100D03*
X011850Y013600D03*
X011350Y015600D03*
X012900Y015800D03*
X015250Y012750D03*
X015850Y012100D03*
X015250Y011500D03*
X015850Y010600D03*
X014800Y009850D03*
X013850Y010600D03*
X017000Y010850D03*
X018200Y011300D03*
X017350Y012100D03*
X018200Y012850D03*
X019500Y012900D03*
X019500Y011250D03*
X007960Y014110D03*
X007760Y015410D03*
X006100Y015400D03*
X006150Y017600D03*
X007400Y017600D03*
X002000Y017880D03*
X000750Y011450D03*
X001600Y011300D03*
X003350Y009800D03*
X004600Y009800D03*
D28*
X005459Y006402D02*
X005459Y002991D01*
X005850Y002600D01*
X005850Y002775D01*
X005925Y002850D01*
X011350Y004100D02*
X011575Y004100D01*
X011600Y004125D01*
X011350Y004100D02*
X011910Y004660D01*
X012498Y005248D01*
X012498Y006259D01*
X014809Y006600D02*
X015884Y005526D01*
X021100Y005526D01*
X021600Y005526D01*
X015850Y002600D02*
X015625Y002600D01*
X015375Y002850D01*
X015850Y002600D02*
X014809Y003641D01*
X014809Y006600D01*
X014809Y006852D01*
D29*
X011910Y005000D02*
X011910Y004660D01*
X011910Y005000D02*
X011600Y005000D01*
X010900Y005000D01*
X010900Y004150D02*
X011600Y004150D01*
X011600Y004125D01*
X011600Y004150D02*
X012250Y004150D01*
X011600Y004100D02*
X011600Y003250D01*
X010900Y003250D01*
X011600Y003250D02*
X012300Y003250D01*
X011600Y004100D02*
X011575Y004100D01*
D30*
X009760Y003910D03*
X009760Y003210D03*
X008850Y002850D03*
X009760Y004510D03*
X009850Y005600D03*
X013460Y003310D03*
X013460Y002510D03*
X018360Y002910D03*
X019060Y002910D03*
X021650Y006390D03*
X005550Y012650D03*
X005550Y013350D03*
X004100Y013350D03*
X003300Y013350D03*
X002600Y013500D03*
X002600Y012100D03*
X004400Y011600D03*
M02*
