G75*
G70*
%OFA0B0*%
%FSLAX24Y24*%
%IPPOS*%
%LPD*%
%AMOC8*
5,1,8,0,0,1.08239X$1,22.5*
%
%ADD10C,0.0680*%
%ADD11R,0.1080X0.1080*%
%ADD12C,0.1080*%
%ADD13R,0.0880X0.0880*%
%ADD14C,0.0880*%
%ADD15OC8,0.0820*%
%ADD16C,0.0820*%
%ADD17R,0.0556X0.0556*%
%ADD18C,0.0516*%
%ADD19R,0.0516X0.0516*%
D10*
X014550Y014100D02*
X015150Y014100D01*
X015150Y015100D02*
X014550Y015100D01*
X016850Y015100D02*
X017450Y015100D01*
X017450Y014100D02*
X016850Y014100D01*
X019200Y014100D02*
X019800Y014100D01*
X019800Y015100D02*
X019200Y015100D01*
D11*
X002100Y006600D03*
D12*
X002100Y004600D03*
D13*
X021600Y002630D03*
D14*
X021600Y004078D03*
X021600Y005526D03*
D15*
X022050Y007600D03*
X022050Y008600D03*
X021050Y008600D03*
X021050Y007600D03*
X021050Y009600D03*
X021050Y010600D03*
X022050Y010600D03*
X022050Y009600D03*
X022050Y011600D03*
X022050Y012600D03*
X022050Y013600D03*
X021050Y013600D03*
X021050Y012600D03*
X021050Y011600D03*
X015050Y016600D03*
X014050Y016600D03*
X013050Y016600D03*
X012050Y016600D03*
X011050Y016600D03*
X010050Y016600D03*
X009050Y016600D03*
X009050Y017600D03*
X010050Y017600D03*
X011050Y017600D03*
X012050Y017600D03*
X013050Y017600D03*
X014050Y017600D03*
X015050Y017600D03*
D16*
X016350Y016950D03*
X017350Y017050D03*
X018350Y016950D03*
X019850Y017050D03*
X020850Y017150D03*
X021850Y017050D03*
D17*
X005050Y002150D03*
X005900Y002150D03*
X005900Y002850D03*
X005900Y003500D03*
X005050Y003550D03*
X005050Y002850D03*
X006800Y002850D03*
X006800Y003550D03*
X006800Y002150D03*
X010900Y003250D03*
X011600Y003250D03*
X012300Y003250D03*
X012250Y004150D03*
X011600Y004150D03*
X010900Y004150D03*
X010900Y005000D03*
X011600Y005000D03*
X012300Y005000D03*
X014500Y003550D03*
X014500Y002850D03*
X015350Y002850D03*
X015350Y003500D03*
X016250Y003550D03*
X016250Y002850D03*
X016250Y002150D03*
X015350Y002150D03*
X014500Y002150D03*
X009050Y006600D03*
X009050Y007300D03*
X009050Y008000D03*
X008200Y008000D03*
X008200Y007300D03*
X008200Y006650D03*
X007300Y006600D03*
X007300Y007300D03*
X007300Y008000D03*
X010900Y008100D03*
X011600Y008100D03*
X012300Y008100D03*
X012250Y009000D03*
X011600Y009000D03*
X010900Y009000D03*
X010900Y009850D03*
X011600Y009850D03*
X012300Y009850D03*
X016650Y008450D03*
X016650Y007750D03*
X016650Y007050D03*
X017550Y007100D03*
X018400Y007050D03*
X018400Y007750D03*
X017550Y007750D03*
X017550Y008450D03*
X018400Y008450D03*
D18*
X015850Y010600D03*
X014800Y009850D03*
X013850Y010600D03*
X015250Y011500D03*
X015850Y012100D03*
X015250Y012750D03*
X017350Y012100D03*
X018200Y012850D03*
X019500Y012900D03*
X019500Y011250D03*
X018200Y011300D03*
X017000Y010850D03*
X011850Y013600D03*
X011350Y015600D03*
X012900Y015800D03*
X007960Y014110D03*
X007760Y015410D03*
X006100Y015400D03*
X006150Y017600D03*
X007400Y017600D03*
X002000Y017880D03*
X000750Y011450D03*
X001600Y011300D03*
X003350Y009800D03*
X004600Y009800D03*
X007100Y009500D03*
X007850Y010400D03*
X009400Y011100D03*
D19*
X005550Y012650D03*
X005550Y013350D03*
X004100Y013350D03*
X003300Y013350D03*
X002600Y013500D03*
X002600Y012100D03*
X004400Y011600D03*
X009850Y005600D03*
X009760Y004510D03*
X009760Y003910D03*
X009760Y003210D03*
X008850Y002850D03*
X013460Y002510D03*
X013460Y003310D03*
X018360Y002910D03*
X019060Y002910D03*
X021650Y006390D03*
M02*
