G75*
G70*
%OFA0B0*%
%FSLAX24Y24*%
%IPPOS*%
%LPD*%
%AMOC8*
5,1,8,0,0,1.08239X$1,22.5*
%
%ADD10C,0.0680*%
%ADD11R,0.0789X0.0710*%
%ADD12R,0.1080X0.1080*%
%ADD13C,0.1080*%
%ADD14R,0.0880X0.0880*%
%ADD15C,0.0880*%
%ADD16OC8,0.0820*%
%ADD17C,0.0820*%
%ADD18R,0.1261X0.0710*%
%ADD19R,0.2330X0.1980*%
%ADD20R,0.0556X0.0556*%
%ADD21R,0.0710X0.1261*%
%ADD22R,0.1980X0.2330*%
%ADD23R,0.0340X0.0880*%
%ADD24R,0.0710X0.0789*%
%ADD25R,0.1025X0.0946*%
D10*
X014550Y014100D02*
X015150Y014100D01*
X015150Y015100D02*
X014550Y015100D01*
X016850Y015100D02*
X017450Y015100D01*
X017450Y014100D02*
X016850Y014100D01*
X019200Y014100D02*
X019800Y014100D01*
X019800Y015100D02*
X019200Y015100D01*
D11*
X018250Y015151D03*
X018250Y014049D03*
X016000Y014049D03*
X016000Y015151D03*
X013600Y015151D03*
X013600Y014049D03*
X013620Y013001D03*
X013620Y011899D03*
D12*
X002100Y006600D03*
D13*
X002100Y004600D03*
D14*
X021600Y002630D03*
D15*
X021600Y004078D03*
X021600Y005526D03*
D16*
X022050Y007600D03*
X022050Y008600D03*
X021050Y008600D03*
X021050Y007600D03*
X021050Y009600D03*
X021050Y010600D03*
X022050Y010600D03*
X022050Y009600D03*
X022050Y011600D03*
X022050Y012600D03*
X022050Y013600D03*
X021050Y013600D03*
X021050Y012600D03*
X021050Y011600D03*
X015050Y016600D03*
X014050Y016600D03*
X013050Y016600D03*
X012050Y016600D03*
X011050Y016600D03*
X010050Y016600D03*
X009050Y016600D03*
X009050Y017600D03*
X010050Y017600D03*
X011050Y017600D03*
X012050Y017600D03*
X013050Y017600D03*
X014050Y017600D03*
X015050Y017600D03*
D17*
X016350Y016950D03*
X017350Y017050D03*
X018350Y016950D03*
X019850Y017050D03*
X020850Y017150D03*
X021850Y017050D03*
D18*
X014809Y008648D03*
X014809Y006852D03*
X018091Y003748D03*
X018091Y001952D03*
X008641Y001952D03*
X008641Y003748D03*
X005459Y006402D03*
X005459Y008198D03*
D19*
X008175Y007300D03*
X005925Y002850D03*
X015375Y002850D03*
X017525Y007750D03*
D20*
X005050Y002150D03*
X005900Y002150D03*
X005900Y002850D03*
X005900Y003500D03*
X005050Y003550D03*
X005050Y002850D03*
X006800Y002850D03*
X006800Y003550D03*
X006800Y002150D03*
X010900Y003250D03*
X011600Y003250D03*
X012300Y003250D03*
X012250Y004150D03*
X011600Y004150D03*
X010900Y004150D03*
X010900Y005000D03*
X011600Y005000D03*
X012300Y005000D03*
X014500Y003550D03*
X014500Y002850D03*
X015350Y002850D03*
X015350Y003500D03*
X016250Y003550D03*
X016250Y002850D03*
X016250Y002150D03*
X015350Y002150D03*
X014500Y002150D03*
X009050Y006600D03*
X009050Y007300D03*
X009050Y008000D03*
X008200Y008000D03*
X008200Y007300D03*
X008200Y006650D03*
X007300Y006600D03*
X007300Y007300D03*
X007300Y008000D03*
X010900Y008100D03*
X011600Y008100D03*
X012300Y008100D03*
X012250Y009000D03*
X011600Y009000D03*
X010900Y009000D03*
X010900Y009850D03*
X011600Y009850D03*
X012300Y009850D03*
X016650Y008450D03*
X016650Y007750D03*
X016650Y007050D03*
X017550Y007100D03*
X018400Y007050D03*
X018400Y007750D03*
X017550Y007750D03*
X017550Y008450D03*
X018400Y008450D03*
D21*
X012498Y006259D03*
X010702Y006259D03*
X010702Y001409D03*
X012498Y001409D03*
D22*
X011600Y004125D03*
X011600Y008975D03*
D23*
X007100Y010620D03*
X006600Y010620D03*
X006100Y010620D03*
X005600Y010620D03*
X005100Y010620D03*
X004600Y010620D03*
X004100Y010620D03*
X003600Y010620D03*
X003100Y010620D03*
X002600Y010620D03*
X002600Y014580D03*
X003100Y014580D03*
X003600Y014580D03*
X004100Y014580D03*
X004600Y014580D03*
X005100Y014580D03*
X005600Y014580D03*
X006100Y014580D03*
X006600Y014580D03*
X007100Y014580D03*
D24*
X007401Y016350D03*
X006299Y016350D03*
X005401Y016350D03*
X004299Y016350D03*
X003401Y016350D03*
X002299Y016350D03*
D25*
X008850Y014566D03*
X010450Y014566D03*
X012100Y014566D03*
X012100Y012634D03*
X010450Y012634D03*
X008850Y012634D03*
M02*
