G75*
G70*
%OFA0B0*%
%FSLAX24Y24*%
%IPPOS*%
%LPD*%
%AMOC8*
5,1,8,0,0,1.08239X$1,22.5*
%
%ADD10C,0.0050*%
%ADD11R,0.8950X0.3850*%
%ADD12R,0.8950X0.5200*%
%ADD13C,0.0080*%
D10*
X002700Y000300D02*
X002700Y010300D01*
X012700Y010300D01*
X012700Y000300D01*
X002700Y000300D01*
D11*
X007725Y007975D03*
D12*
X007725Y003150D03*
D13*
X014150Y003050D02*
X014150Y003550D01*
X014400Y003800D01*
X014150Y004050D01*
X014150Y004550D01*
X014400Y004800D01*
X014150Y005050D01*
X014150Y005550D01*
X014400Y005800D01*
X014150Y006050D01*
X014150Y006550D01*
X014400Y006800D01*
X014900Y006800D01*
X015150Y006550D01*
X015150Y006050D01*
X014900Y005800D01*
X015150Y005550D01*
X015150Y005050D01*
X014900Y004800D01*
X015150Y004550D01*
X015150Y004050D01*
X014900Y003800D01*
X015150Y003550D01*
X015150Y003050D01*
X014900Y002800D01*
X014400Y002800D01*
X014150Y003050D01*
X014450Y002500D02*
X014950Y002500D01*
X015200Y002250D01*
X015200Y001750D01*
X014950Y001500D01*
X015200Y001250D01*
X015200Y000750D01*
X014950Y000500D01*
X014450Y000500D01*
X014200Y000750D01*
X014200Y001250D01*
X014450Y001500D01*
X014200Y001750D01*
X014200Y002250D01*
X014450Y002500D01*
M02*
