G75*
G70*
%OFA0B0*%
%FSLAX24Y24*%
%IPPOS*%
%LPD*%
%AMOC8*
5,1,8,0,0,1.08239X$1,22.5*
%
%ADD10C,0.1000*%
%ADD11R,0.1000X0.1000*%
%ADD12R,0.0800X0.0800*%
%ADD13C,0.0800*%
%ADD14C,0.0740*%
%ADD15R,0.0397X0.0397*%
%ADD16OC8,0.0520*%
%ADD17R,0.0709X0.0630*%
%ADD18C,0.0100*%
%ADD19C,0.0396*%
%ADD20C,0.0160*%
%ADD21C,0.0560*%
D10*
X013801Y013964D03*
X013801Y015214D03*
X020051Y013964D03*
X020051Y017714D03*
D11*
X013801Y017714D03*
D12*
X027770Y010825D03*
X001896Y007600D03*
D13*
X001896Y009569D03*
X001896Y011537D03*
X027770Y012203D03*
D14*
X027726Y015632D03*
X027726Y016632D03*
X027726Y017632D03*
X027697Y007899D03*
X027597Y006899D03*
X027697Y005899D03*
X027597Y004899D03*
X027697Y003899D03*
X027597Y002899D03*
X010907Y001490D03*
X009907Y001490D03*
X001490Y015608D03*
X001490Y016608D03*
X001490Y017608D03*
D15*
X008970Y010850D03*
X008970Y010350D03*
X009470Y010350D03*
X009970Y010350D03*
X009970Y010850D03*
X009470Y010850D03*
X009470Y009850D03*
X009970Y009850D03*
X009970Y009350D03*
X009470Y009350D03*
X008970Y009350D03*
X008970Y008850D03*
X009470Y008850D03*
X009970Y008850D03*
X009970Y008350D03*
X009470Y008350D03*
X008970Y008350D03*
X008970Y009850D03*
D16*
X024520Y014380D03*
X025270Y014880D03*
X025270Y013880D03*
D17*
X007321Y013014D03*
X006120Y013021D03*
X006120Y011919D03*
X007321Y011911D03*
X003569Y011396D03*
X003549Y010372D03*
X003549Y009270D03*
X003510Y007644D03*
X003510Y006541D03*
X006403Y007084D03*
X006403Y005982D03*
X003569Y012498D03*
D18*
X003594Y013023D02*
X003127Y013023D01*
X003004Y012900D01*
X003004Y012788D01*
X002889Y012788D01*
X002782Y012744D01*
X002593Y012555D01*
X002512Y012473D01*
X002468Y012367D01*
X002468Y011750D01*
X002413Y011883D01*
X002241Y012054D01*
X002017Y012147D01*
X001774Y012147D01*
X001550Y012054D01*
X001378Y011883D01*
X001286Y011659D01*
X001286Y011416D01*
X001378Y011192D01*
X001550Y011020D01*
X001774Y010927D01*
X002017Y010927D01*
X002241Y011020D01*
X002413Y011192D01*
X002468Y011325D01*
X002468Y009781D01*
X002413Y009914D01*
X002241Y010086D01*
X002017Y010179D01*
X001774Y010179D01*
X001550Y010086D01*
X001378Y009914D01*
X001286Y009690D01*
X001286Y009447D01*
X001378Y009223D01*
X001550Y009052D01*
X001774Y008959D01*
X002017Y008959D01*
X002241Y009052D01*
X002413Y009223D01*
X002484Y009396D01*
X002512Y009330D01*
X002535Y009307D01*
X002453Y009225D01*
X002409Y009119D01*
X002409Y008184D01*
X002382Y008210D01*
X001409Y008210D01*
X001286Y008087D01*
X001286Y007113D01*
X001409Y006990D01*
X002382Y006990D01*
X002409Y007016D01*
X002409Y006798D01*
X002453Y006692D01*
X002534Y006610D01*
X002849Y006295D01*
X002945Y006256D01*
X002945Y006139D01*
X003068Y006016D01*
X003951Y006016D01*
X004074Y006139D01*
X004074Y006943D01*
X003951Y007066D01*
X003068Y007066D01*
X002989Y006986D01*
X002989Y007198D01*
X003068Y007119D01*
X003951Y007119D01*
X004074Y007242D01*
X004074Y007354D01*
X004630Y007354D01*
X004630Y004751D01*
X004705Y004571D01*
X005239Y004036D01*
X001618Y004036D01*
X001119Y004535D01*
X001119Y014827D01*
X001336Y015044D01*
X001375Y015028D01*
X001605Y015028D01*
X001819Y015116D01*
X001982Y015280D01*
X001998Y015318D01*
X006174Y015318D01*
X006280Y015362D01*
X006362Y015444D01*
X007248Y016330D01*
X014882Y016330D01*
X015499Y015712D01*
X015499Y010608D01*
X015443Y010552D01*
X015381Y010402D01*
X015381Y010240D01*
X015443Y010090D01*
X015499Y010034D01*
X015499Y007458D01*
X015443Y007402D01*
X015381Y007252D01*
X015381Y007090D01*
X015443Y006940D01*
X015558Y006825D01*
X015708Y006763D01*
X015787Y006763D01*
X016806Y005744D01*
X016913Y005700D01*
X023986Y005700D01*
X024042Y005644D01*
X024192Y005582D01*
X024355Y005582D01*
X024505Y005644D01*
X024561Y005700D01*
X024902Y005700D01*
X025009Y005744D01*
X025090Y005826D01*
X025515Y006251D01*
X025535Y006299D01*
X025535Y005012D01*
X025035Y004511D01*
X006150Y004511D01*
X005610Y005051D01*
X005610Y011463D01*
X005617Y011455D01*
X005617Y005558D01*
X005661Y005452D01*
X005743Y005370D01*
X006530Y004583D01*
X006637Y004539D01*
X010296Y004539D01*
X010402Y004583D01*
X010484Y004664D01*
X012846Y007027D01*
X012890Y007133D01*
X012890Y012760D01*
X012846Y012867D01*
X012371Y013342D01*
X012264Y013386D01*
X011146Y013386D01*
X009615Y014917D01*
X009508Y014961D01*
X006243Y014961D01*
X006137Y014917D01*
X006055Y014835D01*
X005787Y014567D01*
X004669Y014567D01*
X004562Y014523D01*
X004480Y014442D01*
X003719Y013681D01*
X003638Y013599D01*
X003594Y013493D01*
X003594Y013023D01*
X003594Y013086D02*
X001119Y013086D01*
X001119Y012988D02*
X003092Y012988D01*
X003004Y012889D02*
X001119Y012889D01*
X001119Y012791D02*
X003004Y012791D01*
X002731Y012692D02*
X001119Y012692D01*
X001119Y012594D02*
X002632Y012594D01*
X002534Y012495D02*
X001119Y012495D01*
X001119Y012397D02*
X002480Y012397D01*
X002468Y012298D02*
X001119Y012298D01*
X001119Y012200D02*
X002468Y012200D01*
X002468Y012101D02*
X002128Y012101D01*
X002293Y012003D02*
X002468Y012003D01*
X002468Y011904D02*
X002391Y011904D01*
X002445Y011806D02*
X002468Y011806D01*
X002463Y011313D02*
X002468Y011313D01*
X002468Y011215D02*
X002422Y011215D01*
X002468Y011116D02*
X002337Y011116D01*
X002235Y011018D02*
X002468Y011018D01*
X002468Y010919D02*
X001119Y010919D01*
X001119Y010821D02*
X002468Y010821D01*
X002468Y010722D02*
X001119Y010722D01*
X001119Y010624D02*
X002468Y010624D01*
X002468Y010525D02*
X001119Y010525D01*
X001119Y010427D02*
X002468Y010427D01*
X002468Y010328D02*
X001119Y010328D01*
X001119Y010230D02*
X002468Y010230D01*
X002468Y010131D02*
X002132Y010131D01*
X002294Y010033D02*
X002468Y010033D01*
X002468Y009934D02*
X002393Y009934D01*
X002445Y009836D02*
X002468Y009836D01*
X002462Y009343D02*
X002506Y009343D01*
X002472Y009245D02*
X002422Y009245D01*
X002420Y009146D02*
X002336Y009146D01*
X002409Y009048D02*
X002232Y009048D01*
X002409Y008949D02*
X001119Y008949D01*
X001119Y008851D02*
X002409Y008851D01*
X002409Y008752D02*
X001119Y008752D01*
X001119Y008654D02*
X002409Y008654D01*
X002409Y008555D02*
X001119Y008555D01*
X001119Y008457D02*
X002409Y008457D01*
X002409Y008358D02*
X001119Y008358D01*
X001119Y008260D02*
X002409Y008260D01*
X001359Y008161D02*
X001119Y008161D01*
X001119Y008063D02*
X001286Y008063D01*
X001286Y007964D02*
X001119Y007964D01*
X001119Y007866D02*
X001286Y007866D01*
X001286Y007767D02*
X001119Y007767D01*
X001119Y007669D02*
X001286Y007669D01*
X001286Y007570D02*
X001119Y007570D01*
X001119Y007472D02*
X001286Y007472D01*
X001286Y007373D02*
X001119Y007373D01*
X001119Y007275D02*
X001286Y007275D01*
X001286Y007176D02*
X001119Y007176D01*
X001119Y007078D02*
X001321Y007078D01*
X001119Y006979D02*
X002409Y006979D01*
X002409Y006881D02*
X001119Y006881D01*
X001119Y006782D02*
X002415Y006782D01*
X002461Y006684D02*
X001119Y006684D01*
X001119Y006585D02*
X002559Y006585D01*
X002658Y006487D02*
X001119Y006487D01*
X001119Y006388D02*
X002756Y006388D01*
X002863Y006290D02*
X001119Y006290D01*
X001119Y006191D02*
X002945Y006191D01*
X002992Y006093D02*
X001119Y006093D01*
X001119Y005994D02*
X004630Y005994D01*
X004630Y005896D02*
X001119Y005896D01*
X001119Y005797D02*
X004630Y005797D01*
X004630Y005699D02*
X001119Y005699D01*
X001119Y005600D02*
X004630Y005600D01*
X004630Y005502D02*
X001119Y005502D01*
X001119Y005403D02*
X004630Y005403D01*
X004630Y005305D02*
X001119Y005305D01*
X001119Y005206D02*
X004630Y005206D01*
X004630Y005108D02*
X001119Y005108D01*
X001119Y005009D02*
X004630Y005009D01*
X004630Y004911D02*
X001119Y004911D01*
X001119Y004812D02*
X004630Y004812D01*
X004645Y004714D02*
X001119Y004714D01*
X001119Y004615D02*
X004686Y004615D01*
X004759Y004517D02*
X001137Y004517D01*
X001236Y004418D02*
X004857Y004418D01*
X004956Y004320D02*
X001334Y004320D01*
X001433Y004221D02*
X005054Y004221D01*
X005153Y004123D02*
X001531Y004123D01*
X004027Y006093D02*
X004630Y006093D01*
X004630Y006191D02*
X004074Y006191D01*
X004074Y006290D02*
X004630Y006290D01*
X004630Y006388D02*
X004074Y006388D01*
X004074Y006487D02*
X004630Y006487D01*
X004630Y006585D02*
X004074Y006585D01*
X004074Y006684D02*
X004630Y006684D01*
X004630Y006782D02*
X004074Y006782D01*
X004074Y006881D02*
X004630Y006881D01*
X004630Y006979D02*
X004038Y006979D01*
X004009Y007176D02*
X004630Y007176D01*
X004630Y007078D02*
X002989Y007078D01*
X002989Y007176D02*
X003011Y007176D01*
X004074Y007275D02*
X004630Y007275D01*
X005610Y007275D02*
X005617Y007275D01*
X005610Y007373D02*
X005617Y007373D01*
X005610Y007472D02*
X005617Y007472D01*
X005610Y007570D02*
X005617Y007570D01*
X005610Y007669D02*
X005617Y007669D01*
X005610Y007767D02*
X005617Y007767D01*
X005610Y007866D02*
X005617Y007866D01*
X005610Y007964D02*
X005617Y007964D01*
X005610Y008063D02*
X005617Y008063D01*
X005610Y008161D02*
X005617Y008161D01*
X005610Y008260D02*
X005617Y008260D01*
X005610Y008358D02*
X005617Y008358D01*
X005610Y008457D02*
X005617Y008457D01*
X005610Y008555D02*
X005617Y008555D01*
X005610Y008654D02*
X005617Y008654D01*
X005610Y008752D02*
X005617Y008752D01*
X005610Y008851D02*
X005617Y008851D01*
X005610Y008949D02*
X005617Y008949D01*
X005610Y009048D02*
X005617Y009048D01*
X005610Y009146D02*
X005617Y009146D01*
X005610Y009245D02*
X005617Y009245D01*
X005610Y009343D02*
X005617Y009343D01*
X005610Y009442D02*
X005617Y009442D01*
X005610Y009540D02*
X005617Y009540D01*
X005610Y009639D02*
X005617Y009639D01*
X005610Y009737D02*
X005617Y009737D01*
X005610Y009836D02*
X005617Y009836D01*
X005610Y009934D02*
X005617Y009934D01*
X005610Y010033D02*
X005617Y010033D01*
X005610Y010131D02*
X005617Y010131D01*
X005610Y010230D02*
X005617Y010230D01*
X005610Y010328D02*
X005617Y010328D01*
X005610Y010427D02*
X005617Y010427D01*
X005610Y010525D02*
X005617Y010525D01*
X005610Y010624D02*
X005617Y010624D01*
X005610Y010722D02*
X005617Y010722D01*
X005610Y010821D02*
X005617Y010821D01*
X005610Y010919D02*
X005617Y010919D01*
X005610Y011018D02*
X005617Y011018D01*
X005610Y011116D02*
X005617Y011116D01*
X005610Y011215D02*
X005617Y011215D01*
X005610Y011313D02*
X005617Y011313D01*
X005610Y011412D02*
X005617Y011412D01*
X003594Y013185D02*
X001119Y013185D01*
X001119Y013283D02*
X003594Y013283D01*
X003594Y013382D02*
X001119Y013382D01*
X001119Y013480D02*
X003594Y013480D01*
X003629Y013579D02*
X001119Y013579D01*
X001119Y013677D02*
X003716Y013677D01*
X003814Y013776D02*
X001119Y013776D01*
X001119Y013874D02*
X003913Y013874D01*
X004011Y013973D02*
X001119Y013973D01*
X001119Y014071D02*
X004110Y014071D01*
X004208Y014170D02*
X001119Y014170D01*
X001119Y014268D02*
X004307Y014268D01*
X004405Y014367D02*
X001119Y014367D01*
X001119Y014465D02*
X004504Y014465D01*
X004660Y014564D02*
X001119Y014564D01*
X001119Y014662D02*
X005882Y014662D01*
X005981Y014761D02*
X001119Y014761D01*
X001151Y014859D02*
X006079Y014859D01*
X006055Y014835D02*
X006055Y014835D01*
X006235Y014958D02*
X001250Y014958D01*
X001673Y015056D02*
X013098Y015056D01*
X013091Y015073D02*
X013199Y014812D01*
X013399Y014613D01*
X013455Y014589D01*
X013399Y014566D01*
X013199Y014367D01*
X010165Y014367D01*
X010067Y014465D02*
X013298Y014465D01*
X013396Y014564D02*
X009968Y014564D01*
X009870Y014662D02*
X013349Y014662D01*
X013251Y014761D02*
X009771Y014761D01*
X009673Y014859D02*
X013180Y014859D01*
X013139Y014958D02*
X009516Y014958D01*
X010264Y014268D02*
X013158Y014268D01*
X013118Y014170D02*
X010362Y014170D01*
X010461Y014071D02*
X013091Y014071D01*
X013091Y014106D02*
X013091Y013823D01*
X013199Y013562D01*
X013399Y013363D01*
X013660Y013254D01*
X013942Y013254D01*
X014203Y013363D01*
X014403Y013562D01*
X014511Y013823D01*
X014511Y014106D01*
X014403Y014367D01*
X015499Y014367D01*
X015499Y014465D02*
X014304Y014465D01*
X014206Y014564D02*
X015499Y014564D01*
X015499Y014662D02*
X014253Y014662D01*
X014203Y014613D02*
X014403Y014812D01*
X014511Y015073D01*
X014511Y015356D01*
X014403Y015617D01*
X014203Y015816D01*
X013942Y015924D01*
X013660Y015924D01*
X013399Y015816D01*
X013199Y015617D01*
X013091Y015356D01*
X013091Y015073D01*
X013091Y015155D02*
X001857Y015155D01*
X001955Y015253D02*
X013091Y015253D01*
X013091Y015352D02*
X006255Y015352D01*
X006362Y015444D02*
X006362Y015444D01*
X006368Y015450D02*
X013130Y015450D01*
X013171Y015549D02*
X006467Y015549D01*
X006565Y015647D02*
X013230Y015647D01*
X013328Y015746D02*
X006664Y015746D01*
X006762Y015844D02*
X013466Y015844D01*
X014136Y015844D02*
X015367Y015844D01*
X015269Y015943D02*
X006861Y015943D01*
X006959Y016041D02*
X015170Y016041D01*
X015072Y016140D02*
X007058Y016140D01*
X007156Y016238D02*
X014973Y016238D01*
X015498Y016534D02*
X023735Y016534D01*
X023685Y016632D02*
X015400Y016632D01*
X015301Y016731D02*
X023634Y016731D01*
X023609Y016781D02*
X023817Y016373D01*
X024141Y016049D01*
X024549Y015841D01*
X025002Y015769D01*
X025455Y015841D01*
X025863Y016049D01*
X026187Y016373D01*
X026395Y016781D01*
X026395Y016781D01*
X026467Y017234D01*
X026395Y017687D01*
X026187Y018095D01*
X025947Y018335D01*
X028356Y018335D01*
X028383Y018333D01*
X028434Y018316D01*
X028478Y018285D01*
X028509Y018241D01*
X028526Y018190D01*
X028528Y018163D01*
X028528Y001188D01*
X028525Y001147D01*
X028500Y001070D01*
X028452Y001004D01*
X028386Y000956D01*
X028309Y000931D01*
X028268Y000928D01*
X025923Y000928D01*
X026187Y001192D01*
X026395Y001600D01*
X026395Y001600D01*
X026467Y002053D01*
X026395Y002506D01*
X026187Y002914D01*
X026187Y002914D01*
X025863Y003238D01*
X025455Y003446D01*
X025455Y003446D01*
X025002Y003518D01*
X025002Y003518D01*
X024549Y003446D01*
X024141Y003238D01*
X024141Y003238D01*
X023817Y002914D01*
X023609Y002506D01*
X023609Y002506D01*
X023537Y002053D01*
X023609Y001600D01*
X023817Y001192D01*
X023817Y001192D01*
X024080Y000928D01*
X011067Y000928D01*
X011236Y000998D01*
X011399Y001161D01*
X011487Y001375D01*
X011487Y001605D01*
X011399Y001819D01*
X011236Y001982D01*
X011023Y002070D01*
X010792Y002070D01*
X010579Y001982D01*
X010416Y001819D01*
X010407Y001799D01*
X010399Y001819D01*
X010236Y001982D01*
X010023Y002070D01*
X009792Y002070D01*
X009579Y001982D01*
X009416Y001819D01*
X009327Y001605D01*
X009327Y001375D01*
X009416Y001161D01*
X009579Y000998D01*
X009748Y000928D01*
X005687Y000928D01*
X005951Y001192D01*
X006159Y001600D01*
X006159Y001600D01*
X006231Y002053D01*
X006159Y002506D01*
X006078Y002665D01*
X006165Y002629D01*
X015738Y002629D01*
X015794Y002573D01*
X015944Y002511D01*
X016107Y002511D01*
X016257Y002573D01*
X016371Y002688D01*
X016434Y002838D01*
X016434Y003000D01*
X016371Y003150D01*
X016257Y003265D01*
X016107Y003327D01*
X015944Y003327D01*
X015794Y003265D01*
X015738Y003209D01*
X006342Y003209D01*
X006020Y003531D01*
X025335Y003531D01*
X025516Y003606D01*
X026303Y004393D01*
X026441Y004531D01*
X026515Y004711D01*
X026515Y008878D01*
X027852Y010215D01*
X028257Y010215D01*
X028380Y010338D01*
X028380Y011312D01*
X028257Y011435D01*
X027283Y011435D01*
X027160Y011312D01*
X027160Y010908D01*
X025610Y009358D01*
X025560Y009236D01*
X025560Y013505D01*
X025740Y013685D01*
X025740Y014074D01*
X025464Y014350D01*
X025075Y014350D01*
X024990Y014264D01*
X024990Y014574D01*
X024714Y014850D01*
X024325Y014850D01*
X024050Y014574D01*
X024050Y014185D01*
X024325Y013910D01*
X024714Y013910D01*
X024800Y013995D01*
X024800Y013685D01*
X024980Y013505D01*
X024980Y007638D01*
X024757Y007638D01*
X024701Y007694D01*
X024551Y007756D01*
X024389Y007756D01*
X024239Y007694D01*
X024124Y007579D01*
X024062Y007429D01*
X024062Y007267D01*
X024124Y007117D01*
X024239Y007002D01*
X024389Y006940D01*
X024551Y006940D01*
X024701Y007002D01*
X024757Y007058D01*
X024980Y007058D01*
X024980Y006535D01*
X024724Y006280D01*
X024561Y006280D01*
X024505Y006336D01*
X024355Y006398D01*
X024192Y006398D01*
X024042Y006336D01*
X023986Y006280D01*
X017090Y006280D01*
X016197Y007173D01*
X016197Y007252D01*
X016135Y007402D01*
X016079Y007458D01*
X016079Y010034D01*
X016135Y010090D01*
X016197Y010240D01*
X016197Y010402D01*
X016135Y010552D01*
X016079Y010608D01*
X016079Y015890D01*
X016035Y015997D01*
X015953Y016078D01*
X015166Y016866D01*
X015059Y016910D01*
X007070Y016910D01*
X006964Y016866D01*
X006882Y016784D01*
X005996Y015898D01*
X005377Y015898D01*
X005627Y016025D01*
X005627Y016025D01*
X005951Y016349D01*
X006159Y016758D01*
X006231Y017210D01*
X006159Y017663D01*
X006159Y017663D01*
X005951Y018072D01*
X005687Y018335D01*
X013125Y018335D01*
X013091Y018301D01*
X013091Y017127D01*
X013214Y017004D01*
X014388Y017004D01*
X014511Y017127D01*
X014511Y018301D01*
X014477Y018335D01*
X019857Y018335D01*
X019842Y018331D01*
X019763Y018299D01*
X019689Y018256D01*
X019622Y018204D01*
X019561Y018144D01*
X019509Y018076D01*
X019467Y018003D01*
X019434Y017924D01*
X019412Y017841D01*
X019402Y017764D01*
X020001Y017764D01*
X020001Y017664D01*
X020101Y017664D01*
X020101Y017065D01*
X020178Y017076D01*
X020260Y017098D01*
X020339Y017130D01*
X020413Y017173D01*
X020481Y017225D01*
X020541Y017285D01*
X020593Y017353D01*
X020635Y017426D01*
X020668Y017505D01*
X020690Y017587D01*
X020700Y017664D01*
X020101Y017664D01*
X020101Y017764D01*
X020700Y017764D01*
X020690Y017841D01*
X020668Y017924D01*
X020635Y018003D01*
X020593Y018076D01*
X020541Y018144D01*
X020481Y018204D01*
X020413Y018256D01*
X020339Y018299D01*
X020260Y018331D01*
X020245Y018335D01*
X024057Y018335D01*
X023817Y018095D01*
X023609Y017687D01*
X023537Y017234D01*
X023609Y016781D01*
X023609Y016781D01*
X023601Y016829D02*
X015203Y016829D01*
X015597Y016435D02*
X023785Y016435D01*
X023817Y016373D02*
X023817Y016373D01*
X023853Y016337D02*
X015695Y016337D01*
X015794Y016238D02*
X023951Y016238D01*
X024050Y016140D02*
X015892Y016140D01*
X015991Y016041D02*
X024156Y016041D01*
X024141Y016049D02*
X024141Y016049D01*
X024349Y015943D02*
X016057Y015943D01*
X016079Y015844D02*
X024542Y015844D01*
X024549Y015841D02*
X024549Y015841D01*
X025002Y015769D02*
X025002Y015769D01*
X025455Y015841D02*
X025455Y015841D01*
X025461Y015844D02*
X027251Y015844D01*
X027244Y015831D02*
X027219Y015753D01*
X027208Y015682D01*
X027676Y015682D01*
X027676Y016582D01*
X027208Y016582D01*
X027219Y016510D01*
X027244Y016432D01*
X027281Y016359D01*
X027330Y016293D01*
X027387Y016235D01*
X027454Y016187D01*
X027527Y016150D01*
X027582Y016132D01*
X027527Y016114D01*
X027454Y016076D01*
X027387Y016028D01*
X027330Y015970D01*
X027281Y015904D01*
X027244Y015831D01*
X027218Y015746D02*
X016079Y015746D01*
X016079Y015647D02*
X027676Y015647D01*
X027676Y015682D02*
X027676Y015582D01*
X027208Y015582D01*
X027219Y015510D01*
X027244Y015432D01*
X027281Y015359D01*
X027330Y015293D01*
X027387Y015235D01*
X027454Y015187D01*
X027527Y015150D01*
X027604Y015125D01*
X027676Y015113D01*
X027676Y015582D01*
X027776Y015582D01*
X027776Y015682D01*
X027676Y015682D01*
X027676Y015746D02*
X027776Y015746D01*
X027776Y015682D02*
X027776Y016113D01*
X027776Y016582D01*
X027776Y016682D01*
X028245Y016682D01*
X028233Y016753D01*
X028208Y016831D01*
X028171Y016904D01*
X028123Y016970D01*
X028065Y017028D01*
X027999Y017076D01*
X027955Y017099D01*
X028055Y017140D01*
X028218Y017303D01*
X028306Y017516D01*
X028306Y017747D01*
X028218Y017960D01*
X028055Y018123D01*
X027842Y018212D01*
X027611Y018212D01*
X027398Y018123D01*
X027235Y017960D01*
X027146Y017747D01*
X027146Y017516D01*
X027235Y017303D01*
X027398Y017140D01*
X027497Y017099D01*
X027454Y017076D01*
X027387Y017028D01*
X027330Y016970D01*
X027281Y016904D01*
X027244Y016831D01*
X027219Y016753D01*
X027208Y016682D01*
X027676Y016682D01*
X027676Y016582D01*
X027776Y016582D01*
X028245Y016582D01*
X028233Y016510D01*
X028208Y016432D01*
X028171Y016359D01*
X028123Y016293D01*
X028065Y016235D01*
X027999Y016187D01*
X027926Y016150D01*
X027870Y016132D01*
X027926Y016114D01*
X027999Y016076D01*
X028065Y016028D01*
X028123Y015970D01*
X028171Y015904D01*
X028208Y015831D01*
X028233Y015753D01*
X028245Y015682D01*
X027776Y015682D01*
X027776Y015647D02*
X028528Y015647D01*
X028528Y015549D02*
X028240Y015549D01*
X028245Y015582D02*
X028233Y015510D01*
X028208Y015432D01*
X028171Y015359D01*
X028123Y015293D01*
X028065Y015235D01*
X027999Y015187D01*
X027926Y015150D01*
X027848Y015125D01*
X027776Y015113D01*
X027776Y015582D01*
X028245Y015582D01*
X028214Y015450D02*
X028528Y015450D01*
X028528Y015352D02*
X028166Y015352D01*
X028083Y015253D02*
X028528Y015253D01*
X028528Y015155D02*
X027935Y015155D01*
X027776Y015155D02*
X027676Y015155D01*
X027676Y015253D02*
X027776Y015253D01*
X027776Y015352D02*
X027676Y015352D01*
X027676Y015450D02*
X027776Y015450D01*
X027776Y015549D02*
X027676Y015549D01*
X027517Y015155D02*
X025574Y015155D01*
X025476Y015253D02*
X027369Y015253D01*
X027287Y015352D02*
X016079Y015352D01*
X016079Y015450D02*
X027238Y015450D01*
X027213Y015549D02*
X016079Y015549D01*
X016079Y015253D02*
X025063Y015253D01*
X025100Y015290D02*
X024860Y015050D01*
X024860Y014910D01*
X025240Y014910D01*
X025240Y015290D01*
X025100Y015290D01*
X025240Y015253D02*
X025300Y015253D01*
X025300Y015290D02*
X025300Y014910D01*
X025680Y014910D01*
X025680Y015050D01*
X025439Y015290D01*
X025300Y015290D01*
X025300Y015155D02*
X025240Y015155D01*
X025240Y015056D02*
X025300Y015056D01*
X025300Y014958D02*
X025240Y014958D01*
X025240Y014910D02*
X025300Y014910D01*
X025300Y014850D01*
X025680Y014850D01*
X025680Y014710D01*
X025439Y014470D01*
X025300Y014470D01*
X025300Y014850D01*
X025240Y014850D01*
X025240Y014470D01*
X025100Y014470D01*
X024860Y014710D01*
X024860Y014850D01*
X025240Y014850D01*
X025240Y014910D01*
X025240Y014859D02*
X016079Y014859D01*
X016079Y014761D02*
X024236Y014761D01*
X024137Y014662D02*
X020222Y014662D01*
X020192Y014674D02*
X019910Y014674D01*
X019649Y014566D01*
X019449Y014367D01*
X016079Y014367D01*
X016079Y014465D02*
X019548Y014465D01*
X019646Y014564D02*
X016079Y014564D01*
X016079Y014662D02*
X019880Y014662D01*
X020192Y014674D02*
X020453Y014566D01*
X020653Y014367D01*
X024050Y014367D01*
X024050Y014465D02*
X020554Y014465D01*
X020456Y014564D02*
X024050Y014564D01*
X024050Y014268D02*
X020694Y014268D01*
X020734Y014170D02*
X024065Y014170D01*
X024163Y014071D02*
X020761Y014071D01*
X020761Y014106D02*
X020761Y013823D01*
X020653Y013562D01*
X020453Y013363D01*
X020192Y013254D01*
X019910Y013254D01*
X019649Y013363D01*
X019449Y013562D01*
X019341Y013823D01*
X019341Y014106D01*
X019449Y014367D01*
X019408Y014268D02*
X016079Y014268D01*
X016079Y014170D02*
X019368Y014170D01*
X019341Y014071D02*
X016079Y014071D01*
X016079Y013973D02*
X019341Y013973D01*
X019341Y013874D02*
X016079Y013874D01*
X016079Y013776D02*
X019361Y013776D01*
X019401Y013677D02*
X016079Y013677D01*
X016079Y013579D02*
X019442Y013579D01*
X019531Y013480D02*
X016079Y013480D01*
X016079Y013382D02*
X019630Y013382D01*
X019840Y013283D02*
X016079Y013283D01*
X016079Y013185D02*
X024980Y013185D01*
X024980Y013283D02*
X020262Y013283D01*
X020472Y013382D02*
X024980Y013382D01*
X024980Y013480D02*
X020571Y013480D01*
X020660Y013579D02*
X024906Y013579D01*
X024807Y013677D02*
X020701Y013677D01*
X020741Y013776D02*
X024800Y013776D01*
X024800Y013874D02*
X020761Y013874D01*
X020761Y013973D02*
X024262Y013973D01*
X024777Y013973D02*
X024800Y013973D01*
X024990Y014268D02*
X024993Y014268D01*
X024990Y014367D02*
X028528Y014367D01*
X028528Y014465D02*
X024990Y014465D01*
X024990Y014564D02*
X025006Y014564D01*
X024907Y014662D02*
X024902Y014662D01*
X024860Y014761D02*
X024803Y014761D01*
X024860Y014958D02*
X016079Y014958D01*
X016079Y015056D02*
X024866Y015056D01*
X024965Y015155D02*
X016079Y015155D01*
X015499Y015155D02*
X014511Y015155D01*
X014511Y015253D02*
X015499Y015253D01*
X015499Y015352D02*
X014511Y015352D01*
X014472Y015450D02*
X015499Y015450D01*
X015499Y015549D02*
X014431Y015549D01*
X014372Y015647D02*
X015499Y015647D01*
X015466Y015746D02*
X014274Y015746D01*
X014504Y015056D02*
X015499Y015056D01*
X015499Y014958D02*
X014463Y014958D01*
X014422Y014859D02*
X015499Y014859D01*
X015499Y014761D02*
X014351Y014761D01*
X014203Y014613D02*
X014147Y014589D01*
X014203Y014566D01*
X014403Y014367D01*
X014444Y014268D02*
X015499Y014268D01*
X015499Y014170D02*
X014484Y014170D01*
X014511Y014071D02*
X015499Y014071D01*
X015499Y013973D02*
X014511Y013973D01*
X014511Y013874D02*
X015499Y013874D01*
X015499Y013776D02*
X014491Y013776D01*
X014451Y013677D02*
X015499Y013677D01*
X015499Y013579D02*
X014410Y013579D01*
X014321Y013480D02*
X015499Y013480D01*
X015499Y013382D02*
X014222Y013382D01*
X014012Y013283D02*
X015499Y013283D01*
X015499Y013185D02*
X012528Y013185D01*
X012430Y013283D02*
X013590Y013283D01*
X013380Y013382D02*
X012275Y013382D01*
X012627Y013086D02*
X015499Y013086D01*
X015499Y012988D02*
X012725Y012988D01*
X012824Y012889D02*
X015499Y012889D01*
X015499Y012791D02*
X012878Y012791D01*
X012890Y012692D02*
X015499Y012692D01*
X015499Y012594D02*
X012890Y012594D01*
X012890Y012495D02*
X015499Y012495D01*
X015499Y012397D02*
X012890Y012397D01*
X012890Y012298D02*
X015499Y012298D01*
X015499Y012200D02*
X012890Y012200D01*
X012890Y012101D02*
X015499Y012101D01*
X015499Y012003D02*
X012890Y012003D01*
X012890Y011904D02*
X015499Y011904D01*
X015499Y011806D02*
X012890Y011806D01*
X012890Y011707D02*
X015499Y011707D01*
X015499Y011609D02*
X012890Y011609D01*
X012890Y011510D02*
X015499Y011510D01*
X015499Y011412D02*
X012890Y011412D01*
X012890Y011313D02*
X015499Y011313D01*
X015499Y011215D02*
X012890Y011215D01*
X012890Y011116D02*
X015499Y011116D01*
X015499Y011018D02*
X012890Y011018D01*
X012890Y010919D02*
X015499Y010919D01*
X015499Y010821D02*
X012890Y010821D01*
X012890Y010722D02*
X015499Y010722D01*
X015499Y010624D02*
X012890Y010624D01*
X012890Y010525D02*
X015432Y010525D01*
X015391Y010427D02*
X012890Y010427D01*
X012890Y010328D02*
X015381Y010328D01*
X015385Y010230D02*
X012890Y010230D01*
X012890Y010131D02*
X015426Y010131D01*
X015499Y010033D02*
X012890Y010033D01*
X012890Y009934D02*
X015499Y009934D01*
X015499Y009836D02*
X012890Y009836D01*
X012890Y009737D02*
X015499Y009737D01*
X015499Y009639D02*
X012890Y009639D01*
X012890Y009540D02*
X015499Y009540D01*
X015499Y009442D02*
X012890Y009442D01*
X012890Y009343D02*
X015499Y009343D01*
X015499Y009245D02*
X012890Y009245D01*
X012890Y009146D02*
X015499Y009146D01*
X015499Y009048D02*
X012890Y009048D01*
X012890Y008949D02*
X015499Y008949D01*
X015499Y008851D02*
X012890Y008851D01*
X012890Y008752D02*
X015499Y008752D01*
X015499Y008654D02*
X012890Y008654D01*
X012890Y008555D02*
X015499Y008555D01*
X015499Y008457D02*
X012890Y008457D01*
X012890Y008358D02*
X015499Y008358D01*
X015499Y008260D02*
X012890Y008260D01*
X012890Y008161D02*
X015499Y008161D01*
X015499Y008063D02*
X012890Y008063D01*
X012890Y007964D02*
X015499Y007964D01*
X015499Y007866D02*
X012890Y007866D01*
X012890Y007767D02*
X015499Y007767D01*
X015499Y007669D02*
X012890Y007669D01*
X012890Y007570D02*
X015499Y007570D01*
X015499Y007472D02*
X012890Y007472D01*
X012890Y007373D02*
X015431Y007373D01*
X015390Y007275D02*
X012890Y007275D01*
X012890Y007176D02*
X015381Y007176D01*
X015386Y007078D02*
X012867Y007078D01*
X012799Y006979D02*
X015427Y006979D01*
X015502Y006881D02*
X012700Y006881D01*
X012602Y006782D02*
X015662Y006782D01*
X015866Y006684D02*
X012503Y006684D01*
X012405Y006585D02*
X015965Y006585D01*
X016063Y006487D02*
X012306Y006487D01*
X012208Y006388D02*
X016162Y006388D01*
X016260Y006290D02*
X012109Y006290D01*
X012011Y006191D02*
X016359Y006191D01*
X016457Y006093D02*
X011912Y006093D01*
X011814Y005994D02*
X016556Y005994D01*
X016654Y005896D02*
X011715Y005896D01*
X011617Y005797D02*
X016753Y005797D01*
X017081Y006290D02*
X023996Y006290D01*
X024168Y006388D02*
X016982Y006388D01*
X016884Y006487D02*
X024931Y006487D01*
X024980Y006585D02*
X016785Y006585D01*
X016687Y006684D02*
X024980Y006684D01*
X024980Y006782D02*
X016588Y006782D01*
X016490Y006881D02*
X024980Y006881D01*
X024980Y006979D02*
X024646Y006979D01*
X024295Y006979D02*
X016391Y006979D01*
X016293Y007078D02*
X024164Y007078D01*
X024100Y007176D02*
X016197Y007176D01*
X016188Y007275D02*
X024062Y007275D01*
X024062Y007373D02*
X016147Y007373D01*
X016079Y007472D02*
X024080Y007472D01*
X024121Y007570D02*
X016079Y007570D01*
X016079Y007669D02*
X024214Y007669D01*
X024727Y007669D02*
X024980Y007669D01*
X024980Y007767D02*
X016079Y007767D01*
X016079Y007866D02*
X024980Y007866D01*
X024980Y007964D02*
X016079Y007964D01*
X016079Y008063D02*
X024980Y008063D01*
X024980Y008161D02*
X016079Y008161D01*
X016079Y008260D02*
X024980Y008260D01*
X024980Y008358D02*
X016079Y008358D01*
X016079Y008457D02*
X024980Y008457D01*
X024980Y008555D02*
X016079Y008555D01*
X016079Y008654D02*
X024980Y008654D01*
X024980Y008752D02*
X016079Y008752D01*
X016079Y008851D02*
X024980Y008851D01*
X024980Y008949D02*
X016079Y008949D01*
X016079Y009048D02*
X024980Y009048D01*
X024980Y009146D02*
X016079Y009146D01*
X016079Y009245D02*
X024980Y009245D01*
X024980Y009343D02*
X016079Y009343D01*
X016079Y009442D02*
X024980Y009442D01*
X024980Y009540D02*
X016079Y009540D01*
X016079Y009639D02*
X024980Y009639D01*
X024980Y009737D02*
X016079Y009737D01*
X016079Y009836D02*
X024980Y009836D01*
X024980Y009934D02*
X016079Y009934D01*
X016079Y010033D02*
X024980Y010033D01*
X024980Y010131D02*
X016152Y010131D01*
X016193Y010230D02*
X024980Y010230D01*
X024980Y010328D02*
X016197Y010328D01*
X016187Y010427D02*
X024980Y010427D01*
X024980Y010525D02*
X016146Y010525D01*
X016079Y010624D02*
X024980Y010624D01*
X024980Y010722D02*
X016079Y010722D01*
X016079Y010821D02*
X024980Y010821D01*
X024980Y010919D02*
X016079Y010919D01*
X016079Y011018D02*
X024980Y011018D01*
X024980Y011116D02*
X016079Y011116D01*
X016079Y011215D02*
X024980Y011215D01*
X024980Y011313D02*
X016079Y011313D01*
X016079Y011412D02*
X024980Y011412D01*
X024980Y011510D02*
X016079Y011510D01*
X016079Y011609D02*
X024980Y011609D01*
X024980Y011707D02*
X016079Y011707D01*
X016079Y011806D02*
X024980Y011806D01*
X024980Y011904D02*
X016079Y011904D01*
X016079Y012003D02*
X024980Y012003D01*
X024980Y012101D02*
X016079Y012101D01*
X016079Y012200D02*
X024980Y012200D01*
X024980Y012298D02*
X016079Y012298D01*
X016079Y012397D02*
X024980Y012397D01*
X024980Y012495D02*
X016079Y012495D01*
X016079Y012594D02*
X024980Y012594D01*
X024980Y012692D02*
X016079Y012692D01*
X016079Y012791D02*
X024980Y012791D01*
X024980Y012889D02*
X016079Y012889D01*
X016079Y012988D02*
X024980Y012988D01*
X024980Y013086D02*
X016079Y013086D01*
X013281Y013480D02*
X011052Y013480D01*
X010953Y013579D02*
X013192Y013579D01*
X013151Y013677D02*
X010855Y013677D01*
X010756Y013776D02*
X013111Y013776D01*
X013091Y013874D02*
X010658Y013874D01*
X010559Y013973D02*
X013091Y013973D01*
X013091Y014106D02*
X013199Y014367D01*
X013192Y017026D02*
X006201Y017026D01*
X006186Y016928D02*
X023585Y016928D01*
X023570Y017026D02*
X014410Y017026D01*
X014508Y017125D02*
X019776Y017125D01*
X019763Y017130D02*
X019842Y017098D01*
X019924Y017076D01*
X020001Y017065D01*
X020001Y017664D01*
X019402Y017664D01*
X019412Y017587D01*
X019434Y017505D01*
X019467Y017426D01*
X019509Y017353D01*
X019561Y017285D01*
X019622Y017225D01*
X019689Y017173D01*
X019763Y017130D01*
X019623Y017223D02*
X014511Y017223D01*
X014511Y017322D02*
X019533Y017322D01*
X019470Y017420D02*
X014511Y017420D01*
X014511Y017519D02*
X019431Y017519D01*
X019408Y017617D02*
X014511Y017617D01*
X014511Y017716D02*
X020001Y017716D01*
X020001Y017617D02*
X020101Y017617D01*
X020101Y017519D02*
X020001Y017519D01*
X020001Y017420D02*
X020101Y017420D01*
X020101Y017322D02*
X020001Y017322D01*
X020001Y017223D02*
X020101Y017223D01*
X020101Y017125D02*
X020001Y017125D01*
X020326Y017125D02*
X023554Y017125D01*
X023539Y017223D02*
X020479Y017223D01*
X020569Y017322D02*
X023551Y017322D01*
X023537Y017234D02*
X023537Y017234D01*
X023566Y017420D02*
X020632Y017420D01*
X020672Y017519D02*
X023582Y017519D01*
X023597Y017617D02*
X020694Y017617D01*
X020693Y017814D02*
X023673Y017814D01*
X023623Y017716D02*
X020101Y017716D01*
X020671Y017913D02*
X023724Y017913D01*
X023774Y018011D02*
X020630Y018011D01*
X020567Y018110D02*
X023831Y018110D01*
X023817Y018095D02*
X023817Y018095D01*
X023930Y018208D02*
X020475Y018208D01*
X020320Y018307D02*
X024028Y018307D01*
X023609Y017687D02*
X023609Y017687D01*
X025975Y018307D02*
X028447Y018307D01*
X028520Y018208D02*
X027850Y018208D01*
X028068Y018110D02*
X028528Y018110D01*
X028528Y018011D02*
X028167Y018011D01*
X028238Y017913D02*
X028528Y017913D01*
X028528Y017814D02*
X028278Y017814D01*
X028306Y017716D02*
X028528Y017716D01*
X028528Y017617D02*
X028306Y017617D01*
X028306Y017519D02*
X028528Y017519D01*
X028528Y017420D02*
X028266Y017420D01*
X028226Y017322D02*
X028528Y017322D01*
X028528Y017223D02*
X028138Y017223D01*
X028018Y017125D02*
X028528Y017125D01*
X028528Y017026D02*
X028067Y017026D01*
X028154Y016928D02*
X028528Y016928D01*
X028528Y016829D02*
X028209Y016829D01*
X028237Y016731D02*
X028528Y016731D01*
X028528Y016632D02*
X027776Y016632D01*
X027776Y016534D02*
X027676Y016534D01*
X027676Y016632D02*
X026319Y016632D01*
X026269Y016534D02*
X027215Y016534D01*
X027243Y016435D02*
X026219Y016435D01*
X026187Y016373D02*
X026187Y016373D01*
X026151Y016337D02*
X027298Y016337D01*
X027384Y016238D02*
X026052Y016238D01*
X025954Y016140D02*
X027558Y016140D01*
X027676Y016140D02*
X027776Y016140D01*
X027776Y016238D02*
X027676Y016238D01*
X027676Y016337D02*
X027776Y016337D01*
X027776Y016435D02*
X027676Y016435D01*
X028068Y016238D02*
X028528Y016238D01*
X028528Y016140D02*
X027895Y016140D01*
X027776Y016041D02*
X027676Y016041D01*
X027676Y015943D02*
X027776Y015943D01*
X027776Y015844D02*
X027676Y015844D01*
X027405Y016041D02*
X025848Y016041D01*
X025863Y016049D02*
X025863Y016049D01*
X025655Y015943D02*
X027309Y015943D01*
X028047Y016041D02*
X028528Y016041D01*
X028528Y015943D02*
X028143Y015943D01*
X028202Y015844D02*
X028528Y015844D01*
X028528Y015746D02*
X028235Y015746D01*
X028155Y016337D02*
X028528Y016337D01*
X028528Y016435D02*
X028209Y016435D01*
X028237Y016534D02*
X028528Y016534D01*
X027435Y017125D02*
X026449Y017125D01*
X026465Y017223D02*
X027314Y017223D01*
X027227Y017322D02*
X026453Y017322D01*
X026437Y017420D02*
X027186Y017420D01*
X027146Y017519D02*
X026422Y017519D01*
X026406Y017617D02*
X027146Y017617D01*
X027146Y017716D02*
X026380Y017716D01*
X026395Y017687D02*
X026395Y017687D01*
X026330Y017814D02*
X027174Y017814D01*
X027215Y017913D02*
X026280Y017913D01*
X026230Y018011D02*
X027285Y018011D01*
X027384Y018110D02*
X026172Y018110D01*
X026187Y018095D02*
X026187Y018095D01*
X026074Y018208D02*
X027602Y018208D01*
X027385Y017026D02*
X026434Y017026D01*
X026418Y016928D02*
X027299Y016928D01*
X027244Y016829D02*
X026403Y016829D01*
X026369Y016731D02*
X027215Y016731D01*
X028528Y015056D02*
X025673Y015056D01*
X025680Y014958D02*
X028528Y014958D01*
X028528Y014859D02*
X025300Y014859D01*
X025300Y014761D02*
X025240Y014761D01*
X025240Y014662D02*
X025300Y014662D01*
X025300Y014564D02*
X025240Y014564D01*
X025533Y014564D02*
X028528Y014564D01*
X028528Y014662D02*
X025632Y014662D01*
X025680Y014761D02*
X028528Y014761D01*
X028528Y014268D02*
X025546Y014268D01*
X025644Y014170D02*
X028528Y014170D01*
X028528Y014071D02*
X025740Y014071D01*
X025740Y013973D02*
X028528Y013973D01*
X028528Y013874D02*
X025740Y013874D01*
X025740Y013776D02*
X028528Y013776D01*
X028528Y013677D02*
X025732Y013677D01*
X025633Y013579D02*
X028528Y013579D01*
X028528Y013480D02*
X025560Y013480D01*
X025560Y013382D02*
X028528Y013382D01*
X028528Y013283D02*
X025560Y013283D01*
X025560Y013185D02*
X028528Y013185D01*
X028528Y013086D02*
X025560Y013086D01*
X025560Y012988D02*
X028528Y012988D01*
X028528Y012889D02*
X025560Y012889D01*
X025560Y012791D02*
X027595Y012791D01*
X027648Y012813D02*
X027424Y012720D01*
X027252Y012548D01*
X027160Y012324D01*
X027160Y012081D01*
X027252Y011857D01*
X027424Y011685D01*
X027648Y011593D01*
X027891Y011593D01*
X028115Y011685D01*
X028287Y011857D01*
X028380Y012081D01*
X028380Y012324D01*
X028287Y012548D01*
X028115Y012720D01*
X027891Y012813D01*
X027648Y012813D01*
X027396Y012692D02*
X025560Y012692D01*
X025560Y012594D02*
X027298Y012594D01*
X027230Y012495D02*
X025560Y012495D01*
X025560Y012397D02*
X027190Y012397D01*
X027160Y012298D02*
X025560Y012298D01*
X025560Y012200D02*
X027160Y012200D01*
X027160Y012101D02*
X025560Y012101D01*
X025560Y012003D02*
X027192Y012003D01*
X027233Y011904D02*
X025560Y011904D01*
X025560Y011806D02*
X027304Y011806D01*
X027402Y011707D02*
X025560Y011707D01*
X025560Y011609D02*
X027609Y011609D01*
X027930Y011609D02*
X028528Y011609D01*
X028528Y011707D02*
X028137Y011707D01*
X028235Y011806D02*
X028528Y011806D01*
X028528Y011904D02*
X028306Y011904D01*
X028347Y012003D02*
X028528Y012003D01*
X028528Y012101D02*
X028380Y012101D01*
X028380Y012200D02*
X028528Y012200D01*
X028528Y012298D02*
X028380Y012298D01*
X028349Y012397D02*
X028528Y012397D01*
X028528Y012495D02*
X028309Y012495D01*
X028241Y012594D02*
X028528Y012594D01*
X028528Y012692D02*
X028143Y012692D01*
X027944Y012791D02*
X028528Y012791D01*
X028528Y011510D02*
X025560Y011510D01*
X025560Y011412D02*
X027260Y011412D01*
X027161Y011313D02*
X025560Y011313D01*
X025560Y011215D02*
X027160Y011215D01*
X027160Y011116D02*
X025560Y011116D01*
X025560Y011018D02*
X027160Y011018D01*
X027160Y010919D02*
X025560Y010919D01*
X025560Y010821D02*
X027073Y010821D01*
X026974Y010722D02*
X025560Y010722D01*
X025560Y010624D02*
X026876Y010624D01*
X026777Y010525D02*
X025560Y010525D01*
X025560Y010427D02*
X026679Y010427D01*
X026580Y010328D02*
X025560Y010328D01*
X025560Y010230D02*
X026482Y010230D01*
X026383Y010131D02*
X025560Y010131D01*
X025560Y010033D02*
X026285Y010033D01*
X026186Y009934D02*
X025560Y009934D01*
X025560Y009836D02*
X026088Y009836D01*
X025989Y009737D02*
X025560Y009737D01*
X025560Y009639D02*
X025891Y009639D01*
X025792Y009540D02*
X025560Y009540D01*
X025560Y009442D02*
X025694Y009442D01*
X025604Y009343D02*
X025560Y009343D01*
X025560Y009245D02*
X025563Y009245D01*
X026515Y008851D02*
X028528Y008851D01*
X028528Y008949D02*
X026587Y008949D01*
X026686Y009048D02*
X028528Y009048D01*
X028528Y009146D02*
X026784Y009146D01*
X026883Y009245D02*
X028528Y009245D01*
X028528Y009343D02*
X026981Y009343D01*
X027080Y009442D02*
X028528Y009442D01*
X028528Y009540D02*
X027178Y009540D01*
X027277Y009639D02*
X028528Y009639D01*
X028528Y009737D02*
X027375Y009737D01*
X027474Y009836D02*
X028528Y009836D01*
X028528Y009934D02*
X027572Y009934D01*
X027671Y010033D02*
X028528Y010033D01*
X028528Y010131D02*
X027769Y010131D01*
X028272Y010230D02*
X028528Y010230D01*
X028528Y010328D02*
X028370Y010328D01*
X028380Y010427D02*
X028528Y010427D01*
X028528Y010525D02*
X028380Y010525D01*
X028380Y010624D02*
X028528Y010624D01*
X028528Y010722D02*
X028380Y010722D01*
X028380Y010821D02*
X028528Y010821D01*
X028528Y010919D02*
X028380Y010919D01*
X028380Y011018D02*
X028528Y011018D01*
X028528Y011116D02*
X028380Y011116D01*
X028380Y011215D02*
X028528Y011215D01*
X028528Y011313D02*
X028378Y011313D01*
X028279Y011412D02*
X028528Y011412D01*
X028528Y008752D02*
X026515Y008752D01*
X026515Y008654D02*
X028528Y008654D01*
X028528Y008555D02*
X026515Y008555D01*
X026515Y008457D02*
X027527Y008457D01*
X027582Y008479D02*
X027369Y008391D01*
X027206Y008228D01*
X027117Y008015D01*
X027117Y007784D01*
X027206Y007571D01*
X027351Y007425D01*
X027269Y007391D01*
X027106Y007228D01*
X027017Y007015D01*
X027017Y006784D01*
X027106Y006571D01*
X027269Y006408D01*
X027351Y006374D01*
X027206Y006228D01*
X027117Y006015D01*
X027117Y005784D01*
X027206Y005571D01*
X027351Y005425D01*
X027269Y005391D01*
X027106Y005228D01*
X027017Y005015D01*
X027017Y004784D01*
X027106Y004571D01*
X027269Y004408D01*
X027351Y004374D01*
X027206Y004228D01*
X027117Y004015D01*
X027117Y003784D01*
X027206Y003571D01*
X027351Y003425D01*
X027269Y003391D01*
X027106Y003228D01*
X027017Y003015D01*
X027017Y002784D01*
X027106Y002571D01*
X027269Y002408D01*
X027482Y002319D01*
X027713Y002319D01*
X027926Y002408D01*
X028089Y002571D01*
X028177Y002784D01*
X028177Y003015D01*
X028089Y003228D01*
X027944Y003374D01*
X028026Y003408D01*
X028189Y003571D01*
X028277Y003784D01*
X028277Y004015D01*
X028189Y004228D01*
X028026Y004391D01*
X027944Y004425D01*
X028089Y004571D01*
X028177Y004784D01*
X028177Y005015D01*
X028089Y005228D01*
X027944Y005374D01*
X028026Y005408D01*
X028189Y005571D01*
X028277Y005784D01*
X028277Y006015D01*
X028189Y006228D01*
X028026Y006391D01*
X027944Y006425D01*
X028089Y006571D01*
X028177Y006784D01*
X028177Y007015D01*
X028089Y007228D01*
X027944Y007374D01*
X028026Y007408D01*
X028189Y007571D01*
X028277Y007784D01*
X028277Y008015D01*
X028189Y008228D01*
X028026Y008391D01*
X027813Y008479D01*
X027582Y008479D01*
X027336Y008358D02*
X026515Y008358D01*
X026515Y008260D02*
X027237Y008260D01*
X027178Y008161D02*
X026515Y008161D01*
X026515Y008063D02*
X027137Y008063D01*
X027117Y007964D02*
X026515Y007964D01*
X026515Y007866D02*
X027117Y007866D01*
X027124Y007767D02*
X026515Y007767D01*
X026515Y007669D02*
X027165Y007669D01*
X027206Y007570D02*
X026515Y007570D01*
X026515Y007472D02*
X027305Y007472D01*
X027251Y007373D02*
X026515Y007373D01*
X026515Y007275D02*
X027152Y007275D01*
X027084Y007176D02*
X026515Y007176D01*
X026515Y007078D02*
X027044Y007078D01*
X027017Y006979D02*
X026515Y006979D01*
X026515Y006881D02*
X027017Y006881D01*
X027018Y006782D02*
X026515Y006782D01*
X026515Y006684D02*
X027059Y006684D01*
X027100Y006585D02*
X026515Y006585D01*
X026515Y006487D02*
X027190Y006487D01*
X027316Y006388D02*
X026515Y006388D01*
X026515Y006290D02*
X027267Y006290D01*
X027191Y006191D02*
X026515Y006191D01*
X026515Y006093D02*
X027150Y006093D01*
X027117Y005994D02*
X026515Y005994D01*
X026515Y005896D02*
X027117Y005896D01*
X027117Y005797D02*
X026515Y005797D01*
X026515Y005699D02*
X027153Y005699D01*
X027194Y005600D02*
X026515Y005600D01*
X026515Y005502D02*
X027275Y005502D01*
X027298Y005403D02*
X026515Y005403D01*
X026515Y005305D02*
X027182Y005305D01*
X027097Y005206D02*
X026515Y005206D01*
X026515Y005108D02*
X027056Y005108D01*
X027017Y005009D02*
X026515Y005009D01*
X026515Y004911D02*
X027017Y004911D01*
X027017Y004812D02*
X026515Y004812D01*
X026515Y004714D02*
X027047Y004714D01*
X027087Y004615D02*
X026476Y004615D01*
X026426Y004517D02*
X027160Y004517D01*
X027258Y004418D02*
X026328Y004418D01*
X026229Y004320D02*
X027297Y004320D01*
X027203Y004221D02*
X026131Y004221D01*
X026032Y004123D02*
X027162Y004123D01*
X027121Y004024D02*
X025934Y004024D01*
X025835Y003926D02*
X027117Y003926D01*
X027117Y003827D02*
X025737Y003827D01*
X025638Y003729D02*
X027140Y003729D01*
X027181Y003630D02*
X025540Y003630D01*
X025480Y003433D02*
X027343Y003433D01*
X027245Y003532D02*
X025336Y003532D01*
X025674Y003335D02*
X027212Y003335D01*
X027114Y003236D02*
X025865Y003236D01*
X025863Y003238D02*
X025863Y003238D01*
X025963Y003138D02*
X027068Y003138D01*
X027028Y003039D02*
X026062Y003039D01*
X026160Y002941D02*
X027017Y002941D01*
X027017Y002842D02*
X026224Y002842D01*
X026274Y002744D02*
X027034Y002744D01*
X027075Y002645D02*
X026324Y002645D01*
X026374Y002547D02*
X027130Y002547D01*
X027228Y002448D02*
X026404Y002448D01*
X026395Y002506D02*
X026395Y002506D01*
X026420Y002350D02*
X027409Y002350D01*
X027786Y002350D02*
X028528Y002350D01*
X028528Y002448D02*
X027966Y002448D01*
X028065Y002547D02*
X028528Y002547D01*
X028528Y002645D02*
X028120Y002645D01*
X028161Y002744D02*
X028528Y002744D01*
X028528Y002842D02*
X028177Y002842D01*
X028177Y002941D02*
X028528Y002941D01*
X028528Y003039D02*
X028167Y003039D01*
X028127Y003138D02*
X028528Y003138D01*
X028528Y003236D02*
X028081Y003236D01*
X027982Y003335D02*
X028528Y003335D01*
X028528Y003433D02*
X028051Y003433D01*
X028150Y003532D02*
X028528Y003532D01*
X028528Y003630D02*
X028214Y003630D01*
X028255Y003729D02*
X028528Y003729D01*
X028528Y003827D02*
X028277Y003827D01*
X028277Y003926D02*
X028528Y003926D01*
X028528Y004024D02*
X028274Y004024D01*
X028233Y004123D02*
X028528Y004123D01*
X028528Y004221D02*
X028192Y004221D01*
X028097Y004320D02*
X028528Y004320D01*
X028528Y004418D02*
X027961Y004418D01*
X028035Y004517D02*
X028528Y004517D01*
X028528Y004615D02*
X028108Y004615D01*
X028148Y004714D02*
X028528Y004714D01*
X028528Y004812D02*
X028177Y004812D01*
X028177Y004911D02*
X028528Y004911D01*
X028528Y005009D02*
X028177Y005009D01*
X028139Y005108D02*
X028528Y005108D01*
X028528Y005206D02*
X028098Y005206D01*
X028012Y005305D02*
X028528Y005305D01*
X028528Y005403D02*
X028015Y005403D01*
X028120Y005502D02*
X028528Y005502D01*
X028528Y005600D02*
X028201Y005600D01*
X028242Y005699D02*
X028528Y005699D01*
X028528Y005797D02*
X028277Y005797D01*
X028277Y005896D02*
X028528Y005896D01*
X028528Y005994D02*
X028277Y005994D01*
X028245Y006093D02*
X028528Y006093D01*
X028528Y006191D02*
X028204Y006191D01*
X028127Y006290D02*
X028528Y006290D01*
X028528Y006388D02*
X028029Y006388D01*
X028005Y006487D02*
X028528Y006487D01*
X028528Y006585D02*
X028095Y006585D01*
X028136Y006684D02*
X028528Y006684D01*
X028528Y006782D02*
X028177Y006782D01*
X028177Y006881D02*
X028528Y006881D01*
X028528Y006979D02*
X028177Y006979D01*
X028151Y007078D02*
X028528Y007078D01*
X028528Y007176D02*
X028111Y007176D01*
X028042Y007275D02*
X028528Y007275D01*
X028528Y007373D02*
X027944Y007373D01*
X028090Y007472D02*
X028528Y007472D01*
X028528Y007570D02*
X028188Y007570D01*
X028230Y007669D02*
X028528Y007669D01*
X028528Y007767D02*
X028270Y007767D01*
X028277Y007866D02*
X028528Y007866D01*
X028528Y007964D02*
X028277Y007964D01*
X028258Y008063D02*
X028528Y008063D01*
X028528Y008161D02*
X028217Y008161D01*
X028157Y008260D02*
X028528Y008260D01*
X028528Y008358D02*
X028059Y008358D01*
X027868Y008457D02*
X028528Y008457D01*
X025535Y006290D02*
X025531Y006290D01*
X025535Y006191D02*
X025456Y006191D01*
X025535Y006093D02*
X025357Y006093D01*
X025259Y005994D02*
X025535Y005994D01*
X025535Y005896D02*
X025160Y005896D01*
X025062Y005797D02*
X025535Y005797D01*
X025535Y005699D02*
X024559Y005699D01*
X024399Y005600D02*
X025535Y005600D01*
X025535Y005502D02*
X011321Y005502D01*
X011420Y005600D02*
X024148Y005600D01*
X023988Y005699D02*
X011518Y005699D01*
X011223Y005403D02*
X025535Y005403D01*
X025535Y005305D02*
X011124Y005305D01*
X011026Y005206D02*
X025535Y005206D01*
X025535Y005108D02*
X010927Y005108D01*
X010829Y005009D02*
X025533Y005009D01*
X025434Y004911D02*
X010730Y004911D01*
X010632Y004812D02*
X025336Y004812D01*
X025237Y004714D02*
X010533Y004714D01*
X010484Y004664D02*
X010484Y004664D01*
X010435Y004615D02*
X025139Y004615D01*
X025040Y004517D02*
X006144Y004517D01*
X006046Y004615D02*
X006498Y004615D01*
X006399Y004714D02*
X005947Y004714D01*
X005849Y004812D02*
X006301Y004812D01*
X006202Y004911D02*
X005750Y004911D01*
X005652Y005009D02*
X006104Y005009D01*
X006005Y005108D02*
X005610Y005108D01*
X005610Y005206D02*
X005907Y005206D01*
X005808Y005305D02*
X005610Y005305D01*
X005610Y005403D02*
X005710Y005403D01*
X005641Y005502D02*
X005610Y005502D01*
X005610Y005600D02*
X005617Y005600D01*
X005610Y005699D02*
X005617Y005699D01*
X005610Y005797D02*
X005617Y005797D01*
X005610Y005896D02*
X005617Y005896D01*
X005610Y005994D02*
X005617Y005994D01*
X005610Y006093D02*
X005617Y006093D01*
X005610Y006191D02*
X005617Y006191D01*
X005610Y006290D02*
X005617Y006290D01*
X005610Y006388D02*
X005617Y006388D01*
X005610Y006487D02*
X005617Y006487D01*
X005610Y006585D02*
X005617Y006585D01*
X005610Y006684D02*
X005617Y006684D01*
X005610Y006782D02*
X005617Y006782D01*
X005610Y006881D02*
X005617Y006881D01*
X005610Y006979D02*
X005617Y006979D01*
X005610Y007078D02*
X005617Y007078D01*
X005610Y007176D02*
X005617Y007176D01*
X001559Y009048D02*
X001119Y009048D01*
X001119Y009146D02*
X001455Y009146D01*
X001369Y009245D02*
X001119Y009245D01*
X001119Y009343D02*
X001329Y009343D01*
X001288Y009442D02*
X001119Y009442D01*
X001119Y009540D02*
X001286Y009540D01*
X001286Y009639D02*
X001119Y009639D01*
X001119Y009737D02*
X001305Y009737D01*
X001346Y009836D02*
X001119Y009836D01*
X001119Y009934D02*
X001398Y009934D01*
X001497Y010033D02*
X001119Y010033D01*
X001119Y010131D02*
X001659Y010131D01*
X001556Y011018D02*
X001119Y011018D01*
X001119Y011116D02*
X001454Y011116D01*
X001369Y011215D02*
X001119Y011215D01*
X001119Y011313D02*
X001328Y011313D01*
X001287Y011412D02*
X001119Y011412D01*
X001119Y011510D02*
X001286Y011510D01*
X001286Y011609D02*
X001119Y011609D01*
X001119Y011707D02*
X001306Y011707D01*
X001346Y011806D02*
X001119Y011806D01*
X001119Y011904D02*
X001400Y011904D01*
X001498Y012003D02*
X001119Y012003D01*
X001119Y012101D02*
X001663Y012101D01*
X005465Y015943D02*
X006040Y015943D01*
X006139Y016041D02*
X005643Y016041D01*
X005741Y016140D02*
X006237Y016140D01*
X006336Y016238D02*
X005840Y016238D01*
X005938Y016337D02*
X006434Y016337D01*
X006533Y016435D02*
X005995Y016435D01*
X006045Y016534D02*
X006631Y016534D01*
X006730Y016632D02*
X006095Y016632D01*
X006145Y016731D02*
X006828Y016731D01*
X006927Y016829D02*
X006170Y016829D01*
X006217Y017125D02*
X013094Y017125D01*
X013091Y017223D02*
X006229Y017223D01*
X006231Y017210D02*
X006231Y017210D01*
X006213Y017322D02*
X013091Y017322D01*
X013091Y017420D02*
X006197Y017420D01*
X006182Y017519D02*
X013091Y017519D01*
X013091Y017617D02*
X006166Y017617D01*
X006132Y017716D02*
X013091Y017716D01*
X013091Y017814D02*
X006082Y017814D01*
X006032Y017913D02*
X013091Y017913D01*
X013091Y018011D02*
X005982Y018011D01*
X005951Y018072D02*
X005951Y018072D01*
X005913Y018110D02*
X013091Y018110D01*
X013091Y018208D02*
X005814Y018208D01*
X005716Y018307D02*
X013096Y018307D01*
X014506Y018307D02*
X019782Y018307D01*
X019627Y018208D02*
X014511Y018208D01*
X014511Y018110D02*
X019535Y018110D01*
X019472Y018011D02*
X014511Y018011D01*
X014511Y017913D02*
X019431Y017913D01*
X019409Y017814D02*
X014511Y017814D01*
X020653Y014367D02*
X020761Y014106D01*
X024379Y006388D02*
X024832Y006388D01*
X024734Y006290D02*
X024551Y006290D01*
X024549Y003446D02*
X024549Y003446D01*
X024523Y003433D02*
X006118Y003433D01*
X006217Y003335D02*
X024330Y003335D01*
X024139Y003236D02*
X016286Y003236D01*
X016377Y003138D02*
X024040Y003138D01*
X023942Y003039D02*
X016417Y003039D01*
X016434Y002941D02*
X023843Y002941D01*
X023817Y002914D02*
X023817Y002914D01*
X023780Y002842D02*
X016434Y002842D01*
X016394Y002744D02*
X023730Y002744D01*
X023680Y002645D02*
X016329Y002645D01*
X016193Y002547D02*
X023629Y002547D01*
X023599Y002448D02*
X006168Y002448D01*
X006159Y002506D02*
X006159Y002506D01*
X006138Y002547D02*
X015858Y002547D01*
X015765Y003236D02*
X006315Y003236D01*
X006126Y002645D02*
X006088Y002645D01*
X006184Y002350D02*
X023584Y002350D01*
X023568Y002251D02*
X006199Y002251D01*
X006215Y002153D02*
X023553Y002153D01*
X023537Y002054D02*
X011061Y002054D01*
X011262Y001956D02*
X023552Y001956D01*
X023537Y002053D02*
X023537Y002053D01*
X023568Y001857D02*
X011360Y001857D01*
X011424Y001759D02*
X023583Y001759D01*
X023599Y001660D02*
X011465Y001660D01*
X011487Y001562D02*
X023628Y001562D01*
X023609Y001600D02*
X023609Y001600D01*
X023678Y001463D02*
X011487Y001463D01*
X011483Y001365D02*
X023729Y001365D01*
X023779Y001266D02*
X011442Y001266D01*
X011402Y001168D02*
X023841Y001168D01*
X023939Y001069D02*
X011307Y001069D01*
X011169Y000971D02*
X024038Y000971D01*
X025966Y000971D02*
X028406Y000971D01*
X028499Y001069D02*
X026064Y001069D01*
X026163Y001168D02*
X028527Y001168D01*
X028528Y001266D02*
X026225Y001266D01*
X026187Y001192D02*
X026187Y001192D01*
X026275Y001365D02*
X028528Y001365D01*
X028528Y001463D02*
X026325Y001463D01*
X026375Y001562D02*
X028528Y001562D01*
X028528Y001660D02*
X026405Y001660D01*
X026420Y001759D02*
X028528Y001759D01*
X028528Y001857D02*
X026436Y001857D01*
X026451Y001956D02*
X028528Y001956D01*
X028528Y002054D02*
X026467Y002054D01*
X026451Y002153D02*
X028528Y002153D01*
X028528Y002251D02*
X026435Y002251D01*
X010754Y002054D02*
X010061Y002054D01*
X010262Y001956D02*
X010553Y001956D01*
X010454Y001857D02*
X010360Y001857D01*
X009754Y002054D02*
X006230Y002054D01*
X006215Y001956D02*
X009553Y001956D01*
X009454Y001857D02*
X006200Y001857D01*
X006184Y001759D02*
X009391Y001759D01*
X009350Y001660D02*
X006168Y001660D01*
X006139Y001562D02*
X009327Y001562D01*
X009327Y001463D02*
X006089Y001463D01*
X006039Y001365D02*
X009331Y001365D01*
X009372Y001266D02*
X005989Y001266D01*
X005951Y001192D02*
X005951Y001192D01*
X005927Y001168D02*
X009413Y001168D01*
X009508Y001069D02*
X005828Y001069D01*
X005730Y000971D02*
X009645Y000971D01*
D19*
X007088Y005222D03*
X005120Y007644D03*
X006419Y008608D03*
X005120Y009651D03*
X006144Y010459D03*
X006104Y011108D03*
X005120Y011758D03*
X007876Y014277D03*
X008663Y014277D03*
X007266Y015301D03*
X009057Y012703D03*
X009844Y012703D03*
X010868Y014061D03*
X010868Y015675D03*
X011951Y011325D03*
X015789Y010321D03*
X012029Y008214D03*
X013781Y005872D03*
X015789Y007171D03*
X016025Y002919D03*
X024273Y005990D03*
X024470Y007348D03*
D20*
X001498Y003746D02*
X000829Y004415D01*
X000829Y014947D01*
X001490Y015608D01*
X006116Y015608D01*
X007128Y016620D01*
X015002Y016620D01*
X015789Y015833D01*
X015789Y010321D01*
X015789Y007171D01*
X016970Y005990D01*
X024273Y005990D01*
X024844Y005990D01*
X025270Y006415D01*
X025270Y007348D01*
X024470Y007348D01*
X025270Y007348D02*
X025270Y013880D01*
X014175Y006266D02*
X013781Y005872D01*
X012228Y006818D02*
X006998Y006818D01*
X006998Y006722D02*
X006998Y007447D01*
X006961Y007535D01*
X006894Y007603D01*
X006805Y007639D01*
X006719Y007639D01*
X006719Y008289D01*
X006791Y008360D01*
X006857Y008521D01*
X006857Y008695D01*
X006791Y008856D01*
X006667Y008980D01*
X006506Y009046D01*
X006332Y009046D01*
X006171Y008980D01*
X006048Y008856D01*
X005981Y008695D01*
X005981Y008521D01*
X006048Y008360D01*
X006079Y008328D01*
X006079Y007639D01*
X006001Y007639D01*
X005913Y007603D01*
X005907Y007597D01*
X005907Y010082D01*
X006056Y010020D01*
X006231Y010020D01*
X006392Y010087D01*
X006460Y010155D01*
X007191Y010155D01*
X007309Y010204D01*
X007399Y010294D01*
X007592Y010487D01*
X007641Y010604D01*
X007641Y011356D01*
X007723Y011356D01*
X007811Y011393D01*
X007879Y011460D01*
X007915Y011549D01*
X007915Y012274D01*
X007879Y012362D01*
X007811Y012430D01*
X007723Y012466D01*
X006919Y012466D01*
X006830Y012430D01*
X006763Y012362D01*
X006726Y012274D01*
X006726Y011549D01*
X006763Y011460D01*
X006830Y011393D01*
X006919Y011356D01*
X007001Y011356D01*
X007001Y010801D01*
X006995Y010795D01*
X006426Y010795D01*
X006419Y010803D01*
X006476Y010860D01*
X006542Y011021D01*
X006542Y011195D01*
X006476Y011356D01*
X006468Y011364D01*
X006522Y011364D01*
X006610Y011401D01*
X006678Y011468D01*
X006714Y011556D01*
X006714Y012282D01*
X006678Y012370D01*
X006610Y012438D01*
X006522Y012474D01*
X005907Y012474D01*
X005907Y012527D01*
X006042Y012527D01*
X006042Y012944D01*
X006197Y012944D01*
X006197Y012527D01*
X006498Y012527D01*
X006544Y012539D01*
X006585Y012562D01*
X006618Y012596D01*
X006642Y012637D01*
X006654Y012683D01*
X006654Y012944D01*
X006197Y012944D01*
X006197Y013099D01*
X006042Y013099D01*
X006042Y013516D01*
X005907Y013516D01*
X005907Y014277D01*
X006301Y014671D01*
X009451Y014671D01*
X011025Y013096D01*
X012207Y013096D01*
X012600Y012703D01*
X012600Y007191D01*
X010238Y004829D01*
X006695Y004829D01*
X006036Y005487D01*
X006326Y005487D01*
X006326Y005905D01*
X006481Y005905D01*
X006481Y006060D01*
X006326Y006060D01*
X006326Y006477D01*
X006025Y006477D01*
X005980Y006465D01*
X005939Y006441D01*
X005907Y006410D01*
X005907Y006572D01*
X005913Y006566D01*
X006001Y006530D01*
X006805Y006530D01*
X006894Y006566D01*
X006961Y006634D01*
X006998Y006722D01*
X006972Y006660D02*
X012069Y006660D01*
X011911Y006501D02*
X005907Y006501D01*
X006326Y006343D02*
X006481Y006343D01*
X006481Y006477D02*
X006481Y006060D01*
X006938Y006060D01*
X006938Y006321D01*
X006925Y006367D01*
X006902Y006408D01*
X006868Y006441D01*
X006827Y006465D01*
X006781Y006477D01*
X006481Y006477D01*
X006481Y006184D02*
X006326Y006184D01*
X006403Y005982D02*
X006403Y005907D01*
X007088Y005222D01*
X006868Y005523D02*
X006902Y005557D01*
X006925Y005598D01*
X006938Y005643D01*
X006938Y005905D01*
X006481Y005905D01*
X006481Y005487D01*
X006781Y005487D01*
X006827Y005499D01*
X006868Y005523D01*
X006895Y005550D02*
X010960Y005550D01*
X011118Y005709D02*
X006938Y005709D01*
X006938Y005867D02*
X011277Y005867D01*
X011435Y006026D02*
X006481Y006026D01*
X006481Y005867D02*
X006326Y005867D01*
X006326Y005709D02*
X006481Y005709D01*
X006481Y005550D02*
X006326Y005550D01*
X006132Y005392D02*
X010801Y005392D01*
X010643Y005233D02*
X006290Y005233D01*
X006449Y005075D02*
X010484Y005075D01*
X010326Y004916D02*
X006607Y004916D01*
X006938Y006184D02*
X011594Y006184D01*
X011752Y006343D02*
X006932Y006343D01*
X006998Y006977D02*
X012386Y006977D01*
X012545Y007135D02*
X006998Y007135D01*
X006998Y007294D02*
X012600Y007294D01*
X012600Y007452D02*
X006996Y007452D01*
X006875Y007611D02*
X012600Y007611D01*
X012600Y007769D02*
X006719Y007769D01*
X006719Y007928D02*
X011696Y007928D01*
X011658Y007966D02*
X011781Y007843D01*
X011942Y007776D01*
X012117Y007776D01*
X012278Y007843D01*
X012401Y007966D01*
X012467Y008127D01*
X012467Y008302D01*
X012401Y008463D01*
X012278Y008586D01*
X012271Y008589D01*
X012271Y011025D01*
X012322Y011076D01*
X012389Y011237D01*
X012389Y011412D01*
X012322Y011573D01*
X012199Y011696D01*
X012038Y011763D01*
X011863Y011763D01*
X011702Y011696D01*
X011579Y011573D01*
X011513Y011412D01*
X011513Y011237D01*
X011579Y011076D01*
X011631Y011025D01*
X011631Y008397D01*
X011591Y008302D01*
X011591Y008127D01*
X011658Y007966D01*
X011608Y008086D02*
X006719Y008086D01*
X006719Y008245D02*
X011591Y008245D01*
X011631Y008403D02*
X006808Y008403D01*
X006857Y008562D02*
X011631Y008562D01*
X011631Y008720D02*
X006847Y008720D01*
X006768Y008879D02*
X011631Y008879D01*
X011631Y009037D02*
X006528Y009037D01*
X006310Y009037D02*
X005907Y009037D01*
X005907Y008879D02*
X006070Y008879D01*
X005991Y008720D02*
X005907Y008720D01*
X005907Y008562D02*
X005981Y008562D01*
X006030Y008403D02*
X005907Y008403D01*
X005907Y008245D02*
X006079Y008245D01*
X006079Y008086D02*
X005907Y008086D01*
X005907Y007928D02*
X006079Y007928D01*
X006079Y007769D02*
X005907Y007769D01*
X005907Y007611D02*
X005932Y007611D01*
X006399Y007088D02*
X006403Y007084D01*
X006399Y007088D02*
X006399Y008392D01*
X006419Y008411D01*
X006419Y008608D01*
X005907Y009196D02*
X011631Y009196D01*
X011631Y009354D02*
X005907Y009354D01*
X005907Y009513D02*
X011631Y009513D01*
X011631Y009671D02*
X005907Y009671D01*
X005907Y009830D02*
X011631Y009830D01*
X011631Y009988D02*
X005907Y009988D01*
X006451Y010147D02*
X011631Y010147D01*
X011631Y010305D02*
X007410Y010305D01*
X007569Y010464D02*
X011631Y010464D01*
X011631Y010622D02*
X007641Y010622D01*
X007641Y010781D02*
X011631Y010781D01*
X011631Y010939D02*
X007641Y010939D01*
X007641Y011098D02*
X011570Y011098D01*
X011513Y011256D02*
X007641Y011256D01*
X007833Y011415D02*
X011514Y011415D01*
X011580Y011573D02*
X007915Y011573D01*
X007915Y011732D02*
X011789Y011732D01*
X012113Y011732D02*
X012600Y011732D01*
X012600Y011890D02*
X007915Y011890D01*
X007915Y012049D02*
X012600Y012049D01*
X012600Y012207D02*
X007915Y012207D01*
X007875Y012366D02*
X012600Y012366D01*
X012600Y012524D02*
X007719Y012524D01*
X007699Y012519D02*
X007745Y012531D01*
X007786Y012555D01*
X007819Y012588D01*
X007843Y012629D01*
X007855Y012675D01*
X007855Y012936D01*
X007398Y012936D01*
X007398Y012519D01*
X007699Y012519D01*
X007855Y012683D02*
X012600Y012683D01*
X012462Y012841D02*
X007855Y012841D01*
X007855Y013091D02*
X007398Y013091D01*
X007243Y013091D01*
X007243Y012936D01*
X006786Y012936D01*
X006786Y012675D01*
X006799Y012629D01*
X006822Y012588D01*
X006856Y012555D01*
X006897Y012531D01*
X006943Y012519D01*
X007243Y012519D01*
X007243Y012936D01*
X007398Y012936D01*
X007398Y013091D01*
X007398Y013509D01*
X007699Y013509D01*
X007745Y013496D01*
X007786Y013473D01*
X007819Y013439D01*
X007843Y013398D01*
X007855Y013352D01*
X007855Y013091D01*
X007855Y013158D02*
X010964Y013158D01*
X010805Y013317D02*
X007855Y013317D01*
X007781Y013475D02*
X010647Y013475D01*
X010488Y013634D02*
X005907Y013634D01*
X005907Y013792D02*
X010330Y013792D01*
X010171Y013951D02*
X005907Y013951D01*
X005907Y014109D02*
X010013Y014109D01*
X009854Y014268D02*
X005907Y014268D01*
X006120Y014277D02*
X004726Y014277D01*
X003884Y013435D01*
X003884Y012813D01*
X003569Y012498D01*
X002947Y012498D01*
X002758Y012309D01*
X002758Y009494D01*
X002974Y009277D01*
X003541Y009277D01*
X003549Y009270D01*
X002974Y009277D02*
X002915Y009277D01*
X002699Y009061D01*
X002699Y006856D01*
X003014Y006541D01*
X003510Y006541D01*
X003510Y007644D02*
X005120Y007644D01*
X005120Y009651D02*
X004510Y009651D01*
X004411Y009750D01*
X004411Y010045D01*
X004084Y010372D01*
X003549Y010372D01*
X003569Y011396D02*
X004994Y011396D01*
X005120Y011521D01*
X006104Y011108D02*
X006120Y011124D01*
X006120Y011919D01*
X006714Y011890D02*
X006726Y011890D01*
X006714Y011732D02*
X006726Y011732D01*
X006714Y011573D02*
X006726Y011573D01*
X006809Y011415D02*
X006624Y011415D01*
X006517Y011256D02*
X007001Y011256D01*
X007001Y011098D02*
X006542Y011098D01*
X006508Y010939D02*
X007001Y010939D01*
X007321Y010668D02*
X007128Y010475D01*
X006160Y010475D01*
X006144Y010459D01*
X007321Y010668D02*
X007321Y011911D01*
X006726Y012049D02*
X006714Y012049D01*
X006714Y012207D02*
X006726Y012207D01*
X006766Y012366D02*
X006680Y012366D01*
X006922Y012524D02*
X005907Y012524D01*
X006042Y012683D02*
X006197Y012683D01*
X006197Y012841D02*
X006042Y012841D01*
X006197Y013000D02*
X007243Y013000D01*
X007243Y013091D02*
X006786Y013091D01*
X006786Y013352D01*
X006799Y013398D01*
X006822Y013439D01*
X006856Y013473D01*
X006897Y013496D01*
X006943Y013509D01*
X007243Y013509D01*
X007243Y013091D01*
X007243Y013158D02*
X007398Y013158D01*
X007398Y013000D02*
X012303Y013000D01*
X011163Y014061D02*
X010868Y014061D01*
X010868Y015675D01*
X009537Y014585D02*
X006215Y014585D01*
X006056Y014426D02*
X009696Y014426D01*
X007502Y015321D02*
X007482Y015301D01*
X007266Y015301D01*
X007243Y013475D02*
X007398Y013475D01*
X007398Y013317D02*
X007243Y013317D01*
X006860Y013475D02*
X006590Y013475D01*
X006585Y013480D02*
X006544Y013504D01*
X006498Y013516D01*
X006197Y013516D01*
X006197Y013099D01*
X006654Y013099D01*
X006654Y013360D01*
X006642Y013406D01*
X006618Y013447D01*
X006585Y013480D01*
X006654Y013317D02*
X006786Y013317D01*
X006786Y013158D02*
X006654Y013158D01*
X006654Y012841D02*
X006786Y012841D01*
X006786Y012683D02*
X006654Y012683D01*
X007243Y012683D02*
X007398Y012683D01*
X007398Y012841D02*
X007243Y012841D01*
X007243Y012524D02*
X007398Y012524D01*
X006197Y013158D02*
X006042Y013158D01*
X006042Y013317D02*
X006197Y013317D01*
X006197Y013475D02*
X006042Y013475D01*
X001490Y015608D02*
X001490Y016608D01*
X011951Y011325D02*
X011951Y008293D01*
X012029Y008214D01*
X012425Y008403D02*
X012600Y008403D01*
X012600Y008245D02*
X012467Y008245D01*
X012450Y008086D02*
X012600Y008086D01*
X012600Y007928D02*
X012362Y007928D01*
X012302Y008562D02*
X012600Y008562D01*
X012600Y008720D02*
X012271Y008720D01*
X012271Y008879D02*
X012600Y008879D01*
X012600Y009037D02*
X012271Y009037D01*
X012271Y009196D02*
X012600Y009196D01*
X012600Y009354D02*
X012271Y009354D01*
X012271Y009513D02*
X012600Y009513D01*
X012600Y009671D02*
X012271Y009671D01*
X012271Y009830D02*
X012600Y009830D01*
X012600Y009988D02*
X012271Y009988D01*
X012271Y010147D02*
X012600Y010147D01*
X012600Y010305D02*
X012271Y010305D01*
X012271Y010464D02*
X012600Y010464D01*
X012600Y010622D02*
X012271Y010622D01*
X012271Y010781D02*
X012600Y010781D01*
X012600Y010939D02*
X012271Y010939D01*
X012331Y011098D02*
X012600Y011098D01*
X012600Y011256D02*
X012389Y011256D01*
X012388Y011415D02*
X012600Y011415D01*
X012600Y011573D02*
X012322Y011573D01*
X005396Y003746D02*
X001498Y003746D01*
X005396Y003746D02*
X006222Y002919D01*
X016025Y002919D01*
D21*
X025238Y004021D02*
X026025Y004809D01*
X026025Y009081D01*
X027770Y010825D01*
X027777Y010817D01*
X025238Y004021D02*
X005947Y004021D01*
X005120Y004848D01*
X005120Y011758D01*
X005120Y011521D01*
X005120Y009651D01*
X005120Y007644D01*
X005120Y007584D01*
X006120Y013021D02*
X007313Y013021D01*
X007321Y013014D01*
M02*
