G75*
G70*
%OFA0B0*%
%FSLAX24Y24*%
%IPPOS*%
%LPD*%
%AMOC8*
5,1,8,0,0,1.08239X$1,22.5*
%
%ADD10C,0.0050*%
%ADD11C,0.0040*%
%ADD12C,0.0080*%
%ADD13C,0.0060*%
%ADD14C,0.0100*%
D10*
X013699Y013536D02*
X013699Y018486D01*
X021149Y018486D01*
X021149Y013536D01*
X013699Y013536D01*
X024765Y014242D02*
X024785Y014183D01*
X024808Y014126D01*
X024835Y014069D01*
X024866Y014015D01*
X024899Y013962D01*
X024936Y013912D01*
X024975Y013863D01*
X025018Y013818D01*
X025063Y013774D01*
X025110Y013734D01*
X025160Y013696D01*
X025212Y013661D01*
X025266Y013630D01*
X025321Y013602D01*
X025378Y013577D01*
X025437Y013556D01*
X025497Y013538D01*
X025558Y013523D01*
X025619Y013513D01*
X025681Y013506D01*
X025743Y013502D01*
X025806Y013503D01*
X025868Y013507D01*
X025868Y013506D02*
X025868Y013664D01*
X026418Y013727D02*
X026418Y015376D01*
X025868Y015439D02*
X025868Y015597D01*
X025868Y014664D02*
X025868Y014439D01*
X026418Y013727D02*
X026370Y013692D01*
X026320Y013659D01*
X026268Y013628D01*
X026214Y013601D01*
X026159Y013577D01*
X026102Y013557D01*
X026045Y013539D01*
X025987Y013525D01*
X025928Y013514D01*
X025868Y013507D01*
X024765Y014862D02*
X024785Y014922D01*
X024809Y014981D01*
X024837Y015038D01*
X024868Y015093D01*
X024903Y015147D01*
X024940Y015198D01*
X024981Y015247D01*
X025025Y015293D01*
X025071Y015337D01*
X025120Y015378D01*
X025171Y015416D01*
X025224Y015450D01*
X025280Y015482D01*
X025337Y015509D01*
X025396Y015534D01*
X025456Y015554D01*
X025517Y015572D01*
X025579Y015585D01*
X025642Y015594D01*
X025705Y015600D01*
X025769Y015602D01*
X025833Y015600D01*
X025896Y015594D01*
X025959Y015585D01*
X026021Y015571D01*
X026082Y015554D01*
X026142Y015533D01*
X026201Y015509D01*
X026258Y015481D01*
X026314Y015449D01*
X026367Y015414D01*
X026418Y015377D01*
D11*
X015086Y018906D02*
X014779Y018906D01*
X014933Y018906D02*
X014933Y019367D01*
X014779Y019213D01*
X014626Y019367D02*
X014626Y018983D01*
X014549Y018906D01*
X014396Y018906D01*
X014319Y018983D01*
X014319Y019367D01*
D12*
X008083Y002650D02*
X007583Y002650D01*
X007053Y002150D02*
X007055Y002221D01*
X007061Y002292D01*
X007071Y002363D01*
X007085Y002432D01*
X007102Y002501D01*
X007124Y002569D01*
X007149Y002636D01*
X007178Y002701D01*
X007210Y002764D01*
X007246Y002826D01*
X007285Y002885D01*
X007328Y002942D01*
X007373Y002997D01*
X007422Y003049D01*
X007473Y003098D01*
X007527Y003144D01*
X007584Y003188D01*
X007642Y003228D01*
X007703Y003264D01*
X007766Y003298D01*
X007831Y003327D01*
X007897Y003353D01*
X007965Y003376D01*
X008033Y003394D01*
X008103Y003409D01*
X008173Y003420D01*
X008244Y003427D01*
X008315Y003430D01*
X008386Y003429D01*
X008457Y003424D01*
X008528Y003415D01*
X008598Y003402D01*
X008667Y003386D01*
X008735Y003365D01*
X008802Y003341D01*
X008868Y003313D01*
X008931Y003281D01*
X008993Y003246D01*
X009053Y003208D01*
X009111Y003166D01*
X009166Y003122D01*
X009219Y003074D01*
X009269Y003023D01*
X009316Y002970D01*
X009360Y002914D01*
X009401Y002856D01*
X009439Y002795D01*
X009473Y002733D01*
X009503Y002668D01*
X009530Y002603D01*
X009554Y002535D01*
X009573Y002467D01*
X009589Y002398D01*
X009601Y002327D01*
X009609Y002257D01*
X009613Y002186D01*
X009613Y002114D01*
X009609Y002043D01*
X009601Y001973D01*
X009589Y001902D01*
X009573Y001833D01*
X009554Y001765D01*
X009530Y001697D01*
X009503Y001632D01*
X009473Y001567D01*
X009439Y001505D01*
X009401Y001444D01*
X009360Y001386D01*
X009316Y001330D01*
X009269Y001277D01*
X009219Y001226D01*
X009166Y001178D01*
X009111Y001134D01*
X009053Y001092D01*
X008993Y001054D01*
X008931Y001019D01*
X008868Y000987D01*
X008802Y000959D01*
X008735Y000935D01*
X008667Y000914D01*
X008598Y000898D01*
X008528Y000885D01*
X008457Y000876D01*
X008386Y000871D01*
X008315Y000870D01*
X008244Y000873D01*
X008173Y000880D01*
X008103Y000891D01*
X008033Y000906D01*
X007965Y000924D01*
X007897Y000947D01*
X007831Y000973D01*
X007766Y001002D01*
X007703Y001036D01*
X007642Y001072D01*
X007584Y001112D01*
X007527Y001156D01*
X007473Y001202D01*
X007422Y001251D01*
X007373Y001303D01*
X007328Y001358D01*
X007285Y001415D01*
X007246Y001474D01*
X007210Y001536D01*
X007178Y001599D01*
X007149Y001664D01*
X007124Y001731D01*
X007102Y001799D01*
X007085Y001868D01*
X007071Y001937D01*
X007061Y002008D01*
X007055Y002079D01*
X007053Y002150D01*
X009905Y001912D02*
X009905Y001412D01*
X010155Y001162D01*
X010655Y001162D01*
X010905Y001412D01*
X011155Y001162D01*
X011655Y001162D01*
X011905Y001412D01*
X011905Y001912D01*
X011655Y002162D01*
X011155Y002162D01*
X010905Y001912D01*
X010655Y002162D01*
X010155Y002162D01*
X009905Y001912D01*
X003093Y006552D02*
X002699Y006552D01*
X002699Y012930D01*
X003093Y012930D01*
X003093Y006552D01*
X002699Y006552D02*
X000140Y006552D01*
X000140Y012930D01*
X002699Y012930D01*
X003983Y014150D02*
X004483Y014150D01*
X002453Y014650D02*
X002455Y014721D01*
X002461Y014792D01*
X002471Y014863D01*
X002485Y014932D01*
X002502Y015001D01*
X002524Y015069D01*
X002549Y015136D01*
X002578Y015201D01*
X002610Y015264D01*
X002646Y015326D01*
X002685Y015385D01*
X002728Y015442D01*
X002773Y015497D01*
X002822Y015549D01*
X002873Y015598D01*
X002927Y015644D01*
X002984Y015688D01*
X003042Y015728D01*
X003103Y015764D01*
X003166Y015798D01*
X003231Y015827D01*
X003297Y015853D01*
X003365Y015876D01*
X003433Y015894D01*
X003503Y015909D01*
X003573Y015920D01*
X003644Y015927D01*
X003715Y015930D01*
X003786Y015929D01*
X003857Y015924D01*
X003928Y015915D01*
X003998Y015902D01*
X004067Y015886D01*
X004135Y015865D01*
X004202Y015841D01*
X004268Y015813D01*
X004331Y015781D01*
X004393Y015746D01*
X004453Y015708D01*
X004511Y015666D01*
X004566Y015622D01*
X004619Y015574D01*
X004669Y015523D01*
X004716Y015470D01*
X004760Y015414D01*
X004801Y015356D01*
X004839Y015295D01*
X004873Y015233D01*
X004903Y015168D01*
X004930Y015103D01*
X004954Y015035D01*
X004973Y014967D01*
X004989Y014898D01*
X005001Y014827D01*
X005009Y014757D01*
X005013Y014686D01*
X005013Y014614D01*
X005009Y014543D01*
X005001Y014473D01*
X004989Y014402D01*
X004973Y014333D01*
X004954Y014265D01*
X004930Y014197D01*
X004903Y014132D01*
X004873Y014067D01*
X004839Y014005D01*
X004801Y013944D01*
X004760Y013886D01*
X004716Y013830D01*
X004669Y013777D01*
X004619Y013726D01*
X004566Y013678D01*
X004511Y013634D01*
X004453Y013592D01*
X004393Y013554D01*
X004331Y013519D01*
X004268Y013487D01*
X004202Y013459D01*
X004135Y013435D01*
X004067Y013414D01*
X003998Y013398D01*
X003928Y013385D01*
X003857Y013376D01*
X003786Y013371D01*
X003715Y013370D01*
X003644Y013373D01*
X003573Y013380D01*
X003503Y013391D01*
X003433Y013406D01*
X003365Y013424D01*
X003297Y013447D01*
X003231Y013473D01*
X003166Y013502D01*
X003103Y013536D01*
X003042Y013572D01*
X002984Y013612D01*
X002927Y013656D01*
X002873Y013702D01*
X002822Y013751D01*
X002773Y013803D01*
X002728Y013858D01*
X002685Y013915D01*
X002646Y013974D01*
X002610Y014036D01*
X002578Y014099D01*
X002549Y014164D01*
X002524Y014231D01*
X002502Y014299D01*
X002485Y014368D01*
X002471Y014437D01*
X002461Y014508D01*
X002455Y014579D01*
X002453Y014650D01*
X002198Y014820D02*
X002198Y015100D01*
X002198Y014960D02*
X001778Y014960D01*
X001918Y014820D01*
X001738Y015280D02*
X001488Y015530D01*
X001488Y016030D01*
X001738Y016280D01*
X001488Y016530D01*
X001488Y017030D01*
X001738Y017280D01*
X001488Y017530D01*
X001488Y018030D01*
X001738Y018280D01*
X002238Y018280D01*
X002488Y018030D01*
X002488Y017530D01*
X002238Y017280D01*
X002488Y017030D01*
X002488Y016530D01*
X002238Y016280D01*
X002488Y016030D01*
X002488Y015530D01*
X002238Y015280D01*
X001738Y015280D01*
X008808Y012488D02*
X008808Y007056D01*
X011129Y007056D01*
X011129Y012488D01*
X008808Y012488D01*
X008083Y014807D02*
X008086Y014912D01*
X008093Y015018D01*
X008106Y015122D01*
X008124Y015226D01*
X008147Y015329D01*
X008176Y015431D01*
X008209Y015531D01*
X008247Y015630D01*
X008289Y015726D01*
X008337Y015821D01*
X008389Y015912D01*
X008445Y016001D01*
X008506Y016088D01*
X008571Y016171D01*
X008640Y016251D01*
X008713Y016327D01*
X008789Y016400D01*
X008869Y016469D01*
X008952Y016534D01*
X009039Y016595D01*
X009128Y016651D01*
X009219Y016703D01*
X009314Y016751D01*
X009410Y016793D01*
X009509Y016831D01*
X009609Y016864D01*
X009711Y016893D01*
X009814Y016916D01*
X009918Y016934D01*
X010022Y016947D01*
X010128Y016954D01*
X010233Y016957D01*
X010338Y016954D01*
X010444Y016947D01*
X010548Y016934D01*
X010652Y016916D01*
X010755Y016893D01*
X010857Y016864D01*
X010957Y016831D01*
X011056Y016793D01*
X011152Y016751D01*
X011247Y016703D01*
X011338Y016651D01*
X011427Y016595D01*
X011514Y016534D01*
X011597Y016469D01*
X011677Y016400D01*
X011753Y016327D01*
X011826Y016251D01*
X011895Y016171D01*
X011960Y016088D01*
X012021Y016001D01*
X012077Y015912D01*
X012129Y015821D01*
X012177Y015726D01*
X012219Y015630D01*
X012257Y015531D01*
X012290Y015431D01*
X012319Y015329D01*
X012342Y015226D01*
X012360Y015122D01*
X012373Y015018D01*
X012380Y014912D01*
X012383Y014807D01*
X012380Y014702D01*
X012373Y014596D01*
X012360Y014492D01*
X012342Y014388D01*
X012319Y014285D01*
X012290Y014183D01*
X012257Y014083D01*
X012219Y013984D01*
X012177Y013888D01*
X012129Y013793D01*
X012077Y013702D01*
X012021Y013613D01*
X011960Y013526D01*
X011895Y013443D01*
X011826Y013363D01*
X011753Y013287D01*
X011677Y013214D01*
X011597Y013145D01*
X011514Y013080D01*
X011427Y013019D01*
X011338Y012963D01*
X011247Y012911D01*
X011152Y012863D01*
X011056Y012821D01*
X010957Y012783D01*
X010857Y012750D01*
X010755Y012721D01*
X010652Y012698D01*
X010548Y012680D01*
X010444Y012667D01*
X010338Y012660D01*
X010233Y012657D01*
X010128Y012660D01*
X010022Y012667D01*
X009918Y012680D01*
X009814Y012698D01*
X009711Y012721D01*
X009609Y012750D01*
X009509Y012783D01*
X009410Y012821D01*
X009314Y012863D01*
X009219Y012911D01*
X009128Y012963D01*
X009039Y013019D01*
X008952Y013080D01*
X008869Y013145D01*
X008789Y013214D01*
X008713Y013287D01*
X008640Y013363D01*
X008571Y013443D01*
X008506Y013526D01*
X008445Y013613D01*
X008389Y013702D01*
X008337Y013793D01*
X008289Y013888D01*
X008247Y013984D01*
X008209Y014083D01*
X008176Y014183D01*
X008147Y014285D01*
X008124Y014388D01*
X008106Y014492D01*
X008093Y014596D01*
X008086Y014702D01*
X008083Y014807D01*
X010733Y015557D02*
X010733Y016057D01*
X021453Y015250D02*
X021455Y015321D01*
X021461Y015392D01*
X021471Y015463D01*
X021485Y015532D01*
X021502Y015601D01*
X021524Y015669D01*
X021549Y015736D01*
X021578Y015801D01*
X021610Y015864D01*
X021646Y015926D01*
X021685Y015985D01*
X021728Y016042D01*
X021773Y016097D01*
X021822Y016149D01*
X021873Y016198D01*
X021927Y016244D01*
X021984Y016288D01*
X022042Y016328D01*
X022103Y016364D01*
X022166Y016398D01*
X022231Y016427D01*
X022297Y016453D01*
X022365Y016476D01*
X022433Y016494D01*
X022503Y016509D01*
X022573Y016520D01*
X022644Y016527D01*
X022715Y016530D01*
X022786Y016529D01*
X022857Y016524D01*
X022928Y016515D01*
X022998Y016502D01*
X023067Y016486D01*
X023135Y016465D01*
X023202Y016441D01*
X023268Y016413D01*
X023331Y016381D01*
X023393Y016346D01*
X023453Y016308D01*
X023511Y016266D01*
X023566Y016222D01*
X023619Y016174D01*
X023669Y016123D01*
X023716Y016070D01*
X023760Y016014D01*
X023801Y015956D01*
X023839Y015895D01*
X023873Y015833D01*
X023903Y015768D01*
X023930Y015703D01*
X023954Y015635D01*
X023973Y015567D01*
X023989Y015498D01*
X024001Y015427D01*
X024009Y015357D01*
X024013Y015286D01*
X024013Y015214D01*
X024009Y015143D01*
X024001Y015073D01*
X023989Y015002D01*
X023973Y014933D01*
X023954Y014865D01*
X023930Y014797D01*
X023903Y014732D01*
X023873Y014667D01*
X023839Y014605D01*
X023801Y014544D01*
X023760Y014486D01*
X023716Y014430D01*
X023669Y014377D01*
X023619Y014326D01*
X023566Y014278D01*
X023511Y014234D01*
X023453Y014192D01*
X023393Y014154D01*
X023331Y014119D01*
X023268Y014087D01*
X023202Y014059D01*
X023135Y014035D01*
X023067Y014014D01*
X022998Y013998D01*
X022928Y013985D01*
X022857Y013976D01*
X022786Y013971D01*
X022715Y013970D01*
X022644Y013973D01*
X022573Y013980D01*
X022503Y013991D01*
X022433Y014006D01*
X022365Y014024D01*
X022297Y014047D01*
X022231Y014073D01*
X022166Y014102D01*
X022103Y014136D01*
X022042Y014172D01*
X021984Y014212D01*
X021927Y014256D01*
X021873Y014302D01*
X021822Y014351D01*
X021773Y014403D01*
X021728Y014458D01*
X021685Y014515D01*
X021646Y014574D01*
X021610Y014636D01*
X021578Y014699D01*
X021549Y014764D01*
X021524Y014831D01*
X021502Y014899D01*
X021485Y014968D01*
X021471Y015037D01*
X021461Y015108D01*
X021455Y015179D01*
X021453Y015250D01*
X023233Y015500D02*
X023233Y016000D01*
X027724Y016054D02*
X027724Y015554D01*
X027974Y015304D01*
X028474Y015304D01*
X028724Y015554D01*
X028724Y016054D01*
X028474Y016304D01*
X028724Y016554D01*
X028724Y017054D01*
X028474Y017304D01*
X028724Y017554D01*
X028724Y018054D01*
X028474Y018304D01*
X027974Y018304D01*
X027724Y018054D01*
X027724Y017554D01*
X027974Y017304D01*
X027724Y017054D01*
X027724Y016554D01*
X027974Y016304D01*
X027724Y016054D01*
X028434Y015124D02*
X028434Y014844D01*
X028434Y014984D02*
X028014Y014984D01*
X028154Y014844D01*
X026165Y011839D02*
X024354Y011839D01*
X024354Y011701D01*
X025063Y011465D02*
X025063Y010678D01*
X024354Y010481D02*
X024354Y010343D01*
X026165Y010343D01*
X026165Y010481D01*
X026165Y011701D02*
X026165Y011839D01*
X027896Y008571D02*
X028396Y008571D01*
X028646Y008321D01*
X028646Y007821D01*
X028396Y007571D01*
X027896Y007571D01*
X027646Y007821D01*
X027646Y008321D01*
X027896Y008571D01*
X027896Y007571D02*
X027646Y007321D01*
X027646Y006821D01*
X027896Y006571D01*
X028396Y006571D01*
X028646Y006321D01*
X028646Y005821D01*
X028396Y005571D01*
X027896Y005571D01*
X027646Y005821D01*
X027646Y006321D01*
X027896Y006571D01*
X028396Y006571D02*
X028646Y006821D01*
X028646Y007321D01*
X028396Y007571D01*
X028396Y005571D02*
X028646Y005321D01*
X028646Y004821D01*
X028396Y004571D01*
X027896Y004571D01*
X027646Y004821D01*
X027646Y005321D01*
X027896Y005571D01*
X027896Y004571D02*
X027646Y004321D01*
X027646Y003821D01*
X027896Y003571D01*
X027646Y003571D01*
X027646Y002571D01*
X028646Y002571D01*
X028646Y003571D01*
X028396Y003571D01*
X027896Y003571D01*
X028396Y003571D02*
X028646Y003821D01*
X028646Y004321D01*
X028396Y004571D01*
X023724Y002300D02*
X023724Y001512D01*
X023173Y001512D01*
X022897Y001630D02*
X022897Y001906D01*
X022661Y001670D01*
X022661Y002142D01*
X022897Y001906D01*
X022897Y002181D01*
X023173Y002300D02*
X023724Y002300D01*
X022386Y002300D02*
X021834Y002300D01*
X021834Y001512D01*
X022386Y001512D01*
X021405Y001516D02*
X020854Y001516D01*
X020579Y001634D02*
X020579Y001910D01*
X020342Y001674D01*
X020342Y002146D01*
X020579Y001910D01*
X020579Y002185D01*
X020854Y002304D02*
X021405Y002304D01*
X021405Y001516D01*
X020067Y001516D02*
X019516Y001516D01*
X019516Y002304D01*
X020067Y002304D01*
X010204Y007056D02*
X010202Y007086D01*
X010197Y007115D01*
X010187Y007143D01*
X010175Y007170D01*
X010159Y007195D01*
X010140Y007218D01*
X010118Y007238D01*
X010094Y007255D01*
X010068Y007270D01*
X010041Y007280D01*
X010012Y007288D01*
X009983Y007292D01*
X009953Y007292D01*
X009924Y007288D01*
X009895Y007280D01*
X009868Y007270D01*
X009842Y007255D01*
X009818Y007238D01*
X009796Y007218D01*
X009777Y007195D01*
X009761Y007170D01*
X009749Y007143D01*
X009739Y007115D01*
X009734Y007086D01*
X009732Y007056D01*
D13*
X014248Y011536D02*
X014484Y011536D01*
X014484Y012008D02*
X014248Y012008D01*
X020236Y012469D02*
X020472Y012469D01*
X020472Y012941D02*
X020236Y012941D01*
X008060Y016684D02*
X008060Y016920D01*
X007587Y016920D02*
X007587Y016684D01*
X017169Y003556D02*
X017169Y003319D01*
X017642Y003319D02*
X017642Y003556D01*
X017153Y002382D02*
X016917Y002382D01*
X016917Y001910D02*
X017153Y001910D01*
X019728Y002500D02*
X019964Y002500D01*
X019964Y002973D02*
X019728Y002973D01*
X021689Y003020D02*
X021925Y003020D01*
X021925Y002548D02*
X021689Y002548D01*
D14*
X024401Y004906D02*
X024401Y008606D01*
X017295Y005756D02*
X017297Y005784D01*
X017303Y005812D01*
X017312Y005838D01*
X017325Y005863D01*
X017341Y005886D01*
X017360Y005907D01*
X017382Y005924D01*
X017406Y005939D01*
X017432Y005950D01*
X017459Y005958D01*
X017487Y005962D01*
X017515Y005962D01*
X017543Y005958D01*
X017570Y005950D01*
X017596Y005939D01*
X017620Y005924D01*
X017642Y005907D01*
X017661Y005886D01*
X017677Y005863D01*
X017690Y005838D01*
X017699Y005812D01*
X017705Y005784D01*
X017707Y005756D01*
X017705Y005728D01*
X017699Y005700D01*
X017690Y005674D01*
X017677Y005649D01*
X017661Y005626D01*
X017642Y005605D01*
X017620Y005588D01*
X017596Y005573D01*
X017570Y005562D01*
X017543Y005554D01*
X017515Y005550D01*
X017487Y005550D01*
X017459Y005554D01*
X017432Y005562D01*
X017406Y005573D01*
X017382Y005588D01*
X017360Y005605D01*
X017341Y005626D01*
X017325Y005649D01*
X017312Y005674D01*
X017303Y005700D01*
X017297Y005728D01*
X017295Y005756D01*
X016901Y004906D02*
X016901Y008606D01*
M02*
