G75*
G70*
%OFA0B0*%
%FSLAX24Y24*%
%IPPOS*%
%LPD*%
%AMOC8*
5,1,8,0,0,1.08239X$1,22.5*
%
%ADD10C,0.1080*%
%ADD11R,0.1080X0.1080*%
%ADD12R,0.0749X0.1064*%
%ADD13R,0.0789X0.0710*%
%ADD14R,0.0395X0.0552*%
%ADD15R,0.0880X0.0880*%
%ADD16C,0.0880*%
%ADD17C,0.0820*%
%ADD18R,0.0552X0.0631*%
%ADD19R,0.0552X0.0395*%
%ADD20R,0.0218X0.0789*%
%ADD21R,0.0710X0.0789*%
%ADD22R,0.0867X0.0237*%
%ADD23R,0.1773X0.3230*%
%ADD24R,0.0477X0.0477*%
%ADD25OC8,0.0600*%
%ADD26C,0.1280*%
%ADD27C,0.0730*%
%ADD28R,0.0730X0.0730*%
%ADD29C,0.0476*%
D10*
X014299Y014136D03*
X014299Y015386D03*
X020549Y014136D03*
X020549Y017886D03*
D11*
X014299Y017886D03*
D12*
X024551Y011091D03*
X026126Y011091D03*
D13*
X018417Y013756D03*
X018417Y014859D03*
X004382Y012678D03*
X004382Y011575D03*
X004374Y010587D03*
X004374Y009485D03*
X004374Y008496D03*
X004374Y007394D03*
X018417Y003091D03*
X018417Y001989D03*
D14*
X017390Y002146D03*
X016681Y002146D03*
X019492Y002737D03*
X020201Y002737D03*
X021453Y002784D03*
X022161Y002784D03*
X014720Y011772D03*
X014012Y011772D03*
X020000Y012705D03*
X020709Y012705D03*
D15*
X028268Y010996D03*
X001794Y007772D03*
D16*
X001794Y009741D03*
X001794Y011709D03*
X028268Y012374D03*
D17*
X028224Y015804D03*
X028224Y016804D03*
X028224Y017804D03*
X028196Y008071D03*
X028096Y007071D03*
X028196Y006071D03*
X028096Y005071D03*
X028196Y004071D03*
X028096Y003071D03*
X011405Y001662D03*
X010405Y001662D03*
X001988Y015780D03*
X001988Y016780D03*
X001988Y017780D03*
D18*
X019870Y001910D03*
X021051Y001910D03*
X022189Y001906D03*
X023370Y001906D03*
D19*
X017405Y003083D03*
X017405Y003792D03*
X007823Y016448D03*
X007823Y017156D03*
D20*
X017401Y008607D03*
X017901Y008607D03*
X018401Y008607D03*
X018901Y008607D03*
X019401Y008607D03*
X019901Y008607D03*
X020401Y008607D03*
X020901Y008607D03*
X021401Y008607D03*
X021901Y008607D03*
X022401Y008607D03*
X022901Y008607D03*
X023401Y008607D03*
X023901Y008607D03*
X023901Y004906D03*
X023401Y004906D03*
X022901Y004906D03*
X022401Y004906D03*
X021901Y004906D03*
X021401Y004906D03*
X020901Y004906D03*
X020401Y004906D03*
X019901Y004906D03*
X019401Y004906D03*
X018901Y004906D03*
X018401Y004906D03*
X017901Y004906D03*
X017401Y004906D03*
D21*
X015594Y003028D03*
X014492Y003028D03*
X014480Y001748D03*
X015583Y001748D03*
X007366Y006473D03*
X006264Y006473D03*
X013630Y009926D03*
X014732Y009926D03*
X021374Y010024D03*
X022476Y010024D03*
X027122Y014040D03*
X028224Y014040D03*
X012696Y017503D03*
X011594Y017503D03*
X009784Y017450D03*
X008682Y017450D03*
X007146Y013638D03*
X006043Y013638D03*
D22*
X008551Y012397D03*
X008551Y012147D03*
X008551Y011897D03*
X008551Y011647D03*
X008551Y011397D03*
X008551Y011147D03*
X008551Y010897D03*
X008551Y010647D03*
X008551Y010397D03*
X008551Y010147D03*
X008551Y009897D03*
X008551Y009647D03*
X008551Y009397D03*
X008551Y009147D03*
X008551Y008897D03*
X008551Y008647D03*
X008551Y008397D03*
X008551Y008147D03*
X008551Y007897D03*
X008551Y007647D03*
X008551Y007397D03*
X008551Y007147D03*
X011386Y007147D03*
X011386Y007397D03*
X011386Y007647D03*
X011386Y007897D03*
X011386Y008147D03*
X011386Y008397D03*
X011386Y008647D03*
X011386Y008897D03*
X011386Y009147D03*
X011386Y009397D03*
X011386Y009647D03*
X011386Y009897D03*
X011386Y010147D03*
X011386Y010397D03*
X011386Y010647D03*
X011386Y010897D03*
X011386Y011147D03*
X011386Y011397D03*
X011386Y011647D03*
X011386Y011897D03*
X011386Y012147D03*
X011386Y012397D03*
D23*
X009968Y009772D03*
D24*
X009968Y010022D03*
X009468Y010022D03*
X009468Y010522D03*
X009468Y011022D03*
X009968Y011022D03*
X009968Y010522D03*
X010468Y010522D03*
X010468Y010022D03*
X010468Y009522D03*
X009968Y009522D03*
X009468Y009522D03*
X009468Y009022D03*
X009468Y008522D03*
X009968Y008522D03*
X009968Y009022D03*
X010468Y009022D03*
X010468Y008522D03*
X010468Y011022D03*
D25*
X025018Y014552D03*
X025768Y015052D03*
X025768Y014052D03*
D26*
X005264Y002225D03*
X025500Y002225D03*
X005264Y017382D03*
X025500Y017406D03*
D27*
X022733Y015750D03*
X010233Y015807D03*
X004233Y014650D03*
X007833Y002150D03*
D28*
X008833Y002150D03*
X010233Y013807D03*
X003233Y014650D03*
X022733Y014750D03*
D29*
X016287Y010493D03*
X012527Y008386D03*
X012333Y006450D03*
X011633Y006450D03*
X014279Y006044D03*
X016287Y007343D03*
X016523Y003091D03*
X008533Y006350D03*
X005618Y007815D03*
X006633Y008550D03*
X005618Y009823D03*
X006633Y010650D03*
X006733Y011350D03*
X005618Y011930D03*
X012449Y011496D03*
X012733Y014650D03*
X024968Y007520D03*
X024771Y006162D03*
M02*
