G75*
G70*
%OFA0B0*%
%FSLAX24Y24*%
%IPPOS*%
%LPD*%
%AMOC8*
5,1,8,0,0,1.08239X$1,22.5*
%
%ADD10C,0.1000*%
%ADD11R,0.1000X0.1000*%
%ADD12R,0.0800X0.0800*%
%ADD13C,0.0800*%
%ADD14C,0.0740*%
%ADD15R,0.0397X0.0397*%
%ADD16OC8,0.0520*%
%ADD17R,0.0709X0.0630*%
%ADD18R,0.1380X0.2000*%
%ADD19R,0.2000X0.1380*%
%ADD20C,0.0650*%
%ADD21R,0.0650X0.0650*%
%ADD22C,0.0100*%
%ADD23C,0.0160*%
%ADD24C,0.0396*%
%ADD25C,0.0560*%
D10*
X014299Y014136D03*
X014299Y015386D03*
X020549Y014136D03*
X020549Y017886D03*
D11*
X014299Y017886D03*
D12*
X028268Y010996D03*
X001794Y007772D03*
D13*
X001794Y009741D03*
X001794Y011709D03*
X028268Y012374D03*
D14*
X028224Y015804D03*
X028224Y016804D03*
X028224Y017804D03*
X028196Y008071D03*
X028096Y007071D03*
X028196Y006071D03*
X028096Y005071D03*
X028196Y004071D03*
X028096Y003071D03*
X011405Y001662D03*
X010405Y001662D03*
X001988Y015780D03*
X001988Y016780D03*
X001988Y017780D03*
D15*
X009468Y011022D03*
X009468Y010522D03*
X009468Y010022D03*
X009968Y010022D03*
X009968Y010522D03*
X009968Y011022D03*
X010468Y011022D03*
X010468Y010522D03*
X010468Y010022D03*
X010468Y009522D03*
X009968Y009522D03*
X009468Y009522D03*
X009468Y009022D03*
X009468Y008522D03*
X009968Y008522D03*
X009968Y009022D03*
X010468Y009022D03*
X010468Y008522D03*
D16*
X025018Y014552D03*
X025768Y015052D03*
X025768Y014052D03*
D17*
X004067Y012670D03*
X004067Y011567D03*
X004047Y010544D03*
X004047Y009441D03*
X004008Y007815D03*
X004008Y006713D03*
D18*
X010479Y006162D03*
X012109Y006162D03*
X008953Y012756D03*
X007323Y012756D03*
D19*
X008067Y009825D03*
X008067Y008195D03*
D20*
X007833Y002150D03*
X004233Y014650D03*
X010233Y015807D03*
X022733Y015750D03*
D21*
X022733Y014750D03*
X010233Y013807D03*
X003233Y014650D03*
X008833Y002150D03*
D22*
X008852Y002169D02*
X009308Y002169D01*
X009308Y002495D01*
X009298Y002533D01*
X009278Y002567D01*
X009250Y002595D01*
X009216Y002615D01*
X009178Y002625D01*
X008852Y002625D01*
X008852Y002169D01*
X008852Y002131D01*
X009308Y002131D01*
X009308Y001805D01*
X009298Y001767D01*
X009278Y001733D01*
X009250Y001705D01*
X009216Y001685D01*
X009178Y001675D01*
X008852Y001675D01*
X008852Y002131D01*
X008814Y002131D01*
X008814Y001675D01*
X008488Y001675D01*
X008450Y001685D01*
X008416Y001705D01*
X008388Y001733D01*
X008368Y001767D01*
X008358Y001805D01*
X008358Y002019D01*
X008286Y001847D01*
X008136Y001696D01*
X007939Y001615D01*
X007726Y001615D01*
X007530Y001696D01*
X007379Y001847D01*
X007298Y002044D01*
X007298Y002256D01*
X007379Y002453D01*
X007530Y002604D01*
X007726Y002685D01*
X007939Y002685D01*
X008136Y002604D01*
X008286Y002453D01*
X008358Y002281D01*
X008358Y002495D01*
X008368Y002533D01*
X008388Y002567D01*
X008416Y002595D01*
X008450Y002615D01*
X008488Y002625D01*
X008814Y002625D01*
X008814Y002169D01*
X008852Y002169D01*
X008852Y002128D02*
X008814Y002128D01*
X008814Y002226D02*
X008852Y002226D01*
X008852Y002325D02*
X008814Y002325D01*
X008814Y002423D02*
X008852Y002423D01*
X008852Y002522D02*
X008814Y002522D01*
X008814Y002620D02*
X008852Y002620D01*
X009196Y002620D02*
X024097Y002620D01*
X024107Y002678D02*
X024035Y002225D01*
X024107Y001772D01*
X024315Y001364D01*
X024578Y001100D01*
X011565Y001100D01*
X011734Y001170D01*
X011897Y001333D01*
X011985Y001546D01*
X011985Y001777D01*
X011897Y001990D01*
X011734Y002154D01*
X011521Y002242D01*
X011290Y002242D01*
X011077Y002154D01*
X010914Y001990D01*
X010905Y001970D01*
X010897Y001990D01*
X010734Y002154D01*
X010521Y002242D01*
X010290Y002242D01*
X010077Y002154D01*
X009914Y001990D01*
X009825Y001777D01*
X009825Y001546D01*
X009914Y001333D01*
X010077Y001170D01*
X010246Y001100D01*
X006185Y001100D01*
X006449Y001364D01*
X006657Y001772D01*
X006657Y001772D01*
X006729Y002225D01*
X006657Y002678D01*
X006576Y002837D01*
X006663Y002801D01*
X016236Y002801D01*
X016292Y002745D01*
X016442Y002683D01*
X016605Y002683D01*
X016755Y002745D01*
X016869Y002860D01*
X016932Y003010D01*
X016932Y003172D01*
X016869Y003322D01*
X016755Y003437D01*
X016605Y003499D01*
X016442Y003499D01*
X016292Y003437D01*
X016236Y003381D01*
X006840Y003381D01*
X006518Y003703D01*
X025834Y003703D01*
X025834Y003704D02*
X027743Y003704D01*
X027704Y003743D02*
X027616Y003956D01*
X027616Y004187D01*
X027704Y004400D01*
X027849Y004545D01*
X027767Y004580D01*
X027604Y004743D01*
X027516Y004956D01*
X027516Y005187D01*
X027604Y005400D01*
X027767Y005563D01*
X027849Y005597D01*
X027704Y005743D01*
X027616Y005956D01*
X027616Y006187D01*
X027704Y006400D01*
X027849Y006545D01*
X027767Y006580D01*
X027604Y006743D01*
X027516Y006956D01*
X027516Y007187D01*
X027604Y007400D01*
X027767Y007563D01*
X027849Y007597D01*
X027704Y007743D01*
X027616Y007956D01*
X027616Y008187D01*
X027704Y008400D01*
X027867Y008563D01*
X028080Y008651D01*
X028311Y008651D01*
X028524Y008563D01*
X028687Y008400D01*
X028776Y008187D01*
X028776Y007956D01*
X028687Y007743D01*
X028524Y007580D01*
X028442Y007545D01*
X029026Y007545D01*
X029026Y007447D02*
X028540Y007447D01*
X028587Y007400D02*
X028442Y007545D01*
X028588Y007644D02*
X029026Y007644D01*
X029026Y007742D02*
X028687Y007742D01*
X028728Y007841D02*
X029026Y007841D01*
X029026Y007939D02*
X028769Y007939D01*
X028776Y008038D02*
X029026Y008038D01*
X029026Y008136D02*
X028776Y008136D01*
X028756Y008235D02*
X029026Y008235D01*
X029026Y008333D02*
X028715Y008333D01*
X028655Y008432D02*
X029026Y008432D01*
X029026Y008530D02*
X028557Y008530D01*
X028366Y008629D02*
X029026Y008629D01*
X029026Y008727D02*
X027013Y008727D01*
X027013Y008629D02*
X028025Y008629D01*
X027834Y008530D02*
X027013Y008530D01*
X027013Y008432D02*
X027736Y008432D01*
X027676Y008333D02*
X027013Y008333D01*
X027013Y008235D02*
X027635Y008235D01*
X027616Y008136D02*
X027013Y008136D01*
X027013Y008038D02*
X027616Y008038D01*
X027623Y007939D02*
X027013Y007939D01*
X027013Y007841D02*
X027663Y007841D01*
X027705Y007742D02*
X027013Y007742D01*
X027013Y007644D02*
X027803Y007644D01*
X027749Y007545D02*
X027013Y007545D01*
X027013Y007447D02*
X027651Y007447D01*
X027582Y007348D02*
X027013Y007348D01*
X027013Y007250D02*
X027542Y007250D01*
X027516Y007151D02*
X027013Y007151D01*
X027013Y007053D02*
X027516Y007053D01*
X027516Y006954D02*
X027013Y006954D01*
X027013Y006856D02*
X027557Y006856D01*
X027598Y006757D02*
X027013Y006757D01*
X027013Y006659D02*
X027688Y006659D01*
X027814Y006560D02*
X027013Y006560D01*
X027013Y006462D02*
X027766Y006462D01*
X027689Y006363D02*
X027013Y006363D01*
X027013Y006265D02*
X027648Y006265D01*
X027616Y006166D02*
X027013Y006166D01*
X027013Y006068D02*
X027616Y006068D01*
X027616Y005969D02*
X027013Y005969D01*
X027013Y005871D02*
X027651Y005871D01*
X027692Y005772D02*
X027013Y005772D01*
X027013Y005674D02*
X027773Y005674D01*
X027796Y005575D02*
X027013Y005575D01*
X027013Y005477D02*
X027681Y005477D01*
X027595Y005378D02*
X027013Y005378D01*
X027013Y005280D02*
X027554Y005280D01*
X027516Y005181D02*
X027013Y005181D01*
X027013Y005083D02*
X027516Y005083D01*
X027516Y004984D02*
X027013Y004984D01*
X027013Y004886D02*
X027545Y004886D01*
X027585Y004787D02*
X026974Y004787D01*
X026939Y004703D02*
X027013Y004883D01*
X027013Y009049D01*
X028351Y010386D01*
X028755Y010386D01*
X028878Y010509D01*
X028878Y011483D01*
X028755Y011606D01*
X027781Y011606D01*
X027658Y011483D01*
X027658Y011079D01*
X026246Y009668D01*
X026246Y009668D01*
X026108Y009530D01*
X026058Y009408D01*
X026058Y013677D01*
X026238Y013857D01*
X026238Y014246D01*
X025962Y014522D01*
X025573Y014522D01*
X025488Y014436D01*
X025488Y014746D01*
X025212Y015022D01*
X024823Y015022D01*
X024548Y014746D01*
X024548Y014357D01*
X024823Y014082D01*
X025212Y014082D01*
X025298Y014167D01*
X025298Y013857D01*
X025478Y013677D01*
X025478Y007810D01*
X025256Y007810D01*
X025200Y007866D01*
X025050Y007928D01*
X024887Y007928D01*
X024737Y007866D01*
X024622Y007751D01*
X024560Y007601D01*
X024560Y007439D01*
X024622Y007289D01*
X024737Y007174D01*
X024887Y007112D01*
X025050Y007112D01*
X025200Y007174D01*
X025256Y007230D01*
X025478Y007230D01*
X025478Y006707D01*
X025222Y006452D01*
X025059Y006452D01*
X025003Y006508D01*
X024853Y006570D01*
X024690Y006570D01*
X024540Y006508D01*
X024484Y006452D01*
X017588Y006452D01*
X016695Y007345D01*
X016695Y007424D01*
X016633Y007574D01*
X016577Y007630D01*
X016577Y010205D01*
X016633Y010261D01*
X016695Y010411D01*
X016695Y010574D01*
X016633Y010724D01*
X016577Y010780D01*
X016577Y016062D01*
X016533Y016169D01*
X016452Y016250D01*
X015664Y017038D01*
X015558Y017082D01*
X007568Y017082D01*
X007462Y017038D01*
X007380Y016956D01*
X006494Y016070D01*
X005875Y016070D01*
X006125Y016197D01*
X006449Y016521D01*
X006449Y016521D01*
X006657Y016930D01*
X006729Y017382D01*
X006657Y017835D01*
X006449Y018243D01*
X006449Y018243D01*
X006192Y018500D01*
X013616Y018500D01*
X013589Y018473D01*
X013589Y017299D01*
X013712Y017176D01*
X014886Y017176D01*
X015009Y017299D01*
X015009Y018473D01*
X014982Y018500D01*
X020332Y018500D01*
X020261Y018470D01*
X020187Y018428D01*
X020120Y018376D01*
X020059Y018316D01*
X020007Y018248D01*
X019965Y018174D01*
X019932Y018096D01*
X019910Y018013D01*
X019900Y017936D01*
X020499Y017936D01*
X020499Y017836D01*
X020599Y017836D01*
X020599Y017237D01*
X020676Y017247D01*
X020758Y017269D01*
X020837Y017302D01*
X020911Y017345D01*
X020979Y017396D01*
X021039Y017457D01*
X021091Y017524D01*
X021133Y017598D01*
X021166Y017677D01*
X021188Y017759D01*
X021198Y017836D01*
X020599Y017836D01*
X020599Y017936D01*
X021198Y017936D01*
X021188Y018013D01*
X021166Y018096D01*
X021133Y018174D01*
X021091Y018248D01*
X021039Y018316D01*
X020979Y018376D01*
X020911Y018428D01*
X020837Y018470D01*
X020766Y018500D01*
X024548Y018500D01*
X024315Y018267D01*
X024107Y017859D01*
X024107Y017859D01*
X024035Y017406D01*
X024107Y016953D01*
X024315Y016545D01*
X024639Y016221D01*
X025047Y016013D01*
X025500Y015941D01*
X025953Y016013D01*
X026361Y016221D01*
X026685Y016545D01*
X026893Y016953D01*
X026965Y017406D01*
X026893Y017859D01*
X026685Y018267D01*
X026452Y018500D01*
X028861Y018500D01*
X028887Y018498D01*
X028936Y018482D01*
X028978Y018452D01*
X029008Y018410D01*
X029024Y018360D01*
X029026Y018335D01*
X029026Y001360D01*
X029023Y001319D01*
X028998Y001242D01*
X028950Y001176D01*
X028884Y001128D01*
X028807Y001103D01*
X028766Y001100D01*
X026421Y001100D01*
X026685Y001364D01*
X026893Y001772D01*
X026893Y001772D01*
X026965Y002225D01*
X026893Y002678D01*
X026685Y003086D01*
X026361Y003410D01*
X026361Y003410D01*
X025953Y003618D01*
X025953Y003618D01*
X025500Y003690D01*
X025500Y003690D01*
X025047Y003618D01*
X024639Y003410D01*
X024639Y003410D01*
X024315Y003086D01*
X024107Y002678D01*
X024127Y002719D02*
X016691Y002719D01*
X016827Y002817D02*
X024178Y002817D01*
X024228Y002916D02*
X016893Y002916D01*
X016932Y003014D02*
X024278Y003014D01*
X024315Y003086D02*
X024315Y003086D01*
X024341Y003113D02*
X016932Y003113D01*
X016915Y003211D02*
X024440Y003211D01*
X024538Y003310D02*
X016875Y003310D01*
X016784Y003408D02*
X024637Y003408D01*
X024639Y003410D02*
X024639Y003410D01*
X024828Y003507D02*
X006715Y003507D01*
X006616Y003605D02*
X025021Y003605D01*
X025047Y003618D02*
X025047Y003618D01*
X025834Y003703D02*
X026014Y003778D01*
X026801Y004565D01*
X026939Y004703D01*
X026924Y004689D02*
X027658Y004689D01*
X027757Y004590D02*
X026826Y004590D01*
X026727Y004492D02*
X027796Y004492D01*
X027701Y004393D02*
X026629Y004393D01*
X026530Y004295D02*
X027660Y004295D01*
X027619Y004196D02*
X026432Y004196D01*
X026333Y004098D02*
X027616Y004098D01*
X027616Y003999D02*
X026235Y003999D01*
X026136Y003901D02*
X027638Y003901D01*
X027679Y003802D02*
X026038Y003802D01*
X025978Y003605D02*
X027842Y003605D01*
X027849Y003597D02*
X027767Y003563D01*
X027604Y003400D01*
X027516Y003187D01*
X027516Y002956D01*
X027604Y002743D01*
X027767Y002580D01*
X027980Y002491D01*
X028211Y002491D01*
X028424Y002580D01*
X028587Y002743D01*
X028676Y002956D01*
X028676Y003187D01*
X028587Y003400D01*
X028442Y003545D01*
X028524Y003580D01*
X028687Y003743D01*
X028776Y003956D01*
X028776Y004187D01*
X028687Y004400D01*
X028524Y004563D01*
X028442Y004597D01*
X028587Y004743D01*
X028676Y004956D01*
X028676Y005187D01*
X028587Y005400D01*
X028442Y005545D01*
X028524Y005580D01*
X028687Y005743D01*
X028776Y005956D01*
X028776Y006187D01*
X028687Y006400D01*
X028524Y006563D01*
X028442Y006597D01*
X028587Y006743D01*
X028676Y006956D01*
X028676Y007187D01*
X028587Y007400D01*
X028609Y007348D02*
X029026Y007348D01*
X029026Y007250D02*
X028649Y007250D01*
X028676Y007151D02*
X029026Y007151D01*
X029026Y007053D02*
X028676Y007053D01*
X028675Y006954D02*
X029026Y006954D01*
X029026Y006856D02*
X028634Y006856D01*
X028593Y006757D02*
X029026Y006757D01*
X029026Y006659D02*
X028503Y006659D01*
X028527Y006560D02*
X029026Y006560D01*
X029026Y006462D02*
X028625Y006462D01*
X028702Y006363D02*
X029026Y006363D01*
X029026Y006265D02*
X028743Y006265D01*
X028776Y006166D02*
X029026Y006166D01*
X029026Y006068D02*
X028776Y006068D01*
X028776Y005969D02*
X029026Y005969D01*
X029026Y005871D02*
X028740Y005871D01*
X028699Y005772D02*
X029026Y005772D01*
X029026Y005674D02*
X028618Y005674D01*
X028513Y005575D02*
X029026Y005575D01*
X029026Y005477D02*
X028511Y005477D01*
X028596Y005378D02*
X029026Y005378D01*
X029026Y005280D02*
X028637Y005280D01*
X028676Y005181D02*
X029026Y005181D01*
X029026Y005083D02*
X028676Y005083D01*
X028676Y004984D02*
X029026Y004984D01*
X029026Y004886D02*
X028646Y004886D01*
X028606Y004787D02*
X029026Y004787D01*
X029026Y004689D02*
X028533Y004689D01*
X028459Y004590D02*
X029026Y004590D01*
X029026Y004492D02*
X028596Y004492D01*
X028690Y004393D02*
X029026Y004393D01*
X029026Y004295D02*
X028731Y004295D01*
X028772Y004196D02*
X029026Y004196D01*
X029026Y004098D02*
X028776Y004098D01*
X028776Y003999D02*
X029026Y003999D01*
X029026Y003901D02*
X028753Y003901D01*
X028712Y003802D02*
X029026Y003802D01*
X029026Y003704D02*
X028648Y003704D01*
X028550Y003605D02*
X029026Y003605D01*
X029026Y003507D02*
X028481Y003507D01*
X028579Y003408D02*
X029026Y003408D01*
X029026Y003310D02*
X028625Y003310D01*
X028665Y003211D02*
X029026Y003211D01*
X029026Y003113D02*
X028676Y003113D01*
X028676Y003014D02*
X029026Y003014D01*
X029026Y002916D02*
X028659Y002916D01*
X028618Y002817D02*
X029026Y002817D01*
X029026Y002719D02*
X028563Y002719D01*
X028465Y002620D02*
X029026Y002620D01*
X029026Y002522D02*
X028284Y002522D01*
X027907Y002522D02*
X026918Y002522D01*
X026902Y002620D02*
X027727Y002620D01*
X027628Y002719D02*
X026872Y002719D01*
X026893Y002678D02*
X026893Y002678D01*
X026822Y002817D02*
X027573Y002817D01*
X027532Y002916D02*
X026772Y002916D01*
X026722Y003014D02*
X027516Y003014D01*
X027516Y003113D02*
X026658Y003113D01*
X026685Y003086D02*
X026685Y003086D01*
X026560Y003211D02*
X027526Y003211D01*
X027566Y003310D02*
X026461Y003310D01*
X026363Y003408D02*
X027612Y003408D01*
X027711Y003507D02*
X026172Y003507D01*
X026933Y002423D02*
X029026Y002423D01*
X029026Y002325D02*
X026949Y002325D01*
X026965Y002226D02*
X029026Y002226D01*
X029026Y002128D02*
X026949Y002128D01*
X026934Y002029D02*
X029026Y002029D01*
X029026Y001931D02*
X026918Y001931D01*
X026903Y001832D02*
X029026Y001832D01*
X029026Y001734D02*
X026873Y001734D01*
X026823Y001635D02*
X029026Y001635D01*
X029026Y001537D02*
X026773Y001537D01*
X026723Y001438D02*
X029026Y001438D01*
X029025Y001340D02*
X026661Y001340D01*
X026685Y001364D02*
X026685Y001364D01*
X026562Y001241D02*
X028997Y001241D01*
X028904Y001143D02*
X026464Y001143D01*
X024536Y001143D02*
X011667Y001143D01*
X011805Y001241D02*
X024437Y001241D01*
X024339Y001340D02*
X011900Y001340D01*
X011940Y001438D02*
X024277Y001438D01*
X024227Y001537D02*
X011981Y001537D01*
X011985Y001635D02*
X024176Y001635D01*
X024126Y001734D02*
X011985Y001734D01*
X011963Y001832D02*
X024097Y001832D01*
X024081Y001931D02*
X011922Y001931D01*
X011858Y002029D02*
X024066Y002029D01*
X024050Y002128D02*
X011760Y002128D01*
X011559Y002226D02*
X024035Y002226D01*
X024051Y002325D02*
X009308Y002325D01*
X009308Y002423D02*
X024066Y002423D01*
X024082Y002522D02*
X009301Y002522D01*
X009308Y002226D02*
X010252Y002226D01*
X010051Y002128D02*
X009308Y002128D01*
X009308Y002029D02*
X009952Y002029D01*
X009889Y001931D02*
X009308Y001931D01*
X009308Y001832D02*
X009848Y001832D01*
X009825Y001734D02*
X009278Y001734D01*
X009825Y001635D02*
X007988Y001635D01*
X008173Y001734D02*
X008388Y001734D01*
X008358Y001832D02*
X008272Y001832D01*
X008321Y001931D02*
X008358Y001931D01*
X008340Y002325D02*
X008358Y002325D01*
X008358Y002423D02*
X008299Y002423D01*
X008365Y002522D02*
X008218Y002522D01*
X008096Y002620D02*
X008470Y002620D01*
X008814Y002029D02*
X008852Y002029D01*
X008852Y001931D02*
X008814Y001931D01*
X008814Y001832D02*
X008852Y001832D01*
X008852Y001734D02*
X008814Y001734D01*
X009829Y001537D02*
X006537Y001537D01*
X006587Y001635D02*
X007678Y001635D01*
X007493Y001734D02*
X006637Y001734D01*
X006666Y001832D02*
X007394Y001832D01*
X007345Y001931D02*
X006682Y001931D01*
X006698Y002029D02*
X007304Y002029D01*
X007298Y002128D02*
X006713Y002128D01*
X006728Y002226D02*
X007298Y002226D01*
X007326Y002325D02*
X006713Y002325D01*
X006697Y002423D02*
X007367Y002423D01*
X007448Y002522D02*
X006682Y002522D01*
X006666Y002620D02*
X007570Y002620D01*
X006657Y002678D02*
X006657Y002678D01*
X006636Y002719D02*
X016356Y002719D01*
X016263Y003408D02*
X006813Y003408D01*
X006624Y002817D02*
X006586Y002817D01*
X005737Y004208D02*
X002116Y004208D01*
X001617Y004707D01*
X001617Y007162D01*
X002281Y007162D01*
X002404Y007285D01*
X002404Y008259D01*
X002281Y008382D01*
X001617Y008382D01*
X001617Y009154D01*
X001672Y009131D01*
X001915Y009131D01*
X002139Y009223D01*
X002311Y009395D01*
X002404Y009619D01*
X002404Y009862D01*
X002311Y010086D01*
X002139Y010258D01*
X001915Y010351D01*
X001672Y010351D01*
X001617Y010328D01*
X001617Y011122D01*
X001672Y011099D01*
X001915Y011099D01*
X002139Y011192D01*
X002311Y011364D01*
X002404Y011588D01*
X002404Y011830D01*
X002311Y012055D01*
X002139Y012226D01*
X001915Y012319D01*
X001672Y012319D01*
X001617Y012296D01*
X001617Y014998D01*
X001834Y015216D01*
X001873Y015200D01*
X002103Y015200D01*
X002317Y015288D01*
X002480Y015451D01*
X002496Y015490D01*
X006672Y015490D01*
X006778Y015534D01*
X006860Y015616D01*
X007746Y016502D01*
X015380Y016502D01*
X015997Y015884D01*
X015997Y010780D01*
X015941Y010724D01*
X015879Y010574D01*
X015879Y010411D01*
X015941Y010261D01*
X015997Y010205D01*
X015997Y007630D01*
X015941Y007574D01*
X015879Y007424D01*
X015879Y007262D01*
X015941Y007112D01*
X016056Y006997D01*
X016206Y006935D01*
X016285Y006935D01*
X017304Y005916D01*
X017411Y005872D01*
X024484Y005872D01*
X024540Y005816D01*
X024690Y005754D01*
X024853Y005754D01*
X025003Y005816D01*
X025059Y005872D01*
X025400Y005872D01*
X025507Y005916D01*
X025588Y005998D01*
X026013Y006423D01*
X026033Y006471D01*
X026033Y005184D01*
X025533Y004683D01*
X013888Y004683D01*
X013888Y012832D01*
X013844Y012939D01*
X013763Y013020D01*
X013269Y013514D01*
X013162Y013558D01*
X011644Y013558D01*
X010113Y015089D01*
X010006Y015133D01*
X006825Y015133D01*
X006794Y015139D01*
X006768Y015133D01*
X006741Y015133D01*
X006712Y015121D01*
X005877Y014940D01*
X005854Y014940D01*
X005822Y014928D01*
X005788Y014920D01*
X005768Y014907D01*
X005746Y014899D01*
X005721Y014874D01*
X005693Y014855D01*
X005680Y014835D01*
X005663Y014819D01*
X005649Y014787D01*
X005630Y014758D01*
X005627Y014739D01*
X005167Y014739D01*
X005060Y014695D01*
X004978Y014613D01*
X004217Y013853D01*
X004136Y013771D01*
X004092Y013664D01*
X004092Y013195D01*
X003625Y013195D01*
X003502Y013072D01*
X003502Y012960D01*
X003387Y012960D01*
X003280Y012916D01*
X003199Y012834D01*
X003199Y012834D01*
X003091Y012727D01*
X003010Y012645D01*
X002966Y012538D01*
X002966Y009608D01*
X003010Y009501D01*
X003033Y009479D01*
X002951Y009397D01*
X002907Y009290D01*
X002907Y006970D01*
X002951Y006864D01*
X003032Y006782D01*
X003347Y006467D01*
X003443Y006427D01*
X003443Y006311D01*
X003566Y006188D01*
X004449Y006188D01*
X004572Y006311D01*
X004572Y007115D01*
X004449Y007238D01*
X003566Y007238D01*
X003487Y007158D01*
X003487Y007370D01*
X003566Y007290D01*
X004449Y007290D01*
X004572Y007413D01*
X004572Y007525D01*
X005128Y007525D01*
X005128Y004923D01*
X005203Y004743D01*
X005737Y004208D01*
X005651Y004295D02*
X002029Y004295D01*
X001931Y004393D02*
X005552Y004393D01*
X005454Y004492D02*
X001832Y004492D01*
X001734Y004590D02*
X005355Y004590D01*
X005257Y004689D02*
X001635Y004689D01*
X001617Y004787D02*
X005184Y004787D01*
X005143Y004886D02*
X001617Y004886D01*
X001617Y004984D02*
X005128Y004984D01*
X005128Y005083D02*
X001617Y005083D01*
X001617Y005181D02*
X005128Y005181D01*
X005128Y005280D02*
X001617Y005280D01*
X001617Y005378D02*
X005128Y005378D01*
X005128Y005477D02*
X001617Y005477D01*
X001617Y005575D02*
X005128Y005575D01*
X005128Y005674D02*
X001617Y005674D01*
X001617Y005772D02*
X005128Y005772D01*
X005128Y005871D02*
X001617Y005871D01*
X001617Y005969D02*
X005128Y005969D01*
X005128Y006068D02*
X001617Y006068D01*
X001617Y006166D02*
X005128Y006166D01*
X005128Y006265D02*
X004526Y006265D01*
X004572Y006363D02*
X005128Y006363D01*
X005128Y006462D02*
X004572Y006462D01*
X004572Y006560D02*
X005128Y006560D01*
X005128Y006659D02*
X004572Y006659D01*
X004572Y006757D02*
X005128Y006757D01*
X005128Y006856D02*
X004572Y006856D01*
X004572Y006954D02*
X005128Y006954D01*
X005128Y007053D02*
X004572Y007053D01*
X004536Y007151D02*
X005128Y007151D01*
X005128Y007250D02*
X003487Y007250D01*
X003487Y007348D02*
X003509Y007348D01*
X002907Y007348D02*
X002404Y007348D01*
X002404Y007447D02*
X002907Y007447D01*
X002907Y007545D02*
X002404Y007545D01*
X002404Y007644D02*
X002907Y007644D01*
X002907Y007742D02*
X002404Y007742D01*
X002404Y007841D02*
X002907Y007841D01*
X002907Y007939D02*
X002404Y007939D01*
X002404Y008038D02*
X002907Y008038D01*
X002907Y008136D02*
X002404Y008136D01*
X002404Y008235D02*
X002907Y008235D01*
X002907Y008333D02*
X002330Y008333D01*
X002907Y008432D02*
X001617Y008432D01*
X001617Y008530D02*
X002907Y008530D01*
X002907Y008629D02*
X001617Y008629D01*
X001617Y008727D02*
X002907Y008727D01*
X002907Y008826D02*
X001617Y008826D01*
X001617Y008924D02*
X002907Y008924D01*
X002907Y009023D02*
X001617Y009023D01*
X001617Y009121D02*
X002907Y009121D01*
X002907Y009220D02*
X002130Y009220D01*
X002234Y009318D02*
X002918Y009318D01*
X002970Y009417D02*
X002320Y009417D01*
X002360Y009515D02*
X003004Y009515D01*
X002966Y009614D02*
X002401Y009614D01*
X002404Y009712D02*
X002966Y009712D01*
X002966Y009811D02*
X002404Y009811D01*
X002384Y009909D02*
X002966Y009909D01*
X002966Y010008D02*
X002343Y010008D01*
X002291Y010106D02*
X002966Y010106D01*
X002966Y010205D02*
X002192Y010205D01*
X002030Y010303D02*
X002966Y010303D01*
X002966Y010402D02*
X001617Y010402D01*
X001617Y010500D02*
X002966Y010500D01*
X002966Y010599D02*
X001617Y010599D01*
X001617Y010697D02*
X002966Y010697D01*
X002966Y010796D02*
X001617Y010796D01*
X001617Y010894D02*
X002966Y010894D01*
X002966Y010993D02*
X001617Y010993D01*
X001617Y011091D02*
X002966Y011091D01*
X002966Y011190D02*
X002133Y011190D01*
X002235Y011288D02*
X002966Y011288D01*
X002966Y011387D02*
X002320Y011387D01*
X002361Y011485D02*
X002966Y011485D01*
X002966Y011584D02*
X002402Y011584D01*
X002404Y011682D02*
X002966Y011682D01*
X002966Y011781D02*
X002404Y011781D01*
X002383Y011879D02*
X002966Y011879D01*
X002966Y011978D02*
X002343Y011978D01*
X002289Y012076D02*
X002966Y012076D01*
X002966Y012175D02*
X002191Y012175D01*
X002026Y012273D02*
X002966Y012273D01*
X002966Y012372D02*
X001617Y012372D01*
X001617Y012470D02*
X002966Y012470D01*
X002978Y012569D02*
X001617Y012569D01*
X001617Y012667D02*
X003032Y012667D01*
X003091Y012727D02*
X003091Y012727D01*
X003130Y012766D02*
X001617Y012766D01*
X001617Y012864D02*
X003229Y012864D01*
X003502Y012963D02*
X001617Y012963D01*
X001617Y013061D02*
X003502Y013061D01*
X003590Y013160D02*
X001617Y013160D01*
X001617Y013258D02*
X004092Y013258D01*
X004092Y013357D02*
X001617Y013357D01*
X001617Y013455D02*
X004092Y013455D01*
X004092Y013554D02*
X001617Y013554D01*
X001617Y013652D02*
X004092Y013652D01*
X004127Y013751D02*
X001617Y013751D01*
X001617Y013849D02*
X004214Y013849D01*
X004312Y013948D02*
X001617Y013948D01*
X001617Y014046D02*
X004411Y014046D01*
X004411Y014145D02*
X004509Y014145D01*
X004536Y014196D02*
X004686Y014347D01*
X004768Y014544D01*
X004768Y014756D01*
X004686Y014953D01*
X004536Y015104D01*
X004339Y015185D01*
X004126Y015185D01*
X003930Y015104D01*
X003779Y014953D01*
X003708Y014781D01*
X003708Y014995D01*
X003698Y015033D01*
X003678Y015067D01*
X003650Y015095D01*
X003616Y015115D01*
X003578Y015125D01*
X003252Y015125D01*
X003252Y014669D01*
X003214Y014669D01*
X003214Y015125D01*
X002888Y015125D01*
X002850Y015115D01*
X002816Y015095D01*
X002788Y015067D01*
X002768Y015033D01*
X002758Y014995D01*
X002758Y014669D01*
X003214Y014669D01*
X003214Y014631D01*
X003252Y014631D01*
X003252Y014175D01*
X003578Y014175D01*
X003616Y014185D01*
X003650Y014205D01*
X003678Y014233D01*
X003698Y014267D01*
X003708Y014305D01*
X003708Y014519D01*
X003779Y014347D01*
X003930Y014196D01*
X004126Y014115D01*
X004339Y014115D01*
X004536Y014196D01*
X004583Y014243D02*
X004608Y014243D01*
X004681Y014342D02*
X004706Y014342D01*
X004725Y014440D02*
X004805Y014440D01*
X004766Y014539D02*
X004903Y014539D01*
X005002Y014637D02*
X004768Y014637D01*
X004768Y014736D02*
X005158Y014736D01*
X004736Y014834D02*
X005679Y014834D01*
X005834Y014933D02*
X004695Y014933D01*
X004608Y015031D02*
X006298Y015031D01*
X006733Y015130D02*
X004473Y015130D01*
X003993Y015130D02*
X001748Y015130D01*
X001649Y015031D02*
X002768Y015031D01*
X002758Y014933D02*
X001617Y014933D01*
X001617Y014834D02*
X002758Y014834D01*
X002758Y014736D02*
X001617Y014736D01*
X001617Y014637D02*
X003214Y014637D01*
X003214Y014631D02*
X002758Y014631D01*
X002758Y014305D01*
X002768Y014267D01*
X002788Y014233D01*
X002816Y014205D01*
X002850Y014185D01*
X002888Y014175D01*
X003214Y014175D01*
X003214Y014631D01*
X003214Y014539D02*
X003252Y014539D01*
X003252Y014440D02*
X003214Y014440D01*
X003214Y014342D02*
X003252Y014342D01*
X003252Y014243D02*
X003214Y014243D01*
X002782Y014243D02*
X001617Y014243D01*
X001617Y014145D02*
X004055Y014145D01*
X003883Y014243D02*
X003684Y014243D01*
X003708Y014342D02*
X003785Y014342D01*
X003741Y014440D02*
X003708Y014440D01*
X003708Y014834D02*
X003730Y014834D01*
X003708Y014933D02*
X003771Y014933D01*
X003698Y015031D02*
X003857Y015031D01*
X003252Y015031D02*
X003214Y015031D01*
X003214Y014933D02*
X003252Y014933D01*
X003252Y014834D02*
X003214Y014834D01*
X003214Y014736D02*
X003252Y014736D01*
X002758Y014539D02*
X001617Y014539D01*
X001617Y014440D02*
X002758Y014440D01*
X002758Y014342D02*
X001617Y014342D01*
X002171Y015228D02*
X013596Y015228D01*
X013589Y015245D02*
X013697Y014984D01*
X013897Y014784D01*
X013953Y014761D01*
X013897Y014738D01*
X013697Y014538D01*
X013589Y014277D01*
X013589Y013995D01*
X013697Y013734D01*
X013897Y013534D01*
X014158Y013426D01*
X014440Y013426D01*
X014701Y013534D01*
X014901Y013734D01*
X015009Y013995D01*
X015009Y014277D01*
X014901Y014538D01*
X014701Y014738D01*
X014645Y014761D01*
X014701Y014784D01*
X014901Y014984D01*
X015009Y015245D01*
X015009Y015527D01*
X014901Y015788D01*
X014701Y015988D01*
X014440Y016096D01*
X014158Y016096D01*
X013897Y015988D01*
X013697Y015788D01*
X013589Y015527D01*
X013589Y015245D01*
X013589Y015327D02*
X010470Y015327D01*
X010536Y015354D02*
X010686Y015504D01*
X010768Y015701D01*
X010768Y015914D01*
X010686Y016111D01*
X010536Y016261D01*
X010339Y016342D01*
X010126Y016342D01*
X009930Y016261D01*
X009779Y016111D01*
X009698Y015914D01*
X009698Y015701D01*
X009779Y015504D01*
X009930Y015354D01*
X010126Y015272D01*
X010339Y015272D01*
X010536Y015354D01*
X010607Y015425D02*
X013589Y015425D01*
X013589Y015524D02*
X010694Y015524D01*
X010735Y015622D02*
X013628Y015622D01*
X013669Y015721D02*
X010768Y015721D01*
X010768Y015819D02*
X013728Y015819D01*
X013826Y015918D02*
X010766Y015918D01*
X010726Y016016D02*
X013964Y016016D01*
X014634Y016016D02*
X015865Y016016D01*
X015767Y016115D02*
X010682Y016115D01*
X010584Y016213D02*
X015668Y016213D01*
X015570Y016312D02*
X010414Y016312D01*
X010052Y016312D02*
X007556Y016312D01*
X007654Y016410D02*
X015471Y016410D01*
X015898Y016804D02*
X024183Y016804D01*
X024233Y016706D02*
X015996Y016706D01*
X016095Y016607D02*
X024283Y016607D01*
X024315Y016545D02*
X024315Y016545D01*
X024351Y016509D02*
X016193Y016509D01*
X016292Y016410D02*
X024449Y016410D01*
X024548Y016312D02*
X016390Y016312D01*
X016489Y016213D02*
X022453Y016213D01*
X022430Y016204D02*
X022279Y016053D01*
X022198Y015856D01*
X022198Y015644D01*
X022279Y015447D01*
X022430Y015296D01*
X022602Y015225D01*
X022388Y015225D01*
X022350Y015215D01*
X022316Y015195D01*
X022288Y015167D01*
X022268Y015133D01*
X022258Y015095D01*
X022258Y014769D01*
X022714Y014769D01*
X022714Y014731D01*
X022752Y014731D01*
X022752Y014769D01*
X023208Y014769D01*
X023208Y015095D01*
X023198Y015133D01*
X023178Y015167D01*
X023150Y015195D01*
X023116Y015215D01*
X023078Y015225D01*
X022863Y015225D01*
X023036Y015296D01*
X023186Y015447D01*
X023268Y015644D01*
X023268Y015856D01*
X023186Y016053D01*
X023036Y016204D01*
X022839Y016285D01*
X022626Y016285D01*
X022430Y016204D01*
X022341Y016115D02*
X016555Y016115D01*
X016577Y016016D02*
X022264Y016016D01*
X022223Y015918D02*
X016577Y015918D01*
X016577Y015819D02*
X022198Y015819D01*
X022198Y015721D02*
X016577Y015721D01*
X016577Y015622D02*
X022207Y015622D01*
X022248Y015524D02*
X016577Y015524D01*
X016577Y015425D02*
X022301Y015425D01*
X022400Y015327D02*
X016577Y015327D01*
X016577Y015228D02*
X022595Y015228D01*
X022871Y015228D02*
X025364Y015228D01*
X025358Y015221D02*
X025358Y015082D01*
X025738Y015082D01*
X025738Y015462D01*
X025598Y015462D01*
X025358Y015221D01*
X025358Y015130D02*
X023199Y015130D01*
X023208Y015031D02*
X025738Y015031D01*
X025738Y015022D02*
X025358Y015022D01*
X025358Y014882D01*
X025598Y014642D01*
X025738Y014642D01*
X025738Y015022D01*
X025738Y015082D01*
X025798Y015082D01*
X025798Y015462D01*
X025937Y015462D01*
X026178Y015221D01*
X026178Y015082D01*
X025798Y015082D01*
X025798Y015022D01*
X026178Y015022D01*
X026178Y014882D01*
X025937Y014642D01*
X025798Y014642D01*
X025798Y015022D01*
X025738Y015022D01*
X025798Y015031D02*
X029026Y015031D01*
X029026Y014933D02*
X026178Y014933D01*
X026130Y014834D02*
X029026Y014834D01*
X029026Y014736D02*
X026031Y014736D01*
X025798Y014736D02*
X025738Y014736D01*
X025738Y014834D02*
X025798Y014834D01*
X025798Y014933D02*
X025738Y014933D01*
X025738Y015130D02*
X025798Y015130D01*
X025798Y015228D02*
X025738Y015228D01*
X025738Y015327D02*
X025798Y015327D01*
X025798Y015425D02*
X025738Y015425D01*
X025561Y015425D02*
X023165Y015425D01*
X023218Y015524D02*
X027785Y015524D01*
X027780Y015531D02*
X027828Y015465D01*
X027885Y015407D01*
X027952Y015359D01*
X028025Y015322D01*
X028102Y015296D01*
X028174Y015285D01*
X028174Y015754D01*
X027706Y015754D01*
X027717Y015682D01*
X027742Y015604D01*
X027780Y015531D01*
X027736Y015622D02*
X023259Y015622D01*
X023268Y015721D02*
X027711Y015721D01*
X027706Y015854D02*
X028174Y015854D01*
X028174Y016754D01*
X027706Y016754D01*
X027717Y016682D01*
X027742Y016604D01*
X027780Y016531D01*
X027828Y016465D01*
X027885Y016407D01*
X027952Y016359D01*
X028025Y016322D01*
X028080Y016304D01*
X028025Y016285D01*
X027952Y016248D01*
X027885Y016200D01*
X027828Y016142D01*
X027780Y016076D01*
X027742Y016003D01*
X027717Y015925D01*
X027706Y015854D01*
X027716Y015918D02*
X023243Y015918D01*
X023268Y015819D02*
X028174Y015819D01*
X028174Y015854D02*
X028174Y015754D01*
X028274Y015754D01*
X028274Y015854D01*
X028174Y015854D01*
X028174Y015918D02*
X028274Y015918D01*
X028274Y015854D02*
X028274Y016285D01*
X028274Y016754D01*
X028274Y016854D01*
X028743Y016854D01*
X028731Y016925D01*
X028706Y017003D01*
X028669Y017076D01*
X028621Y017142D01*
X028563Y017200D01*
X028497Y017248D01*
X028453Y017271D01*
X028553Y017312D01*
X028716Y017475D01*
X028804Y017688D01*
X028804Y017919D01*
X028716Y018132D01*
X028553Y018295D01*
X028340Y018384D01*
X028109Y018384D01*
X027896Y018295D01*
X027733Y018132D01*
X027644Y017919D01*
X027644Y017688D01*
X027733Y017475D01*
X027896Y017312D01*
X027995Y017271D01*
X027952Y017248D01*
X027885Y017200D01*
X027828Y017142D01*
X027780Y017076D01*
X027742Y017003D01*
X027717Y016925D01*
X027706Y016854D01*
X028174Y016854D01*
X028174Y016754D01*
X028274Y016754D01*
X028743Y016754D01*
X028731Y016682D01*
X028706Y016604D01*
X028669Y016531D01*
X028621Y016465D01*
X028563Y016407D01*
X028497Y016359D01*
X028424Y016322D01*
X028368Y016304D01*
X028424Y016285D01*
X028497Y016248D01*
X028563Y016200D01*
X028621Y016142D01*
X028669Y016076D01*
X028706Y016003D01*
X028731Y015925D01*
X028743Y015854D01*
X028274Y015854D01*
X028274Y015819D02*
X029026Y015819D01*
X029026Y015721D02*
X028738Y015721D01*
X028743Y015754D02*
X028274Y015754D01*
X028274Y015285D01*
X028346Y015296D01*
X028424Y015322D01*
X028497Y015359D01*
X028563Y015407D01*
X028621Y015465D01*
X028669Y015531D01*
X028706Y015604D01*
X028731Y015682D01*
X028743Y015754D01*
X028712Y015622D02*
X029026Y015622D01*
X029026Y015524D02*
X028664Y015524D01*
X028581Y015425D02*
X029026Y015425D01*
X029026Y015327D02*
X028433Y015327D01*
X028274Y015327D02*
X028174Y015327D01*
X028174Y015425D02*
X028274Y015425D01*
X028274Y015524D02*
X028174Y015524D01*
X028174Y015622D02*
X028274Y015622D01*
X028274Y015721D02*
X028174Y015721D01*
X028174Y016016D02*
X028274Y016016D01*
X028274Y016115D02*
X028174Y016115D01*
X028174Y016213D02*
X028274Y016213D01*
X028274Y016312D02*
X028174Y016312D01*
X028174Y016410D02*
X028274Y016410D01*
X028274Y016509D02*
X028174Y016509D01*
X028174Y016607D02*
X028274Y016607D01*
X028274Y016706D02*
X028174Y016706D01*
X028174Y016804D02*
X026817Y016804D01*
X026767Y016706D02*
X027713Y016706D01*
X027741Y016607D02*
X026717Y016607D01*
X026685Y016545D02*
X026685Y016545D01*
X026649Y016509D02*
X027796Y016509D01*
X027882Y016410D02*
X026550Y016410D01*
X026452Y016312D02*
X028056Y016312D01*
X027903Y016213D02*
X026346Y016213D01*
X026361Y016221D02*
X026361Y016221D01*
X026153Y016115D02*
X027807Y016115D01*
X027749Y016016D02*
X025959Y016016D01*
X025953Y016013D02*
X025953Y016013D01*
X025500Y015941D02*
X025500Y015941D01*
X025047Y016013D02*
X025047Y016013D01*
X025040Y016016D02*
X023202Y016016D01*
X023125Y016115D02*
X024847Y016115D01*
X024654Y016213D02*
X023013Y016213D01*
X024132Y016903D02*
X015799Y016903D01*
X015701Y017001D02*
X024099Y017001D01*
X024107Y016953D02*
X024107Y016953D01*
X024083Y017100D02*
X006684Y017100D01*
X006699Y017198D02*
X013690Y017198D01*
X013592Y017297D02*
X006715Y017297D01*
X006727Y017395D02*
X013589Y017395D01*
X013589Y017494D02*
X006711Y017494D01*
X006695Y017592D02*
X013589Y017592D01*
X013589Y017691D02*
X006680Y017691D01*
X006664Y017789D02*
X013589Y017789D01*
X013589Y017888D02*
X006630Y017888D01*
X006657Y017835D02*
X006657Y017835D01*
X006580Y017986D02*
X013589Y017986D01*
X013589Y018085D02*
X006530Y018085D01*
X006480Y018183D02*
X013589Y018183D01*
X013589Y018282D02*
X006411Y018282D01*
X006449Y018243D02*
X006449Y018243D01*
X006312Y018380D02*
X013589Y018380D01*
X013594Y018479D02*
X006214Y018479D01*
X006668Y017001D02*
X007425Y017001D01*
X007327Y016903D02*
X006643Y016903D01*
X006657Y016930D02*
X006657Y016930D01*
X006593Y016804D02*
X007228Y016804D01*
X007130Y016706D02*
X006543Y016706D01*
X006493Y016607D02*
X007031Y016607D01*
X006933Y016509D02*
X006436Y016509D01*
X006338Y016410D02*
X006834Y016410D01*
X006736Y016312D02*
X006239Y016312D01*
X006141Y016213D02*
X006637Y016213D01*
X006539Y016115D02*
X005963Y016115D01*
X006125Y016197D02*
X006125Y016197D01*
X006753Y015524D02*
X009771Y015524D01*
X009731Y015622D02*
X006866Y015622D01*
X006860Y015616D02*
X006860Y015616D01*
X006965Y015721D02*
X009698Y015721D01*
X009698Y015819D02*
X007063Y015819D01*
X007162Y015918D02*
X009699Y015918D01*
X009740Y016016D02*
X007260Y016016D01*
X007359Y016115D02*
X009783Y016115D01*
X009882Y016213D02*
X007457Y016213D01*
X009859Y015425D02*
X002453Y015425D01*
X002355Y015327D02*
X009996Y015327D01*
X010014Y015130D02*
X013637Y015130D01*
X013678Y015031D02*
X010171Y015031D01*
X010269Y014933D02*
X013749Y014933D01*
X013847Y014834D02*
X010368Y014834D01*
X010466Y014736D02*
X013894Y014736D01*
X013796Y014637D02*
X010565Y014637D01*
X010663Y014539D02*
X013697Y014539D01*
X013656Y014440D02*
X010762Y014440D01*
X010860Y014342D02*
X013616Y014342D01*
X013589Y014243D02*
X010959Y014243D01*
X011057Y014145D02*
X013589Y014145D01*
X013589Y014046D02*
X011156Y014046D01*
X011254Y013948D02*
X013609Y013948D01*
X013650Y013849D02*
X011353Y013849D01*
X011451Y013751D02*
X013690Y013751D01*
X013779Y013652D02*
X011550Y013652D01*
X013173Y013554D02*
X013878Y013554D01*
X014088Y013455D02*
X013328Y013455D01*
X013426Y013357D02*
X015997Y013357D01*
X015997Y013455D02*
X014510Y013455D01*
X014720Y013554D02*
X015997Y013554D01*
X015997Y013652D02*
X014819Y013652D01*
X014908Y013751D02*
X015997Y013751D01*
X015997Y013849D02*
X014949Y013849D01*
X014989Y013948D02*
X015997Y013948D01*
X015997Y014046D02*
X015009Y014046D01*
X015009Y014145D02*
X015997Y014145D01*
X015997Y014243D02*
X015009Y014243D01*
X014983Y014342D02*
X015997Y014342D01*
X015997Y014440D02*
X014942Y014440D01*
X014901Y014539D02*
X015997Y014539D01*
X015997Y014637D02*
X014802Y014637D01*
X014704Y014736D02*
X015997Y014736D01*
X015997Y014834D02*
X014751Y014834D01*
X014849Y014933D02*
X015997Y014933D01*
X015997Y015031D02*
X014920Y015031D01*
X014961Y015130D02*
X015997Y015130D01*
X015997Y015228D02*
X015002Y015228D01*
X015009Y015327D02*
X015997Y015327D01*
X015997Y015425D02*
X015009Y015425D01*
X015009Y015524D02*
X015997Y015524D01*
X015997Y015622D02*
X014970Y015622D01*
X014929Y015721D02*
X015997Y015721D01*
X015997Y015819D02*
X014870Y015819D01*
X014772Y015918D02*
X015964Y015918D01*
X016577Y015130D02*
X022267Y015130D01*
X022258Y015031D02*
X016577Y015031D01*
X016577Y014933D02*
X022258Y014933D01*
X022258Y014834D02*
X020720Y014834D01*
X020690Y014846D02*
X020408Y014846D01*
X020147Y014738D01*
X019947Y014538D01*
X019839Y014277D01*
X019839Y013995D01*
X019947Y013734D01*
X020147Y013534D01*
X020408Y013426D01*
X020690Y013426D01*
X020951Y013534D01*
X021151Y013734D01*
X021259Y013995D01*
X021259Y014277D01*
X021151Y014538D01*
X020951Y014738D01*
X020690Y014846D01*
X020954Y014736D02*
X022714Y014736D01*
X022714Y014731D02*
X022258Y014731D01*
X022258Y014405D01*
X022268Y014367D01*
X022288Y014333D01*
X022316Y014305D01*
X022350Y014285D01*
X022388Y014275D01*
X022714Y014275D01*
X022714Y014731D01*
X022752Y014731D02*
X022752Y014275D01*
X023078Y014275D01*
X023116Y014285D01*
X023150Y014305D01*
X023178Y014333D01*
X023198Y014367D01*
X023208Y014405D01*
X023208Y014731D01*
X022752Y014731D01*
X022752Y014736D02*
X024548Y014736D01*
X024548Y014637D02*
X023208Y014637D01*
X023208Y014539D02*
X024548Y014539D01*
X024548Y014440D02*
X023208Y014440D01*
X023183Y014342D02*
X024563Y014342D01*
X024661Y014243D02*
X021259Y014243D01*
X021259Y014145D02*
X024760Y014145D01*
X025275Y014145D02*
X025298Y014145D01*
X025298Y014046D02*
X021259Y014046D01*
X021239Y013948D02*
X025298Y013948D01*
X025305Y013849D02*
X021199Y013849D01*
X021158Y013751D02*
X025404Y013751D01*
X025478Y013652D02*
X021069Y013652D01*
X020970Y013554D02*
X025478Y013554D01*
X025478Y013455D02*
X020760Y013455D01*
X020338Y013455D02*
X016577Y013455D01*
X016577Y013357D02*
X025478Y013357D01*
X025478Y013258D02*
X016577Y013258D01*
X016577Y013160D02*
X025478Y013160D01*
X025478Y013061D02*
X016577Y013061D01*
X016577Y012963D02*
X025478Y012963D01*
X025478Y012864D02*
X016577Y012864D01*
X016577Y012766D02*
X025478Y012766D01*
X025478Y012667D02*
X016577Y012667D01*
X016577Y012569D02*
X025478Y012569D01*
X025478Y012470D02*
X016577Y012470D01*
X016577Y012372D02*
X025478Y012372D01*
X025478Y012273D02*
X016577Y012273D01*
X016577Y012175D02*
X025478Y012175D01*
X025478Y012076D02*
X016577Y012076D01*
X016577Y011978D02*
X025478Y011978D01*
X025478Y011879D02*
X016577Y011879D01*
X016577Y011781D02*
X025478Y011781D01*
X025478Y011682D02*
X016577Y011682D01*
X016577Y011584D02*
X025478Y011584D01*
X025478Y011485D02*
X016577Y011485D01*
X016577Y011387D02*
X025478Y011387D01*
X025478Y011288D02*
X016577Y011288D01*
X016577Y011190D02*
X025478Y011190D01*
X025478Y011091D02*
X016577Y011091D01*
X016577Y010993D02*
X025478Y010993D01*
X025478Y010894D02*
X016577Y010894D01*
X016577Y010796D02*
X025478Y010796D01*
X025478Y010697D02*
X016644Y010697D01*
X016685Y010599D02*
X025478Y010599D01*
X025478Y010500D02*
X016695Y010500D01*
X016691Y010402D02*
X025478Y010402D01*
X025478Y010303D02*
X016650Y010303D01*
X016577Y010205D02*
X025478Y010205D01*
X025478Y010106D02*
X016577Y010106D01*
X016577Y010008D02*
X025478Y010008D01*
X025478Y009909D02*
X016577Y009909D01*
X016577Y009811D02*
X025478Y009811D01*
X025478Y009712D02*
X016577Y009712D01*
X016577Y009614D02*
X025478Y009614D01*
X025478Y009515D02*
X016577Y009515D01*
X016577Y009417D02*
X025478Y009417D01*
X025478Y009318D02*
X016577Y009318D01*
X016577Y009220D02*
X025478Y009220D01*
X025478Y009121D02*
X016577Y009121D01*
X016577Y009023D02*
X025478Y009023D01*
X025478Y008924D02*
X016577Y008924D01*
X016577Y008826D02*
X025478Y008826D01*
X025478Y008727D02*
X016577Y008727D01*
X016577Y008629D02*
X025478Y008629D01*
X025478Y008530D02*
X016577Y008530D01*
X016577Y008432D02*
X025478Y008432D01*
X025478Y008333D02*
X016577Y008333D01*
X016577Y008235D02*
X025478Y008235D01*
X025478Y008136D02*
X016577Y008136D01*
X016577Y008038D02*
X025478Y008038D01*
X025478Y007939D02*
X016577Y007939D01*
X016577Y007841D02*
X024712Y007841D01*
X024619Y007742D02*
X016577Y007742D01*
X016577Y007644D02*
X024578Y007644D01*
X024560Y007545D02*
X016645Y007545D01*
X016686Y007447D02*
X024560Y007447D01*
X024598Y007348D02*
X016695Y007348D01*
X016791Y007250D02*
X024662Y007250D01*
X024793Y007151D02*
X016889Y007151D01*
X016988Y007053D02*
X025478Y007053D01*
X025478Y007151D02*
X025144Y007151D01*
X025478Y006954D02*
X017086Y006954D01*
X017185Y006856D02*
X025478Y006856D01*
X025478Y006757D02*
X017283Y006757D01*
X017382Y006659D02*
X025429Y006659D01*
X025330Y006560D02*
X024877Y006560D01*
X025049Y006462D02*
X025232Y006462D01*
X024666Y006560D02*
X017480Y006560D01*
X017579Y006462D02*
X024494Y006462D01*
X024486Y005871D02*
X013888Y005871D01*
X013888Y005969D02*
X017251Y005969D01*
X017153Y006068D02*
X013888Y006068D01*
X013888Y006166D02*
X017054Y006166D01*
X016956Y006265D02*
X013888Y006265D01*
X013888Y006363D02*
X016857Y006363D01*
X016759Y006462D02*
X013888Y006462D01*
X013888Y006560D02*
X016660Y006560D01*
X016562Y006659D02*
X013888Y006659D01*
X013888Y006757D02*
X016463Y006757D01*
X016365Y006856D02*
X013888Y006856D01*
X013888Y006954D02*
X016160Y006954D01*
X016000Y007053D02*
X013888Y007053D01*
X013888Y007151D02*
X015925Y007151D01*
X015884Y007250D02*
X013888Y007250D01*
X013888Y007348D02*
X015879Y007348D01*
X015888Y007447D02*
X013888Y007447D01*
X013888Y007545D02*
X015929Y007545D01*
X015997Y007644D02*
X013888Y007644D01*
X013888Y007742D02*
X015997Y007742D01*
X015997Y007841D02*
X013888Y007841D01*
X013888Y007939D02*
X015997Y007939D01*
X015997Y008038D02*
X013888Y008038D01*
X013888Y008136D02*
X015997Y008136D01*
X015997Y008235D02*
X013888Y008235D01*
X013888Y008333D02*
X015997Y008333D01*
X015997Y008432D02*
X013888Y008432D01*
X013888Y008530D02*
X015997Y008530D01*
X015997Y008629D02*
X013888Y008629D01*
X013888Y008727D02*
X015997Y008727D01*
X015997Y008826D02*
X013888Y008826D01*
X013888Y008924D02*
X015997Y008924D01*
X015997Y009023D02*
X013888Y009023D01*
X013888Y009121D02*
X015997Y009121D01*
X015997Y009220D02*
X013888Y009220D01*
X013888Y009318D02*
X015997Y009318D01*
X015997Y009417D02*
X013888Y009417D01*
X013888Y009515D02*
X015997Y009515D01*
X015997Y009614D02*
X013888Y009614D01*
X013888Y009712D02*
X015997Y009712D01*
X015997Y009811D02*
X013888Y009811D01*
X013888Y009909D02*
X015997Y009909D01*
X015997Y010008D02*
X013888Y010008D01*
X013888Y010106D02*
X015997Y010106D01*
X015997Y010205D02*
X013888Y010205D01*
X013888Y010303D02*
X015924Y010303D01*
X015883Y010402D02*
X013888Y010402D01*
X013888Y010500D02*
X015879Y010500D01*
X015889Y010599D02*
X013888Y010599D01*
X013888Y010697D02*
X015930Y010697D01*
X015997Y010796D02*
X013888Y010796D01*
X013888Y010894D02*
X015997Y010894D01*
X015997Y010993D02*
X013888Y010993D01*
X013888Y011091D02*
X015997Y011091D01*
X015997Y011190D02*
X013888Y011190D01*
X013888Y011288D02*
X015997Y011288D01*
X015997Y011387D02*
X013888Y011387D01*
X013888Y011485D02*
X015997Y011485D01*
X015997Y011584D02*
X013888Y011584D01*
X013888Y011682D02*
X015997Y011682D01*
X015997Y011781D02*
X013888Y011781D01*
X013888Y011879D02*
X015997Y011879D01*
X015997Y011978D02*
X013888Y011978D01*
X013888Y012076D02*
X015997Y012076D01*
X015997Y012175D02*
X013888Y012175D01*
X013888Y012273D02*
X015997Y012273D01*
X015997Y012372D02*
X013888Y012372D01*
X013888Y012470D02*
X015997Y012470D01*
X015997Y012569D02*
X013888Y012569D01*
X013888Y012667D02*
X015997Y012667D01*
X015997Y012766D02*
X013888Y012766D01*
X013875Y012864D02*
X015997Y012864D01*
X015997Y012963D02*
X013820Y012963D01*
X013722Y013061D02*
X015997Y013061D01*
X015997Y013160D02*
X013623Y013160D01*
X013525Y013258D02*
X015997Y013258D01*
X016577Y013554D02*
X020128Y013554D01*
X020029Y013652D02*
X016577Y013652D01*
X016577Y013751D02*
X019940Y013751D01*
X019900Y013849D02*
X016577Y013849D01*
X016577Y013948D02*
X019859Y013948D01*
X019839Y014046D02*
X016577Y014046D01*
X016577Y014145D02*
X019839Y014145D01*
X019839Y014243D02*
X016577Y014243D01*
X016577Y014342D02*
X019866Y014342D01*
X019906Y014440D02*
X016577Y014440D01*
X016577Y014539D02*
X019947Y014539D01*
X020046Y014637D02*
X016577Y014637D01*
X016577Y014736D02*
X020144Y014736D01*
X020378Y014834D02*
X016577Y014834D01*
X014908Y017198D02*
X024068Y017198D01*
X024052Y017297D02*
X020824Y017297D01*
X020977Y017395D02*
X024037Y017395D01*
X024035Y017406D02*
X024035Y017406D01*
X024049Y017494D02*
X021067Y017494D01*
X021130Y017592D02*
X024064Y017592D01*
X024080Y017691D02*
X021170Y017691D01*
X021192Y017789D02*
X024096Y017789D01*
X024121Y017888D02*
X020599Y017888D01*
X020599Y017789D02*
X020499Y017789D01*
X020499Y017836D02*
X020499Y017237D01*
X020422Y017247D01*
X020340Y017269D01*
X020261Y017302D01*
X020187Y017345D01*
X020120Y017396D01*
X020059Y017457D01*
X020007Y017524D01*
X019965Y017598D01*
X019932Y017677D01*
X019910Y017759D01*
X019900Y017836D01*
X020499Y017836D01*
X020499Y017888D02*
X015009Y017888D01*
X015009Y017986D02*
X019907Y017986D01*
X019929Y018085D02*
X015009Y018085D01*
X015009Y018183D02*
X019970Y018183D01*
X020033Y018282D02*
X015009Y018282D01*
X015009Y018380D02*
X020125Y018380D01*
X020281Y018479D02*
X015004Y018479D01*
X015009Y017789D02*
X019906Y017789D01*
X019929Y017691D02*
X015009Y017691D01*
X015009Y017592D02*
X019968Y017592D01*
X020031Y017494D02*
X015009Y017494D01*
X015009Y017395D02*
X020121Y017395D01*
X020274Y017297D02*
X015006Y017297D01*
X020499Y017297D02*
X020599Y017297D01*
X020599Y017395D02*
X020499Y017395D01*
X020499Y017494D02*
X020599Y017494D01*
X020599Y017592D02*
X020499Y017592D01*
X020499Y017691D02*
X020599Y017691D01*
X021192Y017986D02*
X024171Y017986D01*
X024222Y018085D02*
X021169Y018085D01*
X021128Y018183D02*
X024272Y018183D01*
X024315Y018267D02*
X024315Y018267D01*
X024329Y018282D02*
X021065Y018282D01*
X020973Y018380D02*
X024428Y018380D01*
X024526Y018479D02*
X020818Y018479D01*
X024639Y016221D02*
X024639Y016221D01*
X025463Y015327D02*
X023066Y015327D01*
X023208Y014933D02*
X024734Y014933D01*
X024635Y014834D02*
X023208Y014834D01*
X022752Y014637D02*
X022714Y014637D01*
X022714Y014539D02*
X022752Y014539D01*
X022752Y014440D02*
X022714Y014440D01*
X022714Y014342D02*
X022752Y014342D01*
X022283Y014342D02*
X021233Y014342D01*
X021192Y014440D02*
X022258Y014440D01*
X022258Y014539D02*
X021151Y014539D01*
X021052Y014637D02*
X022258Y014637D01*
X025301Y014933D02*
X025358Y014933D01*
X025400Y014834D02*
X025405Y014834D01*
X025488Y014736D02*
X025504Y014736D01*
X025488Y014637D02*
X029026Y014637D01*
X029026Y014539D02*
X025488Y014539D01*
X025488Y014440D02*
X025491Y014440D01*
X026044Y014440D02*
X029026Y014440D01*
X029026Y014342D02*
X026142Y014342D01*
X026238Y014243D02*
X029026Y014243D01*
X029026Y014145D02*
X026238Y014145D01*
X026238Y014046D02*
X029026Y014046D01*
X029026Y013948D02*
X026238Y013948D01*
X026230Y013849D02*
X029026Y013849D01*
X029026Y013751D02*
X026131Y013751D01*
X026058Y013652D02*
X029026Y013652D01*
X029026Y013554D02*
X026058Y013554D01*
X026058Y013455D02*
X029026Y013455D01*
X029026Y013357D02*
X026058Y013357D01*
X026058Y013258D02*
X029026Y013258D01*
X029026Y013160D02*
X026058Y013160D01*
X026058Y013061D02*
X029026Y013061D01*
X029026Y012963D02*
X028442Y012963D01*
X028389Y012984D02*
X028146Y012984D01*
X027922Y012892D01*
X027750Y012720D01*
X027658Y012496D01*
X027658Y012253D01*
X027750Y012029D01*
X027922Y011857D01*
X028146Y011764D01*
X028389Y011764D01*
X028613Y011857D01*
X028785Y012029D01*
X028878Y012253D01*
X028878Y012496D01*
X028785Y012720D01*
X028613Y012892D01*
X028389Y012984D01*
X028641Y012864D02*
X029026Y012864D01*
X029026Y012766D02*
X028739Y012766D01*
X028807Y012667D02*
X029026Y012667D01*
X029026Y012569D02*
X028847Y012569D01*
X028878Y012470D02*
X029026Y012470D01*
X029026Y012372D02*
X028878Y012372D01*
X028878Y012273D02*
X029026Y012273D01*
X029026Y012175D02*
X028845Y012175D01*
X028804Y012076D02*
X029026Y012076D01*
X029026Y011978D02*
X028733Y011978D01*
X028635Y011879D02*
X029026Y011879D01*
X029026Y011781D02*
X028428Y011781D01*
X028107Y011781D02*
X026058Y011781D01*
X026058Y011879D02*
X027900Y011879D01*
X027802Y011978D02*
X026058Y011978D01*
X026058Y012076D02*
X027731Y012076D01*
X027690Y012175D02*
X026058Y012175D01*
X026058Y012273D02*
X027658Y012273D01*
X027658Y012372D02*
X026058Y012372D01*
X026058Y012470D02*
X027658Y012470D01*
X027688Y012569D02*
X026058Y012569D01*
X026058Y012667D02*
X027729Y012667D01*
X027796Y012766D02*
X026058Y012766D01*
X026058Y012864D02*
X027895Y012864D01*
X028093Y012963D02*
X026058Y012963D01*
X026058Y011682D02*
X029026Y011682D01*
X029026Y011584D02*
X028777Y011584D01*
X028876Y011485D02*
X029026Y011485D01*
X029026Y011387D02*
X028878Y011387D01*
X028878Y011288D02*
X029026Y011288D01*
X029026Y011190D02*
X028878Y011190D01*
X028878Y011091D02*
X029026Y011091D01*
X029026Y010993D02*
X028878Y010993D01*
X028878Y010894D02*
X029026Y010894D01*
X029026Y010796D02*
X028878Y010796D01*
X028878Y010697D02*
X029026Y010697D01*
X029026Y010599D02*
X028878Y010599D01*
X028868Y010500D02*
X029026Y010500D01*
X029026Y010402D02*
X028770Y010402D01*
X029026Y010303D02*
X028267Y010303D01*
X028169Y010205D02*
X029026Y010205D01*
X029026Y010106D02*
X028070Y010106D01*
X027972Y010008D02*
X029026Y010008D01*
X029026Y009909D02*
X027873Y009909D01*
X027775Y009811D02*
X029026Y009811D01*
X029026Y009712D02*
X027676Y009712D01*
X027578Y009614D02*
X029026Y009614D01*
X029026Y009515D02*
X027479Y009515D01*
X027381Y009417D02*
X029026Y009417D01*
X029026Y009318D02*
X027282Y009318D01*
X027184Y009220D02*
X029026Y009220D01*
X029026Y009121D02*
X027085Y009121D01*
X027013Y009023D02*
X029026Y009023D01*
X029026Y008924D02*
X027013Y008924D01*
X027013Y008826D02*
X029026Y008826D01*
X026881Y010303D02*
X026058Y010303D01*
X026058Y010205D02*
X026783Y010205D01*
X026684Y010106D02*
X026058Y010106D01*
X026058Y010008D02*
X026586Y010008D01*
X026487Y009909D02*
X026058Y009909D01*
X026058Y009811D02*
X026389Y009811D01*
X026290Y009712D02*
X026058Y009712D01*
X026058Y009614D02*
X026192Y009614D01*
X026102Y009515D02*
X026058Y009515D01*
X026058Y009417D02*
X026061Y009417D01*
X026058Y010402D02*
X026980Y010402D01*
X027078Y010500D02*
X026058Y010500D01*
X026058Y010599D02*
X027177Y010599D01*
X027275Y010697D02*
X026058Y010697D01*
X026058Y010796D02*
X027374Y010796D01*
X027472Y010894D02*
X026058Y010894D01*
X026058Y010993D02*
X027571Y010993D01*
X027658Y011091D02*
X026058Y011091D01*
X026058Y011190D02*
X027658Y011190D01*
X027658Y011288D02*
X026058Y011288D01*
X026058Y011387D02*
X027658Y011387D01*
X027659Y011485D02*
X026058Y011485D01*
X026058Y011584D02*
X027758Y011584D01*
X029026Y015130D02*
X026178Y015130D01*
X026171Y015228D02*
X029026Y015228D01*
X029026Y015918D02*
X028733Y015918D01*
X028700Y016016D02*
X029026Y016016D01*
X029026Y016115D02*
X028641Y016115D01*
X028545Y016213D02*
X029026Y016213D01*
X029026Y016312D02*
X028393Y016312D01*
X028566Y016410D02*
X029026Y016410D01*
X029026Y016509D02*
X028653Y016509D01*
X028707Y016607D02*
X029026Y016607D01*
X029026Y016706D02*
X028735Y016706D01*
X028735Y016903D02*
X029026Y016903D01*
X029026Y017001D02*
X028707Y017001D01*
X028652Y017100D02*
X029026Y017100D01*
X029026Y017198D02*
X028565Y017198D01*
X028516Y017297D02*
X029026Y017297D01*
X029026Y017395D02*
X028636Y017395D01*
X028724Y017494D02*
X029026Y017494D01*
X029026Y017592D02*
X028764Y017592D01*
X028804Y017691D02*
X029026Y017691D01*
X029026Y017789D02*
X028804Y017789D01*
X028804Y017888D02*
X029026Y017888D01*
X029026Y017986D02*
X028776Y017986D01*
X028736Y018085D02*
X029026Y018085D01*
X029026Y018183D02*
X028665Y018183D01*
X028566Y018282D02*
X029026Y018282D01*
X029018Y018380D02*
X028348Y018380D01*
X028100Y018380D02*
X026572Y018380D01*
X026671Y018282D02*
X027882Y018282D01*
X027784Y018183D02*
X026728Y018183D01*
X026685Y018267D02*
X026685Y018267D01*
X026778Y018085D02*
X027713Y018085D01*
X027672Y017986D02*
X026828Y017986D01*
X026878Y017888D02*
X027644Y017888D01*
X027644Y017789D02*
X026904Y017789D01*
X026893Y017859D02*
X026893Y017859D01*
X026920Y017691D02*
X027644Y017691D01*
X027684Y017592D02*
X026935Y017592D01*
X026951Y017494D02*
X027725Y017494D01*
X027813Y017395D02*
X026963Y017395D01*
X026948Y017297D02*
X027933Y017297D01*
X027883Y017198D02*
X026932Y017198D01*
X026916Y017100D02*
X027797Y017100D01*
X027742Y017001D02*
X026901Y017001D01*
X026893Y016953D02*
X026893Y016953D01*
X026867Y016903D02*
X027713Y016903D01*
X028274Y016804D02*
X029026Y016804D01*
X028015Y015327D02*
X026072Y015327D01*
X025974Y015425D02*
X027867Y015425D01*
X028941Y018479D02*
X026474Y018479D01*
X025478Y007841D02*
X025225Y007841D01*
X026029Y006462D02*
X026033Y006462D01*
X026033Y006363D02*
X025954Y006363D01*
X026033Y006265D02*
X025855Y006265D01*
X025757Y006166D02*
X026033Y006166D01*
X026033Y006068D02*
X025658Y006068D01*
X025560Y005969D02*
X026033Y005969D01*
X026033Y005871D02*
X025057Y005871D01*
X024897Y005772D02*
X026033Y005772D01*
X026033Y005674D02*
X013888Y005674D01*
X013888Y005772D02*
X024646Y005772D01*
X025735Y004886D02*
X013888Y004886D01*
X013888Y004984D02*
X025834Y004984D01*
X025932Y005083D02*
X013888Y005083D01*
X013888Y005181D02*
X026031Y005181D01*
X026033Y005280D02*
X013888Y005280D01*
X013888Y005378D02*
X026033Y005378D01*
X026033Y005477D02*
X013888Y005477D01*
X013888Y005575D02*
X026033Y005575D01*
X025637Y004787D02*
X013888Y004787D01*
X013888Y004689D02*
X025538Y004689D01*
X027704Y003743D02*
X027849Y003597D01*
X011252Y002226D02*
X010559Y002226D01*
X010760Y002128D02*
X011051Y002128D01*
X010952Y002029D02*
X010858Y002029D01*
X009870Y001438D02*
X006487Y001438D01*
X006449Y001364D02*
X006449Y001364D01*
X006425Y001340D02*
X009911Y001340D01*
X010006Y001241D02*
X006326Y001241D01*
X006228Y001143D02*
X010143Y001143D01*
X003490Y006265D02*
X001617Y006265D01*
X001617Y006363D02*
X003443Y006363D01*
X003361Y006462D02*
X001617Y006462D01*
X001617Y006560D02*
X003255Y006560D01*
X003156Y006659D02*
X001617Y006659D01*
X001617Y006757D02*
X003058Y006757D01*
X002959Y006856D02*
X001617Y006856D01*
X001617Y006954D02*
X002913Y006954D01*
X002907Y007053D02*
X001617Y007053D01*
X001617Y007151D02*
X002907Y007151D01*
X002907Y007250D02*
X002368Y007250D01*
X004507Y007348D02*
X005128Y007348D01*
X005128Y007447D02*
X004572Y007447D01*
D23*
X001327Y004587D02*
X001996Y003918D01*
X005894Y003918D01*
X006720Y003091D01*
X016523Y003091D01*
X013598Y004713D02*
X006660Y004713D01*
X006138Y005235D01*
X006138Y012033D01*
X006059Y012224D01*
X005913Y012370D01*
X005857Y012393D01*
X005905Y014649D01*
X006799Y014843D01*
X009949Y014843D01*
X010419Y014372D01*
X009860Y014372D01*
X009772Y014336D01*
X009704Y014268D01*
X009668Y014180D01*
X009668Y013435D01*
X009704Y013347D01*
X009772Y013279D01*
X009860Y013242D01*
X010606Y013242D01*
X010694Y013279D01*
X010761Y013347D01*
X010798Y013435D01*
X010798Y013994D01*
X011523Y013268D01*
X013105Y013268D01*
X013598Y012774D01*
X013598Y004713D01*
X013598Y004771D02*
X006602Y004771D01*
X006444Y004930D02*
X009722Y004930D01*
X009741Y004922D02*
X011216Y004922D01*
X011305Y004958D01*
X011372Y005026D01*
X011409Y005114D01*
X011409Y007210D01*
X011372Y007298D01*
X011305Y007365D01*
X011216Y007402D01*
X009741Y007402D01*
X009653Y007365D01*
X009585Y007298D01*
X009549Y007210D01*
X009549Y005970D01*
X007365Y005970D01*
X006953Y006383D01*
X006953Y008250D01*
X007004Y008302D01*
X007071Y008463D01*
X007071Y008637D01*
X007004Y008798D01*
X006881Y008921D01*
X006720Y008988D01*
X006546Y008988D01*
X006385Y008921D01*
X006262Y008798D01*
X006195Y008637D01*
X006195Y008463D01*
X006262Y008302D01*
X006313Y008250D01*
X006313Y006186D01*
X006362Y006069D01*
X006962Y005469D01*
X007052Y005379D01*
X007169Y005330D01*
X009549Y005330D01*
X009549Y005114D01*
X009585Y005026D01*
X009653Y004958D01*
X009741Y004922D01*
X009560Y005088D02*
X006285Y005088D01*
X006138Y005247D02*
X009549Y005247D01*
X009967Y005650D02*
X010479Y006162D01*
X009967Y005650D02*
X007233Y005650D01*
X006633Y006250D01*
X006633Y008550D01*
X007031Y008734D02*
X012129Y008734D01*
X012129Y008892D02*
X006910Y008892D01*
X006931Y008931D02*
X007019Y008895D01*
X009115Y008895D01*
X009203Y008931D01*
X009270Y008999D01*
X009307Y009087D01*
X009307Y010562D01*
X009270Y010651D01*
X009203Y010718D01*
X009115Y010755D01*
X007589Y010755D01*
X007423Y010921D01*
X007305Y010970D01*
X006960Y010970D01*
X006981Y010979D01*
X007104Y011102D01*
X007171Y011263D01*
X007171Y011437D01*
X007138Y011516D01*
X008061Y011516D01*
X008149Y011553D01*
X008216Y011620D01*
X008253Y011709D01*
X008253Y013804D01*
X008216Y013892D01*
X008149Y013960D01*
X008061Y013996D01*
X006585Y013996D01*
X006497Y013960D01*
X006429Y013892D01*
X006393Y013804D01*
X006393Y011709D01*
X006413Y011660D01*
X006413Y011650D01*
X006362Y011598D01*
X006295Y011437D01*
X006295Y011263D01*
X006362Y011102D01*
X006425Y011038D01*
X006385Y011021D01*
X006262Y010898D01*
X006195Y010737D01*
X006195Y010563D01*
X006262Y010402D01*
X006385Y010279D01*
X006546Y010212D01*
X006720Y010212D01*
X006827Y010256D01*
X006827Y009087D01*
X006863Y008999D01*
X006931Y008931D01*
X006842Y009051D02*
X006138Y009051D01*
X006138Y009209D02*
X006827Y009209D01*
X006827Y009368D02*
X006138Y009368D01*
X006138Y009526D02*
X006827Y009526D01*
X006827Y009685D02*
X006138Y009685D01*
X006138Y009843D02*
X006827Y009843D01*
X006827Y010002D02*
X006138Y010002D01*
X006138Y010160D02*
X006827Y010160D01*
X006345Y010319D02*
X006138Y010319D01*
X006138Y010477D02*
X006230Y010477D01*
X006195Y010636D02*
X006138Y010636D01*
X006138Y010794D02*
X006218Y010794D01*
X006138Y010953D02*
X006316Y010953D01*
X006358Y011111D02*
X006138Y011111D01*
X006138Y011270D02*
X006295Y011270D01*
X006295Y011428D02*
X006138Y011428D01*
X006138Y011587D02*
X006357Y011587D01*
X006393Y011745D02*
X006138Y011745D01*
X006138Y011904D02*
X006393Y011904D01*
X006393Y012062D02*
X006126Y012062D01*
X006060Y012221D02*
X006393Y012221D01*
X006393Y012379D02*
X005892Y012379D01*
X005860Y012538D02*
X006393Y012538D01*
X006393Y012696D02*
X005864Y012696D01*
X005867Y012855D02*
X006393Y012855D01*
X006393Y013013D02*
X005870Y013013D01*
X005874Y013172D02*
X006393Y013172D01*
X006393Y013330D02*
X005877Y013330D01*
X005881Y013489D02*
X006393Y013489D01*
X006393Y013647D02*
X005884Y013647D01*
X005887Y013806D02*
X006393Y013806D01*
X006507Y013964D02*
X005891Y013964D01*
X005894Y014123D02*
X009668Y014123D01*
X009668Y013964D02*
X008138Y013964D01*
X008252Y013806D02*
X009668Y013806D01*
X009668Y013647D02*
X008253Y013647D01*
X008253Y013489D02*
X009668Y013489D01*
X009721Y013330D02*
X008253Y013330D01*
X008253Y013172D02*
X013201Y013172D01*
X013360Y013013D02*
X008253Y013013D01*
X008253Y012855D02*
X013518Y012855D01*
X013598Y012696D02*
X008253Y012696D01*
X008253Y012538D02*
X013598Y012538D01*
X013598Y012379D02*
X008253Y012379D01*
X008253Y012221D02*
X013598Y012221D01*
X013598Y012062D02*
X008253Y012062D01*
X008253Y011904D02*
X012287Y011904D01*
X012362Y011935D02*
X012200Y011868D01*
X012077Y011745D01*
X012011Y011584D01*
X012011Y011409D01*
X012077Y011248D01*
X012129Y011197D01*
X012129Y008568D01*
X012089Y008473D01*
X012089Y008299D01*
X012156Y008138D01*
X012279Y008015D01*
X012440Y007948D01*
X012615Y007948D01*
X012776Y008015D01*
X012899Y008138D01*
X012966Y008299D01*
X012966Y008473D01*
X012899Y008634D01*
X012776Y008758D01*
X012769Y008760D01*
X012769Y011197D01*
X012820Y011248D01*
X012887Y011409D01*
X012887Y011584D01*
X012820Y011745D01*
X013598Y011745D01*
X013598Y011587D02*
X012886Y011587D01*
X012887Y011428D02*
X013598Y011428D01*
X013598Y011270D02*
X012829Y011270D01*
X012769Y011111D02*
X013598Y011111D01*
X013598Y010953D02*
X012769Y010953D01*
X012769Y010794D02*
X013598Y010794D01*
X013598Y010636D02*
X012769Y010636D01*
X012769Y010477D02*
X013598Y010477D01*
X013598Y010319D02*
X012769Y010319D01*
X012769Y010160D02*
X013598Y010160D01*
X013598Y010002D02*
X012769Y010002D01*
X012769Y009843D02*
X013598Y009843D01*
X013598Y009685D02*
X012769Y009685D01*
X012769Y009526D02*
X013598Y009526D01*
X013598Y009368D02*
X012769Y009368D01*
X012769Y009209D02*
X013598Y009209D01*
X013598Y009051D02*
X012769Y009051D01*
X012769Y008892D02*
X013598Y008892D01*
X013598Y008734D02*
X012800Y008734D01*
X012923Y008575D02*
X013598Y008575D01*
X013598Y008417D02*
X012966Y008417D01*
X012949Y008258D02*
X013598Y008258D01*
X013598Y008100D02*
X012860Y008100D01*
X012527Y008386D02*
X012449Y008465D01*
X012449Y011496D01*
X012068Y011270D02*
X007171Y011270D01*
X007171Y011428D02*
X012011Y011428D01*
X012012Y011587D02*
X008182Y011587D01*
X008253Y011745D02*
X012078Y011745D01*
X012362Y011935D02*
X012536Y011935D01*
X012697Y011868D01*
X012820Y011745D01*
X012611Y011904D02*
X013598Y011904D01*
X012129Y011111D02*
X007108Y011111D01*
X007347Y010953D02*
X012129Y010953D01*
X012129Y010794D02*
X007550Y010794D01*
X007241Y010650D02*
X008067Y009825D01*
X007241Y010650D02*
X006633Y010650D01*
X006733Y011350D02*
X006733Y012766D01*
X006933Y012766D01*
X007323Y012756D01*
X005618Y011693D02*
X005492Y011567D01*
X004067Y011567D01*
X003256Y012481D02*
X003256Y009666D01*
X003472Y009449D01*
X004039Y009449D01*
X004047Y009441D01*
X003472Y009449D02*
X003413Y009449D01*
X003197Y009233D01*
X003197Y007028D01*
X003512Y006713D01*
X004008Y006713D01*
X004008Y007815D02*
X005618Y007815D01*
X006138Y007783D02*
X006313Y007783D01*
X006313Y007941D02*
X006138Y007941D01*
X006138Y008100D02*
X006313Y008100D01*
X006305Y008258D02*
X006138Y008258D01*
X006138Y008417D02*
X006214Y008417D01*
X006195Y008575D02*
X006138Y008575D01*
X006138Y008734D02*
X006235Y008734D01*
X006138Y008892D02*
X006355Y008892D01*
X007071Y008575D02*
X012129Y008575D01*
X012089Y008417D02*
X007052Y008417D01*
X006961Y008258D02*
X012106Y008258D01*
X012195Y008100D02*
X006953Y008100D01*
X006953Y007941D02*
X013598Y007941D01*
X013598Y007783D02*
X006953Y007783D01*
X006953Y007624D02*
X013598Y007624D01*
X013598Y007466D02*
X006953Y007466D01*
X006953Y007307D02*
X009595Y007307D01*
X009549Y007149D02*
X006953Y007149D01*
X006953Y006990D02*
X009549Y006990D01*
X009549Y006832D02*
X006953Y006832D01*
X006953Y006673D02*
X009549Y006673D01*
X009549Y006515D02*
X006953Y006515D01*
X006979Y006356D02*
X009549Y006356D01*
X009549Y006198D02*
X007138Y006198D01*
X007296Y006039D02*
X009549Y006039D01*
X011235Y004930D02*
X013598Y004930D01*
X013598Y005088D02*
X011398Y005088D01*
X011409Y005247D02*
X013598Y005247D01*
X013598Y005405D02*
X011409Y005405D01*
X011409Y005564D02*
X013598Y005564D01*
X013598Y005722D02*
X011409Y005722D01*
X011409Y005881D02*
X013598Y005881D01*
X013598Y006039D02*
X011409Y006039D01*
X011409Y006198D02*
X013598Y006198D01*
X013598Y006356D02*
X011409Y006356D01*
X011409Y006515D02*
X013598Y006515D01*
X013598Y006673D02*
X011409Y006673D01*
X011409Y006832D02*
X013598Y006832D01*
X013598Y006990D02*
X011409Y006990D01*
X011409Y007149D02*
X013598Y007149D01*
X013598Y007307D02*
X011363Y007307D01*
X012129Y009051D02*
X009292Y009051D01*
X009307Y009209D02*
X012129Y009209D01*
X012129Y009368D02*
X009307Y009368D01*
X009307Y009526D02*
X012129Y009526D01*
X012129Y009685D02*
X009307Y009685D01*
X009307Y009843D02*
X012129Y009843D01*
X012129Y010002D02*
X009307Y010002D01*
X009307Y010160D02*
X012129Y010160D01*
X012129Y010319D02*
X009307Y010319D01*
X009307Y010477D02*
X012129Y010477D01*
X012129Y010636D02*
X009276Y010636D01*
X010745Y013330D02*
X011462Y013330D01*
X011303Y013489D02*
X010798Y013489D01*
X010798Y013647D02*
X011145Y013647D01*
X010986Y013806D02*
X010798Y013806D01*
X010798Y013964D02*
X010828Y013964D01*
X011366Y014233D02*
X011366Y015847D01*
X010035Y014757D02*
X006400Y014757D01*
X006618Y014449D02*
X005224Y014449D01*
X004382Y013607D01*
X004382Y012985D01*
X004067Y012670D01*
X003445Y012670D01*
X003256Y012481D01*
X004047Y010544D02*
X004583Y010544D01*
X004909Y010217D01*
X004909Y009922D01*
X005008Y009823D01*
X005618Y009823D01*
X006138Y007624D02*
X006313Y007624D01*
X006313Y007466D02*
X006138Y007466D01*
X006138Y007307D02*
X006313Y007307D01*
X006313Y007149D02*
X006138Y007149D01*
X006138Y006990D02*
X006313Y006990D01*
X006313Y006832D02*
X006138Y006832D01*
X006138Y006673D02*
X006313Y006673D01*
X006313Y006515D02*
X006138Y006515D01*
X006138Y006356D02*
X006313Y006356D01*
X006313Y006198D02*
X006138Y006198D01*
X006138Y006039D02*
X006391Y006039D01*
X006550Y005881D02*
X006138Y005881D01*
X006138Y005722D02*
X006708Y005722D01*
X006867Y005564D02*
X006138Y005564D01*
X006138Y005405D02*
X007025Y005405D01*
X001327Y004587D02*
X001327Y015119D01*
X001988Y015780D01*
X006614Y015780D01*
X007626Y016792D01*
X015500Y016792D01*
X016287Y016004D01*
X016287Y010493D01*
X016287Y007343D01*
X017468Y006162D01*
X024771Y006162D01*
X025342Y006162D01*
X025768Y006587D01*
X025768Y007520D01*
X024968Y007520D01*
X025768Y007520D02*
X025768Y014052D01*
X014673Y006437D02*
X014279Y006044D01*
X011661Y014233D02*
X011366Y014233D01*
X010352Y014440D02*
X005901Y014440D01*
X005904Y014598D02*
X010194Y014598D01*
X009717Y014281D02*
X005897Y014281D01*
X001988Y015780D02*
X001988Y016780D01*
D24*
X005618Y011930D03*
X006733Y011350D03*
X006633Y010650D03*
X005618Y009823D03*
X006633Y008550D03*
X005618Y007815D03*
X008533Y006350D03*
X011633Y006450D03*
X012333Y006450D03*
X014279Y006044D03*
X016287Y007343D03*
X012527Y008386D03*
X016287Y010493D03*
X012449Y011496D03*
X012733Y014650D03*
X024968Y007520D03*
X024771Y006162D03*
X016523Y003091D03*
D25*
X025736Y004193D02*
X026523Y004981D01*
X026523Y009252D01*
X028268Y010996D01*
X028275Y010989D01*
X025736Y004193D02*
X006445Y004193D01*
X005618Y005020D01*
X005618Y011930D01*
X005618Y011693D01*
X005618Y009823D01*
X005618Y007815D01*
X005618Y007756D01*
M02*
