G75*
G70*
%OFA0B0*%
%FSLAX24Y24*%
%IPPOS*%
%LPD*%
%AMOC8*
5,1,8,0,0,1.08239X$1,22.5*
%
%ADD10R,0.0669X0.0984*%
%ADD11R,0.0709X0.0630*%
%ADD12R,0.0315X0.0472*%
%ADD13R,0.0472X0.0551*%
%ADD14R,0.0472X0.0315*%
%ADD15R,0.0138X0.0709*%
%ADD16R,0.0630X0.0709*%
%ADD17R,0.0787X0.0157*%
%ADD18R,0.1693X0.3150*%
D10*
X024551Y011091D03*
X026126Y011091D03*
D11*
X018417Y013756D03*
X018417Y014859D03*
X004382Y012678D03*
X004382Y011575D03*
X004374Y010587D03*
X004374Y009485D03*
X004374Y008496D03*
X004374Y007394D03*
X018417Y003091D03*
X018417Y001989D03*
D12*
X017390Y002146D03*
X016681Y002146D03*
X019492Y002737D03*
X020201Y002737D03*
X021453Y002784D03*
X022161Y002784D03*
X014720Y011772D03*
X014012Y011772D03*
X020000Y012705D03*
X020709Y012705D03*
D13*
X021051Y001910D03*
X022189Y001906D03*
X023370Y001906D03*
X019870Y001910D03*
D14*
X017405Y003083D03*
X017405Y003792D03*
X007823Y016448D03*
X007823Y017156D03*
D15*
X017401Y008607D03*
X017901Y008607D03*
X018401Y008607D03*
X018901Y008607D03*
X019401Y008607D03*
X019901Y008607D03*
X020401Y008607D03*
X020901Y008607D03*
X021401Y008607D03*
X021901Y008607D03*
X022401Y008607D03*
X022901Y008607D03*
X023401Y008607D03*
X023901Y008607D03*
X023901Y004906D03*
X023401Y004906D03*
X022901Y004906D03*
X022401Y004906D03*
X021901Y004906D03*
X021401Y004906D03*
X020901Y004906D03*
X020401Y004906D03*
X019901Y004906D03*
X019401Y004906D03*
X018901Y004906D03*
X018401Y004906D03*
X017901Y004906D03*
X017401Y004906D03*
D16*
X006264Y006473D03*
X007366Y006473D03*
X013630Y009926D03*
X014732Y009926D03*
X021374Y010024D03*
X022476Y010024D03*
X027122Y014040D03*
X028224Y014040D03*
X012696Y017503D03*
X011594Y017503D03*
X009784Y017450D03*
X008682Y017450D03*
X007146Y013638D03*
X006043Y013638D03*
X014492Y003028D03*
X015594Y003028D03*
X015583Y001748D03*
X014480Y001748D03*
D17*
X011386Y007147D03*
X011386Y007397D03*
X011386Y007647D03*
X011386Y007897D03*
X011386Y008147D03*
X011386Y008397D03*
X011386Y008647D03*
X011386Y008897D03*
X011386Y009147D03*
X011386Y009397D03*
X011386Y009647D03*
X011386Y009897D03*
X011386Y010147D03*
X011386Y010397D03*
X011386Y010647D03*
X011386Y010897D03*
X011386Y011147D03*
X011386Y011397D03*
X011386Y011647D03*
X011386Y011897D03*
X011386Y012147D03*
X011386Y012397D03*
X008551Y012397D03*
X008551Y012147D03*
X008551Y011897D03*
X008551Y011647D03*
X008551Y011397D03*
X008551Y011147D03*
X008551Y010897D03*
X008551Y010647D03*
X008551Y010397D03*
X008551Y010147D03*
X008551Y009897D03*
X008551Y009647D03*
X008551Y009397D03*
X008551Y009147D03*
X008551Y008897D03*
X008551Y008647D03*
X008551Y008397D03*
X008551Y008147D03*
X008551Y007897D03*
X008551Y007647D03*
X008551Y007397D03*
X008551Y007147D03*
D18*
X009968Y009772D03*
M02*
