%
M48
M72
T01C0.0197
T02C0.0236
T03C0.0320
T04C0.0400
T05C0.0472
T06C0.0512
T07C0.0550
T08C0.1200
%
T01
X8970Y8350
X9470Y8350
X9970Y8350
X9970Y8850
X9470Y8850
X8970Y8850
X8970Y9350
X8970Y9850
X9470Y9850
X9970Y9850
X9970Y9350
X9470Y9350
X9470Y10350
X9970Y10350
X9970Y10850
X9470Y10850
X8970Y10850
X8970Y10350
T02
X6419Y8608
X5120Y7644
X5120Y9651
X6144Y10459
X6104Y11108
X5120Y11758
X7876Y14277
X8663Y14277
X7266Y15301
X9057Y12703
X9844Y12703
X10868Y14061
X10868Y15675
X11951Y11325
X15789Y10321
X12029Y8214
X13781Y5872
X15789Y7171
X16025Y2919
X24273Y5990
X24470Y7348
X7088Y5222
T03
X24520Y14380
X25270Y14880
X25270Y13880
T04
X27726Y15632
X27726Y16632
X27726Y17632
X27697Y7899
X27597Y6899
X27697Y5899
X27597Y4899
X27697Y3899
X27597Y2899
X10907Y1490
X9907Y1490
X1490Y15608
X1490Y16608
X1490Y17608
T05
X27770Y12203
X27770Y10825
T06
X1896Y11537
X1896Y9569
X1896Y7600
T07
X13801Y13964
X13801Y15214
X13801Y17714
X20051Y17714
X20051Y13964
T08
X4766Y2053
X25002Y2053
X25002Y17234
X4766Y17210
M30
