G75*
G70*
%OFA0B0*%
%FSLAX24Y24*%
%IPPOS*%
%LPD*%
%AMOC8*
5,1,8,0,0,1.08239X$1,22.5*
%
%ADD10C,0.0000*%
%ADD11C,0.1000*%
%ADD12R,0.1000X0.1000*%
%ADD13R,0.0669X0.0984*%
%ADD14R,0.0709X0.0630*%
%ADD15R,0.0315X0.0472*%
%ADD16R,0.0800X0.0800*%
%ADD17C,0.0800*%
%ADD18C,0.0740*%
%ADD19R,0.0472X0.0551*%
%ADD20R,0.0472X0.0315*%
%ADD21R,0.0138X0.0709*%
%ADD22R,0.0630X0.0709*%
%ADD23R,0.0787X0.0157*%
%ADD24R,0.1693X0.3150*%
%ADD25R,0.0397X0.0397*%
%ADD26OC8,0.0520*%
%ADD27C,0.0650*%
%ADD28R,0.0650X0.0650*%
%ADD29C,0.0160*%
%ADD30C,0.0396*%
%ADD31C,0.0100*%
%ADD32C,0.0560*%
D10*
X000633Y000650D02*
X028766Y000650D01*
X028817Y000652D01*
X028867Y000657D01*
X028917Y000666D01*
X028966Y000679D01*
X029014Y000695D01*
X029061Y000714D01*
X029106Y000737D01*
X029150Y000763D01*
X029191Y000792D01*
X029231Y000823D01*
X029268Y000858D01*
X029303Y000895D01*
X029334Y000935D01*
X029363Y000976D01*
X029389Y001020D01*
X029412Y001065D01*
X029431Y001112D01*
X029447Y001160D01*
X029460Y001209D01*
X029469Y001259D01*
X029474Y001309D01*
X029476Y001360D01*
X029476Y018335D01*
X029474Y018383D01*
X029468Y018431D01*
X029459Y018479D01*
X029446Y018525D01*
X029429Y018570D01*
X029409Y018614D01*
X029385Y018656D01*
X029359Y018696D01*
X029329Y018734D01*
X029296Y018770D01*
X029260Y018803D01*
X029222Y018833D01*
X029182Y018859D01*
X029140Y018883D01*
X029096Y018903D01*
X029051Y018920D01*
X029005Y018933D01*
X028957Y018942D01*
X028909Y018948D01*
X028861Y018950D01*
X001333Y018950D01*
X001283Y018948D01*
X001233Y018943D01*
X001184Y018934D01*
X001136Y018922D01*
X001088Y018906D01*
X001042Y018887D01*
X000998Y018864D01*
X000955Y018839D01*
X000914Y018810D01*
X000875Y018779D01*
X000838Y018745D01*
X000804Y018708D01*
X000773Y018669D01*
X000744Y018628D01*
X000719Y018585D01*
X000696Y018541D01*
X000677Y018495D01*
X000661Y018447D01*
X000649Y018399D01*
X000640Y018350D01*
X000635Y018300D01*
X000633Y018250D01*
X000633Y018247D02*
X000633Y000650D01*
X004664Y002225D02*
X004666Y002274D01*
X004672Y002322D01*
X004682Y002370D01*
X004696Y002417D01*
X004713Y002463D01*
X004734Y002507D01*
X004759Y002549D01*
X004787Y002589D01*
X004819Y002627D01*
X004853Y002662D01*
X004890Y002694D01*
X004929Y002723D01*
X004971Y002749D01*
X005015Y002771D01*
X005060Y002789D01*
X005107Y002804D01*
X005154Y002815D01*
X005203Y002822D01*
X005252Y002825D01*
X005301Y002824D01*
X005349Y002819D01*
X005398Y002810D01*
X005445Y002797D01*
X005491Y002780D01*
X005535Y002760D01*
X005578Y002736D01*
X005619Y002709D01*
X005657Y002678D01*
X005693Y002645D01*
X005725Y002609D01*
X005755Y002570D01*
X005782Y002529D01*
X005805Y002485D01*
X005824Y002440D01*
X005840Y002394D01*
X005852Y002347D01*
X005860Y002298D01*
X005864Y002249D01*
X005864Y002201D01*
X005860Y002152D01*
X005852Y002103D01*
X005840Y002056D01*
X005824Y002010D01*
X005805Y001965D01*
X005782Y001921D01*
X005755Y001880D01*
X005725Y001841D01*
X005693Y001805D01*
X005657Y001772D01*
X005619Y001741D01*
X005578Y001714D01*
X005535Y001690D01*
X005491Y001670D01*
X005445Y001653D01*
X005398Y001640D01*
X005349Y001631D01*
X005301Y001626D01*
X005252Y001625D01*
X005203Y001628D01*
X005154Y001635D01*
X005107Y001646D01*
X005060Y001661D01*
X005015Y001679D01*
X004971Y001701D01*
X004929Y001727D01*
X004890Y001756D01*
X004853Y001788D01*
X004819Y001823D01*
X004787Y001861D01*
X004759Y001901D01*
X004734Y001943D01*
X004713Y001987D01*
X004696Y002033D01*
X004682Y002080D01*
X004672Y002128D01*
X004666Y002176D01*
X004664Y002225D01*
X024900Y002225D02*
X024902Y002274D01*
X024908Y002322D01*
X024918Y002370D01*
X024932Y002417D01*
X024949Y002463D01*
X024970Y002507D01*
X024995Y002549D01*
X025023Y002589D01*
X025055Y002627D01*
X025089Y002662D01*
X025126Y002694D01*
X025165Y002723D01*
X025207Y002749D01*
X025251Y002771D01*
X025296Y002789D01*
X025343Y002804D01*
X025390Y002815D01*
X025439Y002822D01*
X025488Y002825D01*
X025537Y002824D01*
X025585Y002819D01*
X025634Y002810D01*
X025681Y002797D01*
X025727Y002780D01*
X025771Y002760D01*
X025814Y002736D01*
X025855Y002709D01*
X025893Y002678D01*
X025929Y002645D01*
X025961Y002609D01*
X025991Y002570D01*
X026018Y002529D01*
X026041Y002485D01*
X026060Y002440D01*
X026076Y002394D01*
X026088Y002347D01*
X026096Y002298D01*
X026100Y002249D01*
X026100Y002201D01*
X026096Y002152D01*
X026088Y002103D01*
X026076Y002056D01*
X026060Y002010D01*
X026041Y001965D01*
X026018Y001921D01*
X025991Y001880D01*
X025961Y001841D01*
X025929Y001805D01*
X025893Y001772D01*
X025855Y001741D01*
X025814Y001714D01*
X025771Y001690D01*
X025727Y001670D01*
X025681Y001653D01*
X025634Y001640D01*
X025585Y001631D01*
X025537Y001626D01*
X025488Y001625D01*
X025439Y001628D01*
X025390Y001635D01*
X025343Y001646D01*
X025296Y001661D01*
X025251Y001679D01*
X025207Y001701D01*
X025165Y001727D01*
X025126Y001756D01*
X025089Y001788D01*
X025055Y001823D01*
X025023Y001861D01*
X024995Y001901D01*
X024970Y001943D01*
X024949Y001987D01*
X024932Y002033D01*
X024918Y002080D01*
X024908Y002128D01*
X024902Y002176D01*
X024900Y002225D01*
X004664Y017382D02*
X004666Y017431D01*
X004672Y017479D01*
X004682Y017527D01*
X004696Y017574D01*
X004713Y017620D01*
X004734Y017664D01*
X004759Y017706D01*
X004787Y017746D01*
X004819Y017784D01*
X004853Y017819D01*
X004890Y017851D01*
X004929Y017880D01*
X004971Y017906D01*
X005015Y017928D01*
X005060Y017946D01*
X005107Y017961D01*
X005154Y017972D01*
X005203Y017979D01*
X005252Y017982D01*
X005301Y017981D01*
X005349Y017976D01*
X005398Y017967D01*
X005445Y017954D01*
X005491Y017937D01*
X005535Y017917D01*
X005578Y017893D01*
X005619Y017866D01*
X005657Y017835D01*
X005693Y017802D01*
X005725Y017766D01*
X005755Y017727D01*
X005782Y017686D01*
X005805Y017642D01*
X005824Y017597D01*
X005840Y017551D01*
X005852Y017504D01*
X005860Y017455D01*
X005864Y017406D01*
X005864Y017358D01*
X005860Y017309D01*
X005852Y017260D01*
X005840Y017213D01*
X005824Y017167D01*
X005805Y017122D01*
X005782Y017078D01*
X005755Y017037D01*
X005725Y016998D01*
X005693Y016962D01*
X005657Y016929D01*
X005619Y016898D01*
X005578Y016871D01*
X005535Y016847D01*
X005491Y016827D01*
X005445Y016810D01*
X005398Y016797D01*
X005349Y016788D01*
X005301Y016783D01*
X005252Y016782D01*
X005203Y016785D01*
X005154Y016792D01*
X005107Y016803D01*
X005060Y016818D01*
X005015Y016836D01*
X004971Y016858D01*
X004929Y016884D01*
X004890Y016913D01*
X004853Y016945D01*
X004819Y016980D01*
X004787Y017018D01*
X004759Y017058D01*
X004734Y017100D01*
X004713Y017144D01*
X004696Y017190D01*
X004682Y017237D01*
X004672Y017285D01*
X004666Y017333D01*
X004664Y017382D01*
X024900Y017406D02*
X024902Y017455D01*
X024908Y017503D01*
X024918Y017551D01*
X024932Y017598D01*
X024949Y017644D01*
X024970Y017688D01*
X024995Y017730D01*
X025023Y017770D01*
X025055Y017808D01*
X025089Y017843D01*
X025126Y017875D01*
X025165Y017904D01*
X025207Y017930D01*
X025251Y017952D01*
X025296Y017970D01*
X025343Y017985D01*
X025390Y017996D01*
X025439Y018003D01*
X025488Y018006D01*
X025537Y018005D01*
X025585Y018000D01*
X025634Y017991D01*
X025681Y017978D01*
X025727Y017961D01*
X025771Y017941D01*
X025814Y017917D01*
X025855Y017890D01*
X025893Y017859D01*
X025929Y017826D01*
X025961Y017790D01*
X025991Y017751D01*
X026018Y017710D01*
X026041Y017666D01*
X026060Y017621D01*
X026076Y017575D01*
X026088Y017528D01*
X026096Y017479D01*
X026100Y017430D01*
X026100Y017382D01*
X026096Y017333D01*
X026088Y017284D01*
X026076Y017237D01*
X026060Y017191D01*
X026041Y017146D01*
X026018Y017102D01*
X025991Y017061D01*
X025961Y017022D01*
X025929Y016986D01*
X025893Y016953D01*
X025855Y016922D01*
X025814Y016895D01*
X025771Y016871D01*
X025727Y016851D01*
X025681Y016834D01*
X025634Y016821D01*
X025585Y016812D01*
X025537Y016807D01*
X025488Y016806D01*
X025439Y016809D01*
X025390Y016816D01*
X025343Y016827D01*
X025296Y016842D01*
X025251Y016860D01*
X025207Y016882D01*
X025165Y016908D01*
X025126Y016937D01*
X025089Y016969D01*
X025055Y017004D01*
X025023Y017042D01*
X024995Y017082D01*
X024970Y017124D01*
X024949Y017168D01*
X024932Y017214D01*
X024918Y017261D01*
X024908Y017309D01*
X024902Y017357D01*
X024900Y017406D01*
D11*
X020549Y017886D03*
X020549Y014136D03*
X014299Y014136D03*
X014299Y015386D03*
D12*
X014299Y017886D03*
D13*
X024551Y011091D03*
X026126Y011091D03*
D14*
X018417Y013756D03*
X018417Y014859D03*
X004382Y012678D03*
X004382Y011575D03*
X004374Y010587D03*
X004374Y009485D03*
X004374Y008496D03*
X004374Y007394D03*
X018417Y003091D03*
X018417Y001989D03*
D15*
X017390Y002146D03*
X016681Y002146D03*
X019492Y002737D03*
X020201Y002737D03*
X021453Y002784D03*
X022161Y002784D03*
X014720Y011772D03*
X014012Y011772D03*
X020000Y012705D03*
X020709Y012705D03*
D16*
X028268Y010996D03*
X001794Y007772D03*
D17*
X001794Y009741D03*
X001794Y011709D03*
X028268Y012374D03*
D18*
X028224Y015804D03*
X028224Y016804D03*
X028224Y017804D03*
X028196Y008071D03*
X028096Y007071D03*
X028196Y006071D03*
X028096Y005071D03*
X028196Y004071D03*
X028096Y003071D03*
X011405Y001662D03*
X010405Y001662D03*
X001988Y015780D03*
X001988Y016780D03*
X001988Y017780D03*
D19*
X019870Y001910D03*
X021051Y001910D03*
X022189Y001906D03*
X023370Y001906D03*
D20*
X017405Y003083D03*
X017405Y003792D03*
X007823Y016448D03*
X007823Y017156D03*
D21*
X017401Y008607D03*
X017901Y008607D03*
X018401Y008607D03*
X018901Y008607D03*
X019401Y008607D03*
X019901Y008607D03*
X020401Y008607D03*
X020901Y008607D03*
X021401Y008607D03*
X021901Y008607D03*
X022401Y008607D03*
X022901Y008607D03*
X023401Y008607D03*
X023901Y008607D03*
X023901Y004906D03*
X023401Y004906D03*
X022901Y004906D03*
X022401Y004906D03*
X021901Y004906D03*
X021401Y004906D03*
X020901Y004906D03*
X020401Y004906D03*
X019901Y004906D03*
X019401Y004906D03*
X018901Y004906D03*
X018401Y004906D03*
X017901Y004906D03*
X017401Y004906D03*
D22*
X015594Y003028D03*
X014492Y003028D03*
X014480Y001748D03*
X015583Y001748D03*
X007366Y006473D03*
X006264Y006473D03*
X013630Y009926D03*
X014732Y009926D03*
X021374Y010024D03*
X022476Y010024D03*
X027122Y014040D03*
X028224Y014040D03*
X012696Y017503D03*
X011594Y017503D03*
X009784Y017450D03*
X008682Y017450D03*
X007146Y013638D03*
X006043Y013638D03*
D23*
X008551Y012397D03*
X008551Y012147D03*
X008551Y011897D03*
X008551Y011647D03*
X008551Y011397D03*
X008551Y011147D03*
X008551Y010897D03*
X008551Y010647D03*
X008551Y010397D03*
X008551Y010147D03*
X008551Y009897D03*
X008551Y009647D03*
X008551Y009397D03*
X008551Y009147D03*
X008551Y008897D03*
X008551Y008647D03*
X008551Y008397D03*
X008551Y008147D03*
X008551Y007897D03*
X008551Y007647D03*
X008551Y007397D03*
X008551Y007147D03*
X011386Y007147D03*
X011386Y007397D03*
X011386Y007647D03*
X011386Y007897D03*
X011386Y008147D03*
X011386Y008397D03*
X011386Y008647D03*
X011386Y008897D03*
X011386Y009147D03*
X011386Y009397D03*
X011386Y009647D03*
X011386Y009897D03*
X011386Y010147D03*
X011386Y010397D03*
X011386Y010647D03*
X011386Y010897D03*
X011386Y011147D03*
X011386Y011397D03*
X011386Y011647D03*
X011386Y011897D03*
X011386Y012147D03*
X011386Y012397D03*
D24*
X009968Y009772D03*
D25*
X009968Y010022D03*
X009468Y010022D03*
X009468Y010522D03*
X009468Y011022D03*
X009968Y011022D03*
X009968Y010522D03*
X010468Y010522D03*
X010468Y010022D03*
X010468Y009522D03*
X009968Y009522D03*
X009468Y009522D03*
X009468Y009022D03*
X009468Y008522D03*
X009968Y008522D03*
X009968Y009022D03*
X010468Y009022D03*
X010468Y008522D03*
X010468Y011022D03*
D26*
X025018Y014552D03*
X025768Y015052D03*
X025768Y014052D03*
D27*
X022733Y015750D03*
X010233Y015807D03*
X004233Y014650D03*
X007833Y002150D03*
D28*
X008833Y002150D03*
X010233Y013807D03*
X003233Y014650D03*
X022733Y014750D03*
D29*
X024033Y015450D02*
X024333Y015150D01*
X025633Y015150D01*
X025733Y015050D01*
X025768Y014052D02*
X027110Y014052D01*
X027122Y014040D01*
X024033Y015450D02*
X024033Y016250D01*
X022397Y017886D01*
X020549Y017886D01*
X016594Y017886D01*
X015500Y016792D01*
X013407Y016792D01*
X012841Y017358D01*
X012733Y017250D01*
X012733Y014650D01*
X012311Y014228D01*
X012311Y012481D01*
X012236Y012406D01*
X011395Y012406D01*
X011386Y012397D01*
X011378Y012405D01*
X012016Y011870D02*
X012016Y011241D01*
X011917Y011142D01*
X011391Y011142D01*
X011386Y011147D01*
X011386Y010897D02*
X012263Y010897D01*
X012449Y011083D01*
X012449Y011496D01*
X012016Y011870D02*
X012232Y012087D01*
X012705Y012087D01*
X013492Y012874D01*
X015874Y012874D01*
X018157Y010591D01*
X019968Y010591D01*
X020401Y010158D01*
X020401Y008607D01*
X019909Y008615D02*
X019901Y008607D01*
X019909Y008615D02*
X019909Y010059D01*
X019673Y010296D01*
X018020Y010296D01*
X015756Y012559D01*
X013689Y012559D01*
X012882Y011752D01*
X012882Y010926D01*
X012606Y010650D01*
X011389Y010650D01*
X011386Y010647D01*
X011386Y010147D02*
X010371Y010147D01*
X010342Y010119D01*
X010372Y010119D01*
X010468Y010022D01*
X011386Y009647D02*
X011386Y009397D01*
X011386Y009147D02*
X011386Y008897D01*
X011386Y008647D02*
X011386Y008426D01*
X012488Y008426D01*
X012527Y008386D01*
X015205Y008386D01*
X015638Y008819D01*
X015638Y010276D01*
X015854Y010493D01*
X016287Y010493D01*
X016563Y009705D02*
X016287Y009430D01*
X016287Y008524D01*
X015598Y007835D01*
X012232Y007835D01*
X011917Y008150D01*
X011389Y008150D01*
X011386Y008147D01*
X011391Y007402D02*
X012921Y007402D01*
X014279Y006044D01*
X013709Y006044D02*
X013709Y006181D01*
X012743Y007147D01*
X011386Y007147D01*
X011386Y007397D02*
X011391Y007402D01*
X013413Y005748D02*
X013709Y006044D01*
X013413Y005748D02*
X009220Y005748D01*
X009122Y005847D01*
X009122Y006870D01*
X008845Y007147D01*
X008551Y007147D01*
X007999Y006595D01*
X007488Y006595D01*
X007366Y006473D01*
X008551Y007147D02*
X008559Y007139D01*
X008551Y007397D02*
X004771Y007397D01*
X004374Y007394D01*
X005106Y008209D02*
X005894Y008209D01*
X006051Y008052D01*
X007468Y008052D01*
X007823Y008406D01*
X008542Y008406D01*
X008551Y008397D01*
X008551Y008147D02*
X008115Y008147D01*
X007665Y007697D01*
X005736Y007697D01*
X005618Y007815D01*
X005106Y008209D02*
X004819Y008496D01*
X004374Y008496D01*
X002518Y008496D01*
X001794Y007772D01*
X004374Y009485D02*
X004527Y009331D01*
X007685Y009331D01*
X007882Y009528D01*
X007882Y009764D01*
X008020Y009902D01*
X008546Y009902D01*
X008551Y009897D01*
X008551Y010147D02*
X007851Y010147D01*
X007409Y009705D01*
X005972Y009705D01*
X005854Y009823D01*
X005618Y009823D01*
X005933Y010276D02*
X004929Y010276D01*
X004693Y010512D01*
X002565Y010512D01*
X001794Y009741D01*
X004374Y010587D02*
X004693Y010512D01*
X004618Y011339D02*
X004382Y011575D01*
X001927Y011575D01*
X001794Y011709D01*
X004382Y012678D02*
X004834Y012619D01*
X007350Y012619D01*
X007823Y012146D01*
X008550Y012146D01*
X008551Y012147D01*
X008551Y012397D02*
X008539Y012409D01*
X008539Y012874D01*
X007980Y012874D01*
X007216Y013638D01*
X007146Y013638D01*
X007033Y013751D01*
X007133Y013651D02*
X007146Y013638D01*
X008133Y014850D02*
X007833Y015150D01*
X007833Y016438D01*
X007823Y016448D01*
X007823Y017156D02*
X007823Y017341D01*
X007933Y017450D01*
X008682Y017450D01*
X008133Y014850D02*
X009833Y014850D01*
X010233Y014450D01*
X010233Y013807D01*
X009833Y013650D01*
X009333Y013150D01*
X009333Y011850D01*
X009130Y011647D01*
X008551Y011647D01*
X007889Y011647D01*
X007291Y012244D01*
X005933Y012244D01*
X005618Y011930D01*
X005638Y011339D02*
X006228Y011930D01*
X007212Y011930D01*
X008000Y011142D01*
X008546Y011142D01*
X008551Y011147D01*
X008551Y010897D02*
X007786Y010897D01*
X007233Y011450D01*
X006833Y011450D01*
X006733Y011350D01*
X006633Y010650D02*
X006636Y010647D01*
X008551Y010647D01*
X008551Y010397D02*
X007629Y010397D01*
X007626Y010394D01*
X007390Y010394D01*
X007055Y010059D01*
X006149Y010059D01*
X005933Y010276D01*
X005638Y011339D02*
X004618Y011339D01*
X006730Y008647D02*
X006633Y008550D01*
X006730Y008647D02*
X008551Y008647D01*
X008551Y008897D02*
X008676Y009022D01*
X009468Y009022D01*
X008551Y008147D02*
X008551Y007897D01*
X008416Y008032D01*
X011386Y009147D02*
X014548Y009147D01*
X014712Y009311D01*
X014712Y009685D01*
X014732Y009705D01*
X014732Y009926D02*
X014720Y009937D01*
X014720Y011772D01*
X013630Y009926D02*
X013351Y009647D01*
X011386Y009647D01*
X008551Y010397D02*
X008548Y010394D01*
X008551Y011397D02*
X008532Y011397D01*
X008531Y011398D01*
X008551Y011397D02*
X008551Y011647D01*
X008551Y012397D02*
X008543Y012405D01*
X012841Y017358D02*
X012696Y017503D01*
X016710Y014853D02*
X016716Y014859D01*
X018417Y014859D01*
X020549Y014136D02*
X020549Y014085D01*
X020716Y013918D01*
X020716Y012713D01*
X020709Y012705D01*
X021374Y010024D02*
X021401Y009996D01*
X021401Y008607D01*
X020901Y008607D02*
X020894Y008599D01*
X020894Y007953D01*
X020244Y007304D01*
X017724Y007304D01*
X014614Y004193D01*
X011957Y004193D01*
X011405Y003642D01*
X011405Y001662D01*
X012333Y001050D02*
X012533Y001250D01*
X012333Y001050D02*
X009633Y001050D01*
X009533Y001150D01*
X009533Y001250D01*
X010382Y001685D02*
X010405Y001662D01*
X010382Y001685D02*
X010382Y004193D01*
X010775Y004587D01*
X014319Y004587D01*
X017468Y007737D01*
X019083Y007737D01*
X019397Y008052D01*
X019397Y008603D01*
X019401Y008607D01*
X018905Y008611D02*
X018901Y008607D01*
X018905Y008611D02*
X018905Y009449D01*
X018649Y009705D01*
X016563Y009705D01*
X017401Y008607D02*
X017401Y008457D01*
X016287Y007343D01*
X017468Y005768D02*
X022311Y005768D01*
X023374Y006831D01*
X025323Y006831D01*
X025441Y006713D01*
X025441Y005709D01*
X026703Y004446D01*
X026720Y004446D01*
X028096Y003071D01*
X027311Y003012D02*
X027311Y002225D01*
X027705Y001831D01*
X028649Y001831D01*
X029083Y002264D01*
X029083Y005867D01*
X028866Y006083D01*
X028207Y006083D01*
X028196Y006071D01*
X027311Y005768D02*
X028008Y005071D01*
X028096Y005071D01*
X028196Y004096D02*
X026130Y006162D01*
X026130Y007000D01*
X025768Y007363D01*
X025126Y007363D01*
X024968Y007520D01*
X025811Y008607D02*
X023901Y008607D01*
X025811Y008607D02*
X027331Y007087D01*
X028080Y007087D01*
X028096Y007071D01*
X024771Y006162D02*
X023768Y006162D01*
X023401Y005796D01*
X023401Y004906D01*
X022901Y004906D02*
X022901Y003701D01*
X022646Y003445D01*
X021661Y003445D01*
X021445Y003229D01*
X021445Y002792D01*
X021453Y002784D01*
X022161Y002784D02*
X022161Y001933D01*
X022189Y001906D01*
X020185Y002363D02*
X020185Y002721D01*
X020201Y002737D01*
X020185Y002363D02*
X019870Y002048D01*
X019870Y001910D01*
X019492Y002737D02*
X019496Y002741D01*
X019496Y003189D01*
X020165Y003859D01*
X021819Y003859D01*
X021901Y003941D01*
X021901Y004906D01*
X023901Y004906D02*
X023901Y004453D01*
X024161Y004193D01*
X026130Y004193D01*
X027311Y003012D01*
X028196Y004071D02*
X028196Y004096D01*
X018417Y003091D02*
X017413Y003091D01*
X017405Y003083D01*
X017390Y003067D01*
X017390Y002146D01*
X016681Y002146D02*
X016681Y001831D01*
X016484Y001634D01*
X015697Y001634D01*
X015583Y001748D01*
X015583Y003016D01*
X015594Y003028D01*
X016460Y003028D01*
X016523Y003091D01*
X017401Y003796D02*
X017405Y003792D01*
X017401Y003796D02*
X017401Y004906D01*
X017401Y005701D01*
X017468Y005768D01*
D30*
X016287Y007343D03*
X014279Y006044D03*
X012333Y006450D03*
X011633Y006450D03*
X012527Y008386D03*
X016287Y010493D03*
X012449Y011496D03*
X012733Y014650D03*
X006733Y011350D03*
X006633Y010650D03*
X005618Y009823D03*
X006633Y008550D03*
X005618Y007815D03*
X008533Y006350D03*
X005618Y011930D03*
X016523Y003091D03*
X024771Y006162D03*
X024968Y007520D03*
D31*
X024598Y007348D02*
X020699Y007348D01*
X020797Y007447D02*
X024560Y007447D01*
X024560Y007439D02*
X024622Y007289D01*
X024737Y007174D01*
X024865Y007121D01*
X023316Y007121D01*
X023210Y007077D01*
X023128Y006995D01*
X022191Y006058D01*
X017411Y006058D01*
X017304Y006014D01*
X017156Y005865D01*
X017111Y005759D01*
X017111Y004159D01*
X017082Y004159D01*
X016959Y004036D01*
X016959Y003547D01*
X017069Y003437D01*
X016959Y003328D01*
X016959Y002839D01*
X017082Y002716D01*
X017100Y002716D01*
X017100Y002547D01*
X017035Y002482D01*
X016925Y002592D01*
X016436Y002592D01*
X016313Y002469D01*
X016313Y001924D01*
X016107Y001924D01*
X016107Y002190D01*
X015984Y002313D01*
X015873Y002313D01*
X015873Y002464D01*
X015996Y002464D01*
X016119Y002587D01*
X016119Y002738D01*
X016309Y002738D01*
X016442Y002683D01*
X016605Y002683D01*
X016755Y002745D01*
X016869Y002860D01*
X016932Y003010D01*
X016932Y003172D01*
X016869Y003322D01*
X016755Y003437D01*
X016605Y003499D01*
X016442Y003499D01*
X016292Y003437D01*
X016177Y003322D01*
X016176Y003318D01*
X016119Y003318D01*
X016119Y003469D01*
X015996Y003592D01*
X015192Y003592D01*
X015069Y003469D01*
X015069Y002587D01*
X015192Y002464D01*
X015293Y002464D01*
X015293Y002313D01*
X015181Y002313D01*
X015058Y002190D01*
X015058Y001307D01*
X015181Y001184D01*
X015984Y001184D01*
X016107Y001307D01*
X016107Y001344D01*
X016542Y001344D01*
X016648Y001388D01*
X016845Y001585D01*
X016927Y001667D01*
X016951Y001726D01*
X017035Y001810D01*
X017145Y001700D01*
X017634Y001700D01*
X017757Y001823D01*
X017757Y002469D01*
X017680Y002547D01*
X017680Y002716D01*
X017729Y002716D01*
X017814Y002801D01*
X017853Y002801D01*
X017853Y002689D01*
X017976Y002566D01*
X018858Y002566D01*
X018981Y002689D01*
X018981Y003493D01*
X018858Y003616D01*
X017976Y003616D01*
X017853Y003493D01*
X017853Y003381D01*
X017798Y003381D01*
X017742Y003437D01*
X017852Y003547D01*
X017852Y004036D01*
X017729Y004159D01*
X017691Y004159D01*
X017691Y004396D01*
X017746Y004342D01*
X018057Y004342D01*
X018151Y004436D01*
X018246Y004342D01*
X018557Y004342D01*
X018651Y004436D01*
X018746Y004342D01*
X019057Y004342D01*
X019151Y004436D01*
X019246Y004342D01*
X019557Y004342D01*
X019651Y004436D01*
X019746Y004342D01*
X020057Y004342D01*
X020151Y004436D01*
X020246Y004342D01*
X020557Y004342D01*
X020680Y004465D01*
X020680Y005347D01*
X020557Y005470D01*
X020246Y005470D01*
X020151Y005376D01*
X020057Y005470D01*
X019746Y005470D01*
X019651Y005376D01*
X019557Y005470D01*
X019246Y005470D01*
X019151Y005376D01*
X019057Y005470D01*
X018746Y005470D01*
X018651Y005376D01*
X018557Y005470D01*
X018246Y005470D01*
X018151Y005376D01*
X018057Y005470D01*
X017746Y005470D01*
X017691Y005416D01*
X017691Y005478D01*
X022369Y005478D01*
X022475Y005522D01*
X023494Y006541D01*
X024621Y006541D01*
X024540Y006508D01*
X024484Y006452D01*
X023710Y006452D01*
X023603Y006408D01*
X023522Y006326D01*
X023156Y005960D01*
X023111Y005853D01*
X023111Y005416D01*
X023057Y005470D01*
X022746Y005470D01*
X022651Y005376D01*
X022557Y005470D01*
X022246Y005470D01*
X022151Y005376D01*
X022057Y005470D01*
X021746Y005470D01*
X021651Y005376D01*
X021557Y005470D01*
X021246Y005470D01*
X021123Y005347D01*
X021123Y004465D01*
X021246Y004342D01*
X021557Y004342D01*
X021611Y004396D01*
X021611Y004149D01*
X020108Y004149D01*
X020001Y004105D01*
X019332Y003435D01*
X019250Y003354D01*
X019206Y003247D01*
X019206Y003141D01*
X019124Y003060D01*
X019124Y002413D01*
X019248Y002290D01*
X019442Y002290D01*
X019424Y002272D01*
X019424Y001547D01*
X019547Y001424D01*
X020193Y001424D01*
X020316Y001547D01*
X020316Y002084D01*
X020349Y002117D01*
X020431Y002198D01*
X020475Y002305D01*
X020475Y002320D01*
X020568Y002413D01*
X020568Y003060D01*
X020445Y003183D01*
X019956Y003183D01*
X019846Y003073D01*
X019818Y003101D01*
X020285Y003569D01*
X021375Y003569D01*
X021280Y003475D01*
X021199Y003393D01*
X021155Y003286D01*
X021155Y003177D01*
X021085Y003107D01*
X021085Y002461D01*
X021208Y002338D01*
X021697Y002338D01*
X021807Y002448D01*
X021864Y002390D01*
X021743Y002268D01*
X021743Y001543D01*
X021866Y001420D01*
X022512Y001420D01*
X022635Y001543D01*
X022635Y002268D01*
X022512Y002391D01*
X022460Y002391D01*
X022529Y002461D01*
X022529Y003107D01*
X022481Y003155D01*
X022703Y003155D01*
X022810Y003199D01*
X022891Y003281D01*
X023147Y003537D01*
X023191Y003643D01*
X023191Y004396D01*
X023246Y004342D01*
X023557Y004342D01*
X023611Y004396D01*
X023611Y004395D01*
X023656Y004289D01*
X023915Y004029D01*
X023997Y003947D01*
X024104Y003903D01*
X026010Y003903D01*
X027021Y002892D01*
X027021Y002167D01*
X027065Y002061D01*
X027459Y001667D01*
X027540Y001585D01*
X027647Y001541D01*
X028707Y001541D01*
X028814Y001585D01*
X029026Y001798D01*
X029026Y001360D01*
X029023Y001319D01*
X028998Y001242D01*
X028950Y001176D01*
X028884Y001128D01*
X028807Y001103D01*
X028766Y001100D01*
X026421Y001100D01*
X026685Y001364D01*
X026893Y001772D01*
X026893Y001772D01*
X026965Y002225D01*
X026893Y002678D01*
X026685Y003086D01*
X026361Y003410D01*
X026361Y003410D01*
X025953Y003618D01*
X025953Y003618D01*
X025500Y003690D01*
X025047Y003618D01*
X024639Y003410D01*
X024315Y003086D01*
X024315Y003086D01*
X024107Y002678D01*
X024107Y002678D01*
X024035Y002225D01*
X024035Y002225D01*
X024107Y001772D01*
X024315Y001364D01*
X024315Y001364D01*
X024578Y001100D01*
X011565Y001100D01*
X011734Y001170D01*
X011897Y001333D01*
X011985Y001546D01*
X011985Y001777D01*
X011897Y001990D01*
X011734Y002154D01*
X011695Y002169D01*
X011695Y003522D01*
X012077Y003903D01*
X014672Y003903D01*
X014778Y003947D01*
X014860Y004029D01*
X017844Y007014D01*
X020302Y007014D01*
X020408Y007058D01*
X021058Y007707D01*
X021139Y007789D01*
X021184Y007895D01*
X021184Y008104D01*
X021246Y008042D01*
X021557Y008042D01*
X021680Y008165D01*
X021680Y008522D01*
X021683Y008528D01*
X021683Y008233D01*
X021693Y008194D01*
X021712Y008160D01*
X021740Y008132D01*
X021775Y008113D01*
X021813Y008102D01*
X021901Y008102D01*
X021901Y008607D01*
X021901Y009111D01*
X021813Y009111D01*
X021775Y009101D01*
X021740Y009081D01*
X021712Y009053D01*
X021693Y009019D01*
X021691Y009014D01*
X021691Y009460D01*
X021776Y009460D01*
X021899Y009583D01*
X021899Y010465D01*
X021776Y010588D01*
X020972Y010588D01*
X020849Y010465D01*
X020849Y009583D01*
X020972Y009460D01*
X021111Y009460D01*
X021111Y009117D01*
X021057Y009171D01*
X020746Y009171D01*
X020691Y009117D01*
X020691Y010216D01*
X020647Y010322D01*
X020566Y010404D01*
X020368Y010601D01*
X024006Y010601D01*
X024006Y010512D01*
X024129Y010389D01*
X024973Y010389D01*
X025096Y010512D01*
X025096Y011670D01*
X024973Y011793D01*
X024129Y011793D01*
X024006Y011670D01*
X024006Y011581D01*
X018648Y011581D01*
X017565Y012664D01*
X017565Y014569D01*
X017853Y014569D01*
X017853Y014457D01*
X017976Y014334D01*
X018858Y014334D01*
X018981Y014457D01*
X018981Y015261D01*
X018858Y015384D01*
X017976Y015384D01*
X017853Y015261D01*
X017853Y015149D01*
X017108Y015149D01*
X016624Y015632D01*
X016486Y015770D01*
X016306Y015845D01*
X014845Y015845D01*
X014701Y015988D01*
X014440Y016096D01*
X014158Y016096D01*
X013897Y015988D01*
X013697Y015788D01*
X013589Y015527D01*
X013589Y015245D01*
X013697Y014984D01*
X013897Y014784D01*
X013953Y014761D01*
X013897Y014738D01*
X013697Y014538D01*
X013589Y014277D01*
X013589Y013995D01*
X013697Y013734D01*
X013897Y013534D01*
X014158Y013426D01*
X014440Y013426D01*
X014701Y013534D01*
X014901Y013734D01*
X015009Y013995D01*
X015009Y014277D01*
X014901Y014538D01*
X014701Y014738D01*
X014645Y014761D01*
X014701Y014784D01*
X014782Y014865D01*
X016006Y014865D01*
X016433Y014437D01*
X016585Y014286D01*
X016585Y012574D01*
X016038Y013120D01*
X015932Y013164D01*
X013434Y013164D01*
X013328Y013120D01*
X013246Y013039D01*
X013246Y013039D01*
X012584Y012377D01*
X012582Y012377D01*
X012601Y012423D01*
X012601Y014108D01*
X012735Y014242D01*
X012814Y014242D01*
X012964Y014304D01*
X013079Y014419D01*
X013141Y014569D01*
X013141Y014731D01*
X013079Y014881D01*
X013023Y014937D01*
X013023Y016766D01*
X013243Y016546D01*
X013349Y016502D01*
X015558Y016502D01*
X015664Y016546D01*
X016714Y017596D01*
X019901Y017596D01*
X019947Y017484D01*
X020147Y017284D01*
X020408Y017176D01*
X020690Y017176D01*
X020951Y017284D01*
X021151Y017484D01*
X021197Y017596D01*
X022277Y017596D01*
X023743Y016130D01*
X023743Y015392D01*
X023787Y015286D01*
X024087Y014986D01*
X024169Y014904D01*
X024275Y014860D01*
X024746Y014860D01*
X024608Y014721D01*
X024608Y014582D01*
X024988Y014582D01*
X024988Y014522D01*
X025048Y014522D01*
X025048Y014582D01*
X025428Y014582D01*
X025428Y014721D01*
X025289Y014860D01*
X025298Y014860D01*
X025298Y014857D01*
X025573Y014582D01*
X025962Y014582D01*
X026238Y014857D01*
X026238Y015246D01*
X025962Y015522D01*
X025573Y015522D01*
X025491Y015440D01*
X024453Y015440D01*
X024323Y015570D01*
X024323Y016308D01*
X024279Y016414D01*
X024197Y016496D01*
X022561Y018132D01*
X022454Y018176D01*
X021197Y018176D01*
X021151Y018288D01*
X020951Y018488D01*
X020923Y018500D01*
X024548Y018500D01*
X024315Y018267D01*
X024107Y017859D01*
X024107Y017859D01*
X024035Y017406D01*
X024107Y016953D01*
X024315Y016545D01*
X024639Y016221D01*
X025047Y016013D01*
X025500Y015941D01*
X025953Y016013D01*
X026361Y016221D01*
X026685Y016545D01*
X026893Y016953D01*
X026965Y017406D01*
X026893Y017859D01*
X026685Y018267D01*
X026452Y018500D01*
X028861Y018500D01*
X028887Y018498D01*
X028936Y018482D01*
X028978Y018452D01*
X029008Y018410D01*
X029024Y018360D01*
X029026Y018335D01*
X029026Y006331D01*
X028924Y006373D01*
X028698Y006373D01*
X028687Y006400D01*
X028524Y006563D01*
X028442Y006597D01*
X028587Y006743D01*
X028676Y006956D01*
X028676Y007187D01*
X028587Y007400D01*
X028442Y007545D01*
X029026Y007545D01*
X029026Y007447D02*
X028540Y007447D01*
X028609Y007348D02*
X029026Y007348D01*
X029026Y007250D02*
X028649Y007250D01*
X028676Y007151D02*
X029026Y007151D01*
X029026Y007053D02*
X028676Y007053D01*
X028675Y006954D02*
X029026Y006954D01*
X029026Y006856D02*
X028634Y006856D01*
X028593Y006757D02*
X029026Y006757D01*
X029026Y006659D02*
X028503Y006659D01*
X028527Y006560D02*
X029026Y006560D01*
X029026Y006462D02*
X028625Y006462D01*
X028948Y006363D02*
X029026Y006363D01*
X028746Y005793D02*
X028793Y005746D01*
X028793Y002384D01*
X028529Y002121D01*
X027825Y002121D01*
X027601Y002345D01*
X027601Y002750D01*
X027604Y002743D01*
X027767Y002580D01*
X027980Y002491D01*
X028211Y002491D01*
X028424Y002580D01*
X028587Y002743D01*
X028676Y002956D01*
X028676Y003187D01*
X028587Y003400D01*
X028442Y003545D01*
X028524Y003580D01*
X028687Y003743D01*
X028776Y003956D01*
X028776Y004187D01*
X028687Y004400D01*
X028524Y004563D01*
X028369Y004627D01*
X028434Y004675D01*
X028492Y004733D01*
X028540Y004799D01*
X028577Y004872D01*
X028603Y004949D01*
X028614Y005021D01*
X028146Y005021D01*
X028146Y005121D01*
X028614Y005121D01*
X028603Y005193D01*
X028577Y005271D01*
X028540Y005344D01*
X028492Y005410D01*
X028434Y005468D01*
X028369Y005515D01*
X028524Y005580D01*
X028687Y005743D01*
X028708Y005793D01*
X028746Y005793D01*
X028767Y005772D02*
X028699Y005772D01*
X028618Y005674D02*
X028793Y005674D01*
X028793Y005575D02*
X028513Y005575D01*
X028422Y005477D02*
X028793Y005477D01*
X028793Y005378D02*
X028515Y005378D01*
X028573Y005280D02*
X028793Y005280D01*
X028793Y005181D02*
X028605Y005181D01*
X028608Y004984D02*
X028793Y004984D01*
X028793Y004886D02*
X028582Y004886D01*
X028532Y004787D02*
X028793Y004787D01*
X028793Y004689D02*
X028448Y004689D01*
X028459Y004590D02*
X028793Y004590D01*
X028793Y004492D02*
X028596Y004492D01*
X028690Y004393D02*
X028793Y004393D01*
X028793Y004295D02*
X028731Y004295D01*
X028772Y004196D02*
X028793Y004196D01*
X028793Y004098D02*
X028776Y004098D01*
X028776Y003999D02*
X028793Y003999D01*
X028793Y003901D02*
X028753Y003901D01*
X028793Y003802D02*
X028712Y003802D01*
X028648Y003704D02*
X028793Y003704D01*
X028793Y003605D02*
X028550Y003605D01*
X028481Y003507D02*
X028793Y003507D01*
X028793Y003408D02*
X028579Y003408D01*
X028625Y003310D02*
X028793Y003310D01*
X028793Y003211D02*
X028665Y003211D01*
X028676Y003113D02*
X028793Y003113D01*
X028793Y003014D02*
X028676Y003014D01*
X028659Y002916D02*
X028793Y002916D01*
X028793Y002817D02*
X028618Y002817D01*
X028563Y002719D02*
X028793Y002719D01*
X028793Y002620D02*
X028465Y002620D01*
X028284Y002522D02*
X028793Y002522D01*
X028793Y002423D02*
X027601Y002423D01*
X027601Y002522D02*
X027907Y002522D01*
X027727Y002620D02*
X027601Y002620D01*
X027601Y002719D02*
X027628Y002719D01*
X027621Y002325D02*
X028733Y002325D01*
X028634Y002226D02*
X027720Y002226D01*
X027818Y002128D02*
X028536Y002128D01*
X028962Y001734D02*
X029026Y001734D01*
X029026Y001635D02*
X028863Y001635D01*
X029026Y001537D02*
X026773Y001537D01*
X026823Y001635D02*
X027491Y001635D01*
X027392Y001734D02*
X026873Y001734D01*
X026903Y001832D02*
X027294Y001832D01*
X027195Y001931D02*
X026918Y001931D01*
X026934Y002029D02*
X027097Y002029D01*
X027037Y002128D02*
X026949Y002128D01*
X026965Y002226D02*
X027021Y002226D01*
X027021Y002325D02*
X026949Y002325D01*
X026933Y002423D02*
X027021Y002423D01*
X027021Y002522D02*
X026918Y002522D01*
X026902Y002620D02*
X027021Y002620D01*
X027021Y002719D02*
X026872Y002719D01*
X026893Y002678D02*
X026893Y002678D01*
X026822Y002817D02*
X027021Y002817D01*
X026997Y002916D02*
X026772Y002916D01*
X026722Y003014D02*
X026899Y003014D01*
X026800Y003113D02*
X026658Y003113D01*
X026685Y003086D02*
X026685Y003086D01*
X026685Y003086D01*
X026702Y003211D02*
X026560Y003211D01*
X026603Y003310D02*
X026461Y003310D01*
X026505Y003408D02*
X026363Y003408D01*
X026406Y003507D02*
X026172Y003507D01*
X026308Y003605D02*
X025978Y003605D01*
X026111Y003802D02*
X023191Y003802D01*
X023191Y003704D02*
X026209Y003704D01*
X026012Y003901D02*
X023191Y003901D01*
X023191Y003999D02*
X023945Y003999D01*
X023847Y004098D02*
X023191Y004098D01*
X023191Y004196D02*
X023748Y004196D01*
X023653Y004295D02*
X023191Y004295D01*
X023191Y004393D02*
X023194Y004393D01*
X023609Y004393D02*
X023612Y004393D01*
X023175Y003605D02*
X025021Y003605D01*
X024828Y003507D02*
X023117Y003507D01*
X023018Y003408D02*
X024637Y003408D01*
X024639Y003410D02*
X024639Y003410D01*
X024538Y003310D02*
X022920Y003310D01*
X022821Y003211D02*
X024440Y003211D01*
X024341Y003113D02*
X022523Y003113D01*
X022529Y003014D02*
X024278Y003014D01*
X024228Y002916D02*
X022529Y002916D01*
X022529Y002817D02*
X024178Y002817D01*
X024127Y002719D02*
X022529Y002719D01*
X022529Y002620D02*
X024097Y002620D01*
X024082Y002522D02*
X022529Y002522D01*
X022491Y002423D02*
X024066Y002423D01*
X024051Y002325D02*
X023652Y002325D01*
X023664Y002321D02*
X023626Y002331D01*
X023420Y002331D01*
X023420Y001956D01*
X023320Y001956D01*
X023320Y002331D01*
X023114Y002331D01*
X023076Y002321D01*
X023042Y002302D01*
X023014Y002274D01*
X022994Y002239D01*
X022984Y002201D01*
X022984Y001956D01*
X023320Y001956D01*
X023320Y001856D01*
X022984Y001856D01*
X022984Y001611D01*
X022994Y001572D01*
X023014Y001538D01*
X023042Y001510D01*
X023076Y001491D01*
X023114Y001480D01*
X023320Y001480D01*
X023320Y001856D01*
X023420Y001856D01*
X023420Y001956D01*
X023756Y001956D01*
X023756Y002201D01*
X023746Y002239D01*
X023726Y002274D01*
X023698Y002302D01*
X023664Y002321D01*
X023750Y002226D02*
X024035Y002226D01*
X024050Y002128D02*
X023756Y002128D01*
X023756Y002029D02*
X024066Y002029D01*
X024081Y001931D02*
X023420Y001931D01*
X023420Y001856D02*
X023756Y001856D01*
X023756Y001611D01*
X023746Y001572D01*
X023726Y001538D01*
X023698Y001510D01*
X023664Y001491D01*
X023626Y001480D01*
X023420Y001480D01*
X023420Y001856D01*
X023420Y001832D02*
X023320Y001832D01*
X023320Y001734D02*
X023420Y001734D01*
X023420Y001635D02*
X023320Y001635D01*
X023320Y001537D02*
X023420Y001537D01*
X023724Y001537D02*
X024227Y001537D01*
X024176Y001635D02*
X023756Y001635D01*
X023756Y001734D02*
X024126Y001734D01*
X024107Y001772D02*
X024107Y001772D01*
X024097Y001832D02*
X023756Y001832D01*
X023420Y002029D02*
X023320Y002029D01*
X023320Y001931D02*
X022635Y001931D01*
X022635Y002029D02*
X022984Y002029D01*
X022984Y002128D02*
X022635Y002128D01*
X022635Y002226D02*
X022990Y002226D01*
X023088Y002325D02*
X022579Y002325D01*
X022635Y001832D02*
X022984Y001832D01*
X022984Y001734D02*
X022635Y001734D01*
X022635Y001635D02*
X022984Y001635D01*
X023015Y001537D02*
X022628Y001537D01*
X022530Y001438D02*
X024277Y001438D01*
X024339Y001340D02*
X016107Y001340D01*
X016041Y001241D02*
X024437Y001241D01*
X024536Y001143D02*
X011667Y001143D01*
X011805Y001241D02*
X015124Y001241D01*
X015058Y001340D02*
X014936Y001340D01*
X014935Y001336D02*
X014945Y001374D01*
X014945Y001698D01*
X014530Y001698D01*
X014530Y001244D01*
X014815Y001244D01*
X014853Y001254D01*
X014887Y001274D01*
X014915Y001302D01*
X014935Y001336D01*
X014945Y001438D02*
X015058Y001438D01*
X015058Y001537D02*
X014945Y001537D01*
X014945Y001635D02*
X015058Y001635D01*
X015058Y001734D02*
X014530Y001734D01*
X014530Y001698D02*
X014530Y001798D01*
X014945Y001798D01*
X014945Y002123D01*
X014935Y002161D01*
X014915Y002195D01*
X014887Y002223D01*
X014853Y002243D01*
X014815Y002253D01*
X014530Y002253D01*
X014530Y001798D01*
X014430Y001798D01*
X014430Y001698D01*
X014530Y001698D01*
X014530Y001635D02*
X014430Y001635D01*
X014430Y001698D02*
X014430Y001244D01*
X014145Y001244D01*
X014107Y001254D01*
X014073Y001274D01*
X014045Y001302D01*
X014025Y001336D01*
X014015Y001374D01*
X014015Y001698D01*
X014430Y001698D01*
X014430Y001734D02*
X011985Y001734D01*
X011985Y001635D02*
X014015Y001635D01*
X014015Y001537D02*
X011981Y001537D01*
X011940Y001438D02*
X014015Y001438D01*
X014025Y001340D02*
X011900Y001340D01*
X011963Y001832D02*
X014015Y001832D01*
X014015Y001798D02*
X014430Y001798D01*
X014430Y002253D01*
X014145Y002253D01*
X014107Y002243D01*
X014073Y002223D01*
X014045Y002195D01*
X014025Y002161D01*
X014015Y002123D01*
X014015Y001798D01*
X014015Y001931D02*
X011922Y001931D01*
X011858Y002029D02*
X014015Y002029D01*
X014017Y002128D02*
X011760Y002128D01*
X011695Y002226D02*
X014079Y002226D01*
X014157Y002524D02*
X014442Y002524D01*
X014442Y002978D01*
X014027Y002978D01*
X014027Y002654D01*
X014037Y002616D01*
X014057Y002582D01*
X014085Y002554D01*
X014119Y002534D01*
X014157Y002524D01*
X014036Y002620D02*
X011695Y002620D01*
X011695Y002522D02*
X015135Y002522D01*
X015069Y002620D02*
X014948Y002620D01*
X014947Y002616D02*
X014957Y002654D01*
X014957Y002978D01*
X014542Y002978D01*
X014542Y003078D01*
X014442Y003078D01*
X014442Y003532D01*
X014157Y003532D01*
X014119Y003522D01*
X014085Y003502D01*
X014057Y003474D01*
X014037Y003440D01*
X014027Y003402D01*
X014027Y003078D01*
X014442Y003078D01*
X014442Y002978D01*
X014542Y002978D01*
X014542Y002524D01*
X014827Y002524D01*
X014865Y002534D01*
X014899Y002554D01*
X014927Y002582D01*
X014947Y002616D01*
X014957Y002719D02*
X015069Y002719D01*
X015069Y002817D02*
X014957Y002817D01*
X014957Y002916D02*
X015069Y002916D01*
X015069Y003014D02*
X014542Y003014D01*
X014542Y003078D02*
X014957Y003078D01*
X014957Y003402D01*
X014947Y003440D01*
X014927Y003474D01*
X014899Y003502D01*
X014865Y003522D01*
X014827Y003532D01*
X014542Y003532D01*
X014542Y003078D01*
X014542Y003113D02*
X014442Y003113D01*
X014442Y003211D02*
X014542Y003211D01*
X014542Y003310D02*
X014442Y003310D01*
X014442Y003408D02*
X014542Y003408D01*
X014542Y003507D02*
X014442Y003507D01*
X014092Y003507D02*
X011695Y003507D01*
X011695Y003408D02*
X014029Y003408D01*
X014027Y003310D02*
X011695Y003310D01*
X011695Y003211D02*
X014027Y003211D01*
X014027Y003113D02*
X011695Y003113D01*
X011695Y003014D02*
X014442Y003014D01*
X014442Y002916D02*
X014542Y002916D01*
X014542Y002817D02*
X014442Y002817D01*
X014442Y002719D02*
X014542Y002719D01*
X014542Y002620D02*
X014442Y002620D01*
X014027Y002719D02*
X011695Y002719D01*
X011695Y002817D02*
X014027Y002817D01*
X014027Y002916D02*
X011695Y002916D01*
X011695Y002423D02*
X015293Y002423D01*
X015293Y002325D02*
X011695Y002325D01*
X010246Y001100D02*
X006185Y001100D01*
X006449Y001364D01*
X006657Y001772D01*
X006657Y001772D01*
X006729Y002225D01*
X006657Y002678D01*
X006449Y003086D01*
X006125Y003410D01*
X006125Y003410D01*
X005716Y003618D01*
X005264Y003690D01*
X005264Y003690D01*
X004811Y003618D01*
X004811Y003618D01*
X004403Y003410D01*
X004403Y003410D01*
X004078Y003086D01*
X003870Y002678D01*
X003870Y002678D01*
X003799Y002225D01*
X003870Y001772D01*
X004078Y001364D01*
X004342Y001100D01*
X001150Y001100D01*
X001168Y018436D01*
X001219Y018473D01*
X001294Y018497D01*
X001333Y018500D01*
X004335Y018500D01*
X004078Y018243D01*
X003870Y017835D01*
X003799Y017382D01*
X003870Y016930D01*
X003870Y016930D01*
X004078Y016521D01*
X004403Y016197D01*
X004811Y015989D01*
X005264Y015917D01*
X005716Y015989D01*
X005716Y015989D01*
X006125Y016197D01*
X006449Y016521D01*
X006449Y016521D01*
X006657Y016930D01*
X006729Y017382D01*
X006729Y017382D01*
X006657Y017835D01*
X006449Y018243D01*
X006192Y018500D01*
X013701Y018500D01*
X013679Y018478D01*
X013659Y018444D01*
X013649Y018406D01*
X013649Y017936D01*
X014249Y017936D01*
X014249Y017836D01*
X014349Y017836D01*
X014349Y017236D01*
X014819Y017236D01*
X014857Y017246D01*
X014891Y017266D01*
X014919Y017294D01*
X014939Y017328D01*
X014949Y017366D01*
X014949Y017836D01*
X014349Y017836D01*
X014349Y017936D01*
X014949Y017936D01*
X014949Y018406D01*
X014939Y018444D01*
X014919Y018478D01*
X014897Y018500D01*
X020176Y018500D01*
X020147Y018488D01*
X019947Y018288D01*
X019901Y018176D01*
X016537Y018176D01*
X016430Y018132D01*
X015380Y017082D01*
X013527Y017082D01*
X013221Y017388D01*
X013221Y017944D01*
X013098Y018067D01*
X012294Y018067D01*
X012171Y017944D01*
X012171Y017061D01*
X012294Y016938D01*
X012443Y016938D01*
X012443Y014937D01*
X012387Y014881D01*
X012325Y014731D01*
X012325Y014652D01*
X012065Y014392D01*
X012021Y014286D01*
X012021Y012696D01*
X011337Y012696D01*
X011334Y012695D01*
X011320Y012695D01*
X011298Y012686D01*
X010905Y012686D01*
X010782Y012563D01*
X010782Y010231D01*
X010842Y010171D01*
X010842Y010147D01*
X010842Y010049D01*
X010849Y010022D01*
X010842Y009996D01*
X010842Y009897D01*
X010842Y009873D01*
X010782Y009813D01*
X010782Y006981D01*
X010905Y006858D01*
X011325Y006858D01*
X011328Y006857D01*
X012623Y006857D01*
X013367Y006113D01*
X013293Y006038D01*
X009412Y006038D01*
X009412Y006928D01*
X009368Y007035D01*
X009286Y007116D01*
X009155Y007248D01*
X009155Y008813D01*
X009095Y008873D01*
X009095Y008897D01*
X009070Y008897D01*
X009095Y008897D01*
X009095Y008996D01*
X009088Y009022D01*
X009095Y009049D01*
X009095Y009147D01*
X009070Y009147D01*
X009070Y009147D01*
X009095Y009147D01*
X009095Y009171D01*
X009155Y009231D01*
X009155Y011357D01*
X009188Y011357D01*
X009294Y011401D01*
X009376Y011483D01*
X009497Y011604D01*
X009497Y011604D01*
X009579Y011686D01*
X009623Y011792D01*
X009623Y013030D01*
X009866Y013272D01*
X010645Y013272D01*
X010768Y013395D01*
X010768Y014219D01*
X010645Y014342D01*
X010523Y014342D01*
X010523Y014508D01*
X010479Y014614D01*
X010079Y015014D01*
X009997Y015096D01*
X009891Y015140D01*
X008253Y015140D01*
X008123Y015270D01*
X008123Y016080D01*
X008147Y016080D01*
X008270Y016203D01*
X008270Y016692D01*
X008160Y016802D01*
X008262Y016904D01*
X008280Y016886D01*
X009084Y016886D01*
X009207Y017009D01*
X009207Y017891D01*
X009084Y018014D01*
X008280Y018014D01*
X008157Y017891D01*
X008157Y017740D01*
X007875Y017740D01*
X007769Y017696D01*
X007687Y017614D01*
X007597Y017524D01*
X007500Y017524D01*
X007377Y017401D01*
X007377Y016912D01*
X007487Y016802D01*
X007377Y016692D01*
X007377Y016203D01*
X007500Y016080D01*
X007543Y016080D01*
X007543Y015092D01*
X007587Y014986D01*
X007669Y014904D01*
X007969Y014604D01*
X008075Y014560D01*
X009713Y014560D01*
X009930Y014342D01*
X009821Y014342D01*
X009698Y014219D01*
X009698Y013909D01*
X009673Y013899D01*
X009671Y013897D01*
X009669Y013896D01*
X009630Y013857D01*
X009590Y013819D01*
X009589Y013816D01*
X009087Y013314D01*
X009043Y013208D01*
X009043Y012675D01*
X009032Y012686D01*
X008829Y012686D01*
X008829Y012932D01*
X008785Y013039D01*
X008703Y013120D01*
X008597Y013164D01*
X008100Y013164D01*
X007670Y013594D01*
X007670Y014080D01*
X007547Y014203D01*
X006744Y014203D01*
X006621Y014080D01*
X006621Y013197D01*
X006744Y013074D01*
X007371Y013074D01*
X007734Y012710D01*
X007816Y012629D01*
X007922Y012584D01*
X007969Y012584D01*
X007947Y012563D01*
X007947Y012436D01*
X007943Y012436D01*
X007515Y012864D01*
X007580Y012864D01*
X007515Y012864D02*
X007408Y012909D01*
X004946Y012909D01*
X004946Y013080D01*
X004823Y013203D01*
X003940Y013203D01*
X003817Y013080D01*
X003817Y012276D01*
X003940Y012153D01*
X004823Y012153D01*
X004946Y012276D01*
X004946Y012329D01*
X005515Y012329D01*
X005387Y012276D01*
X005272Y012161D01*
X005210Y012011D01*
X005210Y011848D01*
X005272Y011698D01*
X005341Y011629D01*
X004946Y011629D01*
X004946Y011977D01*
X004823Y012100D01*
X003940Y012100D01*
X003817Y011977D01*
X003817Y011865D01*
X002389Y011865D01*
X002311Y012055D01*
X002139Y012226D01*
X001915Y012319D01*
X001672Y012319D01*
X001448Y012226D01*
X001276Y012055D01*
X001184Y011830D01*
X001184Y011588D01*
X001276Y011364D01*
X001448Y011192D01*
X001672Y011099D01*
X001915Y011099D01*
X002139Y011192D01*
X002232Y011285D01*
X003817Y011285D01*
X003817Y011173D01*
X003906Y011085D01*
X003810Y010989D01*
X003810Y010802D01*
X002508Y010802D01*
X002401Y010758D01*
X001970Y010328D01*
X001915Y010351D01*
X001672Y010351D01*
X001448Y010258D01*
X001276Y010086D01*
X001184Y009862D01*
X001184Y009619D01*
X001276Y009395D01*
X001448Y009223D01*
X001672Y009131D01*
X001915Y009131D01*
X002139Y009223D01*
X002311Y009395D01*
X002404Y009619D01*
X002404Y009862D01*
X002381Y009917D01*
X002685Y010222D01*
X003810Y010222D01*
X003810Y010185D01*
X003933Y010062D01*
X004733Y010062D01*
X004765Y010030D01*
X004814Y010010D01*
X003933Y010010D01*
X003810Y009887D01*
X003810Y009083D01*
X003902Y008991D01*
X003810Y008898D01*
X003810Y008786D01*
X002460Y008786D01*
X002354Y008742D01*
X002272Y008661D01*
X002272Y008661D01*
X001993Y008382D01*
X001307Y008382D01*
X001184Y008259D01*
X001184Y007285D01*
X001307Y007162D01*
X002281Y007162D01*
X002404Y007285D01*
X002404Y007972D01*
X002638Y008206D01*
X003810Y008206D01*
X003810Y008095D01*
X003933Y007971D01*
X004815Y007971D01*
X004874Y008031D01*
X004942Y007963D01*
X005048Y007919D01*
X005219Y007919D01*
X005210Y007897D01*
X005210Y007734D01*
X005229Y007687D01*
X004938Y007687D01*
X004938Y007796D01*
X004815Y007919D01*
X003933Y007919D01*
X003810Y007796D01*
X003810Y006992D01*
X003933Y006869D01*
X004815Y006869D01*
X004938Y006992D01*
X004938Y007107D01*
X007947Y007107D01*
X007947Y006981D01*
X007961Y006967D01*
X007891Y006897D01*
X007891Y006914D01*
X007768Y007037D01*
X006964Y007037D01*
X006841Y006914D01*
X006841Y006032D01*
X006964Y005909D01*
X007768Y005909D01*
X007891Y006032D01*
X007891Y006305D01*
X008057Y006305D01*
X008163Y006349D01*
X008671Y006857D01*
X008725Y006857D01*
X008832Y006750D01*
X008832Y005789D01*
X008876Y005683D01*
X008974Y005584D01*
X009056Y005503D01*
X009163Y005458D01*
X013471Y005458D01*
X013578Y005503D01*
X013873Y005798D01*
X013920Y005845D01*
X013933Y005813D01*
X014048Y005698D01*
X014198Y005636D01*
X014361Y005636D01*
X014511Y005698D01*
X014625Y005813D01*
X014687Y005963D01*
X014687Y006125D01*
X014625Y006275D01*
X014511Y006390D01*
X014361Y006452D01*
X014281Y006452D01*
X013188Y007545D01*
X015656Y007545D01*
X015763Y007589D01*
X016452Y008278D01*
X016533Y008360D01*
X016577Y008466D01*
X016577Y009309D01*
X016683Y009415D01*
X018529Y009415D01*
X018615Y009329D01*
X018615Y009113D01*
X018557Y009171D01*
X018246Y009171D01*
X018123Y009048D01*
X018123Y008165D01*
X018246Y008042D01*
X018557Y008042D01*
X018651Y008136D01*
X018652Y008136D01*
X018651Y008136D02*
X018746Y008042D01*
X018978Y008042D01*
X018962Y008027D01*
X017411Y008027D01*
X017360Y008006D01*
X017397Y008042D01*
X017557Y008042D01*
X017680Y008165D01*
X017680Y008373D01*
X017683Y008378D01*
X017683Y008233D01*
X017693Y008194D01*
X017712Y008160D01*
X017740Y008132D01*
X017775Y008113D01*
X017813Y008102D01*
X017901Y008102D01*
X017901Y008607D01*
X017901Y009111D01*
X017813Y009111D01*
X017775Y009101D01*
X017740Y009081D01*
X017712Y009053D01*
X017693Y009019D01*
X017683Y008981D01*
X017683Y008686D01*
X017680Y008691D01*
X017680Y009048D01*
X017557Y009171D01*
X017246Y009171D01*
X017123Y009048D01*
X017123Y008691D01*
X017111Y008664D01*
X017111Y008577D01*
X016285Y007751D01*
X016206Y007751D01*
X016056Y007689D01*
X015941Y007574D01*
X015879Y007424D01*
X015879Y007262D01*
X015941Y007112D01*
X016056Y006997D01*
X016206Y006935D01*
X016256Y006935D01*
X014199Y004877D01*
X010718Y004877D01*
X010611Y004833D01*
X010217Y004439D01*
X010136Y004358D01*
X010092Y004251D01*
X010092Y002160D01*
X010077Y002154D01*
X009914Y001990D01*
X009825Y001777D01*
X009825Y001546D01*
X009914Y001333D01*
X010077Y001170D01*
X010246Y001100D01*
X010143Y001143D02*
X006228Y001143D01*
X006326Y001241D02*
X010006Y001241D01*
X009911Y001340D02*
X006425Y001340D01*
X006449Y001364D02*
X006449Y001364D01*
X006487Y001438D02*
X009870Y001438D01*
X009829Y001537D02*
X006537Y001537D01*
X006587Y001635D02*
X008401Y001635D01*
X008421Y001615D02*
X009245Y001615D01*
X009368Y001738D01*
X009368Y002562D01*
X009245Y002685D01*
X008421Y002685D01*
X008298Y002562D01*
X008298Y002251D01*
X008296Y002261D01*
X008273Y002332D01*
X008239Y002399D01*
X008195Y002459D01*
X008142Y002512D01*
X008082Y002556D01*
X008015Y002590D01*
X007944Y002613D01*
X007870Y002625D01*
X007852Y002625D01*
X007852Y002169D01*
X007814Y002169D01*
X007814Y002625D01*
X007796Y002625D01*
X007722Y002613D01*
X007651Y002590D01*
X007584Y002556D01*
X007523Y002512D01*
X007471Y002459D01*
X007427Y002399D01*
X007393Y002332D01*
X007370Y002261D01*
X007358Y002187D01*
X007358Y002169D01*
X007814Y002169D01*
X007814Y002131D01*
X007852Y002131D01*
X007852Y001675D01*
X007870Y001675D01*
X007944Y001687D01*
X008015Y001710D01*
X008082Y001744D01*
X008142Y001788D01*
X008195Y001841D01*
X008239Y001901D01*
X008273Y001968D01*
X008296Y002039D01*
X008298Y002049D01*
X008298Y001738D01*
X008421Y001615D01*
X008302Y001734D02*
X008062Y001734D01*
X008187Y001832D02*
X008298Y001832D01*
X008298Y001931D02*
X008254Y001931D01*
X008293Y002029D02*
X008298Y002029D01*
X008276Y002325D02*
X008298Y002325D01*
X008298Y002423D02*
X008222Y002423D01*
X008298Y002522D02*
X008130Y002522D01*
X008356Y002620D02*
X007902Y002620D01*
X007852Y002620D02*
X007814Y002620D01*
X007764Y002620D02*
X006666Y002620D01*
X006657Y002678D02*
X006657Y002678D01*
X006636Y002719D02*
X010092Y002719D01*
X010092Y002817D02*
X006586Y002817D01*
X006536Y002916D02*
X010092Y002916D01*
X010092Y003014D02*
X006485Y003014D01*
X006449Y003086D02*
X006449Y003086D01*
X006422Y003113D02*
X010092Y003113D01*
X010092Y003211D02*
X006324Y003211D01*
X006225Y003310D02*
X010092Y003310D01*
X010092Y003408D02*
X006127Y003408D01*
X005935Y003507D02*
X010092Y003507D01*
X010092Y003605D02*
X005742Y003605D01*
X005716Y003618D02*
X005716Y003618D01*
X004785Y003605D02*
X001153Y003605D01*
X001152Y003507D02*
X004592Y003507D01*
X004401Y003408D02*
X001152Y003408D01*
X001152Y003310D02*
X004302Y003310D01*
X004204Y003211D02*
X001152Y003211D01*
X001152Y003113D02*
X004105Y003113D01*
X004078Y003086D02*
X004078Y003086D01*
X004042Y003014D02*
X001152Y003014D01*
X001152Y002916D02*
X003992Y002916D01*
X003941Y002817D02*
X001152Y002817D01*
X001152Y002719D02*
X003891Y002719D01*
X003861Y002620D02*
X001152Y002620D01*
X001151Y002522D02*
X003846Y002522D01*
X003830Y002423D02*
X001151Y002423D01*
X001151Y002325D02*
X003814Y002325D01*
X003799Y002226D02*
X001151Y002226D01*
X001151Y002128D02*
X003814Y002128D01*
X003799Y002225D02*
X003799Y002225D01*
X003830Y002029D02*
X001151Y002029D01*
X001151Y001931D02*
X003845Y001931D01*
X003861Y001832D02*
X001151Y001832D01*
X001151Y001734D02*
X003890Y001734D01*
X003870Y001772D02*
X003870Y001772D01*
X003940Y001635D02*
X001150Y001635D01*
X001150Y001537D02*
X003990Y001537D01*
X004041Y001438D02*
X001150Y001438D01*
X001150Y001340D02*
X004103Y001340D01*
X004078Y001364D02*
X004078Y001364D01*
X004201Y001241D02*
X001150Y001241D01*
X001150Y001143D02*
X004300Y001143D01*
X006637Y001734D02*
X007604Y001734D01*
X007584Y001744D02*
X007651Y001710D01*
X007722Y001687D01*
X007796Y001675D01*
X007814Y001675D01*
X007814Y002131D01*
X007358Y002131D01*
X007358Y002113D01*
X007370Y002039D01*
X007393Y001968D01*
X007427Y001901D01*
X007471Y001841D01*
X007523Y001788D01*
X007584Y001744D01*
X007479Y001832D02*
X006666Y001832D01*
X006682Y001931D02*
X007412Y001931D01*
X007373Y002029D02*
X006698Y002029D01*
X006713Y002128D02*
X007358Y002128D01*
X007364Y002226D02*
X006728Y002226D01*
X006713Y002325D02*
X007390Y002325D01*
X007444Y002423D02*
X006697Y002423D01*
X006682Y002522D02*
X007536Y002522D01*
X007814Y002522D02*
X007852Y002522D01*
X007852Y002423D02*
X007814Y002423D01*
X007814Y002325D02*
X007852Y002325D01*
X007852Y002226D02*
X007814Y002226D01*
X007814Y002128D02*
X007852Y002128D01*
X007852Y002029D02*
X007814Y002029D01*
X007814Y001931D02*
X007852Y001931D01*
X007852Y001832D02*
X007814Y001832D01*
X007814Y001734D02*
X007852Y001734D01*
X009265Y001635D02*
X009825Y001635D01*
X009825Y001734D02*
X009363Y001734D01*
X009368Y001832D02*
X009848Y001832D01*
X009889Y001931D02*
X009368Y001931D01*
X009368Y002029D02*
X009952Y002029D01*
X010051Y002128D02*
X009368Y002128D01*
X009368Y002226D02*
X010092Y002226D01*
X010092Y002325D02*
X009368Y002325D01*
X009368Y002423D02*
X010092Y002423D01*
X010092Y002522D02*
X009368Y002522D01*
X009310Y002620D02*
X010092Y002620D01*
X010092Y003704D02*
X001153Y003704D01*
X001153Y003802D02*
X010092Y003802D01*
X010092Y003901D02*
X001153Y003901D01*
X001153Y003999D02*
X010092Y003999D01*
X010092Y004098D02*
X001153Y004098D01*
X001153Y004196D02*
X010092Y004196D01*
X010110Y004295D02*
X001153Y004295D01*
X001153Y004393D02*
X010171Y004393D01*
X010270Y004492D02*
X001154Y004492D01*
X001154Y004590D02*
X010368Y004590D01*
X010467Y004689D02*
X001154Y004689D01*
X001154Y004787D02*
X010565Y004787D01*
X009119Y005477D02*
X001155Y005477D01*
X001155Y005575D02*
X008984Y005575D01*
X008885Y005674D02*
X001155Y005674D01*
X001155Y005772D02*
X008839Y005772D01*
X008832Y005871D02*
X001155Y005871D01*
X001155Y005969D02*
X005927Y005969D01*
X005929Y005969D02*
X006214Y005969D01*
X006314Y005969D01*
X006598Y005969D01*
X006636Y005979D01*
X006671Y005998D01*
X006699Y006026D01*
X006718Y006061D01*
X006729Y006099D01*
X006729Y006423D01*
X006314Y006423D01*
X006314Y006523D01*
X006729Y006523D01*
X006729Y006847D01*
X006718Y006885D01*
X006699Y006919D01*
X006671Y006947D01*
X006636Y006967D01*
X006598Y006977D01*
X006314Y006977D01*
X006314Y006523D01*
X006214Y006523D01*
X006214Y006977D01*
X005929Y006977D01*
X005891Y006967D01*
X005857Y006947D01*
X005829Y006919D01*
X005809Y006885D01*
X005799Y006847D01*
X005799Y006523D01*
X006214Y006523D01*
X006214Y006423D01*
X006314Y006423D01*
X006314Y005969D01*
X006314Y006068D02*
X006214Y006068D01*
X006214Y006166D02*
X006314Y006166D01*
X006314Y006265D02*
X006214Y006265D01*
X006214Y006363D02*
X006314Y006363D01*
X006314Y006462D02*
X006841Y006462D01*
X006841Y006560D02*
X006729Y006560D01*
X006729Y006659D02*
X006841Y006659D01*
X006841Y006757D02*
X006729Y006757D01*
X006726Y006856D02*
X006841Y006856D01*
X006881Y006954D02*
X006659Y006954D01*
X006314Y006954D02*
X006214Y006954D01*
X006214Y006856D02*
X006314Y006856D01*
X006314Y006757D02*
X006214Y006757D01*
X006214Y006659D02*
X006314Y006659D01*
X006314Y006560D02*
X006214Y006560D01*
X006214Y006462D02*
X001156Y006462D01*
X001156Y006560D02*
X005799Y006560D01*
X005799Y006659D02*
X001156Y006659D01*
X001156Y006757D02*
X005799Y006757D01*
X005801Y006856D02*
X001156Y006856D01*
X001156Y006954D02*
X003848Y006954D01*
X003810Y007053D02*
X001156Y007053D01*
X001156Y007151D02*
X003810Y007151D01*
X003810Y007250D02*
X002368Y007250D01*
X002404Y007348D02*
X003810Y007348D01*
X003810Y007447D02*
X002404Y007447D01*
X002404Y007545D02*
X003810Y007545D01*
X003810Y007644D02*
X002404Y007644D01*
X002404Y007742D02*
X003810Y007742D01*
X003854Y007841D02*
X002404Y007841D01*
X002404Y007939D02*
X005000Y007939D01*
X004894Y007841D02*
X005210Y007841D01*
X005210Y007742D02*
X004938Y007742D01*
X004938Y007053D02*
X007947Y007053D01*
X007948Y006954D02*
X007851Y006954D01*
X008276Y006462D02*
X008832Y006462D01*
X008832Y006560D02*
X008374Y006560D01*
X008473Y006659D02*
X008832Y006659D01*
X008825Y006757D02*
X008571Y006757D01*
X008670Y006856D02*
X008727Y006856D01*
X008832Y006363D02*
X008177Y006363D01*
X007891Y006265D02*
X008832Y006265D01*
X008832Y006166D02*
X007891Y006166D01*
X007891Y006068D02*
X008832Y006068D01*
X008832Y005969D02*
X007828Y005969D01*
X006904Y005969D02*
X006600Y005969D01*
X006720Y006068D02*
X006841Y006068D01*
X006841Y006166D02*
X006729Y006166D01*
X006729Y006265D02*
X006841Y006265D01*
X006841Y006363D02*
X006729Y006363D01*
X006214Y006423D02*
X006214Y005969D01*
X005929Y005969D02*
X005891Y005979D01*
X005857Y005998D01*
X005829Y006026D01*
X005809Y006061D01*
X005799Y006099D01*
X005799Y006423D01*
X006214Y006423D01*
X005799Y006363D02*
X001156Y006363D01*
X001155Y006265D02*
X005799Y006265D01*
X005799Y006166D02*
X001155Y006166D01*
X001155Y006068D02*
X005807Y006068D01*
X005868Y006954D02*
X004900Y006954D01*
X003867Y008038D02*
X002469Y008038D01*
X002568Y008136D02*
X003810Y008136D01*
X003810Y008826D02*
X001158Y008826D01*
X001158Y008924D02*
X003835Y008924D01*
X003870Y009023D02*
X001158Y009023D01*
X001158Y009121D02*
X003810Y009121D01*
X003810Y009220D02*
X002130Y009220D01*
X002234Y009318D02*
X003810Y009318D01*
X003810Y009417D02*
X002320Y009417D01*
X002360Y009515D02*
X003810Y009515D01*
X003810Y009614D02*
X002401Y009614D01*
X002404Y009712D02*
X003810Y009712D01*
X003810Y009811D02*
X002404Y009811D01*
X002384Y009909D02*
X003832Y009909D01*
X003930Y010008D02*
X002471Y010008D01*
X002569Y010106D02*
X003889Y010106D01*
X003810Y010205D02*
X002668Y010205D01*
X002241Y010599D02*
X001160Y010599D01*
X001160Y010697D02*
X002340Y010697D01*
X002491Y010796D02*
X001160Y010796D01*
X001160Y010894D02*
X003810Y010894D01*
X003813Y010993D02*
X001160Y010993D01*
X001161Y011091D02*
X003900Y011091D01*
X003817Y011190D02*
X002133Y011190D01*
X001454Y011190D02*
X001161Y011190D01*
X001161Y011288D02*
X001352Y011288D01*
X001267Y011387D02*
X001161Y011387D01*
X001161Y011485D02*
X001226Y011485D01*
X001185Y011584D02*
X001161Y011584D01*
X001161Y011682D02*
X001184Y011682D01*
X001184Y011781D02*
X001161Y011781D01*
X001161Y011879D02*
X001204Y011879D01*
X001244Y011978D02*
X001162Y011978D01*
X001162Y012076D02*
X001298Y012076D01*
X001396Y012175D02*
X001162Y012175D01*
X001162Y012273D02*
X001561Y012273D01*
X002026Y012273D02*
X003820Y012273D01*
X003817Y012372D02*
X001162Y012372D01*
X001162Y012470D02*
X003817Y012470D01*
X003817Y012569D02*
X001162Y012569D01*
X001162Y012667D02*
X003817Y012667D01*
X003817Y012766D02*
X001162Y012766D01*
X001162Y012864D02*
X003817Y012864D01*
X003817Y012963D02*
X001163Y012963D01*
X001163Y013061D02*
X003817Y013061D01*
X003897Y013160D02*
X001163Y013160D01*
X001163Y013258D02*
X005580Y013258D01*
X005578Y013264D02*
X005588Y013226D01*
X005608Y013192D01*
X005636Y013164D01*
X005670Y013144D01*
X005708Y013134D01*
X005993Y013134D01*
X005993Y013588D01*
X006093Y013588D01*
X006093Y013134D01*
X006378Y013134D01*
X006416Y013144D01*
X006450Y013164D01*
X006478Y013192D01*
X006498Y013226D01*
X006508Y013264D01*
X006508Y013588D01*
X006093Y013588D01*
X006093Y013688D01*
X006508Y013688D01*
X006508Y014012D01*
X006498Y014050D01*
X006478Y014085D01*
X006450Y014113D01*
X006416Y014132D01*
X006378Y014143D01*
X006093Y014143D01*
X006093Y013688D01*
X005993Y013688D01*
X005993Y013588D01*
X005578Y013588D01*
X005578Y013264D01*
X005578Y013357D02*
X001163Y013357D01*
X001163Y013455D02*
X005578Y013455D01*
X005578Y013554D02*
X001163Y013554D01*
X001163Y013652D02*
X005993Y013652D01*
X005993Y013688D02*
X005578Y013688D01*
X005578Y014012D01*
X005588Y014050D01*
X005608Y014085D01*
X005636Y014113D01*
X005670Y014132D01*
X005708Y014143D01*
X005993Y014143D01*
X005993Y013688D01*
X005993Y013751D02*
X006093Y013751D01*
X006093Y013849D02*
X005993Y013849D01*
X005993Y013948D02*
X006093Y013948D01*
X006093Y014046D02*
X005993Y014046D01*
X006499Y014046D02*
X006621Y014046D01*
X006621Y013948D02*
X006508Y013948D01*
X006508Y013849D02*
X006621Y013849D01*
X006621Y013751D02*
X006508Y013751D01*
X006621Y013652D02*
X006093Y013652D01*
X006093Y013554D02*
X005993Y013554D01*
X005993Y013455D02*
X006093Y013455D01*
X006093Y013357D02*
X005993Y013357D01*
X005993Y013258D02*
X006093Y013258D01*
X006093Y013160D02*
X005993Y013160D01*
X006443Y013160D02*
X006658Y013160D01*
X006621Y013258D02*
X006506Y013258D01*
X006508Y013357D02*
X006621Y013357D01*
X006621Y013455D02*
X006508Y013455D01*
X006508Y013554D02*
X006621Y013554D01*
X007383Y013061D02*
X004946Y013061D01*
X004946Y012963D02*
X007482Y012963D01*
X007613Y012766D02*
X007679Y012766D01*
X007712Y012667D02*
X007777Y012667D01*
X007810Y012569D02*
X007953Y012569D01*
X007947Y012470D02*
X007909Y012470D01*
X008829Y012766D02*
X009043Y012766D01*
X009043Y012864D02*
X008829Y012864D01*
X008817Y012963D02*
X009043Y012963D01*
X009043Y013061D02*
X008763Y013061D01*
X008609Y013160D02*
X009043Y013160D01*
X009064Y013258D02*
X008007Y013258D01*
X007908Y013357D02*
X009129Y013357D01*
X009228Y013455D02*
X007810Y013455D01*
X007711Y013554D02*
X009326Y013554D01*
X009425Y013652D02*
X007670Y013652D01*
X007670Y013751D02*
X009523Y013751D01*
X009622Y013849D02*
X007670Y013849D01*
X007670Y013948D02*
X009698Y013948D01*
X009698Y014046D02*
X007670Y014046D01*
X007605Y014145D02*
X009698Y014145D01*
X009721Y014243D02*
X004480Y014243D01*
X004482Y014244D02*
X004542Y014288D01*
X004595Y014341D01*
X004639Y014401D01*
X004673Y014468D01*
X004696Y014539D01*
X004708Y014613D01*
X004708Y014631D01*
X004252Y014631D01*
X004252Y014669D01*
X004708Y014669D01*
X004708Y014687D01*
X004696Y014761D01*
X004673Y014832D01*
X004639Y014899D01*
X004595Y014959D01*
X004542Y015012D01*
X004482Y015056D01*
X004415Y015090D01*
X004344Y015113D01*
X004270Y015125D01*
X004252Y015125D01*
X004252Y014669D01*
X004214Y014669D01*
X004214Y015125D01*
X004196Y015125D01*
X004122Y015113D01*
X004051Y015090D01*
X003984Y015056D01*
X003923Y015012D01*
X003871Y014959D01*
X003827Y014899D01*
X003793Y014832D01*
X003770Y014761D01*
X003768Y014751D01*
X003768Y015062D01*
X003645Y015185D01*
X002821Y015185D01*
X002698Y015062D01*
X002698Y014238D01*
X002821Y014115D01*
X003645Y014115D01*
X003768Y014238D01*
X003768Y014549D01*
X003770Y014539D01*
X003793Y014468D01*
X003827Y014401D01*
X003871Y014341D01*
X003923Y014288D01*
X003984Y014244D01*
X004051Y014210D01*
X004122Y014187D01*
X004196Y014175D01*
X004214Y014175D01*
X004214Y014631D01*
X004252Y014631D01*
X004252Y014175D01*
X004270Y014175D01*
X004344Y014187D01*
X004415Y014210D01*
X004482Y014244D01*
X004596Y014342D02*
X009820Y014342D01*
X009833Y014440D02*
X004659Y014440D01*
X004696Y014539D02*
X009734Y014539D01*
X010160Y014933D02*
X012438Y014933D01*
X012443Y015031D02*
X010062Y015031D01*
X009916Y015130D02*
X012443Y015130D01*
X012443Y015228D02*
X008165Y015228D01*
X008123Y015327D02*
X012443Y015327D01*
X012443Y015425D02*
X010515Y015425D01*
X010542Y015445D02*
X010595Y015498D01*
X010639Y015559D01*
X010673Y015625D01*
X010696Y015696D01*
X010708Y015770D01*
X010708Y015789D01*
X010252Y015789D01*
X010252Y015826D01*
X010708Y015826D01*
X010708Y015845D01*
X010696Y015919D01*
X010673Y015990D01*
X010639Y016056D01*
X010595Y016117D01*
X010542Y016170D01*
X010482Y016214D01*
X010415Y016248D01*
X010344Y016271D01*
X010270Y016282D01*
X010252Y016282D01*
X010252Y015826D01*
X010214Y015826D01*
X010214Y015789D01*
X009758Y015789D01*
X009758Y015770D01*
X009770Y015696D01*
X009793Y015625D01*
X009827Y015559D01*
X009871Y015498D01*
X009923Y015445D01*
X009984Y015401D01*
X010051Y015367D01*
X010122Y015344D01*
X010196Y015332D01*
X010214Y015332D01*
X010214Y015789D01*
X010252Y015789D01*
X010252Y015332D01*
X010270Y015332D01*
X010344Y015344D01*
X010415Y015367D01*
X010482Y015401D01*
X010542Y015445D01*
X010614Y015524D02*
X012443Y015524D01*
X012443Y015622D02*
X010672Y015622D01*
X010700Y015721D02*
X012443Y015721D01*
X012443Y015819D02*
X010252Y015819D01*
X010214Y015819D02*
X008123Y015819D01*
X008123Y015721D02*
X009766Y015721D01*
X009794Y015622D02*
X008123Y015622D01*
X008123Y015524D02*
X009852Y015524D01*
X009951Y015425D02*
X008123Y015425D01*
X007543Y015425D02*
X002453Y015425D01*
X002480Y015451D02*
X002568Y015665D01*
X002568Y015895D01*
X002480Y016108D01*
X002317Y016272D01*
X002297Y016280D01*
X002317Y016288D01*
X002480Y016451D01*
X002568Y016665D01*
X002568Y016895D01*
X002480Y017108D01*
X002317Y017272D01*
X002217Y017313D01*
X002261Y017335D01*
X002327Y017383D01*
X002385Y017441D01*
X002433Y017507D01*
X002470Y017580D01*
X002495Y017658D01*
X002507Y017730D01*
X002038Y017730D01*
X002038Y017830D01*
X001938Y017830D01*
X001938Y018298D01*
X001866Y018287D01*
X001788Y018262D01*
X001715Y018225D01*
X001649Y018177D01*
X001591Y018119D01*
X001543Y018052D01*
X001506Y017980D01*
X001481Y017902D01*
X001469Y017830D01*
X001938Y017830D01*
X001938Y017730D01*
X001469Y017730D01*
X001481Y017658D01*
X001506Y017580D01*
X001543Y017507D01*
X001591Y017441D01*
X001649Y017383D01*
X001715Y017335D01*
X001759Y017313D01*
X001659Y017272D01*
X001496Y017108D01*
X001408Y016895D01*
X001408Y016665D01*
X001496Y016451D01*
X001659Y016288D01*
X001680Y016280D01*
X001659Y016272D01*
X001496Y016108D01*
X001408Y015895D01*
X001408Y015665D01*
X001496Y015451D01*
X001659Y015288D01*
X001873Y015200D01*
X002103Y015200D01*
X002317Y015288D01*
X002480Y015451D01*
X002510Y015524D02*
X007543Y015524D01*
X007543Y015622D02*
X002550Y015622D01*
X002568Y015721D02*
X007543Y015721D01*
X007543Y015819D02*
X002568Y015819D01*
X002559Y015918D02*
X005262Y015918D01*
X005264Y015917D02*
X005264Y015917D01*
X005265Y015918D02*
X007543Y015918D01*
X007543Y016016D02*
X005769Y016016D01*
X005963Y016115D02*
X007466Y016115D01*
X007377Y016213D02*
X006141Y016213D01*
X006125Y016197D02*
X006125Y016197D01*
X006239Y016312D02*
X007377Y016312D01*
X007377Y016410D02*
X006338Y016410D01*
X006436Y016509D02*
X007377Y016509D01*
X007377Y016607D02*
X006493Y016607D01*
X006543Y016706D02*
X007391Y016706D01*
X007485Y016804D02*
X006593Y016804D01*
X006643Y016903D02*
X007387Y016903D01*
X007377Y017001D02*
X006668Y017001D01*
X006657Y016930D02*
X006657Y016930D01*
X006684Y017100D02*
X007377Y017100D01*
X007377Y017198D02*
X006699Y017198D01*
X006715Y017297D02*
X007377Y017297D01*
X007377Y017395D02*
X006727Y017395D01*
X006711Y017494D02*
X007470Y017494D01*
X007665Y017592D02*
X006695Y017592D01*
X006680Y017691D02*
X007763Y017691D01*
X008157Y017789D02*
X006664Y017789D01*
X006630Y017888D02*
X008157Y017888D01*
X008251Y017986D02*
X006580Y017986D01*
X006530Y018085D02*
X013649Y018085D01*
X013649Y018183D02*
X006480Y018183D01*
X006411Y018282D02*
X013649Y018282D01*
X013649Y018380D02*
X006312Y018380D01*
X006214Y018479D02*
X013679Y018479D01*
X013649Y017986D02*
X013179Y017986D01*
X013221Y017888D02*
X014249Y017888D01*
X014249Y017836D02*
X013649Y017836D01*
X013649Y017366D01*
X013659Y017328D01*
X013679Y017294D01*
X013707Y017266D01*
X013741Y017246D01*
X013779Y017236D01*
X014249Y017236D01*
X014249Y017836D01*
X014249Y017789D02*
X014349Y017789D01*
X014349Y017691D02*
X014249Y017691D01*
X014249Y017592D02*
X014349Y017592D01*
X014349Y017494D02*
X014249Y017494D01*
X014249Y017395D02*
X014349Y017395D01*
X014349Y017297D02*
X014249Y017297D01*
X013678Y017297D02*
X013312Y017297D01*
X013221Y017395D02*
X013649Y017395D01*
X013649Y017494D02*
X013221Y017494D01*
X013221Y017592D02*
X013649Y017592D01*
X013649Y017691D02*
X013221Y017691D01*
X013221Y017789D02*
X013649Y017789D01*
X013411Y017198D02*
X015496Y017198D01*
X015398Y017100D02*
X013509Y017100D01*
X013083Y016706D02*
X013023Y016706D01*
X013023Y016607D02*
X013181Y016607D01*
X013333Y016509D02*
X013023Y016509D01*
X013023Y016410D02*
X023463Y016410D01*
X023561Y016312D02*
X013023Y016312D01*
X013023Y016213D02*
X022621Y016213D01*
X022622Y016213D02*
X022551Y016190D01*
X022484Y016156D01*
X022423Y016112D01*
X022371Y016059D01*
X022327Y015999D01*
X022293Y015932D01*
X022270Y015861D01*
X022258Y015787D01*
X022258Y015769D01*
X022714Y015769D01*
X022714Y016225D01*
X022696Y016225D01*
X022622Y016213D01*
X022714Y016213D02*
X022752Y016213D01*
X022752Y016225D02*
X022752Y015769D01*
X023208Y015769D01*
X023208Y015787D01*
X023196Y015861D01*
X023173Y015932D01*
X023139Y015999D01*
X023095Y016059D01*
X023042Y016112D01*
X022982Y016156D01*
X022915Y016190D01*
X022844Y016213D01*
X022770Y016225D01*
X022752Y016225D01*
X022845Y016213D02*
X023660Y016213D01*
X023743Y016115D02*
X023039Y016115D01*
X023127Y016016D02*
X023743Y016016D01*
X023743Y015918D02*
X023178Y015918D01*
X023203Y015819D02*
X023743Y015819D01*
X023743Y015721D02*
X023208Y015721D01*
X023208Y015713D02*
X023208Y015731D01*
X022752Y015731D01*
X022752Y015769D01*
X022714Y015769D01*
X022714Y015731D01*
X022258Y015731D01*
X022258Y015713D01*
X022270Y015639D01*
X022293Y015568D01*
X022327Y015501D01*
X022371Y015441D01*
X022423Y015388D01*
X022484Y015344D01*
X022551Y015310D01*
X022622Y015287D01*
X022632Y015285D01*
X022321Y015285D01*
X022198Y015162D01*
X022198Y014338D01*
X022321Y014215D01*
X023145Y014215D01*
X023268Y014338D01*
X023268Y015162D01*
X023145Y015285D01*
X022833Y015285D01*
X022844Y015287D01*
X022915Y015310D01*
X022982Y015344D01*
X023042Y015388D01*
X023095Y015441D01*
X023139Y015501D01*
X023173Y015568D01*
X023196Y015639D01*
X023208Y015713D01*
X023191Y015622D02*
X023743Y015622D01*
X023743Y015524D02*
X023151Y015524D01*
X023080Y015425D02*
X023743Y015425D01*
X023770Y015327D02*
X022948Y015327D01*
X023202Y015228D02*
X023845Y015228D01*
X023943Y015130D02*
X023268Y015130D01*
X023268Y015031D02*
X024042Y015031D01*
X024140Y014933D02*
X023268Y014933D01*
X023268Y014834D02*
X024720Y014834D01*
X024622Y014736D02*
X023268Y014736D01*
X023268Y014637D02*
X024608Y014637D01*
X024608Y014522D02*
X024608Y014382D01*
X024848Y014142D01*
X024988Y014142D01*
X024988Y014522D01*
X024608Y014522D01*
X024608Y014440D02*
X023268Y014440D01*
X023268Y014342D02*
X024648Y014342D01*
X024746Y014243D02*
X023173Y014243D01*
X023268Y014539D02*
X024988Y014539D01*
X025048Y014539D02*
X026654Y014539D01*
X026597Y014481D02*
X026597Y014342D01*
X026142Y014342D01*
X025962Y014522D01*
X025573Y014522D01*
X025298Y014246D01*
X025298Y013857D01*
X025573Y013582D01*
X025962Y013582D01*
X026142Y013762D01*
X026597Y013762D01*
X026597Y013598D01*
X026720Y013475D01*
X027524Y013475D01*
X027647Y013598D01*
X027647Y014481D01*
X027524Y014604D01*
X026720Y014604D01*
X026597Y014481D01*
X026597Y014440D02*
X026044Y014440D01*
X026018Y014637D02*
X029026Y014637D01*
X029026Y014539D02*
X028580Y014539D01*
X028597Y014534D02*
X028559Y014544D01*
X028274Y014544D01*
X028274Y014090D01*
X028174Y014090D01*
X028174Y014544D01*
X027890Y014544D01*
X027851Y014534D01*
X027817Y014514D01*
X027789Y014486D01*
X027770Y014452D01*
X027759Y014414D01*
X027759Y014090D01*
X028174Y014090D01*
X028174Y013990D01*
X027759Y013990D01*
X027759Y013666D01*
X027770Y013628D01*
X027789Y013593D01*
X027817Y013565D01*
X027851Y013546D01*
X027890Y013535D01*
X028174Y013535D01*
X028174Y013990D01*
X028274Y013990D01*
X028274Y013535D01*
X028559Y013535D01*
X028597Y013546D01*
X028631Y013565D01*
X028659Y013593D01*
X028679Y013628D01*
X028689Y013666D01*
X028689Y013990D01*
X028274Y013990D01*
X028274Y014090D01*
X028689Y014090D01*
X028689Y014414D01*
X028679Y014452D01*
X028659Y014486D01*
X028631Y014514D01*
X028597Y014534D01*
X028682Y014440D02*
X029026Y014440D01*
X029026Y014342D02*
X028689Y014342D01*
X028689Y014243D02*
X029026Y014243D01*
X029026Y014145D02*
X028689Y014145D01*
X028689Y013948D02*
X029026Y013948D01*
X029026Y014046D02*
X028274Y014046D01*
X028274Y013948D02*
X028174Y013948D01*
X028174Y014046D02*
X027647Y014046D01*
X027647Y013948D02*
X027759Y013948D01*
X027759Y013849D02*
X027647Y013849D01*
X027647Y013751D02*
X027759Y013751D01*
X027763Y013652D02*
X027647Y013652D01*
X027602Y013554D02*
X027838Y013554D01*
X028174Y013554D02*
X028274Y013554D01*
X028274Y013652D02*
X028174Y013652D01*
X028174Y013751D02*
X028274Y013751D01*
X028274Y013849D02*
X028174Y013849D01*
X028174Y014145D02*
X028274Y014145D01*
X028274Y014243D02*
X028174Y014243D01*
X028174Y014342D02*
X028274Y014342D01*
X028274Y014440D02*
X028174Y014440D01*
X028174Y014539D02*
X028274Y014539D01*
X027869Y014539D02*
X027589Y014539D01*
X027647Y014440D02*
X027766Y014440D01*
X027759Y014342D02*
X027647Y014342D01*
X027647Y014243D02*
X027759Y014243D01*
X027759Y014145D02*
X027647Y014145D01*
X026597Y013751D02*
X026131Y013751D01*
X026033Y013652D02*
X026597Y013652D01*
X026642Y013554D02*
X021006Y013554D01*
X021006Y013589D02*
X021151Y013734D01*
X021259Y013995D01*
X021259Y014277D01*
X021151Y014538D01*
X020951Y014738D01*
X020690Y014846D01*
X020408Y014846D01*
X020147Y014738D01*
X019947Y014538D01*
X019839Y014277D01*
X019839Y013995D01*
X019947Y013734D01*
X020147Y013534D01*
X020408Y013426D01*
X020426Y013426D01*
X020426Y013114D01*
X020341Y013028D01*
X020341Y012382D01*
X020464Y012259D01*
X020953Y012259D01*
X021076Y012382D01*
X021076Y013028D01*
X021006Y013098D01*
X021006Y013589D01*
X021069Y013652D02*
X025502Y013652D01*
X025404Y013751D02*
X021158Y013751D01*
X021199Y013849D02*
X025305Y013849D01*
X025298Y013948D02*
X021239Y013948D01*
X021259Y014046D02*
X025298Y014046D01*
X025298Y014145D02*
X025190Y014145D01*
X025187Y014142D02*
X025428Y014382D01*
X025428Y014522D01*
X025048Y014522D01*
X025048Y014142D01*
X025187Y014142D01*
X025048Y014145D02*
X024988Y014145D01*
X024988Y014243D02*
X025048Y014243D01*
X025048Y014342D02*
X024988Y014342D01*
X024988Y014440D02*
X025048Y014440D01*
X025289Y014243D02*
X025298Y014243D01*
X025387Y014342D02*
X025393Y014342D01*
X025428Y014440D02*
X025491Y014440D01*
X025517Y014637D02*
X025428Y014637D01*
X025419Y014736D02*
X025413Y014736D01*
X025320Y014834D02*
X025315Y014834D01*
X026116Y014736D02*
X029026Y014736D01*
X029026Y014834D02*
X026215Y014834D01*
X026238Y014933D02*
X029026Y014933D01*
X029026Y015031D02*
X026238Y015031D01*
X026238Y015130D02*
X029026Y015130D01*
X029026Y015228D02*
X028350Y015228D01*
X028340Y015224D02*
X028553Y015312D01*
X028716Y015475D01*
X028804Y015688D01*
X028804Y015919D01*
X028716Y016132D01*
X028553Y016295D01*
X028533Y016304D01*
X028553Y016312D01*
X028716Y016475D01*
X028804Y016688D01*
X028804Y016919D01*
X028716Y017132D01*
X028553Y017295D01*
X028453Y017337D01*
X028497Y017359D01*
X028563Y017407D01*
X028621Y017465D01*
X028669Y017531D01*
X028706Y017604D01*
X028731Y017682D01*
X028743Y017754D01*
X028274Y017754D01*
X028274Y017854D01*
X028174Y017854D01*
X028174Y018322D01*
X028102Y018311D01*
X028025Y018285D01*
X027952Y018248D01*
X027885Y018200D01*
X027828Y018142D01*
X027780Y018076D01*
X027742Y018003D01*
X027717Y017925D01*
X027706Y017854D01*
X028174Y017854D01*
X028174Y017754D01*
X027706Y017754D01*
X027717Y017682D01*
X027742Y017604D01*
X027780Y017531D01*
X027828Y017465D01*
X027885Y017407D01*
X027952Y017359D01*
X027995Y017337D01*
X027896Y017295D01*
X027733Y017132D01*
X027644Y016919D01*
X027644Y016688D01*
X027733Y016475D01*
X027896Y016312D01*
X027916Y016304D01*
X027896Y016295D01*
X027733Y016132D01*
X027644Y015919D01*
X027644Y015688D01*
X027733Y015475D01*
X027896Y015312D01*
X028109Y015224D01*
X028340Y015224D01*
X028098Y015228D02*
X026238Y015228D01*
X026157Y015327D02*
X027881Y015327D01*
X027783Y015425D02*
X026059Y015425D01*
X025953Y016013D02*
X025953Y016013D01*
X025959Y016016D02*
X027684Y016016D01*
X027644Y015918D02*
X024323Y015918D01*
X024323Y016016D02*
X025040Y016016D01*
X025047Y016013D02*
X025047Y016013D01*
X024847Y016115D02*
X024323Y016115D01*
X024323Y016213D02*
X024654Y016213D01*
X024639Y016221D02*
X024639Y016221D01*
X024548Y016312D02*
X024321Y016312D01*
X024281Y016410D02*
X024449Y016410D01*
X024351Y016509D02*
X024184Y016509D01*
X024315Y016545D02*
X024315Y016545D01*
X024283Y016607D02*
X024086Y016607D01*
X023987Y016706D02*
X024233Y016706D01*
X024183Y016804D02*
X023889Y016804D01*
X023790Y016903D02*
X024132Y016903D01*
X024107Y016953D02*
X024107Y016953D01*
X024099Y017001D02*
X023692Y017001D01*
X023593Y017100D02*
X024083Y017100D01*
X024068Y017198D02*
X023495Y017198D01*
X023396Y017297D02*
X024052Y017297D01*
X024037Y017395D02*
X023298Y017395D01*
X023199Y017494D02*
X024049Y017494D01*
X024035Y017406D02*
X024035Y017406D01*
X024064Y017592D02*
X023101Y017592D01*
X023002Y017691D02*
X024080Y017691D01*
X024096Y017789D02*
X022904Y017789D01*
X022805Y017888D02*
X024121Y017888D01*
X024171Y017986D02*
X022707Y017986D01*
X022608Y018085D02*
X024222Y018085D01*
X024272Y018183D02*
X021195Y018183D01*
X021154Y018282D02*
X024329Y018282D01*
X024315Y018267D02*
X024315Y018267D01*
X024428Y018380D02*
X021059Y018380D01*
X020961Y018479D02*
X024526Y018479D01*
X026474Y018479D02*
X028941Y018479D01*
X029018Y018380D02*
X026572Y018380D01*
X026671Y018282D02*
X028017Y018282D01*
X028174Y018282D02*
X028274Y018282D01*
X028274Y018322D02*
X028346Y018311D01*
X028424Y018285D01*
X028497Y018248D01*
X028563Y018200D01*
X028621Y018142D01*
X028669Y018076D01*
X028706Y018003D01*
X028731Y017925D01*
X028743Y017854D01*
X028274Y017854D01*
X028274Y018322D01*
X028274Y018183D02*
X028174Y018183D01*
X028174Y018085D02*
X028274Y018085D01*
X028274Y017986D02*
X028174Y017986D01*
X028174Y017888D02*
X028274Y017888D01*
X028274Y017789D02*
X029026Y017789D01*
X029026Y017691D02*
X028733Y017691D01*
X028700Y017592D02*
X029026Y017592D01*
X029026Y017494D02*
X028642Y017494D01*
X028547Y017395D02*
X029026Y017395D01*
X029026Y017297D02*
X028550Y017297D01*
X028650Y017198D02*
X029026Y017198D01*
X029026Y017100D02*
X028729Y017100D01*
X028770Y017001D02*
X029026Y017001D01*
X029026Y016903D02*
X028804Y016903D01*
X028804Y016804D02*
X029026Y016804D01*
X029026Y016706D02*
X028804Y016706D01*
X028771Y016607D02*
X029026Y016607D01*
X029026Y016509D02*
X028730Y016509D01*
X028651Y016410D02*
X029026Y016410D01*
X029026Y016312D02*
X028552Y016312D01*
X028635Y016213D02*
X029026Y016213D01*
X029026Y016115D02*
X028723Y016115D01*
X028764Y016016D02*
X029026Y016016D01*
X029026Y015918D02*
X028804Y015918D01*
X028804Y015819D02*
X029026Y015819D01*
X029026Y015721D02*
X028804Y015721D01*
X028777Y015622D02*
X029026Y015622D01*
X029026Y015524D02*
X028736Y015524D01*
X028666Y015425D02*
X029026Y015425D01*
X029026Y015327D02*
X028567Y015327D01*
X027712Y015524D02*
X024369Y015524D01*
X024323Y015622D02*
X027672Y015622D01*
X027644Y015721D02*
X024323Y015721D01*
X024323Y015819D02*
X027644Y015819D01*
X027725Y016115D02*
X026153Y016115D01*
X026346Y016213D02*
X027814Y016213D01*
X027896Y016312D02*
X026452Y016312D01*
X026361Y016221D02*
X026361Y016221D01*
X026361Y016221D01*
X026550Y016410D02*
X027798Y016410D01*
X027719Y016509D02*
X026649Y016509D01*
X026685Y016545D02*
X026685Y016545D01*
X026717Y016607D02*
X027678Y016607D01*
X027644Y016706D02*
X026767Y016706D01*
X026817Y016804D02*
X027644Y016804D01*
X027644Y016903D02*
X026867Y016903D01*
X026893Y016953D02*
X026893Y016953D01*
X026901Y017001D02*
X027678Y017001D01*
X027719Y017100D02*
X026916Y017100D01*
X026932Y017198D02*
X027799Y017198D01*
X027899Y017297D02*
X026948Y017297D01*
X026963Y017395D02*
X027902Y017395D01*
X027807Y017494D02*
X026951Y017494D01*
X026935Y017592D02*
X027748Y017592D01*
X027716Y017691D02*
X026920Y017691D01*
X026904Y017789D02*
X028174Y017789D01*
X027711Y017888D02*
X026878Y017888D01*
X026893Y017859D02*
X026893Y017859D01*
X026828Y017986D02*
X027737Y017986D01*
X027786Y018085D02*
X026778Y018085D01*
X026728Y018183D02*
X027868Y018183D01*
X028432Y018282D02*
X029026Y018282D01*
X029026Y018183D02*
X028580Y018183D01*
X028663Y018085D02*
X029026Y018085D01*
X029026Y017986D02*
X028712Y017986D01*
X028737Y017888D02*
X029026Y017888D01*
X026685Y018267D02*
X026685Y018267D01*
X025500Y015941D02*
X025500Y015941D01*
X023364Y016509D02*
X015574Y016509D01*
X015725Y016607D02*
X023266Y016607D01*
X023167Y016706D02*
X015824Y016706D01*
X015922Y016804D02*
X023069Y016804D01*
X022970Y016903D02*
X016021Y016903D01*
X016119Y017001D02*
X022872Y017001D01*
X022773Y017100D02*
X016218Y017100D01*
X016316Y017198D02*
X020355Y017198D01*
X020135Y017297D02*
X016415Y017297D01*
X016513Y017395D02*
X020036Y017395D01*
X019943Y017494D02*
X016612Y017494D01*
X016710Y017592D02*
X019902Y017592D01*
X019904Y018183D02*
X014949Y018183D01*
X014949Y018085D02*
X016383Y018085D01*
X016284Y017986D02*
X014949Y017986D01*
X014949Y017789D02*
X016087Y017789D01*
X015989Y017691D02*
X014949Y017691D01*
X014949Y017592D02*
X015890Y017592D01*
X015792Y017494D02*
X014949Y017494D01*
X014949Y017395D02*
X015693Y017395D01*
X015595Y017297D02*
X014920Y017297D01*
X014349Y017888D02*
X016186Y017888D01*
X014949Y018282D02*
X019944Y018282D01*
X020039Y018380D02*
X014949Y018380D01*
X014919Y018479D02*
X020137Y018479D01*
X021196Y017592D02*
X022281Y017592D01*
X022379Y017494D02*
X021155Y017494D01*
X021062Y017395D02*
X022478Y017395D01*
X022576Y017297D02*
X020963Y017297D01*
X020743Y017198D02*
X022675Y017198D01*
X022714Y016115D02*
X022752Y016115D01*
X022752Y016016D02*
X022714Y016016D01*
X022714Y015918D02*
X022752Y015918D01*
X022752Y015819D02*
X022714Y015819D01*
X022427Y016115D02*
X013023Y016115D01*
X013023Y016016D02*
X013964Y016016D01*
X013826Y015918D02*
X013023Y015918D01*
X013023Y015819D02*
X013728Y015819D01*
X013669Y015721D02*
X013023Y015721D01*
X013023Y015622D02*
X013628Y015622D01*
X013589Y015524D02*
X013023Y015524D01*
X013023Y015425D02*
X013589Y015425D01*
X013589Y015327D02*
X013023Y015327D01*
X013023Y015228D02*
X013596Y015228D01*
X013637Y015130D02*
X013023Y015130D01*
X013023Y015031D02*
X013678Y015031D01*
X013749Y014933D02*
X013028Y014933D01*
X013098Y014834D02*
X013847Y014834D01*
X013894Y014736D02*
X013139Y014736D01*
X013141Y014637D02*
X013796Y014637D01*
X013697Y014539D02*
X013128Y014539D01*
X013088Y014440D02*
X013656Y014440D01*
X013616Y014342D02*
X013002Y014342D01*
X012817Y014243D02*
X013589Y014243D01*
X013589Y014145D02*
X012638Y014145D01*
X012601Y014046D02*
X013589Y014046D01*
X013609Y013948D02*
X012601Y013948D01*
X012601Y013849D02*
X013650Y013849D01*
X013690Y013751D02*
X012601Y013751D01*
X012601Y013652D02*
X013779Y013652D01*
X013878Y013554D02*
X012601Y013554D01*
X012601Y013455D02*
X014088Y013455D01*
X014510Y013455D02*
X016585Y013455D01*
X016585Y013357D02*
X012601Y013357D01*
X012601Y013258D02*
X016585Y013258D01*
X016585Y013160D02*
X015943Y013160D01*
X016097Y013061D02*
X016585Y013061D01*
X016585Y012963D02*
X016196Y012963D01*
X016294Y012864D02*
X016585Y012864D01*
X016585Y012766D02*
X016393Y012766D01*
X016491Y012667D02*
X016585Y012667D01*
X017565Y012667D02*
X019692Y012667D01*
X019692Y012676D02*
X019692Y012449D01*
X019703Y012411D01*
X019722Y012377D01*
X019750Y012349D01*
X019784Y012329D01*
X019823Y012319D01*
X019971Y012319D01*
X019971Y012676D01*
X020029Y012676D01*
X020029Y012734D01*
X020307Y012734D01*
X020307Y012961D01*
X020297Y012999D01*
X020277Y013033D01*
X020249Y013061D01*
X020215Y013081D01*
X020177Y013091D01*
X020029Y013091D01*
X020029Y012734D01*
X019971Y012734D01*
X019971Y013091D01*
X019823Y013091D01*
X019784Y013081D01*
X019750Y013061D01*
X017565Y013061D01*
X017565Y012963D02*
X019693Y012963D01*
X019692Y012961D02*
X019692Y012734D01*
X019971Y012734D01*
X019971Y012676D01*
X019692Y012676D01*
X019692Y012766D02*
X017565Y012766D01*
X017565Y012864D02*
X019692Y012864D01*
X019692Y012961D02*
X019703Y012999D01*
X019722Y013033D01*
X019750Y013061D01*
X019971Y013061D02*
X020029Y013061D01*
X020029Y012963D02*
X019971Y012963D01*
X019971Y012864D02*
X020029Y012864D01*
X020029Y012766D02*
X019971Y012766D01*
X019971Y012667D02*
X020029Y012667D01*
X020029Y012676D02*
X020029Y012319D01*
X020177Y012319D01*
X020215Y012329D01*
X020249Y012349D01*
X020277Y012377D01*
X020297Y012411D01*
X020307Y012449D01*
X020307Y012676D01*
X020029Y012676D01*
X020029Y012569D02*
X019971Y012569D01*
X019971Y012470D02*
X020029Y012470D01*
X020029Y012372D02*
X019971Y012372D01*
X019728Y012372D02*
X017857Y012372D01*
X017759Y012470D02*
X019692Y012470D01*
X019692Y012569D02*
X017660Y012569D01*
X017956Y012273D02*
X020450Y012273D01*
X020351Y012372D02*
X020272Y012372D01*
X020307Y012470D02*
X020341Y012470D01*
X020341Y012569D02*
X020307Y012569D01*
X020307Y012667D02*
X020341Y012667D01*
X020341Y012766D02*
X020307Y012766D01*
X020307Y012864D02*
X020341Y012864D01*
X020341Y012963D02*
X020307Y012963D01*
X020250Y013061D02*
X020374Y013061D01*
X020426Y013160D02*
X017565Y013160D01*
X017565Y013258D02*
X020426Y013258D01*
X020426Y013357D02*
X018896Y013357D01*
X018892Y013349D02*
X018911Y013383D01*
X018921Y013422D01*
X018921Y013706D01*
X018467Y013706D01*
X018467Y013291D01*
X018791Y013291D01*
X018829Y013302D01*
X018864Y013321D01*
X018892Y013349D01*
X018921Y013455D02*
X020338Y013455D01*
X020128Y013554D02*
X018921Y013554D01*
X018921Y013652D02*
X020029Y013652D01*
X019940Y013751D02*
X018467Y013751D01*
X018467Y013706D02*
X018467Y013806D01*
X018921Y013806D01*
X018921Y014091D01*
X018911Y014129D01*
X018892Y014163D01*
X018864Y014191D01*
X018829Y014211D01*
X018791Y014221D01*
X018467Y014221D01*
X018467Y013806D01*
X018367Y013806D01*
X018367Y013706D01*
X018467Y013706D01*
X018467Y013652D02*
X018367Y013652D01*
X018367Y013706D02*
X018367Y013291D01*
X018043Y013291D01*
X018005Y013302D01*
X017971Y013321D01*
X017943Y013349D01*
X017923Y013383D01*
X017913Y013422D01*
X017913Y013706D01*
X018367Y013706D01*
X018367Y013751D02*
X017565Y013751D01*
X017565Y013849D02*
X017913Y013849D01*
X017913Y013806D02*
X018367Y013806D01*
X018367Y014221D01*
X018043Y014221D01*
X018005Y014211D01*
X017971Y014191D01*
X017943Y014163D01*
X017923Y014129D01*
X017913Y014091D01*
X017913Y013806D01*
X017913Y013948D02*
X017565Y013948D01*
X017565Y014046D02*
X017913Y014046D01*
X017932Y014145D02*
X017565Y014145D01*
X017565Y014243D02*
X019839Y014243D01*
X019839Y014145D02*
X018902Y014145D01*
X018921Y014046D02*
X019839Y014046D01*
X019859Y013948D02*
X018921Y013948D01*
X018921Y013849D02*
X019900Y013849D01*
X019866Y014342D02*
X018866Y014342D01*
X018965Y014440D02*
X019906Y014440D01*
X019947Y014539D02*
X018981Y014539D01*
X018981Y014637D02*
X020046Y014637D01*
X020144Y014736D02*
X018981Y014736D01*
X018981Y014834D02*
X020378Y014834D01*
X020720Y014834D02*
X022198Y014834D01*
X022198Y014736D02*
X020954Y014736D01*
X021052Y014637D02*
X022198Y014637D01*
X022198Y014539D02*
X021151Y014539D01*
X021192Y014440D02*
X022198Y014440D01*
X022198Y014342D02*
X021233Y014342D01*
X021259Y014243D02*
X022293Y014243D01*
X022198Y014933D02*
X018981Y014933D01*
X018981Y015031D02*
X022198Y015031D01*
X022198Y015130D02*
X018981Y015130D01*
X018981Y015228D02*
X022264Y015228D01*
X022386Y015425D02*
X016831Y015425D01*
X016733Y015524D02*
X022315Y015524D01*
X022275Y015622D02*
X016634Y015622D01*
X016536Y015721D02*
X022258Y015721D01*
X022263Y015819D02*
X016368Y015819D01*
X016930Y015327D02*
X017919Y015327D01*
X017853Y015228D02*
X017028Y015228D01*
X017565Y014539D02*
X017853Y014539D01*
X017870Y014440D02*
X017565Y014440D01*
X017565Y014342D02*
X017968Y014342D01*
X018367Y014145D02*
X018467Y014145D01*
X018467Y014046D02*
X018367Y014046D01*
X018367Y013948D02*
X018467Y013948D01*
X018467Y013849D02*
X018367Y013849D01*
X017913Y013652D02*
X017565Y013652D01*
X017565Y013554D02*
X017913Y013554D01*
X017913Y013455D02*
X017565Y013455D01*
X017565Y013357D02*
X017939Y013357D01*
X018367Y013357D02*
X018467Y013357D01*
X018467Y013455D02*
X018367Y013455D01*
X018367Y013554D02*
X018467Y013554D01*
X018054Y012175D02*
X027754Y012175D01*
X027758Y012163D02*
X027797Y012086D01*
X027848Y012016D01*
X027909Y011955D01*
X027979Y011904D01*
X028056Y011865D01*
X028139Y011838D01*
X028218Y011825D01*
X028218Y012324D01*
X028318Y012324D01*
X028318Y012424D01*
X028816Y012424D01*
X028804Y012503D01*
X028777Y012586D01*
X028738Y012663D01*
X028687Y012733D01*
X028626Y012794D01*
X028556Y012845D01*
X028479Y012884D01*
X028396Y012911D01*
X028318Y012923D01*
X028318Y012424D01*
X028218Y012424D01*
X028218Y012324D01*
X027719Y012324D01*
X027731Y012246D01*
X027758Y012163D01*
X027805Y012076D02*
X018153Y012076D01*
X018251Y011978D02*
X027887Y011978D01*
X028028Y011879D02*
X018350Y011879D01*
X018448Y011781D02*
X024117Y011781D01*
X024018Y011682D02*
X018547Y011682D01*
X018645Y011584D02*
X024006Y011584D01*
X024985Y011781D02*
X025692Y011781D01*
X025704Y011793D02*
X025581Y011670D01*
X025581Y010512D01*
X025704Y010389D01*
X026547Y010389D01*
X026665Y010506D01*
X027661Y010506D01*
X027781Y010386D01*
X028755Y010386D01*
X028878Y010509D01*
X028878Y011483D01*
X028755Y011606D01*
X027781Y011606D01*
X027661Y011486D01*
X026670Y011486D01*
X026670Y011670D01*
X026547Y011793D01*
X025704Y011793D01*
X025593Y011682D02*
X025084Y011682D01*
X025096Y011584D02*
X025581Y011584D01*
X025581Y011485D02*
X025096Y011485D01*
X025096Y011387D02*
X025581Y011387D01*
X025581Y011288D02*
X025096Y011288D01*
X025096Y011190D02*
X025581Y011190D01*
X025581Y011091D02*
X025096Y011091D01*
X025096Y010993D02*
X025581Y010993D01*
X025581Y010894D02*
X025096Y010894D01*
X025096Y010796D02*
X025581Y010796D01*
X025581Y010697D02*
X025096Y010697D01*
X025096Y010599D02*
X025581Y010599D01*
X025593Y010500D02*
X025084Y010500D01*
X024985Y010402D02*
X025691Y010402D01*
X026560Y010402D02*
X027766Y010402D01*
X027667Y010500D02*
X026659Y010500D01*
X026670Y011584D02*
X027758Y011584D01*
X028318Y011825D02*
X028396Y011838D01*
X028479Y011865D01*
X028556Y011904D01*
X028626Y011955D01*
X028687Y012016D01*
X028738Y012086D01*
X028777Y012163D01*
X028804Y012246D01*
X028816Y012324D01*
X028318Y012324D01*
X028318Y011825D01*
X028318Y011879D02*
X028218Y011879D01*
X028218Y011978D02*
X028318Y011978D01*
X028318Y012076D02*
X028218Y012076D01*
X028218Y012175D02*
X028318Y012175D01*
X028318Y012273D02*
X028218Y012273D01*
X028218Y012372D02*
X021066Y012372D01*
X021076Y012470D02*
X027726Y012470D01*
X027731Y012503D02*
X027719Y012424D01*
X028218Y012424D01*
X028218Y012923D01*
X028139Y012911D01*
X028056Y012884D01*
X027979Y012845D01*
X027909Y012794D01*
X027848Y012733D01*
X027797Y012663D01*
X027758Y012586D01*
X027731Y012503D01*
X027752Y012569D02*
X021076Y012569D01*
X021076Y012667D02*
X027800Y012667D01*
X027881Y012766D02*
X021076Y012766D01*
X021076Y012864D02*
X028017Y012864D01*
X028218Y012864D02*
X028318Y012864D01*
X028318Y012766D02*
X028218Y012766D01*
X028218Y012667D02*
X028318Y012667D01*
X028318Y012569D02*
X028218Y012569D01*
X028218Y012470D02*
X028318Y012470D01*
X028318Y012372D02*
X029026Y012372D01*
X029026Y012470D02*
X028809Y012470D01*
X028783Y012569D02*
X029026Y012569D01*
X029026Y012667D02*
X028735Y012667D01*
X028654Y012766D02*
X029026Y012766D01*
X029026Y012864D02*
X028518Y012864D01*
X029026Y012963D02*
X021076Y012963D01*
X021043Y013061D02*
X029026Y013061D01*
X029026Y013160D02*
X021006Y013160D01*
X021006Y013258D02*
X029026Y013258D01*
X029026Y013357D02*
X021006Y013357D01*
X021006Y013455D02*
X029026Y013455D01*
X029026Y013554D02*
X028611Y013554D01*
X028686Y013652D02*
X029026Y013652D01*
X029026Y013751D02*
X028689Y013751D01*
X028689Y013849D02*
X029026Y013849D01*
X029026Y012273D02*
X028808Y012273D01*
X028781Y012175D02*
X029026Y012175D01*
X029026Y012076D02*
X028731Y012076D01*
X028648Y011978D02*
X029026Y011978D01*
X029026Y011879D02*
X028507Y011879D01*
X028777Y011584D02*
X029026Y011584D01*
X029026Y011682D02*
X026658Y011682D01*
X026560Y011781D02*
X029026Y011781D01*
X029026Y011485D02*
X028876Y011485D01*
X028878Y011387D02*
X029026Y011387D01*
X029026Y011288D02*
X028878Y011288D01*
X028878Y011190D02*
X029026Y011190D01*
X029026Y011091D02*
X028878Y011091D01*
X028878Y010993D02*
X029026Y010993D01*
X029026Y010894D02*
X028878Y010894D01*
X028878Y010796D02*
X029026Y010796D01*
X029026Y010697D02*
X028878Y010697D01*
X028878Y010599D02*
X029026Y010599D01*
X029026Y010500D02*
X028868Y010500D01*
X028770Y010402D02*
X029026Y010402D01*
X029026Y010303D02*
X022941Y010303D01*
X022941Y010398D02*
X022941Y010074D01*
X022526Y010074D01*
X022426Y010074D01*
X022426Y009974D01*
X022011Y009974D01*
X022011Y009650D01*
X022021Y009612D01*
X022041Y009578D01*
X022069Y009550D01*
X022103Y009530D01*
X022142Y009520D01*
X022426Y009520D01*
X022426Y009974D01*
X022526Y009974D01*
X022526Y009520D01*
X022811Y009520D01*
X022849Y009530D01*
X022883Y009550D01*
X022911Y009578D01*
X022931Y009612D01*
X022941Y009650D01*
X022941Y009974D01*
X022526Y009974D01*
X022526Y010074D01*
X022526Y010528D01*
X022811Y010528D01*
X022849Y010518D01*
X022883Y010498D01*
X022911Y010470D01*
X022931Y010436D01*
X022941Y010398D01*
X022940Y010402D02*
X024117Y010402D01*
X024018Y010500D02*
X022880Y010500D01*
X022941Y010205D02*
X029026Y010205D01*
X029026Y010106D02*
X022941Y010106D01*
X022941Y009909D02*
X029026Y009909D01*
X029026Y009811D02*
X022941Y009811D01*
X022941Y009712D02*
X029026Y009712D01*
X029026Y009614D02*
X022931Y009614D01*
X022526Y009614D02*
X022426Y009614D01*
X022426Y009712D02*
X022526Y009712D01*
X022526Y009811D02*
X022426Y009811D01*
X022426Y009909D02*
X022526Y009909D01*
X022526Y010008D02*
X029026Y010008D01*
X029026Y009515D02*
X021831Y009515D01*
X021899Y009614D02*
X022021Y009614D01*
X022011Y009712D02*
X021899Y009712D01*
X021899Y009811D02*
X022011Y009811D01*
X022011Y009909D02*
X021899Y009909D01*
X021899Y010008D02*
X022426Y010008D01*
X022426Y010074D02*
X022011Y010074D01*
X022011Y010398D01*
X022021Y010436D01*
X022041Y010470D01*
X022069Y010498D01*
X022103Y010518D01*
X022142Y010528D01*
X022426Y010528D01*
X022426Y010074D01*
X022426Y010106D02*
X022526Y010106D01*
X022526Y010205D02*
X022426Y010205D01*
X022426Y010303D02*
X022526Y010303D01*
X022526Y010402D02*
X022426Y010402D01*
X022426Y010500D02*
X022526Y010500D01*
X022072Y010500D02*
X021864Y010500D01*
X021899Y010402D02*
X022012Y010402D01*
X022011Y010303D02*
X021899Y010303D01*
X021899Y010205D02*
X022011Y010205D01*
X022011Y010106D02*
X021899Y010106D01*
X021691Y009417D02*
X029026Y009417D01*
X029026Y009318D02*
X021691Y009318D01*
X021691Y009220D02*
X029026Y009220D01*
X029026Y009121D02*
X024107Y009121D01*
X024057Y009171D02*
X023746Y009171D01*
X023651Y009077D01*
X023557Y009171D01*
X023246Y009171D01*
X023151Y009077D01*
X023057Y009171D01*
X022746Y009171D01*
X022651Y009077D01*
X022557Y009171D01*
X022246Y009171D01*
X022123Y009048D01*
X022123Y008165D01*
X022246Y008042D01*
X022557Y008042D01*
X022651Y008136D01*
X022652Y008136D01*
X022651Y008136D02*
X022746Y008042D01*
X023057Y008042D01*
X023151Y008136D01*
X023152Y008136D01*
X023151Y008136D02*
X023246Y008042D01*
X023557Y008042D01*
X023651Y008136D01*
X023652Y008136D01*
X023651Y008136D02*
X023746Y008042D01*
X024057Y008042D01*
X024180Y008165D01*
X024180Y008317D01*
X025691Y008317D01*
X027085Y006923D01*
X027166Y006841D01*
X027273Y006797D01*
X027581Y006797D01*
X027604Y006743D01*
X027767Y006580D01*
X027849Y006545D01*
X027704Y006400D01*
X027616Y006187D01*
X027616Y005956D01*
X027704Y005743D01*
X027867Y005580D01*
X027915Y005559D01*
X027896Y005553D01*
X027823Y005516D01*
X027757Y005468D01*
X027699Y005410D01*
X027651Y005344D01*
X027614Y005271D01*
X027588Y005193D01*
X027577Y005124D01*
X026420Y006282D01*
X026420Y007058D01*
X026376Y007165D01*
X026013Y007527D01*
X025932Y007608D01*
X025825Y007653D01*
X025355Y007653D01*
X025314Y007751D01*
X025200Y007866D01*
X025050Y007928D01*
X024887Y007928D01*
X024737Y007866D01*
X024622Y007751D01*
X024560Y007601D01*
X024560Y007439D01*
X024560Y007545D02*
X020896Y007545D01*
X020994Y007644D02*
X024578Y007644D01*
X024619Y007742D02*
X021093Y007742D01*
X021161Y007841D02*
X024712Y007841D01*
X025225Y007841D02*
X026167Y007841D01*
X026068Y007939D02*
X021184Y007939D01*
X021184Y008038D02*
X025970Y008038D01*
X025871Y008136D02*
X024151Y008136D01*
X024180Y008235D02*
X025773Y008235D01*
X026199Y008629D02*
X028025Y008629D01*
X028080Y008651D02*
X027867Y008563D01*
X027704Y008400D01*
X027616Y008187D01*
X027616Y007956D01*
X027704Y007743D01*
X027849Y007597D01*
X027767Y007563D01*
X027604Y007400D01*
X027594Y007377D01*
X027451Y007377D01*
X025975Y008853D01*
X025869Y008897D01*
X024180Y008897D01*
X024180Y009048D01*
X024057Y009171D01*
X024180Y009023D02*
X029026Y009023D01*
X029026Y008924D02*
X024180Y008924D01*
X023696Y009121D02*
X023607Y009121D01*
X023196Y009121D02*
X023107Y009121D01*
X022696Y009121D02*
X022607Y009121D01*
X022196Y009121D02*
X021691Y009121D01*
X021691Y009023D02*
X021695Y009023D01*
X021901Y009023D02*
X021901Y009023D01*
X021901Y009111D02*
X021901Y008607D01*
X021901Y008607D01*
X021901Y008607D01*
X022120Y008607D01*
X022120Y008981D01*
X022110Y009019D01*
X022090Y009053D01*
X022062Y009081D01*
X022028Y009101D01*
X021990Y009111D01*
X021901Y009111D01*
X021901Y008924D02*
X021901Y008924D01*
X021901Y008826D02*
X021901Y008826D01*
X021901Y008727D02*
X021901Y008727D01*
X021901Y008629D02*
X021901Y008629D01*
X021901Y008607D02*
X021901Y008607D01*
X021901Y008102D01*
X021990Y008102D01*
X022028Y008113D01*
X022062Y008132D01*
X022090Y008160D01*
X022110Y008194D01*
X022120Y008233D01*
X022120Y008607D01*
X021901Y008607D01*
X021901Y008530D02*
X021901Y008530D01*
X021901Y008432D02*
X021901Y008432D01*
X021901Y008333D02*
X021901Y008333D01*
X021901Y008235D02*
X021901Y008235D01*
X021901Y008136D02*
X021901Y008136D01*
X021737Y008136D02*
X021651Y008136D01*
X021680Y008235D02*
X021683Y008235D01*
X021680Y008333D02*
X021683Y008333D01*
X021680Y008432D02*
X021683Y008432D01*
X022066Y008136D02*
X022152Y008136D01*
X022123Y008235D02*
X022120Y008235D01*
X022120Y008333D02*
X022123Y008333D01*
X022120Y008432D02*
X022123Y008432D01*
X022120Y008530D02*
X022123Y008530D01*
X022120Y008629D02*
X022123Y008629D01*
X022120Y008727D02*
X022123Y008727D01*
X022120Y008826D02*
X022123Y008826D01*
X022120Y008924D02*
X022123Y008924D01*
X022123Y009023D02*
X022108Y009023D01*
X021111Y009121D02*
X021107Y009121D01*
X021111Y009220D02*
X020691Y009220D01*
X020691Y009318D02*
X021111Y009318D01*
X021111Y009417D02*
X020691Y009417D01*
X020691Y009515D02*
X020917Y009515D01*
X020849Y009614D02*
X020691Y009614D01*
X020691Y009712D02*
X020849Y009712D01*
X020849Y009811D02*
X020691Y009811D01*
X020691Y009909D02*
X020849Y009909D01*
X020849Y010008D02*
X020691Y010008D01*
X020691Y010106D02*
X020849Y010106D01*
X020849Y010205D02*
X020691Y010205D01*
X020655Y010303D02*
X020849Y010303D01*
X020849Y010402D02*
X020568Y010402D01*
X020469Y010500D02*
X020884Y010500D01*
X020371Y010599D02*
X024006Y010599D01*
X026002Y008826D02*
X029026Y008826D01*
X029026Y008727D02*
X026101Y008727D01*
X026298Y008530D02*
X027834Y008530D01*
X027736Y008432D02*
X026396Y008432D01*
X026495Y008333D02*
X027676Y008333D01*
X027635Y008235D02*
X026593Y008235D01*
X026692Y008136D02*
X027616Y008136D01*
X027616Y008038D02*
X026790Y008038D01*
X026889Y007939D02*
X027623Y007939D01*
X027663Y007841D02*
X026987Y007841D01*
X027086Y007742D02*
X027705Y007742D01*
X027803Y007644D02*
X027184Y007644D01*
X027283Y007545D02*
X027749Y007545D01*
X027651Y007447D02*
X027381Y007447D01*
X026955Y007053D02*
X026420Y007053D01*
X026420Y006954D02*
X027053Y006954D01*
X027152Y006856D02*
X026420Y006856D01*
X026420Y006757D02*
X027598Y006757D01*
X027688Y006659D02*
X026420Y006659D01*
X026420Y006560D02*
X027814Y006560D01*
X027766Y006462D02*
X026420Y006462D01*
X026420Y006363D02*
X027689Y006363D01*
X027648Y006265D02*
X026437Y006265D01*
X026536Y006166D02*
X027616Y006166D01*
X027616Y006068D02*
X026634Y006068D01*
X026733Y005969D02*
X027616Y005969D01*
X027651Y005871D02*
X026831Y005871D01*
X026930Y005772D02*
X027692Y005772D01*
X027773Y005674D02*
X027028Y005674D01*
X027127Y005575D02*
X027878Y005575D01*
X027769Y005477D02*
X027225Y005477D01*
X027324Y005378D02*
X027676Y005378D01*
X027618Y005280D02*
X027422Y005280D01*
X027521Y005181D02*
X027586Y005181D01*
X027580Y005121D02*
X028046Y005121D01*
X028046Y005021D01*
X027680Y005021D01*
X027580Y005121D01*
X027619Y005083D02*
X028046Y005083D01*
X028146Y005083D02*
X028793Y005083D01*
X026856Y007151D02*
X026381Y007151D01*
X026291Y007250D02*
X026758Y007250D01*
X026659Y007348D02*
X026192Y007348D01*
X026094Y007447D02*
X026561Y007447D01*
X026462Y007545D02*
X025995Y007545D01*
X026013Y007527D02*
X026013Y007527D01*
X025847Y007644D02*
X026364Y007644D01*
X026265Y007742D02*
X025318Y007742D01*
X024662Y007250D02*
X020600Y007250D01*
X020502Y007151D02*
X024793Y007151D01*
X024494Y006462D02*
X023414Y006462D01*
X023316Y006363D02*
X023559Y006363D01*
X023460Y006265D02*
X023217Y006265D01*
X023119Y006166D02*
X023362Y006166D01*
X023263Y006068D02*
X023020Y006068D01*
X022922Y005969D02*
X023165Y005969D01*
X023119Y005871D02*
X022823Y005871D01*
X022725Y005772D02*
X023111Y005772D01*
X023111Y005674D02*
X022626Y005674D01*
X022528Y005575D02*
X023111Y005575D01*
X023111Y005477D02*
X017691Y005477D01*
X018150Y005378D02*
X018153Y005378D01*
X018650Y005378D02*
X018653Y005378D01*
X019150Y005378D02*
X019153Y005378D01*
X019650Y005378D02*
X019653Y005378D01*
X020150Y005378D02*
X020153Y005378D01*
X020650Y005378D02*
X020738Y005378D01*
X020740Y005380D02*
X020712Y005352D01*
X020693Y005318D01*
X020683Y005280D01*
X020683Y004906D01*
X020901Y004906D01*
X020901Y004906D01*
X020683Y004906D01*
X020683Y004532D01*
X020693Y004494D01*
X020712Y004459D01*
X020740Y004432D01*
X020775Y004412D01*
X020813Y004402D01*
X020901Y004402D01*
X020901Y004906D01*
X020901Y005410D01*
X020813Y005410D01*
X020775Y005400D01*
X020740Y005380D01*
X020683Y005280D02*
X020680Y005280D01*
X020680Y005181D02*
X020683Y005181D01*
X020680Y005083D02*
X020683Y005083D01*
X020680Y004984D02*
X020683Y004984D01*
X020680Y004886D02*
X020683Y004886D01*
X020680Y004787D02*
X020683Y004787D01*
X020680Y004689D02*
X020683Y004689D01*
X020680Y004590D02*
X020683Y004590D01*
X020680Y004492D02*
X020694Y004492D01*
X020609Y004393D02*
X021194Y004393D01*
X021123Y004492D02*
X021109Y004492D01*
X021110Y004494D02*
X021120Y004532D01*
X021120Y004906D01*
X021120Y005280D01*
X021110Y005318D01*
X021090Y005352D01*
X021062Y005380D01*
X021028Y005400D01*
X020990Y005410D01*
X020901Y005410D01*
X020901Y004906D01*
X020901Y004906D01*
X020901Y004906D01*
X020901Y004402D01*
X020990Y004402D01*
X021028Y004412D01*
X021062Y004432D01*
X021090Y004459D01*
X021110Y004494D01*
X021120Y004590D02*
X021123Y004590D01*
X021120Y004689D02*
X021123Y004689D01*
X021120Y004787D02*
X021123Y004787D01*
X021120Y004886D02*
X021123Y004886D01*
X021120Y004906D02*
X020901Y004906D01*
X021120Y004906D01*
X021120Y004984D02*
X021123Y004984D01*
X021120Y005083D02*
X021123Y005083D01*
X021120Y005181D02*
X021123Y005181D01*
X021120Y005280D02*
X021123Y005280D01*
X021153Y005378D02*
X021065Y005378D01*
X020901Y005378D02*
X020901Y005378D01*
X020901Y005280D02*
X020901Y005280D01*
X020901Y005181D02*
X020901Y005181D01*
X020901Y005083D02*
X020901Y005083D01*
X020901Y004984D02*
X020901Y004984D01*
X020901Y004906D02*
X020901Y004906D01*
X020901Y004886D02*
X020901Y004886D01*
X020901Y004787D02*
X020901Y004787D01*
X020901Y004689D02*
X020901Y004689D01*
X020901Y004590D02*
X020901Y004590D01*
X020901Y004492D02*
X020901Y004492D01*
X021609Y004393D02*
X021611Y004393D01*
X021611Y004295D02*
X017691Y004295D01*
X017691Y004393D02*
X017694Y004393D01*
X017691Y004196D02*
X021611Y004196D01*
X021312Y003507D02*
X020223Y003507D01*
X020125Y003408D02*
X021214Y003408D01*
X021164Y003310D02*
X020026Y003310D01*
X019928Y003211D02*
X021155Y003211D01*
X021091Y003113D02*
X020515Y003113D01*
X020568Y003014D02*
X021085Y003014D01*
X021085Y002916D02*
X020568Y002916D01*
X020568Y002817D02*
X021085Y002817D01*
X021085Y002719D02*
X020568Y002719D01*
X020568Y002620D02*
X021085Y002620D01*
X021085Y002522D02*
X020568Y002522D01*
X020568Y002423D02*
X021123Y002423D01*
X021101Y002335D02*
X021307Y002335D01*
X021345Y002325D01*
X021379Y002305D01*
X021407Y002278D01*
X021427Y002243D01*
X021437Y002205D01*
X021437Y001960D01*
X021101Y001960D01*
X021001Y001960D01*
X021001Y002335D01*
X020795Y002335D01*
X020757Y002325D01*
X020723Y002305D01*
X020695Y002278D01*
X020675Y002243D01*
X020665Y002205D01*
X020665Y001960D01*
X021001Y001960D01*
X021001Y001860D01*
X020665Y001860D01*
X020665Y001615D01*
X020675Y001576D01*
X020695Y001542D01*
X020723Y001514D01*
X020757Y001494D01*
X020795Y001484D01*
X021001Y001484D01*
X021001Y001860D01*
X021101Y001860D01*
X021101Y001960D01*
X021101Y002335D01*
X021101Y002325D02*
X021001Y002325D01*
X021001Y002226D02*
X021101Y002226D01*
X021101Y002128D02*
X021001Y002128D01*
X021001Y002029D02*
X021101Y002029D01*
X021101Y001931D02*
X021743Y001931D01*
X021743Y002029D02*
X021437Y002029D01*
X021437Y002128D02*
X021743Y002128D01*
X021743Y002226D02*
X021432Y002226D01*
X021346Y002325D02*
X021799Y002325D01*
X021782Y002423D02*
X021831Y002423D01*
X021743Y001832D02*
X021437Y001832D01*
X021437Y001860D02*
X021101Y001860D01*
X021101Y001484D01*
X021307Y001484D01*
X021345Y001494D01*
X021379Y001514D01*
X021407Y001542D01*
X021427Y001576D01*
X021437Y001615D01*
X021437Y001860D01*
X021437Y001734D02*
X021743Y001734D01*
X021743Y001635D02*
X021437Y001635D01*
X021402Y001537D02*
X021749Y001537D01*
X021848Y001438D02*
X020207Y001438D01*
X020305Y001537D02*
X020700Y001537D01*
X020665Y001635D02*
X020316Y001635D01*
X020316Y001734D02*
X020665Y001734D01*
X020665Y001832D02*
X020316Y001832D01*
X020316Y001931D02*
X021001Y001931D01*
X021001Y001832D02*
X021101Y001832D01*
X021101Y001734D02*
X021001Y001734D01*
X021001Y001635D02*
X021101Y001635D01*
X021101Y001537D02*
X021001Y001537D01*
X020665Y002029D02*
X020316Y002029D01*
X020360Y002128D02*
X020665Y002128D01*
X020670Y002226D02*
X020442Y002226D01*
X020479Y002325D02*
X020756Y002325D01*
X019886Y003113D02*
X019829Y003113D01*
X019403Y003507D02*
X018968Y003507D01*
X018981Y003408D02*
X019304Y003408D01*
X019232Y003310D02*
X018981Y003310D01*
X018981Y003211D02*
X019206Y003211D01*
X019177Y003113D02*
X018981Y003113D01*
X018981Y003014D02*
X019124Y003014D01*
X019124Y002916D02*
X018981Y002916D01*
X018981Y002817D02*
X019124Y002817D01*
X019124Y002719D02*
X018981Y002719D01*
X018913Y002620D02*
X019124Y002620D01*
X019124Y002522D02*
X017705Y002522D01*
X017680Y002620D02*
X017922Y002620D01*
X017853Y002719D02*
X017731Y002719D01*
X017757Y002423D02*
X017970Y002423D01*
X017971Y002424D02*
X017943Y002396D01*
X017923Y002361D01*
X017913Y002323D01*
X017913Y002039D01*
X018367Y002039D01*
X018367Y002454D01*
X018043Y002454D01*
X018005Y002443D01*
X017971Y002424D01*
X017913Y002325D02*
X017757Y002325D01*
X017757Y002226D02*
X017913Y002226D01*
X017913Y002128D02*
X017757Y002128D01*
X017757Y002029D02*
X018367Y002029D01*
X018367Y002039D02*
X018367Y001939D01*
X017913Y001939D01*
X017913Y001654D01*
X017923Y001616D01*
X017943Y001582D01*
X017971Y001554D01*
X018005Y001534D01*
X018043Y001524D01*
X018367Y001524D01*
X018367Y001939D01*
X018467Y001939D01*
X018467Y002039D01*
X018367Y002039D01*
X018367Y002128D02*
X018467Y002128D01*
X018467Y002039D02*
X018467Y002454D01*
X018791Y002454D01*
X018829Y002443D01*
X018864Y002424D01*
X018892Y002396D01*
X018911Y002361D01*
X018921Y002323D01*
X018921Y002039D01*
X018467Y002039D01*
X018467Y002029D02*
X019424Y002029D01*
X019424Y001931D02*
X018921Y001931D01*
X018921Y001939D02*
X018921Y001654D01*
X018911Y001616D01*
X018892Y001582D01*
X018864Y001554D01*
X018829Y001534D01*
X018791Y001524D01*
X018467Y001524D01*
X018467Y001939D01*
X018921Y001939D01*
X018921Y001832D02*
X019424Y001832D01*
X019424Y001734D02*
X018921Y001734D01*
X018916Y001635D02*
X019424Y001635D01*
X019434Y001537D02*
X018834Y001537D01*
X018467Y001537D02*
X018367Y001537D01*
X018367Y001635D02*
X018467Y001635D01*
X018467Y001734D02*
X018367Y001734D01*
X018367Y001832D02*
X018467Y001832D01*
X018467Y001931D02*
X018367Y001931D01*
X018367Y002226D02*
X018467Y002226D01*
X018467Y002325D02*
X018367Y002325D01*
X018367Y002423D02*
X018467Y002423D01*
X018864Y002423D02*
X019124Y002423D01*
X019213Y002325D02*
X018921Y002325D01*
X018921Y002226D02*
X019424Y002226D01*
X019424Y002128D02*
X018921Y002128D01*
X017913Y001931D02*
X017757Y001931D01*
X017757Y001832D02*
X017913Y001832D01*
X017913Y001734D02*
X017668Y001734D01*
X017918Y001635D02*
X016895Y001635D01*
X016959Y001734D02*
X017111Y001734D01*
X016796Y001537D02*
X018000Y001537D01*
X017074Y002522D02*
X016996Y002522D01*
X017100Y002620D02*
X016119Y002620D01*
X016119Y002719D02*
X016356Y002719D01*
X016366Y002522D02*
X016054Y002522D01*
X015873Y002423D02*
X016313Y002423D01*
X016313Y002325D02*
X015873Y002325D01*
X016071Y002226D02*
X016313Y002226D01*
X016313Y002128D02*
X016107Y002128D01*
X016107Y002029D02*
X016313Y002029D01*
X016313Y001931D02*
X016107Y001931D01*
X016698Y001438D02*
X019533Y001438D01*
X017079Y002719D02*
X016691Y002719D01*
X016827Y002817D02*
X016981Y002817D01*
X016959Y002916D02*
X016893Y002916D01*
X016932Y003014D02*
X016959Y003014D01*
X016959Y003113D02*
X016932Y003113D01*
X016915Y003211D02*
X016959Y003211D01*
X016959Y003310D02*
X016875Y003310D01*
X016784Y003408D02*
X017040Y003408D01*
X017000Y003507D02*
X016082Y003507D01*
X016119Y003408D02*
X016263Y003408D01*
X016959Y003605D02*
X011778Y003605D01*
X011877Y003704D02*
X016959Y003704D01*
X016959Y003802D02*
X011975Y003802D01*
X012074Y003901D02*
X016959Y003901D01*
X016959Y003999D02*
X014830Y003999D01*
X014928Y004098D02*
X017020Y004098D01*
X017111Y004196D02*
X015027Y004196D01*
X015125Y004295D02*
X017111Y004295D01*
X017111Y004393D02*
X015224Y004393D01*
X015322Y004492D02*
X017111Y004492D01*
X017111Y004590D02*
X015421Y004590D01*
X015519Y004689D02*
X017111Y004689D01*
X017111Y004787D02*
X015618Y004787D01*
X015716Y004886D02*
X017111Y004886D01*
X017111Y004984D02*
X015815Y004984D01*
X015913Y005083D02*
X017111Y005083D01*
X017111Y005181D02*
X016012Y005181D01*
X016110Y005280D02*
X017111Y005280D01*
X017111Y005378D02*
X016209Y005378D01*
X016307Y005477D02*
X017111Y005477D01*
X017111Y005575D02*
X016406Y005575D01*
X016504Y005674D02*
X017111Y005674D01*
X017117Y005772D02*
X016603Y005772D01*
X016701Y005871D02*
X017161Y005871D01*
X017259Y005969D02*
X016800Y005969D01*
X016898Y006068D02*
X022200Y006068D01*
X022299Y006166D02*
X016997Y006166D01*
X017095Y006265D02*
X022397Y006265D01*
X022496Y006363D02*
X017194Y006363D01*
X017292Y006462D02*
X022594Y006462D01*
X022693Y006560D02*
X017391Y006560D01*
X017489Y006659D02*
X022791Y006659D01*
X022890Y006757D02*
X017588Y006757D01*
X017686Y006856D02*
X022988Y006856D01*
X023087Y006954D02*
X017785Y006954D01*
X017392Y008038D02*
X018973Y008038D01*
X018152Y008136D02*
X018066Y008136D01*
X018062Y008132D02*
X018090Y008160D01*
X018110Y008194D01*
X018120Y008233D01*
X018120Y008607D01*
X018120Y008981D01*
X018110Y009019D01*
X018090Y009053D01*
X018062Y009081D01*
X018028Y009101D01*
X017990Y009111D01*
X017901Y009111D01*
X017901Y008607D01*
X017901Y008607D01*
X017901Y008607D01*
X018120Y008607D01*
X017901Y008607D01*
X017901Y008607D01*
X017901Y008102D01*
X017990Y008102D01*
X018028Y008113D01*
X018062Y008132D01*
X018120Y008235D02*
X018123Y008235D01*
X018120Y008333D02*
X018123Y008333D01*
X018120Y008432D02*
X018123Y008432D01*
X018120Y008530D02*
X018123Y008530D01*
X018120Y008629D02*
X018123Y008629D01*
X018120Y008727D02*
X018123Y008727D01*
X018120Y008826D02*
X018123Y008826D01*
X018120Y008924D02*
X018123Y008924D01*
X018123Y009023D02*
X018108Y009023D01*
X018196Y009121D02*
X017607Y009121D01*
X017680Y009023D02*
X017695Y009023D01*
X017683Y008924D02*
X017680Y008924D01*
X017680Y008826D02*
X017683Y008826D01*
X017680Y008727D02*
X017683Y008727D01*
X017901Y008727D02*
X017901Y008727D01*
X017901Y008629D02*
X017901Y008629D01*
X017901Y008530D02*
X017901Y008530D01*
X017901Y008432D02*
X017901Y008432D01*
X017901Y008333D02*
X017901Y008333D01*
X017901Y008235D02*
X017901Y008235D01*
X017901Y008136D02*
X017901Y008136D01*
X017737Y008136D02*
X017651Y008136D01*
X017680Y008235D02*
X017683Y008235D01*
X017680Y008333D02*
X017683Y008333D01*
X017901Y008826D02*
X017901Y008826D01*
X017901Y008924D02*
X017901Y008924D01*
X017901Y009023D02*
X017901Y009023D01*
X018607Y009121D02*
X018615Y009121D01*
X018615Y009220D02*
X016577Y009220D01*
X016586Y009318D02*
X018615Y009318D01*
X017196Y009121D02*
X016577Y009121D01*
X016577Y009023D02*
X017123Y009023D01*
X017123Y008924D02*
X016577Y008924D01*
X016577Y008826D02*
X017123Y008826D01*
X017123Y008727D02*
X016577Y008727D01*
X016577Y008629D02*
X017111Y008629D01*
X017064Y008530D02*
X016577Y008530D01*
X016563Y008432D02*
X016966Y008432D01*
X016867Y008333D02*
X016506Y008333D01*
X016408Y008235D02*
X016769Y008235D01*
X016670Y008136D02*
X016309Y008136D01*
X016211Y008038D02*
X016572Y008038D01*
X016473Y007939D02*
X016112Y007939D01*
X016014Y007841D02*
X016375Y007841D01*
X016184Y007742D02*
X015915Y007742D01*
X016011Y007644D02*
X015817Y007644D01*
X015929Y007545D02*
X013188Y007545D01*
X013287Y007447D02*
X015888Y007447D01*
X015879Y007348D02*
X013385Y007348D01*
X013484Y007250D02*
X015884Y007250D01*
X015925Y007151D02*
X013582Y007151D01*
X013681Y007053D02*
X016000Y007053D01*
X016160Y006954D02*
X013779Y006954D01*
X013878Y006856D02*
X016177Y006856D01*
X016079Y006757D02*
X013976Y006757D01*
X014075Y006659D02*
X015980Y006659D01*
X015882Y006560D02*
X014173Y006560D01*
X014272Y006462D02*
X015783Y006462D01*
X015685Y006363D02*
X014537Y006363D01*
X014630Y006265D02*
X015586Y006265D01*
X015488Y006166D02*
X014670Y006166D01*
X014687Y006068D02*
X015389Y006068D01*
X015291Y005969D02*
X014687Y005969D01*
X014649Y005871D02*
X015192Y005871D01*
X015094Y005772D02*
X014585Y005772D01*
X014452Y005674D02*
X014995Y005674D01*
X014897Y005575D02*
X013650Y005575D01*
X013748Y005674D02*
X014107Y005674D01*
X013974Y005772D02*
X013847Y005772D01*
X013515Y005477D02*
X014798Y005477D01*
X014700Y005378D02*
X001154Y005378D01*
X001154Y005280D02*
X014601Y005280D01*
X014503Y005181D02*
X001154Y005181D01*
X001154Y005083D02*
X014404Y005083D01*
X014306Y004984D02*
X001154Y004984D01*
X001154Y004886D02*
X014207Y004886D01*
X013322Y006068D02*
X009412Y006068D01*
X009412Y006166D02*
X013314Y006166D01*
X013215Y006265D02*
X009412Y006265D01*
X009412Y006363D02*
X013117Y006363D01*
X013018Y006462D02*
X009412Y006462D01*
X009412Y006560D02*
X012920Y006560D01*
X012821Y006659D02*
X009412Y006659D01*
X009412Y006757D02*
X012723Y006757D01*
X012624Y006856D02*
X009412Y006856D01*
X009401Y006954D02*
X010809Y006954D01*
X010782Y007053D02*
X009350Y007053D01*
X009251Y007151D02*
X010782Y007151D01*
X010782Y007250D02*
X009155Y007250D01*
X009155Y007348D02*
X010782Y007348D01*
X010782Y007447D02*
X009155Y007447D01*
X009155Y007545D02*
X010782Y007545D01*
X010782Y007644D02*
X009155Y007644D01*
X009155Y007742D02*
X010782Y007742D01*
X010782Y007841D02*
X009155Y007841D01*
X009155Y007939D02*
X010782Y007939D01*
X010782Y008038D02*
X009155Y008038D01*
X009155Y008136D02*
X010782Y008136D01*
X010782Y008235D02*
X009155Y008235D01*
X009155Y008333D02*
X010782Y008333D01*
X010782Y008432D02*
X009155Y008432D01*
X009155Y008530D02*
X010782Y008530D01*
X010782Y008629D02*
X009155Y008629D01*
X009155Y008727D02*
X010782Y008727D01*
X010782Y008826D02*
X009142Y008826D01*
X009070Y008897D02*
X009070Y008897D01*
X009095Y008924D02*
X010782Y008924D01*
X010782Y009023D02*
X009088Y009023D01*
X009095Y009121D02*
X010782Y009121D01*
X010782Y009220D02*
X009143Y009220D01*
X009155Y009318D02*
X010782Y009318D01*
X010782Y009417D02*
X009155Y009417D01*
X009155Y009515D02*
X010782Y009515D01*
X010782Y009614D02*
X009155Y009614D01*
X009155Y009712D02*
X010782Y009712D01*
X010782Y009811D02*
X009155Y009811D01*
X009155Y009909D02*
X010842Y009909D01*
X010842Y009897D02*
X010866Y009897D01*
X010842Y009897D01*
X010866Y009897D02*
X010866Y009897D01*
X010845Y010008D02*
X009155Y010008D01*
X009155Y010106D02*
X010842Y010106D01*
X010842Y010147D02*
X010866Y010147D01*
X010866Y010147D01*
X010842Y010147D01*
X010809Y010205D02*
X009155Y010205D01*
X009155Y010303D02*
X010782Y010303D01*
X010782Y010402D02*
X009155Y010402D01*
X009155Y010500D02*
X010782Y010500D01*
X010782Y010599D02*
X009155Y010599D01*
X009155Y010697D02*
X010782Y010697D01*
X010782Y010796D02*
X009155Y010796D01*
X009155Y010894D02*
X010782Y010894D01*
X010782Y010993D02*
X009155Y010993D01*
X009155Y011091D02*
X010782Y011091D01*
X010782Y011190D02*
X009155Y011190D01*
X009155Y011288D02*
X010782Y011288D01*
X010782Y011387D02*
X009259Y011387D01*
X009376Y011483D02*
X009376Y011483D01*
X009378Y011485D02*
X010782Y011485D01*
X010782Y011584D02*
X009477Y011584D01*
X009575Y011682D02*
X010782Y011682D01*
X010782Y011781D02*
X009618Y011781D01*
X009623Y011879D02*
X010782Y011879D01*
X010782Y011978D02*
X009623Y011978D01*
X009623Y012076D02*
X010782Y012076D01*
X010782Y012175D02*
X009623Y012175D01*
X009623Y012273D02*
X010782Y012273D01*
X010782Y012372D02*
X009623Y012372D01*
X009623Y012470D02*
X010782Y012470D01*
X010788Y012569D02*
X009623Y012569D01*
X009623Y012667D02*
X010886Y012667D01*
X009851Y013258D02*
X012021Y013258D01*
X012021Y013160D02*
X009753Y013160D01*
X009654Y013061D02*
X012021Y013061D01*
X012021Y012963D02*
X009623Y012963D01*
X009623Y012864D02*
X012021Y012864D01*
X012021Y012766D02*
X009623Y012766D01*
X010729Y013357D02*
X012021Y013357D01*
X012021Y013455D02*
X010768Y013455D01*
X010768Y013554D02*
X012021Y013554D01*
X012021Y013652D02*
X010768Y013652D01*
X010768Y013751D02*
X012021Y013751D01*
X012021Y013849D02*
X010768Y013849D01*
X010768Y013948D02*
X012021Y013948D01*
X012021Y014046D02*
X010768Y014046D01*
X010768Y014145D02*
X012021Y014145D01*
X012021Y014243D02*
X010744Y014243D01*
X010646Y014342D02*
X012044Y014342D01*
X012113Y014440D02*
X010523Y014440D01*
X010510Y014539D02*
X012211Y014539D01*
X012310Y014637D02*
X010456Y014637D01*
X010357Y014736D02*
X012327Y014736D01*
X012367Y014834D02*
X010259Y014834D01*
X010252Y015425D02*
X010214Y015425D01*
X010214Y015524D02*
X010252Y015524D01*
X010252Y015622D02*
X010214Y015622D01*
X010214Y015721D02*
X010252Y015721D01*
X010214Y015826D02*
X009758Y015826D01*
X009758Y015845D01*
X009770Y015919D01*
X009793Y015990D01*
X009827Y016056D01*
X009871Y016117D01*
X009923Y016170D01*
X009984Y016214D01*
X010051Y016248D01*
X010122Y016271D01*
X010196Y016282D01*
X010214Y016282D01*
X010214Y015826D01*
X010214Y015918D02*
X010252Y015918D01*
X010252Y016016D02*
X010214Y016016D01*
X010214Y016115D02*
X010252Y016115D01*
X010252Y016213D02*
X010214Y016213D01*
X009983Y016213D02*
X008270Y016213D01*
X008270Y016312D02*
X012443Y016312D01*
X012443Y016410D02*
X008270Y016410D01*
X008270Y016509D02*
X012443Y016509D01*
X012443Y016607D02*
X008270Y016607D01*
X008256Y016706D02*
X012443Y016706D01*
X012443Y016804D02*
X008162Y016804D01*
X008260Y016903D02*
X008263Y016903D01*
X008181Y016115D02*
X009869Y016115D01*
X009806Y016016D02*
X008123Y016016D01*
X008123Y015918D02*
X009769Y015918D01*
X010483Y016213D02*
X012443Y016213D01*
X012443Y016115D02*
X010597Y016115D01*
X010660Y016016D02*
X012443Y016016D01*
X012443Y015918D02*
X010696Y015918D01*
X010157Y016956D02*
X010119Y016946D01*
X009834Y016946D01*
X009834Y017400D01*
X009734Y017400D01*
X009319Y017400D01*
X009319Y017076D01*
X009329Y017038D01*
X009349Y017004D01*
X009377Y016976D01*
X009411Y016956D01*
X009449Y016946D01*
X009734Y016946D01*
X009734Y017400D01*
X009734Y017500D01*
X009319Y017500D01*
X009319Y017824D01*
X009329Y017862D01*
X009349Y017896D01*
X009377Y017924D01*
X009411Y017944D01*
X009449Y017954D01*
X009734Y017954D01*
X009734Y017500D01*
X009834Y017500D01*
X009834Y017954D01*
X010119Y017954D01*
X010157Y017944D01*
X010191Y017924D01*
X010219Y017896D01*
X010239Y017862D01*
X010249Y017824D01*
X010249Y017500D01*
X009834Y017500D01*
X009834Y017400D01*
X010249Y017400D01*
X010249Y017076D01*
X010239Y017038D01*
X010219Y017004D01*
X010191Y016976D01*
X010157Y016956D01*
X010217Y017001D02*
X011249Y017001D01*
X011259Y016998D02*
X011544Y016998D01*
X011544Y017453D01*
X011644Y017453D01*
X011644Y017553D01*
X012059Y017553D01*
X012059Y017877D01*
X012048Y017915D01*
X012029Y017949D01*
X012001Y017977D01*
X011966Y017997D01*
X011928Y018007D01*
X011644Y018007D01*
X011644Y017553D01*
X011544Y017553D01*
X011544Y018007D01*
X011259Y018007D01*
X011221Y017997D01*
X011186Y017977D01*
X011159Y017949D01*
X011139Y017915D01*
X011129Y017877D01*
X011129Y017553D01*
X011544Y017553D01*
X011544Y017453D01*
X011129Y017453D01*
X011129Y017129D01*
X011139Y017091D01*
X011159Y017056D01*
X011186Y017028D01*
X011221Y017009D01*
X011259Y016998D01*
X011136Y017100D02*
X010249Y017100D01*
X010249Y017198D02*
X011129Y017198D01*
X011129Y017297D02*
X010249Y017297D01*
X010249Y017395D02*
X011129Y017395D01*
X011129Y017592D02*
X010249Y017592D01*
X010249Y017691D02*
X011129Y017691D01*
X011129Y017789D02*
X010249Y017789D01*
X010224Y017888D02*
X011131Y017888D01*
X011202Y017986D02*
X009112Y017986D01*
X009207Y017888D02*
X009344Y017888D01*
X009319Y017789D02*
X009207Y017789D01*
X009207Y017691D02*
X009319Y017691D01*
X009319Y017592D02*
X009207Y017592D01*
X009207Y017494D02*
X009734Y017494D01*
X009734Y017592D02*
X009834Y017592D01*
X009834Y017494D02*
X011544Y017494D01*
X011544Y017592D02*
X011644Y017592D01*
X011644Y017494D02*
X012171Y017494D01*
X012171Y017592D02*
X012059Y017592D01*
X012059Y017691D02*
X012171Y017691D01*
X012171Y017789D02*
X012059Y017789D01*
X012056Y017888D02*
X012171Y017888D01*
X012213Y017986D02*
X011985Y017986D01*
X011644Y017986D02*
X011544Y017986D01*
X011544Y017888D02*
X011644Y017888D01*
X011644Y017789D02*
X011544Y017789D01*
X011544Y017691D02*
X011644Y017691D01*
X011644Y017453D02*
X012059Y017453D01*
X012059Y017129D01*
X012048Y017091D01*
X012029Y017056D01*
X012001Y017028D01*
X011966Y017009D01*
X011928Y016998D01*
X011644Y016998D01*
X011644Y017453D01*
X011644Y017395D02*
X011544Y017395D01*
X011544Y017297D02*
X011644Y017297D01*
X011644Y017198D02*
X011544Y017198D01*
X011544Y017100D02*
X011644Y017100D01*
X011644Y017001D02*
X011544Y017001D01*
X011938Y017001D02*
X012231Y017001D01*
X012171Y017100D02*
X012051Y017100D01*
X012059Y017198D02*
X012171Y017198D01*
X012171Y017297D02*
X012059Y017297D01*
X012059Y017395D02*
X012171Y017395D01*
X012443Y016903D02*
X009101Y016903D01*
X009199Y017001D02*
X009352Y017001D01*
X009319Y017100D02*
X009207Y017100D01*
X009207Y017198D02*
X009319Y017198D01*
X009319Y017297D02*
X009207Y017297D01*
X009207Y017395D02*
X009319Y017395D01*
X009734Y017395D02*
X009834Y017395D01*
X009834Y017297D02*
X009734Y017297D01*
X009734Y017198D02*
X009834Y017198D01*
X009834Y017100D02*
X009734Y017100D01*
X009734Y017001D02*
X009834Y017001D01*
X009834Y017691D02*
X009734Y017691D01*
X009734Y017789D02*
X009834Y017789D01*
X009834Y017888D02*
X009734Y017888D01*
X007543Y015327D02*
X002355Y015327D01*
X002171Y015228D02*
X007543Y015228D01*
X007543Y015130D02*
X003700Y015130D01*
X003768Y015031D02*
X003949Y015031D01*
X003851Y014933D02*
X003768Y014933D01*
X003768Y014834D02*
X003794Y014834D01*
X003770Y014539D02*
X003768Y014539D01*
X003768Y014440D02*
X003807Y014440D01*
X003768Y014342D02*
X003870Y014342D01*
X003768Y014243D02*
X003985Y014243D01*
X004214Y014243D02*
X004252Y014243D01*
X004252Y014342D02*
X004214Y014342D01*
X004214Y014440D02*
X004252Y014440D01*
X004252Y014539D02*
X004214Y014539D01*
X004252Y014637D02*
X007936Y014637D01*
X007837Y014736D02*
X004700Y014736D01*
X004672Y014834D02*
X007739Y014834D01*
X007640Y014933D02*
X004615Y014933D01*
X004517Y015031D02*
X007568Y015031D01*
X006686Y014145D02*
X003674Y014145D01*
X004214Y014736D02*
X004252Y014736D01*
X004252Y014834D02*
X004214Y014834D01*
X004214Y014933D02*
X004252Y014933D01*
X004252Y015031D02*
X004214Y015031D01*
X005587Y014046D02*
X001164Y014046D01*
X001164Y013948D02*
X005578Y013948D01*
X005578Y013849D02*
X001164Y013849D01*
X001163Y013751D02*
X005578Y013751D01*
X005644Y013160D02*
X004866Y013160D01*
X004943Y012273D02*
X005384Y012273D01*
X005286Y012175D02*
X004845Y012175D01*
X004847Y012076D02*
X005237Y012076D01*
X005210Y011978D02*
X004946Y011978D01*
X004946Y011879D02*
X005210Y011879D01*
X005238Y011781D02*
X004946Y011781D01*
X004946Y011682D02*
X005288Y011682D01*
X003916Y012076D02*
X002289Y012076D01*
X002343Y011978D02*
X003818Y011978D01*
X003817Y011879D02*
X002383Y011879D01*
X002191Y012175D02*
X003918Y012175D01*
X002143Y010500D02*
X001160Y010500D01*
X001160Y010402D02*
X002044Y010402D01*
X001557Y010303D02*
X001160Y010303D01*
X001160Y010205D02*
X001395Y010205D01*
X001296Y010106D02*
X001160Y010106D01*
X001159Y010008D02*
X001244Y010008D01*
X001203Y009909D02*
X001159Y009909D01*
X001159Y009811D02*
X001184Y009811D01*
X001184Y009712D02*
X001159Y009712D01*
X001159Y009614D02*
X001186Y009614D01*
X001159Y009515D02*
X001227Y009515D01*
X001268Y009417D02*
X001159Y009417D01*
X001159Y009318D02*
X001353Y009318D01*
X001457Y009220D02*
X001159Y009220D01*
X001158Y008727D02*
X002338Y008727D01*
X002240Y008629D02*
X001158Y008629D01*
X001158Y008530D02*
X002141Y008530D01*
X002043Y008432D02*
X001158Y008432D01*
X001158Y008333D02*
X001258Y008333D01*
X001184Y008235D02*
X001158Y008235D01*
X001157Y008136D02*
X001184Y008136D01*
X001184Y008038D02*
X001157Y008038D01*
X001157Y007939D02*
X001184Y007939D01*
X001184Y007841D02*
X001157Y007841D01*
X001157Y007742D02*
X001184Y007742D01*
X001184Y007644D02*
X001157Y007644D01*
X001157Y007545D02*
X001184Y007545D01*
X001184Y007447D02*
X001157Y007447D01*
X001157Y007348D02*
X001184Y007348D01*
X001156Y007250D02*
X001219Y007250D01*
X008551Y008937D02*
X008551Y009108D01*
X008551Y009108D01*
X008551Y008937D01*
X008551Y008937D01*
X008551Y009023D02*
X008551Y009023D01*
X011386Y009147D02*
X012574Y009147D01*
X011387Y008898D02*
X011386Y008897D01*
X011386Y008426D02*
X011386Y008397D01*
X011386Y009937D02*
X011386Y010108D01*
X011386Y009937D01*
X011386Y009937D01*
X011386Y010008D02*
X011386Y010008D01*
X011386Y010106D02*
X011386Y010106D01*
X011386Y010108D02*
X011386Y010108D01*
X011389Y010394D02*
X012921Y010394D01*
X013413Y010886D01*
X013413Y011595D01*
X013531Y011713D01*
X013953Y011713D01*
X014012Y011772D01*
X012874Y012667D02*
X012601Y012667D01*
X012601Y012569D02*
X012776Y012569D01*
X012677Y012470D02*
X012601Y012470D01*
X012601Y012766D02*
X012973Y012766D01*
X013071Y012864D02*
X012601Y012864D01*
X012601Y012963D02*
X013170Y012963D01*
X013268Y013061D02*
X012601Y013061D01*
X012601Y013160D02*
X013423Y013160D01*
X014720Y013554D02*
X016585Y013554D01*
X016585Y013652D02*
X014819Y013652D01*
X014908Y013751D02*
X016585Y013751D01*
X016585Y013849D02*
X014949Y013849D01*
X014989Y013948D02*
X016585Y013948D01*
X016585Y014046D02*
X015009Y014046D01*
X015009Y014145D02*
X016585Y014145D01*
X016585Y014243D02*
X015009Y014243D01*
X014983Y014342D02*
X016529Y014342D01*
X016430Y014440D02*
X014942Y014440D01*
X014901Y014539D02*
X016332Y014539D01*
X016233Y014637D02*
X014802Y014637D01*
X014704Y014736D02*
X016135Y014736D01*
X016036Y014834D02*
X014751Y014834D01*
X014772Y015918D02*
X022288Y015918D01*
X022339Y016016D02*
X014634Y016016D01*
X018916Y015327D02*
X022518Y015327D01*
X021259Y014145D02*
X024845Y014145D01*
X027727Y012273D02*
X020967Y012273D01*
X020696Y009121D02*
X020691Y009121D01*
X020396Y007053D02*
X023185Y007053D01*
X023128Y006995D02*
X023128Y006995D01*
X022653Y005378D02*
X022650Y005378D01*
X022153Y005378D02*
X022150Y005378D01*
X021653Y005378D02*
X021650Y005378D01*
X020194Y004393D02*
X020109Y004393D01*
X019994Y004098D02*
X017790Y004098D01*
X017852Y003999D02*
X019895Y003999D01*
X019797Y003901D02*
X017852Y003901D01*
X017852Y003802D02*
X019698Y003802D01*
X019600Y003704D02*
X017852Y003704D01*
X017852Y003605D02*
X017965Y003605D01*
X017866Y003507D02*
X017811Y003507D01*
X017771Y003408D02*
X017853Y003408D01*
X018109Y004393D02*
X018194Y004393D01*
X018609Y004393D02*
X018694Y004393D01*
X019109Y004393D02*
X019194Y004393D01*
X019609Y004393D02*
X019694Y004393D01*
X019501Y003605D02*
X018869Y003605D01*
X015107Y003507D02*
X014892Y003507D01*
X014955Y003408D02*
X015069Y003408D01*
X015069Y003310D02*
X014957Y003310D01*
X014957Y003211D02*
X015069Y003211D01*
X015069Y003113D02*
X014957Y003113D01*
X014882Y002226D02*
X015094Y002226D01*
X015058Y002128D02*
X014944Y002128D01*
X014945Y002029D02*
X015058Y002029D01*
X015058Y001931D02*
X014945Y001931D01*
X014945Y001832D02*
X015058Y001832D01*
X014530Y001832D02*
X014430Y001832D01*
X014430Y001931D02*
X014530Y001931D01*
X014530Y002029D02*
X014430Y002029D01*
X014430Y002128D02*
X014530Y002128D01*
X014530Y002226D02*
X014430Y002226D01*
X014430Y001537D02*
X014530Y001537D01*
X014530Y001438D02*
X014430Y001438D01*
X014430Y001340D02*
X014530Y001340D01*
X023320Y002128D02*
X023420Y002128D01*
X023420Y002226D02*
X023320Y002226D01*
X023320Y002325D02*
X023420Y002325D01*
X026464Y001143D02*
X028904Y001143D01*
X028997Y001241D02*
X026562Y001241D01*
X026661Y001340D02*
X029025Y001340D01*
X029026Y001438D02*
X026723Y001438D01*
X026685Y001364D02*
X026685Y001364D01*
X028442Y007545D02*
X028524Y007580D01*
X028687Y007743D01*
X028776Y007956D01*
X028776Y008187D01*
X028687Y008400D01*
X028524Y008563D01*
X028311Y008651D01*
X028080Y008651D01*
X028366Y008629D02*
X029026Y008629D01*
X029026Y008530D02*
X028557Y008530D01*
X028655Y008432D02*
X029026Y008432D01*
X029026Y008333D02*
X028715Y008333D01*
X028756Y008235D02*
X029026Y008235D01*
X029026Y008136D02*
X028776Y008136D01*
X028776Y008038D02*
X029026Y008038D01*
X029026Y007939D02*
X028769Y007939D01*
X028728Y007841D02*
X029026Y007841D01*
X029026Y007742D02*
X028687Y007742D01*
X028588Y007644D02*
X029026Y007644D01*
X014732Y009705D02*
X014732Y009926D01*
X011389Y010394D02*
X011386Y010397D01*
X004811Y015989D02*
X004811Y015989D01*
X004758Y016016D02*
X002518Y016016D01*
X002474Y016115D02*
X004565Y016115D01*
X004403Y016197D02*
X004403Y016197D01*
X004387Y016213D02*
X002375Y016213D01*
X002340Y016312D02*
X004288Y016312D01*
X004190Y016410D02*
X002438Y016410D01*
X002503Y016509D02*
X004091Y016509D01*
X004078Y016521D02*
X004078Y016521D01*
X004035Y016607D02*
X002544Y016607D01*
X002568Y016706D02*
X003984Y016706D01*
X003934Y016804D02*
X002568Y016804D01*
X002565Y016903D02*
X003884Y016903D01*
X003859Y017001D02*
X002524Y017001D01*
X002483Y017100D02*
X003843Y017100D01*
X003828Y017198D02*
X002390Y017198D01*
X002256Y017297D02*
X003812Y017297D01*
X003799Y017382D02*
X003799Y017382D01*
X003801Y017395D02*
X002339Y017395D01*
X002423Y017494D02*
X003816Y017494D01*
X003832Y017592D02*
X002474Y017592D01*
X002500Y017691D02*
X003847Y017691D01*
X003863Y017789D02*
X002038Y017789D01*
X002038Y017830D02*
X002507Y017830D01*
X002495Y017902D01*
X002470Y017980D01*
X002433Y018052D01*
X002385Y018119D01*
X002327Y018177D01*
X002261Y018225D01*
X002188Y018262D01*
X002110Y018287D01*
X002038Y018298D01*
X002038Y017830D01*
X002038Y017888D02*
X001938Y017888D01*
X001938Y017986D02*
X002038Y017986D01*
X002038Y018085D02*
X001938Y018085D01*
X001938Y018183D02*
X002038Y018183D01*
X002038Y018282D02*
X001938Y018282D01*
X001849Y018282D02*
X001168Y018282D01*
X001168Y018380D02*
X004215Y018380D01*
X004117Y018282D02*
X002127Y018282D01*
X002318Y018183D02*
X004048Y018183D01*
X004078Y018243D02*
X004078Y018243D01*
X003997Y018085D02*
X002409Y018085D01*
X002467Y017986D02*
X003947Y017986D01*
X003897Y017888D02*
X002497Y017888D01*
X001938Y017789D02*
X001168Y017789D01*
X001168Y017691D02*
X001476Y017691D01*
X001502Y017592D02*
X001168Y017592D01*
X001167Y017494D02*
X001553Y017494D01*
X001638Y017395D02*
X001167Y017395D01*
X001167Y017297D02*
X001720Y017297D01*
X001586Y017198D02*
X001167Y017198D01*
X001167Y017100D02*
X001493Y017100D01*
X001452Y017001D02*
X001167Y017001D01*
X001167Y016903D02*
X001411Y016903D01*
X001408Y016804D02*
X001167Y016804D01*
X001167Y016706D02*
X001408Y016706D01*
X001432Y016607D02*
X001166Y016607D01*
X001166Y016509D02*
X001473Y016509D01*
X001538Y016410D02*
X001166Y016410D01*
X001166Y016312D02*
X001636Y016312D01*
X001601Y016213D02*
X001166Y016213D01*
X001166Y016115D02*
X001502Y016115D01*
X001458Y016016D02*
X001166Y016016D01*
X001166Y015918D02*
X001417Y015918D01*
X001408Y015819D02*
X001166Y015819D01*
X001166Y015721D02*
X001408Y015721D01*
X001426Y015622D02*
X001165Y015622D01*
X001165Y015524D02*
X001466Y015524D01*
X001523Y015425D02*
X001165Y015425D01*
X001165Y015327D02*
X001621Y015327D01*
X001805Y015228D02*
X001165Y015228D01*
X001165Y015130D02*
X002765Y015130D01*
X002698Y015031D02*
X001165Y015031D01*
X001165Y014933D02*
X002698Y014933D01*
X002698Y014834D02*
X001165Y014834D01*
X001164Y014736D02*
X002698Y014736D01*
X002698Y014637D02*
X001164Y014637D01*
X001164Y014539D02*
X002698Y014539D01*
X002698Y014440D02*
X001164Y014440D01*
X001164Y014342D02*
X002698Y014342D01*
X002698Y014243D02*
X001164Y014243D01*
X001164Y014145D02*
X002791Y014145D01*
X003870Y017835D02*
X003870Y017835D01*
X004314Y018479D02*
X001237Y018479D01*
X001168Y018183D02*
X001658Y018183D01*
X001567Y018085D02*
X001168Y018085D01*
X001168Y017986D02*
X001509Y017986D01*
X001479Y017888D02*
X001168Y017888D01*
D32*
X014299Y015386D02*
X014331Y015355D01*
X016209Y015355D01*
X016710Y014853D01*
X017075Y014489D01*
X017075Y012461D01*
X018445Y011091D01*
X024551Y011091D01*
X026126Y011091D02*
X026220Y010996D01*
X028268Y010996D01*
M02*
