%
M48
M72
T01C0.0197
T02C0.0236
T03C0.0276
T04C0.0320
T05C0.0400
T06C0.0472
T07C0.0512
T08C0.0550
T09C0.1200
%
T01
X9468Y8522
X9468Y9022
X9468Y9522
X9968Y9522
X9968Y9022
X9968Y8522
X10468Y8522
X10468Y9022
X10468Y9522
X10468Y10022
X9968Y10022
X9468Y10022
X9468Y10522
X9468Y11022
X9968Y11022
X9968Y10522
X10468Y10522
X10468Y11022
T02
X12449Y11496
X16287Y10493
X12527Y8386
X12333Y6450
X11633Y6450
X14279Y6044
X16287Y7343
X16523Y3091
X8533Y6350
X5618Y7815
X6633Y8550
X5618Y9823
X6633Y10650
X6733Y11350
X5618Y11930
X12733Y14650
X24968Y7520
X24771Y6162
T03
X22733Y14750
X22733Y15750
X10233Y15807
X10233Y13807
X4233Y14650
X3233Y14650
X7833Y2150
X8833Y2150
T04
X25768Y14052
X25018Y14552
X25768Y15052
T05
X28224Y15804
X28224Y16804
X28224Y17804
X28196Y8071
X28096Y7071
X28196Y6071
X28096Y5071
X28196Y4071
X28096Y3071
X11405Y1662
X10405Y1662
X1988Y15780
X1988Y16780
X1988Y17780
T06
X28268Y12374
X28268Y10996
T07
X1794Y11709
X1794Y9741
X1794Y7772
T08
X14299Y14136
X14299Y15386
X14299Y17886
X20549Y17886
X20549Y14136
T09
X5264Y2225
X25500Y2225
X5264Y17382
X25500Y17406
M30
