G75*
G70*
%OFA0B0*%
%FSLAX24Y24*%
%IPPOS*%
%LPD*%
%AMOC8*
5,1,8,0,0,1.08239X$1,22.5*
%
%ADD10C,0.1080*%
%ADD11R,0.1080X0.1080*%
%ADD12R,0.0880X0.0880*%
%ADD13C,0.0880*%
%ADD14C,0.0820*%
%ADD15R,0.0477X0.0477*%
%ADD16OC8,0.0600*%
%ADD17R,0.0789X0.0710*%
%ADD18C,0.1280*%
%ADD19R,0.1460X0.2080*%
%ADD20R,0.2080X0.1460*%
%ADD21C,0.0730*%
%ADD22R,0.0730X0.0730*%
%ADD23C,0.0476*%
D10*
X014299Y014136D03*
X014299Y015386D03*
X020549Y014136D03*
X020549Y017886D03*
D11*
X014299Y017886D03*
D12*
X028268Y010996D03*
X001794Y007772D03*
D13*
X001794Y009741D03*
X001794Y011709D03*
X028268Y012374D03*
D14*
X028224Y015804D03*
X028224Y016804D03*
X028224Y017804D03*
X028196Y008071D03*
X028096Y007071D03*
X028196Y006071D03*
X028096Y005071D03*
X028196Y004071D03*
X028096Y003071D03*
X011405Y001662D03*
X010405Y001662D03*
X001988Y015780D03*
X001988Y016780D03*
X001988Y017780D03*
D15*
X009468Y011022D03*
X009468Y010522D03*
X009468Y010022D03*
X009968Y010022D03*
X009968Y010522D03*
X009968Y011022D03*
X010468Y011022D03*
X010468Y010522D03*
X010468Y010022D03*
X010468Y009522D03*
X009968Y009522D03*
X009468Y009522D03*
X009468Y009022D03*
X009468Y008522D03*
X009968Y008522D03*
X009968Y009022D03*
X010468Y009022D03*
X010468Y008522D03*
D16*
X025018Y014552D03*
X025768Y015052D03*
X025768Y014052D03*
D17*
X004067Y012670D03*
X004067Y011567D03*
X004047Y010544D03*
X004047Y009441D03*
X004008Y007815D03*
X004008Y006713D03*
D18*
X005264Y002225D03*
X025500Y002225D03*
X005264Y017382D03*
X025500Y017406D03*
D19*
X012109Y006162D03*
X010479Y006162D03*
X008953Y012756D03*
X007323Y012756D03*
D20*
X008067Y009825D03*
X008067Y008195D03*
D21*
X007833Y002150D03*
X004233Y014650D03*
X010233Y015807D03*
X022733Y015750D03*
D22*
X022733Y014750D03*
X010233Y013807D03*
X003233Y014650D03*
X008833Y002150D03*
D23*
X014279Y006044D03*
X012333Y006450D03*
X011633Y006450D03*
X012527Y008386D03*
X016287Y007343D03*
X016287Y010493D03*
X012449Y011496D03*
X012733Y014650D03*
X006733Y011350D03*
X006633Y010650D03*
X005618Y009823D03*
X006633Y008550D03*
X005618Y007815D03*
X008533Y006350D03*
X005618Y011930D03*
X016523Y003091D03*
X024771Y006162D03*
X024968Y007520D03*
M02*
