G75*
G70*
%OFA0B0*%
%FSLAX24Y24*%
%IPPOS*%
%LPD*%
%AMOC8*
5,1,8,0,0,1.08239X$1,22.5*
%
%ADD10C,0.1080*%
%ADD11R,0.1080X0.1080*%
%ADD12R,0.0749X0.1064*%
%ADD13R,0.0789X0.0710*%
%ADD14R,0.0474X0.1458*%
%ADD15R,0.0395X0.0552*%
%ADD16R,0.0880X0.0880*%
%ADD17C,0.0880*%
%ADD18C,0.0820*%
%ADD19R,0.0552X0.0631*%
%ADD20R,0.0552X0.0395*%
%ADD21R,0.0218X0.0789*%
%ADD22R,0.0710X0.0789*%
%ADD23R,0.0867X0.0237*%
%ADD24R,0.1773X0.3230*%
%ADD25R,0.0477X0.0477*%
%ADD26OC8,0.0600*%
%ADD27C,0.1280*%
%ADD28C,0.0476*%
D10*
X013801Y013964D03*
X013801Y015214D03*
X020051Y013964D03*
X020051Y017714D03*
D11*
X013801Y017714D03*
D12*
X024053Y010919D03*
X025628Y010919D03*
D13*
X017919Y013584D03*
X017919Y014687D03*
X011888Y014018D03*
X011888Y012915D03*
X003884Y012506D03*
X003884Y011403D03*
X003876Y010415D03*
X003876Y009313D03*
X003876Y008325D03*
X003876Y007222D03*
X017919Y002919D03*
X017919Y001817D03*
D14*
X022596Y013793D03*
X022596Y015565D03*
D15*
X020210Y012533D03*
X019502Y012533D03*
X014222Y011600D03*
X013514Y011600D03*
X018994Y002565D03*
X019703Y002565D03*
X020955Y002612D03*
X021663Y002612D03*
X016892Y001974D03*
X016183Y001974D03*
D16*
X027770Y010825D03*
X001896Y007600D03*
D17*
X001896Y009569D03*
X001896Y011537D03*
X027770Y012203D03*
D18*
X027726Y015632D03*
X027726Y016632D03*
X027726Y017632D03*
X027697Y007899D03*
X027597Y006899D03*
X027697Y005899D03*
X027597Y004899D03*
X027697Y003899D03*
X027597Y002899D03*
X010907Y001490D03*
X009907Y001490D03*
X001490Y015608D03*
X001490Y016608D03*
X001490Y017608D03*
D19*
X019372Y001738D03*
X020553Y001738D03*
X021691Y001734D03*
X022872Y001734D03*
D20*
X016907Y002911D03*
X016907Y003620D03*
X008061Y005714D03*
X008061Y006423D03*
X008045Y012707D03*
X008045Y013415D03*
X010880Y013443D03*
X010880Y012734D03*
D21*
X016903Y008435D03*
X017403Y008435D03*
X017903Y008435D03*
X018403Y008435D03*
X018903Y008435D03*
X019403Y008435D03*
X019903Y008435D03*
X020403Y008435D03*
X020903Y008435D03*
X021403Y008435D03*
X021903Y008435D03*
X022403Y008435D03*
X022903Y008435D03*
X023403Y008435D03*
X023403Y004734D03*
X022903Y004734D03*
X022403Y004734D03*
X021903Y004734D03*
X021403Y004734D03*
X020903Y004734D03*
X020403Y004734D03*
X019903Y004734D03*
X019403Y004734D03*
X018903Y004734D03*
X018403Y004734D03*
X017903Y004734D03*
X017403Y004734D03*
X016903Y004734D03*
D22*
X015096Y002856D03*
X013994Y002856D03*
X013982Y001577D03*
X015084Y001577D03*
X006868Y006301D03*
X005766Y006301D03*
X013132Y009754D03*
X014234Y009754D03*
X020876Y009852D03*
X021978Y009852D03*
X026624Y013868D03*
X027726Y013868D03*
X006647Y013466D03*
X005545Y013466D03*
D23*
X008053Y012225D03*
X008053Y011975D03*
X008053Y011725D03*
X008053Y011475D03*
X008053Y011225D03*
X008053Y010975D03*
X008053Y010725D03*
X008053Y010475D03*
X008053Y010225D03*
X008053Y009975D03*
X008053Y009725D03*
X008053Y009475D03*
X008053Y009225D03*
X008053Y008975D03*
X008053Y008725D03*
X008053Y008475D03*
X008053Y008225D03*
X008053Y007975D03*
X008053Y007725D03*
X008053Y007475D03*
X008053Y007225D03*
X008053Y006975D03*
X010888Y006975D03*
X010888Y007225D03*
X010888Y007475D03*
X010888Y007725D03*
X010888Y007975D03*
X010888Y008225D03*
X010888Y008475D03*
X010888Y008725D03*
X010888Y008975D03*
X010888Y009225D03*
X010888Y009475D03*
X010888Y009725D03*
X010888Y009975D03*
X010888Y010225D03*
X010888Y010475D03*
X010888Y010725D03*
X010888Y010975D03*
X010888Y011225D03*
X010888Y011475D03*
X010888Y011725D03*
X010888Y011975D03*
X010888Y012225D03*
D24*
X009470Y009600D03*
D25*
X009470Y009350D03*
X009970Y009350D03*
X009970Y008850D03*
X009470Y008850D03*
X008970Y008850D03*
X008970Y009350D03*
X008970Y009850D03*
X009470Y009850D03*
X009970Y009850D03*
X009970Y010350D03*
X009470Y010350D03*
X008970Y010350D03*
X008970Y010850D03*
X009470Y010850D03*
X009970Y010850D03*
X009970Y008350D03*
X009470Y008350D03*
X008970Y008350D03*
D26*
X024520Y014380D03*
X025270Y014880D03*
X025270Y013880D03*
D27*
X004766Y002053D03*
X025002Y002053D03*
X025002Y017234D03*
X004766Y017210D03*
D28*
X007266Y015301D03*
X007876Y014277D03*
X008663Y014277D03*
X009057Y012703D03*
X009844Y012703D03*
X010868Y014061D03*
X010868Y015675D03*
X005120Y011758D03*
X006104Y011108D03*
X006144Y010459D03*
X005120Y009651D03*
X006419Y008608D03*
X005120Y007644D03*
X007088Y005222D03*
X012029Y008214D03*
X013781Y005872D03*
X015789Y007171D03*
X015789Y010321D03*
X011951Y011325D03*
X016025Y002919D03*
X024273Y005990D03*
X024470Y007348D03*
M02*
