G75*
G70*
%OFA0B0*%
%FSLAX24Y24*%
%IPPOS*%
%LPD*%
%AMOC8*
5,1,8,0,0,1.08239X$1,22.5*
%
%ADD10R,0.0669X0.0984*%
%ADD11R,0.0709X0.0630*%
%ADD12R,0.0394X0.1378*%
%ADD13R,0.0315X0.0472*%
%ADD14R,0.0472X0.0551*%
%ADD15R,0.0472X0.0315*%
%ADD16R,0.0138X0.0709*%
%ADD17R,0.0630X0.0709*%
%ADD18R,0.0787X0.0157*%
%ADD19R,0.1693X0.3150*%
D10*
X024053Y010919D03*
X025628Y010919D03*
D11*
X017919Y013584D03*
X017919Y014687D03*
X011888Y014018D03*
X011888Y012915D03*
X003884Y012506D03*
X003884Y011403D03*
X003876Y010415D03*
X003876Y009313D03*
X003876Y008325D03*
X003876Y007222D03*
X017919Y002919D03*
X017919Y001817D03*
D12*
X022596Y013793D03*
X022596Y015565D03*
D13*
X020210Y012533D03*
X019502Y012533D03*
X014222Y011600D03*
X013514Y011600D03*
X018994Y002565D03*
X019703Y002565D03*
X020955Y002612D03*
X021663Y002612D03*
X016892Y001974D03*
X016183Y001974D03*
D14*
X019372Y001738D03*
X020553Y001738D03*
X021691Y001734D03*
X022872Y001734D03*
D15*
X008061Y005714D03*
X008061Y006423D03*
X008045Y012707D03*
X008045Y013415D03*
X010880Y013443D03*
X010880Y012734D03*
X016907Y003620D03*
X016907Y002911D03*
D16*
X016903Y004734D03*
X017403Y004734D03*
X017903Y004734D03*
X018403Y004734D03*
X018903Y004734D03*
X019403Y004734D03*
X019903Y004734D03*
X020403Y004734D03*
X020903Y004734D03*
X021403Y004734D03*
X021903Y004734D03*
X022403Y004734D03*
X022903Y004734D03*
X023403Y004734D03*
X023403Y008435D03*
X022903Y008435D03*
X022403Y008435D03*
X021903Y008435D03*
X021403Y008435D03*
X020903Y008435D03*
X020403Y008435D03*
X019903Y008435D03*
X019403Y008435D03*
X018903Y008435D03*
X018403Y008435D03*
X017903Y008435D03*
X017403Y008435D03*
X016903Y008435D03*
D17*
X014234Y009754D03*
X013132Y009754D03*
X006868Y006301D03*
X005766Y006301D03*
X013994Y002856D03*
X015096Y002856D03*
X015084Y001577D03*
X013982Y001577D03*
X020876Y009852D03*
X021978Y009852D03*
X026624Y013868D03*
X027726Y013868D03*
X006647Y013466D03*
X005545Y013466D03*
D18*
X008053Y012225D03*
X008053Y011975D03*
X008053Y011725D03*
X008053Y011475D03*
X008053Y011225D03*
X008053Y010975D03*
X008053Y010725D03*
X008053Y010475D03*
X008053Y010225D03*
X008053Y009975D03*
X008053Y009725D03*
X008053Y009475D03*
X008053Y009225D03*
X008053Y008975D03*
X008053Y008725D03*
X008053Y008475D03*
X008053Y008225D03*
X008053Y007975D03*
X008053Y007725D03*
X008053Y007475D03*
X008053Y007225D03*
X008053Y006975D03*
X010888Y006975D03*
X010888Y007225D03*
X010888Y007475D03*
X010888Y007725D03*
X010888Y007975D03*
X010888Y008225D03*
X010888Y008475D03*
X010888Y008725D03*
X010888Y008975D03*
X010888Y009225D03*
X010888Y009475D03*
X010888Y009725D03*
X010888Y009975D03*
X010888Y010225D03*
X010888Y010475D03*
X010888Y010725D03*
X010888Y010975D03*
X010888Y011225D03*
X010888Y011475D03*
X010888Y011725D03*
X010888Y011975D03*
X010888Y012225D03*
D19*
X009470Y009600D03*
M02*
