G75*
G70*
%OFA0B0*%
%FSLAX24Y24*%
%IPPOS*%
%LPD*%
%AMOC8*
5,1,8,0,0,1.08239X$1,22.5*
%
%ADD10C,0.0050*%
%ADD11C,0.0040*%
%ADD12C,0.0080*%
%ADD13C,0.0060*%
%ADD14C,0.0100*%
D10*
X013201Y013364D02*
X013201Y018314D01*
X020651Y018314D01*
X020651Y013364D01*
X013201Y013364D01*
X021297Y013380D02*
X021297Y015270D01*
X022006Y015978D01*
X022321Y015978D01*
X022872Y015978D02*
X023187Y015978D01*
X023896Y015270D01*
X023896Y013380D01*
X022872Y013380D01*
X022321Y013380D02*
X021297Y013380D01*
X023856Y014679D02*
X023853Y014749D01*
X023847Y014820D01*
X023837Y014889D01*
X023823Y014958D01*
X023805Y015027D01*
X023783Y015094D01*
X023757Y015159D01*
X023728Y015223D01*
X023695Y015286D01*
X023659Y015346D01*
X023620Y015405D01*
X023577Y015461D01*
X023531Y015515D01*
X023482Y015566D01*
X023431Y015614D01*
X023377Y015659D01*
X023320Y015701D01*
X023261Y015740D01*
X023200Y015776D01*
X023138Y015808D01*
X023073Y015836D01*
X023007Y015861D01*
X022940Y015882D01*
X022872Y015899D01*
X021336Y014679D02*
X021339Y014609D01*
X021345Y014538D01*
X021355Y014469D01*
X021369Y014400D01*
X021387Y014331D01*
X021409Y014264D01*
X021435Y014199D01*
X021464Y014135D01*
X021497Y014072D01*
X021533Y014012D01*
X021572Y013953D01*
X021615Y013897D01*
X021661Y013843D01*
X021710Y013792D01*
X021761Y013744D01*
X021815Y013699D01*
X021872Y013657D01*
X021931Y013618D01*
X021992Y013582D01*
X022054Y013550D01*
X022119Y013522D01*
X022185Y013497D01*
X022252Y013476D01*
X022320Y013459D01*
X021336Y014679D02*
X021339Y014749D01*
X021345Y014820D01*
X021355Y014889D01*
X021369Y014958D01*
X021387Y015027D01*
X021409Y015094D01*
X021435Y015159D01*
X021464Y015223D01*
X021497Y015286D01*
X021533Y015346D01*
X021572Y015405D01*
X021615Y015461D01*
X021661Y015515D01*
X021710Y015566D01*
X021761Y015614D01*
X021815Y015659D01*
X021872Y015701D01*
X021931Y015740D01*
X021992Y015776D01*
X022054Y015808D01*
X022119Y015836D01*
X022185Y015861D01*
X022252Y015882D01*
X022320Y015899D01*
X023856Y014679D02*
X023853Y014609D01*
X023847Y014538D01*
X023837Y014469D01*
X023823Y014400D01*
X023805Y014331D01*
X023783Y014264D01*
X023757Y014199D01*
X023728Y014135D01*
X023695Y014072D01*
X023659Y014012D01*
X023620Y013953D01*
X023577Y013897D01*
X023531Y013843D01*
X023482Y013792D01*
X023431Y013744D01*
X023377Y013699D01*
X023320Y013657D01*
X023261Y013618D01*
X023200Y013582D01*
X023138Y013550D01*
X023073Y013522D01*
X023007Y013497D01*
X022940Y013476D01*
X022872Y013459D01*
X025370Y013492D02*
X025370Y013335D01*
X025920Y013555D02*
X025920Y015204D01*
X025370Y015267D02*
X025370Y015425D01*
X025370Y014492D02*
X025370Y014267D01*
X025920Y013555D02*
X025872Y013520D01*
X025822Y013487D01*
X025770Y013456D01*
X025716Y013429D01*
X025661Y013405D01*
X025604Y013385D01*
X025547Y013367D01*
X025489Y013353D01*
X025430Y013342D01*
X025370Y013335D01*
X024267Y014690D02*
X024287Y014750D01*
X024311Y014809D01*
X024339Y014866D01*
X024370Y014921D01*
X024405Y014975D01*
X024442Y015026D01*
X024483Y015075D01*
X024527Y015121D01*
X024573Y015165D01*
X024622Y015206D01*
X024673Y015244D01*
X024726Y015278D01*
X024782Y015310D01*
X024839Y015337D01*
X024898Y015362D01*
X024958Y015382D01*
X025019Y015400D01*
X025081Y015413D01*
X025144Y015422D01*
X025207Y015428D01*
X025271Y015430D01*
X025335Y015428D01*
X025398Y015422D01*
X025461Y015413D01*
X025523Y015399D01*
X025584Y015382D01*
X025644Y015361D01*
X025703Y015337D01*
X025760Y015309D01*
X025816Y015277D01*
X025869Y015242D01*
X025920Y015205D01*
X025370Y013335D02*
X025308Y013331D01*
X025245Y013330D01*
X025183Y013334D01*
X025121Y013341D01*
X025060Y013351D01*
X024999Y013366D01*
X024939Y013384D01*
X024880Y013405D01*
X024823Y013430D01*
X024768Y013458D01*
X024714Y013489D01*
X024662Y013524D01*
X024612Y013562D01*
X024565Y013602D01*
X024520Y013646D01*
X024477Y013691D01*
X024438Y013740D01*
X024401Y013790D01*
X024368Y013843D01*
X024337Y013897D01*
X024310Y013954D01*
X024287Y014011D01*
X024267Y014070D01*
D11*
X014588Y018734D02*
X014281Y018734D01*
X014435Y018734D02*
X014435Y019195D01*
X014281Y019041D01*
X014128Y019195D02*
X014128Y018811D01*
X014051Y018734D01*
X013898Y018734D01*
X013821Y018811D01*
X013821Y019195D01*
D12*
X010631Y012316D02*
X008310Y012316D01*
X008310Y006884D01*
X010631Y006884D01*
X010631Y012316D01*
X009706Y006884D02*
X009704Y006914D01*
X009699Y006943D01*
X009689Y006971D01*
X009677Y006998D01*
X009661Y007023D01*
X009642Y007046D01*
X009620Y007066D01*
X009596Y007083D01*
X009570Y007098D01*
X009543Y007108D01*
X009514Y007116D01*
X009485Y007120D01*
X009455Y007120D01*
X009426Y007116D01*
X009397Y007108D01*
X009370Y007098D01*
X009344Y007083D01*
X009320Y007066D01*
X009298Y007046D01*
X009279Y007023D01*
X009263Y006998D01*
X009251Y006971D01*
X009241Y006943D01*
X009236Y006914D01*
X009234Y006884D01*
X003195Y006380D02*
X002801Y006380D01*
X002801Y012758D01*
X003195Y012758D01*
X003195Y006380D01*
X002801Y006380D02*
X000242Y006380D01*
X000242Y012758D01*
X002801Y012758D01*
X001700Y014648D02*
X001700Y014928D01*
X001700Y014788D02*
X001280Y014788D01*
X001420Y014648D01*
X001240Y015108D02*
X000990Y015358D01*
X000990Y015858D01*
X001240Y016108D01*
X000990Y016358D01*
X000990Y016858D01*
X001240Y017108D01*
X000990Y017358D01*
X000990Y017858D01*
X001240Y018108D01*
X001740Y018108D01*
X001990Y017858D01*
X001990Y017358D01*
X001740Y017108D01*
X001990Y016858D01*
X001990Y016358D01*
X001740Y016108D01*
X001990Y015858D01*
X001990Y015358D01*
X001740Y015108D01*
X001240Y015108D01*
X019018Y002132D02*
X019018Y001344D01*
X019569Y001344D01*
X019844Y001502D02*
X020081Y001738D01*
X019844Y001974D01*
X019844Y001502D01*
X020081Y001462D02*
X020081Y001738D01*
X020081Y002014D01*
X020356Y002132D02*
X020907Y002132D01*
X020907Y001344D01*
X020356Y001344D01*
X021336Y001340D02*
X021888Y001340D01*
X022163Y001498D02*
X022399Y001734D01*
X022163Y001970D01*
X022163Y001498D01*
X022399Y001459D02*
X022399Y001734D01*
X022399Y002010D01*
X022675Y002128D02*
X023226Y002128D01*
X023226Y001340D01*
X022675Y001340D01*
X021888Y002128D02*
X021336Y002128D01*
X021336Y001340D01*
X019569Y002132D02*
X019018Y002132D01*
X011407Y001740D02*
X011407Y001240D01*
X011157Y000990D01*
X010657Y000990D01*
X010407Y001240D01*
X010157Y000990D01*
X009657Y000990D01*
X009407Y001240D01*
X009407Y001740D01*
X009657Y001990D01*
X010157Y001990D01*
X010407Y001740D01*
X010657Y001990D01*
X011157Y001990D01*
X011407Y001740D01*
X023856Y010171D02*
X023856Y010309D01*
X023856Y010171D02*
X025667Y010171D01*
X025667Y010309D01*
X024565Y010506D02*
X024565Y011293D01*
X023856Y011529D02*
X023856Y011667D01*
X025667Y011667D01*
X025667Y011529D01*
X027397Y008399D02*
X027897Y008399D01*
X028147Y008149D01*
X028147Y007649D01*
X027897Y007399D01*
X027397Y007399D01*
X027147Y007649D01*
X027147Y008149D01*
X027397Y008399D01*
X027397Y007399D02*
X027147Y007149D01*
X027147Y006649D01*
X027397Y006399D01*
X027897Y006399D01*
X028147Y006149D01*
X028147Y005649D01*
X027897Y005399D01*
X027397Y005399D01*
X027147Y005649D01*
X027147Y006149D01*
X027397Y006399D01*
X027897Y006399D02*
X028147Y006649D01*
X028147Y007149D01*
X027897Y007399D01*
X027897Y005399D02*
X028147Y005149D01*
X028147Y004649D01*
X027897Y004399D01*
X027397Y004399D01*
X027147Y004649D01*
X027147Y005149D01*
X027397Y005399D01*
X027397Y004399D02*
X027147Y004149D01*
X027147Y003649D01*
X027397Y003399D01*
X027147Y003399D01*
X027147Y002399D01*
X028147Y002399D01*
X028147Y003399D01*
X027897Y003399D01*
X027397Y003399D01*
X027897Y003399D02*
X028147Y003649D01*
X028147Y004149D01*
X027897Y004399D01*
X027936Y014672D02*
X027936Y014952D01*
X027936Y014812D02*
X027516Y014812D01*
X027656Y014672D01*
X027476Y015132D02*
X027226Y015382D01*
X027226Y015882D01*
X027476Y016132D01*
X027226Y016382D01*
X027226Y016882D01*
X027476Y017132D01*
X027226Y017382D01*
X027226Y017882D01*
X027476Y018132D01*
X027976Y018132D01*
X028226Y017882D01*
X028226Y017382D01*
X027976Y017132D01*
X028226Y016882D01*
X028226Y016382D01*
X027976Y016132D01*
X028226Y015882D01*
X028226Y015382D01*
X027976Y015132D01*
X027476Y015132D01*
D13*
X007825Y006187D02*
X007825Y005951D01*
X008297Y005951D02*
X008297Y006187D01*
X013750Y011364D02*
X013986Y011364D01*
X013986Y011836D02*
X013750Y011836D01*
X011116Y012970D02*
X011116Y013207D01*
X010644Y013207D02*
X010644Y012970D01*
X008281Y012943D02*
X008281Y013179D01*
X007809Y013179D02*
X007809Y012943D01*
X019738Y012770D02*
X019974Y012770D01*
X019974Y012297D02*
X019738Y012297D01*
X017144Y003384D02*
X017144Y003147D01*
X016671Y003147D02*
X016671Y003384D01*
X016655Y002210D02*
X016419Y002210D01*
X016419Y001738D02*
X016655Y001738D01*
X019230Y002329D02*
X019466Y002329D01*
X019466Y002801D02*
X019230Y002801D01*
X021191Y002848D02*
X021427Y002848D01*
X021427Y002376D02*
X021191Y002376D01*
D14*
X023903Y004734D02*
X023903Y008434D01*
X016797Y005584D02*
X016799Y005612D01*
X016805Y005640D01*
X016814Y005666D01*
X016827Y005691D01*
X016843Y005714D01*
X016862Y005735D01*
X016884Y005752D01*
X016908Y005767D01*
X016934Y005778D01*
X016961Y005786D01*
X016989Y005790D01*
X017017Y005790D01*
X017045Y005786D01*
X017072Y005778D01*
X017098Y005767D01*
X017122Y005752D01*
X017144Y005735D01*
X017163Y005714D01*
X017179Y005691D01*
X017192Y005666D01*
X017201Y005640D01*
X017207Y005612D01*
X017209Y005584D01*
X017207Y005556D01*
X017201Y005528D01*
X017192Y005502D01*
X017179Y005477D01*
X017163Y005454D01*
X017144Y005433D01*
X017122Y005416D01*
X017098Y005401D01*
X017072Y005390D01*
X017045Y005382D01*
X017017Y005378D01*
X016989Y005378D01*
X016961Y005382D01*
X016934Y005390D01*
X016908Y005401D01*
X016884Y005416D01*
X016862Y005433D01*
X016843Y005454D01*
X016827Y005477D01*
X016814Y005502D01*
X016805Y005528D01*
X016799Y005556D01*
X016797Y005584D01*
X016403Y004734D02*
X016403Y008434D01*
M02*
