G75*
G70*
%OFA0B0*%
%FSLAX24Y24*%
%IPPOS*%
%LPD*%
%AMOC8*
5,1,8,0,0,1.08239X$1,22.5*
%
%ADD10C,0.0000*%
%ADD11C,0.1000*%
%ADD12R,0.1000X0.1000*%
%ADD13R,0.0669X0.0984*%
%ADD14R,0.0709X0.0630*%
%ADD15R,0.0394X0.1378*%
%ADD16R,0.0315X0.0472*%
%ADD17R,0.0800X0.0800*%
%ADD18C,0.0800*%
%ADD19C,0.0740*%
%ADD20R,0.0472X0.0551*%
%ADD21R,0.0472X0.0315*%
%ADD22R,0.0138X0.0709*%
%ADD23R,0.0630X0.0709*%
%ADD24R,0.0787X0.0157*%
%ADD25R,0.1693X0.3150*%
%ADD26R,0.0397X0.0397*%
%ADD27OC8,0.0520*%
%ADD28C,0.0160*%
%ADD29C,0.0396*%
%ADD30C,0.0100*%
%ADD31C,0.0560*%
D10*
X000992Y000478D02*
X028268Y000478D01*
X028319Y000480D01*
X028369Y000485D01*
X028419Y000494D01*
X028468Y000507D01*
X028516Y000523D01*
X028563Y000542D01*
X028608Y000565D01*
X028652Y000591D01*
X028693Y000620D01*
X028733Y000651D01*
X028770Y000686D01*
X028805Y000723D01*
X028836Y000763D01*
X028865Y000804D01*
X028891Y000848D01*
X028914Y000893D01*
X028933Y000940D01*
X028949Y000988D01*
X028962Y001037D01*
X028971Y001087D01*
X028976Y001137D01*
X028978Y001188D01*
X028978Y018163D01*
X028976Y018212D01*
X028970Y018260D01*
X028961Y018308D01*
X028948Y018355D01*
X028931Y018401D01*
X028910Y018445D01*
X028886Y018488D01*
X028859Y018529D01*
X028829Y018567D01*
X028796Y018603D01*
X028760Y018636D01*
X028722Y018666D01*
X028681Y018693D01*
X028638Y018717D01*
X028594Y018738D01*
X028548Y018755D01*
X028501Y018768D01*
X028453Y018777D01*
X028405Y018783D01*
X028356Y018785D01*
X001145Y018785D01*
X001145Y018786D02*
X001094Y018784D01*
X001044Y018779D01*
X000994Y018770D01*
X000945Y018757D01*
X000897Y018741D01*
X000850Y018722D01*
X000805Y018699D01*
X000761Y018673D01*
X000720Y018644D01*
X000680Y018613D01*
X000643Y018578D01*
X000608Y018541D01*
X000577Y018501D01*
X000548Y018460D01*
X000522Y018416D01*
X000499Y018371D01*
X000480Y018324D01*
X000464Y018276D01*
X000451Y018227D01*
X000442Y018177D01*
X000437Y018127D01*
X000435Y018076D01*
X000435Y001035D01*
X000437Y000989D01*
X000443Y000943D01*
X000452Y000898D01*
X000465Y000854D01*
X000482Y000811D01*
X000502Y000770D01*
X000526Y000730D01*
X000552Y000693D01*
X000582Y000658D01*
X000615Y000625D01*
X000650Y000595D01*
X000687Y000569D01*
X000727Y000545D01*
X000768Y000525D01*
X000811Y000508D01*
X000855Y000495D01*
X000900Y000486D01*
X000946Y000480D01*
X000992Y000478D01*
X004166Y002053D02*
X004168Y002102D01*
X004174Y002150D01*
X004184Y002198D01*
X004198Y002245D01*
X004215Y002291D01*
X004236Y002335D01*
X004261Y002377D01*
X004289Y002417D01*
X004321Y002455D01*
X004355Y002490D01*
X004392Y002522D01*
X004431Y002551D01*
X004473Y002577D01*
X004517Y002599D01*
X004562Y002617D01*
X004609Y002632D01*
X004656Y002643D01*
X004705Y002650D01*
X004754Y002653D01*
X004803Y002652D01*
X004851Y002647D01*
X004900Y002638D01*
X004947Y002625D01*
X004993Y002608D01*
X005037Y002588D01*
X005080Y002564D01*
X005121Y002537D01*
X005159Y002506D01*
X005195Y002473D01*
X005227Y002437D01*
X005257Y002398D01*
X005284Y002357D01*
X005307Y002313D01*
X005326Y002268D01*
X005342Y002222D01*
X005354Y002175D01*
X005362Y002126D01*
X005366Y002077D01*
X005366Y002029D01*
X005362Y001980D01*
X005354Y001931D01*
X005342Y001884D01*
X005326Y001838D01*
X005307Y001793D01*
X005284Y001749D01*
X005257Y001708D01*
X005227Y001669D01*
X005195Y001633D01*
X005159Y001600D01*
X005121Y001569D01*
X005080Y001542D01*
X005037Y001518D01*
X004993Y001498D01*
X004947Y001481D01*
X004900Y001468D01*
X004851Y001459D01*
X004803Y001454D01*
X004754Y001453D01*
X004705Y001456D01*
X004656Y001463D01*
X004609Y001474D01*
X004562Y001489D01*
X004517Y001507D01*
X004473Y001529D01*
X004431Y001555D01*
X004392Y001584D01*
X004355Y001616D01*
X004321Y001651D01*
X004289Y001689D01*
X004261Y001729D01*
X004236Y001771D01*
X004215Y001815D01*
X004198Y001861D01*
X004184Y001908D01*
X004174Y001956D01*
X004168Y002004D01*
X004166Y002053D01*
X024402Y002053D02*
X024404Y002102D01*
X024410Y002150D01*
X024420Y002198D01*
X024434Y002245D01*
X024451Y002291D01*
X024472Y002335D01*
X024497Y002377D01*
X024525Y002417D01*
X024557Y002455D01*
X024591Y002490D01*
X024628Y002522D01*
X024667Y002551D01*
X024709Y002577D01*
X024753Y002599D01*
X024798Y002617D01*
X024845Y002632D01*
X024892Y002643D01*
X024941Y002650D01*
X024990Y002653D01*
X025039Y002652D01*
X025087Y002647D01*
X025136Y002638D01*
X025183Y002625D01*
X025229Y002608D01*
X025273Y002588D01*
X025316Y002564D01*
X025357Y002537D01*
X025395Y002506D01*
X025431Y002473D01*
X025463Y002437D01*
X025493Y002398D01*
X025520Y002357D01*
X025543Y002313D01*
X025562Y002268D01*
X025578Y002222D01*
X025590Y002175D01*
X025598Y002126D01*
X025602Y002077D01*
X025602Y002029D01*
X025598Y001980D01*
X025590Y001931D01*
X025578Y001884D01*
X025562Y001838D01*
X025543Y001793D01*
X025520Y001749D01*
X025493Y001708D01*
X025463Y001669D01*
X025431Y001633D01*
X025395Y001600D01*
X025357Y001569D01*
X025316Y001542D01*
X025273Y001518D01*
X025229Y001498D01*
X025183Y001481D01*
X025136Y001468D01*
X025087Y001459D01*
X025039Y001454D01*
X024990Y001453D01*
X024941Y001456D01*
X024892Y001463D01*
X024845Y001474D01*
X024798Y001489D01*
X024753Y001507D01*
X024709Y001529D01*
X024667Y001555D01*
X024628Y001584D01*
X024591Y001616D01*
X024557Y001651D01*
X024525Y001689D01*
X024497Y001729D01*
X024472Y001771D01*
X024451Y001815D01*
X024434Y001861D01*
X024420Y001908D01*
X024410Y001956D01*
X024404Y002004D01*
X024402Y002053D01*
X024402Y017234D02*
X024404Y017283D01*
X024410Y017331D01*
X024420Y017379D01*
X024434Y017426D01*
X024451Y017472D01*
X024472Y017516D01*
X024497Y017558D01*
X024525Y017598D01*
X024557Y017636D01*
X024591Y017671D01*
X024628Y017703D01*
X024667Y017732D01*
X024709Y017758D01*
X024753Y017780D01*
X024798Y017798D01*
X024845Y017813D01*
X024892Y017824D01*
X024941Y017831D01*
X024990Y017834D01*
X025039Y017833D01*
X025087Y017828D01*
X025136Y017819D01*
X025183Y017806D01*
X025229Y017789D01*
X025273Y017769D01*
X025316Y017745D01*
X025357Y017718D01*
X025395Y017687D01*
X025431Y017654D01*
X025463Y017618D01*
X025493Y017579D01*
X025520Y017538D01*
X025543Y017494D01*
X025562Y017449D01*
X025578Y017403D01*
X025590Y017356D01*
X025598Y017307D01*
X025602Y017258D01*
X025602Y017210D01*
X025598Y017161D01*
X025590Y017112D01*
X025578Y017065D01*
X025562Y017019D01*
X025543Y016974D01*
X025520Y016930D01*
X025493Y016889D01*
X025463Y016850D01*
X025431Y016814D01*
X025395Y016781D01*
X025357Y016750D01*
X025316Y016723D01*
X025273Y016699D01*
X025229Y016679D01*
X025183Y016662D01*
X025136Y016649D01*
X025087Y016640D01*
X025039Y016635D01*
X024990Y016634D01*
X024941Y016637D01*
X024892Y016644D01*
X024845Y016655D01*
X024798Y016670D01*
X024753Y016688D01*
X024709Y016710D01*
X024667Y016736D01*
X024628Y016765D01*
X024591Y016797D01*
X024557Y016832D01*
X024525Y016870D01*
X024497Y016910D01*
X024472Y016952D01*
X024451Y016996D01*
X024434Y017042D01*
X024420Y017089D01*
X024410Y017137D01*
X024404Y017185D01*
X024402Y017234D01*
X004166Y017210D02*
X004168Y017259D01*
X004174Y017307D01*
X004184Y017355D01*
X004198Y017402D01*
X004215Y017448D01*
X004236Y017492D01*
X004261Y017534D01*
X004289Y017574D01*
X004321Y017612D01*
X004355Y017647D01*
X004392Y017679D01*
X004431Y017708D01*
X004473Y017734D01*
X004517Y017756D01*
X004562Y017774D01*
X004609Y017789D01*
X004656Y017800D01*
X004705Y017807D01*
X004754Y017810D01*
X004803Y017809D01*
X004851Y017804D01*
X004900Y017795D01*
X004947Y017782D01*
X004993Y017765D01*
X005037Y017745D01*
X005080Y017721D01*
X005121Y017694D01*
X005159Y017663D01*
X005195Y017630D01*
X005227Y017594D01*
X005257Y017555D01*
X005284Y017514D01*
X005307Y017470D01*
X005326Y017425D01*
X005342Y017379D01*
X005354Y017332D01*
X005362Y017283D01*
X005366Y017234D01*
X005366Y017186D01*
X005362Y017137D01*
X005354Y017088D01*
X005342Y017041D01*
X005326Y016995D01*
X005307Y016950D01*
X005284Y016906D01*
X005257Y016865D01*
X005227Y016826D01*
X005195Y016790D01*
X005159Y016757D01*
X005121Y016726D01*
X005080Y016699D01*
X005037Y016675D01*
X004993Y016655D01*
X004947Y016638D01*
X004900Y016625D01*
X004851Y016616D01*
X004803Y016611D01*
X004754Y016610D01*
X004705Y016613D01*
X004656Y016620D01*
X004609Y016631D01*
X004562Y016646D01*
X004517Y016664D01*
X004473Y016686D01*
X004431Y016712D01*
X004392Y016741D01*
X004355Y016773D01*
X004321Y016808D01*
X004289Y016846D01*
X004261Y016886D01*
X004236Y016928D01*
X004215Y016972D01*
X004198Y017018D01*
X004184Y017065D01*
X004174Y017113D01*
X004168Y017161D01*
X004166Y017210D01*
D11*
X013801Y015214D03*
X013801Y013964D03*
X020051Y013964D03*
X020051Y017714D03*
D12*
X013801Y017714D03*
D13*
X024053Y010919D03*
X025628Y010919D03*
D14*
X017919Y013584D03*
X017919Y014687D03*
X011888Y014018D03*
X011888Y012915D03*
X003884Y012506D03*
X003884Y011403D03*
X003876Y010415D03*
X003876Y009313D03*
X003876Y008325D03*
X003876Y007222D03*
X017919Y002919D03*
X017919Y001817D03*
D15*
X022596Y013793D03*
X022596Y015565D03*
D16*
X020210Y012533D03*
X019502Y012533D03*
X014222Y011600D03*
X013514Y011600D03*
X018994Y002565D03*
X019703Y002565D03*
X020955Y002612D03*
X021663Y002612D03*
X016892Y001974D03*
X016183Y001974D03*
D17*
X027770Y010825D03*
X001896Y007600D03*
D18*
X001896Y009569D03*
X001896Y011537D03*
X027770Y012203D03*
D19*
X027726Y015632D03*
X027726Y016632D03*
X027726Y017632D03*
X027697Y007899D03*
X027597Y006899D03*
X027697Y005899D03*
X027597Y004899D03*
X027697Y003899D03*
X027597Y002899D03*
X010907Y001490D03*
X009907Y001490D03*
X001490Y015608D03*
X001490Y016608D03*
X001490Y017608D03*
D20*
X019372Y001738D03*
X020553Y001738D03*
X021691Y001734D03*
X022872Y001734D03*
D21*
X016907Y002911D03*
X016907Y003620D03*
X008061Y005714D03*
X008061Y006423D03*
X008045Y012707D03*
X008045Y013415D03*
X010880Y013443D03*
X010880Y012734D03*
D22*
X016903Y008435D03*
X017403Y008435D03*
X017903Y008435D03*
X018403Y008435D03*
X018903Y008435D03*
X019403Y008435D03*
X019903Y008435D03*
X020403Y008435D03*
X020903Y008435D03*
X021403Y008435D03*
X021903Y008435D03*
X022403Y008435D03*
X022903Y008435D03*
X023403Y008435D03*
X023403Y004734D03*
X022903Y004734D03*
X022403Y004734D03*
X021903Y004734D03*
X021403Y004734D03*
X020903Y004734D03*
X020403Y004734D03*
X019903Y004734D03*
X019403Y004734D03*
X018903Y004734D03*
X018403Y004734D03*
X017903Y004734D03*
X017403Y004734D03*
X016903Y004734D03*
D23*
X015096Y002856D03*
X013994Y002856D03*
X013982Y001577D03*
X015084Y001577D03*
X006868Y006301D03*
X005766Y006301D03*
X013132Y009754D03*
X014234Y009754D03*
X020876Y009852D03*
X021978Y009852D03*
X026624Y013868D03*
X027726Y013868D03*
X006647Y013466D03*
X005545Y013466D03*
D24*
X008053Y012225D03*
X008053Y011975D03*
X008053Y011725D03*
X008053Y011475D03*
X008053Y011225D03*
X008053Y010975D03*
X008053Y010725D03*
X008053Y010475D03*
X008053Y010225D03*
X008053Y009975D03*
X008053Y009725D03*
X008053Y009475D03*
X008053Y009225D03*
X008053Y008975D03*
X008053Y008725D03*
X008053Y008475D03*
X008053Y008225D03*
X008053Y007975D03*
X008053Y007725D03*
X008053Y007475D03*
X008053Y007225D03*
X008053Y006975D03*
X010888Y006975D03*
X010888Y007225D03*
X010888Y007475D03*
X010888Y007725D03*
X010888Y007975D03*
X010888Y008225D03*
X010888Y008475D03*
X010888Y008725D03*
X010888Y008975D03*
X010888Y009225D03*
X010888Y009475D03*
X010888Y009725D03*
X010888Y009975D03*
X010888Y010225D03*
X010888Y010475D03*
X010888Y010725D03*
X010888Y010975D03*
X010888Y011225D03*
X010888Y011475D03*
X010888Y011725D03*
X010888Y011975D03*
X010888Y012225D03*
D25*
X009470Y009600D03*
D26*
X009470Y009350D03*
X009970Y009350D03*
X009970Y008850D03*
X009470Y008850D03*
X008970Y008850D03*
X008970Y009350D03*
X008970Y009850D03*
X009470Y009850D03*
X009970Y009850D03*
X009970Y010350D03*
X009470Y010350D03*
X008970Y010350D03*
X008970Y010850D03*
X009470Y010850D03*
X009970Y010850D03*
X009970Y008350D03*
X009470Y008350D03*
X008970Y008350D03*
D27*
X024520Y014380D03*
X025270Y014880D03*
X025270Y013880D03*
D28*
X026612Y013880D01*
X026624Y013868D01*
X025277Y014888D02*
X025277Y015045D01*
X025081Y015242D01*
X024490Y015242D01*
X024167Y015565D01*
X022596Y015565D01*
X022201Y015565D01*
X020051Y017714D01*
X016096Y017714D01*
X015002Y016620D01*
X011281Y016620D01*
X010868Y016207D01*
X010868Y015675D01*
X010868Y014061D02*
X010868Y013455D01*
X010880Y013443D01*
X010880Y012734D02*
X010880Y012233D01*
X010888Y012225D01*
X010896Y012234D01*
X011738Y012234D01*
X011813Y012309D01*
X011813Y012840D01*
X011888Y012915D01*
X012207Y011915D02*
X012994Y012703D01*
X015376Y012703D01*
X017659Y010419D01*
X019470Y010419D01*
X019903Y009986D01*
X019903Y008435D01*
X019411Y008443D02*
X019403Y008435D01*
X019411Y008443D02*
X019411Y009888D01*
X019175Y010124D01*
X017521Y010124D01*
X015258Y012388D01*
X013191Y012388D01*
X012384Y011581D01*
X012384Y010754D01*
X012108Y010478D01*
X010891Y010478D01*
X010888Y010475D01*
X010888Y010725D02*
X011765Y010725D01*
X011951Y010911D01*
X011951Y011325D01*
X011518Y011069D02*
X011419Y010970D01*
X010893Y010970D01*
X010888Y010975D01*
X011518Y011069D02*
X011518Y011699D01*
X011734Y011915D01*
X012207Y011915D01*
X014222Y011600D02*
X014222Y009766D01*
X014234Y009754D01*
X014234Y009533D02*
X014214Y009514D01*
X014214Y009140D01*
X014050Y008975D01*
X010888Y008975D01*
X010888Y008725D01*
X010888Y008475D02*
X010888Y008254D01*
X011990Y008254D01*
X012029Y008214D01*
X014707Y008214D01*
X015140Y008647D01*
X015140Y010104D01*
X015356Y010321D01*
X015789Y010321D01*
X016065Y009533D02*
X015789Y009258D01*
X015789Y008352D01*
X015100Y007663D01*
X011734Y007663D01*
X011419Y007978D01*
X010891Y007978D01*
X010888Y007975D01*
X010893Y007230D02*
X012423Y007230D01*
X013781Y005872D01*
X013151Y005242D01*
X008171Y005242D01*
X008061Y005352D01*
X008061Y005714D01*
X008624Y005675D02*
X008722Y005577D01*
X012915Y005577D01*
X013210Y005872D01*
X013210Y006010D01*
X012245Y006975D01*
X010888Y006975D01*
X010888Y007225D02*
X010893Y007230D01*
X008624Y006699D02*
X008624Y005675D01*
X008081Y006403D02*
X008061Y006423D01*
X006990Y006423D01*
X006868Y006301D01*
X008061Y006423D02*
X008061Y006967D01*
X008053Y006975D01*
X008347Y006975D01*
X008624Y006699D01*
X008053Y007225D02*
X004272Y007225D01*
X003876Y007222D01*
X004608Y008037D02*
X005396Y008037D01*
X005553Y007880D01*
X006970Y007880D01*
X007325Y008234D01*
X008044Y008234D01*
X008053Y008225D01*
X008053Y008475D02*
X006552Y008475D01*
X006419Y008608D01*
X007187Y009159D02*
X004029Y009159D01*
X003876Y009313D01*
X004431Y010104D02*
X004195Y010340D01*
X002364Y010340D01*
X001896Y009872D01*
X001896Y009569D01*
X002620Y008325D02*
X003876Y008325D01*
X004321Y008325D01*
X004608Y008037D01*
X005120Y007644D02*
X005238Y007525D01*
X007167Y007525D01*
X007617Y007975D01*
X008053Y007975D01*
X008053Y007725D01*
X007918Y007860D01*
X008053Y008725D02*
X008178Y008850D01*
X008970Y008850D01*
X008053Y009725D02*
X008048Y009730D01*
X007521Y009730D01*
X007384Y009592D01*
X007384Y009356D01*
X007187Y009159D01*
X006911Y009533D02*
X007353Y009975D01*
X008053Y009975D01*
X008050Y010222D02*
X008053Y010225D01*
X007131Y010225D01*
X007128Y010222D01*
X006892Y010222D01*
X006557Y009888D01*
X005651Y009888D01*
X005435Y010104D01*
X004431Y010104D01*
X004195Y010340D02*
X003876Y010415D01*
X004120Y011167D02*
X003884Y011403D01*
X002029Y011403D01*
X001896Y011537D01*
X003884Y012506D02*
X004336Y012447D01*
X006852Y012447D01*
X007325Y011974D01*
X008052Y011974D01*
X008053Y011975D01*
X008053Y012225D02*
X008045Y012233D01*
X008045Y012707D01*
X008041Y012703D01*
X007482Y012703D01*
X006718Y013466D01*
X006647Y013466D01*
X007266Y014120D02*
X007266Y015301D01*
X007266Y014120D02*
X007943Y013443D01*
X008073Y013443D01*
X008045Y013415D01*
X006793Y012073D02*
X005435Y012073D01*
X005120Y011758D01*
X005140Y011167D02*
X004120Y011167D01*
X005140Y011167D02*
X005730Y011758D01*
X006714Y011758D01*
X007502Y010970D01*
X008048Y010970D01*
X008053Y010975D01*
X008053Y010725D02*
X007019Y010725D01*
X006793Y010951D01*
X006262Y010951D01*
X006104Y011108D01*
X006160Y010475D02*
X006144Y010459D01*
X006160Y010475D02*
X008053Y010475D01*
X008053Y011225D02*
X008034Y011225D01*
X008033Y011226D01*
X008053Y011225D02*
X008053Y011475D01*
X007391Y011475D01*
X006793Y012073D01*
X009844Y009947D02*
X009874Y009947D01*
X009970Y009850D01*
X009873Y009975D02*
X009844Y009947D01*
X009873Y009975D02*
X010888Y009975D01*
X010888Y009475D02*
X012853Y009475D01*
X013132Y009754D01*
X010888Y009475D02*
X010888Y009225D01*
X006911Y009533D02*
X005474Y009533D01*
X005356Y009651D01*
X005120Y009651D01*
X002620Y008325D02*
X001896Y007600D01*
X007088Y005222D02*
X007108Y005222D01*
X007305Y005025D01*
X009884Y004021D02*
X009884Y001514D01*
X009907Y001490D01*
X010907Y001490D02*
X010907Y003470D01*
X011459Y004021D01*
X014116Y004021D01*
X017226Y007132D01*
X019746Y007132D01*
X020396Y007781D01*
X020396Y008427D01*
X020403Y008435D01*
X020903Y008435D02*
X020903Y009825D01*
X020876Y009852D01*
X018903Y008435D02*
X018899Y008431D01*
X018899Y007880D01*
X018584Y007565D01*
X016970Y007565D01*
X013821Y004415D01*
X010277Y004415D01*
X009884Y004021D01*
X015084Y002844D02*
X015084Y001577D01*
X015199Y001462D01*
X015986Y001462D01*
X016183Y001659D01*
X016183Y001974D01*
X016892Y001974D02*
X016892Y002896D01*
X016907Y002911D01*
X016915Y002919D01*
X017919Y002919D01*
X018998Y003018D02*
X018998Y002569D01*
X018994Y002565D01*
X018998Y003018D02*
X019667Y003687D01*
X021321Y003687D01*
X021403Y003770D01*
X021403Y004734D01*
X021813Y005596D02*
X022876Y006659D01*
X024825Y006659D01*
X024943Y006541D01*
X024943Y005537D01*
X026205Y004275D01*
X026222Y004275D01*
X027597Y002899D01*
X026813Y002840D02*
X026813Y002053D01*
X027207Y001659D01*
X028151Y001659D01*
X028584Y002092D01*
X028584Y005695D01*
X028368Y005911D01*
X027709Y005911D01*
X027697Y005899D01*
X026813Y005596D02*
X027510Y004899D01*
X027597Y004899D01*
X027697Y003924D02*
X025632Y005990D01*
X025632Y006829D01*
X025270Y007191D01*
X024628Y007191D01*
X024470Y007348D01*
X024273Y005990D02*
X023270Y005990D01*
X022903Y005624D01*
X022903Y004734D01*
X023403Y004734D02*
X023403Y004281D01*
X023663Y004021D01*
X025632Y004021D01*
X026813Y002840D01*
X027697Y003899D02*
X027697Y003924D01*
X027597Y006899D02*
X027582Y006915D01*
X026833Y006915D01*
X025313Y008435D01*
X023403Y008435D01*
X021813Y005596D02*
X016970Y005596D01*
X016903Y005529D01*
X016903Y004734D01*
X016903Y003624D01*
X016907Y003620D01*
X016025Y002919D02*
X015962Y002856D01*
X015096Y002856D01*
X015084Y002844D01*
X019372Y001876D02*
X019687Y002191D01*
X019687Y002549D01*
X019703Y002565D01*
X019372Y001876D02*
X019372Y001738D01*
X020947Y002620D02*
X020955Y002612D01*
X020947Y002620D02*
X020947Y003057D01*
X021163Y003273D01*
X022147Y003273D01*
X022403Y003529D01*
X022403Y004734D01*
X021663Y002612D02*
X021663Y001762D01*
X021691Y001734D01*
X015789Y007171D02*
X016903Y008285D01*
X016903Y008435D01*
X016065Y009533D02*
X018151Y009533D01*
X018407Y009277D01*
X018407Y008439D01*
X018403Y008435D01*
X020210Y012533D02*
X020218Y012541D01*
X020218Y013746D01*
X020051Y013913D01*
X020051Y013964D01*
X017919Y014687D02*
X016218Y014687D01*
X016212Y014681D01*
D29*
X011951Y011325D03*
X009844Y012703D03*
X009057Y012703D03*
X008663Y014277D03*
X007876Y014277D03*
X007266Y015301D03*
X010868Y015675D03*
X010868Y014061D03*
X006104Y011108D03*
X006144Y010459D03*
X005120Y009651D03*
X006419Y008608D03*
X005120Y007644D03*
X007088Y005222D03*
X012029Y008214D03*
X013781Y005872D03*
X015789Y007171D03*
X015789Y010321D03*
X024273Y005990D03*
X024470Y007348D03*
X016025Y002919D03*
X005120Y011758D03*
D30*
X004739Y011904D02*
X004349Y011904D01*
X004325Y011928D02*
X003442Y011928D01*
X003319Y011805D01*
X003319Y011693D01*
X002491Y011693D01*
X002413Y011883D01*
X002241Y012054D01*
X002017Y012147D01*
X001774Y012147D01*
X001550Y012054D01*
X001378Y011883D01*
X001286Y011659D01*
X001286Y011416D01*
X001378Y011192D01*
X001550Y011020D01*
X001774Y010927D01*
X002017Y010927D01*
X002241Y011020D01*
X002334Y011113D01*
X003319Y011113D01*
X003319Y011001D01*
X003408Y010913D01*
X003311Y010817D01*
X003311Y010630D01*
X002306Y010630D01*
X002200Y010586D01*
X001792Y010179D01*
X001774Y010179D01*
X001550Y010086D01*
X001378Y009914D01*
X001286Y009690D01*
X001286Y009447D01*
X001378Y009223D01*
X001550Y009052D01*
X001774Y008959D01*
X002017Y008959D01*
X002241Y009052D01*
X002413Y009223D01*
X002506Y009447D01*
X002506Y009690D01*
X002413Y009914D01*
X002380Y009947D01*
X002484Y010050D01*
X003311Y010050D01*
X003311Y010013D01*
X003435Y009890D01*
X004235Y009890D01*
X004267Y009858D01*
X004316Y009838D01*
X003435Y009838D01*
X003311Y009715D01*
X003311Y008911D01*
X003404Y008819D01*
X003311Y008727D01*
X003311Y008615D01*
X002562Y008615D01*
X002456Y008570D01*
X002374Y008489D01*
X002095Y008210D01*
X001409Y008210D01*
X001286Y008087D01*
X001286Y007113D01*
X001409Y006990D01*
X002382Y006990D01*
X002506Y007113D01*
X002506Y007800D01*
X002740Y008035D01*
X003311Y008035D01*
X003311Y007923D01*
X003435Y007800D01*
X004317Y007800D01*
X004376Y007859D01*
X004444Y007791D01*
X004550Y007747D01*
X004721Y007747D01*
X004712Y007725D01*
X004712Y007562D01*
X004731Y007515D01*
X004440Y007515D01*
X004440Y007624D01*
X004317Y007747D01*
X003435Y007747D01*
X003311Y007624D01*
X003311Y006820D01*
X003435Y006697D01*
X004317Y006697D01*
X004440Y006820D01*
X004440Y006935D01*
X007449Y006935D01*
X007449Y006810D01*
X007546Y006713D01*
X007393Y006713D01*
X007393Y006742D01*
X007270Y006865D01*
X006466Y006865D01*
X006343Y006742D01*
X006343Y005860D01*
X006466Y005737D01*
X007270Y005737D01*
X007393Y005860D01*
X007393Y006133D01*
X007660Y006133D01*
X007725Y006069D01*
X007615Y005959D01*
X007615Y005470D01*
X007738Y005347D01*
X007771Y005347D01*
X007771Y005295D01*
X007815Y005188D01*
X007925Y005078D01*
X008007Y004996D01*
X008113Y004952D01*
X013209Y004952D01*
X013316Y004996D01*
X013783Y005464D01*
X013863Y005464D01*
X014013Y005526D01*
X014127Y005641D01*
X014189Y005791D01*
X014189Y005953D01*
X014127Y006103D01*
X014013Y006218D01*
X013863Y006280D01*
X013783Y006280D01*
X012690Y007373D01*
X015431Y007373D01*
X015443Y007402D02*
X015381Y007252D01*
X015381Y007090D01*
X015443Y006940D01*
X015558Y006825D01*
X015708Y006763D01*
X015758Y006763D01*
X013701Y004705D01*
X010220Y004705D01*
X010113Y004661D01*
X009719Y004267D01*
X009638Y004186D01*
X009594Y004079D01*
X009594Y001988D01*
X009579Y001982D01*
X009416Y001819D01*
X009327Y001605D01*
X009327Y001375D01*
X009416Y001161D01*
X009579Y000998D01*
X009748Y000928D01*
X005687Y000928D01*
X005951Y001192D01*
X006159Y001600D01*
X006159Y001600D01*
X006231Y002053D01*
X006159Y002506D01*
X005951Y002914D01*
X005951Y002914D01*
X005627Y003238D01*
X005627Y003238D01*
X005218Y003446D01*
X004766Y003518D01*
X004766Y003518D01*
X004313Y003446D01*
X004313Y003446D01*
X003904Y003238D01*
X003580Y002914D01*
X003372Y002506D01*
X003301Y002053D01*
X003372Y001600D01*
X003580Y001192D01*
X003580Y001192D01*
X003844Y000928D01*
X000992Y000928D01*
X000975Y000930D01*
X000943Y000940D01*
X000916Y000959D01*
X000897Y000986D01*
X000886Y001018D01*
X000885Y001035D01*
X000885Y018076D01*
X000888Y018116D01*
X000913Y018193D01*
X000961Y018259D01*
X001027Y018307D01*
X001104Y018332D01*
X001145Y018335D01*
X003844Y018335D01*
X003580Y018072D01*
X003580Y018072D01*
X003372Y017663D01*
X003301Y017210D01*
X003372Y016758D01*
X003372Y016758D01*
X003580Y016349D01*
X003904Y016025D01*
X003904Y016025D01*
X004313Y015817D01*
X004766Y015745D01*
X005218Y015817D01*
X005218Y015817D01*
X005627Y016025D01*
X005627Y016025D01*
X005627Y016025D01*
X005951Y016349D01*
X005951Y016349D01*
X006159Y016758D01*
X006231Y017210D01*
X006159Y017663D01*
X006159Y017663D01*
X005951Y018072D01*
X005687Y018335D01*
X013210Y018335D01*
X013209Y018334D01*
X013181Y018307D01*
X005716Y018307D01*
X005814Y018208D02*
X013151Y018208D01*
X013151Y018234D02*
X013151Y017764D01*
X013751Y017764D01*
X013751Y017664D01*
X013851Y017664D01*
X013851Y017064D01*
X014321Y017064D01*
X014359Y017075D01*
X014393Y017094D01*
X014421Y017122D01*
X014441Y017157D01*
X014451Y017195D01*
X014451Y017664D01*
X013851Y017664D01*
X013851Y017764D01*
X014451Y017764D01*
X014451Y018234D01*
X014441Y018272D01*
X014421Y018307D01*
X019639Y018307D01*
X019649Y018316D02*
X019449Y018117D01*
X019403Y018004D01*
X016039Y018004D01*
X015932Y017960D01*
X014882Y016910D01*
X011224Y016910D01*
X011117Y016866D01*
X010704Y016452D01*
X010622Y016371D01*
X010578Y016264D01*
X010578Y015962D01*
X010522Y015906D01*
X010460Y015756D01*
X010460Y015594D01*
X010522Y015444D01*
X010637Y015329D01*
X010787Y015267D01*
X010949Y015267D01*
X011099Y015329D01*
X011214Y015444D01*
X011276Y015594D01*
X011276Y015756D01*
X011214Y015906D01*
X011158Y015962D01*
X011158Y016086D01*
X011401Y016330D01*
X015059Y016330D01*
X015166Y016374D01*
X015248Y016456D01*
X016216Y017424D01*
X019403Y017424D01*
X019449Y017312D01*
X019649Y017113D01*
X019910Y017004D01*
X020192Y017004D01*
X020304Y017051D01*
X022036Y015319D01*
X022143Y015275D01*
X022189Y015275D01*
X022189Y014789D01*
X022312Y014666D01*
X022880Y014666D01*
X023003Y014789D01*
X023003Y015275D01*
X024047Y015275D01*
X024244Y015078D01*
X024326Y014996D01*
X024432Y014952D01*
X024800Y014952D01*
X024800Y014685D01*
X025075Y014410D01*
X025464Y014410D01*
X025740Y014685D01*
X025740Y015074D01*
X025464Y015350D01*
X025383Y015350D01*
X025245Y015488D01*
X025138Y015532D01*
X024610Y015532D01*
X024331Y015811D01*
X024225Y015855D01*
X023003Y015855D01*
X023003Y016341D01*
X022880Y016464D01*
X022312Y016464D01*
X022189Y016341D01*
X022189Y015986D01*
X020715Y017461D01*
X020761Y017573D01*
X020761Y017856D01*
X020653Y018117D01*
X020453Y018316D01*
X020407Y018335D01*
X024057Y018335D01*
X023817Y018095D01*
X023609Y017687D01*
X023537Y017234D01*
X023609Y016781D01*
X023817Y016373D01*
X024141Y016049D01*
X024549Y015841D01*
X025002Y015769D01*
X025455Y015841D01*
X025863Y016049D01*
X026187Y016373D01*
X026395Y016781D01*
X026395Y016781D01*
X026467Y017234D01*
X026395Y017687D01*
X026187Y018095D01*
X026187Y018095D01*
X025947Y018335D01*
X028356Y018335D01*
X028383Y018333D01*
X028434Y018316D01*
X028478Y018285D01*
X028509Y018241D01*
X028526Y018190D01*
X028528Y018163D01*
X028528Y006159D01*
X028426Y006201D01*
X028200Y006201D01*
X028189Y006228D01*
X028026Y006391D01*
X027944Y006425D01*
X028089Y006571D01*
X028177Y006784D01*
X028177Y007015D01*
X028089Y007228D01*
X027944Y007374D01*
X028026Y007408D01*
X028189Y007571D01*
X028277Y007784D01*
X028277Y008015D01*
X028189Y008228D01*
X028026Y008391D01*
X027813Y008479D01*
X027582Y008479D01*
X027369Y008391D01*
X027206Y008228D01*
X027117Y008015D01*
X027117Y007784D01*
X027206Y007571D01*
X027351Y007425D01*
X027269Y007391D01*
X027106Y007228D01*
X027096Y007205D01*
X026953Y007205D01*
X025477Y008681D01*
X025371Y008725D01*
X023682Y008725D01*
X023682Y008876D01*
X023559Y008999D01*
X023248Y008999D01*
X023153Y008905D01*
X023059Y008999D01*
X022748Y008999D01*
X022653Y008905D01*
X022559Y008999D01*
X022248Y008999D01*
X022153Y008905D01*
X022059Y008999D01*
X021748Y008999D01*
X021624Y008876D01*
X021624Y007994D01*
X021748Y007871D01*
X022059Y007871D01*
X022153Y007965D01*
X022248Y007871D01*
X022559Y007871D01*
X022653Y007965D01*
X022748Y007871D01*
X023059Y007871D01*
X023153Y007965D01*
X023248Y007871D01*
X023559Y007871D01*
X023682Y007994D01*
X023682Y008145D01*
X025193Y008145D01*
X026587Y006751D01*
X026668Y006669D01*
X026775Y006625D01*
X027083Y006625D01*
X027106Y006571D01*
X027269Y006408D01*
X027351Y006374D01*
X027206Y006228D01*
X027117Y006015D01*
X027117Y005784D01*
X027206Y005571D01*
X027369Y005408D01*
X027417Y005388D01*
X027398Y005381D01*
X027325Y005344D01*
X027259Y005296D01*
X027201Y005238D01*
X027153Y005172D01*
X027116Y005099D01*
X027090Y005021D01*
X027079Y004952D01*
X025922Y006110D01*
X025922Y006886D01*
X025878Y006993D01*
X025515Y007355D01*
X025434Y007437D01*
X025327Y007481D01*
X024857Y007481D01*
X024816Y007579D01*
X024701Y007694D01*
X024551Y007756D01*
X024389Y007756D01*
X024239Y007694D01*
X024124Y007579D01*
X024062Y007429D01*
X024062Y007267D01*
X024124Y007117D01*
X024239Y007002D01*
X024367Y006949D01*
X022818Y006949D01*
X022712Y006905D01*
X022630Y006824D01*
X021693Y005886D01*
X016913Y005886D01*
X016806Y005842D01*
X016724Y005761D01*
X016658Y005694D01*
X016613Y005587D01*
X016613Y003987D01*
X016584Y003987D01*
X016461Y003864D01*
X016461Y003375D01*
X016571Y003266D01*
X016461Y003156D01*
X016461Y002667D01*
X016584Y002544D01*
X016602Y002544D01*
X016602Y002375D01*
X016537Y002311D01*
X016427Y002420D01*
X015938Y002420D01*
X015815Y002297D01*
X015815Y001752D01*
X015609Y001752D01*
X015609Y002018D01*
X015486Y002141D01*
X015374Y002141D01*
X015374Y002292D01*
X015498Y002292D01*
X015621Y002415D01*
X015621Y002566D01*
X015811Y002566D01*
X015944Y002511D01*
X016107Y002511D01*
X016257Y002573D01*
X016371Y002688D01*
X016434Y002838D01*
X016434Y003000D01*
X016371Y003150D01*
X016257Y003265D01*
X016107Y003327D01*
X015944Y003327D01*
X015794Y003265D01*
X015679Y003150D01*
X015678Y003146D01*
X015621Y003146D01*
X015621Y003297D01*
X015498Y003420D01*
X014694Y003420D01*
X014571Y003297D01*
X014571Y002415D01*
X014694Y002292D01*
X014794Y002292D01*
X014794Y002141D01*
X014683Y002141D01*
X014560Y002018D01*
X014560Y001135D01*
X014683Y001012D01*
X015486Y001012D01*
X015609Y001135D01*
X015609Y001172D01*
X016044Y001172D01*
X016150Y001217D01*
X016347Y001413D01*
X016429Y001495D01*
X016453Y001554D01*
X016537Y001638D01*
X016647Y001528D01*
X017136Y001528D01*
X017259Y001651D01*
X017259Y002297D01*
X017182Y002375D01*
X017182Y002544D01*
X017231Y002544D01*
X017316Y002629D01*
X017355Y002629D01*
X017355Y002517D01*
X017478Y002394D01*
X018360Y002394D01*
X018483Y002517D01*
X018483Y003321D01*
X018360Y003444D01*
X017478Y003444D01*
X017355Y003321D01*
X017355Y003209D01*
X017300Y003209D01*
X017244Y003266D01*
X017354Y003375D01*
X017354Y003864D01*
X017231Y003987D01*
X017193Y003987D01*
X017193Y004224D01*
X017248Y004170D01*
X017559Y004170D01*
X017653Y004264D01*
X017748Y004170D01*
X018059Y004170D01*
X018153Y004264D01*
X018248Y004170D01*
X018559Y004170D01*
X018653Y004264D01*
X018748Y004170D01*
X019059Y004170D01*
X019153Y004264D01*
X019248Y004170D01*
X019559Y004170D01*
X019653Y004264D01*
X019748Y004170D01*
X020059Y004170D01*
X020182Y004293D01*
X020182Y005175D01*
X020059Y005298D01*
X019748Y005298D01*
X019653Y005204D01*
X019559Y005298D01*
X019248Y005298D01*
X019153Y005204D01*
X019059Y005298D01*
X018748Y005298D01*
X018653Y005204D01*
X018559Y005298D01*
X018248Y005298D01*
X018153Y005204D01*
X018059Y005298D01*
X017748Y005298D01*
X017653Y005204D01*
X017559Y005298D01*
X017248Y005298D01*
X017193Y005244D01*
X017193Y005306D01*
X021871Y005306D01*
X021977Y005350D01*
X022996Y006369D01*
X024123Y006369D01*
X024042Y006336D01*
X023986Y006280D01*
X023212Y006280D01*
X023105Y006236D01*
X023024Y006154D01*
X022658Y005788D01*
X022613Y005682D01*
X022613Y005244D01*
X022559Y005298D01*
X022248Y005298D01*
X022153Y005204D01*
X022059Y005298D01*
X021748Y005298D01*
X021653Y005204D01*
X021559Y005298D01*
X021248Y005298D01*
X021153Y005204D01*
X021059Y005298D01*
X020748Y005298D01*
X020624Y005175D01*
X020624Y004293D01*
X020748Y004170D01*
X021059Y004170D01*
X021113Y004224D01*
X021113Y003977D01*
X019609Y003977D01*
X019503Y003933D01*
X018834Y003263D01*
X018752Y003182D01*
X018708Y003075D01*
X018708Y002969D01*
X018626Y002888D01*
X018626Y002242D01*
X018749Y002119D01*
X018944Y002119D01*
X018926Y002101D01*
X018926Y001375D01*
X019049Y001252D01*
X019695Y001252D01*
X019818Y001375D01*
X019818Y001912D01*
X019851Y001945D01*
X019933Y002027D01*
X019977Y002133D01*
X019977Y002148D01*
X020070Y002242D01*
X020070Y002888D01*
X019947Y003011D01*
X019458Y003011D01*
X019348Y002901D01*
X019320Y002929D01*
X019787Y003397D01*
X020876Y003397D01*
X020782Y003303D01*
X020701Y003221D01*
X020657Y003115D01*
X020657Y003005D01*
X020587Y002935D01*
X020587Y002289D01*
X020710Y002166D01*
X021199Y002166D01*
X021309Y002276D01*
X021366Y002218D01*
X021245Y002097D01*
X021245Y001372D01*
X021368Y001249D01*
X022014Y001249D01*
X022137Y001372D01*
X022137Y002097D01*
X022014Y002220D01*
X021962Y002220D01*
X022031Y002289D01*
X022031Y002935D01*
X021982Y002983D01*
X022205Y002983D01*
X022312Y003028D01*
X022393Y003109D01*
X022649Y003365D01*
X022693Y003472D01*
X022693Y004224D01*
X022748Y004170D01*
X023059Y004170D01*
X023113Y004224D01*
X023113Y004224D01*
X023158Y004117D01*
X023417Y003857D01*
X023499Y003776D01*
X023606Y003731D01*
X025512Y003731D01*
X026523Y002720D01*
X026523Y001995D01*
X026567Y001889D01*
X026961Y001495D01*
X027042Y001413D01*
X027149Y001369D01*
X028209Y001369D01*
X028316Y001413D01*
X028528Y001626D01*
X028528Y001188D01*
X028525Y001147D01*
X028500Y001070D01*
X028452Y001004D01*
X028386Y000956D01*
X028309Y000931D01*
X028268Y000928D01*
X025923Y000928D01*
X026187Y001192D01*
X026395Y001600D01*
X026395Y001600D01*
X026467Y002053D01*
X026395Y002506D01*
X026187Y002914D01*
X026187Y002914D01*
X025863Y003238D01*
X025455Y003446D01*
X025455Y003446D01*
X025002Y003518D01*
X025002Y003518D01*
X024549Y003446D01*
X024141Y003238D01*
X024141Y003238D01*
X023817Y002914D01*
X023609Y002506D01*
X023609Y002506D01*
X023537Y002053D01*
X023609Y001600D01*
X023817Y001192D01*
X023817Y001192D01*
X024080Y000928D01*
X011067Y000928D01*
X011236Y000998D01*
X011399Y001161D01*
X011487Y001375D01*
X011487Y001605D01*
X011399Y001819D01*
X011236Y001982D01*
X011197Y001998D01*
X011197Y003350D01*
X011579Y003731D01*
X014174Y003731D01*
X014280Y003776D01*
X014362Y003857D01*
X017346Y006842D01*
X019804Y006842D01*
X019910Y006886D01*
X020560Y007535D01*
X020641Y007617D01*
X020686Y007724D01*
X020686Y007933D01*
X020748Y007871D01*
X021059Y007871D01*
X021182Y007994D01*
X021182Y008350D01*
X021184Y008356D01*
X021184Y008061D01*
X021195Y008023D01*
X021214Y007988D01*
X021242Y007961D01*
X021277Y007941D01*
X021315Y007931D01*
X021403Y007931D01*
X021403Y008435D01*
X021403Y008939D01*
X021315Y008939D01*
X021277Y008929D01*
X021242Y008909D01*
X021214Y008881D01*
X021195Y008847D01*
X021193Y008842D01*
X021193Y009288D01*
X021278Y009288D01*
X021401Y009411D01*
X021401Y010294D01*
X021278Y010417D01*
X020474Y010417D01*
X020351Y010294D01*
X020351Y009411D01*
X020474Y009288D01*
X020613Y009288D01*
X020613Y008945D01*
X020559Y008999D01*
X020248Y008999D01*
X020193Y008945D01*
X020193Y010044D01*
X020149Y010150D01*
X020068Y010232D01*
X019870Y010429D01*
X023508Y010429D01*
X023508Y010340D01*
X023631Y010217D01*
X024475Y010217D01*
X024598Y010340D01*
X024598Y011498D01*
X024475Y011621D01*
X023631Y011621D01*
X023508Y011498D01*
X023508Y011409D01*
X018150Y011409D01*
X017067Y012492D01*
X017067Y014397D01*
X017355Y014397D01*
X017355Y014285D01*
X017478Y014162D01*
X018360Y014162D01*
X018483Y014285D01*
X018483Y015089D01*
X018360Y015212D01*
X017478Y015212D01*
X017355Y015089D01*
X017355Y014977D01*
X016609Y014977D01*
X016126Y015460D01*
X015988Y015598D01*
X015808Y015673D01*
X014347Y015673D01*
X014203Y015816D01*
X013942Y015924D01*
X013660Y015924D01*
X013399Y015816D01*
X013199Y015617D01*
X013091Y015356D01*
X013091Y015073D01*
X013199Y014812D01*
X013399Y014613D01*
X013455Y014589D01*
X013399Y014566D01*
X013199Y014367D01*
X012388Y014367D01*
X012392Y014352D02*
X012382Y014390D01*
X012362Y014425D01*
X012334Y014453D01*
X012300Y014472D01*
X012262Y014483D01*
X011938Y014483D01*
X011938Y014068D01*
X011838Y014068D01*
X011838Y014483D01*
X011514Y014483D01*
X011475Y014472D01*
X011441Y014453D01*
X011413Y014425D01*
X011394Y014390D01*
X011383Y014352D01*
X011383Y014068D01*
X011838Y014068D01*
X011838Y013968D01*
X011938Y013968D01*
X011938Y014068D01*
X012392Y014068D01*
X012392Y014352D01*
X012392Y014268D02*
X013158Y014268D01*
X013118Y014170D02*
X012392Y014170D01*
X012392Y014071D02*
X013091Y014071D01*
X013091Y014106D02*
X013091Y013823D01*
X013199Y013562D01*
X013399Y013363D01*
X013660Y013254D01*
X013942Y013254D01*
X014203Y013363D01*
X014403Y013562D01*
X014511Y013823D01*
X014511Y014106D01*
X014403Y014367D01*
X015834Y014367D01*
X015932Y014268D02*
X014444Y014268D01*
X014484Y014170D02*
X016031Y014170D01*
X016087Y014114D02*
X016087Y012402D01*
X015540Y012948D01*
X015434Y012993D01*
X012936Y012993D01*
X012830Y012948D01*
X012748Y012867D01*
X012748Y012867D01*
X012452Y012571D01*
X012452Y013317D01*
X012329Y013440D01*
X011446Y013440D01*
X011326Y013320D01*
X011326Y013687D01*
X011203Y013810D01*
X011194Y013810D01*
X011214Y013830D01*
X011276Y013980D01*
X011276Y014142D01*
X011214Y014292D01*
X011099Y014407D01*
X010949Y014469D01*
X010787Y014469D01*
X010637Y014407D01*
X010522Y014292D01*
X010460Y014142D01*
X010460Y013980D01*
X010522Y013830D01*
X010549Y013803D01*
X010434Y013687D01*
X010434Y013198D01*
X010543Y013088D01*
X010434Y012979D01*
X010434Y012514D01*
X010407Y012514D01*
X010284Y012391D01*
X010284Y010060D01*
X010344Y010000D01*
X010344Y009975D01*
X010344Y009877D01*
X010351Y009850D01*
X010344Y009824D01*
X010344Y009725D01*
X010344Y009701D01*
X010284Y009641D01*
X010284Y006810D01*
X010407Y006686D01*
X010827Y006686D01*
X010830Y006685D01*
X012125Y006685D01*
X012869Y005941D01*
X012795Y005867D01*
X008914Y005867D01*
X008914Y006756D01*
X008870Y006863D01*
X008788Y006945D01*
X008657Y007076D01*
X008657Y008641D01*
X008597Y008701D01*
X008597Y008725D01*
X008572Y008725D01*
X008597Y008725D01*
X008597Y008824D01*
X008590Y008850D01*
X008597Y008877D01*
X008597Y008975D01*
X008572Y008975D01*
X008572Y008975D01*
X008597Y008975D01*
X008597Y009000D01*
X008657Y009060D01*
X008657Y012391D01*
X008534Y012514D01*
X008491Y012514D01*
X008491Y012951D01*
X008381Y013061D01*
X008491Y013171D01*
X008491Y013660D01*
X008368Y013783D01*
X008013Y013783D01*
X007556Y014240D01*
X007556Y015014D01*
X007612Y015070D01*
X007674Y015220D01*
X007674Y015382D01*
X007612Y015532D01*
X007497Y015647D01*
X007347Y015709D01*
X007184Y015709D01*
X007034Y015647D01*
X006920Y015532D01*
X006857Y015382D01*
X006857Y015220D01*
X006920Y015070D01*
X006976Y015014D01*
X006976Y014062D01*
X006989Y014031D01*
X006246Y014031D01*
X006123Y013908D01*
X006123Y013025D01*
X006246Y012902D01*
X006873Y012902D01*
X007236Y012538D01*
X007318Y012457D01*
X007424Y012413D01*
X007471Y012413D01*
X007449Y012391D01*
X007449Y012264D01*
X007445Y012264D01*
X007016Y012693D01*
X006910Y012737D01*
X004448Y012737D01*
X004448Y012908D01*
X004325Y013031D01*
X003442Y013031D01*
X003319Y012908D01*
X003319Y012104D01*
X003442Y011981D01*
X004325Y011981D01*
X004448Y012104D01*
X004448Y012157D01*
X005017Y012157D01*
X004889Y012104D01*
X004774Y011989D01*
X004712Y011839D01*
X004712Y011677D01*
X004774Y011527D01*
X004843Y011457D01*
X004448Y011457D01*
X004448Y011805D01*
X004325Y011928D01*
X004347Y012003D02*
X004788Y012003D01*
X004886Y012101D02*
X004445Y012101D01*
X004448Y011806D02*
X004712Y011806D01*
X004712Y011707D02*
X004448Y011707D01*
X004448Y011609D02*
X004740Y011609D01*
X004790Y011510D02*
X004448Y011510D01*
X003418Y011904D02*
X002391Y011904D01*
X002445Y011806D02*
X003320Y011806D01*
X003319Y011707D02*
X002485Y011707D01*
X002293Y012003D02*
X003420Y012003D01*
X003322Y012101D02*
X002128Y012101D01*
X001663Y012101D02*
X000885Y012101D01*
X000885Y012003D02*
X001498Y012003D01*
X001400Y011904D02*
X000885Y011904D01*
X000885Y011806D02*
X001346Y011806D01*
X001306Y011707D02*
X000885Y011707D01*
X000885Y011609D02*
X001286Y011609D01*
X001286Y011510D02*
X000885Y011510D01*
X000885Y011412D02*
X001287Y011412D01*
X001328Y011313D02*
X000885Y011313D01*
X000885Y011215D02*
X001369Y011215D01*
X001454Y011116D02*
X000885Y011116D01*
X000885Y011018D02*
X001556Y011018D01*
X000885Y010919D02*
X003402Y010919D01*
X003319Y011018D02*
X002235Y011018D01*
X002290Y010624D02*
X000885Y010624D01*
X000885Y010722D02*
X003311Y010722D01*
X003315Y010821D02*
X000885Y010821D01*
X000885Y010525D02*
X002139Y010525D01*
X002040Y010427D02*
X000885Y010427D01*
X000885Y010328D02*
X001942Y010328D01*
X001843Y010230D02*
X000885Y010230D01*
X000885Y010131D02*
X001659Y010131D01*
X001497Y010033D02*
X000885Y010033D01*
X000885Y009934D02*
X001398Y009934D01*
X001346Y009836D02*
X000885Y009836D01*
X000885Y009737D02*
X001305Y009737D01*
X001286Y009639D02*
X000885Y009639D01*
X000885Y009540D02*
X001286Y009540D01*
X001288Y009442D02*
X000885Y009442D01*
X000885Y009343D02*
X001329Y009343D01*
X001369Y009245D02*
X000885Y009245D01*
X000885Y009146D02*
X001455Y009146D01*
X001559Y009048D02*
X000885Y009048D01*
X000885Y008949D02*
X003311Y008949D01*
X003311Y009048D02*
X002232Y009048D01*
X002336Y009146D02*
X003311Y009146D01*
X003311Y009245D02*
X002422Y009245D01*
X002462Y009343D02*
X003311Y009343D01*
X003311Y009442D02*
X002503Y009442D01*
X002506Y009540D02*
X003311Y009540D01*
X003311Y009639D02*
X002506Y009639D01*
X002486Y009737D02*
X003334Y009737D01*
X003432Y009836D02*
X002445Y009836D01*
X002393Y009934D02*
X003391Y009934D01*
X003311Y010033D02*
X002466Y010033D01*
X003372Y008851D02*
X000885Y008851D01*
X000885Y008752D02*
X003337Y008752D01*
X003311Y008654D02*
X000885Y008654D01*
X000885Y008555D02*
X002440Y008555D01*
X002342Y008457D02*
X000885Y008457D01*
X000885Y008358D02*
X002243Y008358D01*
X002145Y008260D02*
X000885Y008260D01*
X000885Y008161D02*
X001359Y008161D01*
X001286Y008063D02*
X000885Y008063D01*
X000885Y007964D02*
X001286Y007964D01*
X001286Y007866D02*
X000885Y007866D01*
X000885Y007767D02*
X001286Y007767D01*
X001286Y007669D02*
X000885Y007669D01*
X000885Y007570D02*
X001286Y007570D01*
X001286Y007472D02*
X000885Y007472D01*
X000885Y007373D02*
X001286Y007373D01*
X001286Y007275D02*
X000885Y007275D01*
X000885Y007176D02*
X001286Y007176D01*
X001321Y007078D02*
X000885Y007078D01*
X000885Y006979D02*
X003311Y006979D01*
X003311Y006881D02*
X000885Y006881D01*
X000885Y006782D02*
X003350Y006782D01*
X003311Y007078D02*
X002470Y007078D01*
X002506Y007176D02*
X003311Y007176D01*
X003311Y007275D02*
X002506Y007275D01*
X002506Y007373D02*
X003311Y007373D01*
X003311Y007472D02*
X002506Y007472D01*
X002506Y007570D02*
X003311Y007570D01*
X003356Y007669D02*
X002506Y007669D01*
X002506Y007767D02*
X004502Y007767D01*
X004396Y007669D02*
X004712Y007669D01*
X004712Y007570D02*
X004440Y007570D01*
X004440Y006881D02*
X007449Y006881D01*
X007477Y006782D02*
X007353Y006782D01*
X007393Y006093D02*
X007701Y006093D01*
X007650Y005994D02*
X007393Y005994D01*
X007393Y005896D02*
X007615Y005896D01*
X007615Y005797D02*
X007330Y005797D01*
X007615Y005699D02*
X000885Y005699D01*
X000885Y005797D02*
X005429Y005797D01*
X005431Y005797D02*
X005716Y005797D01*
X005816Y005797D01*
X006100Y005797D01*
X006138Y005807D01*
X006173Y005827D01*
X006201Y005855D01*
X006220Y005889D01*
X006231Y005927D01*
X006231Y006251D01*
X005816Y006251D01*
X005816Y006351D01*
X006231Y006351D01*
X006231Y006675D01*
X006220Y006713D01*
X006201Y006747D01*
X006173Y006775D01*
X006138Y006795D01*
X006100Y006805D01*
X005816Y006805D01*
X005816Y006351D01*
X005716Y006351D01*
X005716Y006805D01*
X005431Y006805D01*
X005393Y006795D01*
X005359Y006775D01*
X005331Y006747D01*
X005311Y006713D01*
X005301Y006675D01*
X005301Y006351D01*
X005716Y006351D01*
X005716Y006251D01*
X005816Y006251D01*
X005816Y005797D01*
X005816Y005896D02*
X005716Y005896D01*
X005716Y005994D02*
X005816Y005994D01*
X005816Y006093D02*
X005716Y006093D01*
X005716Y006191D02*
X005816Y006191D01*
X005816Y006290D02*
X006343Y006290D01*
X006343Y006388D02*
X006231Y006388D01*
X006231Y006487D02*
X006343Y006487D01*
X006343Y006585D02*
X006231Y006585D01*
X006228Y006684D02*
X006343Y006684D01*
X006383Y006782D02*
X006161Y006782D01*
X005816Y006782D02*
X005716Y006782D01*
X005716Y006684D02*
X005816Y006684D01*
X005816Y006585D02*
X005716Y006585D01*
X005716Y006487D02*
X005816Y006487D01*
X005816Y006388D02*
X005716Y006388D01*
X005716Y006290D02*
X000885Y006290D01*
X000885Y006388D02*
X005301Y006388D01*
X005301Y006487D02*
X000885Y006487D01*
X000885Y006585D02*
X005301Y006585D01*
X005303Y006684D02*
X000885Y006684D01*
X000885Y006191D02*
X005301Y006191D01*
X005301Y006251D02*
X005301Y005927D01*
X005311Y005889D01*
X005331Y005855D01*
X005359Y005827D01*
X005393Y005807D01*
X005431Y005797D01*
X005309Y005896D02*
X000885Y005896D01*
X000885Y005994D02*
X005301Y005994D01*
X005301Y006093D02*
X000885Y006093D01*
X000885Y005600D02*
X007615Y005600D01*
X007615Y005502D02*
X000885Y005502D01*
X000885Y005403D02*
X007681Y005403D01*
X007771Y005305D02*
X000885Y005305D01*
X000885Y005206D02*
X007807Y005206D01*
X007895Y005108D02*
X000885Y005108D01*
X000885Y005009D02*
X007994Y005009D01*
X008914Y005896D02*
X012824Y005896D01*
X012816Y005994D02*
X008914Y005994D01*
X008914Y006093D02*
X012717Y006093D01*
X012619Y006191D02*
X008914Y006191D01*
X008914Y006290D02*
X012520Y006290D01*
X012422Y006388D02*
X008914Y006388D01*
X008914Y006487D02*
X012323Y006487D01*
X012225Y006585D02*
X008914Y006585D01*
X008914Y006684D02*
X012126Y006684D01*
X012789Y007275D02*
X015390Y007275D01*
X015381Y007176D02*
X012887Y007176D01*
X012986Y007078D02*
X015386Y007078D01*
X015427Y006979D02*
X013084Y006979D01*
X013183Y006881D02*
X015502Y006881D01*
X015662Y006782D02*
X013281Y006782D01*
X013380Y006684D02*
X015679Y006684D01*
X015581Y006585D02*
X013478Y006585D01*
X013577Y006487D02*
X015482Y006487D01*
X015384Y006388D02*
X013675Y006388D01*
X013774Y006290D02*
X015285Y006290D01*
X015187Y006191D02*
X014039Y006191D01*
X014132Y006093D02*
X015088Y006093D01*
X014990Y005994D02*
X014172Y005994D01*
X014189Y005896D02*
X014891Y005896D01*
X014793Y005797D02*
X014189Y005797D01*
X014151Y005699D02*
X014694Y005699D01*
X014596Y005600D02*
X014087Y005600D01*
X013954Y005502D02*
X014497Y005502D01*
X014399Y005403D02*
X013723Y005403D01*
X013624Y005305D02*
X014300Y005305D01*
X014202Y005206D02*
X013526Y005206D01*
X013427Y005108D02*
X014103Y005108D01*
X014005Y005009D02*
X013329Y005009D01*
X013709Y004714D02*
X000885Y004714D01*
X000885Y004812D02*
X013808Y004812D01*
X013906Y004911D02*
X000885Y004911D01*
X000885Y004615D02*
X010067Y004615D01*
X009969Y004517D02*
X000885Y004517D01*
X000885Y004418D02*
X009870Y004418D01*
X009772Y004320D02*
X000885Y004320D01*
X000885Y004221D02*
X009673Y004221D01*
X009612Y004123D02*
X000885Y004123D01*
X000885Y004024D02*
X009594Y004024D01*
X009594Y003926D02*
X000885Y003926D01*
X000885Y003827D02*
X009594Y003827D01*
X009594Y003729D02*
X000885Y003729D01*
X000885Y003630D02*
X009594Y003630D01*
X009594Y003532D02*
X000885Y003532D01*
X000885Y003433D02*
X004287Y003433D01*
X004094Y003335D02*
X000885Y003335D01*
X000885Y003236D02*
X003902Y003236D01*
X003904Y003238D02*
X003904Y003238D01*
X003904Y003238D01*
X003804Y003138D02*
X000885Y003138D01*
X000885Y003039D02*
X003705Y003039D01*
X003607Y002941D02*
X000885Y002941D01*
X000885Y002842D02*
X003544Y002842D01*
X003580Y002914D02*
X003580Y002914D01*
X003494Y002744D02*
X000885Y002744D01*
X000885Y002645D02*
X003443Y002645D01*
X003393Y002547D02*
X000885Y002547D01*
X000885Y002448D02*
X003363Y002448D01*
X003372Y002506D02*
X003372Y002506D01*
X003348Y002350D02*
X000885Y002350D01*
X000885Y002251D02*
X003332Y002251D01*
X003316Y002153D02*
X000885Y002153D01*
X000885Y002054D02*
X003301Y002054D01*
X003316Y001956D02*
X000885Y001956D01*
X000885Y001857D02*
X003332Y001857D01*
X003347Y001759D02*
X000885Y001759D01*
X000885Y001660D02*
X003363Y001660D01*
X003392Y001562D02*
X000885Y001562D01*
X000885Y001463D02*
X003442Y001463D01*
X003492Y001365D02*
X000885Y001365D01*
X000885Y001266D02*
X003543Y001266D01*
X003605Y001168D02*
X000885Y001168D01*
X000885Y001069D02*
X003703Y001069D01*
X003802Y000971D02*
X000908Y000971D01*
X005218Y003446D02*
X005218Y003446D01*
X005244Y003433D02*
X009594Y003433D01*
X009594Y003335D02*
X005437Y003335D01*
X005629Y003236D02*
X009594Y003236D01*
X009594Y003138D02*
X005727Y003138D01*
X005826Y003039D02*
X009594Y003039D01*
X009594Y002941D02*
X005924Y002941D01*
X005987Y002842D02*
X009594Y002842D01*
X009594Y002744D02*
X006038Y002744D01*
X006088Y002645D02*
X009594Y002645D01*
X009594Y002547D02*
X006138Y002547D01*
X006159Y002506D02*
X006159Y002506D01*
X006168Y002448D02*
X009594Y002448D01*
X009594Y002350D02*
X006184Y002350D01*
X006199Y002251D02*
X009594Y002251D01*
X009594Y002153D02*
X006215Y002153D01*
X006230Y002054D02*
X009594Y002054D01*
X009553Y001956D02*
X006215Y001956D01*
X006200Y001857D02*
X009454Y001857D01*
X009391Y001759D02*
X006184Y001759D01*
X006168Y001660D02*
X009350Y001660D01*
X009327Y001562D02*
X006139Y001562D01*
X006089Y001463D02*
X009327Y001463D01*
X009331Y001365D02*
X006039Y001365D01*
X005989Y001266D02*
X009372Y001266D01*
X009413Y001168D02*
X005927Y001168D01*
X005951Y001192D02*
X005951Y001192D01*
X005828Y001069D02*
X009508Y001069D01*
X009645Y000971D02*
X005730Y000971D01*
X011169Y000971D02*
X024038Y000971D01*
X023939Y001069D02*
X015543Y001069D01*
X015609Y001168D02*
X023841Y001168D01*
X023779Y001266D02*
X022032Y001266D01*
X022130Y001365D02*
X022517Y001365D01*
X022516Y001366D02*
X022544Y001338D01*
X022578Y001319D01*
X022616Y001309D01*
X022822Y001309D01*
X022822Y001684D01*
X022922Y001684D01*
X022922Y001784D01*
X023258Y001784D01*
X023258Y002029D01*
X023248Y002068D01*
X023228Y002102D01*
X023200Y002130D01*
X023166Y002149D01*
X023128Y002160D01*
X022922Y002160D01*
X022922Y001784D01*
X022822Y001784D01*
X022822Y001684D01*
X022486Y001684D01*
X022486Y001439D01*
X022496Y001401D01*
X022516Y001366D01*
X022486Y001463D02*
X022137Y001463D01*
X022137Y001562D02*
X022486Y001562D01*
X022486Y001660D02*
X022137Y001660D01*
X022137Y001759D02*
X022822Y001759D01*
X022822Y001784D02*
X022486Y001784D01*
X022486Y002029D01*
X022496Y002068D01*
X022516Y002102D01*
X022544Y002130D01*
X022578Y002149D01*
X022616Y002160D01*
X022822Y002160D01*
X022822Y001784D01*
X022822Y001857D02*
X022922Y001857D01*
X022922Y001759D02*
X023583Y001759D01*
X023568Y001857D02*
X023258Y001857D01*
X023258Y001956D02*
X023552Y001956D01*
X023537Y002053D02*
X023537Y002053D01*
X023537Y002054D02*
X023251Y002054D01*
X023154Y002153D02*
X023553Y002153D01*
X023568Y002251D02*
X021993Y002251D01*
X022031Y002350D02*
X023584Y002350D01*
X023599Y002448D02*
X022031Y002448D01*
X022031Y002547D02*
X023629Y002547D01*
X023680Y002645D02*
X022031Y002645D01*
X022031Y002744D02*
X023730Y002744D01*
X023780Y002842D02*
X022031Y002842D01*
X022025Y002941D02*
X023843Y002941D01*
X023817Y002914D02*
X023817Y002914D01*
X023942Y003039D02*
X022323Y003039D01*
X022422Y003138D02*
X024040Y003138D01*
X024139Y003236D02*
X022520Y003236D01*
X022619Y003335D02*
X024330Y003335D01*
X024523Y003433D02*
X022677Y003433D01*
X022693Y003532D02*
X025711Y003532D01*
X025613Y003630D02*
X022693Y003630D01*
X022693Y003729D02*
X025514Y003729D01*
X025480Y003433D02*
X025810Y003433D01*
X025908Y003335D02*
X025674Y003335D01*
X025863Y003238D02*
X025863Y003238D01*
X025865Y003236D02*
X026007Y003236D01*
X025963Y003138D02*
X026105Y003138D01*
X026062Y003039D02*
X026204Y003039D01*
X026160Y002941D02*
X026302Y002941D01*
X026224Y002842D02*
X026401Y002842D01*
X026499Y002744D02*
X026274Y002744D01*
X026324Y002645D02*
X026523Y002645D01*
X026523Y002547D02*
X026374Y002547D01*
X026395Y002506D02*
X026395Y002506D01*
X026404Y002448D02*
X026523Y002448D01*
X026523Y002350D02*
X026420Y002350D01*
X026435Y002251D02*
X026523Y002251D01*
X026523Y002153D02*
X026451Y002153D01*
X026467Y002054D02*
X026523Y002054D01*
X026539Y001956D02*
X026451Y001956D01*
X026436Y001857D02*
X026599Y001857D01*
X026697Y001759D02*
X026420Y001759D01*
X026405Y001660D02*
X026796Y001660D01*
X026894Y001562D02*
X026375Y001562D01*
X026325Y001463D02*
X026993Y001463D01*
X027327Y001949D02*
X027103Y002173D01*
X027103Y002578D01*
X027106Y002571D01*
X027269Y002408D01*
X027482Y002319D01*
X027713Y002319D01*
X027926Y002408D01*
X028089Y002571D01*
X028177Y002784D01*
X028177Y003015D01*
X028089Y003228D01*
X027944Y003374D01*
X028026Y003408D01*
X028189Y003571D01*
X028277Y003784D01*
X028277Y004015D01*
X028189Y004228D01*
X028026Y004391D01*
X027871Y004455D01*
X027936Y004503D01*
X027994Y004561D01*
X028042Y004627D01*
X028079Y004700D01*
X028105Y004778D01*
X028116Y004849D01*
X027647Y004849D01*
X027647Y004949D01*
X028116Y004949D01*
X028105Y005021D01*
X028079Y005099D01*
X028042Y005172D01*
X027994Y005238D01*
X027936Y005296D01*
X027871Y005344D01*
X028026Y005408D01*
X028189Y005571D01*
X028210Y005621D01*
X028248Y005621D01*
X028294Y005575D01*
X028294Y002212D01*
X028031Y001949D01*
X027327Y001949D01*
X027320Y001956D02*
X028038Y001956D01*
X028136Y002054D02*
X027222Y002054D01*
X027123Y002153D02*
X028235Y002153D01*
X028294Y002251D02*
X027103Y002251D01*
X027103Y002350D02*
X027409Y002350D01*
X027228Y002448D02*
X027103Y002448D01*
X027103Y002547D02*
X027130Y002547D01*
X027786Y002350D02*
X028294Y002350D01*
X028294Y002448D02*
X027966Y002448D01*
X028065Y002547D02*
X028294Y002547D01*
X028294Y002645D02*
X028120Y002645D01*
X028161Y002744D02*
X028294Y002744D01*
X028294Y002842D02*
X028177Y002842D01*
X028177Y002941D02*
X028294Y002941D01*
X028294Y003039D02*
X028167Y003039D01*
X028127Y003138D02*
X028294Y003138D01*
X028294Y003236D02*
X028081Y003236D01*
X027982Y003335D02*
X028294Y003335D01*
X028294Y003433D02*
X028051Y003433D01*
X028150Y003532D02*
X028294Y003532D01*
X028294Y003630D02*
X028214Y003630D01*
X028255Y003729D02*
X028294Y003729D01*
X028294Y003827D02*
X028277Y003827D01*
X028277Y003926D02*
X028294Y003926D01*
X028294Y004024D02*
X028274Y004024D01*
X028294Y004123D02*
X028233Y004123D01*
X028192Y004221D02*
X028294Y004221D01*
X028294Y004320D02*
X028097Y004320D01*
X027961Y004418D02*
X028294Y004418D01*
X028294Y004517D02*
X027950Y004517D01*
X028034Y004615D02*
X028294Y004615D01*
X028294Y004714D02*
X028084Y004714D01*
X028110Y004812D02*
X028294Y004812D01*
X028294Y004911D02*
X027647Y004911D01*
X027547Y004911D02*
X027121Y004911D01*
X027082Y004949D02*
X027547Y004949D01*
X027547Y004849D01*
X027182Y004849D01*
X027082Y004949D01*
X027088Y005009D02*
X027023Y005009D01*
X027120Y005108D02*
X026924Y005108D01*
X026826Y005206D02*
X027178Y005206D01*
X027271Y005305D02*
X026727Y005305D01*
X026629Y005403D02*
X027380Y005403D01*
X027275Y005502D02*
X026530Y005502D01*
X026432Y005600D02*
X027194Y005600D01*
X027153Y005699D02*
X026333Y005699D01*
X026235Y005797D02*
X027117Y005797D01*
X027117Y005896D02*
X026136Y005896D01*
X026038Y005994D02*
X027117Y005994D01*
X027150Y006093D02*
X025939Y006093D01*
X025922Y006191D02*
X027191Y006191D01*
X027267Y006290D02*
X025922Y006290D01*
X025922Y006388D02*
X027316Y006388D01*
X027190Y006487D02*
X025922Y006487D01*
X025922Y006585D02*
X027100Y006585D01*
X026654Y006684D02*
X025922Y006684D01*
X025922Y006782D02*
X026555Y006782D01*
X026457Y006881D02*
X025922Y006881D01*
X025883Y006979D02*
X026358Y006979D01*
X026260Y007078D02*
X025793Y007078D01*
X025694Y007176D02*
X026161Y007176D01*
X026063Y007275D02*
X025596Y007275D01*
X025497Y007373D02*
X025964Y007373D01*
X025866Y007472D02*
X025349Y007472D01*
X025570Y007767D02*
X020686Y007767D01*
X020686Y007866D02*
X025472Y007866D01*
X025373Y007964D02*
X023653Y007964D01*
X023682Y008063D02*
X025275Y008063D01*
X025800Y008358D02*
X027336Y008358D01*
X027237Y008260D02*
X025898Y008260D01*
X025997Y008161D02*
X027178Y008161D01*
X027137Y008063D02*
X026095Y008063D01*
X026194Y007964D02*
X027117Y007964D01*
X027117Y007866D02*
X026292Y007866D01*
X026391Y007767D02*
X027124Y007767D01*
X027165Y007669D02*
X026489Y007669D01*
X026588Y007570D02*
X027206Y007570D01*
X027305Y007472D02*
X026686Y007472D01*
X026785Y007373D02*
X027251Y007373D01*
X027152Y007275D02*
X026883Y007275D01*
X027944Y007373D02*
X028528Y007373D01*
X028528Y007275D02*
X028042Y007275D01*
X028111Y007176D02*
X028528Y007176D01*
X028528Y007078D02*
X028151Y007078D01*
X028177Y006979D02*
X028528Y006979D01*
X028528Y006881D02*
X028177Y006881D01*
X028177Y006782D02*
X028528Y006782D01*
X028528Y006684D02*
X028136Y006684D01*
X028095Y006585D02*
X028528Y006585D01*
X028528Y006487D02*
X028005Y006487D01*
X028029Y006388D02*
X028528Y006388D01*
X028528Y006290D02*
X028127Y006290D01*
X028450Y006191D02*
X028528Y006191D01*
X028269Y005600D02*
X028201Y005600D01*
X028120Y005502D02*
X028294Y005502D01*
X028294Y005403D02*
X028015Y005403D01*
X027924Y005305D02*
X028294Y005305D01*
X028294Y005206D02*
X028017Y005206D01*
X028075Y005108D02*
X028294Y005108D01*
X028294Y005009D02*
X028107Y005009D01*
X028090Y007472D02*
X028528Y007472D01*
X028528Y007570D02*
X028188Y007570D01*
X028230Y007669D02*
X028528Y007669D01*
X028528Y007767D02*
X028270Y007767D01*
X028277Y007866D02*
X028528Y007866D01*
X028528Y007964D02*
X028277Y007964D01*
X028258Y008063D02*
X028528Y008063D01*
X028528Y008161D02*
X028217Y008161D01*
X028157Y008260D02*
X028528Y008260D01*
X028528Y008358D02*
X028059Y008358D01*
X027868Y008457D02*
X028528Y008457D01*
X028528Y008555D02*
X025603Y008555D01*
X025701Y008457D02*
X027527Y008457D01*
X028528Y008654D02*
X025504Y008654D01*
X025669Y007669D02*
X024727Y007669D01*
X024820Y007570D02*
X025767Y007570D01*
X024214Y007669D02*
X020663Y007669D01*
X020595Y007570D02*
X024121Y007570D01*
X024080Y007472D02*
X020496Y007472D01*
X020398Y007373D02*
X024062Y007373D01*
X024062Y007275D02*
X020299Y007275D01*
X020201Y007176D02*
X024100Y007176D01*
X024164Y007078D02*
X020102Y007078D01*
X020004Y006979D02*
X024295Y006979D01*
X023996Y006290D02*
X022916Y006290D01*
X022818Y006191D02*
X023061Y006191D01*
X022962Y006093D02*
X022719Y006093D01*
X022621Y005994D02*
X022864Y005994D01*
X022765Y005896D02*
X022522Y005896D01*
X022424Y005797D02*
X022667Y005797D01*
X022620Y005699D02*
X022325Y005699D01*
X022227Y005600D02*
X022613Y005600D01*
X022613Y005502D02*
X022128Y005502D01*
X022030Y005403D02*
X022613Y005403D01*
X022613Y005305D02*
X017193Y005305D01*
X017651Y005206D02*
X017655Y005206D01*
X018151Y005206D02*
X018155Y005206D01*
X018651Y005206D02*
X018655Y005206D01*
X019151Y005206D02*
X019155Y005206D01*
X019651Y005206D02*
X019655Y005206D01*
X020151Y005206D02*
X020240Y005206D01*
X020242Y005208D02*
X020214Y005181D01*
X020195Y005146D01*
X020184Y005108D01*
X020184Y004734D01*
X020184Y004360D01*
X020195Y004322D01*
X020214Y004288D01*
X020242Y004260D01*
X020277Y004240D01*
X020315Y004230D01*
X020403Y004230D01*
X020403Y004734D01*
X020184Y004734D01*
X020403Y004734D01*
X020403Y004734D01*
X020403Y004734D01*
X020403Y005238D01*
X020315Y005238D01*
X020277Y005228D01*
X020242Y005208D01*
X020184Y005108D02*
X020182Y005108D01*
X020182Y005009D02*
X020184Y005009D01*
X020182Y004911D02*
X020184Y004911D01*
X020182Y004812D02*
X020184Y004812D01*
X020182Y004714D02*
X020184Y004714D01*
X020182Y004615D02*
X020184Y004615D01*
X020182Y004517D02*
X020184Y004517D01*
X020182Y004418D02*
X020184Y004418D01*
X020182Y004320D02*
X020196Y004320D01*
X020111Y004221D02*
X020696Y004221D01*
X020624Y004320D02*
X020611Y004320D01*
X020612Y004322D02*
X020622Y004360D01*
X020622Y004734D01*
X020403Y004734D01*
X020403Y004734D01*
X020403Y004230D01*
X020492Y004230D01*
X020530Y004240D01*
X020564Y004260D01*
X020592Y004288D01*
X020612Y004322D01*
X020622Y004418D02*
X020624Y004418D01*
X020622Y004517D02*
X020624Y004517D01*
X020622Y004615D02*
X020624Y004615D01*
X020622Y004714D02*
X020624Y004714D01*
X020622Y004734D02*
X020622Y005108D01*
X020612Y005146D01*
X020592Y005181D01*
X020564Y005208D01*
X020530Y005228D01*
X020492Y005238D01*
X020403Y005238D01*
X020403Y004734D01*
X020403Y004734D01*
X020622Y004734D01*
X020622Y004812D02*
X020624Y004812D01*
X020622Y004911D02*
X020624Y004911D01*
X020622Y005009D02*
X020624Y005009D01*
X020622Y005108D02*
X020624Y005108D01*
X020655Y005206D02*
X020567Y005206D01*
X020403Y005206D02*
X020403Y005206D01*
X020403Y005108D02*
X020403Y005108D01*
X020403Y005009D02*
X020403Y005009D01*
X020403Y004911D02*
X020403Y004911D01*
X020403Y004812D02*
X020403Y004812D01*
X020403Y004714D02*
X020403Y004714D01*
X020403Y004615D02*
X020403Y004615D01*
X020403Y004517D02*
X020403Y004517D01*
X020403Y004418D02*
X020403Y004418D01*
X020403Y004320D02*
X020403Y004320D01*
X019696Y004221D02*
X019611Y004221D01*
X019196Y004221D02*
X019111Y004221D01*
X018696Y004221D02*
X018611Y004221D01*
X018196Y004221D02*
X018111Y004221D01*
X017696Y004221D02*
X017611Y004221D01*
X017196Y004221D02*
X017193Y004221D01*
X017193Y004123D02*
X021113Y004123D01*
X021111Y004221D02*
X021113Y004221D01*
X021113Y004024D02*
X017193Y004024D01*
X017292Y003926D02*
X019496Y003926D01*
X019397Y003827D02*
X017354Y003827D01*
X017354Y003729D02*
X019299Y003729D01*
X019200Y003630D02*
X017354Y003630D01*
X017354Y003532D02*
X019102Y003532D01*
X019003Y003433D02*
X018371Y003433D01*
X018470Y003335D02*
X018905Y003335D01*
X018806Y003236D02*
X018483Y003236D01*
X018483Y003138D02*
X018734Y003138D01*
X018708Y003039D02*
X018483Y003039D01*
X018483Y002941D02*
X018679Y002941D01*
X018626Y002842D02*
X018483Y002842D01*
X018483Y002744D02*
X018626Y002744D01*
X018626Y002645D02*
X018483Y002645D01*
X018483Y002547D02*
X018626Y002547D01*
X018626Y002448D02*
X018414Y002448D01*
X018331Y002272D02*
X018293Y002282D01*
X017969Y002282D01*
X017969Y001867D01*
X017869Y001867D01*
X017869Y002282D01*
X017545Y002282D01*
X017507Y002272D01*
X017473Y002252D01*
X017445Y002224D01*
X017425Y002190D01*
X017415Y002151D01*
X017415Y001867D01*
X017869Y001867D01*
X017869Y001767D01*
X017415Y001767D01*
X017415Y001482D01*
X017425Y001444D01*
X017445Y001410D01*
X017473Y001382D01*
X017507Y001362D01*
X017545Y001352D01*
X017869Y001352D01*
X017869Y001767D01*
X017969Y001767D01*
X017969Y001867D01*
X018423Y001867D01*
X018423Y002151D01*
X018413Y002190D01*
X018393Y002224D01*
X018366Y002252D01*
X018331Y002272D01*
X018366Y002251D02*
X018626Y002251D01*
X018626Y002350D02*
X017207Y002350D01*
X017182Y002448D02*
X017424Y002448D01*
X017355Y002547D02*
X017233Y002547D01*
X017259Y002251D02*
X017472Y002251D01*
X017415Y002153D02*
X017259Y002153D01*
X017259Y002054D02*
X017415Y002054D01*
X017415Y001956D02*
X017259Y001956D01*
X017259Y001857D02*
X017869Y001857D01*
X017869Y001759D02*
X017969Y001759D01*
X017969Y001767D02*
X017969Y001352D01*
X018293Y001352D01*
X018331Y001362D01*
X018366Y001382D01*
X018393Y001410D01*
X018413Y001444D01*
X018423Y001482D01*
X018423Y001767D01*
X017969Y001767D01*
X017969Y001857D02*
X018926Y001857D01*
X018926Y001759D02*
X018423Y001759D01*
X018423Y001660D02*
X018926Y001660D01*
X018926Y001562D02*
X018423Y001562D01*
X018418Y001463D02*
X018926Y001463D01*
X018936Y001365D02*
X018336Y001365D01*
X017969Y001365D02*
X017869Y001365D01*
X017869Y001463D02*
X017969Y001463D01*
X017969Y001562D02*
X017869Y001562D01*
X017869Y001660D02*
X017969Y001660D01*
X017969Y001956D02*
X017869Y001956D01*
X017869Y002054D02*
X017969Y002054D01*
X017969Y002153D02*
X017869Y002153D01*
X017869Y002251D02*
X017969Y002251D01*
X018423Y002153D02*
X018715Y002153D01*
X018926Y002054D02*
X018423Y002054D01*
X018423Y001956D02*
X018926Y001956D01*
X019035Y001266D02*
X016200Y001266D01*
X016298Y001365D02*
X017502Y001365D01*
X017420Y001463D02*
X016397Y001463D01*
X016461Y001562D02*
X016613Y001562D01*
X017170Y001562D02*
X017415Y001562D01*
X017415Y001660D02*
X017259Y001660D01*
X017259Y001759D02*
X017415Y001759D01*
X016576Y002350D02*
X016498Y002350D01*
X016602Y002448D02*
X015621Y002448D01*
X015621Y002547D02*
X015858Y002547D01*
X015868Y002350D02*
X015556Y002350D01*
X015374Y002251D02*
X015815Y002251D01*
X015815Y002153D02*
X015374Y002153D01*
X015573Y002054D02*
X015815Y002054D01*
X015815Y001956D02*
X015609Y001956D01*
X015609Y001857D02*
X015815Y001857D01*
X015815Y001759D02*
X015609Y001759D01*
X014794Y002153D02*
X011197Y002153D01*
X011197Y002251D02*
X014794Y002251D01*
X014636Y002350D02*
X011197Y002350D01*
X011197Y002448D02*
X013538Y002448D01*
X013539Y002444D02*
X013559Y002410D01*
X013587Y002382D01*
X013621Y002362D01*
X013659Y002352D01*
X013944Y002352D01*
X013944Y002806D01*
X014044Y002806D01*
X014044Y002352D01*
X014329Y002352D01*
X014367Y002362D01*
X014401Y002382D01*
X014429Y002410D01*
X014449Y002444D01*
X014459Y002482D01*
X014459Y002806D01*
X014044Y002806D01*
X014044Y002906D01*
X014459Y002906D01*
X014459Y003230D01*
X014449Y003268D01*
X014429Y003303D01*
X014401Y003331D01*
X014367Y003350D01*
X014329Y003360D01*
X014044Y003360D01*
X014044Y002906D01*
X013944Y002906D01*
X013944Y002806D01*
X013529Y002806D01*
X013529Y002482D01*
X013539Y002444D01*
X013529Y002547D02*
X011197Y002547D01*
X011197Y002645D02*
X013529Y002645D01*
X013529Y002744D02*
X011197Y002744D01*
X011197Y002842D02*
X013944Y002842D01*
X013944Y002906D02*
X013529Y002906D01*
X013529Y003230D01*
X013539Y003268D01*
X013559Y003303D01*
X013587Y003331D01*
X013621Y003350D01*
X013659Y003360D01*
X013944Y003360D01*
X013944Y002906D01*
X013944Y002941D02*
X014044Y002941D01*
X014044Y003039D02*
X013944Y003039D01*
X013944Y003138D02*
X014044Y003138D01*
X014044Y003236D02*
X013944Y003236D01*
X013944Y003335D02*
X014044Y003335D01*
X013594Y003335D02*
X011197Y003335D01*
X011197Y003236D02*
X013531Y003236D01*
X013529Y003138D02*
X011197Y003138D01*
X011197Y003039D02*
X013529Y003039D01*
X013529Y002941D02*
X011197Y002941D01*
X011280Y003433D02*
X016461Y003433D01*
X016461Y003532D02*
X011379Y003532D01*
X011477Y003630D02*
X016461Y003630D01*
X016461Y003729D02*
X011576Y003729D01*
X011197Y002054D02*
X013581Y002054D01*
X013575Y002051D02*
X013547Y002023D01*
X013527Y001989D01*
X013517Y001951D01*
X013517Y001627D01*
X013932Y001627D01*
X013932Y002081D01*
X013647Y002081D01*
X013609Y002071D01*
X013575Y002051D01*
X013519Y001956D02*
X011262Y001956D01*
X011360Y001857D02*
X013517Y001857D01*
X013517Y001759D02*
X011424Y001759D01*
X011465Y001660D02*
X013517Y001660D01*
X013517Y001527D02*
X013517Y001203D01*
X013527Y001164D01*
X013547Y001130D01*
X013575Y001102D01*
X013609Y001083D01*
X013647Y001072D01*
X013932Y001072D01*
X013932Y001527D01*
X013517Y001527D01*
X013517Y001463D02*
X011487Y001463D01*
X011483Y001365D02*
X013517Y001365D01*
X013517Y001266D02*
X011442Y001266D01*
X011402Y001168D02*
X013527Y001168D01*
X013932Y001168D02*
X014032Y001168D01*
X014032Y001072D02*
X014317Y001072D01*
X014355Y001083D01*
X014389Y001102D01*
X014417Y001130D01*
X014437Y001164D01*
X014447Y001203D01*
X014447Y001527D01*
X014032Y001527D01*
X014032Y001627D01*
X013932Y001627D01*
X013932Y001527D01*
X014032Y001527D01*
X014032Y001072D01*
X014032Y001266D02*
X013932Y001266D01*
X013932Y001365D02*
X014032Y001365D01*
X014032Y001463D02*
X013932Y001463D01*
X013932Y001562D02*
X011487Y001562D01*
X011307Y001069D02*
X014626Y001069D01*
X014560Y001168D02*
X014438Y001168D01*
X014447Y001266D02*
X014560Y001266D01*
X014560Y001365D02*
X014447Y001365D01*
X014447Y001463D02*
X014560Y001463D01*
X014560Y001562D02*
X014032Y001562D01*
X014032Y001627D02*
X014447Y001627D01*
X014447Y001951D01*
X014437Y001989D01*
X014417Y002023D01*
X014389Y002051D01*
X014355Y002071D01*
X014317Y002081D01*
X014032Y002081D01*
X014032Y001627D01*
X014032Y001660D02*
X013932Y001660D01*
X013932Y001759D02*
X014032Y001759D01*
X014032Y001857D02*
X013932Y001857D01*
X013932Y001956D02*
X014032Y001956D01*
X014032Y002054D02*
X013932Y002054D01*
X013944Y002448D02*
X014044Y002448D01*
X014044Y002547D02*
X013944Y002547D01*
X013944Y002645D02*
X014044Y002645D01*
X014044Y002744D02*
X013944Y002744D01*
X014044Y002842D02*
X014571Y002842D01*
X014571Y002744D02*
X014459Y002744D01*
X014459Y002645D02*
X014571Y002645D01*
X014571Y002547D02*
X014459Y002547D01*
X014450Y002448D02*
X014571Y002448D01*
X014596Y002054D02*
X014384Y002054D01*
X014446Y001956D02*
X014560Y001956D01*
X014560Y001857D02*
X014447Y001857D01*
X014447Y001759D02*
X014560Y001759D01*
X014560Y001660D02*
X014447Y001660D01*
X014459Y002941D02*
X014571Y002941D01*
X014571Y003039D02*
X014459Y003039D01*
X014459Y003138D02*
X014571Y003138D01*
X014571Y003236D02*
X014457Y003236D01*
X014394Y003335D02*
X014609Y003335D01*
X014332Y003827D02*
X016461Y003827D01*
X016522Y003926D02*
X014430Y003926D01*
X014529Y004024D02*
X016613Y004024D01*
X016613Y004123D02*
X014627Y004123D01*
X014726Y004221D02*
X016613Y004221D01*
X016613Y004320D02*
X014824Y004320D01*
X014923Y004418D02*
X016613Y004418D01*
X016613Y004517D02*
X015021Y004517D01*
X015120Y004615D02*
X016613Y004615D01*
X016613Y004714D02*
X015218Y004714D01*
X015317Y004812D02*
X016613Y004812D01*
X016613Y004911D02*
X015415Y004911D01*
X015514Y005009D02*
X016613Y005009D01*
X016613Y005108D02*
X015612Y005108D01*
X015711Y005206D02*
X016613Y005206D01*
X016613Y005305D02*
X015809Y005305D01*
X015908Y005403D02*
X016613Y005403D01*
X016613Y005502D02*
X016006Y005502D01*
X016105Y005600D02*
X016619Y005600D01*
X016663Y005699D02*
X016203Y005699D01*
X016302Y005797D02*
X016761Y005797D01*
X016499Y005994D02*
X021801Y005994D01*
X021899Y006093D02*
X016597Y006093D01*
X016696Y006191D02*
X021998Y006191D01*
X022096Y006290D02*
X016794Y006290D01*
X016893Y006388D02*
X022195Y006388D01*
X022293Y006487D02*
X016991Y006487D01*
X017090Y006585D02*
X022392Y006585D01*
X022490Y006684D02*
X017188Y006684D01*
X017287Y006782D02*
X022589Y006782D01*
X022687Y006881D02*
X019898Y006881D01*
X021153Y007964D02*
X021239Y007964D01*
X021184Y008063D02*
X021182Y008063D01*
X021182Y008161D02*
X021184Y008161D01*
X021182Y008260D02*
X021184Y008260D01*
X021403Y008260D02*
X021403Y008260D01*
X021403Y008358D02*
X021403Y008358D01*
X021403Y008435D02*
X021403Y007931D01*
X021492Y007931D01*
X021530Y007941D01*
X021564Y007961D01*
X021592Y007988D01*
X021612Y008023D01*
X021622Y008061D01*
X021622Y008435D01*
X021622Y008809D01*
X021612Y008847D01*
X021592Y008881D01*
X021564Y008909D01*
X021530Y008929D01*
X021492Y008939D01*
X021403Y008939D01*
X021403Y008435D01*
X021403Y008435D01*
X021403Y008435D01*
X021622Y008435D01*
X021403Y008435D01*
X021403Y008435D01*
X021403Y008457D02*
X021403Y008457D01*
X021403Y008555D02*
X021403Y008555D01*
X021403Y008654D02*
X021403Y008654D01*
X021403Y008752D02*
X021403Y008752D01*
X021403Y008851D02*
X021403Y008851D01*
X021197Y008851D02*
X021193Y008851D01*
X021193Y008949D02*
X021698Y008949D01*
X021624Y008851D02*
X021610Y008851D01*
X021622Y008752D02*
X021624Y008752D01*
X021622Y008654D02*
X021624Y008654D01*
X021622Y008555D02*
X021624Y008555D01*
X021622Y008457D02*
X021624Y008457D01*
X021622Y008358D02*
X021624Y008358D01*
X021622Y008260D02*
X021624Y008260D01*
X021622Y008161D02*
X021624Y008161D01*
X021622Y008063D02*
X021624Y008063D01*
X021654Y007964D02*
X021568Y007964D01*
X021403Y007964D02*
X021403Y007964D01*
X021403Y008063D02*
X021403Y008063D01*
X021403Y008161D02*
X021403Y008161D01*
X022153Y007964D02*
X022154Y007964D01*
X022653Y007964D02*
X022654Y007964D01*
X023153Y007964D02*
X023154Y007964D01*
X023682Y008752D02*
X028528Y008752D01*
X028528Y008851D02*
X023682Y008851D01*
X023609Y008949D02*
X028528Y008949D01*
X028528Y009048D02*
X021193Y009048D01*
X021193Y009146D02*
X028528Y009146D01*
X028528Y009245D02*
X021193Y009245D01*
X021333Y009343D02*
X028528Y009343D01*
X028528Y009442D02*
X022433Y009442D01*
X022433Y009440D02*
X022443Y009478D01*
X022443Y009802D01*
X022028Y009802D01*
X022028Y009348D01*
X022313Y009348D01*
X022351Y009358D01*
X022385Y009378D01*
X022413Y009406D01*
X022433Y009440D01*
X022443Y009540D02*
X028528Y009540D01*
X028528Y009639D02*
X022443Y009639D01*
X022443Y009737D02*
X028528Y009737D01*
X028528Y009836D02*
X022028Y009836D01*
X022028Y009802D02*
X022028Y009902D01*
X022443Y009902D01*
X022443Y010226D01*
X022433Y010264D01*
X022413Y010299D01*
X022385Y010327D01*
X022351Y010346D01*
X022313Y010357D01*
X022028Y010357D01*
X022028Y009902D01*
X021928Y009902D01*
X021928Y009802D01*
X022028Y009802D01*
X022028Y009737D02*
X021928Y009737D01*
X021928Y009802D02*
X021928Y009348D01*
X021643Y009348D01*
X021605Y009358D01*
X021571Y009378D01*
X021543Y009406D01*
X021523Y009440D01*
X021513Y009478D01*
X021513Y009802D01*
X021928Y009802D01*
X021928Y009836D02*
X021401Y009836D01*
X021401Y009934D02*
X021513Y009934D01*
X021513Y009902D02*
X021928Y009902D01*
X021928Y010357D01*
X021643Y010357D01*
X021605Y010346D01*
X021571Y010327D01*
X021543Y010299D01*
X021523Y010264D01*
X021513Y010226D01*
X021513Y009902D01*
X021513Y010033D02*
X021401Y010033D01*
X021401Y010131D02*
X021513Y010131D01*
X021514Y010230D02*
X021401Y010230D01*
X021366Y010328D02*
X021574Y010328D01*
X021928Y010328D02*
X022028Y010328D01*
X022028Y010230D02*
X021928Y010230D01*
X021928Y010131D02*
X022028Y010131D01*
X022028Y010033D02*
X021928Y010033D01*
X021928Y009934D02*
X022028Y009934D01*
X022443Y009934D02*
X028528Y009934D01*
X028528Y010033D02*
X022443Y010033D01*
X022443Y010131D02*
X028528Y010131D01*
X028528Y010230D02*
X028272Y010230D01*
X028257Y010215D02*
X028380Y010338D01*
X028380Y011312D01*
X028257Y011435D01*
X027283Y011435D01*
X027163Y011315D01*
X026172Y011315D01*
X026172Y011498D01*
X026049Y011621D01*
X025206Y011621D01*
X025083Y011498D01*
X025083Y010340D01*
X025206Y010217D01*
X026049Y010217D01*
X026167Y010335D01*
X027163Y010335D01*
X027283Y010215D01*
X028257Y010215D01*
X028370Y010328D02*
X028528Y010328D01*
X028528Y010427D02*
X028380Y010427D01*
X028380Y010525D02*
X028528Y010525D01*
X028528Y010624D02*
X028380Y010624D01*
X028380Y010722D02*
X028528Y010722D01*
X028528Y010821D02*
X028380Y010821D01*
X028380Y010919D02*
X028528Y010919D01*
X028528Y011018D02*
X028380Y011018D01*
X028380Y011116D02*
X028528Y011116D01*
X028528Y011215D02*
X028380Y011215D01*
X028378Y011313D02*
X028528Y011313D01*
X028528Y011412D02*
X028279Y011412D01*
X028528Y011510D02*
X026160Y011510D01*
X026172Y011412D02*
X027260Y011412D01*
X027481Y011732D02*
X027558Y011693D01*
X027641Y011666D01*
X027720Y011654D01*
X027720Y012153D01*
X027820Y012153D01*
X027820Y012253D01*
X028318Y012253D01*
X028306Y012331D01*
X028279Y012414D01*
X028240Y012491D01*
X028189Y012561D01*
X028128Y012622D01*
X028058Y012673D01*
X027981Y012712D01*
X027898Y012739D01*
X027820Y012752D01*
X027820Y012253D01*
X027720Y012253D01*
X027720Y012752D01*
X027641Y012739D01*
X027558Y012712D01*
X027481Y012673D01*
X027411Y012622D01*
X027350Y012561D01*
X027299Y012491D01*
X027260Y012414D01*
X027233Y012331D01*
X027221Y012253D01*
X027720Y012253D01*
X027720Y012153D01*
X027221Y012153D01*
X027233Y012074D01*
X027260Y011991D01*
X027299Y011914D01*
X027350Y011844D01*
X027411Y011783D01*
X027481Y011732D01*
X027530Y011707D02*
X017852Y011707D01*
X017950Y011609D02*
X023619Y011609D01*
X023520Y011510D02*
X018049Y011510D01*
X018147Y011412D02*
X023508Y011412D01*
X024487Y011609D02*
X025194Y011609D01*
X025095Y011510D02*
X024586Y011510D01*
X024598Y011412D02*
X025083Y011412D01*
X025083Y011313D02*
X024598Y011313D01*
X024598Y011215D02*
X025083Y011215D01*
X025083Y011116D02*
X024598Y011116D01*
X024598Y011018D02*
X025083Y011018D01*
X025083Y010919D02*
X024598Y010919D01*
X024598Y010821D02*
X025083Y010821D01*
X025083Y010722D02*
X024598Y010722D01*
X024598Y010624D02*
X025083Y010624D01*
X025083Y010525D02*
X024598Y010525D01*
X024598Y010427D02*
X025083Y010427D01*
X025095Y010328D02*
X024586Y010328D01*
X024487Y010230D02*
X025193Y010230D01*
X026062Y010230D02*
X027267Y010230D01*
X027169Y010328D02*
X026161Y010328D01*
X026062Y011609D02*
X028528Y011609D01*
X028528Y011707D02*
X028009Y011707D01*
X027981Y011693D02*
X028058Y011732D01*
X028128Y011783D01*
X028189Y011844D01*
X028240Y011914D01*
X028279Y011991D01*
X028306Y012074D01*
X028318Y012153D01*
X027820Y012153D01*
X027820Y011654D01*
X027898Y011666D01*
X027981Y011693D01*
X027820Y011707D02*
X027720Y011707D01*
X027720Y011806D02*
X027820Y011806D01*
X027820Y011904D02*
X027720Y011904D01*
X027720Y012003D02*
X027820Y012003D01*
X027820Y012101D02*
X027720Y012101D01*
X027720Y012200D02*
X020568Y012200D01*
X020578Y012210D02*
X020578Y012857D01*
X020508Y012926D01*
X020508Y013418D01*
X020653Y013562D01*
X020761Y013823D01*
X020761Y014106D01*
X020653Y014367D01*
X022249Y014367D01*
X022249Y014465D02*
X020554Y014465D01*
X020456Y014564D02*
X022273Y014564D01*
X022279Y014574D02*
X022260Y014540D01*
X022249Y014502D01*
X022249Y013842D01*
X022548Y013842D01*
X022548Y014632D01*
X022380Y014632D01*
X022342Y014622D01*
X022307Y014602D01*
X022279Y014574D01*
X022218Y014761D02*
X018483Y014761D01*
X018483Y014859D02*
X022189Y014859D01*
X022189Y014958D02*
X018483Y014958D01*
X018483Y015056D02*
X022189Y015056D01*
X022189Y015155D02*
X018418Y015155D01*
X018483Y014662D02*
X019880Y014662D01*
X019910Y014674D02*
X019649Y014566D01*
X019449Y014367D01*
X018483Y014367D01*
X018483Y014465D02*
X019548Y014465D01*
X019646Y014564D02*
X018483Y014564D01*
X018467Y014268D02*
X019408Y014268D01*
X019368Y014170D02*
X018368Y014170D01*
X018331Y014039D02*
X018293Y014049D01*
X017969Y014049D01*
X017969Y013634D01*
X018423Y013634D01*
X018423Y013919D01*
X018413Y013957D01*
X018393Y013992D01*
X018366Y014019D01*
X018331Y014039D01*
X018404Y013973D02*
X019341Y013973D01*
X019341Y014071D02*
X017067Y014071D01*
X017067Y013973D02*
X017434Y013973D01*
X017425Y013957D02*
X017415Y013919D01*
X017415Y013634D01*
X017869Y013634D01*
X017869Y013534D01*
X017969Y013534D01*
X017969Y013120D01*
X018293Y013120D01*
X018331Y013130D01*
X018366Y013149D01*
X018393Y013177D01*
X018413Y013212D01*
X018423Y013250D01*
X018423Y013534D01*
X017969Y013534D01*
X017969Y013634D01*
X017869Y013634D01*
X017869Y014049D01*
X017545Y014049D01*
X017507Y014039D01*
X017473Y014019D01*
X017445Y013992D01*
X017425Y013957D01*
X017415Y013874D02*
X017067Y013874D01*
X017067Y013776D02*
X017415Y013776D01*
X017415Y013677D02*
X017067Y013677D01*
X017067Y013579D02*
X017869Y013579D01*
X017869Y013534D02*
X017415Y013534D01*
X017415Y013250D01*
X017425Y013212D01*
X017445Y013177D01*
X017473Y013149D01*
X017507Y013130D01*
X017545Y013120D01*
X017869Y013120D01*
X017869Y013534D01*
X017869Y013480D02*
X017969Y013480D01*
X017969Y013382D02*
X017869Y013382D01*
X017869Y013283D02*
X017969Y013283D01*
X017969Y013185D02*
X017869Y013185D01*
X017441Y013185D02*
X017067Y013185D01*
X017067Y013283D02*
X017415Y013283D01*
X017415Y013382D02*
X017067Y013382D01*
X017067Y013480D02*
X017415Y013480D01*
X017869Y013677D02*
X017969Y013677D01*
X017969Y013579D02*
X019442Y013579D01*
X019449Y013562D02*
X019649Y013363D01*
X019910Y013254D01*
X019928Y013254D01*
X019928Y012942D01*
X019843Y012857D01*
X019843Y012210D01*
X019966Y012087D01*
X020455Y012087D01*
X020578Y012210D01*
X020578Y012298D02*
X027228Y012298D01*
X027254Y012397D02*
X020578Y012397D01*
X020578Y012495D02*
X027302Y012495D01*
X027383Y012594D02*
X020578Y012594D01*
X020578Y012692D02*
X027519Y012692D01*
X027720Y012692D02*
X027820Y012692D01*
X027820Y012594D02*
X027720Y012594D01*
X027720Y012495D02*
X027820Y012495D01*
X027820Y012397D02*
X027720Y012397D01*
X027720Y012298D02*
X027820Y012298D01*
X027820Y012200D02*
X028528Y012200D01*
X028528Y012298D02*
X028311Y012298D01*
X028285Y012397D02*
X028528Y012397D01*
X028528Y012495D02*
X028237Y012495D01*
X028156Y012594D02*
X028528Y012594D01*
X028528Y012692D02*
X028020Y012692D01*
X028528Y012791D02*
X020578Y012791D01*
X020545Y012889D02*
X028528Y012889D01*
X028528Y012988D02*
X022889Y012988D01*
X022885Y012984D02*
X022913Y013012D01*
X022933Y013046D01*
X022943Y013084D01*
X022943Y013745D01*
X022645Y013745D01*
X022645Y013842D01*
X022548Y013842D01*
X022548Y013745D01*
X022249Y013745D01*
X022249Y013084D01*
X022260Y013046D01*
X022279Y013012D01*
X022307Y012984D01*
X022342Y012964D01*
X022380Y012954D01*
X022548Y012954D01*
X022548Y013745D01*
X022645Y013745D01*
X022645Y012954D01*
X022813Y012954D01*
X022851Y012964D01*
X022885Y012984D01*
X022943Y013086D02*
X028528Y013086D01*
X028528Y013185D02*
X022943Y013185D01*
X022943Y013283D02*
X028528Y013283D01*
X028528Y013382D02*
X028113Y013382D01*
X028099Y013374D02*
X028133Y013394D01*
X028161Y013422D01*
X028181Y013456D01*
X028191Y013494D01*
X028191Y013818D01*
X027776Y013818D01*
X027776Y013364D01*
X028061Y013364D01*
X028099Y013374D01*
X028188Y013480D02*
X028528Y013480D01*
X028528Y013579D02*
X028191Y013579D01*
X028191Y013677D02*
X028528Y013677D01*
X028528Y013776D02*
X028191Y013776D01*
X028191Y013918D02*
X028191Y014242D01*
X028181Y014280D01*
X028161Y014314D01*
X028133Y014342D01*
X028099Y014362D01*
X028061Y014372D01*
X027776Y014372D01*
X027776Y013918D01*
X027676Y013918D01*
X027676Y013818D01*
X027261Y013818D01*
X027261Y013494D01*
X027271Y013456D01*
X027291Y013422D01*
X027319Y013394D01*
X027353Y013374D01*
X027392Y013364D01*
X027676Y013364D01*
X027676Y013818D01*
X027776Y013818D01*
X027776Y013918D01*
X028191Y013918D01*
X028191Y013973D02*
X028528Y013973D01*
X028528Y014071D02*
X028191Y014071D01*
X028191Y014170D02*
X028528Y014170D01*
X028528Y014268D02*
X028184Y014268D01*
X028082Y014367D02*
X028528Y014367D01*
X028528Y014465D02*
X025520Y014465D01*
X025464Y014350D02*
X025644Y014170D01*
X026099Y014170D01*
X026099Y014309D01*
X026222Y014432D01*
X027026Y014432D01*
X027149Y014309D01*
X027149Y013427D01*
X027026Y013304D01*
X026222Y013304D01*
X026099Y013427D01*
X026099Y013590D01*
X025644Y013590D01*
X025464Y013410D01*
X025075Y013410D01*
X024800Y013685D01*
X024800Y014074D01*
X025075Y014350D01*
X025464Y014350D01*
X025546Y014268D02*
X026099Y014268D01*
X026156Y014367D02*
X024550Y014367D01*
X024550Y014350D02*
X024550Y014410D01*
X024930Y014410D01*
X024930Y014550D01*
X024689Y014790D01*
X024550Y014790D01*
X024550Y014410D01*
X024490Y014410D01*
X024490Y014790D01*
X024350Y014790D01*
X024110Y014550D01*
X024110Y014410D01*
X024490Y014410D01*
X024490Y014350D01*
X024550Y014350D01*
X024930Y014350D01*
X024930Y014210D01*
X024689Y013970D01*
X024550Y013970D01*
X024550Y014350D01*
X024490Y014350D02*
X024490Y013970D01*
X024350Y013970D01*
X024110Y014210D01*
X024110Y014350D01*
X024490Y014350D01*
X024490Y014367D02*
X022943Y014367D01*
X022943Y014465D02*
X024110Y014465D01*
X024124Y014564D02*
X022919Y014564D01*
X022913Y014574D02*
X022885Y014602D01*
X022851Y014622D01*
X022813Y014632D01*
X022645Y014632D01*
X022645Y013842D01*
X022943Y013842D01*
X022943Y014502D01*
X022933Y014540D01*
X022913Y014574D01*
X022975Y014761D02*
X024321Y014761D01*
X024222Y014662D02*
X020222Y014662D01*
X020192Y014674D02*
X019910Y014674D01*
X020192Y014674D02*
X020453Y014566D01*
X020653Y014367D01*
X020694Y014268D02*
X022249Y014268D01*
X022249Y014170D02*
X020734Y014170D01*
X020761Y014071D02*
X022249Y014071D01*
X022249Y013973D02*
X020761Y013973D01*
X020761Y013874D02*
X022249Y013874D01*
X022249Y013677D02*
X020701Y013677D01*
X020660Y013579D02*
X022249Y013579D01*
X022249Y013480D02*
X020571Y013480D01*
X020508Y013382D02*
X022249Y013382D01*
X022249Y013283D02*
X020508Y013283D01*
X020508Y013185D02*
X022249Y013185D01*
X022249Y013086D02*
X020508Y013086D01*
X020508Y012988D02*
X022304Y012988D01*
X022548Y012988D02*
X022645Y012988D01*
X022645Y013086D02*
X022548Y013086D01*
X022548Y013185D02*
X022645Y013185D01*
X022645Y013283D02*
X022548Y013283D01*
X022548Y013382D02*
X022645Y013382D01*
X022645Y013480D02*
X022548Y013480D01*
X022548Y013579D02*
X022645Y013579D01*
X022645Y013677D02*
X022548Y013677D01*
X022548Y013776D02*
X020741Y013776D01*
X019928Y013185D02*
X018398Y013185D01*
X018423Y013283D02*
X019840Y013283D01*
X019928Y013086D02*
X017067Y013086D01*
X017067Y012988D02*
X019928Y012988D01*
X019876Y012889D02*
X019752Y012889D01*
X019751Y012890D02*
X019717Y012909D01*
X019679Y012920D01*
X019531Y012920D01*
X019531Y012562D01*
X019809Y012562D01*
X019809Y012789D01*
X019799Y012827D01*
X019779Y012862D01*
X019751Y012890D01*
X019809Y012791D02*
X019843Y012791D01*
X019843Y012692D02*
X019809Y012692D01*
X019809Y012594D02*
X019843Y012594D01*
X019809Y012505D02*
X019531Y012505D01*
X019531Y012562D01*
X019473Y012562D01*
X019473Y012505D01*
X019194Y012505D01*
X019194Y012277D01*
X019205Y012239D01*
X019224Y012205D01*
X019252Y012177D01*
X019286Y012157D01*
X019325Y012147D01*
X019473Y012147D01*
X019473Y012505D01*
X019531Y012505D01*
X019531Y012147D01*
X019679Y012147D01*
X019717Y012157D01*
X019751Y012177D01*
X019779Y012205D01*
X019799Y012239D01*
X019809Y012277D01*
X019809Y012505D01*
X019809Y012495D02*
X019843Y012495D01*
X019843Y012397D02*
X019809Y012397D01*
X019809Y012298D02*
X019843Y012298D01*
X019853Y012200D02*
X019774Y012200D01*
X019952Y012101D02*
X017458Y012101D01*
X017556Y012003D02*
X027256Y012003D01*
X027229Y012101D02*
X020469Y012101D01*
X019531Y012200D02*
X019473Y012200D01*
X019473Y012298D02*
X019531Y012298D01*
X019531Y012397D02*
X019473Y012397D01*
X019473Y012495D02*
X019531Y012495D01*
X019473Y012562D02*
X019194Y012562D01*
X019194Y012789D01*
X019205Y012827D01*
X019224Y012862D01*
X019252Y012890D01*
X019286Y012909D01*
X019325Y012920D01*
X019473Y012920D01*
X019473Y012562D01*
X019473Y012594D02*
X019531Y012594D01*
X019531Y012692D02*
X019473Y012692D01*
X019473Y012791D02*
X019531Y012791D01*
X019531Y012889D02*
X019473Y012889D01*
X019252Y012889D02*
X017067Y012889D01*
X017067Y012791D02*
X019195Y012791D01*
X019194Y012692D02*
X017067Y012692D01*
X017067Y012594D02*
X019194Y012594D01*
X019194Y012495D02*
X017067Y012495D01*
X017162Y012397D02*
X019194Y012397D01*
X019194Y012298D02*
X017261Y012298D01*
X017359Y012200D02*
X019230Y012200D01*
X019630Y013382D02*
X018423Y013382D01*
X018423Y013480D02*
X019531Y013480D01*
X019449Y013562D02*
X019341Y013823D01*
X019341Y014106D01*
X019449Y014367D01*
X019341Y013874D02*
X018423Y013874D01*
X018423Y013776D02*
X019361Y013776D01*
X019401Y013677D02*
X018423Y013677D01*
X017969Y013776D02*
X017869Y013776D01*
X017869Y013874D02*
X017969Y013874D01*
X017969Y013973D02*
X017869Y013973D01*
X017470Y014170D02*
X017067Y014170D01*
X017067Y014268D02*
X017371Y014268D01*
X017355Y014367D02*
X017067Y014367D01*
X017355Y015056D02*
X016530Y015056D01*
X016432Y015155D02*
X017421Y015155D01*
X016333Y015253D02*
X022189Y015253D01*
X022004Y015352D02*
X016235Y015352D01*
X016136Y015450D02*
X021905Y015450D01*
X021807Y015549D02*
X016038Y015549D01*
X015870Y015647D02*
X021708Y015647D01*
X021610Y015746D02*
X014274Y015746D01*
X014136Y015844D02*
X021511Y015844D01*
X021413Y015943D02*
X011177Y015943D01*
X011158Y016041D02*
X021314Y016041D01*
X021216Y016140D02*
X011211Y016140D01*
X011310Y016238D02*
X021117Y016238D01*
X021019Y016337D02*
X015076Y016337D01*
X015227Y016435D02*
X020920Y016435D01*
X020822Y016534D02*
X015326Y016534D01*
X015248Y016456D02*
X015248Y016456D01*
X015424Y016632D02*
X020723Y016632D01*
X020625Y016731D02*
X015523Y016731D01*
X015621Y016829D02*
X020526Y016829D01*
X020428Y016928D02*
X015720Y016928D01*
X015818Y017026D02*
X019857Y017026D01*
X019637Y017125D02*
X015917Y017125D01*
X016015Y017223D02*
X019538Y017223D01*
X019445Y017322D02*
X016114Y017322D01*
X016212Y017420D02*
X019404Y017420D01*
X019405Y018011D02*
X014451Y018011D01*
X014451Y017913D02*
X015885Y017913D01*
X015786Y017814D02*
X014451Y017814D01*
X014451Y017617D02*
X015589Y017617D01*
X015490Y017519D02*
X014451Y017519D01*
X014451Y017420D02*
X015392Y017420D01*
X015293Y017322D02*
X014451Y017322D01*
X014451Y017223D02*
X015195Y017223D01*
X015096Y017125D02*
X014422Y017125D01*
X014899Y016928D02*
X006186Y016928D01*
X006201Y017026D02*
X014998Y017026D01*
X015688Y017716D02*
X013851Y017716D01*
X013851Y017617D02*
X013751Y017617D01*
X013751Y017664D02*
X013751Y017064D01*
X013281Y017064D01*
X013243Y017075D01*
X013209Y017094D01*
X013181Y017122D01*
X013161Y017157D01*
X013151Y017195D01*
X013151Y017664D01*
X013751Y017664D01*
X013751Y017716D02*
X006132Y017716D01*
X006166Y017617D02*
X013151Y017617D01*
X013151Y017519D02*
X006182Y017519D01*
X006197Y017420D02*
X013151Y017420D01*
X013151Y017322D02*
X006213Y017322D01*
X006229Y017223D02*
X013151Y017223D01*
X013180Y017125D02*
X006217Y017125D01*
X006231Y017210D02*
X006231Y017210D01*
X006170Y016829D02*
X011081Y016829D01*
X010982Y016731D02*
X006145Y016731D01*
X006095Y016632D02*
X010884Y016632D01*
X010785Y016534D02*
X006045Y016534D01*
X005995Y016435D02*
X010687Y016435D01*
X010608Y016337D02*
X005938Y016337D01*
X005840Y016238D02*
X010578Y016238D01*
X010578Y016140D02*
X005741Y016140D01*
X005643Y016041D02*
X010578Y016041D01*
X010558Y015943D02*
X005465Y015943D01*
X005271Y015844D02*
X010496Y015844D01*
X010460Y015746D02*
X004767Y015746D01*
X004766Y015745D02*
X004766Y015745D01*
X004764Y015746D02*
X002061Y015746D01*
X002070Y015723D02*
X001982Y015937D01*
X001819Y016100D01*
X001799Y016108D01*
X001819Y016116D01*
X001982Y016280D01*
X002070Y016493D01*
X002070Y016723D01*
X001982Y016937D01*
X001819Y017100D01*
X001719Y017141D01*
X001763Y017163D01*
X001829Y017211D01*
X001887Y017269D01*
X001935Y017336D01*
X001972Y017408D01*
X001997Y017486D01*
X002009Y017558D01*
X001540Y017558D01*
X001540Y017658D01*
X002009Y017658D01*
X001997Y017730D01*
X001972Y017808D01*
X001935Y017881D01*
X001887Y017947D01*
X001829Y018005D01*
X001763Y018053D01*
X001690Y018090D01*
X001612Y018115D01*
X001540Y018127D01*
X001540Y017658D01*
X001440Y017658D01*
X001440Y017558D01*
X000971Y017558D01*
X000983Y017486D01*
X001008Y017408D01*
X001045Y017336D01*
X001093Y017269D01*
X001151Y017211D01*
X001217Y017163D01*
X001261Y017141D01*
X001161Y017100D01*
X000998Y016937D01*
X000910Y016723D01*
X000910Y016493D01*
X000998Y016280D01*
X001161Y016116D01*
X001181Y016108D01*
X001161Y016100D01*
X000998Y015937D01*
X000910Y015723D01*
X000910Y015493D01*
X000998Y015280D01*
X001161Y015116D01*
X001375Y015028D01*
X001605Y015028D01*
X001819Y015116D01*
X001982Y015280D01*
X002070Y015493D01*
X002070Y015723D01*
X002070Y015647D02*
X007035Y015647D01*
X006936Y015549D02*
X002070Y015549D01*
X002052Y015450D02*
X006886Y015450D01*
X006857Y015352D02*
X002012Y015352D01*
X001955Y015253D02*
X006857Y015253D01*
X006884Y015155D02*
X001857Y015155D01*
X001673Y015056D02*
X006933Y015056D01*
X006976Y014958D02*
X000885Y014958D01*
X000885Y015056D02*
X001307Y015056D01*
X001123Y015155D02*
X000885Y015155D01*
X000885Y015253D02*
X001025Y015253D01*
X000968Y015352D02*
X000885Y015352D01*
X000885Y015450D02*
X000928Y015450D01*
X000910Y015549D02*
X000885Y015549D01*
X000885Y015647D02*
X000910Y015647D01*
X000919Y015746D02*
X000885Y015746D01*
X000885Y015844D02*
X000960Y015844D01*
X001004Y015943D02*
X000885Y015943D01*
X000885Y016041D02*
X001103Y016041D01*
X001138Y016140D02*
X000885Y016140D01*
X000885Y016238D02*
X001040Y016238D01*
X000975Y016337D02*
X000885Y016337D01*
X000885Y016435D02*
X000934Y016435D01*
X000910Y016534D02*
X000885Y016534D01*
X000885Y016632D02*
X000910Y016632D01*
X000913Y016731D02*
X000885Y016731D01*
X000885Y016829D02*
X000954Y016829D01*
X000995Y016928D02*
X000885Y016928D01*
X000885Y017026D02*
X001088Y017026D01*
X001222Y017125D02*
X000885Y017125D01*
X000885Y017223D02*
X001139Y017223D01*
X001055Y017322D02*
X000885Y017322D01*
X000885Y017420D02*
X001004Y017420D01*
X000978Y017519D02*
X000885Y017519D01*
X000885Y017617D02*
X001440Y017617D01*
X001440Y017658D02*
X000971Y017658D01*
X000983Y017730D01*
X001008Y017808D01*
X001045Y017881D01*
X001093Y017947D01*
X001151Y018005D01*
X001217Y018053D01*
X001290Y018090D01*
X001368Y018115D01*
X001440Y018127D01*
X001440Y017658D01*
X001440Y017716D02*
X001540Y017716D01*
X001540Y017814D02*
X001440Y017814D01*
X001440Y017913D02*
X001540Y017913D01*
X001540Y018011D02*
X001440Y018011D01*
X001440Y018110D02*
X001540Y018110D01*
X001629Y018110D02*
X003619Y018110D01*
X003550Y018011D02*
X001820Y018011D01*
X001911Y017913D02*
X003499Y017913D01*
X003449Y017814D02*
X001969Y017814D01*
X001999Y017716D02*
X003399Y017716D01*
X003372Y017663D02*
X003372Y017663D01*
X003365Y017617D02*
X001540Y017617D01*
X002002Y017519D02*
X003349Y017519D01*
X003334Y017420D02*
X001976Y017420D01*
X001925Y017322D02*
X003318Y017322D01*
X003303Y017223D02*
X001841Y017223D01*
X001758Y017125D02*
X003314Y017125D01*
X003301Y017210D02*
X003301Y017210D01*
X003330Y017026D02*
X001892Y017026D01*
X001985Y016928D02*
X003345Y016928D01*
X003361Y016829D02*
X002026Y016829D01*
X002067Y016731D02*
X003386Y016731D01*
X003436Y016632D02*
X002070Y016632D01*
X002070Y016534D02*
X003486Y016534D01*
X003537Y016435D02*
X002046Y016435D01*
X002005Y016337D02*
X003593Y016337D01*
X003580Y016349D02*
X003580Y016349D01*
X003692Y016238D02*
X001940Y016238D01*
X001842Y016140D02*
X003790Y016140D01*
X003889Y016041D02*
X001877Y016041D01*
X001976Y015943D02*
X004066Y015943D01*
X004260Y015844D02*
X002020Y015844D01*
X000885Y014859D02*
X006976Y014859D01*
X006976Y014761D02*
X000885Y014761D01*
X000885Y014662D02*
X006976Y014662D01*
X006976Y014564D02*
X000885Y014564D01*
X000885Y014465D02*
X006976Y014465D01*
X006976Y014367D02*
X000885Y014367D01*
X000885Y014268D02*
X006976Y014268D01*
X006976Y014170D02*
X000885Y014170D01*
X000885Y014071D02*
X006976Y014071D01*
X007556Y014268D02*
X010512Y014268D01*
X010471Y014170D02*
X007626Y014170D01*
X007724Y014071D02*
X010460Y014071D01*
X010463Y013973D02*
X007823Y013973D01*
X007921Y013874D02*
X010504Y013874D01*
X010522Y013776D02*
X008375Y013776D01*
X008474Y013677D02*
X010434Y013677D01*
X010434Y013579D02*
X008491Y013579D01*
X008491Y013480D02*
X010434Y013480D01*
X010434Y013382D02*
X008491Y013382D01*
X008491Y013283D02*
X010434Y013283D01*
X010447Y013185D02*
X008491Y013185D01*
X008407Y013086D02*
X010541Y013086D01*
X010443Y012988D02*
X008455Y012988D01*
X008491Y012889D02*
X010434Y012889D01*
X010434Y012791D02*
X008491Y012791D01*
X008491Y012692D02*
X010434Y012692D01*
X010434Y012594D02*
X008491Y012594D01*
X008552Y012495D02*
X010388Y012495D01*
X010290Y012397D02*
X008651Y012397D01*
X008657Y012298D02*
X010284Y012298D01*
X010284Y012200D02*
X008657Y012200D01*
X008657Y012101D02*
X010284Y012101D01*
X010284Y012003D02*
X008657Y012003D01*
X008657Y011904D02*
X010284Y011904D01*
X010284Y011806D02*
X008657Y011806D01*
X008657Y011707D02*
X010284Y011707D01*
X010284Y011609D02*
X008657Y011609D01*
X008657Y011510D02*
X010284Y011510D01*
X010284Y011412D02*
X008657Y011412D01*
X008657Y011313D02*
X010284Y011313D01*
X010284Y011215D02*
X008657Y011215D01*
X008657Y011116D02*
X010284Y011116D01*
X010284Y011018D02*
X008657Y011018D01*
X008657Y010919D02*
X010284Y010919D01*
X010284Y010821D02*
X008657Y010821D01*
X008657Y010722D02*
X010284Y010722D01*
X010284Y010624D02*
X008657Y010624D01*
X008657Y010525D02*
X010284Y010525D01*
X010284Y010427D02*
X008657Y010427D01*
X008657Y010328D02*
X010284Y010328D01*
X010284Y010230D02*
X008657Y010230D01*
X008657Y010131D02*
X010284Y010131D01*
X010311Y010033D02*
X008657Y010033D01*
X008657Y009934D02*
X010344Y009934D01*
X010344Y009975D02*
X010368Y009975D01*
X010368Y009975D01*
X010344Y009975D01*
X010347Y009836D02*
X008657Y009836D01*
X008657Y009737D02*
X010344Y009737D01*
X010344Y009725D02*
X010368Y009725D01*
X010344Y009725D01*
X010368Y009725D02*
X010368Y009725D01*
X010284Y009639D02*
X008657Y009639D01*
X008657Y009540D02*
X010284Y009540D01*
X010284Y009442D02*
X008657Y009442D01*
X008657Y009343D02*
X010284Y009343D01*
X010284Y009245D02*
X008657Y009245D01*
X008657Y009146D02*
X010284Y009146D01*
X010284Y009048D02*
X008645Y009048D01*
X008597Y008949D02*
X010284Y008949D01*
X010284Y008851D02*
X008590Y008851D01*
X008597Y008752D02*
X010284Y008752D01*
X010284Y008654D02*
X008644Y008654D01*
X008657Y008555D02*
X010284Y008555D01*
X010284Y008457D02*
X008657Y008457D01*
X008657Y008358D02*
X010284Y008358D01*
X010284Y008260D02*
X008657Y008260D01*
X008657Y008161D02*
X010284Y008161D01*
X010284Y008063D02*
X008657Y008063D01*
X008657Y007964D02*
X010284Y007964D01*
X010284Y007866D02*
X008657Y007866D01*
X008657Y007767D02*
X010284Y007767D01*
X010284Y007669D02*
X008657Y007669D01*
X008657Y007570D02*
X010284Y007570D01*
X010284Y007472D02*
X008657Y007472D01*
X008657Y007373D02*
X010284Y007373D01*
X010284Y007275D02*
X008657Y007275D01*
X008657Y007176D02*
X010284Y007176D01*
X010284Y007078D02*
X008657Y007078D01*
X008753Y006979D02*
X010284Y006979D01*
X010284Y006881D02*
X008852Y006881D01*
X008903Y006782D02*
X010311Y006782D01*
X010888Y008225D02*
X010888Y008254D01*
X010888Y008725D02*
X010889Y008726D01*
X010888Y008975D02*
X012076Y008975D01*
X010888Y009765D02*
X010888Y009765D01*
X010888Y009936D01*
X010888Y009936D01*
X010888Y009765D01*
X010888Y009836D02*
X010888Y009836D01*
X010888Y009934D02*
X010888Y009934D01*
X010891Y010222D02*
X012423Y010222D01*
X012915Y010714D01*
X012915Y011423D01*
X013033Y011541D01*
X013455Y011541D01*
X013514Y011600D01*
X012475Y012594D02*
X012452Y012594D01*
X012452Y012692D02*
X012573Y012692D01*
X012672Y012791D02*
X012452Y012791D01*
X012452Y012889D02*
X012770Y012889D01*
X012924Y012988D02*
X012452Y012988D01*
X012452Y013086D02*
X016087Y013086D01*
X016087Y012988D02*
X015445Y012988D01*
X015599Y012889D02*
X016087Y012889D01*
X016087Y012791D02*
X015698Y012791D01*
X015796Y012692D02*
X016087Y012692D01*
X016087Y012594D02*
X015895Y012594D01*
X015993Y012495D02*
X016087Y012495D01*
X016087Y013185D02*
X012452Y013185D01*
X012452Y013283D02*
X013590Y013283D01*
X013380Y013382D02*
X012387Y013382D01*
X012300Y013563D02*
X012334Y013583D01*
X012362Y013610D01*
X012382Y013645D01*
X012392Y013683D01*
X012392Y013968D01*
X011938Y013968D01*
X011938Y013553D01*
X012262Y013553D01*
X012300Y013563D01*
X012327Y013579D02*
X013192Y013579D01*
X013151Y013677D02*
X012390Y013677D01*
X012392Y013776D02*
X013111Y013776D01*
X013091Y013874D02*
X012392Y013874D01*
X011938Y013874D02*
X011838Y013874D01*
X011838Y013968D02*
X011838Y013553D01*
X011514Y013553D01*
X011475Y013563D01*
X011441Y013583D01*
X011413Y013610D01*
X011394Y013645D01*
X011383Y013683D01*
X011383Y013968D01*
X011838Y013968D01*
X011838Y013973D02*
X011273Y013973D01*
X011276Y014071D02*
X011383Y014071D01*
X011383Y014170D02*
X011265Y014170D01*
X011224Y014268D02*
X011383Y014268D01*
X011387Y014367D02*
X011139Y014367D01*
X010958Y014465D02*
X011463Y014465D01*
X011838Y014465D02*
X011938Y014465D01*
X011938Y014367D02*
X011838Y014367D01*
X011838Y014268D02*
X011938Y014268D01*
X011938Y014170D02*
X011838Y014170D01*
X011838Y014071D02*
X011938Y014071D01*
X011938Y013973D02*
X013091Y013973D01*
X013091Y014106D02*
X013199Y014367D01*
X013298Y014465D02*
X012312Y014465D01*
X011938Y013776D02*
X011838Y013776D01*
X011838Y013677D02*
X011938Y013677D01*
X011938Y013579D02*
X011838Y013579D01*
X011448Y013579D02*
X011326Y013579D01*
X011326Y013677D02*
X011385Y013677D01*
X011383Y013776D02*
X011237Y013776D01*
X011232Y013874D02*
X011383Y013874D01*
X011326Y013480D02*
X013281Y013480D01*
X014012Y013283D02*
X016087Y013283D01*
X016087Y013382D02*
X014222Y013382D01*
X014321Y013480D02*
X016087Y013480D01*
X016087Y013579D02*
X014410Y013579D01*
X014451Y013677D02*
X016087Y013677D01*
X016087Y013776D02*
X014491Y013776D01*
X014511Y013874D02*
X016087Y013874D01*
X016087Y013973D02*
X014511Y013973D01*
X014511Y014071D02*
X016087Y014071D01*
X016087Y014114D02*
X015935Y014266D01*
X015508Y014693D01*
X014284Y014693D01*
X014203Y014613D01*
X014147Y014589D01*
X014203Y014566D01*
X014403Y014367D01*
X014304Y014465D02*
X015735Y014465D01*
X015637Y014564D02*
X014206Y014564D01*
X014253Y014662D02*
X015538Y014662D01*
X013396Y014564D02*
X007556Y014564D01*
X007556Y014662D02*
X013349Y014662D01*
X013251Y014761D02*
X007556Y014761D01*
X007556Y014859D02*
X013180Y014859D01*
X013139Y014958D02*
X007556Y014958D01*
X007598Y015056D02*
X013098Y015056D01*
X013091Y015155D02*
X007647Y015155D01*
X007674Y015253D02*
X013091Y015253D01*
X013091Y015352D02*
X011122Y015352D01*
X011217Y015450D02*
X013130Y015450D01*
X013171Y015549D02*
X011257Y015549D01*
X011276Y015647D02*
X013230Y015647D01*
X013328Y015746D02*
X011276Y015746D01*
X011240Y015844D02*
X013466Y015844D01*
X013751Y017125D02*
X013851Y017125D01*
X013851Y017223D02*
X013751Y017223D01*
X013751Y017322D02*
X013851Y017322D01*
X013851Y017420D02*
X013751Y017420D01*
X013751Y017519D02*
X013851Y017519D01*
X013151Y017814D02*
X006082Y017814D01*
X006032Y017913D02*
X013151Y017913D01*
X013151Y018011D02*
X005982Y018011D01*
X005951Y018072D02*
X005951Y018072D01*
X005913Y018110D02*
X013151Y018110D01*
X013151Y018234D02*
X013161Y018272D01*
X013181Y018307D01*
X014392Y018335D02*
X019695Y018335D01*
X019649Y018316D01*
X019541Y018208D02*
X014451Y018208D01*
X014451Y018110D02*
X019446Y018110D01*
X020463Y018307D02*
X024028Y018307D01*
X023930Y018208D02*
X020561Y018208D01*
X020656Y018110D02*
X023831Y018110D01*
X023817Y018095D02*
X023817Y018095D01*
X023774Y018011D02*
X020697Y018011D01*
X020737Y017913D02*
X023724Y017913D01*
X023673Y017814D02*
X020761Y017814D01*
X020761Y017716D02*
X023623Y017716D01*
X023609Y017687D02*
X023609Y017687D01*
X023597Y017617D02*
X020761Y017617D01*
X020738Y017519D02*
X023582Y017519D01*
X023566Y017420D02*
X020755Y017420D01*
X020854Y017322D02*
X023551Y017322D01*
X023537Y017234D02*
X023537Y017234D01*
X023539Y017223D02*
X020952Y017223D01*
X021051Y017125D02*
X023554Y017125D01*
X023570Y017026D02*
X021149Y017026D01*
X021248Y016928D02*
X023585Y016928D01*
X023601Y016829D02*
X021346Y016829D01*
X021445Y016731D02*
X023634Y016731D01*
X023609Y016781D02*
X023609Y016781D01*
X023685Y016632D02*
X021543Y016632D01*
X021642Y016534D02*
X023735Y016534D01*
X023785Y016435D02*
X022909Y016435D01*
X023003Y016337D02*
X023853Y016337D01*
X023817Y016373D02*
X023817Y016373D01*
X023951Y016238D02*
X023003Y016238D01*
X023003Y016140D02*
X024050Y016140D01*
X024141Y016049D02*
X024141Y016049D01*
X024156Y016041D02*
X023003Y016041D01*
X023003Y015943D02*
X024349Y015943D01*
X024250Y015844D02*
X024542Y015844D01*
X024549Y015841D02*
X024549Y015841D01*
X024396Y015746D02*
X027146Y015746D01*
X027146Y015747D02*
X027146Y015516D01*
X027235Y015303D01*
X027398Y015140D01*
X027611Y015052D01*
X027842Y015052D01*
X028055Y015140D01*
X028218Y015303D01*
X028306Y015516D01*
X028306Y015747D01*
X028218Y015960D01*
X028055Y016123D01*
X028035Y016132D01*
X028055Y016140D01*
X028218Y016303D01*
X028306Y016516D01*
X028306Y016747D01*
X028218Y016960D01*
X028055Y017123D01*
X027955Y017165D01*
X027999Y017187D01*
X028065Y017235D01*
X028123Y017293D01*
X028171Y017359D01*
X028208Y017432D01*
X028233Y017510D01*
X028245Y017582D01*
X027776Y017582D01*
X027776Y017682D01*
X027676Y017682D01*
X027676Y018150D01*
X027604Y018139D01*
X027527Y018114D01*
X027454Y018076D01*
X027387Y018028D01*
X027330Y017970D01*
X027281Y017904D01*
X027244Y017831D01*
X027219Y017753D01*
X027208Y017682D01*
X027676Y017682D01*
X027676Y017582D01*
X027208Y017582D01*
X027219Y017510D01*
X027244Y017432D01*
X027281Y017359D01*
X027330Y017293D01*
X027387Y017235D01*
X027454Y017187D01*
X027497Y017165D01*
X027398Y017123D01*
X027235Y016960D01*
X027146Y016747D01*
X027146Y016516D01*
X027235Y016303D01*
X027398Y016140D01*
X027418Y016132D01*
X027398Y016123D01*
X027235Y015960D01*
X027146Y015747D01*
X027146Y015647D02*
X024495Y015647D01*
X024593Y015549D02*
X027146Y015549D01*
X027174Y015450D02*
X025282Y015450D01*
X025381Y015352D02*
X027214Y015352D01*
X027284Y015253D02*
X025561Y015253D01*
X025659Y015155D02*
X027383Y015155D01*
X027600Y015056D02*
X025740Y015056D01*
X025740Y014958D02*
X028528Y014958D01*
X028528Y015056D02*
X027852Y015056D01*
X028069Y015155D02*
X028528Y015155D01*
X028528Y015253D02*
X028168Y015253D01*
X028238Y015352D02*
X028528Y015352D01*
X028528Y015450D02*
X028279Y015450D01*
X028306Y015549D02*
X028528Y015549D01*
X028528Y015647D02*
X028306Y015647D01*
X028306Y015746D02*
X028528Y015746D01*
X028528Y015844D02*
X028266Y015844D01*
X028225Y015943D02*
X028528Y015943D01*
X028528Y016041D02*
X028137Y016041D01*
X028054Y016140D02*
X028528Y016140D01*
X028528Y016238D02*
X028153Y016238D01*
X028232Y016337D02*
X028528Y016337D01*
X028528Y016435D02*
X028273Y016435D01*
X028306Y016534D02*
X028528Y016534D01*
X028528Y016632D02*
X028306Y016632D01*
X028306Y016731D02*
X028528Y016731D01*
X028528Y016829D02*
X028272Y016829D01*
X028231Y016928D02*
X028528Y016928D01*
X028528Y017026D02*
X028152Y017026D01*
X028052Y017125D02*
X028528Y017125D01*
X028528Y017223D02*
X028049Y017223D01*
X028144Y017322D02*
X028528Y017322D01*
X028528Y017420D02*
X028202Y017420D01*
X028235Y017519D02*
X028528Y017519D01*
X028528Y017617D02*
X027776Y017617D01*
X027776Y017682D02*
X028245Y017682D01*
X028233Y017753D01*
X028208Y017831D01*
X028171Y017904D01*
X028123Y017970D01*
X028065Y018028D01*
X027999Y018076D01*
X027926Y018114D01*
X027848Y018139D01*
X027776Y018150D01*
X027776Y017682D01*
X027776Y017716D02*
X027676Y017716D01*
X027676Y017814D02*
X027776Y017814D01*
X027776Y017913D02*
X027676Y017913D01*
X027676Y018011D02*
X027776Y018011D01*
X027776Y018110D02*
X027676Y018110D01*
X027519Y018110D02*
X026172Y018110D01*
X026187Y018095D02*
X026187Y018095D01*
X026230Y018011D02*
X027370Y018011D01*
X027288Y017913D02*
X026280Y017913D01*
X026330Y017814D02*
X027239Y017814D01*
X027213Y017716D02*
X026380Y017716D01*
X026395Y017687D02*
X026395Y017687D01*
X026406Y017617D02*
X027676Y017617D01*
X027309Y017322D02*
X026453Y017322D01*
X026437Y017420D02*
X027250Y017420D01*
X027218Y017519D02*
X026422Y017519D01*
X026465Y017223D02*
X027404Y017223D01*
X027401Y017125D02*
X026449Y017125D01*
X026434Y017026D02*
X027300Y017026D01*
X027221Y016928D02*
X026418Y016928D01*
X026403Y016829D02*
X027180Y016829D01*
X027146Y016731D02*
X026369Y016731D01*
X026319Y016632D02*
X027146Y016632D01*
X027146Y016534D02*
X026269Y016534D01*
X026219Y016435D02*
X027180Y016435D01*
X027221Y016337D02*
X026151Y016337D01*
X026187Y016373D02*
X026187Y016373D01*
X026052Y016238D02*
X027299Y016238D01*
X027398Y016140D02*
X025954Y016140D01*
X025863Y016049D02*
X025863Y016049D01*
X025848Y016041D02*
X027315Y016041D01*
X027227Y015943D02*
X025655Y015943D01*
X025461Y015844D02*
X027186Y015844D01*
X028528Y014859D02*
X025740Y014859D01*
X025740Y014761D02*
X028528Y014761D01*
X028528Y014662D02*
X025717Y014662D01*
X025618Y014564D02*
X028528Y014564D01*
X027776Y014367D02*
X027676Y014367D01*
X027676Y014372D02*
X027392Y014372D01*
X027353Y014362D01*
X027319Y014342D01*
X027291Y014314D01*
X027271Y014280D01*
X027261Y014242D01*
X027261Y013918D01*
X027676Y013918D01*
X027676Y014372D01*
X027676Y014268D02*
X027776Y014268D01*
X027776Y014170D02*
X027676Y014170D01*
X027676Y014071D02*
X027776Y014071D01*
X027776Y013973D02*
X027676Y013973D01*
X027676Y013874D02*
X027149Y013874D01*
X027149Y013776D02*
X027261Y013776D01*
X027261Y013677D02*
X027149Y013677D01*
X027149Y013579D02*
X027261Y013579D01*
X027265Y013480D02*
X027149Y013480D01*
X027104Y013382D02*
X027340Y013382D01*
X027676Y013382D02*
X027776Y013382D01*
X027776Y013480D02*
X027676Y013480D01*
X027676Y013579D02*
X027776Y013579D01*
X027776Y013677D02*
X027676Y013677D01*
X027676Y013776D02*
X027776Y013776D01*
X027776Y013874D02*
X028528Y013874D01*
X027371Y014367D02*
X027091Y014367D01*
X027149Y014268D02*
X027268Y014268D01*
X027261Y014170D02*
X027149Y014170D01*
X027149Y014071D02*
X027261Y014071D01*
X027261Y013973D02*
X027149Y013973D01*
X026144Y013382D02*
X022943Y013382D01*
X022943Y013480D02*
X025004Y013480D01*
X024906Y013579D02*
X022943Y013579D01*
X022943Y013677D02*
X024807Y013677D01*
X024800Y013776D02*
X022645Y013776D01*
X022645Y013874D02*
X022548Y013874D01*
X022548Y013973D02*
X022645Y013973D01*
X022645Y014071D02*
X022548Y014071D01*
X022548Y014170D02*
X022645Y014170D01*
X022645Y014268D02*
X022548Y014268D01*
X022548Y014367D02*
X022645Y014367D01*
X022645Y014465D02*
X022548Y014465D01*
X022548Y014564D02*
X022645Y014564D01*
X023003Y014859D02*
X024800Y014859D01*
X024800Y014761D02*
X024718Y014761D01*
X024817Y014662D02*
X024822Y014662D01*
X024915Y014564D02*
X024921Y014564D01*
X024930Y014465D02*
X025019Y014465D01*
X024993Y014268D02*
X024930Y014268D01*
X024895Y014170D02*
X024889Y014170D01*
X024800Y014071D02*
X024791Y014071D01*
X024800Y013973D02*
X024692Y013973D01*
X024550Y013973D02*
X024490Y013973D01*
X024490Y014071D02*
X024550Y014071D01*
X024550Y014170D02*
X024490Y014170D01*
X024490Y014268D02*
X024550Y014268D01*
X024550Y014465D02*
X024490Y014465D01*
X024490Y014564D02*
X024550Y014564D01*
X024550Y014662D02*
X024490Y014662D01*
X024490Y014761D02*
X024550Y014761D01*
X024418Y014958D02*
X023003Y014958D01*
X023003Y015056D02*
X024266Y015056D01*
X024167Y015155D02*
X023003Y015155D01*
X023003Y015253D02*
X024069Y015253D01*
X025002Y015769D02*
X025002Y015769D01*
X025455Y015841D02*
X025455Y015841D01*
X024110Y014268D02*
X022943Y014268D01*
X022943Y014170D02*
X024150Y014170D01*
X024248Y014071D02*
X022943Y014071D01*
X022943Y013973D02*
X024347Y013973D01*
X024800Y013874D02*
X022943Y013874D01*
X025535Y013480D02*
X026099Y013480D01*
X026099Y013579D02*
X025633Y013579D01*
X027306Y011904D02*
X017655Y011904D01*
X017753Y011806D02*
X027389Y011806D01*
X028150Y011806D02*
X028528Y011806D01*
X028528Y011904D02*
X028233Y011904D01*
X028283Y012003D02*
X028528Y012003D01*
X028528Y012101D02*
X028310Y012101D01*
X023619Y010230D02*
X022442Y010230D01*
X022382Y010328D02*
X023520Y010328D01*
X023508Y010427D02*
X019873Y010427D01*
X019971Y010328D02*
X020386Y010328D01*
X020351Y010230D02*
X020070Y010230D01*
X020157Y010131D02*
X020351Y010131D01*
X020351Y010033D02*
X020193Y010033D01*
X020193Y009934D02*
X020351Y009934D01*
X020351Y009836D02*
X020193Y009836D01*
X020193Y009737D02*
X020351Y009737D01*
X020351Y009639D02*
X020193Y009639D01*
X020193Y009540D02*
X020351Y009540D01*
X020351Y009442D02*
X020193Y009442D01*
X020193Y009343D02*
X020419Y009343D01*
X020613Y009245D02*
X020193Y009245D01*
X020193Y009146D02*
X020613Y009146D01*
X020613Y009048D02*
X020193Y009048D01*
X020193Y008949D02*
X020198Y008949D01*
X020609Y008949D02*
X020613Y008949D01*
X021401Y009442D02*
X021523Y009442D01*
X021513Y009540D02*
X021401Y009540D01*
X021401Y009639D02*
X021513Y009639D01*
X021513Y009737D02*
X021401Y009737D01*
X021928Y009639D02*
X022028Y009639D01*
X022028Y009540D02*
X021928Y009540D01*
X021928Y009442D02*
X022028Y009442D01*
X022109Y008949D02*
X022198Y008949D01*
X022609Y008949D02*
X022698Y008949D01*
X023109Y008949D02*
X023198Y008949D01*
X021702Y005896D02*
X016400Y005896D01*
X015443Y007402D02*
X015558Y007517D01*
X015708Y007579D01*
X015787Y007579D01*
X016613Y008405D01*
X016613Y008493D01*
X016624Y008519D01*
X016624Y008876D01*
X016748Y008999D01*
X017059Y008999D01*
X017182Y008876D01*
X017182Y008519D01*
X017184Y008514D01*
X017184Y008809D01*
X017195Y008847D01*
X017214Y008881D01*
X017242Y008909D01*
X017277Y008929D01*
X017315Y008939D01*
X017403Y008939D01*
X017403Y008435D01*
X017403Y008435D01*
X017403Y008435D01*
X017403Y007931D01*
X017315Y007931D01*
X017277Y007941D01*
X017242Y007961D01*
X017214Y007988D01*
X017195Y008023D01*
X017184Y008061D01*
X017184Y008206D01*
X017182Y008201D01*
X017182Y007994D01*
X017059Y007871D01*
X016899Y007871D01*
X016862Y007834D01*
X016913Y007855D01*
X018464Y007855D01*
X018480Y007871D01*
X018248Y007871D01*
X018153Y007965D01*
X018059Y007871D01*
X017748Y007871D01*
X017624Y007994D01*
X017624Y008876D01*
X017748Y008999D01*
X018059Y008999D01*
X018117Y008941D01*
X018117Y009157D01*
X018031Y009243D01*
X016185Y009243D01*
X016079Y009138D01*
X016079Y008295D01*
X016035Y008188D01*
X015953Y008106D01*
X015953Y008106D01*
X015346Y007499D01*
X015346Y007499D01*
X015265Y007417D01*
X015158Y007373D01*
X012690Y007373D01*
X015319Y007472D02*
X015513Y007472D01*
X015417Y007570D02*
X015686Y007570D01*
X015516Y007669D02*
X015877Y007669D01*
X015975Y007767D02*
X015614Y007767D01*
X015713Y007866D02*
X016074Y007866D01*
X016172Y007964D02*
X015811Y007964D01*
X015910Y008063D02*
X016271Y008063D01*
X016369Y008161D02*
X016008Y008161D01*
X016065Y008260D02*
X016468Y008260D01*
X016566Y008358D02*
X016079Y008358D01*
X016079Y008457D02*
X016613Y008457D01*
X016624Y008555D02*
X016079Y008555D01*
X016079Y008654D02*
X016624Y008654D01*
X016624Y008752D02*
X016079Y008752D01*
X016079Y008851D02*
X016624Y008851D01*
X016698Y008949D02*
X016079Y008949D01*
X016079Y009048D02*
X018117Y009048D01*
X018117Y009146D02*
X016088Y009146D01*
X017109Y008949D02*
X017698Y008949D01*
X017624Y008851D02*
X017610Y008851D01*
X017612Y008847D02*
X017592Y008881D01*
X017564Y008909D01*
X017530Y008929D01*
X017492Y008939D01*
X017403Y008939D01*
X017403Y008435D01*
X017403Y007931D01*
X017492Y007931D01*
X017530Y007941D01*
X017564Y007961D01*
X017592Y007988D01*
X017612Y008023D01*
X017622Y008061D01*
X017622Y008435D01*
X017622Y008809D01*
X017612Y008847D01*
X017622Y008752D02*
X017624Y008752D01*
X017622Y008654D02*
X017624Y008654D01*
X017622Y008555D02*
X017624Y008555D01*
X017622Y008457D02*
X017624Y008457D01*
X017622Y008435D02*
X017403Y008435D01*
X017403Y008435D01*
X017622Y008435D01*
X017622Y008358D02*
X017624Y008358D01*
X017622Y008260D02*
X017624Y008260D01*
X017622Y008161D02*
X017624Y008161D01*
X017622Y008063D02*
X017624Y008063D01*
X017654Y007964D02*
X017568Y007964D01*
X017403Y007964D02*
X017403Y007964D01*
X017403Y008063D02*
X017403Y008063D01*
X017403Y008161D02*
X017403Y008161D01*
X017403Y008260D02*
X017403Y008260D01*
X017403Y008358D02*
X017403Y008358D01*
X017403Y008457D02*
X017403Y008457D01*
X017403Y008555D02*
X017403Y008555D01*
X017403Y008654D02*
X017403Y008654D01*
X017403Y008752D02*
X017403Y008752D01*
X017403Y008851D02*
X017403Y008851D01*
X017197Y008851D02*
X017182Y008851D01*
X017182Y008752D02*
X017184Y008752D01*
X017182Y008654D02*
X017184Y008654D01*
X017182Y008555D02*
X017184Y008555D01*
X017182Y008161D02*
X017184Y008161D01*
X017182Y008063D02*
X017184Y008063D01*
X017153Y007964D02*
X017239Y007964D01*
X016894Y007866D02*
X018475Y007866D01*
X018154Y007964D02*
X018153Y007964D01*
X018109Y008949D02*
X018117Y008949D01*
X014234Y009533D02*
X014234Y009754D01*
X010891Y010222D02*
X010888Y010225D01*
X008572Y008725D02*
X008572Y008725D01*
X008053Y008765D02*
X008053Y008765D01*
X008053Y008936D01*
X008053Y008765D01*
X008053Y008851D02*
X008053Y008851D01*
X008053Y008936D02*
X008053Y008936D01*
X005370Y006782D02*
X004402Y006782D01*
X005301Y006251D02*
X005716Y006251D01*
X005716Y005797D01*
X006102Y005797D02*
X006405Y005797D01*
X006343Y005896D02*
X006222Y005896D01*
X006231Y005994D02*
X006343Y005994D01*
X006343Y006093D02*
X006231Y006093D01*
X006231Y006191D02*
X006343Y006191D01*
X003368Y007866D02*
X002571Y007866D01*
X002670Y007964D02*
X003311Y007964D01*
X003319Y012200D02*
X000885Y012200D01*
X000885Y012298D02*
X003319Y012298D01*
X003319Y012397D02*
X000885Y012397D01*
X000885Y012495D02*
X003319Y012495D01*
X003319Y012594D02*
X000885Y012594D01*
X000885Y012692D02*
X003319Y012692D01*
X003319Y012791D02*
X000885Y012791D01*
X000885Y012889D02*
X003319Y012889D01*
X003399Y012988D02*
X000885Y012988D01*
X000885Y013086D02*
X005082Y013086D01*
X005080Y013092D02*
X005090Y013054D01*
X005110Y013020D01*
X005138Y012992D01*
X005172Y012972D01*
X005210Y012962D01*
X005495Y012962D01*
X005495Y013416D01*
X005595Y013416D01*
X005595Y012962D01*
X005880Y012962D01*
X005918Y012972D01*
X005952Y012992D01*
X005980Y013020D01*
X006000Y013054D01*
X006010Y013092D01*
X006010Y013416D01*
X005595Y013416D01*
X005595Y013516D01*
X006010Y013516D01*
X006010Y013840D01*
X006000Y013879D01*
X005980Y013913D01*
X005952Y013941D01*
X005918Y013960D01*
X005880Y013971D01*
X005595Y013971D01*
X005595Y013516D01*
X005495Y013516D01*
X005495Y013416D01*
X005080Y013416D01*
X005080Y013092D01*
X005080Y013185D02*
X000885Y013185D01*
X000885Y013283D02*
X005080Y013283D01*
X005080Y013382D02*
X000885Y013382D01*
X000885Y013480D02*
X005495Y013480D01*
X005495Y013516D02*
X005080Y013516D01*
X005080Y013840D01*
X005090Y013879D01*
X005110Y013913D01*
X005138Y013941D01*
X005172Y013960D01*
X005210Y013971D01*
X005495Y013971D01*
X005495Y013516D01*
X005495Y013579D02*
X005595Y013579D01*
X005595Y013677D02*
X005495Y013677D01*
X005495Y013776D02*
X005595Y013776D01*
X005595Y013874D02*
X005495Y013874D01*
X005089Y013874D02*
X000885Y013874D01*
X000885Y013776D02*
X005080Y013776D01*
X005080Y013677D02*
X000885Y013677D01*
X000885Y013579D02*
X005080Y013579D01*
X005495Y013382D02*
X005595Y013382D01*
X005595Y013480D02*
X006123Y013480D01*
X006123Y013382D02*
X006010Y013382D01*
X006010Y013283D02*
X006123Y013283D01*
X006123Y013185D02*
X006010Y013185D01*
X006008Y013086D02*
X006123Y013086D01*
X006160Y012988D02*
X005945Y012988D01*
X005595Y012988D02*
X005495Y012988D01*
X005495Y013086D02*
X005595Y013086D01*
X005595Y013185D02*
X005495Y013185D01*
X005495Y013283D02*
X005595Y013283D01*
X006010Y013579D02*
X006123Y013579D01*
X006123Y013677D02*
X006010Y013677D01*
X006010Y013776D02*
X006123Y013776D01*
X006123Y013874D02*
X006001Y013874D01*
X006188Y013973D02*
X000885Y013973D01*
X004368Y012988D02*
X005145Y012988D01*
X004448Y012889D02*
X006885Y012889D01*
X006984Y012791D02*
X004448Y012791D01*
X007017Y012692D02*
X007082Y012692D01*
X007115Y012594D02*
X007181Y012594D01*
X007214Y012495D02*
X007279Y012495D01*
X007312Y012397D02*
X007455Y012397D01*
X007449Y012298D02*
X007411Y012298D01*
X007556Y014367D02*
X010597Y014367D01*
X010778Y014465D02*
X007556Y014465D01*
X007674Y015352D02*
X010614Y015352D01*
X010519Y015450D02*
X007646Y015450D01*
X007595Y015549D02*
X010479Y015549D01*
X010460Y015647D02*
X007496Y015647D01*
X004313Y015817D02*
X004313Y015817D01*
X003717Y018208D02*
X000924Y018208D01*
X000888Y018110D02*
X001351Y018110D01*
X001160Y018011D02*
X000885Y018011D01*
X000885Y017913D02*
X001069Y017913D01*
X001011Y017814D02*
X000885Y017814D01*
X000885Y017716D02*
X000981Y017716D01*
X001026Y018307D02*
X003816Y018307D01*
X011326Y013382D02*
X011388Y013382D01*
X014421Y018307D02*
X014393Y018334D01*
X014392Y018335D01*
X020245Y017026D02*
X020329Y017026D01*
X021740Y016435D02*
X022284Y016435D01*
X022189Y016337D02*
X021839Y016337D01*
X021937Y016238D02*
X022189Y016238D01*
X022189Y016140D02*
X022036Y016140D01*
X022134Y016041D02*
X022189Y016041D01*
X025975Y018307D02*
X028447Y018307D01*
X028520Y018208D02*
X026074Y018208D01*
X027933Y018110D02*
X028528Y018110D01*
X028528Y018011D02*
X028082Y018011D01*
X028165Y017913D02*
X028528Y017913D01*
X028528Y017814D02*
X028214Y017814D01*
X028239Y017716D02*
X028528Y017716D01*
X022155Y005206D02*
X022151Y005206D01*
X021655Y005206D02*
X021651Y005206D01*
X021155Y005206D02*
X021151Y005206D01*
X022693Y004221D02*
X022696Y004221D01*
X022693Y004123D02*
X023155Y004123D01*
X023114Y004221D02*
X023111Y004221D01*
X023250Y004024D02*
X022693Y004024D01*
X022693Y003926D02*
X023349Y003926D01*
X023447Y003827D02*
X022693Y003827D01*
X024549Y003446D02*
X024549Y003446D01*
X022922Y002153D02*
X022822Y002153D01*
X022822Y002054D02*
X022922Y002054D01*
X022922Y001956D02*
X022822Y001956D01*
X022922Y001684D02*
X023258Y001684D01*
X023258Y001439D01*
X023248Y001401D01*
X023228Y001366D01*
X023200Y001338D01*
X023166Y001319D01*
X023128Y001309D01*
X022922Y001309D01*
X022922Y001684D01*
X022922Y001660D02*
X022822Y001660D01*
X022822Y001562D02*
X022922Y001562D01*
X022922Y001463D02*
X022822Y001463D01*
X022822Y001365D02*
X022922Y001365D01*
X023226Y001365D02*
X023729Y001365D01*
X023678Y001463D02*
X023258Y001463D01*
X023258Y001562D02*
X023628Y001562D01*
X023609Y001600D02*
X023609Y001600D01*
X023599Y001660D02*
X023258Y001660D01*
X022486Y001857D02*
X022137Y001857D01*
X022137Y001956D02*
X022486Y001956D01*
X022492Y002054D02*
X022137Y002054D01*
X022081Y002153D02*
X022590Y002153D01*
X021333Y002251D02*
X021284Y002251D01*
X021301Y002153D02*
X020848Y002153D01*
X020847Y002153D02*
X020809Y002164D01*
X020603Y002164D01*
X020603Y001788D01*
X020939Y001788D01*
X020939Y002033D01*
X020929Y002072D01*
X020909Y002106D01*
X020881Y002134D01*
X020847Y002153D01*
X020934Y002054D02*
X021245Y002054D01*
X021245Y001956D02*
X020939Y001956D01*
X020939Y001857D02*
X021245Y001857D01*
X021245Y001759D02*
X020603Y001759D01*
X020603Y001788D02*
X020603Y001688D01*
X020603Y001312D01*
X020809Y001312D01*
X020847Y001323D01*
X020881Y001342D01*
X020909Y001370D01*
X020929Y001405D01*
X020939Y001443D01*
X020939Y001688D01*
X020603Y001688D01*
X020503Y001688D01*
X020503Y001312D01*
X020297Y001312D01*
X020259Y001323D01*
X020225Y001342D01*
X020197Y001370D01*
X020177Y001405D01*
X020167Y001443D01*
X020167Y001688D01*
X020503Y001688D01*
X020503Y001788D01*
X020167Y001788D01*
X020167Y002033D01*
X020177Y002072D01*
X020197Y002106D01*
X020225Y002134D01*
X020259Y002153D01*
X020297Y002164D01*
X020503Y002164D01*
X020503Y001788D01*
X020603Y001788D01*
X020603Y001857D02*
X020503Y001857D01*
X020503Y001759D02*
X019818Y001759D01*
X019818Y001857D02*
X020167Y001857D01*
X020167Y001956D02*
X019862Y001956D01*
X019944Y002054D02*
X020172Y002054D01*
X020258Y002153D02*
X019981Y002153D01*
X020070Y002251D02*
X020625Y002251D01*
X020603Y002153D02*
X020503Y002153D01*
X020503Y002054D02*
X020603Y002054D01*
X020603Y001956D02*
X020503Y001956D01*
X020503Y001660D02*
X020603Y001660D01*
X020603Y001562D02*
X020503Y001562D01*
X020503Y001463D02*
X020603Y001463D01*
X020603Y001365D02*
X020503Y001365D01*
X020202Y001365D02*
X019807Y001365D01*
X019818Y001463D02*
X020167Y001463D01*
X020167Y001562D02*
X019818Y001562D01*
X019818Y001660D02*
X020167Y001660D01*
X019709Y001266D02*
X021350Y001266D01*
X021251Y001365D02*
X020904Y001365D01*
X020939Y001463D02*
X021245Y001463D01*
X021245Y001562D02*
X020939Y001562D01*
X020939Y001660D02*
X021245Y001660D01*
X020587Y002350D02*
X020070Y002350D01*
X020070Y002448D02*
X020587Y002448D01*
X020587Y002547D02*
X020070Y002547D01*
X020070Y002645D02*
X020587Y002645D01*
X020587Y002744D02*
X020070Y002744D01*
X020070Y002842D02*
X020587Y002842D01*
X020593Y002941D02*
X020017Y002941D01*
X019627Y003236D02*
X020716Y003236D01*
X020666Y003138D02*
X019528Y003138D01*
X019430Y003039D02*
X020657Y003039D01*
X020814Y003335D02*
X019725Y003335D01*
X019388Y002941D02*
X019331Y002941D01*
X017467Y003433D02*
X017354Y003433D01*
X017368Y003335D02*
X017313Y003335D01*
X017273Y003236D02*
X017355Y003236D01*
X016542Y003236D02*
X016286Y003236D01*
X016377Y003138D02*
X016461Y003138D01*
X016461Y003039D02*
X016417Y003039D01*
X016434Y002941D02*
X016461Y002941D01*
X016461Y002842D02*
X016434Y002842D01*
X016461Y002744D02*
X016394Y002744D01*
X016329Y002645D02*
X016483Y002645D01*
X016581Y002547D02*
X016193Y002547D01*
X015765Y003236D02*
X015621Y003236D01*
X015584Y003335D02*
X016502Y003335D01*
X025966Y000971D02*
X028406Y000971D01*
X028499Y001069D02*
X026064Y001069D01*
X026163Y001168D02*
X028527Y001168D01*
X028528Y001266D02*
X026225Y001266D01*
X026187Y001192D02*
X026187Y001192D01*
X026275Y001365D02*
X028528Y001365D01*
X028528Y001463D02*
X028365Y001463D01*
X028464Y001562D02*
X028528Y001562D01*
D31*
X027770Y010825D02*
X025722Y010825D01*
X025628Y010919D01*
X024053Y010919D02*
X017947Y010919D01*
X016577Y012289D01*
X016577Y014317D01*
X016212Y014681D01*
X015710Y015183D01*
X013833Y015183D01*
X013801Y015214D01*
M02*
