G75*
G70*
%OFA0B0*%
%FSLAX24Y24*%
%IPPOS*%
%LPD*%
%AMOC8*
5,1,8,0,0,1.08239X$1,22.5*
%
%ADD10C,0.1080*%
%ADD11R,0.1080X0.1080*%
%ADD12R,0.0880X0.0880*%
%ADD13C,0.0880*%
%ADD14C,0.0820*%
%ADD15R,0.0477X0.0477*%
%ADD16OC8,0.0600*%
%ADD17R,0.0789X0.0710*%
%ADD18C,0.1280*%
%ADD19C,0.0476*%
D10*
X013801Y013964D03*
X013801Y015214D03*
X020051Y013964D03*
X020051Y017714D03*
D11*
X013801Y017714D03*
D12*
X027770Y010825D03*
X001896Y007600D03*
D13*
X001896Y009569D03*
X001896Y011537D03*
X027770Y012203D03*
D14*
X027726Y015632D03*
X027726Y016632D03*
X027726Y017632D03*
X027697Y007899D03*
X027597Y006899D03*
X027697Y005899D03*
X027597Y004899D03*
X027697Y003899D03*
X027597Y002899D03*
X010907Y001490D03*
X009907Y001490D03*
X001490Y015608D03*
X001490Y016608D03*
X001490Y017608D03*
D15*
X008970Y010850D03*
X008970Y010350D03*
X009470Y010350D03*
X009970Y010350D03*
X009970Y010850D03*
X009470Y010850D03*
X009470Y009850D03*
X009970Y009850D03*
X009970Y009350D03*
X009470Y009350D03*
X008970Y009350D03*
X008970Y008850D03*
X009470Y008850D03*
X009970Y008850D03*
X009970Y008350D03*
X009470Y008350D03*
X008970Y008350D03*
X008970Y009850D03*
D16*
X024520Y014380D03*
X025270Y014880D03*
X025270Y013880D03*
D17*
X007321Y013014D03*
X006120Y013021D03*
X006120Y011919D03*
X007321Y011911D03*
X003569Y011396D03*
X003549Y010372D03*
X003549Y009270D03*
X003510Y007644D03*
X003510Y006541D03*
X006403Y007084D03*
X006403Y005982D03*
X003569Y012498D03*
D18*
X004766Y002053D03*
X025002Y002053D03*
X025002Y017234D03*
X004766Y017210D03*
D19*
X007266Y015301D03*
X007876Y014277D03*
X008663Y014277D03*
X009057Y012703D03*
X009844Y012703D03*
X010868Y014061D03*
X010868Y015675D03*
X005120Y011758D03*
X006104Y011108D03*
X006144Y010459D03*
X005120Y009651D03*
X006419Y008608D03*
X005120Y007644D03*
X007088Y005222D03*
X012029Y008214D03*
X013781Y005872D03*
X015789Y007171D03*
X015789Y010321D03*
X011951Y011325D03*
X016025Y002919D03*
X024273Y005990D03*
X024470Y007348D03*
M02*
