%
M48
M72
T01C0.0320
T02C0.0354
T03C0.0472
T04C0.0709
T05C0.1181
T06C0.1300
T07C0.1500
%
T01
X10448Y7300
X11448Y7300
T02
X8948Y9550
X5440Y7875
X4357Y7875
X4357Y6300
X5440Y6300
X5440Y4725
X4357Y4725
X8948Y4550
T03
X3767Y3938
X6129Y3938
X6129Y8662
X3767Y8662
T04
X13353Y8839
X15007Y8839
X16660Y8839
X18314Y8839
X19968Y8839
X21621Y8839
X23275Y8839
X24928Y8839
X26582Y8839
X28235Y8839
X29889Y8839
X31542Y8839
X31542Y6674
X29889Y6674
X28235Y6674
X26582Y6674
X24928Y6674
X23275Y6674
X21621Y6674
X19968Y6674
X18314Y6674
X16660Y6674
X15007Y6674
X13353Y6674
T05
X13353Y3800
X31542Y3800
T06
X31448Y13300
X4948Y13300
T07
X8448Y12800
X12948Y12800
X18198Y12800
X23448Y12800
X27948Y12800
M30
