G75*
G70*
%OFA0B0*%
%FSLAX24Y24*%
%IPPOS*%
%LPD*%
%AMOC8*
5,1,8,0,0,1.08239X$1,22.5*
%
%ADD10C,0.1222*%
%ADD11C,0.1261*%
%ADD12C,0.0820*%
%ADD13C,0.1380*%
%ADD14C,0.2230*%
%ADD15R,0.0710X0.0540*%
%ADD16R,0.0720X0.0060*%
%ADD17C,0.0634*%
%ADD18C,0.0552*%
D10*
X013353Y006674D03*
X015007Y006674D03*
X016660Y006674D03*
X018314Y006674D03*
X019968Y006674D03*
X021621Y006674D03*
X023275Y006674D03*
X024928Y006674D03*
X026582Y006674D03*
X028235Y006674D03*
X029889Y006674D03*
X031542Y006674D03*
X031542Y008839D03*
X029889Y008839D03*
X028235Y008839D03*
X026582Y008839D03*
X024928Y008839D03*
X023275Y008839D03*
X021621Y008839D03*
X019968Y008839D03*
X018314Y008839D03*
X016660Y008839D03*
X015007Y008839D03*
X013353Y008839D03*
D11*
X013353Y003800D03*
X031542Y003800D03*
D12*
X011448Y007300D03*
X010448Y007300D03*
X008948Y009550D03*
X008948Y004550D03*
D13*
X004948Y013300D03*
X031448Y013300D03*
D14*
X027948Y012800D03*
X023448Y012800D03*
X018198Y012800D03*
X012948Y012800D03*
X008448Y012800D03*
D15*
X006948Y008600D03*
X006948Y008000D03*
D16*
X006948Y008300D03*
D17*
X005440Y007875D03*
X004357Y007875D03*
X004357Y006300D03*
X005440Y006300D03*
X005440Y004725D03*
X004357Y004725D03*
D18*
X003767Y003938D03*
X006129Y003938D03*
X006129Y008662D03*
X003767Y008662D03*
M02*
