G75*
G70*
%OFA0B0*%
%FSLAX24Y24*%
%IPPOS*%
%LPD*%
%AMOC8*
5,1,8,0,0,1.08239X$1,22.5*
%
%ADD10C,0.0000*%
D10*
X002448Y002800D02*
X002448Y015796D01*
X033818Y015796D01*
X033818Y002800D01*
X002448Y002800D01*
X003531Y003938D02*
X003533Y003968D01*
X003539Y003998D01*
X003548Y004027D01*
X003561Y004054D01*
X003578Y004079D01*
X003597Y004102D01*
X003620Y004123D01*
X003645Y004140D01*
X003671Y004154D01*
X003700Y004164D01*
X003729Y004171D01*
X003759Y004174D01*
X003790Y004173D01*
X003820Y004168D01*
X003849Y004159D01*
X003876Y004147D01*
X003902Y004132D01*
X003926Y004113D01*
X003947Y004091D01*
X003965Y004067D01*
X003980Y004040D01*
X003991Y004012D01*
X003999Y003983D01*
X004003Y003953D01*
X004003Y003923D01*
X003999Y003893D01*
X003991Y003864D01*
X003980Y003836D01*
X003965Y003809D01*
X003947Y003785D01*
X003926Y003763D01*
X003902Y003744D01*
X003876Y003729D01*
X003849Y003717D01*
X003820Y003708D01*
X003790Y003703D01*
X003759Y003702D01*
X003729Y003705D01*
X003700Y003712D01*
X003671Y003722D01*
X003645Y003736D01*
X003620Y003753D01*
X003597Y003774D01*
X003578Y003797D01*
X003561Y003822D01*
X003548Y003849D01*
X003539Y003878D01*
X003533Y003908D01*
X003531Y003938D01*
X005893Y003938D02*
X005895Y003968D01*
X005901Y003998D01*
X005910Y004027D01*
X005923Y004054D01*
X005940Y004079D01*
X005959Y004102D01*
X005982Y004123D01*
X006007Y004140D01*
X006033Y004154D01*
X006062Y004164D01*
X006091Y004171D01*
X006121Y004174D01*
X006152Y004173D01*
X006182Y004168D01*
X006211Y004159D01*
X006238Y004147D01*
X006264Y004132D01*
X006288Y004113D01*
X006309Y004091D01*
X006327Y004067D01*
X006342Y004040D01*
X006353Y004012D01*
X006361Y003983D01*
X006365Y003953D01*
X006365Y003923D01*
X006361Y003893D01*
X006353Y003864D01*
X006342Y003836D01*
X006327Y003809D01*
X006309Y003785D01*
X006288Y003763D01*
X006264Y003744D01*
X006238Y003729D01*
X006211Y003717D01*
X006182Y003708D01*
X006152Y003703D01*
X006121Y003702D01*
X006091Y003705D01*
X006062Y003712D01*
X006033Y003722D01*
X006007Y003736D01*
X005982Y003753D01*
X005959Y003774D01*
X005940Y003797D01*
X005923Y003822D01*
X005910Y003849D01*
X005901Y003878D01*
X005895Y003908D01*
X005893Y003938D01*
X012762Y003800D02*
X012764Y003848D01*
X012770Y003896D01*
X012780Y003943D01*
X012793Y003989D01*
X012811Y004034D01*
X012831Y004078D01*
X012856Y004120D01*
X012884Y004159D01*
X012914Y004196D01*
X012948Y004230D01*
X012985Y004262D01*
X013023Y004291D01*
X013064Y004316D01*
X013107Y004338D01*
X013152Y004356D01*
X013198Y004370D01*
X013245Y004381D01*
X013293Y004388D01*
X013341Y004391D01*
X013389Y004390D01*
X013437Y004385D01*
X013485Y004376D01*
X013531Y004364D01*
X013576Y004347D01*
X013620Y004327D01*
X013662Y004304D01*
X013702Y004277D01*
X013740Y004247D01*
X013775Y004214D01*
X013807Y004178D01*
X013837Y004140D01*
X013863Y004099D01*
X013885Y004056D01*
X013905Y004012D01*
X013920Y003967D01*
X013932Y003920D01*
X013940Y003872D01*
X013944Y003824D01*
X013944Y003776D01*
X013940Y003728D01*
X013932Y003680D01*
X013920Y003633D01*
X013905Y003588D01*
X013885Y003544D01*
X013863Y003501D01*
X013837Y003460D01*
X013807Y003422D01*
X013775Y003386D01*
X013740Y003353D01*
X013702Y003323D01*
X013662Y003296D01*
X013620Y003273D01*
X013576Y003253D01*
X013531Y003236D01*
X013485Y003224D01*
X013437Y003215D01*
X013389Y003210D01*
X013341Y003209D01*
X013293Y003212D01*
X013245Y003219D01*
X013198Y003230D01*
X013152Y003244D01*
X013107Y003262D01*
X013064Y003284D01*
X013023Y003309D01*
X012985Y003338D01*
X012948Y003370D01*
X012914Y003404D01*
X012884Y003441D01*
X012856Y003480D01*
X012831Y003522D01*
X012811Y003566D01*
X012793Y003611D01*
X012780Y003657D01*
X012770Y003704D01*
X012764Y003752D01*
X012762Y003800D01*
X005893Y008662D02*
X005895Y008692D01*
X005901Y008722D01*
X005910Y008751D01*
X005923Y008778D01*
X005940Y008803D01*
X005959Y008826D01*
X005982Y008847D01*
X006007Y008864D01*
X006033Y008878D01*
X006062Y008888D01*
X006091Y008895D01*
X006121Y008898D01*
X006152Y008897D01*
X006182Y008892D01*
X006211Y008883D01*
X006238Y008871D01*
X006264Y008856D01*
X006288Y008837D01*
X006309Y008815D01*
X006327Y008791D01*
X006342Y008764D01*
X006353Y008736D01*
X006361Y008707D01*
X006365Y008677D01*
X006365Y008647D01*
X006361Y008617D01*
X006353Y008588D01*
X006342Y008560D01*
X006327Y008533D01*
X006309Y008509D01*
X006288Y008487D01*
X006264Y008468D01*
X006238Y008453D01*
X006211Y008441D01*
X006182Y008432D01*
X006152Y008427D01*
X006121Y008426D01*
X006091Y008429D01*
X006062Y008436D01*
X006033Y008446D01*
X006007Y008460D01*
X005982Y008477D01*
X005959Y008498D01*
X005940Y008521D01*
X005923Y008546D01*
X005910Y008573D01*
X005901Y008602D01*
X005895Y008632D01*
X005893Y008662D01*
X003531Y008662D02*
X003533Y008692D01*
X003539Y008722D01*
X003548Y008751D01*
X003561Y008778D01*
X003578Y008803D01*
X003597Y008826D01*
X003620Y008847D01*
X003645Y008864D01*
X003671Y008878D01*
X003700Y008888D01*
X003729Y008895D01*
X003759Y008898D01*
X003790Y008897D01*
X003820Y008892D01*
X003849Y008883D01*
X003876Y008871D01*
X003902Y008856D01*
X003926Y008837D01*
X003947Y008815D01*
X003965Y008791D01*
X003980Y008764D01*
X003991Y008736D01*
X003999Y008707D01*
X004003Y008677D01*
X004003Y008647D01*
X003999Y008617D01*
X003991Y008588D01*
X003980Y008560D01*
X003965Y008533D01*
X003947Y008509D01*
X003926Y008487D01*
X003902Y008468D01*
X003876Y008453D01*
X003849Y008441D01*
X003820Y008432D01*
X003790Y008427D01*
X003759Y008426D01*
X003729Y008429D01*
X003700Y008436D01*
X003671Y008446D01*
X003645Y008460D01*
X003620Y008477D01*
X003597Y008498D01*
X003578Y008521D01*
X003561Y008546D01*
X003548Y008573D01*
X003539Y008602D01*
X003533Y008632D01*
X003531Y008662D01*
X004298Y013300D02*
X004300Y013350D01*
X004306Y013400D01*
X004316Y013450D01*
X004329Y013498D01*
X004346Y013546D01*
X004367Y013592D01*
X004391Y013636D01*
X004419Y013678D01*
X004450Y013718D01*
X004484Y013755D01*
X004521Y013790D01*
X004560Y013821D01*
X004601Y013850D01*
X004645Y013875D01*
X004691Y013897D01*
X004738Y013915D01*
X004786Y013929D01*
X004835Y013940D01*
X004885Y013947D01*
X004935Y013950D01*
X004986Y013949D01*
X005036Y013944D01*
X005086Y013935D01*
X005134Y013923D01*
X005182Y013906D01*
X005228Y013886D01*
X005273Y013863D01*
X005316Y013836D01*
X005356Y013806D01*
X005394Y013773D01*
X005429Y013737D01*
X005462Y013698D01*
X005491Y013657D01*
X005517Y013614D01*
X005540Y013569D01*
X005559Y013522D01*
X005574Y013474D01*
X005586Y013425D01*
X005594Y013375D01*
X005598Y013325D01*
X005598Y013275D01*
X005594Y013225D01*
X005586Y013175D01*
X005574Y013126D01*
X005559Y013078D01*
X005540Y013031D01*
X005517Y012986D01*
X005491Y012943D01*
X005462Y012902D01*
X005429Y012863D01*
X005394Y012827D01*
X005356Y012794D01*
X005316Y012764D01*
X005273Y012737D01*
X005228Y012714D01*
X005182Y012694D01*
X005134Y012677D01*
X005086Y012665D01*
X005036Y012656D01*
X004986Y012651D01*
X004935Y012650D01*
X004885Y012653D01*
X004835Y012660D01*
X004786Y012671D01*
X004738Y012685D01*
X004691Y012703D01*
X004645Y012725D01*
X004601Y012750D01*
X004560Y012779D01*
X004521Y012810D01*
X004484Y012845D01*
X004450Y012882D01*
X004419Y012922D01*
X004391Y012964D01*
X004367Y013008D01*
X004346Y013054D01*
X004329Y013102D01*
X004316Y013150D01*
X004306Y013200D01*
X004300Y013250D01*
X004298Y013300D01*
X030798Y013300D02*
X030800Y013350D01*
X030806Y013400D01*
X030816Y013450D01*
X030829Y013498D01*
X030846Y013546D01*
X030867Y013592D01*
X030891Y013636D01*
X030919Y013678D01*
X030950Y013718D01*
X030984Y013755D01*
X031021Y013790D01*
X031060Y013821D01*
X031101Y013850D01*
X031145Y013875D01*
X031191Y013897D01*
X031238Y013915D01*
X031286Y013929D01*
X031335Y013940D01*
X031385Y013947D01*
X031435Y013950D01*
X031486Y013949D01*
X031536Y013944D01*
X031586Y013935D01*
X031634Y013923D01*
X031682Y013906D01*
X031728Y013886D01*
X031773Y013863D01*
X031816Y013836D01*
X031856Y013806D01*
X031894Y013773D01*
X031929Y013737D01*
X031962Y013698D01*
X031991Y013657D01*
X032017Y013614D01*
X032040Y013569D01*
X032059Y013522D01*
X032074Y013474D01*
X032086Y013425D01*
X032094Y013375D01*
X032098Y013325D01*
X032098Y013275D01*
X032094Y013225D01*
X032086Y013175D01*
X032074Y013126D01*
X032059Y013078D01*
X032040Y013031D01*
X032017Y012986D01*
X031991Y012943D01*
X031962Y012902D01*
X031929Y012863D01*
X031894Y012827D01*
X031856Y012794D01*
X031816Y012764D01*
X031773Y012737D01*
X031728Y012714D01*
X031682Y012694D01*
X031634Y012677D01*
X031586Y012665D01*
X031536Y012656D01*
X031486Y012651D01*
X031435Y012650D01*
X031385Y012653D01*
X031335Y012660D01*
X031286Y012671D01*
X031238Y012685D01*
X031191Y012703D01*
X031145Y012725D01*
X031101Y012750D01*
X031060Y012779D01*
X031021Y012810D01*
X030984Y012845D01*
X030950Y012882D01*
X030919Y012922D01*
X030891Y012964D01*
X030867Y013008D01*
X030846Y013054D01*
X030829Y013102D01*
X030816Y013150D01*
X030806Y013200D01*
X030800Y013250D01*
X030798Y013300D01*
X030951Y003800D02*
X030953Y003848D01*
X030959Y003896D01*
X030969Y003943D01*
X030982Y003989D01*
X031000Y004034D01*
X031020Y004078D01*
X031045Y004120D01*
X031073Y004159D01*
X031103Y004196D01*
X031137Y004230D01*
X031174Y004262D01*
X031212Y004291D01*
X031253Y004316D01*
X031296Y004338D01*
X031341Y004356D01*
X031387Y004370D01*
X031434Y004381D01*
X031482Y004388D01*
X031530Y004391D01*
X031578Y004390D01*
X031626Y004385D01*
X031674Y004376D01*
X031720Y004364D01*
X031765Y004347D01*
X031809Y004327D01*
X031851Y004304D01*
X031891Y004277D01*
X031929Y004247D01*
X031964Y004214D01*
X031996Y004178D01*
X032026Y004140D01*
X032052Y004099D01*
X032074Y004056D01*
X032094Y004012D01*
X032109Y003967D01*
X032121Y003920D01*
X032129Y003872D01*
X032133Y003824D01*
X032133Y003776D01*
X032129Y003728D01*
X032121Y003680D01*
X032109Y003633D01*
X032094Y003588D01*
X032074Y003544D01*
X032052Y003501D01*
X032026Y003460D01*
X031996Y003422D01*
X031964Y003386D01*
X031929Y003353D01*
X031891Y003323D01*
X031851Y003296D01*
X031809Y003273D01*
X031765Y003253D01*
X031720Y003236D01*
X031674Y003224D01*
X031626Y003215D01*
X031578Y003210D01*
X031530Y003209D01*
X031482Y003212D01*
X031434Y003219D01*
X031387Y003230D01*
X031341Y003244D01*
X031296Y003262D01*
X031253Y003284D01*
X031212Y003309D01*
X031174Y003338D01*
X031137Y003370D01*
X031103Y003404D01*
X031073Y003441D01*
X031045Y003480D01*
X031020Y003522D01*
X031000Y003566D01*
X030982Y003611D01*
X030969Y003657D01*
X030959Y003704D01*
X030953Y003752D01*
X030951Y003800D01*
M02*
