G75*
G70*
%OFA0B0*%
%FSLAX24Y24*%
%IPPOS*%
%LPD*%
%AMOC8*
5,1,8,0,0,1.08239X$1,22.5*
%
%ADD10C,0.0160*%
%ADD11C,0.1142*%
%ADD12C,0.0740*%
%ADD13C,0.2150*%
%ADD14R,0.0630X0.0460*%
%ADD15C,0.0554*%
%ADD16C,0.1000*%
D10*
X002948Y003300D02*
X002948Y015300D01*
X033338Y015300D01*
X033338Y003300D01*
X032490Y003300D01*
X032540Y003387D01*
X032613Y003659D01*
X032613Y003941D01*
X032540Y004213D01*
X032399Y004457D01*
X032200Y004657D01*
X031956Y004798D01*
X031683Y004871D01*
X031401Y004871D01*
X031129Y004798D01*
X030885Y004657D01*
X030686Y004457D01*
X030545Y004213D01*
X030472Y003941D01*
X030472Y003659D01*
X030545Y003387D01*
X030595Y003300D01*
X014301Y003300D01*
X014351Y003387D01*
X014424Y003659D01*
X014424Y003941D01*
X014351Y004213D01*
X014210Y004457D01*
X014011Y004657D01*
X013767Y004798D01*
X013494Y004871D01*
X013212Y004871D01*
X012940Y004798D01*
X012696Y004657D01*
X012497Y004457D01*
X012356Y004213D01*
X012283Y003941D01*
X012283Y003659D01*
X012356Y003387D01*
X012406Y003300D01*
X006461Y003300D01*
X006535Y003331D01*
X006736Y003532D01*
X006845Y003795D01*
X006845Y004080D01*
X006736Y004344D01*
X006535Y004545D01*
X006271Y004654D01*
X005986Y004654D01*
X005957Y004642D01*
X005957Y004828D01*
X005878Y005018D01*
X005733Y005164D01*
X005543Y005242D01*
X005337Y005242D01*
X005147Y005164D01*
X005002Y005018D01*
X004923Y004828D01*
X004923Y004622D01*
X005002Y004432D01*
X005147Y004287D01*
X005337Y004208D01*
X005466Y004208D01*
X005413Y004080D01*
X005413Y003795D01*
X005522Y003532D01*
X005723Y003331D01*
X005797Y003300D01*
X004099Y003300D01*
X004172Y003331D01*
X004374Y003532D01*
X004483Y003795D01*
X004483Y004080D01*
X004430Y004208D01*
X004460Y004208D01*
X004650Y004287D01*
X004796Y004432D01*
X004874Y004622D01*
X004874Y004828D01*
X004796Y005018D01*
X004650Y005164D01*
X004460Y005242D01*
X004254Y005242D01*
X004064Y005164D01*
X003919Y005018D01*
X003840Y004828D01*
X003840Y004654D01*
X003624Y004654D01*
X003361Y004545D01*
X003160Y004344D01*
X003051Y004080D01*
X003051Y003795D01*
X003160Y003532D01*
X003361Y003331D01*
X003435Y003300D01*
X002948Y003300D01*
X002948Y003434D02*
X003258Y003434D01*
X003135Y003593D02*
X002948Y003593D01*
X002948Y003751D02*
X003069Y003751D01*
X003051Y003910D02*
X002948Y003910D01*
X002948Y004068D02*
X003051Y004068D01*
X003111Y004227D02*
X002948Y004227D01*
X002948Y004385D02*
X003201Y004385D01*
X003360Y004544D02*
X002948Y004544D01*
X002948Y004702D02*
X003840Y004702D01*
X003854Y004861D02*
X002948Y004861D01*
X002948Y005019D02*
X003920Y005019D01*
X004098Y005178D02*
X002948Y005178D01*
X002948Y005336D02*
X009281Y005336D01*
X009123Y005178D02*
X005699Y005178D01*
X005878Y005019D02*
X008554Y005019D01*
X008602Y005067D02*
X008431Y004896D01*
X008338Y004671D01*
X008338Y004429D01*
X008431Y004204D01*
X008602Y004033D01*
X008826Y003940D01*
X009069Y003940D01*
X009293Y004033D01*
X009465Y004204D01*
X009558Y004429D01*
X009558Y004671D01*
X009547Y004697D01*
X010719Y005869D01*
X010768Y005986D01*
X010768Y006772D01*
X010793Y006783D01*
X010965Y006954D01*
X010985Y007002D01*
X011028Y006942D01*
X011090Y006880D01*
X011160Y006830D01*
X011237Y006790D01*
X011319Y006764D01*
X011405Y006750D01*
X011448Y006750D01*
X011491Y006750D01*
X011577Y006764D01*
X011659Y006790D01*
X011736Y006830D01*
X011806Y006880D01*
X011867Y006942D01*
X011918Y007012D01*
X011958Y007089D01*
X011984Y007171D01*
X011998Y007257D01*
X011998Y007300D01*
X011998Y007343D01*
X011984Y007429D01*
X011958Y007511D01*
X011918Y007588D01*
X011867Y007658D01*
X011806Y007720D01*
X011736Y007770D01*
X011659Y007810D01*
X011577Y007836D01*
X011491Y007850D01*
X011448Y007850D01*
X011448Y007300D01*
X011998Y007300D01*
X011448Y007300D01*
X011448Y007300D01*
X011448Y007300D01*
X011448Y006750D01*
X011448Y007300D01*
X011448Y007300D01*
X011448Y007850D01*
X011405Y007850D01*
X011319Y007836D01*
X011237Y007810D01*
X011160Y007770D01*
X011090Y007720D01*
X011028Y007658D01*
X010985Y007598D01*
X010965Y007646D01*
X010793Y007817D01*
X010569Y007910D01*
X010326Y007910D01*
X010102Y007817D01*
X009931Y007646D01*
X009838Y007421D01*
X009838Y007179D01*
X009931Y006954D01*
X010102Y006783D01*
X010128Y006772D01*
X010128Y006183D01*
X009095Y005149D01*
X009069Y005160D01*
X008826Y005160D01*
X008602Y005067D01*
X008416Y004861D02*
X005944Y004861D01*
X005957Y004702D02*
X008351Y004702D01*
X008338Y004544D02*
X006536Y004544D01*
X006695Y004385D02*
X008356Y004385D01*
X008422Y004227D02*
X006785Y004227D01*
X006845Y004068D02*
X008567Y004068D01*
X009329Y004068D02*
X012317Y004068D01*
X012283Y003910D02*
X006845Y003910D01*
X006827Y003751D02*
X012283Y003751D01*
X012301Y003593D02*
X006761Y003593D01*
X006638Y003434D02*
X012343Y003434D01*
X012363Y004227D02*
X009474Y004227D01*
X009540Y004385D02*
X012455Y004385D01*
X012583Y004544D02*
X009558Y004544D01*
X009552Y004702D02*
X012775Y004702D01*
X013175Y004861D02*
X009711Y004861D01*
X009869Y005019D02*
X033338Y005019D01*
X033338Y004861D02*
X031721Y004861D01*
X031364Y004861D02*
X013532Y004861D01*
X013932Y004702D02*
X030964Y004702D01*
X030772Y004544D02*
X014124Y004544D01*
X014252Y004385D02*
X030644Y004385D01*
X030552Y004227D02*
X014343Y004227D01*
X014390Y004068D02*
X030506Y004068D01*
X030472Y003910D02*
X014424Y003910D01*
X014424Y003751D02*
X030472Y003751D01*
X030490Y003593D02*
X014406Y003593D01*
X014364Y003434D02*
X030532Y003434D01*
X032553Y003434D02*
X033338Y003434D01*
X033338Y003593D02*
X032595Y003593D01*
X032613Y003751D02*
X033338Y003751D01*
X033338Y003910D02*
X032613Y003910D01*
X032579Y004068D02*
X033338Y004068D01*
X033338Y004227D02*
X032532Y004227D01*
X032441Y004385D02*
X033338Y004385D01*
X033338Y004544D02*
X032313Y004544D01*
X032121Y004702D02*
X033338Y004702D01*
X033338Y005178D02*
X010028Y005178D01*
X010186Y005336D02*
X033338Y005336D01*
X033338Y005495D02*
X010345Y005495D01*
X010503Y005653D02*
X033338Y005653D01*
X033338Y005812D02*
X010662Y005812D01*
X010761Y005970D02*
X012934Y005970D01*
X012894Y005987D02*
X013192Y005863D01*
X013515Y005863D01*
X013813Y005987D01*
X014041Y006215D01*
X014164Y006513D01*
X014164Y006835D01*
X014041Y007133D01*
X013944Y007230D01*
X014416Y007230D01*
X014319Y007133D01*
X014196Y006835D01*
X014196Y006513D01*
X014319Y006215D01*
X014548Y005987D01*
X014846Y005863D01*
X015168Y005863D01*
X015466Y005987D01*
X015694Y006215D01*
X015818Y006513D01*
X015818Y006835D01*
X015694Y007133D01*
X015598Y007230D01*
X016070Y007230D01*
X015973Y007133D01*
X015850Y006835D01*
X015850Y006513D01*
X015973Y006215D01*
X016201Y005987D01*
X016499Y005863D01*
X016822Y005863D01*
X017120Y005987D01*
X017348Y006215D01*
X017471Y006513D01*
X017471Y006835D01*
X017348Y007133D01*
X017251Y007230D01*
X017723Y007230D01*
X017627Y007133D01*
X017503Y006835D01*
X017503Y006513D01*
X017627Y006215D01*
X017855Y005987D01*
X018153Y005863D01*
X018475Y005863D01*
X018773Y005987D01*
X019001Y006215D01*
X019125Y006513D01*
X019125Y006835D01*
X019001Y007133D01*
X018905Y007230D01*
X018959Y007230D01*
X019214Y006975D01*
X019157Y006835D01*
X019157Y006513D01*
X019280Y006215D01*
X019508Y005987D01*
X019806Y005863D01*
X020129Y005863D01*
X020427Y005987D01*
X020655Y006215D01*
X020778Y006513D01*
X020778Y006835D01*
X020655Y007133D01*
X020427Y007361D01*
X020141Y007480D01*
X023102Y007480D01*
X022815Y007361D01*
X022587Y007133D01*
X022464Y006835D01*
X022464Y006513D01*
X022587Y006215D01*
X022815Y005987D01*
X023113Y005863D01*
X023436Y005863D01*
X023734Y005987D01*
X023962Y006215D01*
X024085Y006513D01*
X024085Y006835D01*
X023962Y007133D01*
X023734Y007361D01*
X023448Y007480D01*
X025511Y007480D01*
X025629Y007529D01*
X026214Y008114D01*
X026420Y008029D01*
X026743Y008029D01*
X027041Y008152D01*
X027269Y008380D01*
X027393Y008678D01*
X027393Y009001D01*
X027269Y009299D01*
X027041Y009527D01*
X026743Y009650D01*
X026420Y009650D01*
X026122Y009527D01*
X025894Y009299D01*
X025771Y009001D01*
X025771Y008678D01*
X025801Y008606D01*
X025315Y008120D01*
X020350Y008120D01*
X020427Y008152D01*
X020655Y008380D01*
X020778Y008678D01*
X020778Y009001D01*
X020655Y009299D01*
X020427Y009527D01*
X020129Y009650D01*
X019806Y009650D01*
X019508Y009527D01*
X019280Y009299D01*
X019157Y009001D01*
X019157Y008678D01*
X019280Y008380D01*
X019508Y008152D01*
X019585Y008120D01*
X018696Y008120D01*
X018773Y008152D01*
X019001Y008380D01*
X019125Y008678D01*
X019125Y009001D01*
X019054Y009172D01*
X019054Y010928D01*
X019150Y010962D01*
X019150Y010962D01*
X019611Y011287D01*
X019611Y011287D01*
X019611Y011287D01*
X019966Y011724D01*
X019966Y011724D01*
X020191Y012242D01*
X020268Y012800D01*
X020191Y013358D01*
X020191Y013358D01*
X019966Y013876D01*
X019611Y014313D01*
X019611Y014313D01*
X019150Y014638D01*
X018619Y014827D01*
X018057Y014865D01*
X018057Y014865D01*
X017505Y014750D01*
X017505Y014750D01*
X017004Y014491D01*
X016592Y014106D01*
X016299Y013625D01*
X016147Y013082D01*
X016147Y012518D01*
X016299Y011975D01*
X016310Y011958D01*
X014380Y010028D01*
X014267Y009756D01*
X014267Y009172D01*
X014196Y009001D01*
X014196Y008678D01*
X014319Y008380D01*
X014548Y008152D01*
X014625Y008120D01*
X013080Y008120D01*
X012768Y008433D01*
X012768Y009364D01*
X012719Y009481D01*
X012629Y009571D01*
X011629Y010571D01*
X011511Y010620D01*
X008384Y010620D01*
X008267Y010571D01*
X006948Y009253D01*
X006129Y010071D01*
X006011Y010120D01*
X005384Y010120D01*
X005267Y010071D01*
X004767Y009571D01*
X004767Y009571D01*
X004677Y009481D01*
X004628Y009364D01*
X004628Y008323D01*
X004460Y008392D01*
X004430Y008392D01*
X004483Y008520D01*
X004483Y008805D01*
X004374Y009068D01*
X004172Y009269D01*
X003909Y009378D01*
X003624Y009378D01*
X003361Y009269D01*
X003160Y009068D01*
X003051Y008805D01*
X003051Y008520D01*
X003160Y008256D01*
X003361Y008055D01*
X003624Y007946D01*
X003840Y007946D01*
X003840Y007772D01*
X003919Y007582D01*
X004064Y007436D01*
X004254Y007358D01*
X004460Y007358D01*
X004628Y007427D01*
X004628Y006748D01*
X004460Y006817D01*
X004254Y006817D01*
X004064Y006738D01*
X003919Y006593D01*
X003840Y006403D01*
X003840Y006197D01*
X003919Y006007D01*
X004064Y005862D01*
X004254Y005783D01*
X004460Y005783D01*
X004650Y005862D01*
X004796Y006007D01*
X004874Y006197D01*
X004874Y006403D01*
X004867Y006420D01*
X004923Y006365D01*
X004923Y006197D01*
X005002Y006007D01*
X005147Y005862D01*
X005337Y005783D01*
X005543Y005783D01*
X005733Y005862D01*
X005878Y006007D01*
X005957Y006197D01*
X005957Y006403D01*
X005878Y006593D01*
X005733Y006738D01*
X005543Y006817D01*
X005375Y006817D01*
X005268Y006925D01*
X005268Y007450D01*
X005333Y007429D01*
X005404Y007418D01*
X005431Y007418D01*
X005431Y007866D01*
X005449Y007866D01*
X005449Y007883D01*
X005897Y007883D01*
X005897Y007911D01*
X005886Y007982D01*
X005884Y007989D01*
X005986Y007946D01*
X006271Y007946D01*
X006486Y008035D01*
X006913Y008035D01*
X006913Y007965D01*
X006983Y007965D01*
X006983Y008035D01*
X007443Y008035D01*
X007443Y008211D01*
X007466Y008234D01*
X007503Y008322D01*
X007503Y008878D01*
X007496Y008895D01*
X008385Y009784D01*
X008338Y009671D01*
X008338Y009429D01*
X008431Y009204D01*
X008602Y009033D01*
X008826Y008940D01*
X008970Y008940D01*
X009164Y008649D01*
X009177Y008619D01*
X009199Y008596D01*
X009217Y008570D01*
X009244Y008552D01*
X009267Y008529D01*
X009296Y008516D01*
X009323Y008499D01*
X009354Y008492D01*
X009384Y008480D01*
X009416Y008480D01*
X009447Y008474D01*
X009479Y008480D01*
X011315Y008480D01*
X012427Y007369D01*
X012517Y007279D01*
X012634Y007230D01*
X012763Y007230D01*
X012666Y007133D01*
X012542Y006835D01*
X012542Y006513D01*
X012666Y006215D01*
X012894Y005987D01*
X012752Y006129D02*
X010768Y006129D01*
X010768Y006287D02*
X012636Y006287D01*
X012570Y006446D02*
X010768Y006446D01*
X010768Y006604D02*
X012542Y006604D01*
X012542Y006763D02*
X011570Y006763D01*
X011448Y006763D02*
X011448Y006763D01*
X011326Y006763D02*
X010768Y006763D01*
X010932Y006921D02*
X011049Y006921D01*
X011448Y006921D02*
X011448Y006921D01*
X011448Y007080D02*
X011448Y007080D01*
X011448Y007238D02*
X011448Y007238D01*
X011448Y007397D02*
X011448Y007397D01*
X011448Y007555D02*
X011448Y007555D01*
X011448Y007714D02*
X011448Y007714D01*
X011812Y007714D02*
X012082Y007714D01*
X011935Y007555D02*
X012240Y007555D01*
X012399Y007397D02*
X011989Y007397D01*
X011995Y007238D02*
X012615Y007238D01*
X012644Y007080D02*
X011953Y007080D01*
X011847Y006921D02*
X012578Y006921D01*
X012698Y007550D02*
X019092Y007550D01*
X019968Y006674D01*
X019192Y006921D02*
X019089Y006921D01*
X019109Y007080D02*
X019024Y007080D01*
X019125Y006763D02*
X019157Y006763D01*
X019157Y006604D02*
X019125Y006604D01*
X019097Y006446D02*
X019184Y006446D01*
X019250Y006287D02*
X019031Y006287D01*
X018915Y006129D02*
X019366Y006129D01*
X019548Y005970D02*
X018733Y005970D01*
X017895Y005970D02*
X017080Y005970D01*
X017262Y006129D02*
X017713Y006129D01*
X017597Y006287D02*
X017378Y006287D01*
X017443Y006446D02*
X017531Y006446D01*
X017503Y006604D02*
X017471Y006604D01*
X017471Y006763D02*
X017503Y006763D01*
X017539Y006921D02*
X017436Y006921D01*
X017370Y007080D02*
X017604Y007080D01*
X015951Y007080D02*
X015717Y007080D01*
X015782Y006921D02*
X015885Y006921D01*
X015850Y006763D02*
X015818Y006763D01*
X015818Y006604D02*
X015850Y006604D01*
X015877Y006446D02*
X015790Y006446D01*
X015724Y006287D02*
X015943Y006287D01*
X016059Y006129D02*
X015608Y006129D01*
X015426Y005970D02*
X016241Y005970D01*
X014588Y005970D02*
X013773Y005970D01*
X013955Y006129D02*
X014406Y006129D01*
X014290Y006287D02*
X014071Y006287D01*
X014136Y006446D02*
X014224Y006446D01*
X014196Y006604D02*
X014164Y006604D01*
X014164Y006763D02*
X014196Y006763D01*
X014232Y006921D02*
X014129Y006921D01*
X014063Y007080D02*
X014297Y007080D01*
X012948Y007800D02*
X025448Y007800D01*
X026487Y008839D01*
X026582Y008839D01*
X027393Y008823D02*
X029078Y008823D01*
X029078Y008678D02*
X029201Y008380D01*
X029429Y008152D01*
X029727Y008029D01*
X030050Y008029D01*
X030348Y008152D01*
X030576Y008380D01*
X030700Y008678D01*
X030700Y009001D01*
X030576Y009299D01*
X030348Y009527D01*
X030050Y009650D01*
X029727Y009650D01*
X029429Y009527D01*
X029201Y009299D01*
X029078Y009001D01*
X029078Y008678D01*
X029084Y008665D02*
X027387Y008665D01*
X027321Y008506D02*
X029149Y008506D01*
X029234Y008348D02*
X027237Y008348D01*
X027078Y008189D02*
X029392Y008189D01*
X029723Y008031D02*
X026748Y008031D01*
X026416Y008031D02*
X026131Y008031D01*
X025972Y007872D02*
X030708Y007872D01*
X030708Y007714D02*
X025814Y007714D01*
X025655Y007555D02*
X030708Y007555D01*
X030708Y007414D02*
X030221Y007414D01*
X030050Y007485D01*
X029727Y007485D01*
X029429Y007361D01*
X029201Y007133D01*
X029078Y006835D01*
X029078Y006513D01*
X029201Y006215D01*
X029429Y005987D01*
X029727Y005863D01*
X030050Y005863D01*
X030221Y005934D01*
X031210Y005934D01*
X031381Y005863D01*
X031704Y005863D01*
X032002Y005987D01*
X032230Y006215D01*
X032353Y006513D01*
X032353Y006835D01*
X032230Y007133D01*
X032188Y007175D01*
X032188Y008338D01*
X032230Y008380D01*
X032353Y008678D01*
X032353Y009001D01*
X032230Y009299D01*
X032188Y009341D01*
X032188Y009947D01*
X032075Y010219D01*
X031867Y010427D01*
X030867Y011427D01*
X030595Y011540D01*
X025066Y011540D01*
X025216Y011724D01*
X025216Y011724D01*
X025441Y012242D01*
X025518Y012800D01*
X025441Y013358D01*
X025441Y013358D01*
X025216Y013876D01*
X024861Y014313D01*
X024861Y014313D01*
X024861Y014313D01*
X024400Y014638D01*
X023869Y014827D01*
X023307Y014865D01*
X023307Y014865D01*
X022755Y014750D01*
X022755Y014750D01*
X022254Y014491D01*
X021842Y014106D01*
X021549Y013625D01*
X021549Y013625D01*
X021397Y013082D01*
X021397Y012518D01*
X021549Y011975D01*
X021842Y011494D01*
X021842Y011494D01*
X022254Y011109D01*
X022254Y011109D01*
X022755Y010850D01*
X023307Y010735D01*
X023456Y010745D01*
X023820Y010381D01*
X024029Y010173D01*
X024301Y010060D01*
X030141Y010060D01*
X030708Y009493D01*
X030708Y007414D01*
X029514Y007397D02*
X026956Y007397D01*
X027041Y007361D02*
X026743Y007485D01*
X026420Y007485D01*
X026122Y007361D01*
X025894Y007133D01*
X025771Y006835D01*
X025771Y006513D01*
X025894Y006215D01*
X026122Y005987D01*
X026420Y005863D01*
X026743Y005863D01*
X027041Y005987D01*
X027269Y006215D01*
X027393Y006513D01*
X027393Y006835D01*
X027269Y007133D01*
X027041Y007361D01*
X027164Y007238D02*
X029306Y007238D01*
X029179Y007080D02*
X027291Y007080D01*
X027357Y006921D02*
X029113Y006921D01*
X029078Y006763D02*
X027393Y006763D01*
X027393Y006604D02*
X029078Y006604D01*
X029106Y006446D02*
X027365Y006446D01*
X027299Y006287D02*
X029171Y006287D01*
X029288Y006129D02*
X027183Y006129D01*
X027001Y005970D02*
X029470Y005970D01*
X031962Y005970D02*
X033338Y005970D01*
X033338Y006129D02*
X032144Y006129D01*
X032260Y006287D02*
X033338Y006287D01*
X033338Y006446D02*
X032325Y006446D01*
X032353Y006604D02*
X033338Y006604D01*
X033338Y006763D02*
X032353Y006763D01*
X032318Y006921D02*
X033338Y006921D01*
X033338Y007080D02*
X032252Y007080D01*
X032188Y007238D02*
X033338Y007238D01*
X033338Y007397D02*
X032188Y007397D01*
X032188Y007555D02*
X033338Y007555D01*
X033338Y007714D02*
X032188Y007714D01*
X032188Y007872D02*
X033338Y007872D01*
X033338Y008031D02*
X032188Y008031D01*
X032188Y008189D02*
X033338Y008189D01*
X033338Y008348D02*
X032197Y008348D01*
X032282Y008506D02*
X033338Y008506D01*
X033338Y008665D02*
X032348Y008665D01*
X032353Y008823D02*
X033338Y008823D01*
X033338Y008982D02*
X032353Y008982D01*
X032295Y009140D02*
X033338Y009140D01*
X033338Y009299D02*
X032230Y009299D01*
X032188Y009457D02*
X033338Y009457D01*
X033338Y009616D02*
X032188Y009616D01*
X032188Y009774D02*
X033338Y009774D01*
X033338Y009933D02*
X032188Y009933D01*
X032128Y010091D02*
X033338Y010091D01*
X033338Y010250D02*
X032045Y010250D01*
X031886Y010408D02*
X033338Y010408D01*
X033338Y010567D02*
X031728Y010567D01*
X031569Y010725D02*
X033338Y010725D01*
X033338Y010884D02*
X031411Y010884D01*
X031252Y011042D02*
X033338Y011042D01*
X033338Y011201D02*
X031094Y011201D01*
X030935Y011359D02*
X033338Y011359D01*
X033338Y011518D02*
X030649Y011518D01*
X031012Y012247D02*
X031299Y012170D01*
X031597Y012170D01*
X031884Y012247D01*
X032142Y012396D01*
X032352Y012606D01*
X032501Y012864D01*
X032578Y013151D01*
X032578Y013449D01*
X032501Y013736D01*
X032352Y013994D01*
X032142Y014204D01*
X031884Y014353D01*
X031597Y014430D01*
X031299Y014430D01*
X031012Y014353D01*
X030754Y014204D01*
X030544Y013994D01*
X030395Y013736D01*
X030318Y013449D01*
X030318Y013151D01*
X030395Y012864D01*
X030544Y012606D01*
X030754Y012396D01*
X031012Y012247D01*
X030903Y012310D02*
X025450Y012310D01*
X025441Y012242D02*
X025441Y012242D01*
X025402Y012152D02*
X033338Y012152D01*
X033338Y012310D02*
X031993Y012310D01*
X032214Y012469D02*
X033338Y012469D01*
X033338Y012627D02*
X032364Y012627D01*
X032456Y012786D02*
X033338Y012786D01*
X033338Y012944D02*
X032522Y012944D01*
X032565Y013103D02*
X033338Y013103D01*
X033338Y013261D02*
X032578Y013261D01*
X032578Y013420D02*
X033338Y013420D01*
X033338Y013578D02*
X032543Y013578D01*
X032501Y013737D02*
X033338Y013737D01*
X033338Y013895D02*
X032409Y013895D01*
X032292Y014054D02*
X033338Y014054D01*
X033338Y014212D02*
X032128Y014212D01*
X031819Y014371D02*
X033338Y014371D01*
X033338Y014529D02*
X024554Y014529D01*
X024400Y014638D02*
X024400Y014638D01*
X024261Y014688D02*
X033338Y014688D01*
X033338Y014846D02*
X023587Y014846D01*
X023869Y014827D02*
X023869Y014827D01*
X023214Y014846D02*
X018337Y014846D01*
X018619Y014827D02*
X018619Y014827D01*
X019011Y014688D02*
X022633Y014688D01*
X022327Y014529D02*
X019304Y014529D01*
X019150Y014638D02*
X019150Y014638D01*
X019529Y014371D02*
X022125Y014371D01*
X022254Y014491D02*
X022254Y014491D01*
X021955Y014212D02*
X019693Y014212D01*
X019822Y014054D02*
X021810Y014054D01*
X021842Y014106D02*
X021842Y014106D01*
X021714Y013895D02*
X019951Y013895D01*
X019966Y013876D02*
X019966Y013876D01*
X020027Y013737D02*
X021617Y013737D01*
X021536Y013578D02*
X020096Y013578D01*
X020165Y013420D02*
X021492Y013420D01*
X021447Y013261D02*
X020204Y013261D01*
X020226Y013103D02*
X021403Y013103D01*
X021397Y012944D02*
X020248Y012944D01*
X020266Y012786D02*
X021397Y012786D01*
X021397Y012627D02*
X020244Y012627D01*
X020222Y012469D02*
X021411Y012469D01*
X021455Y012310D02*
X020200Y012310D01*
X020191Y012242D02*
X020191Y012242D01*
X020152Y012152D02*
X021500Y012152D01*
X021544Y011993D02*
X020083Y011993D01*
X020014Y011835D02*
X021635Y011835D01*
X021549Y011975D02*
X021549Y011975D01*
X021731Y011676D02*
X019927Y011676D01*
X019798Y011518D02*
X021828Y011518D01*
X021986Y011359D02*
X019669Y011359D01*
X019488Y011201D02*
X022156Y011201D01*
X022383Y011042D02*
X019263Y011042D01*
X019054Y010884D02*
X022689Y010884D01*
X022755Y010850D02*
X022755Y010850D01*
X023307Y010735D02*
X023307Y010735D01*
X023476Y010725D02*
X019054Y010725D01*
X019054Y010567D02*
X023635Y010567D01*
X023793Y010408D02*
X019054Y010408D01*
X019054Y010250D02*
X023952Y010250D01*
X024226Y010091D02*
X019054Y010091D01*
X019054Y009933D02*
X030269Y009933D01*
X030427Y009774D02*
X019054Y009774D01*
X019054Y009616D02*
X019722Y009616D01*
X019438Y009457D02*
X019054Y009457D01*
X019054Y009299D02*
X019280Y009299D01*
X019214Y009140D02*
X019067Y009140D01*
X019125Y008982D02*
X019157Y008982D01*
X019157Y008823D02*
X019125Y008823D01*
X019119Y008665D02*
X019162Y008665D01*
X019228Y008506D02*
X019054Y008506D01*
X018969Y008348D02*
X019313Y008348D01*
X019471Y008189D02*
X018810Y008189D01*
X020464Y008189D02*
X025384Y008189D01*
X025543Y008348D02*
X020622Y008348D01*
X020707Y008506D02*
X025701Y008506D01*
X025776Y008665D02*
X020773Y008665D01*
X020778Y008823D02*
X025771Y008823D01*
X025771Y008982D02*
X020778Y008982D01*
X020721Y009140D02*
X025829Y009140D01*
X025894Y009299D02*
X020655Y009299D01*
X020497Y009457D02*
X026053Y009457D01*
X026337Y009616D02*
X020213Y009616D01*
X016027Y011676D02*
X014677Y011676D01*
X014716Y011724D02*
X014941Y012242D01*
X015018Y012800D01*
X014941Y013358D01*
X014941Y013358D01*
X014716Y013876D01*
X014361Y014313D01*
X014361Y014313D01*
X014361Y014313D01*
X013900Y014638D01*
X013369Y014827D01*
X012807Y014865D01*
X012807Y014865D01*
X012255Y014750D01*
X012255Y014750D01*
X011754Y014491D01*
X011342Y014106D01*
X011049Y013625D01*
X011049Y013625D01*
X010897Y013082D01*
X010897Y012518D01*
X011049Y011975D01*
X011342Y011494D01*
X011342Y011494D01*
X011754Y011109D01*
X011754Y011109D01*
X012255Y010850D01*
X012807Y010735D01*
X013369Y010773D01*
X013900Y010962D01*
X013900Y010962D01*
X014361Y011287D01*
X014361Y011287D01*
X014361Y011287D01*
X014716Y011724D01*
X014716Y011724D01*
X014764Y011835D02*
X016186Y011835D01*
X016294Y011993D02*
X014833Y011993D01*
X014902Y012152D02*
X016250Y012152D01*
X016205Y012310D02*
X014950Y012310D01*
X014941Y012242D02*
X014941Y012242D01*
X014972Y012469D02*
X016161Y012469D01*
X016147Y012627D02*
X014994Y012627D01*
X015016Y012786D02*
X016147Y012786D01*
X016147Y012944D02*
X014998Y012944D01*
X014976Y013103D02*
X016153Y013103D01*
X016197Y013261D02*
X014954Y013261D01*
X014915Y013420D02*
X016242Y013420D01*
X016286Y013578D02*
X014846Y013578D01*
X014777Y013737D02*
X016367Y013737D01*
X016464Y013895D02*
X014701Y013895D01*
X014716Y013876D02*
X014716Y013876D01*
X014572Y014054D02*
X016560Y014054D01*
X016592Y014106D02*
X016592Y014106D01*
X016705Y014212D02*
X014443Y014212D01*
X014279Y014371D02*
X016875Y014371D01*
X017004Y014491D02*
X017004Y014491D01*
X017004Y014491D01*
X017077Y014529D02*
X014054Y014529D01*
X013900Y014638D02*
X013900Y014638D01*
X013761Y014688D02*
X017383Y014688D01*
X017964Y014846D02*
X013087Y014846D01*
X013369Y014827D02*
X013369Y014827D01*
X012714Y014846D02*
X002948Y014846D01*
X002948Y014688D02*
X012133Y014688D01*
X011827Y014529D02*
X002948Y014529D01*
X002948Y014371D02*
X004577Y014371D01*
X004512Y014353D02*
X004254Y014204D01*
X004044Y013994D01*
X003895Y013736D01*
X003818Y013449D01*
X003818Y013151D01*
X003895Y012864D01*
X004044Y012606D01*
X004254Y012396D01*
X004512Y012247D01*
X004799Y012170D01*
X005097Y012170D01*
X005384Y012247D01*
X005642Y012396D01*
X005852Y012606D01*
X006001Y012864D01*
X006078Y013151D01*
X006078Y013449D01*
X006001Y013736D01*
X005852Y013994D01*
X005642Y014204D01*
X005384Y014353D01*
X005097Y014430D01*
X004799Y014430D01*
X004512Y014353D01*
X004267Y014212D02*
X002948Y014212D01*
X002948Y014054D02*
X004103Y014054D01*
X003987Y013895D02*
X002948Y013895D01*
X002948Y013737D02*
X003895Y013737D01*
X003852Y013578D02*
X002948Y013578D01*
X002948Y013420D02*
X003818Y013420D01*
X003818Y013261D02*
X002948Y013261D01*
X002948Y013103D02*
X003831Y013103D01*
X003873Y012944D02*
X002948Y012944D01*
X002948Y012786D02*
X003940Y012786D01*
X004032Y012627D02*
X002948Y012627D01*
X002948Y012469D02*
X004181Y012469D01*
X004403Y012310D02*
X002948Y012310D01*
X002948Y012152D02*
X011000Y012152D01*
X010955Y012310D02*
X005493Y012310D01*
X005714Y012469D02*
X010911Y012469D01*
X010897Y012627D02*
X005864Y012627D01*
X005956Y012786D02*
X010897Y012786D01*
X010897Y012944D02*
X006022Y012944D01*
X006065Y013103D02*
X010903Y013103D01*
X010947Y013261D02*
X006078Y013261D01*
X006078Y013420D02*
X010992Y013420D01*
X011036Y013578D02*
X006043Y013578D01*
X006001Y013737D02*
X011117Y013737D01*
X011214Y013895D02*
X005909Y013895D01*
X005792Y014054D02*
X011310Y014054D01*
X011342Y014106D02*
X011342Y014106D01*
X011455Y014212D02*
X005628Y014212D01*
X005319Y014371D02*
X011625Y014371D01*
X011754Y014491D02*
X011754Y014491D01*
X011198Y012800D02*
X011200Y012886D01*
X011206Y012972D01*
X011217Y013057D01*
X011232Y013141D01*
X011250Y013225D01*
X011273Y013308D01*
X011300Y013390D01*
X011331Y013470D01*
X011366Y013548D01*
X011405Y013625D01*
X011447Y013700D01*
X011493Y013772D01*
X011542Y013842D01*
X011595Y013910D01*
X011651Y013975D01*
X011711Y014037D01*
X011773Y014097D01*
X011838Y014153D01*
X011906Y014206D01*
X011976Y014255D01*
X012048Y014301D01*
X012123Y014343D01*
X012200Y014382D01*
X012278Y014417D01*
X012358Y014448D01*
X012440Y014475D01*
X012523Y014498D01*
X012607Y014516D01*
X012691Y014531D01*
X012776Y014542D01*
X012862Y014548D01*
X012948Y014550D01*
X013034Y014548D01*
X013120Y014542D01*
X013205Y014531D01*
X013289Y014516D01*
X013373Y014498D01*
X013456Y014475D01*
X013538Y014448D01*
X013618Y014417D01*
X013696Y014382D01*
X013773Y014343D01*
X013848Y014301D01*
X013920Y014255D01*
X013990Y014206D01*
X014058Y014153D01*
X014123Y014097D01*
X014185Y014037D01*
X014245Y013975D01*
X014301Y013910D01*
X014354Y013842D01*
X014403Y013772D01*
X014449Y013700D01*
X014491Y013625D01*
X014530Y013548D01*
X014565Y013470D01*
X014596Y013390D01*
X014623Y013308D01*
X014646Y013225D01*
X014664Y013141D01*
X014679Y013057D01*
X014690Y012972D01*
X014696Y012886D01*
X014698Y012800D01*
X014696Y012714D01*
X014690Y012628D01*
X014679Y012543D01*
X014664Y012459D01*
X014646Y012375D01*
X014623Y012292D01*
X014596Y012210D01*
X014565Y012130D01*
X014530Y012052D01*
X014491Y011975D01*
X014449Y011900D01*
X014403Y011828D01*
X014354Y011758D01*
X014301Y011690D01*
X014245Y011625D01*
X014185Y011563D01*
X014123Y011503D01*
X014058Y011447D01*
X013990Y011394D01*
X013920Y011345D01*
X013848Y011299D01*
X013773Y011257D01*
X013696Y011218D01*
X013618Y011183D01*
X013538Y011152D01*
X013456Y011125D01*
X013373Y011102D01*
X013289Y011084D01*
X013205Y011069D01*
X013120Y011058D01*
X013034Y011052D01*
X012948Y011050D01*
X012862Y011052D01*
X012776Y011058D01*
X012691Y011069D01*
X012607Y011084D01*
X012523Y011102D01*
X012440Y011125D01*
X012358Y011152D01*
X012278Y011183D01*
X012200Y011218D01*
X012123Y011257D01*
X012048Y011299D01*
X011976Y011345D01*
X011906Y011394D01*
X011838Y011447D01*
X011773Y011503D01*
X011711Y011563D01*
X011651Y011625D01*
X011595Y011690D01*
X011542Y011758D01*
X011493Y011828D01*
X011447Y011900D01*
X011405Y011975D01*
X011366Y012052D01*
X011331Y012130D01*
X011300Y012210D01*
X011273Y012292D01*
X011250Y012375D01*
X011232Y012459D01*
X011217Y012543D01*
X011206Y012628D01*
X011200Y012714D01*
X011198Y012800D01*
X011044Y011993D02*
X002948Y011993D01*
X002948Y011835D02*
X011135Y011835D01*
X011049Y011975D02*
X011049Y011975D01*
X011231Y011676D02*
X002948Y011676D01*
X002948Y011518D02*
X011328Y011518D01*
X011342Y011494D02*
X011342Y011494D01*
X011486Y011359D02*
X002948Y011359D01*
X002948Y011201D02*
X011656Y011201D01*
X011883Y011042D02*
X002948Y011042D01*
X002948Y010884D02*
X012189Y010884D01*
X012255Y010850D02*
X012255Y010850D01*
X012807Y010735D02*
X012807Y010735D01*
X013369Y010773D02*
X013369Y010773D01*
X013679Y010884D02*
X015235Y010884D01*
X015393Y011042D02*
X014013Y011042D01*
X014238Y011201D02*
X015552Y011201D01*
X015710Y011359D02*
X014419Y011359D01*
X014548Y011518D02*
X015869Y011518D01*
X015076Y010725D02*
X002948Y010725D01*
X002948Y010567D02*
X008262Y010567D01*
X008103Y010408D02*
X002948Y010408D01*
X002948Y010250D02*
X007945Y010250D01*
X007786Y010091D02*
X006081Y010091D01*
X006268Y009933D02*
X007628Y009933D01*
X007469Y009774D02*
X006426Y009774D01*
X006585Y009616D02*
X007311Y009616D01*
X007152Y009457D02*
X006743Y009457D01*
X006902Y009299D02*
X006994Y009299D01*
X007582Y008982D02*
X008726Y008982D01*
X008495Y009140D02*
X007740Y009140D01*
X007899Y009299D02*
X008392Y009299D01*
X008338Y009457D02*
X008057Y009457D01*
X008216Y009616D02*
X008338Y009616D01*
X008374Y009774D02*
X008380Y009774D01*
X008948Y009550D02*
X009448Y008800D01*
X011448Y008800D01*
X012698Y007550D01*
X012948Y007800D02*
X012448Y008300D01*
X012448Y009300D01*
X011448Y010300D01*
X008448Y010300D01*
X006948Y008800D01*
X005948Y009800D01*
X005448Y009800D01*
X004948Y009300D01*
X004948Y006792D01*
X005440Y006300D01*
X005957Y006287D02*
X010128Y006287D01*
X010128Y006446D02*
X005939Y006446D01*
X005867Y006604D02*
X010128Y006604D01*
X010128Y006763D02*
X005675Y006763D01*
X005272Y006921D02*
X009964Y006921D01*
X009879Y007080D02*
X005268Y007080D01*
X005268Y007238D02*
X009838Y007238D01*
X009838Y007397D02*
X005268Y007397D01*
X005449Y007418D02*
X005476Y007418D01*
X005547Y007429D01*
X005615Y007451D01*
X005680Y007484D01*
X005738Y007526D01*
X005789Y007577D01*
X005831Y007635D01*
X005864Y007699D01*
X005886Y007768D01*
X005897Y007839D01*
X005897Y007866D01*
X005449Y007866D01*
X005449Y007418D01*
X005449Y007555D02*
X005431Y007555D01*
X005431Y007714D02*
X005449Y007714D01*
X005449Y007872D02*
X006453Y007872D01*
X006453Y007965D02*
X006453Y007746D01*
X006465Y007701D01*
X006489Y007659D01*
X006522Y007626D01*
X006563Y007602D01*
X006609Y007590D01*
X006913Y007590D01*
X006913Y007965D01*
X006453Y007965D01*
X006475Y008031D02*
X006913Y008031D01*
X006948Y008000D02*
X006948Y007300D01*
X006598Y006950D01*
X006365Y006950D01*
X005440Y007875D01*
X005449Y007883D02*
X005431Y007883D01*
X005431Y008332D01*
X005404Y008332D01*
X005333Y008321D01*
X005268Y008300D01*
X005268Y009167D01*
X005580Y009480D01*
X005815Y009480D01*
X005937Y009358D01*
X005723Y009269D01*
X005522Y009068D01*
X005413Y008805D01*
X005413Y008520D01*
X005492Y008329D01*
X005476Y008332D01*
X005449Y008332D01*
X005449Y007883D01*
X005449Y008031D02*
X005431Y008031D01*
X005431Y008189D02*
X005449Y008189D01*
X005484Y008348D02*
X005268Y008348D01*
X005268Y008506D02*
X005418Y008506D01*
X005413Y008665D02*
X005268Y008665D01*
X005268Y008823D02*
X005420Y008823D01*
X005486Y008982D02*
X005268Y008982D01*
X005268Y009140D02*
X005594Y009140D01*
X005399Y009299D02*
X005794Y009299D01*
X005838Y009457D02*
X005557Y009457D01*
X004969Y009774D02*
X002948Y009774D01*
X002948Y009616D02*
X004811Y009616D01*
X004667Y009457D02*
X002948Y009457D01*
X002948Y009299D02*
X003431Y009299D01*
X003232Y009140D02*
X002948Y009140D01*
X002948Y008982D02*
X003124Y008982D01*
X003058Y008823D02*
X002948Y008823D01*
X002948Y008665D02*
X003051Y008665D01*
X003056Y008506D02*
X002948Y008506D01*
X002948Y008348D02*
X003122Y008348D01*
X003227Y008189D02*
X002948Y008189D01*
X002948Y008031D02*
X003420Y008031D01*
X003840Y007872D02*
X002948Y007872D01*
X002948Y007714D02*
X003864Y007714D01*
X003946Y007555D02*
X002948Y007555D01*
X002948Y007397D02*
X004161Y007397D01*
X004554Y007397D02*
X004628Y007397D01*
X004628Y007238D02*
X002948Y007238D01*
X002948Y007080D02*
X004628Y007080D01*
X004628Y006921D02*
X002948Y006921D01*
X002948Y006763D02*
X004122Y006763D01*
X003930Y006604D02*
X002948Y006604D01*
X002948Y006446D02*
X003858Y006446D01*
X003840Y006287D02*
X002948Y006287D01*
X002948Y006129D02*
X003869Y006129D01*
X003956Y005970D02*
X002948Y005970D01*
X002948Y005812D02*
X004185Y005812D01*
X004529Y005812D02*
X005268Y005812D01*
X005039Y005970D02*
X004759Y005970D01*
X004846Y006129D02*
X004951Y006129D01*
X004923Y006287D02*
X004874Y006287D01*
X004628Y006763D02*
X004592Y006763D01*
X005929Y006129D02*
X010074Y006129D01*
X009915Y005970D02*
X005841Y005970D01*
X005612Y005812D02*
X009757Y005812D01*
X009598Y005653D02*
X002948Y005653D01*
X002948Y005495D02*
X009440Y005495D01*
X008948Y004550D02*
X010448Y006050D01*
X010448Y007300D01*
X009893Y007555D02*
X005767Y007555D01*
X005868Y007714D02*
X006462Y007714D01*
X006913Y007714D02*
X006983Y007714D01*
X006983Y007590D02*
X007287Y007590D01*
X007332Y007602D01*
X007373Y007626D01*
X007407Y007659D01*
X007431Y007701D01*
X007443Y007746D01*
X007443Y007965D01*
X006983Y007965D01*
X006983Y007590D01*
X007434Y007714D02*
X009999Y007714D01*
X010235Y007872D02*
X007443Y007872D01*
X006983Y007872D02*
X006913Y007872D01*
X006983Y008031D02*
X011765Y008031D01*
X011606Y008189D02*
X007443Y008189D01*
X007503Y008348D02*
X011448Y008348D01*
X011923Y007872D02*
X010661Y007872D01*
X010897Y007714D02*
X011084Y007714D01*
X012768Y008506D02*
X014267Y008506D01*
X014202Y008665D02*
X012768Y008665D01*
X012768Y008823D02*
X014196Y008823D01*
X014196Y008982D02*
X012768Y008982D01*
X012768Y009140D02*
X014254Y009140D01*
X014267Y009299D02*
X012768Y009299D01*
X012729Y009457D02*
X014267Y009457D01*
X014267Y009616D02*
X012585Y009616D01*
X012426Y009774D02*
X014274Y009774D01*
X014340Y009933D02*
X012268Y009933D01*
X012109Y010091D02*
X014442Y010091D01*
X014601Y010250D02*
X011951Y010250D01*
X011792Y010408D02*
X014759Y010408D01*
X014918Y010567D02*
X011634Y010567D01*
X009048Y008823D02*
X007503Y008823D01*
X007503Y008665D02*
X009154Y008665D01*
X009312Y008506D02*
X007503Y008506D01*
X005128Y009933D02*
X002948Y009933D01*
X002948Y010091D02*
X005314Y010091D01*
X004628Y009299D02*
X004102Y009299D01*
X004302Y009140D02*
X004628Y009140D01*
X004628Y008982D02*
X004410Y008982D01*
X004475Y008823D02*
X004628Y008823D01*
X004628Y008665D02*
X004483Y008665D01*
X004477Y008506D02*
X004628Y008506D01*
X004628Y008348D02*
X004567Y008348D01*
X004617Y005178D02*
X005181Y005178D01*
X005002Y005019D02*
X004795Y005019D01*
X004861Y004861D02*
X004936Y004861D01*
X004923Y004702D02*
X004874Y004702D01*
X004842Y004544D02*
X004955Y004544D01*
X005049Y004385D02*
X004748Y004385D01*
X004505Y004227D02*
X005292Y004227D01*
X005413Y004068D02*
X004483Y004068D01*
X004483Y003910D02*
X005413Y003910D01*
X005431Y003751D02*
X004465Y003751D01*
X004399Y003593D02*
X005497Y003593D01*
X005620Y003434D02*
X004276Y003434D01*
X013011Y008189D02*
X014511Y008189D01*
X014352Y008348D02*
X012853Y008348D01*
X020342Y007397D02*
X022900Y007397D01*
X022692Y007238D02*
X020550Y007238D01*
X020677Y007080D02*
X022565Y007080D01*
X022499Y006921D02*
X020743Y006921D01*
X020778Y006763D02*
X022464Y006763D01*
X022464Y006604D02*
X020778Y006604D01*
X020751Y006446D02*
X022492Y006446D01*
X022557Y006287D02*
X020685Y006287D01*
X020569Y006129D02*
X022673Y006129D01*
X022855Y005970D02*
X020387Y005970D01*
X023694Y005970D02*
X026162Y005970D01*
X025980Y006129D02*
X023876Y006129D01*
X023992Y006287D02*
X025864Y006287D01*
X025799Y006446D02*
X024058Y006446D01*
X024085Y006604D02*
X025771Y006604D01*
X025771Y006763D02*
X024085Y006763D01*
X024050Y006921D02*
X025806Y006921D01*
X025872Y007080D02*
X023984Y007080D01*
X023857Y007238D02*
X025999Y007238D01*
X026207Y007397D02*
X023649Y007397D01*
X027393Y008982D02*
X029078Y008982D01*
X029136Y009140D02*
X027335Y009140D01*
X027269Y009299D02*
X029201Y009299D01*
X029360Y009457D02*
X027111Y009457D01*
X026827Y009616D02*
X029644Y009616D01*
X030134Y009616D02*
X030586Y009616D01*
X030708Y009457D02*
X030418Y009457D01*
X030576Y009299D02*
X030708Y009299D01*
X030708Y009140D02*
X030642Y009140D01*
X030700Y008982D02*
X030708Y008982D01*
X030700Y008823D02*
X030708Y008823D01*
X030694Y008665D02*
X030708Y008665D01*
X030708Y008506D02*
X030628Y008506D01*
X030708Y008348D02*
X030544Y008348D01*
X030385Y008189D02*
X030708Y008189D01*
X030708Y008031D02*
X030055Y008031D01*
X033338Y011676D02*
X025177Y011676D01*
X025264Y011835D02*
X033338Y011835D01*
X033338Y011993D02*
X025333Y011993D01*
X025472Y012469D02*
X030681Y012469D01*
X030532Y012627D02*
X025494Y012627D01*
X025516Y012786D02*
X030440Y012786D01*
X030373Y012944D02*
X025498Y012944D01*
X025476Y013103D02*
X030331Y013103D01*
X030318Y013261D02*
X025454Y013261D01*
X025415Y013420D02*
X030318Y013420D01*
X030352Y013578D02*
X025346Y013578D01*
X025277Y013737D02*
X030395Y013737D01*
X030487Y013895D02*
X025201Y013895D01*
X025216Y013876D02*
X025216Y013876D01*
X025072Y014054D02*
X030603Y014054D01*
X030767Y014212D02*
X024943Y014212D01*
X024779Y014371D02*
X031077Y014371D01*
X033338Y015005D02*
X002948Y015005D01*
X002948Y015163D02*
X033338Y015163D01*
X021698Y012800D02*
X021700Y012886D01*
X021706Y012972D01*
X021717Y013057D01*
X021732Y013141D01*
X021750Y013225D01*
X021773Y013308D01*
X021800Y013390D01*
X021831Y013470D01*
X021866Y013548D01*
X021905Y013625D01*
X021947Y013700D01*
X021993Y013772D01*
X022042Y013842D01*
X022095Y013910D01*
X022151Y013975D01*
X022211Y014037D01*
X022273Y014097D01*
X022338Y014153D01*
X022406Y014206D01*
X022476Y014255D01*
X022548Y014301D01*
X022623Y014343D01*
X022700Y014382D01*
X022778Y014417D01*
X022858Y014448D01*
X022940Y014475D01*
X023023Y014498D01*
X023107Y014516D01*
X023191Y014531D01*
X023276Y014542D01*
X023362Y014548D01*
X023448Y014550D01*
X023534Y014548D01*
X023620Y014542D01*
X023705Y014531D01*
X023789Y014516D01*
X023873Y014498D01*
X023956Y014475D01*
X024038Y014448D01*
X024118Y014417D01*
X024196Y014382D01*
X024273Y014343D01*
X024348Y014301D01*
X024420Y014255D01*
X024490Y014206D01*
X024558Y014153D01*
X024623Y014097D01*
X024685Y014037D01*
X024745Y013975D01*
X024801Y013910D01*
X024854Y013842D01*
X024903Y013772D01*
X024949Y013700D01*
X024991Y013625D01*
X025030Y013548D01*
X025065Y013470D01*
X025096Y013390D01*
X025123Y013308D01*
X025146Y013225D01*
X025164Y013141D01*
X025179Y013057D01*
X025190Y012972D01*
X025196Y012886D01*
X025198Y012800D01*
X025196Y012714D01*
X025190Y012628D01*
X025179Y012543D01*
X025164Y012459D01*
X025146Y012375D01*
X025123Y012292D01*
X025096Y012210D01*
X025065Y012130D01*
X025030Y012052D01*
X024991Y011975D01*
X024949Y011900D01*
X024903Y011828D01*
X024854Y011758D01*
X024801Y011690D01*
X024745Y011625D01*
X024685Y011563D01*
X024623Y011503D01*
X024558Y011447D01*
X024490Y011394D01*
X024420Y011345D01*
X024348Y011299D01*
X024273Y011257D01*
X024196Y011218D01*
X024118Y011183D01*
X024038Y011152D01*
X023956Y011125D01*
X023873Y011102D01*
X023789Y011084D01*
X023705Y011069D01*
X023620Y011058D01*
X023534Y011052D01*
X023448Y011050D01*
X023362Y011052D01*
X023276Y011058D01*
X023191Y011069D01*
X023107Y011084D01*
X023023Y011102D01*
X022940Y011125D01*
X022858Y011152D01*
X022778Y011183D01*
X022700Y011218D01*
X022623Y011257D01*
X022548Y011299D01*
X022476Y011345D01*
X022406Y011394D01*
X022338Y011447D01*
X022273Y011503D01*
X022211Y011563D01*
X022151Y011625D01*
X022095Y011690D01*
X022042Y011758D01*
X021993Y011828D01*
X021947Y011900D01*
X021905Y011975D01*
X021866Y012052D01*
X021831Y012130D01*
X021800Y012210D01*
X021773Y012292D01*
X021750Y012375D01*
X021732Y012459D01*
X021717Y012543D01*
X021706Y012628D01*
X021700Y012714D01*
X021698Y012800D01*
X016448Y012800D02*
X016450Y012886D01*
X016456Y012972D01*
X016467Y013057D01*
X016482Y013141D01*
X016500Y013225D01*
X016523Y013308D01*
X016550Y013390D01*
X016581Y013470D01*
X016616Y013548D01*
X016655Y013625D01*
X016697Y013700D01*
X016743Y013772D01*
X016792Y013842D01*
X016845Y013910D01*
X016901Y013975D01*
X016961Y014037D01*
X017023Y014097D01*
X017088Y014153D01*
X017156Y014206D01*
X017226Y014255D01*
X017298Y014301D01*
X017373Y014343D01*
X017450Y014382D01*
X017528Y014417D01*
X017608Y014448D01*
X017690Y014475D01*
X017773Y014498D01*
X017857Y014516D01*
X017941Y014531D01*
X018026Y014542D01*
X018112Y014548D01*
X018198Y014550D01*
X018284Y014548D01*
X018370Y014542D01*
X018455Y014531D01*
X018539Y014516D01*
X018623Y014498D01*
X018706Y014475D01*
X018788Y014448D01*
X018868Y014417D01*
X018946Y014382D01*
X019023Y014343D01*
X019098Y014301D01*
X019170Y014255D01*
X019240Y014206D01*
X019308Y014153D01*
X019373Y014097D01*
X019435Y014037D01*
X019495Y013975D01*
X019551Y013910D01*
X019604Y013842D01*
X019653Y013772D01*
X019699Y013700D01*
X019741Y013625D01*
X019780Y013548D01*
X019815Y013470D01*
X019846Y013390D01*
X019873Y013308D01*
X019896Y013225D01*
X019914Y013141D01*
X019929Y013057D01*
X019940Y012972D01*
X019946Y012886D01*
X019948Y012800D01*
X019946Y012714D01*
X019940Y012628D01*
X019929Y012543D01*
X019914Y012459D01*
X019896Y012375D01*
X019873Y012292D01*
X019846Y012210D01*
X019815Y012130D01*
X019780Y012052D01*
X019741Y011975D01*
X019699Y011900D01*
X019653Y011828D01*
X019604Y011758D01*
X019551Y011690D01*
X019495Y011625D01*
X019435Y011563D01*
X019373Y011503D01*
X019308Y011447D01*
X019240Y011394D01*
X019170Y011345D01*
X019098Y011299D01*
X019023Y011257D01*
X018946Y011218D01*
X018868Y011183D01*
X018788Y011152D01*
X018706Y011125D01*
X018623Y011102D01*
X018539Y011084D01*
X018455Y011069D01*
X018370Y011058D01*
X018284Y011052D01*
X018198Y011050D01*
X018112Y011052D01*
X018026Y011058D01*
X017941Y011069D01*
X017857Y011084D01*
X017773Y011102D01*
X017690Y011125D01*
X017608Y011152D01*
X017528Y011183D01*
X017450Y011218D01*
X017373Y011257D01*
X017298Y011299D01*
X017226Y011345D01*
X017156Y011394D01*
X017088Y011447D01*
X017023Y011503D01*
X016961Y011563D01*
X016901Y011625D01*
X016845Y011690D01*
X016792Y011758D01*
X016743Y011828D01*
X016697Y011900D01*
X016655Y011975D01*
X016616Y012052D01*
X016581Y012130D01*
X016550Y012210D01*
X016523Y012292D01*
X016500Y012375D01*
X016482Y012459D01*
X016467Y012543D01*
X016456Y012628D01*
X016450Y012714D01*
X016448Y012800D01*
D11*
X016660Y008839D03*
X018314Y008839D03*
X019968Y008839D03*
X021621Y008839D03*
X023275Y008839D03*
X024928Y008839D03*
X026582Y008839D03*
X028235Y008839D03*
X029889Y008839D03*
X031542Y008839D03*
X031542Y006674D03*
X029889Y006674D03*
X028235Y006674D03*
X026582Y006674D03*
X024928Y006674D03*
X023275Y006674D03*
X021621Y006674D03*
X019968Y006674D03*
X018314Y006674D03*
X016660Y006674D03*
X015007Y006674D03*
X013353Y006674D03*
X013353Y008839D03*
X015007Y008839D03*
D12*
X011448Y007300D03*
X010448Y007300D03*
X008948Y009550D03*
X008948Y004550D03*
D13*
X008448Y012800D03*
X012948Y012800D03*
X018198Y012800D03*
X023448Y012800D03*
X027948Y012800D03*
D14*
X006948Y008600D03*
X006948Y008000D03*
D15*
X005440Y007875D03*
X004357Y007875D03*
X004357Y006300D03*
X005440Y006300D03*
X005440Y004725D03*
X004357Y004725D03*
D16*
X015007Y008839D02*
X015007Y009609D01*
X018198Y012800D01*
X018314Y012684D01*
X018314Y011800D01*
X016660Y010146D01*
X016660Y008839D01*
X018314Y008839D02*
X018314Y011800D01*
X023448Y011800D02*
X024448Y010800D01*
X030448Y010800D01*
X031448Y009800D01*
X031448Y006769D01*
X031542Y006674D01*
X029889Y006674D01*
X023448Y011800D02*
X023448Y012800D01*
M02*
