G75*
G70*
%OFA0B0*%
%FSLAX24Y24*%
%IPPOS*%
%LPD*%
%AMOC8*
5,1,8,0,0,1.08239X$1,22.5*
%
%ADD10C,0.0100*%
%ADD11C,0.0080*%
%ADD12C,0.0050*%
D10*
X012251Y001202D02*
X032645Y001202D01*
X032645Y006139D01*
X031897Y006139D01*
X031109Y006139D02*
X030322Y006139D01*
X029456Y006139D02*
X028668Y006139D01*
X027802Y006139D02*
X027015Y006139D01*
X026149Y006139D02*
X025361Y006139D01*
X024495Y006139D02*
X023708Y006139D01*
X022842Y006139D02*
X022054Y006139D01*
X021188Y006139D02*
X020401Y006139D01*
X019534Y006139D02*
X018747Y006139D01*
X017920Y006139D02*
X017133Y006139D01*
X016227Y006139D02*
X015440Y006139D01*
X014574Y006139D02*
X013786Y006139D01*
X012999Y006139D02*
X012251Y006139D01*
X012251Y001202D01*
X021779Y001257D02*
X021779Y002438D01*
X021779Y002044D01*
X023117Y002044D01*
X023117Y002438D01*
X021779Y002438D01*
X023117Y002438D01*
X023117Y001257D01*
X023117Y002110D02*
X021779Y002110D01*
X021779Y002209D02*
X023117Y002209D01*
X023117Y002307D02*
X021779Y002307D01*
X021779Y002406D02*
X023117Y002406D01*
D11*
X009597Y005278D02*
X009597Y008822D01*
X008298Y008822D01*
X008298Y005278D01*
X009597Y005278D01*
D12*
X003668Y003583D02*
X003668Y009017D01*
X006227Y009017D01*
X006227Y003583D01*
X003668Y003583D01*
X008803Y005770D02*
X008803Y005860D01*
X008848Y005905D01*
X008893Y005905D01*
X008938Y005860D01*
X008983Y005905D01*
X009028Y005905D01*
X009073Y005860D01*
X009073Y005770D01*
X009028Y005725D01*
X008938Y005815D02*
X008938Y005860D01*
X008848Y005725D02*
X008803Y005770D01*
X008848Y006020D02*
X008803Y006065D01*
X008803Y006155D01*
X008848Y006200D01*
X008893Y006200D01*
X008938Y006155D01*
X008983Y006200D01*
X009028Y006200D01*
X009073Y006155D01*
X009073Y006065D01*
X009028Y006020D01*
X008938Y006110D02*
X008938Y006155D01*
X009028Y006314D02*
X008848Y006494D01*
X009028Y006494D01*
X009073Y006449D01*
X009073Y006359D01*
X009028Y006314D01*
X008848Y006314D01*
X008803Y006359D01*
X008803Y006449D01*
X008848Y006494D01*
X007330Y012800D02*
X007332Y012866D01*
X007338Y012932D01*
X007348Y012998D01*
X007361Y013063D01*
X007379Y013127D01*
X007400Y013189D01*
X007425Y013251D01*
X007453Y013311D01*
X007485Y013369D01*
X007521Y013425D01*
X007559Y013478D01*
X007601Y013530D01*
X007646Y013579D01*
X007693Y013625D01*
X007744Y013668D01*
X007796Y013708D01*
X007851Y013745D01*
X007908Y013779D01*
X007967Y013809D01*
X008028Y013836D01*
X008090Y013859D01*
X008153Y013878D01*
X008218Y013894D01*
X008283Y013906D01*
X008349Y013914D01*
X008415Y013918D01*
X008481Y013918D01*
X008547Y013914D01*
X008613Y013906D01*
X008678Y013894D01*
X008743Y013878D01*
X008806Y013859D01*
X008868Y013836D01*
X008929Y013809D01*
X008988Y013779D01*
X009045Y013745D01*
X009100Y013708D01*
X009152Y013668D01*
X009203Y013625D01*
X009250Y013579D01*
X009295Y013530D01*
X009337Y013478D01*
X009375Y013425D01*
X009411Y013369D01*
X009443Y013311D01*
X009471Y013251D01*
X009496Y013189D01*
X009517Y013127D01*
X009535Y013063D01*
X009548Y012998D01*
X009558Y012932D01*
X009564Y012866D01*
X009566Y012800D01*
X009564Y012734D01*
X009558Y012668D01*
X009548Y012602D01*
X009535Y012537D01*
X009517Y012473D01*
X009496Y012411D01*
X009471Y012349D01*
X009443Y012289D01*
X009411Y012231D01*
X009375Y012175D01*
X009337Y012122D01*
X009295Y012070D01*
X009250Y012021D01*
X009203Y011975D01*
X009152Y011932D01*
X009100Y011892D01*
X009045Y011855D01*
X008988Y011821D01*
X008929Y011791D01*
X008868Y011764D01*
X008806Y011741D01*
X008743Y011722D01*
X008678Y011706D01*
X008613Y011694D01*
X008547Y011686D01*
X008481Y011682D01*
X008415Y011682D01*
X008349Y011686D01*
X008283Y011694D01*
X008218Y011706D01*
X008153Y011722D01*
X008090Y011741D01*
X008028Y011764D01*
X007967Y011791D01*
X007908Y011821D01*
X007851Y011855D01*
X007796Y011892D01*
X007744Y011932D01*
X007693Y011975D01*
X007646Y012021D01*
X007601Y012070D01*
X007559Y012122D01*
X007521Y012175D01*
X007485Y012231D01*
X007453Y012289D01*
X007425Y012349D01*
X007400Y012411D01*
X007379Y012473D01*
X007361Y012537D01*
X007348Y012602D01*
X007338Y012668D01*
X007332Y012734D01*
X007330Y012800D01*
X011830Y012800D02*
X011832Y012866D01*
X011838Y012932D01*
X011848Y012998D01*
X011861Y013063D01*
X011879Y013127D01*
X011900Y013189D01*
X011925Y013251D01*
X011953Y013311D01*
X011985Y013369D01*
X012021Y013425D01*
X012059Y013478D01*
X012101Y013530D01*
X012146Y013579D01*
X012193Y013625D01*
X012244Y013668D01*
X012296Y013708D01*
X012351Y013745D01*
X012408Y013779D01*
X012467Y013809D01*
X012528Y013836D01*
X012590Y013859D01*
X012653Y013878D01*
X012718Y013894D01*
X012783Y013906D01*
X012849Y013914D01*
X012915Y013918D01*
X012981Y013918D01*
X013047Y013914D01*
X013113Y013906D01*
X013178Y013894D01*
X013243Y013878D01*
X013306Y013859D01*
X013368Y013836D01*
X013429Y013809D01*
X013488Y013779D01*
X013545Y013745D01*
X013600Y013708D01*
X013652Y013668D01*
X013703Y013625D01*
X013750Y013579D01*
X013795Y013530D01*
X013837Y013478D01*
X013875Y013425D01*
X013911Y013369D01*
X013943Y013311D01*
X013971Y013251D01*
X013996Y013189D01*
X014017Y013127D01*
X014035Y013063D01*
X014048Y012998D01*
X014058Y012932D01*
X014064Y012866D01*
X014066Y012800D01*
X014064Y012734D01*
X014058Y012668D01*
X014048Y012602D01*
X014035Y012537D01*
X014017Y012473D01*
X013996Y012411D01*
X013971Y012349D01*
X013943Y012289D01*
X013911Y012231D01*
X013875Y012175D01*
X013837Y012122D01*
X013795Y012070D01*
X013750Y012021D01*
X013703Y011975D01*
X013652Y011932D01*
X013600Y011892D01*
X013545Y011855D01*
X013488Y011821D01*
X013429Y011791D01*
X013368Y011764D01*
X013306Y011741D01*
X013243Y011722D01*
X013178Y011706D01*
X013113Y011694D01*
X013047Y011686D01*
X012981Y011682D01*
X012915Y011682D01*
X012849Y011686D01*
X012783Y011694D01*
X012718Y011706D01*
X012653Y011722D01*
X012590Y011741D01*
X012528Y011764D01*
X012467Y011791D01*
X012408Y011821D01*
X012351Y011855D01*
X012296Y011892D01*
X012244Y011932D01*
X012193Y011975D01*
X012146Y012021D01*
X012101Y012070D01*
X012059Y012122D01*
X012021Y012175D01*
X011985Y012231D01*
X011953Y012289D01*
X011925Y012349D01*
X011900Y012411D01*
X011879Y012473D01*
X011861Y012537D01*
X011848Y012602D01*
X011838Y012668D01*
X011832Y012734D01*
X011830Y012800D01*
X017080Y012800D02*
X017082Y012866D01*
X017088Y012932D01*
X017098Y012998D01*
X017111Y013063D01*
X017129Y013127D01*
X017150Y013189D01*
X017175Y013251D01*
X017203Y013311D01*
X017235Y013369D01*
X017271Y013425D01*
X017309Y013478D01*
X017351Y013530D01*
X017396Y013579D01*
X017443Y013625D01*
X017494Y013668D01*
X017546Y013708D01*
X017601Y013745D01*
X017658Y013779D01*
X017717Y013809D01*
X017778Y013836D01*
X017840Y013859D01*
X017903Y013878D01*
X017968Y013894D01*
X018033Y013906D01*
X018099Y013914D01*
X018165Y013918D01*
X018231Y013918D01*
X018297Y013914D01*
X018363Y013906D01*
X018428Y013894D01*
X018493Y013878D01*
X018556Y013859D01*
X018618Y013836D01*
X018679Y013809D01*
X018738Y013779D01*
X018795Y013745D01*
X018850Y013708D01*
X018902Y013668D01*
X018953Y013625D01*
X019000Y013579D01*
X019045Y013530D01*
X019087Y013478D01*
X019125Y013425D01*
X019161Y013369D01*
X019193Y013311D01*
X019221Y013251D01*
X019246Y013189D01*
X019267Y013127D01*
X019285Y013063D01*
X019298Y012998D01*
X019308Y012932D01*
X019314Y012866D01*
X019316Y012800D01*
X019314Y012734D01*
X019308Y012668D01*
X019298Y012602D01*
X019285Y012537D01*
X019267Y012473D01*
X019246Y012411D01*
X019221Y012349D01*
X019193Y012289D01*
X019161Y012231D01*
X019125Y012175D01*
X019087Y012122D01*
X019045Y012070D01*
X019000Y012021D01*
X018953Y011975D01*
X018902Y011932D01*
X018850Y011892D01*
X018795Y011855D01*
X018738Y011821D01*
X018679Y011791D01*
X018618Y011764D01*
X018556Y011741D01*
X018493Y011722D01*
X018428Y011706D01*
X018363Y011694D01*
X018297Y011686D01*
X018231Y011682D01*
X018165Y011682D01*
X018099Y011686D01*
X018033Y011694D01*
X017968Y011706D01*
X017903Y011722D01*
X017840Y011741D01*
X017778Y011764D01*
X017717Y011791D01*
X017658Y011821D01*
X017601Y011855D01*
X017546Y011892D01*
X017494Y011932D01*
X017443Y011975D01*
X017396Y012021D01*
X017351Y012070D01*
X017309Y012122D01*
X017271Y012175D01*
X017235Y012231D01*
X017203Y012289D01*
X017175Y012349D01*
X017150Y012411D01*
X017129Y012473D01*
X017111Y012537D01*
X017098Y012602D01*
X017088Y012668D01*
X017082Y012734D01*
X017080Y012800D01*
X022330Y012800D02*
X022332Y012866D01*
X022338Y012932D01*
X022348Y012998D01*
X022361Y013063D01*
X022379Y013127D01*
X022400Y013189D01*
X022425Y013251D01*
X022453Y013311D01*
X022485Y013369D01*
X022521Y013425D01*
X022559Y013478D01*
X022601Y013530D01*
X022646Y013579D01*
X022693Y013625D01*
X022744Y013668D01*
X022796Y013708D01*
X022851Y013745D01*
X022908Y013779D01*
X022967Y013809D01*
X023028Y013836D01*
X023090Y013859D01*
X023153Y013878D01*
X023218Y013894D01*
X023283Y013906D01*
X023349Y013914D01*
X023415Y013918D01*
X023481Y013918D01*
X023547Y013914D01*
X023613Y013906D01*
X023678Y013894D01*
X023743Y013878D01*
X023806Y013859D01*
X023868Y013836D01*
X023929Y013809D01*
X023988Y013779D01*
X024045Y013745D01*
X024100Y013708D01*
X024152Y013668D01*
X024203Y013625D01*
X024250Y013579D01*
X024295Y013530D01*
X024337Y013478D01*
X024375Y013425D01*
X024411Y013369D01*
X024443Y013311D01*
X024471Y013251D01*
X024496Y013189D01*
X024517Y013127D01*
X024535Y013063D01*
X024548Y012998D01*
X024558Y012932D01*
X024564Y012866D01*
X024566Y012800D01*
X024564Y012734D01*
X024558Y012668D01*
X024548Y012602D01*
X024535Y012537D01*
X024517Y012473D01*
X024496Y012411D01*
X024471Y012349D01*
X024443Y012289D01*
X024411Y012231D01*
X024375Y012175D01*
X024337Y012122D01*
X024295Y012070D01*
X024250Y012021D01*
X024203Y011975D01*
X024152Y011932D01*
X024100Y011892D01*
X024045Y011855D01*
X023988Y011821D01*
X023929Y011791D01*
X023868Y011764D01*
X023806Y011741D01*
X023743Y011722D01*
X023678Y011706D01*
X023613Y011694D01*
X023547Y011686D01*
X023481Y011682D01*
X023415Y011682D01*
X023349Y011686D01*
X023283Y011694D01*
X023218Y011706D01*
X023153Y011722D01*
X023090Y011741D01*
X023028Y011764D01*
X022967Y011791D01*
X022908Y011821D01*
X022851Y011855D01*
X022796Y011892D01*
X022744Y011932D01*
X022693Y011975D01*
X022646Y012021D01*
X022601Y012070D01*
X022559Y012122D01*
X022521Y012175D01*
X022485Y012231D01*
X022453Y012289D01*
X022425Y012349D01*
X022400Y012411D01*
X022379Y012473D01*
X022361Y012537D01*
X022348Y012602D01*
X022338Y012668D01*
X022332Y012734D01*
X022330Y012800D01*
X026830Y012800D02*
X026832Y012866D01*
X026838Y012932D01*
X026848Y012998D01*
X026861Y013063D01*
X026879Y013127D01*
X026900Y013189D01*
X026925Y013251D01*
X026953Y013311D01*
X026985Y013369D01*
X027021Y013425D01*
X027059Y013478D01*
X027101Y013530D01*
X027146Y013579D01*
X027193Y013625D01*
X027244Y013668D01*
X027296Y013708D01*
X027351Y013745D01*
X027408Y013779D01*
X027467Y013809D01*
X027528Y013836D01*
X027590Y013859D01*
X027653Y013878D01*
X027718Y013894D01*
X027783Y013906D01*
X027849Y013914D01*
X027915Y013918D01*
X027981Y013918D01*
X028047Y013914D01*
X028113Y013906D01*
X028178Y013894D01*
X028243Y013878D01*
X028306Y013859D01*
X028368Y013836D01*
X028429Y013809D01*
X028488Y013779D01*
X028545Y013745D01*
X028600Y013708D01*
X028652Y013668D01*
X028703Y013625D01*
X028750Y013579D01*
X028795Y013530D01*
X028837Y013478D01*
X028875Y013425D01*
X028911Y013369D01*
X028943Y013311D01*
X028971Y013251D01*
X028996Y013189D01*
X029017Y013127D01*
X029035Y013063D01*
X029048Y012998D01*
X029058Y012932D01*
X029064Y012866D01*
X029066Y012800D01*
X029064Y012734D01*
X029058Y012668D01*
X029048Y012602D01*
X029035Y012537D01*
X029017Y012473D01*
X028996Y012411D01*
X028971Y012349D01*
X028943Y012289D01*
X028911Y012231D01*
X028875Y012175D01*
X028837Y012122D01*
X028795Y012070D01*
X028750Y012021D01*
X028703Y011975D01*
X028652Y011932D01*
X028600Y011892D01*
X028545Y011855D01*
X028488Y011821D01*
X028429Y011791D01*
X028368Y011764D01*
X028306Y011741D01*
X028243Y011722D01*
X028178Y011706D01*
X028113Y011694D01*
X028047Y011686D01*
X027981Y011682D01*
X027915Y011682D01*
X027849Y011686D01*
X027783Y011694D01*
X027718Y011706D01*
X027653Y011722D01*
X027590Y011741D01*
X027528Y011764D01*
X027467Y011791D01*
X027408Y011821D01*
X027351Y011855D01*
X027296Y011892D01*
X027244Y011932D01*
X027193Y011975D01*
X027146Y012021D01*
X027101Y012070D01*
X027059Y012122D01*
X027021Y012175D01*
X026985Y012231D01*
X026953Y012289D01*
X026925Y012349D01*
X026900Y012411D01*
X026879Y012473D01*
X026861Y012537D01*
X026848Y012602D01*
X026838Y012668D01*
X026832Y012734D01*
X026830Y012800D01*
M02*
