G75*
G70*
%OFA0B0*%
%FSLAX24Y24*%
%IPPOS*%
%LPD*%
%AMOC8*
5,1,8,0,0,1.08239X$1,22.5*
%
%ADD10C,0.0080*%
%ADD11C,0.0010*%
%ADD12C,0.0060*%
D10*
X011948Y006550D02*
X011948Y008050D01*
D11*
X011980Y008080D02*
X011908Y008026D01*
X011909Y008027D02*
X011866Y008080D01*
X011821Y008131D01*
X011772Y008179D01*
X011721Y008224D01*
X011667Y008267D01*
X011611Y008306D01*
X011553Y008342D01*
X011493Y008375D01*
X011432Y008404D01*
X011368Y008429D01*
X011304Y008451D01*
X011238Y008470D01*
X011171Y008484D01*
X011104Y008495D01*
X011036Y008502D01*
X010968Y008505D01*
X010899Y008504D01*
X010831Y008499D01*
X010763Y008491D01*
X010696Y008478D01*
X010630Y008462D01*
X010565Y008442D01*
X010500Y008419D01*
X010438Y008392D01*
X010377Y008361D01*
X010318Y008327D01*
X010260Y008290D01*
X010205Y008249D01*
X010153Y008205D01*
X010103Y008159D01*
X010056Y008110D01*
X010011Y008058D01*
X009970Y008004D01*
X009931Y007947D01*
X009896Y007888D01*
X009865Y007828D01*
X009837Y007766D01*
X009812Y007702D01*
X009791Y007637D01*
X009774Y007571D01*
X009760Y007504D01*
X009751Y007436D01*
X009745Y007368D01*
X009743Y007300D01*
X009745Y007232D01*
X009751Y007164D01*
X009760Y007096D01*
X009774Y007029D01*
X009791Y006963D01*
X009812Y006898D01*
X009837Y006834D01*
X009865Y006772D01*
X009896Y006712D01*
X009931Y006653D01*
X009970Y006596D01*
X010011Y006542D01*
X010056Y006490D01*
X010103Y006441D01*
X010153Y006395D01*
X010205Y006351D01*
X010260Y006310D01*
X010318Y006273D01*
X010377Y006239D01*
X010438Y006208D01*
X010500Y006181D01*
X010565Y006158D01*
X010630Y006138D01*
X010696Y006122D01*
X010763Y006109D01*
X010831Y006101D01*
X010899Y006096D01*
X010968Y006095D01*
X011036Y006098D01*
X011104Y006105D01*
X011171Y006116D01*
X011238Y006130D01*
X011304Y006149D01*
X011368Y006171D01*
X011432Y006196D01*
X011493Y006225D01*
X011553Y006258D01*
X011611Y006294D01*
X011667Y006333D01*
X011721Y006376D01*
X011772Y006421D01*
X011821Y006469D01*
X011866Y006520D01*
X011909Y006573D01*
X011980Y006520D01*
X011981Y006519D01*
X011937Y006464D01*
X011889Y006411D01*
X011839Y006360D01*
X011786Y006313D01*
X011731Y006269D01*
X011673Y006227D01*
X011613Y006189D01*
X011552Y006154D01*
X011488Y006123D01*
X011423Y006095D01*
X011356Y006071D01*
X011288Y006050D01*
X011219Y006034D01*
X011149Y006021D01*
X011079Y006012D01*
X011008Y006006D01*
X010937Y006005D01*
X010866Y006008D01*
X010795Y006014D01*
X010725Y006024D01*
X010656Y006038D01*
X010587Y006056D01*
X010519Y006078D01*
X010453Y006103D01*
X010388Y006132D01*
X010325Y006165D01*
X010264Y006201D01*
X010205Y006240D01*
X010148Y006282D01*
X010093Y006327D01*
X010041Y006376D01*
X009992Y006427D01*
X009945Y006480D01*
X009902Y006537D01*
X009862Y006595D01*
X009825Y006656D01*
X009791Y006718D01*
X009761Y006782D01*
X009734Y006848D01*
X009711Y006915D01*
X009692Y006984D01*
X009677Y007053D01*
X009665Y007123D01*
X009657Y007194D01*
X009653Y007265D01*
X009653Y007335D01*
X009657Y007406D01*
X009665Y007477D01*
X009677Y007547D01*
X009692Y007616D01*
X009711Y007685D01*
X009734Y007752D01*
X009761Y007818D01*
X009791Y007882D01*
X009825Y007944D01*
X009862Y008005D01*
X009902Y008063D01*
X009945Y008120D01*
X009992Y008173D01*
X010041Y008224D01*
X010093Y008273D01*
X010148Y008318D01*
X010205Y008360D01*
X010264Y008399D01*
X010325Y008435D01*
X010388Y008468D01*
X010453Y008497D01*
X010519Y008522D01*
X010587Y008544D01*
X010656Y008562D01*
X010725Y008576D01*
X010795Y008586D01*
X010866Y008592D01*
X010937Y008595D01*
X011008Y008594D01*
X011079Y008588D01*
X011149Y008579D01*
X011219Y008566D01*
X011288Y008550D01*
X011356Y008529D01*
X011423Y008505D01*
X011488Y008477D01*
X011552Y008446D01*
X011613Y008411D01*
X011673Y008373D01*
X011731Y008331D01*
X011786Y008287D01*
X011839Y008240D01*
X011889Y008189D01*
X011937Y008136D01*
X011981Y008081D01*
X011974Y008076D01*
X011929Y008131D01*
X011882Y008184D01*
X011831Y008235D01*
X011778Y008282D01*
X011722Y008327D01*
X011664Y008368D01*
X011604Y008406D01*
X011542Y008441D01*
X011478Y008472D01*
X011412Y008499D01*
X011345Y008523D01*
X011276Y008543D01*
X011207Y008560D01*
X011137Y008572D01*
X011066Y008581D01*
X010995Y008585D01*
X010924Y008586D01*
X010853Y008582D01*
X010782Y008575D01*
X010711Y008564D01*
X010642Y008549D01*
X010573Y008530D01*
X010505Y008507D01*
X010439Y008481D01*
X010374Y008451D01*
X010312Y008417D01*
X010251Y008381D01*
X010192Y008340D01*
X010135Y008297D01*
X010081Y008250D01*
X010030Y008201D01*
X009982Y008148D01*
X009936Y008094D01*
X009894Y008036D01*
X009855Y007977D01*
X009819Y007915D01*
X009786Y007852D01*
X009758Y007787D01*
X009732Y007720D01*
X009711Y007652D01*
X009693Y007583D01*
X009680Y007513D01*
X009670Y007442D01*
X009664Y007371D01*
X009662Y007300D01*
X009664Y007229D01*
X009670Y007158D01*
X009680Y007087D01*
X009693Y007017D01*
X009711Y006948D01*
X009732Y006880D01*
X009758Y006813D01*
X009786Y006748D01*
X009819Y006685D01*
X009855Y006623D01*
X009894Y006564D01*
X009936Y006506D01*
X009982Y006452D01*
X010030Y006399D01*
X010081Y006350D01*
X010135Y006303D01*
X010192Y006260D01*
X010251Y006219D01*
X010312Y006183D01*
X010374Y006149D01*
X010439Y006119D01*
X010505Y006093D01*
X010573Y006070D01*
X010642Y006051D01*
X010711Y006036D01*
X010782Y006025D01*
X010853Y006018D01*
X010924Y006014D01*
X010995Y006015D01*
X011066Y006019D01*
X011137Y006028D01*
X011207Y006040D01*
X011276Y006057D01*
X011345Y006077D01*
X011412Y006101D01*
X011478Y006128D01*
X011542Y006159D01*
X011604Y006194D01*
X011664Y006232D01*
X011722Y006273D01*
X011778Y006318D01*
X011831Y006365D01*
X011882Y006416D01*
X011929Y006469D01*
X011974Y006524D01*
X011967Y006530D01*
X011922Y006475D01*
X011875Y006422D01*
X011825Y006372D01*
X011772Y006325D01*
X011717Y006281D01*
X011659Y006239D01*
X011600Y006202D01*
X011538Y006167D01*
X011474Y006136D01*
X011409Y006109D01*
X011342Y006085D01*
X011274Y006065D01*
X011205Y006049D01*
X011136Y006037D01*
X011065Y006028D01*
X010995Y006024D01*
X010924Y006023D01*
X010853Y006027D01*
X010783Y006034D01*
X010713Y006045D01*
X010644Y006060D01*
X010576Y006079D01*
X010508Y006101D01*
X010443Y006127D01*
X010378Y006157D01*
X010316Y006190D01*
X010256Y006227D01*
X010197Y006267D01*
X010141Y006310D01*
X010087Y006356D01*
X010037Y006406D01*
X009988Y006457D01*
X009943Y006512D01*
X009901Y006569D01*
X009862Y006628D01*
X009827Y006689D01*
X009794Y006752D01*
X009766Y006817D01*
X009741Y006883D01*
X009720Y006951D01*
X009702Y007019D01*
X009689Y007089D01*
X009679Y007159D01*
X009673Y007229D01*
X009671Y007300D01*
X009673Y007371D01*
X009679Y007441D01*
X009689Y007511D01*
X009702Y007581D01*
X009720Y007649D01*
X009741Y007717D01*
X009766Y007783D01*
X009794Y007848D01*
X009827Y007911D01*
X009862Y007972D01*
X009901Y008031D01*
X009943Y008088D01*
X009988Y008143D01*
X010037Y008194D01*
X010087Y008244D01*
X010141Y008290D01*
X010197Y008333D01*
X010256Y008373D01*
X010316Y008410D01*
X010378Y008443D01*
X010443Y008473D01*
X010508Y008499D01*
X010576Y008521D01*
X010644Y008540D01*
X010713Y008555D01*
X010783Y008566D01*
X010853Y008573D01*
X010924Y008577D01*
X010995Y008576D01*
X011065Y008572D01*
X011136Y008563D01*
X011205Y008551D01*
X011274Y008535D01*
X011342Y008515D01*
X011409Y008491D01*
X011474Y008464D01*
X011538Y008433D01*
X011600Y008398D01*
X011659Y008361D01*
X011717Y008319D01*
X011772Y008275D01*
X011825Y008228D01*
X011875Y008178D01*
X011922Y008125D01*
X011967Y008070D01*
X011959Y008065D01*
X011915Y008120D01*
X011867Y008173D01*
X011817Y008223D01*
X011764Y008271D01*
X011708Y008315D01*
X011650Y008356D01*
X011590Y008393D01*
X011528Y008428D01*
X011464Y008458D01*
X011398Y008485D01*
X011331Y008509D01*
X011263Y008528D01*
X011193Y008544D01*
X011123Y008556D01*
X011053Y008564D01*
X010982Y008568D01*
X010911Y008567D01*
X010840Y008563D01*
X010769Y008555D01*
X010699Y008543D01*
X010630Y008527D01*
X010562Y008508D01*
X010494Y008484D01*
X010429Y008457D01*
X010365Y008426D01*
X010303Y008392D01*
X010243Y008354D01*
X010185Y008312D01*
X010129Y008268D01*
X010076Y008221D01*
X010026Y008170D01*
X009979Y008117D01*
X009934Y008062D01*
X009893Y008004D01*
X009856Y007944D01*
X009821Y007881D01*
X009790Y007817D01*
X009763Y007752D01*
X009740Y007685D01*
X009720Y007616D01*
X009704Y007547D01*
X009692Y007477D01*
X009684Y007406D01*
X009680Y007336D01*
X009680Y007264D01*
X009684Y007194D01*
X009692Y007123D01*
X009704Y007053D01*
X009720Y006984D01*
X009740Y006915D01*
X009763Y006848D01*
X009790Y006783D01*
X009821Y006719D01*
X009856Y006656D01*
X009893Y006596D01*
X009934Y006538D01*
X009979Y006483D01*
X010026Y006430D01*
X010076Y006379D01*
X010129Y006332D01*
X010185Y006288D01*
X010243Y006246D01*
X010303Y006208D01*
X010365Y006174D01*
X010429Y006143D01*
X010494Y006116D01*
X010562Y006092D01*
X010630Y006073D01*
X010699Y006057D01*
X010769Y006045D01*
X010840Y006037D01*
X010911Y006033D01*
X010982Y006032D01*
X011053Y006036D01*
X011123Y006044D01*
X011193Y006056D01*
X011263Y006072D01*
X011331Y006091D01*
X011398Y006115D01*
X011464Y006142D01*
X011528Y006172D01*
X011590Y006207D01*
X011650Y006244D01*
X011708Y006285D01*
X011764Y006329D01*
X011817Y006377D01*
X011867Y006427D01*
X011915Y006480D01*
X011959Y006535D01*
X011952Y006541D01*
X011908Y006486D01*
X011861Y006433D01*
X011811Y006383D01*
X011758Y006336D01*
X011703Y006292D01*
X011645Y006252D01*
X011586Y006214D01*
X011524Y006180D01*
X011460Y006150D01*
X011395Y006123D01*
X011328Y006100D01*
X011260Y006080D01*
X011192Y006065D01*
X011122Y006053D01*
X011052Y006045D01*
X010981Y006041D01*
X010911Y006042D01*
X010840Y006046D01*
X010770Y006054D01*
X010701Y006066D01*
X010632Y006081D01*
X010564Y006101D01*
X010498Y006124D01*
X010433Y006151D01*
X010369Y006182D01*
X010307Y006216D01*
X010248Y006254D01*
X010190Y006295D01*
X010135Y006339D01*
X010082Y006386D01*
X010033Y006436D01*
X009986Y006488D01*
X009942Y006544D01*
X009901Y006601D01*
X009863Y006661D01*
X009829Y006723D01*
X009799Y006786D01*
X009772Y006851D01*
X009748Y006918D01*
X009729Y006986D01*
X009713Y007055D01*
X009701Y007124D01*
X009693Y007194D01*
X009689Y007265D01*
X009689Y007335D01*
X009693Y007406D01*
X009701Y007476D01*
X009713Y007545D01*
X009729Y007614D01*
X009748Y007682D01*
X009772Y007749D01*
X009799Y007814D01*
X009829Y007877D01*
X009863Y007939D01*
X009901Y007999D01*
X009942Y008056D01*
X009986Y008112D01*
X010033Y008164D01*
X010082Y008214D01*
X010135Y008261D01*
X010190Y008305D01*
X010248Y008346D01*
X010307Y008384D01*
X010369Y008418D01*
X010433Y008449D01*
X010498Y008476D01*
X010564Y008499D01*
X010632Y008519D01*
X010701Y008534D01*
X010770Y008546D01*
X010840Y008554D01*
X010911Y008558D01*
X010981Y008559D01*
X011052Y008555D01*
X011122Y008547D01*
X011192Y008535D01*
X011260Y008520D01*
X011328Y008500D01*
X011395Y008477D01*
X011460Y008450D01*
X011524Y008420D01*
X011586Y008386D01*
X011645Y008348D01*
X011703Y008308D01*
X011758Y008264D01*
X011811Y008217D01*
X011861Y008167D01*
X011908Y008114D01*
X011952Y008059D01*
X011945Y008054D01*
X011901Y008109D01*
X011854Y008161D01*
X011805Y008210D01*
X011752Y008257D01*
X011698Y008300D01*
X011640Y008341D01*
X011581Y008378D01*
X011520Y008412D01*
X011456Y008442D01*
X011392Y008469D01*
X011325Y008492D01*
X011258Y008511D01*
X011190Y008526D01*
X011121Y008538D01*
X011051Y008546D01*
X010981Y008550D01*
X010911Y008549D01*
X010841Y008545D01*
X010772Y008537D01*
X010703Y008526D01*
X010634Y008510D01*
X010567Y008491D01*
X010501Y008467D01*
X010436Y008440D01*
X010373Y008410D01*
X010312Y008376D01*
X010253Y008339D01*
X010195Y008298D01*
X010141Y008254D01*
X010089Y008208D01*
X010039Y008158D01*
X009992Y008106D01*
X009949Y008051D01*
X009908Y007994D01*
X009871Y007935D01*
X009837Y007873D01*
X009807Y007810D01*
X009780Y007745D01*
X009757Y007679D01*
X009738Y007612D01*
X009722Y007544D01*
X009710Y007475D01*
X009702Y007405D01*
X009698Y007335D01*
X009698Y007265D01*
X009702Y007195D01*
X009710Y007125D01*
X009722Y007056D01*
X009738Y006988D01*
X009757Y006921D01*
X009780Y006855D01*
X009807Y006790D01*
X009837Y006727D01*
X009871Y006665D01*
X009908Y006606D01*
X009949Y006549D01*
X009992Y006494D01*
X010039Y006442D01*
X010089Y006392D01*
X010141Y006346D01*
X010195Y006302D01*
X010253Y006261D01*
X010312Y006224D01*
X010373Y006190D01*
X010436Y006160D01*
X010501Y006133D01*
X010567Y006109D01*
X010634Y006090D01*
X010703Y006074D01*
X010772Y006063D01*
X010841Y006055D01*
X010911Y006051D01*
X010981Y006050D01*
X011051Y006054D01*
X011121Y006062D01*
X011190Y006074D01*
X011258Y006089D01*
X011325Y006108D01*
X011392Y006131D01*
X011456Y006158D01*
X011520Y006188D01*
X011581Y006222D01*
X011640Y006259D01*
X011698Y006300D01*
X011752Y006343D01*
X011805Y006390D01*
X011854Y006439D01*
X011901Y006491D01*
X011945Y006546D01*
X011938Y006551D01*
X011894Y006497D01*
X011848Y006445D01*
X011799Y006396D01*
X011747Y006350D01*
X011692Y006307D01*
X011635Y006267D01*
X011576Y006230D01*
X011515Y006196D01*
X011453Y006166D01*
X011388Y006140D01*
X011323Y006117D01*
X011256Y006098D01*
X011188Y006082D01*
X011119Y006071D01*
X011050Y006063D01*
X010981Y006059D01*
X010911Y006060D01*
X010842Y006064D01*
X010773Y006071D01*
X010704Y006083D01*
X010637Y006099D01*
X010570Y006118D01*
X010504Y006141D01*
X010440Y006168D01*
X010377Y006198D01*
X010316Y006232D01*
X010258Y006269D01*
X010201Y006309D01*
X010147Y006352D01*
X010095Y006399D01*
X010046Y006448D01*
X009999Y006500D01*
X009956Y006554D01*
X009916Y006611D01*
X009879Y006670D01*
X009845Y006731D01*
X009815Y006794D01*
X009788Y006858D01*
X009765Y006923D01*
X009746Y006990D01*
X009731Y007058D01*
X009719Y007127D01*
X009711Y007196D01*
X009707Y007265D01*
X009707Y007335D01*
X009711Y007404D01*
X009719Y007473D01*
X009731Y007542D01*
X009746Y007610D01*
X009765Y007677D01*
X009788Y007742D01*
X009815Y007806D01*
X009845Y007869D01*
X009879Y007930D01*
X009916Y007989D01*
X009956Y008046D01*
X009999Y008100D01*
X010046Y008152D01*
X010095Y008201D01*
X010147Y008248D01*
X010201Y008291D01*
X010258Y008331D01*
X010316Y008368D01*
X010377Y008402D01*
X010440Y008432D01*
X010504Y008459D01*
X010570Y008482D01*
X010637Y008501D01*
X010704Y008517D01*
X010773Y008529D01*
X010842Y008536D01*
X010911Y008540D01*
X010981Y008541D01*
X011050Y008537D01*
X011119Y008529D01*
X011188Y008518D01*
X011256Y008502D01*
X011323Y008483D01*
X011388Y008460D01*
X011453Y008434D01*
X011515Y008404D01*
X011576Y008370D01*
X011635Y008333D01*
X011692Y008293D01*
X011747Y008250D01*
X011799Y008204D01*
X011848Y008155D01*
X011894Y008103D01*
X011938Y008049D01*
X011931Y008043D01*
X011887Y008097D01*
X011841Y008148D01*
X011792Y008197D01*
X011741Y008243D01*
X011687Y008286D01*
X011630Y008326D01*
X011572Y008362D01*
X011511Y008396D01*
X011449Y008426D01*
X011385Y008452D01*
X011320Y008474D01*
X011254Y008493D01*
X011186Y008509D01*
X011118Y008520D01*
X011050Y008528D01*
X010981Y008532D01*
X010912Y008531D01*
X010843Y008527D01*
X010774Y008520D01*
X010706Y008508D01*
X010639Y008493D01*
X010572Y008473D01*
X010507Y008450D01*
X010444Y008424D01*
X010381Y008394D01*
X010321Y008361D01*
X010263Y008324D01*
X010206Y008284D01*
X010152Y008241D01*
X010101Y008195D01*
X010052Y008146D01*
X010006Y008094D01*
X009963Y008040D01*
X009923Y007984D01*
X009887Y007925D01*
X009853Y007865D01*
X009823Y007803D01*
X009797Y007739D01*
X009774Y007674D01*
X009755Y007607D01*
X009740Y007540D01*
X009728Y007472D01*
X009720Y007403D01*
X009716Y007335D01*
X009716Y007265D01*
X009720Y007197D01*
X009728Y007128D01*
X009740Y007060D01*
X009755Y006993D01*
X009774Y006926D01*
X009797Y006861D01*
X009823Y006797D01*
X009853Y006735D01*
X009887Y006675D01*
X009923Y006616D01*
X009963Y006560D01*
X010006Y006506D01*
X010052Y006454D01*
X010101Y006405D01*
X010152Y006359D01*
X010206Y006316D01*
X010263Y006276D01*
X010321Y006239D01*
X010381Y006206D01*
X010444Y006176D01*
X010507Y006150D01*
X010572Y006127D01*
X010639Y006107D01*
X010706Y006092D01*
X010774Y006080D01*
X010843Y006073D01*
X010912Y006069D01*
X010981Y006068D01*
X011050Y006072D01*
X011118Y006080D01*
X011186Y006091D01*
X011254Y006107D01*
X011320Y006126D01*
X011385Y006148D01*
X011449Y006174D01*
X011511Y006204D01*
X011572Y006238D01*
X011630Y006274D01*
X011687Y006314D01*
X011741Y006357D01*
X011792Y006403D01*
X011841Y006452D01*
X011887Y006503D01*
X011931Y006557D01*
X011923Y006562D01*
X011880Y006508D01*
X011834Y006457D01*
X011784Y006408D01*
X011733Y006362D01*
X011678Y006319D01*
X011621Y006279D01*
X011563Y006243D01*
X011502Y006209D01*
X011439Y006180D01*
X011375Y006154D01*
X011309Y006132D01*
X011242Y006113D01*
X011175Y006098D01*
X011106Y006087D01*
X011037Y006080D01*
X010968Y006077D01*
X010899Y006078D01*
X010829Y006083D01*
X010761Y006091D01*
X010693Y006104D01*
X010625Y006120D01*
X010559Y006141D01*
X010494Y006164D01*
X010430Y006192D01*
X010368Y006223D01*
X010308Y006258D01*
X010250Y006296D01*
X010194Y006337D01*
X010141Y006381D01*
X010090Y006428D01*
X010042Y006478D01*
X009997Y006531D01*
X009955Y006586D01*
X009916Y006643D01*
X009881Y006703D01*
X009849Y006764D01*
X009820Y006827D01*
X009795Y006892D01*
X009774Y006958D01*
X009756Y007025D01*
X009743Y007093D01*
X009733Y007162D01*
X009727Y007231D01*
X009725Y007300D01*
X009727Y007369D01*
X009733Y007438D01*
X009743Y007507D01*
X009756Y007575D01*
X009774Y007642D01*
X009795Y007708D01*
X009820Y007773D01*
X009849Y007836D01*
X009881Y007897D01*
X009916Y007957D01*
X009955Y008014D01*
X009997Y008069D01*
X010042Y008122D01*
X010090Y008172D01*
X010141Y008219D01*
X010194Y008263D01*
X010250Y008304D01*
X010308Y008342D01*
X010368Y008377D01*
X010430Y008408D01*
X010494Y008436D01*
X010559Y008459D01*
X010625Y008480D01*
X010693Y008496D01*
X010761Y008509D01*
X010829Y008517D01*
X010899Y008522D01*
X010968Y008523D01*
X011037Y008520D01*
X011106Y008513D01*
X011175Y008502D01*
X011242Y008487D01*
X011309Y008468D01*
X011375Y008446D01*
X011439Y008420D01*
X011502Y008391D01*
X011563Y008357D01*
X011621Y008321D01*
X011678Y008281D01*
X011733Y008238D01*
X011784Y008192D01*
X011834Y008143D01*
X011880Y008092D01*
X011923Y008038D01*
X011916Y008032D01*
X011873Y008086D01*
X011827Y008137D01*
X011778Y008186D01*
X011727Y008231D01*
X011673Y008274D01*
X011616Y008313D01*
X011558Y008350D01*
X011498Y008383D01*
X011435Y008412D01*
X011372Y008438D01*
X011306Y008460D01*
X011240Y008478D01*
X011173Y008493D01*
X011105Y008504D01*
X011036Y008511D01*
X010968Y008514D01*
X010899Y008513D01*
X010830Y008508D01*
X010762Y008500D01*
X010694Y008487D01*
X010628Y008471D01*
X010562Y008451D01*
X010497Y008427D01*
X010434Y008400D01*
X010373Y008369D01*
X010313Y008335D01*
X010255Y008297D01*
X010200Y008256D01*
X010147Y008212D01*
X010097Y008165D01*
X010049Y008116D01*
X010004Y008064D01*
X009962Y008009D01*
X009924Y007952D01*
X009889Y007893D01*
X009857Y007832D01*
X009828Y007769D01*
X009804Y007705D01*
X009782Y007639D01*
X009765Y007573D01*
X009752Y007505D01*
X009742Y007437D01*
X009736Y007369D01*
X009734Y007300D01*
X009736Y007231D01*
X009742Y007163D01*
X009752Y007095D01*
X009765Y007027D01*
X009782Y006961D01*
X009804Y006895D01*
X009828Y006831D01*
X009857Y006768D01*
X009889Y006707D01*
X009924Y006648D01*
X009962Y006591D01*
X010004Y006536D01*
X010049Y006484D01*
X010097Y006435D01*
X010147Y006388D01*
X010200Y006344D01*
X010255Y006303D01*
X010313Y006265D01*
X010373Y006231D01*
X010434Y006200D01*
X010497Y006173D01*
X010562Y006149D01*
X010628Y006129D01*
X010694Y006113D01*
X010762Y006100D01*
X010830Y006092D01*
X010899Y006087D01*
X010968Y006086D01*
X011036Y006089D01*
X011105Y006096D01*
X011173Y006107D01*
X011240Y006122D01*
X011306Y006140D01*
X011372Y006162D01*
X011435Y006188D01*
X011498Y006217D01*
X011558Y006250D01*
X011616Y006287D01*
X011673Y006326D01*
X011727Y006369D01*
X011778Y006414D01*
X011827Y006463D01*
X011873Y006514D01*
X011916Y006568D01*
D12*
X009948Y007300D02*
X009950Y007363D01*
X009956Y007425D01*
X009966Y007487D01*
X009979Y007549D01*
X009997Y007609D01*
X010018Y007668D01*
X010043Y007726D01*
X010072Y007782D01*
X010104Y007836D01*
X010139Y007888D01*
X010177Y007937D01*
X010219Y007985D01*
X010263Y008029D01*
X010311Y008071D01*
X010360Y008109D01*
X010412Y008144D01*
X010466Y008176D01*
X010522Y008205D01*
X010580Y008230D01*
X010639Y008251D01*
X010699Y008269D01*
X010761Y008282D01*
X010823Y008292D01*
X010885Y008298D01*
X010948Y008300D01*
X011011Y008298D01*
X011073Y008292D01*
X011135Y008282D01*
X011197Y008269D01*
X011257Y008251D01*
X011316Y008230D01*
X011374Y008205D01*
X011430Y008176D01*
X011484Y008144D01*
X011536Y008109D01*
X011585Y008071D01*
X011633Y008029D01*
X011677Y007985D01*
X011719Y007937D01*
X011757Y007888D01*
X011792Y007836D01*
X011824Y007782D01*
X011853Y007726D01*
X011878Y007668D01*
X011899Y007609D01*
X011917Y007549D01*
X011930Y007487D01*
X011940Y007425D01*
X011946Y007363D01*
X011948Y007300D01*
X011946Y007237D01*
X011940Y007175D01*
X011930Y007113D01*
X011917Y007051D01*
X011899Y006991D01*
X011878Y006932D01*
X011853Y006874D01*
X011824Y006818D01*
X011792Y006764D01*
X011757Y006712D01*
X011719Y006663D01*
X011677Y006615D01*
X011633Y006571D01*
X011585Y006529D01*
X011536Y006491D01*
X011484Y006456D01*
X011430Y006424D01*
X011374Y006395D01*
X011316Y006370D01*
X011257Y006349D01*
X011197Y006331D01*
X011135Y006318D01*
X011073Y006308D01*
X011011Y006302D01*
X010948Y006300D01*
X010885Y006302D01*
X010823Y006308D01*
X010761Y006318D01*
X010699Y006331D01*
X010639Y006349D01*
X010580Y006370D01*
X010522Y006395D01*
X010466Y006424D01*
X010412Y006456D01*
X010360Y006491D01*
X010311Y006529D01*
X010263Y006571D01*
X010219Y006615D01*
X010177Y006663D01*
X010139Y006712D01*
X010104Y006764D01*
X010072Y006818D01*
X010043Y006874D01*
X010018Y006932D01*
X009997Y006991D01*
X009979Y007051D01*
X009966Y007113D01*
X009956Y007175D01*
X009950Y007237D01*
X009948Y007300D01*
X007348Y007750D02*
X007348Y008850D01*
X007346Y008867D01*
X007342Y008884D01*
X007335Y008900D01*
X007325Y008914D01*
X007312Y008927D01*
X007298Y008937D01*
X007282Y008944D01*
X007265Y008948D01*
X007248Y008950D01*
X006648Y008950D01*
X006631Y008948D01*
X006614Y008944D01*
X006598Y008937D01*
X006584Y008927D01*
X006571Y008914D01*
X006561Y008900D01*
X006554Y008884D01*
X006550Y008867D01*
X006548Y008850D01*
X006548Y007750D01*
X006550Y007733D01*
X006554Y007716D01*
X006561Y007700D01*
X006571Y007686D01*
X006584Y007673D01*
X006598Y007663D01*
X006614Y007656D01*
X006631Y007652D01*
X006648Y007650D01*
X007248Y007650D01*
X007265Y007652D01*
X007282Y007656D01*
X007298Y007663D01*
X007312Y007673D01*
X007325Y007686D01*
X007335Y007700D01*
X007342Y007716D01*
X007346Y007733D01*
X007348Y007750D01*
M02*
