%
M48
M72
T01C0.0236
T02C0.0320
T03C0.0400
T04C0.0433
%
T01
X7600Y5100
X7600Y6100
X7600Y7100
X7600Y8100
X8400Y7900
X7600Y9100
X6900Y9700
X7600Y10100
X7600Y11100
X7600Y12100
X7600Y13100
X7600Y14100
X7600Y15100
X7600Y16100
X7600Y17100
X7600Y18100
X7600Y19100
X7600Y20100
X6500Y19400
X5200Y18300
X3200Y18100
X2500Y17200
X2000Y16600
X3200Y16300
X1100Y12600
X1100Y10500
X6000Y8900
X6500Y8000
X9000Y5100
X10300Y5100
X11200Y7800
X9600Y15000
X11900Y18100
X13000Y19100
X12900Y20100
X15700Y20800
X15800Y20100
X17200Y20600
X16700Y21400
X15900Y21800
X16300Y22400
X17300Y19000
X15600Y18500
X14400Y16800
X14400Y15000
X20000Y19000
X20000Y20100
X21200Y19100
X22100Y18100
X25600Y18100
X25600Y17100
X25600Y16100
X25600Y15100
X25600Y14100
X25600Y13100
X25600Y12100
X25600Y11100
X25600Y10100
X25600Y9100
X25600Y8100
X25600Y7100
X25600Y6100
X25600Y5100
X23000Y7100
X23900Y9100
X20000Y8100
X25600Y19100
X25600Y20100
X19300Y26300
X9600Y21300
X9000Y21300
X8500Y22300
X7900Y23200
X8000Y24800
X6900Y25500
X3900Y26300
X6600Y21600
X7500Y21600
T02
X4100Y14100
X3100Y14100
X2100Y14100
X2100Y12100
X3100Y12100
X4100Y12100
X4100Y10100
X3100Y10100
X2100Y10100
X2100Y8100
X3100Y8100
X4100Y8100
X29100Y8100
X30100Y8100
X31100Y8100
X31100Y10100
X30100Y10100
X29100Y10100
X29100Y12100
X30100Y12100
X31100Y12100
X31100Y14100
X30100Y14100
X29100Y14100
T03
X17600Y29600
X17600Y30600
X16600Y30600
X16600Y29600
X15600Y29600
X15600Y30600
X14600Y30600
X14600Y29600
X13600Y29600
X13600Y30600
X12600Y30600
X12600Y29600
X11600Y29600
X11600Y30600
X10600Y30600
X10600Y29600
X9600Y29600
X9600Y30600
X8600Y30600
X8600Y29600
X7600Y29600
X7600Y30600
X6600Y30600
X6600Y29600
X5600Y29600
X5600Y30600
X4600Y30600
X4600Y29600
X3600Y29600
X3600Y30600
X2600Y30600
X2600Y29600
T04
X19900Y30600
M30
