G75*
%MOIN*%
%OFA0B0*%
%FSLAX24Y24*%
%IPPOS*%
%LPD*%
%AMOC8*
5,1,8,0,0,1.08239X$1,22.5*
%
%ADD10C,0.0516*%
%ADD11C,0.0600*%
%ADD12OC8,0.0820*%
%ADD13R,0.0552X0.0395*%
%ADD14R,0.0730X0.0730*%
%ADD15R,0.0476X0.0476*%
D10*
X007600Y005100D03*
X007600Y006100D03*
X007600Y007100D03*
X007600Y008100D03*
X007600Y009100D03*
X007600Y010100D03*
X007600Y011100D03*
X007600Y012100D03*
X007600Y013100D03*
X007600Y014100D03*
X007600Y015100D03*
X007600Y016100D03*
X007600Y017100D03*
X007600Y018100D03*
X007600Y019100D03*
X007600Y020100D03*
X025600Y020100D03*
X025600Y019100D03*
X025600Y018100D03*
X025600Y017100D03*
X025600Y016100D03*
X025600Y015100D03*
X025600Y014100D03*
X025600Y013100D03*
X025600Y012100D03*
X025600Y011100D03*
X025600Y010100D03*
X025600Y009100D03*
X025600Y008100D03*
X025600Y007100D03*
X025600Y006100D03*
X025600Y005100D03*
D11*
X029100Y007840D02*
X029100Y008360D01*
X030100Y008360D02*
X030100Y007840D01*
X031100Y007840D02*
X031100Y008360D01*
X031100Y009840D02*
X031100Y010360D01*
X030100Y010360D02*
X030100Y009840D01*
X029100Y009840D02*
X029100Y010360D01*
X029100Y011840D02*
X029100Y012360D01*
X030100Y012360D02*
X030100Y011840D01*
X031100Y011840D02*
X031100Y012360D01*
X031100Y013840D02*
X031100Y014360D01*
X030100Y014360D02*
X030100Y013840D01*
X029100Y013840D02*
X029100Y014360D01*
X004100Y014360D02*
X004100Y013840D01*
X003100Y013840D02*
X003100Y014360D01*
X002100Y014360D02*
X002100Y013840D01*
X002100Y012360D02*
X002100Y011840D01*
X003100Y011840D02*
X003100Y012360D01*
X004100Y012360D02*
X004100Y011840D01*
X004100Y010360D02*
X004100Y009840D01*
X003100Y009840D02*
X003100Y010360D01*
X002100Y010360D02*
X002100Y009840D01*
X002100Y008360D02*
X002100Y007840D01*
X003100Y007840D02*
X003100Y008360D01*
X004100Y008360D02*
X004100Y007840D01*
D12*
X003600Y029600D03*
X003600Y030600D03*
X002600Y030600D03*
X002600Y029600D03*
X004600Y029600D03*
X004600Y030600D03*
X005600Y030600D03*
X005600Y029600D03*
X006600Y029600D03*
X006600Y030600D03*
X007600Y030600D03*
X007600Y029600D03*
X008600Y029600D03*
X008600Y030600D03*
X009600Y030600D03*
X009600Y029600D03*
X010600Y029600D03*
X010600Y030600D03*
X011600Y030600D03*
X011600Y029600D03*
X012600Y029600D03*
X012600Y030600D03*
X013600Y030600D03*
X013600Y029600D03*
X014600Y029600D03*
X014600Y030600D03*
X015600Y030600D03*
X015600Y029600D03*
X016600Y029600D03*
X016600Y030600D03*
X017600Y030600D03*
X017600Y029600D03*
D13*
X027700Y015754D03*
X027700Y015046D03*
X027700Y013754D03*
X027700Y013046D03*
X027700Y011754D03*
X027700Y011046D03*
X027700Y009754D03*
X027700Y009046D03*
X001100Y009246D03*
X001100Y009954D03*
X001100Y011246D03*
X001100Y011954D03*
X001100Y013246D03*
X001100Y013954D03*
X001100Y015246D03*
X001100Y015954D03*
D14*
X019900Y030600D03*
D15*
X019300Y026300D03*
X016300Y022400D03*
X015900Y021800D03*
X016700Y021400D03*
X017200Y020600D03*
X015800Y020100D03*
X015700Y020800D03*
X017300Y019000D03*
X015600Y018500D03*
X014400Y016800D03*
X014400Y015000D03*
X011900Y018100D03*
X013000Y019100D03*
X012900Y020100D03*
X009600Y021300D03*
X009000Y021300D03*
X008500Y022300D03*
X007900Y023200D03*
X008000Y024800D03*
X006900Y025500D03*
X003900Y026300D03*
X006600Y021600D03*
X007500Y021600D03*
X006500Y019400D03*
X005200Y018300D03*
X003200Y018100D03*
X002500Y017200D03*
X002000Y016600D03*
X003200Y016300D03*
X001100Y012600D03*
X001100Y010500D03*
X006000Y008900D03*
X006500Y008000D03*
X006900Y009700D03*
X008400Y007900D03*
X011200Y007800D03*
X010300Y005100D03*
X009000Y005100D03*
X009600Y015000D03*
X020000Y019000D03*
X020000Y020100D03*
X021200Y019100D03*
X022100Y018100D03*
X023900Y009100D03*
X023000Y007100D03*
X020000Y008100D03*
M02*
