G75*
%MOIN*%
%OFA0B0*%
%FSLAX24Y24*%
%IPPOS*%
%LPD*%
%AMOC8*
5,1,8,0,0,1.08239X$1,22.5*
%
%ADD10C,0.0050*%
%ADD11C,0.0080*%
D10*
X002403Y027173D02*
X002403Y028236D01*
X003757Y028236D02*
X003757Y027173D01*
X004403Y027173D02*
X004403Y028236D01*
X005757Y028236D02*
X005757Y027173D01*
X006403Y027173D02*
X006403Y028236D01*
X007757Y028236D02*
X007757Y027173D01*
X008403Y027173D02*
X008403Y028236D01*
X009757Y028236D02*
X009757Y027173D01*
X014403Y027173D02*
X014403Y028236D01*
X015757Y028236D02*
X015757Y027173D01*
X016403Y027173D02*
X016403Y028236D01*
X017757Y028236D02*
X017757Y027173D01*
D11*
X002106Y026847D02*
X001686Y026847D01*
X001826Y026847D02*
X001826Y027057D01*
X001896Y027127D01*
X002036Y027127D01*
X002106Y027057D01*
X002106Y026847D01*
X001826Y026987D02*
X001686Y027127D01*
X001686Y027307D02*
X002106Y027307D01*
X001686Y027588D01*
X002106Y027588D01*
X001896Y027768D02*
X001896Y028048D01*
X001686Y027978D02*
X002106Y027978D01*
X001896Y027768D01*
X003686Y027838D02*
X003756Y027768D01*
X003686Y027838D02*
X003686Y027978D01*
X003756Y028048D01*
X003826Y028048D01*
X003896Y027978D01*
X003896Y027908D01*
X003896Y027978D02*
X003966Y028048D01*
X004036Y028048D01*
X004106Y027978D01*
X004106Y027838D01*
X004036Y027768D01*
X004106Y027588D02*
X003686Y027588D01*
X004106Y027307D01*
X003686Y027307D01*
X003686Y027127D02*
X003826Y026987D01*
X003826Y027057D02*
X003826Y026847D01*
X003686Y026847D02*
X004106Y026847D01*
X004106Y027057D01*
X004036Y027127D01*
X003896Y027127D01*
X003826Y027057D01*
X005686Y027127D02*
X005826Y026987D01*
X005826Y027057D02*
X005826Y026847D01*
X005686Y026847D02*
X006106Y026847D01*
X006106Y027057D01*
X006036Y027127D01*
X005896Y027127D01*
X005826Y027057D01*
X005686Y027307D02*
X006106Y027307D01*
X005686Y027588D01*
X006106Y027588D01*
X005966Y027768D02*
X006106Y027908D01*
X005686Y027908D01*
X005686Y027768D02*
X005686Y028048D01*
X007686Y028048D02*
X007686Y027768D01*
X007966Y028048D01*
X008036Y028048D01*
X008106Y027978D01*
X008106Y027838D01*
X008036Y027768D01*
X008106Y027588D02*
X007686Y027588D01*
X008106Y027307D01*
X007686Y027307D01*
X007686Y027127D02*
X007826Y026987D01*
X007826Y027057D02*
X007826Y026847D01*
X007686Y026847D02*
X008106Y026847D01*
X008106Y027057D01*
X008036Y027127D01*
X007896Y027127D01*
X007826Y027057D01*
X013686Y027127D02*
X013826Y026987D01*
X013826Y027057D02*
X013826Y026847D01*
X013686Y026847D02*
X014106Y026847D01*
X014106Y027057D01*
X014036Y027127D01*
X013896Y027127D01*
X013826Y027057D01*
X013686Y027307D02*
X014106Y027307D01*
X013686Y027588D01*
X014106Y027588D01*
X013896Y027768D02*
X013756Y027768D01*
X013686Y027838D01*
X013686Y027978D01*
X013756Y028048D01*
X013826Y028048D01*
X013896Y027978D01*
X013896Y027768D01*
X014036Y027908D01*
X014106Y028048D01*
X015686Y027978D02*
X015686Y027838D01*
X015756Y027768D01*
X015896Y027768D02*
X015966Y027908D01*
X015966Y027978D01*
X015896Y028048D01*
X015756Y028048D01*
X015686Y027978D01*
X015896Y027768D02*
X016106Y027768D01*
X016106Y028048D01*
X016106Y027588D02*
X015686Y027588D01*
X016106Y027307D01*
X015686Y027307D01*
X015686Y027127D02*
X015826Y026987D01*
X015826Y027057D02*
X015826Y026847D01*
X015686Y026847D02*
X016106Y026847D01*
X016106Y027057D01*
X016036Y027127D01*
X015896Y027127D01*
X015826Y027057D01*
M02*
