G75*
%MOIN*%
%OFA0B0*%
%FSLAX24Y24*%
%IPPOS*%
%LPD*%
%AMOC8*
5,1,8,0,0,1.08239X$1,22.5*
%
%ADD10C,0.0050*%
%ADD11C,0.0040*%
%ADD12C,0.0060*%
%ADD13C,0.0080*%
D10*
X004789Y000789D02*
X007151Y000789D01*
X007151Y000395D01*
X009513Y000395D01*
X009513Y000789D01*
X023687Y000789D01*
X023687Y000395D01*
X026049Y000395D01*
X026049Y000789D01*
X028411Y000789D01*
X028411Y003151D01*
X028805Y003151D01*
X028805Y005513D01*
X028411Y005513D01*
X028411Y019687D01*
X028805Y019687D01*
X028805Y022049D01*
X028411Y022049D01*
X028411Y024411D01*
X026049Y024411D01*
X026049Y024017D01*
X023687Y024017D01*
X023687Y024411D01*
X009907Y024411D01*
X009907Y024017D01*
X007151Y024017D01*
X007151Y024411D01*
X004789Y024411D01*
X004789Y022049D01*
X005183Y022049D01*
X005183Y019687D01*
X004789Y019687D01*
X004789Y005513D01*
X005183Y005513D01*
X005183Y003151D01*
X004789Y003151D01*
X004789Y000789D01*
X004789Y003151D02*
X004789Y005513D01*
X003925Y007450D02*
X002275Y007450D01*
X002547Y008050D02*
X002653Y008050D01*
X002150Y007653D02*
X002177Y007599D01*
X002207Y007548D01*
X002240Y007498D01*
X002275Y007450D01*
X002150Y008547D02*
X002179Y008604D01*
X002212Y008660D01*
X002247Y008713D01*
X002287Y008764D01*
X002329Y008812D01*
X002374Y008858D01*
X002421Y008901D01*
X002471Y008941D01*
X002524Y008978D01*
X002579Y009011D01*
X002635Y009042D01*
X002694Y009068D01*
X002754Y009091D01*
X002815Y009111D01*
X002877Y009126D01*
X002940Y009138D01*
X003004Y009146D01*
X003068Y009150D01*
X003132Y009150D01*
X003196Y009146D01*
X003260Y009138D01*
X003323Y009126D01*
X003385Y009111D01*
X003446Y009091D01*
X003506Y009068D01*
X003565Y009042D01*
X003621Y009011D01*
X003676Y008978D01*
X003729Y008941D01*
X003779Y008901D01*
X003826Y008858D01*
X003871Y008812D01*
X003913Y008764D01*
X003953Y008713D01*
X003988Y008660D01*
X004021Y008604D01*
X004050Y008547D01*
X003653Y008050D02*
X003547Y008050D01*
X004054Y007662D02*
X004027Y007606D01*
X003996Y007552D01*
X003962Y007500D01*
X003925Y007450D01*
X003925Y009450D02*
X002275Y009450D01*
X002275Y009325D02*
X002275Y009775D01*
X002125Y009775D02*
X002425Y009775D01*
X002585Y009775D02*
X002585Y009550D01*
X002736Y009625D01*
X002811Y009625D01*
X002886Y009550D01*
X002886Y009400D01*
X002811Y009325D01*
X002660Y009325D01*
X002585Y009400D01*
X002585Y009775D02*
X002886Y009775D01*
X002653Y010050D02*
X002547Y010050D01*
X002150Y009653D02*
X002177Y009599D01*
X002207Y009548D01*
X002240Y009498D01*
X002275Y009450D01*
X002150Y010547D02*
X002179Y010604D01*
X002212Y010660D01*
X002247Y010713D01*
X002287Y010764D01*
X002329Y010812D01*
X002374Y010858D01*
X002421Y010901D01*
X002471Y010941D01*
X002524Y010978D01*
X002579Y011011D01*
X002635Y011042D01*
X002694Y011068D01*
X002754Y011091D01*
X002815Y011111D01*
X002877Y011126D01*
X002940Y011138D01*
X003004Y011146D01*
X003068Y011150D01*
X003132Y011150D01*
X003196Y011146D01*
X003260Y011138D01*
X003323Y011126D01*
X003385Y011111D01*
X003446Y011091D01*
X003506Y011068D01*
X003565Y011042D01*
X003621Y011011D01*
X003676Y010978D01*
X003729Y010941D01*
X003779Y010901D01*
X003826Y010858D01*
X003871Y010812D01*
X003913Y010764D01*
X003953Y010713D01*
X003988Y010660D01*
X004021Y010604D01*
X004050Y010547D01*
X003653Y010050D02*
X003547Y010050D01*
X004054Y009662D02*
X004027Y009606D01*
X003996Y009552D01*
X003962Y009500D01*
X003925Y009450D01*
X003925Y011450D02*
X002275Y011450D01*
X002275Y011325D02*
X002275Y011775D01*
X002125Y011775D02*
X002425Y011775D01*
X002585Y011550D02*
X002811Y011550D01*
X002886Y011475D01*
X002886Y011400D01*
X002811Y011325D01*
X002660Y011325D01*
X002585Y011400D01*
X002585Y011550D01*
X002736Y011700D01*
X002886Y011775D01*
X002653Y012050D02*
X002547Y012050D01*
X002150Y011653D02*
X002177Y011599D01*
X002207Y011548D01*
X002240Y011498D01*
X002275Y011450D01*
X002150Y012547D02*
X002179Y012604D01*
X002212Y012660D01*
X002247Y012713D01*
X002287Y012764D01*
X002329Y012812D01*
X002374Y012858D01*
X002421Y012901D01*
X002471Y012941D01*
X002524Y012978D01*
X002579Y013011D01*
X002635Y013042D01*
X002694Y013068D01*
X002754Y013091D01*
X002815Y013111D01*
X002877Y013126D01*
X002940Y013138D01*
X003004Y013146D01*
X003068Y013150D01*
X003132Y013150D01*
X003196Y013146D01*
X003260Y013138D01*
X003323Y013126D01*
X003385Y013111D01*
X003446Y013091D01*
X003506Y013068D01*
X003565Y013042D01*
X003621Y013011D01*
X003676Y012978D01*
X003729Y012941D01*
X003779Y012901D01*
X003826Y012858D01*
X003871Y012812D01*
X003913Y012764D01*
X003953Y012713D01*
X003988Y012660D01*
X004021Y012604D01*
X004050Y012547D01*
X003653Y012050D02*
X003547Y012050D01*
X004054Y011662D02*
X004027Y011606D01*
X003996Y011552D01*
X003962Y011500D01*
X003925Y011450D01*
X003925Y013450D02*
X002275Y013450D01*
X002275Y013325D02*
X002275Y013775D01*
X002125Y013775D02*
X002425Y013775D01*
X002585Y013775D02*
X002886Y013775D01*
X002886Y013700D01*
X002585Y013400D01*
X002585Y013325D01*
X002547Y014050D02*
X002653Y014050D01*
X002150Y013653D02*
X002177Y013599D01*
X002207Y013548D01*
X002240Y013498D01*
X002275Y013450D01*
X002150Y014547D02*
X002179Y014604D01*
X002212Y014660D01*
X002247Y014713D01*
X002287Y014764D01*
X002329Y014812D01*
X002374Y014858D01*
X002421Y014901D01*
X002471Y014941D01*
X002524Y014978D01*
X002579Y015011D01*
X002635Y015042D01*
X002694Y015068D01*
X002754Y015091D01*
X002815Y015111D01*
X002877Y015126D01*
X002940Y015138D01*
X003004Y015146D01*
X003068Y015150D01*
X003132Y015150D01*
X003196Y015146D01*
X003260Y015138D01*
X003323Y015126D01*
X003385Y015111D01*
X003446Y015091D01*
X003506Y015068D01*
X003565Y015042D01*
X003621Y015011D01*
X003676Y014978D01*
X003729Y014941D01*
X003779Y014901D01*
X003826Y014858D01*
X003871Y014812D01*
X003913Y014764D01*
X003953Y014713D01*
X003988Y014660D01*
X004021Y014604D01*
X004050Y014547D01*
X003653Y014050D02*
X003547Y014050D01*
X004054Y013662D02*
X004027Y013606D01*
X003996Y013552D01*
X003962Y013500D01*
X003925Y013450D01*
X002811Y015325D02*
X002660Y015325D01*
X002585Y015400D01*
X002585Y015475D01*
X002660Y015550D01*
X002811Y015550D01*
X002886Y015475D01*
X002886Y015400D01*
X002811Y015325D01*
X002811Y015550D02*
X002886Y015625D01*
X002886Y015700D01*
X002811Y015775D01*
X002660Y015775D01*
X002585Y015700D01*
X002585Y015625D01*
X002660Y015550D01*
X002425Y015775D02*
X002125Y015775D01*
X002275Y015775D02*
X002275Y015325D01*
X004789Y019687D02*
X004789Y022049D01*
X007151Y024411D02*
X009907Y024411D01*
X010165Y030375D02*
X010465Y030375D01*
X010315Y030375D02*
X010315Y030825D01*
X010165Y030675D01*
X018165Y030675D02*
X018315Y030825D01*
X018315Y030375D01*
X018165Y030375D02*
X018465Y030375D01*
X023687Y024411D02*
X026049Y024411D01*
X028411Y022049D02*
X028411Y019687D01*
X029275Y014750D02*
X030925Y014750D01*
X030653Y014150D02*
X030547Y014150D01*
X031050Y014547D02*
X031023Y014601D01*
X030993Y014652D01*
X030960Y014702D01*
X030925Y014750D01*
X031050Y013653D02*
X031021Y013596D01*
X030988Y013540D01*
X030953Y013487D01*
X030913Y013436D01*
X030871Y013388D01*
X030826Y013342D01*
X030779Y013299D01*
X030729Y013259D01*
X030676Y013222D01*
X030621Y013189D01*
X030565Y013158D01*
X030506Y013132D01*
X030446Y013109D01*
X030385Y013089D01*
X030323Y013074D01*
X030260Y013062D01*
X030196Y013054D01*
X030132Y013050D01*
X030068Y013050D01*
X030004Y013054D01*
X029940Y013062D01*
X029877Y013074D01*
X029815Y013089D01*
X029754Y013109D01*
X029694Y013132D01*
X029635Y013158D01*
X029579Y013189D01*
X029524Y013222D01*
X029471Y013259D01*
X029421Y013299D01*
X029374Y013342D01*
X029329Y013388D01*
X029287Y013436D01*
X029247Y013487D01*
X029212Y013540D01*
X029179Y013596D01*
X029150Y013653D01*
X029547Y014150D02*
X029653Y014150D01*
X029146Y014538D02*
X029173Y014594D01*
X029204Y014648D01*
X029238Y014700D01*
X029275Y014750D01*
X030204Y012875D02*
X030504Y012875D01*
X030354Y012875D02*
X030354Y012425D01*
X030665Y012425D02*
X030965Y012725D01*
X030965Y012800D01*
X030890Y012875D01*
X030740Y012875D01*
X030665Y012800D01*
X030925Y012750D02*
X029275Y012750D01*
X029547Y012150D02*
X029653Y012150D01*
X029146Y012538D02*
X029173Y012594D01*
X029204Y012648D01*
X029238Y012700D01*
X029275Y012750D01*
X029150Y011653D02*
X029179Y011596D01*
X029212Y011540D01*
X029247Y011487D01*
X029287Y011436D01*
X029329Y011388D01*
X029374Y011342D01*
X029421Y011299D01*
X029471Y011259D01*
X029524Y011222D01*
X029579Y011189D01*
X029635Y011158D01*
X029694Y011132D01*
X029754Y011109D01*
X029815Y011089D01*
X029877Y011074D01*
X029940Y011062D01*
X030004Y011054D01*
X030068Y011050D01*
X030132Y011050D01*
X030196Y011054D01*
X030260Y011062D01*
X030323Y011074D01*
X030385Y011089D01*
X030446Y011109D01*
X030506Y011132D01*
X030565Y011158D01*
X030621Y011189D01*
X030676Y011222D01*
X030729Y011259D01*
X030779Y011299D01*
X030826Y011342D01*
X030871Y011388D01*
X030913Y011436D01*
X030953Y011487D01*
X030988Y011540D01*
X031021Y011596D01*
X031050Y011653D01*
X030653Y012150D02*
X030547Y012150D01*
X030665Y012425D02*
X030965Y012425D01*
X031050Y012547D02*
X031023Y012601D01*
X030993Y012652D01*
X030960Y012702D01*
X030925Y012750D01*
X030815Y010875D02*
X030815Y010425D01*
X030665Y010425D02*
X030965Y010425D01*
X030925Y010750D02*
X029275Y010750D01*
X029547Y010150D02*
X029653Y010150D01*
X029146Y010538D02*
X029173Y010594D01*
X029204Y010648D01*
X029238Y010700D01*
X029275Y010750D01*
X030204Y010875D02*
X030504Y010875D01*
X030354Y010875D02*
X030354Y010425D01*
X030547Y010150D02*
X030653Y010150D01*
X031050Y010547D02*
X031023Y010601D01*
X030993Y010652D01*
X030960Y010702D01*
X030925Y010750D01*
X030815Y010875D02*
X030665Y010725D01*
X031050Y009653D02*
X031021Y009596D01*
X030988Y009540D01*
X030953Y009487D01*
X030913Y009436D01*
X030871Y009388D01*
X030826Y009342D01*
X030779Y009299D01*
X030729Y009259D01*
X030676Y009222D01*
X030621Y009189D01*
X030565Y009158D01*
X030506Y009132D01*
X030446Y009109D01*
X030385Y009089D01*
X030323Y009074D01*
X030260Y009062D01*
X030196Y009054D01*
X030132Y009050D01*
X030068Y009050D01*
X030004Y009054D01*
X029940Y009062D01*
X029877Y009074D01*
X029815Y009089D01*
X029754Y009109D01*
X029694Y009132D01*
X029635Y009158D01*
X029579Y009189D01*
X029524Y009222D01*
X029471Y009259D01*
X029421Y009299D01*
X029374Y009342D01*
X029329Y009388D01*
X029287Y009436D01*
X029247Y009487D01*
X029212Y009540D01*
X029179Y009596D01*
X029150Y009653D01*
X029275Y008750D02*
X030925Y008750D01*
X030965Y008725D02*
X030890Y008650D01*
X030965Y008575D01*
X030965Y008500D01*
X030890Y008425D01*
X030740Y008425D01*
X030665Y008500D01*
X030815Y008650D02*
X030890Y008650D01*
X030965Y008725D02*
X030965Y008800D01*
X030890Y008875D01*
X030740Y008875D01*
X030665Y008800D01*
X030504Y008875D02*
X030204Y008875D01*
X030354Y008875D02*
X030354Y008425D01*
X030547Y008150D02*
X030653Y008150D01*
X031050Y008547D02*
X031023Y008601D01*
X030993Y008652D01*
X030960Y008702D01*
X030925Y008750D01*
X031050Y007653D02*
X031021Y007596D01*
X030988Y007540D01*
X030953Y007487D01*
X030913Y007436D01*
X030871Y007388D01*
X030826Y007342D01*
X030779Y007299D01*
X030729Y007259D01*
X030676Y007222D01*
X030621Y007189D01*
X030565Y007158D01*
X030506Y007132D01*
X030446Y007109D01*
X030385Y007089D01*
X030323Y007074D01*
X030260Y007062D01*
X030196Y007054D01*
X030132Y007050D01*
X030068Y007050D01*
X030004Y007054D01*
X029940Y007062D01*
X029877Y007074D01*
X029815Y007089D01*
X029754Y007109D01*
X029694Y007132D01*
X029635Y007158D01*
X029579Y007189D01*
X029524Y007222D01*
X029471Y007259D01*
X029421Y007299D01*
X029374Y007342D01*
X029329Y007388D01*
X029287Y007436D01*
X029247Y007487D01*
X029212Y007540D01*
X029179Y007596D01*
X029150Y007653D01*
X029547Y008150D02*
X029653Y008150D01*
X029146Y008538D02*
X029173Y008594D01*
X029204Y008648D01*
X029238Y008700D01*
X029275Y008750D01*
X030204Y006875D02*
X030504Y006875D01*
X030354Y006875D02*
X030354Y006425D01*
X030665Y006650D02*
X030965Y006650D01*
X030890Y006425D02*
X030890Y006875D01*
X030665Y006650D01*
X028411Y005513D02*
X028411Y003151D01*
X026049Y000789D02*
X023687Y000789D01*
X009513Y000789D02*
X007151Y000789D01*
D11*
X008620Y004620D02*
X008927Y004620D01*
X008773Y004620D02*
X008773Y005080D01*
X008620Y004927D01*
X009080Y004850D02*
X009080Y004697D01*
X009157Y004620D01*
X009311Y004620D01*
X009387Y004697D01*
X009387Y004773D01*
X009311Y004850D01*
X009080Y004850D01*
X009234Y005004D01*
X009387Y005080D01*
X008927Y019620D02*
X008620Y019620D01*
X008773Y019620D02*
X008773Y020080D01*
X008620Y019927D01*
X026620Y020004D02*
X026697Y020080D01*
X026850Y020080D01*
X026927Y020004D01*
X026927Y019927D01*
X026850Y019850D01*
X026927Y019773D01*
X026927Y019697D01*
X026850Y019620D01*
X026697Y019620D01*
X026620Y019697D01*
X026773Y019850D02*
X026850Y019850D01*
X027080Y020004D02*
X027157Y020080D01*
X027311Y020080D01*
X027387Y020004D01*
X027387Y019927D01*
X027080Y019620D01*
X027387Y019620D01*
X027387Y005080D02*
X027080Y005080D01*
X026773Y005080D02*
X026773Y004620D01*
X026620Y004620D02*
X026927Y004620D01*
X027080Y004620D02*
X027080Y004697D01*
X027387Y005004D01*
X027387Y005080D01*
X026773Y005080D02*
X026620Y004927D01*
D12*
X027464Y009282D02*
X027464Y009518D01*
X027936Y009518D02*
X027936Y009282D01*
X027936Y011282D02*
X027936Y011518D01*
X027464Y011518D02*
X027464Y011282D01*
X027464Y013282D02*
X027464Y013518D01*
X027936Y013518D02*
X027936Y013282D01*
X027936Y015282D02*
X027936Y015518D01*
X027464Y015518D02*
X027464Y015282D01*
X017850Y029100D02*
X017350Y029100D01*
X017100Y029350D01*
X017100Y030850D01*
X016850Y031100D01*
X016350Y031100D01*
X016100Y030850D01*
X016100Y029350D01*
X015850Y029100D01*
X015350Y029100D01*
X015100Y029350D01*
X015100Y030850D01*
X014850Y031100D01*
X014350Y031100D01*
X014100Y030850D01*
X014100Y029350D01*
X013850Y029100D01*
X013350Y029100D01*
X013100Y029350D01*
X013100Y030850D01*
X012850Y031100D01*
X012350Y031100D01*
X012100Y030850D01*
X012100Y029350D01*
X011850Y029100D01*
X011350Y029100D01*
X011100Y029350D01*
X011100Y030850D01*
X011350Y031100D01*
X011850Y031100D01*
X012100Y030850D01*
X011100Y030850D02*
X010850Y031100D01*
X010350Y031100D01*
X010100Y030850D01*
X010100Y029350D01*
X010350Y029100D01*
X010850Y029100D01*
X011100Y029350D01*
X010100Y029350D02*
X009850Y029100D01*
X009350Y029100D01*
X009100Y029350D01*
X009100Y030850D01*
X008850Y031100D01*
X008350Y031100D01*
X008100Y030850D01*
X008100Y029350D01*
X007850Y029100D01*
X007350Y029100D01*
X007100Y029350D01*
X007100Y030850D01*
X006850Y031100D01*
X006350Y031100D01*
X006100Y030850D01*
X006100Y029350D01*
X005850Y029100D01*
X005350Y029100D01*
X005100Y029350D01*
X005100Y030850D01*
X004850Y031100D01*
X004350Y031100D01*
X004100Y030850D01*
X004100Y029350D01*
X003850Y029100D01*
X003350Y029100D01*
X003100Y029350D01*
X003100Y030850D01*
X003350Y031100D01*
X003850Y031100D01*
X004100Y030850D01*
X003100Y030850D02*
X002850Y031100D01*
X002350Y031100D01*
X002100Y030850D01*
X002100Y029350D01*
X002350Y029100D01*
X002850Y029100D01*
X003100Y029350D01*
X004100Y029350D02*
X004350Y029100D01*
X004850Y029100D01*
X005100Y029350D01*
X006100Y029350D02*
X006350Y029100D01*
X006850Y029100D01*
X007100Y029350D01*
X008100Y029350D02*
X008350Y029100D01*
X008850Y029100D01*
X009100Y029350D01*
X010100Y029350D02*
X010100Y030850D01*
X009850Y031100D01*
X009350Y031100D01*
X009100Y030850D01*
X008100Y030850D02*
X007850Y031100D01*
X007350Y031100D01*
X007100Y030850D01*
X006100Y030850D02*
X005850Y031100D01*
X005350Y031100D01*
X005100Y030850D01*
X012100Y029350D02*
X012350Y029100D01*
X012850Y029100D01*
X013100Y029350D01*
X014100Y029350D02*
X014350Y029100D01*
X014850Y029100D01*
X015100Y029350D01*
X016100Y029350D02*
X016350Y029100D01*
X016850Y029100D01*
X017100Y029350D01*
X017850Y029100D02*
X018100Y029350D01*
X018100Y030850D01*
X017850Y031100D01*
X017350Y031100D01*
X017100Y030850D01*
X016100Y030850D02*
X015850Y031100D01*
X015350Y031100D01*
X015100Y030850D01*
X014100Y030850D02*
X013850Y031100D01*
X013350Y031100D01*
X013100Y030850D01*
X001336Y015718D02*
X001336Y015482D01*
X000864Y015482D02*
X000864Y015718D01*
X000864Y013718D02*
X000864Y013482D01*
X001336Y013482D02*
X001336Y013718D01*
X001336Y011718D02*
X001336Y011482D01*
X000864Y011482D02*
X000864Y011718D01*
X000864Y009718D02*
X000864Y009482D01*
X001336Y009482D02*
X001336Y009718D01*
D13*
X001465Y009760D02*
X001465Y009480D01*
X001675Y009480D01*
X001605Y009620D01*
X001605Y009690D01*
X001675Y009760D01*
X001815Y009760D01*
X001885Y009690D01*
X001885Y009550D01*
X001815Y009480D01*
X001885Y009299D02*
X001745Y009159D01*
X001745Y009229D02*
X001745Y009019D01*
X001885Y009019D02*
X001465Y009019D01*
X001465Y009229D01*
X001535Y009299D01*
X001675Y009299D01*
X001745Y009229D01*
X001745Y011019D02*
X001745Y011229D01*
X001675Y011299D01*
X001535Y011299D01*
X001465Y011229D01*
X001465Y011019D01*
X001885Y011019D01*
X001745Y011159D02*
X001885Y011299D01*
X001815Y011480D02*
X001885Y011550D01*
X001885Y011690D01*
X001815Y011760D01*
X001745Y011760D01*
X001675Y011690D01*
X001675Y011480D01*
X001815Y011480D01*
X001675Y011480D02*
X001535Y011620D01*
X001465Y011760D01*
X001465Y013019D02*
X001465Y013229D01*
X001535Y013299D01*
X001675Y013299D01*
X001745Y013229D01*
X001745Y013019D01*
X001885Y013019D02*
X001465Y013019D01*
X001745Y013159D02*
X001885Y013299D01*
X001885Y013480D02*
X001815Y013480D01*
X001535Y013760D01*
X001465Y013760D01*
X001465Y013480D01*
X001465Y015019D02*
X001465Y015229D01*
X001535Y015299D01*
X001675Y015299D01*
X001745Y015229D01*
X001745Y015019D01*
X001885Y015019D02*
X001465Y015019D01*
X001745Y015159D02*
X001885Y015299D01*
X001815Y015480D02*
X001745Y015480D01*
X001675Y015550D01*
X001675Y015690D01*
X001745Y015760D01*
X001815Y015760D01*
X001885Y015690D01*
X001885Y015550D01*
X001815Y015480D01*
X001675Y015550D02*
X001605Y015480D01*
X001535Y015480D01*
X001465Y015550D01*
X001465Y015690D01*
X001535Y015760D01*
X001605Y015760D01*
X001675Y015690D01*
X009289Y028390D02*
X009359Y028390D01*
X009429Y028460D01*
X009429Y028810D01*
X009359Y028810D02*
X009499Y028810D01*
X009680Y028670D02*
X009820Y028810D01*
X009820Y028390D01*
X009680Y028390D02*
X009960Y028390D01*
X009289Y028390D02*
X009219Y028460D01*
X017219Y028460D02*
X017289Y028390D01*
X017359Y028390D01*
X017429Y028460D01*
X017429Y028810D01*
X017359Y028810D02*
X017499Y028810D01*
X017680Y028740D02*
X017750Y028810D01*
X017890Y028810D01*
X017960Y028740D01*
X017960Y028670D01*
X017680Y028390D01*
X017960Y028390D01*
X028485Y015560D02*
X028485Y015280D01*
X028485Y015420D02*
X028065Y015420D01*
X028205Y015280D01*
X028275Y015099D02*
X028345Y015029D01*
X028345Y014819D01*
X028485Y014819D02*
X028065Y014819D01*
X028065Y015029D01*
X028135Y015099D01*
X028275Y015099D01*
X028345Y014959D02*
X028485Y015099D01*
X028485Y013560D02*
X028485Y013280D01*
X028205Y013560D01*
X028135Y013560D01*
X028065Y013490D01*
X028065Y013350D01*
X028135Y013280D01*
X028135Y013099D02*
X028275Y013099D01*
X028345Y013029D01*
X028345Y012819D01*
X028485Y012819D02*
X028065Y012819D01*
X028065Y013029D01*
X028135Y013099D01*
X028345Y012959D02*
X028485Y013099D01*
X028415Y011560D02*
X028485Y011490D01*
X028485Y011350D01*
X028415Y011280D01*
X028485Y011099D02*
X028345Y010959D01*
X028345Y011029D02*
X028345Y010819D01*
X028485Y010819D02*
X028065Y010819D01*
X028065Y011029D01*
X028135Y011099D01*
X028275Y011099D01*
X028345Y011029D01*
X028135Y011280D02*
X028065Y011350D01*
X028065Y011490D01*
X028135Y011560D01*
X028205Y011560D01*
X028275Y011490D01*
X028345Y011560D01*
X028415Y011560D01*
X028275Y011490D02*
X028275Y011420D01*
X028275Y009560D02*
X028275Y009280D01*
X028065Y009490D01*
X028485Y009490D01*
X028485Y009099D02*
X028345Y008959D01*
X028345Y009029D02*
X028345Y008819D01*
X028485Y008819D02*
X028065Y008819D01*
X028065Y009029D01*
X028135Y009099D01*
X028275Y009099D01*
X028345Y009029D01*
M02*
