G75*
%MOIN*%
%OFA0B0*%
%FSLAX24Y24*%
%IPPOS*%
%LPD*%
%AMOC8*
5,1,8,0,0,1.08239X$1,22.5*
%
%ADD10C,0.0436*%
%ADD11C,0.0520*%
%ADD12OC8,0.0740*%
%ADD13R,0.0197X0.0394*%
%ADD14C,0.0100*%
%ADD15C,0.0320*%
%ADD16R,0.0650X0.0650*%
%ADD17R,0.0396X0.0396*%
D10*
X007600Y005100D03*
X007600Y006100D03*
X007600Y007100D03*
X007600Y008100D03*
X007600Y009100D03*
X007600Y010100D03*
X007600Y011100D03*
X007600Y012100D03*
X007600Y013100D03*
X007600Y014100D03*
X007600Y015100D03*
X007600Y016100D03*
X007600Y017100D03*
X007600Y018100D03*
X007600Y019100D03*
X007600Y020100D03*
X025600Y020100D03*
X025600Y019100D03*
X025600Y018100D03*
X025600Y017100D03*
X025600Y016100D03*
X025600Y015100D03*
X025600Y014100D03*
X025600Y013100D03*
X025600Y012100D03*
X025600Y011100D03*
X025600Y010100D03*
X025600Y009100D03*
X025600Y008100D03*
X025600Y007100D03*
X025600Y006100D03*
X025600Y005100D03*
D11*
X029100Y007840D02*
X029100Y008360D01*
X030100Y008360D02*
X030100Y007840D01*
X031100Y007840D02*
X031100Y008360D01*
X031100Y009840D02*
X031100Y010360D01*
X030100Y010360D02*
X030100Y009840D01*
X029100Y009840D02*
X029100Y010360D01*
X029100Y011840D02*
X029100Y012360D01*
X030100Y012360D02*
X030100Y011840D01*
X031100Y011840D02*
X031100Y012360D01*
X031100Y013840D02*
X031100Y014360D01*
X030100Y014360D02*
X030100Y013840D01*
X029100Y013840D02*
X029100Y014360D01*
X004100Y014360D02*
X004100Y013840D01*
X003100Y013840D02*
X003100Y014360D01*
X002100Y014360D02*
X002100Y013840D01*
X002100Y012360D02*
X002100Y011840D01*
X003100Y011840D02*
X003100Y012360D01*
X004100Y012360D02*
X004100Y011840D01*
X004100Y010360D02*
X004100Y009840D01*
X003100Y009840D02*
X003100Y010360D01*
X002100Y010360D02*
X002100Y009840D01*
X002100Y008360D02*
X002100Y007840D01*
X003100Y007840D02*
X003100Y008360D01*
X004100Y008360D02*
X004100Y007840D01*
D12*
X003600Y029600D03*
X003600Y030600D03*
X002600Y030600D03*
X002600Y029600D03*
X004600Y029600D03*
X004600Y030600D03*
X005600Y030600D03*
X005600Y029600D03*
X006600Y029600D03*
X006600Y030600D03*
X007600Y030600D03*
X007600Y029600D03*
X008600Y029600D03*
X008600Y030600D03*
X009600Y030600D03*
X009600Y029600D03*
X010600Y029600D03*
X010600Y030600D03*
X011600Y030600D03*
X011600Y029600D03*
X012600Y029600D03*
X012600Y030600D03*
X013600Y030600D03*
X013600Y029600D03*
X014600Y029600D03*
X014600Y030600D03*
X015600Y030600D03*
X015600Y029600D03*
X016600Y029600D03*
X016600Y030600D03*
X017600Y030600D03*
X017600Y029600D03*
D13*
X017545Y028000D03*
X017230Y028000D03*
X016915Y028000D03*
X016600Y028000D03*
X016600Y027449D03*
X016915Y027449D03*
X017230Y027449D03*
X017545Y027449D03*
X015545Y027449D03*
X015230Y027449D03*
X014915Y027449D03*
X014600Y027449D03*
X014600Y028000D03*
X014915Y028000D03*
X015230Y028000D03*
X015545Y028000D03*
X009545Y028000D03*
X009230Y028000D03*
X008915Y028000D03*
X008600Y028000D03*
X008600Y027449D03*
X008915Y027449D03*
X009230Y027449D03*
X009545Y027449D03*
X007545Y027449D03*
X007230Y027449D03*
X006915Y027449D03*
X006600Y027449D03*
X006600Y028000D03*
X006915Y028000D03*
X007230Y028000D03*
X007545Y028000D03*
X005545Y028000D03*
X005230Y028000D03*
X004915Y028000D03*
X004600Y028000D03*
X004600Y027449D03*
X004915Y027449D03*
X005230Y027449D03*
X005545Y027449D03*
X003545Y027449D03*
X003230Y027449D03*
X002915Y027449D03*
X002600Y027449D03*
X002600Y028000D03*
X002915Y028000D03*
X003230Y028000D03*
X003545Y028000D03*
D14*
X003545Y028151D02*
X003545Y028745D01*
X004100Y029300D01*
X004100Y030100D01*
X003600Y030600D01*
X003100Y030100D02*
X003100Y029100D01*
X002915Y028915D01*
X002915Y028151D01*
X003230Y028151D02*
X003230Y028830D01*
X003300Y028900D01*
X003300Y029300D01*
X003600Y029600D01*
X003100Y030100D02*
X002600Y030600D01*
X002600Y029600D02*
X002600Y028151D01*
X002600Y027449D02*
X002600Y018000D01*
X003500Y017100D01*
X007600Y017100D01*
X008000Y017600D02*
X008200Y017400D01*
X008200Y016800D01*
X008000Y016600D01*
X007400Y016600D01*
X007100Y016300D01*
X007100Y015800D01*
X007300Y015600D01*
X020700Y015600D01*
X021200Y015100D01*
X025600Y015100D01*
X025600Y014100D02*
X029100Y014100D01*
X028100Y013100D02*
X029100Y012100D01*
X028100Y013100D02*
X025600Y013100D01*
X025600Y012100D02*
X027100Y012100D01*
X029100Y010100D01*
X029100Y008100D02*
X026100Y011100D01*
X025600Y011100D01*
X025600Y010100D02*
X016100Y010100D01*
X014400Y011800D01*
X014400Y015000D01*
X015300Y016100D02*
X007600Y016100D01*
X007600Y015100D02*
X004300Y015100D01*
X003200Y016200D01*
X003200Y016300D01*
X002600Y016400D02*
X001237Y015037D01*
X001200Y014948D02*
X001200Y013600D01*
X001563Y013237D01*
X001600Y013148D02*
X001600Y012200D01*
X001137Y011737D01*
X001100Y011648D02*
X001100Y010500D01*
X001100Y011648D02*
X001102Y011668D01*
X001106Y011687D01*
X001114Y011705D01*
X001124Y011721D01*
X001137Y011736D01*
X001100Y012600D02*
X000800Y012806D01*
X000800Y015400D01*
X002000Y016600D01*
X002600Y016400D02*
X002600Y017048D01*
X002563Y017137D02*
X002500Y017200D01*
X002563Y017136D02*
X002576Y017121D01*
X002586Y017105D01*
X002594Y017087D01*
X002598Y017068D01*
X002600Y017048D01*
X003200Y018100D02*
X002915Y018385D01*
X002915Y027449D01*
X003230Y027449D02*
X003230Y019070D01*
X004700Y017600D01*
X008000Y017600D01*
X007600Y018100D02*
X011900Y018100D01*
X012600Y018600D02*
X014400Y016800D01*
X015300Y016100D02*
X018500Y019300D01*
X018500Y022600D01*
X017545Y023555D01*
X017545Y027449D01*
X017230Y027449D02*
X017230Y023370D01*
X017800Y022800D01*
X017800Y019500D01*
X017300Y019000D01*
X015800Y020100D02*
X015250Y020650D01*
X015100Y020800D01*
X014600Y021300D01*
X014600Y027449D01*
X014915Y027449D02*
X014915Y021585D01*
X015700Y020800D01*
X015900Y021800D02*
X015230Y022470D01*
X015230Y027449D01*
X015545Y027449D02*
X015545Y023155D01*
X016300Y022400D01*
X016600Y023000D02*
X017100Y022500D01*
X017100Y021800D01*
X016700Y021400D01*
X015900Y021800D02*
X015730Y021970D01*
X016600Y023000D02*
X016600Y027449D01*
X016915Y027449D02*
X016915Y023185D01*
X017400Y022700D01*
X017400Y020830D01*
X017415Y020815D01*
X017200Y020600D01*
X015600Y018500D02*
X013000Y021100D01*
X012100Y021100D01*
X011600Y020600D01*
X008200Y020600D01*
X008000Y020800D01*
X006600Y020800D01*
X005545Y021855D01*
X005545Y027449D01*
X005230Y027449D02*
X005230Y020670D01*
X006500Y019400D01*
X006000Y018600D02*
X012600Y018600D01*
X013000Y019100D02*
X007600Y019100D01*
X007600Y020100D02*
X012900Y020100D01*
X009600Y021300D02*
X009545Y021355D01*
X009545Y027449D01*
X009230Y027449D02*
X009230Y021930D01*
X009000Y021700D01*
X009000Y021300D01*
X008500Y022300D02*
X008915Y022715D01*
X008915Y027449D01*
X008600Y027449D02*
X008600Y023900D01*
X007900Y023200D01*
X007200Y023800D02*
X007200Y022000D01*
X007500Y021700D01*
X007500Y021600D01*
X006600Y021600D02*
X006300Y021900D01*
X006300Y025700D01*
X006600Y026000D01*
X006600Y027449D01*
X006900Y027434D02*
X006915Y027449D01*
X006900Y027434D02*
X006900Y025500D01*
X007500Y025900D02*
X007230Y026170D01*
X007230Y027449D01*
X007545Y027449D02*
X007545Y026755D01*
X008000Y026300D01*
X008000Y024800D01*
X007500Y024100D02*
X007200Y023800D01*
X007500Y024100D02*
X007500Y025900D01*
X007545Y028151D02*
X007545Y028645D01*
X008100Y029200D01*
X008100Y030100D01*
X007600Y030600D01*
X007100Y030100D02*
X006600Y030600D01*
X007100Y030100D02*
X007100Y029300D01*
X006915Y029115D01*
X006915Y028151D01*
X007230Y028151D02*
X007230Y028930D01*
X007600Y029300D01*
X007600Y029600D01*
X006600Y029600D02*
X006600Y028151D01*
X005545Y028151D02*
X005545Y028745D01*
X006100Y029300D01*
X006100Y030000D01*
X005600Y030500D01*
X005600Y030600D01*
X005100Y030100D02*
X005100Y029300D01*
X004915Y029115D01*
X004915Y028151D01*
X005230Y028151D02*
X005230Y028930D01*
X005400Y029100D01*
X005400Y029400D01*
X005600Y029600D01*
X005100Y030100D02*
X004600Y030600D01*
X004600Y029600D02*
X004600Y028151D01*
X004600Y027449D02*
X004600Y018900D01*
X005200Y018300D01*
X006000Y018600D02*
X004915Y019685D01*
X004915Y027449D01*
X003545Y027449D02*
X003545Y026655D01*
X003900Y026300D01*
X008600Y028151D02*
X008600Y029600D01*
X008915Y029115D02*
X009100Y029300D01*
X009100Y030100D01*
X008600Y030600D01*
X009600Y030600D02*
X009600Y030400D01*
X010100Y029900D01*
X010100Y029300D01*
X009545Y028745D01*
X009545Y028151D01*
X009230Y028151D02*
X009230Y028930D01*
X009600Y029300D01*
X009600Y029600D01*
X008915Y029115D02*
X008915Y028151D01*
X014600Y028151D02*
X014600Y029600D01*
X014915Y029115D02*
X015100Y029300D01*
X015100Y029900D01*
X014600Y030400D01*
X014600Y030600D01*
X015600Y030600D02*
X016100Y030100D01*
X016100Y029300D01*
X015545Y028745D01*
X015545Y028151D01*
X015230Y028151D02*
X015230Y028930D01*
X015500Y029200D01*
X015500Y029500D01*
X015600Y029600D01*
X014915Y029115D02*
X014915Y028151D01*
X016600Y028151D02*
X016600Y029600D01*
X016915Y029115D02*
X017100Y029300D01*
X017100Y030100D01*
X016600Y030600D01*
X017600Y030600D02*
X018200Y030000D01*
X018200Y029400D01*
X017545Y028745D01*
X017545Y028151D01*
X017230Y028151D02*
X017230Y029030D01*
X017600Y029400D01*
X017600Y029600D01*
X016915Y029115D02*
X016915Y028151D01*
X019300Y026300D02*
X023600Y026300D01*
X026600Y023300D01*
X026600Y017100D01*
X025600Y016100D01*
X025600Y017100D02*
X020700Y017100D01*
X020000Y017800D01*
X020000Y019000D01*
X020000Y020100D02*
X025600Y020100D01*
X025600Y019100D02*
X021200Y019100D01*
X022100Y018100D02*
X025600Y018100D01*
X025600Y009100D02*
X023900Y009100D01*
X025600Y008100D02*
X020000Y008100D01*
X018500Y006100D02*
X025600Y006100D01*
X025600Y005100D02*
X010300Y005100D01*
X009000Y005100D02*
X007600Y005100D01*
X007600Y006100D02*
X007300Y006100D01*
X006800Y006600D01*
X006800Y007300D01*
X007100Y007600D01*
X008100Y007600D01*
X008400Y007900D01*
X007600Y008100D02*
X007500Y008000D01*
X006500Y008000D01*
X006000Y008900D02*
X007400Y008900D01*
X007600Y009100D01*
X006900Y009700D02*
X006900Y009900D01*
X007100Y010100D01*
X007600Y010100D01*
X007600Y011100D02*
X007100Y011100D01*
X004100Y008100D01*
X004100Y010100D02*
X006100Y012100D01*
X007600Y012100D01*
X007600Y013100D02*
X005100Y013100D01*
X004100Y012100D01*
X004100Y014100D02*
X007600Y014100D01*
X009600Y015000D02*
X018500Y006100D01*
X023000Y007100D02*
X025600Y007100D01*
X011200Y007700D02*
X010600Y007100D01*
X007600Y007100D01*
X011200Y007700D02*
X011200Y007800D01*
X001600Y013148D02*
X001598Y013168D01*
X001594Y013187D01*
X001586Y013205D01*
X001576Y013221D01*
X001563Y013236D01*
X001200Y014948D02*
X001202Y014968D01*
X001206Y014987D01*
X001214Y015005D01*
X001224Y015021D01*
X001237Y015036D01*
D15*
X002137Y002863D02*
X003800Y001200D01*
X029948Y001200D01*
X030037Y001237D02*
X031100Y002300D01*
X031100Y008100D01*
X031100Y010100D01*
X031100Y012100D01*
X031100Y014100D01*
X031100Y028448D01*
X031063Y028537D02*
X029000Y030600D01*
X019900Y030600D01*
X031063Y028536D02*
X031076Y028521D01*
X031086Y028505D01*
X031094Y028487D01*
X031098Y028468D01*
X031100Y028448D01*
X030036Y001237D02*
X030021Y001224D01*
X030005Y001214D01*
X029987Y001206D01*
X029968Y001202D01*
X029948Y001200D01*
X002137Y002864D02*
X002124Y002879D01*
X002114Y002895D01*
X002106Y002913D01*
X002102Y002932D01*
X002100Y002952D01*
X002100Y008100D01*
X002100Y010100D01*
X002100Y012100D01*
X002100Y014100D01*
D16*
X019900Y030600D03*
D17*
X019300Y026300D03*
X016300Y022400D03*
X015900Y021800D03*
X016700Y021400D03*
X017200Y020600D03*
X015800Y020100D03*
X015700Y020800D03*
X017300Y019000D03*
X015600Y018500D03*
X014400Y016800D03*
X014400Y015000D03*
X011900Y018100D03*
X013000Y019100D03*
X012900Y020100D03*
X009600Y021300D03*
X009000Y021300D03*
X008500Y022300D03*
X007900Y023200D03*
X008000Y024800D03*
X006900Y025500D03*
X003900Y026300D03*
X006600Y021600D03*
X007500Y021600D03*
X006500Y019400D03*
X005200Y018300D03*
X003200Y018100D03*
X002500Y017200D03*
X002000Y016600D03*
X003200Y016300D03*
X001100Y012600D03*
X001100Y010500D03*
X006000Y008900D03*
X006500Y008000D03*
X006900Y009700D03*
X008400Y007900D03*
X011200Y007800D03*
X010300Y005100D03*
X009000Y005100D03*
X009600Y015000D03*
X020000Y019000D03*
X020000Y020100D03*
X021200Y019100D03*
X022100Y018100D03*
X023900Y009100D03*
X023000Y007100D03*
X020000Y008100D03*
M02*
