%
M48
M72
T01C0.0197
T02C0.0236
T03C0.0276
T04C0.0400
T05C0.0472
T06C0.0512
T07C0.0550
%
T01
X8472Y5319
X8652Y6379
X9392Y7279
X7412Y7239
X5952Y7199
X5952Y8239
X7312Y9439
X8532Y8639
X12132Y10679
X11702Y11129
X10862Y10839
X11692Y11719
X11682Y12249
X11682Y12749
X12012Y13229
X11692Y13789
X13542Y15159
X15272Y15839
X15652Y15279
X16732Y14659
X15632Y13859
X18222Y12829
X18212Y12319
X22772Y10899
X23492Y11139
X24592Y10919
X25092Y11399
X24592Y12049
X25562Y13679
X25712Y14479
X25012Y15719
X23982Y15759
X23332Y15759
X21632Y16259
X21052Y16019
X20292Y16359
X19492Y16779
X21512Y16759
X21432Y17659
X21432Y18359
X25762Y16239
X28282Y14749
X28782Y14129
X28752Y13579
X29522Y12959
X28672Y12479
X33152Y14079
X33792Y17219
X23412Y10319
X23402Y9669
X24752Y8939
X24752Y8229
X19562Y7539
X19152Y6479
X16472Y6479
X15932Y5919
X15352Y5319
X13232Y4359
X12872Y4819
X12772Y5579
X11832Y5499
X11852Y6069
X15432Y7259
X18012Y8199
X18412Y8899
X12612Y10039
X8892Y13999
X8872Y14819
X8402Y15109
X7272Y15739
X5972Y15819
X6292Y14859
X7022Y14929
X8912Y17679
X11762Y18119
X13252Y17519
X13572Y16599
X17532Y15679
X3692Y11339
X2372Y11339
X19752Y3199
X17812Y1199
T02
X16742Y12879
X17392Y14239
T03
X1781Y1913
X2781Y1913
X24128Y3524
X24128Y5524
X30060Y9572
X31060Y9572
X2447Y18667
X1447Y18667
T04
X13881Y19030
X14881Y19030
X15881Y19030
X16881Y19030
X17881Y19030
X18881Y19030
X35183Y18820
X35183Y17820
X35183Y16820
X35183Y15820
X35183Y14820
X35183Y13820
X23715Y1050
X22715Y1150
X21715Y1050
X20715Y1150
X19715Y1050
X18715Y1150
T05
X1557Y6250
X1557Y7698
X1557Y9146
X1577Y13691
X1577Y15139
X1577Y16587
T06
X35395Y3861
X35395Y1893
T07
X32622Y1237
X31372Y1237
X28872Y1237
X28872Y7487
X32622Y7487
M30
