G75*
G70*
%OFA0B0*%
%FSLAX24Y24*%
%IPPOS*%
%LPD*%
%AMOC8*
5,1,8,0,0,1.08239X$1,22.5*
%
%ADD10R,0.0789X0.0710*%
%ADD11R,0.0710X0.0789*%
%ADD12C,0.0180*%
%ADD13R,0.1110X0.1110*%
%ADD14R,0.0330X0.0580*%
%ADD15R,0.0580X0.0330*%
%ADD16C,0.1080*%
%ADD17R,0.1080X0.1080*%
%ADD18R,0.0749X0.1064*%
%ADD19R,0.0552X0.0395*%
%ADD20R,0.0552X0.0631*%
%ADD21R,0.0395X0.0552*%
%ADD22C,0.0820*%
%ADD23C,0.0730*%
%ADD24R,0.0730X0.0730*%
%ADD25R,0.0910X0.0250*%
%ADD26R,0.0660X0.0190*%
%ADD27R,0.0190X0.0660*%
%ADD28R,0.0880X0.0880*%
%ADD29C,0.0880*%
%ADD30C,0.0477*%
%ADD31C,0.0516*%
D10*
X003845Y004915D03*
X003845Y006017D03*
X003845Y007029D03*
X003845Y008131D03*
X003845Y009139D03*
X003845Y010241D03*
X003845Y012419D03*
X003845Y013521D03*
X003837Y014580D03*
X003837Y015682D03*
X003777Y016703D03*
X003777Y017806D03*
X012509Y016765D03*
X012509Y015663D03*
X013405Y014249D03*
X013405Y013147D03*
X015859Y010600D03*
X017219Y010610D03*
X017219Y009508D03*
X015859Y009498D03*
X013352Y008846D03*
X013352Y007744D03*
X016081Y002119D03*
X016081Y001016D03*
X026721Y001740D03*
X027702Y001725D03*
X027702Y002827D03*
X026721Y002842D03*
X027550Y010582D03*
X028559Y010590D03*
X028559Y011692D03*
X027550Y011684D03*
X024949Y017915D03*
X023877Y017903D03*
X023877Y019005D03*
X024949Y019017D03*
D11*
X029911Y014011D03*
X031013Y014011D03*
X023190Y013546D03*
X022088Y013546D03*
X021425Y006572D03*
X020323Y006572D03*
D12*
X026407Y012648D02*
X026407Y012948D01*
X026607Y012948D02*
X026607Y012648D01*
X026805Y012648D02*
X026805Y012948D01*
X027015Y012948D02*
X027015Y012648D01*
X027214Y012648D02*
X027214Y012948D01*
X027413Y012948D02*
X027413Y012648D01*
X027587Y013112D02*
X027887Y013112D01*
X027887Y013311D02*
X027587Y013311D01*
X027587Y013510D02*
X027887Y013510D01*
X027887Y013720D02*
X027587Y013720D01*
X027587Y013918D02*
X027887Y013918D01*
X027887Y014118D02*
X027587Y014118D01*
X027413Y014283D02*
X027413Y014583D01*
X027214Y014583D02*
X027214Y014283D01*
X027015Y014283D02*
X027015Y014583D01*
X026805Y014583D02*
X026805Y014283D01*
X026607Y014283D02*
X026607Y014583D01*
X026407Y014583D02*
X026407Y014283D01*
X026233Y014118D02*
X025933Y014118D01*
X025933Y013918D02*
X026233Y013918D01*
X026233Y013720D02*
X025933Y013720D01*
X025933Y013510D02*
X026233Y013510D01*
X026233Y013311D02*
X025933Y013311D01*
X025933Y013112D02*
X026233Y013112D01*
D13*
X026906Y013619D03*
D14*
X030098Y012933D03*
X030418Y012933D03*
X030738Y012933D03*
D15*
X030434Y014856D03*
X030434Y015256D03*
X026407Y011802D03*
X026407Y011402D03*
D16*
X028872Y007487D03*
X032622Y007487D03*
X032622Y001237D03*
X031372Y001237D03*
D17*
X028872Y001237D03*
D18*
X033912Y006062D03*
X035487Y006062D03*
D19*
X032600Y008590D03*
X032600Y009299D03*
X025626Y012011D03*
X025626Y012720D03*
X024901Y013758D03*
X024901Y014467D03*
X012467Y014234D03*
X012467Y014943D03*
X011710Y014970D03*
X011710Y015678D03*
X012447Y007745D03*
X012447Y007037D03*
X013352Y006848D03*
X013352Y006139D03*
X017171Y001524D03*
X017171Y000816D03*
D20*
X027837Y015703D03*
X029018Y015703D03*
X029005Y016708D03*
X027824Y016708D03*
X027820Y017696D03*
X029001Y017696D03*
X029001Y018652D03*
X027820Y018652D03*
D21*
X027063Y018650D03*
X026355Y018650D03*
X026353Y017704D03*
X027061Y017704D03*
X027077Y016714D03*
X026368Y016714D03*
X026378Y015709D03*
X027086Y015709D03*
X017519Y002121D03*
X016810Y002121D03*
X024955Y001727D03*
X025664Y001727D03*
D22*
X023715Y001050D03*
X022715Y001150D03*
X021715Y001050D03*
X020715Y001150D03*
X019715Y001050D03*
X018715Y001150D03*
X035183Y013820D03*
X035183Y014820D03*
X035183Y015820D03*
X035183Y016820D03*
X035183Y017820D03*
X035183Y018820D03*
X018881Y019030D03*
X017881Y019030D03*
X016881Y019030D03*
X015881Y019030D03*
X014881Y019030D03*
X013881Y019030D03*
D23*
X001781Y001913D03*
X024128Y005524D03*
X031060Y009572D03*
X001447Y018667D03*
D24*
X002447Y018667D03*
X030060Y009572D03*
X024128Y003524D03*
X002781Y001913D03*
D25*
X004977Y005483D03*
X004977Y005743D03*
X004977Y006003D03*
X004977Y006253D03*
X004977Y006513D03*
X004977Y006763D03*
X004977Y007023D03*
X004977Y007283D03*
X004977Y007533D03*
X004977Y007793D03*
X004977Y008043D03*
X004977Y008303D03*
X004977Y008563D03*
X004977Y008813D03*
X004977Y009073D03*
X004977Y009323D03*
X004977Y009583D03*
X004977Y009843D03*
X010137Y009843D03*
X010137Y009583D03*
X010137Y009323D03*
X010137Y009073D03*
X010137Y008813D03*
X010137Y008563D03*
X010137Y008303D03*
X010137Y008043D03*
X010137Y007793D03*
X010137Y007533D03*
X010137Y007283D03*
X010137Y007023D03*
X010137Y006763D03*
X010137Y006513D03*
X010137Y006253D03*
X010137Y006003D03*
X010137Y005743D03*
X010137Y005483D03*
X010137Y012884D03*
X010137Y013144D03*
X010137Y013404D03*
X010137Y013654D03*
X010137Y013914D03*
X010137Y014164D03*
X010137Y014424D03*
X010137Y014684D03*
X010137Y014934D03*
X010137Y015194D03*
X010137Y015444D03*
X010137Y015704D03*
X010137Y015964D03*
X010137Y016214D03*
X010137Y016474D03*
X010137Y016724D03*
X010137Y016984D03*
X010137Y017244D03*
X004977Y017244D03*
X004977Y016984D03*
X004977Y016724D03*
X004977Y016474D03*
X004977Y016214D03*
X004977Y015964D03*
X004977Y015704D03*
X004977Y015444D03*
X004977Y015194D03*
X004977Y014934D03*
X004977Y014684D03*
X004977Y014424D03*
X004977Y014164D03*
X004977Y013914D03*
X004977Y013654D03*
X004977Y013404D03*
X004977Y013144D03*
X004977Y012884D03*
D26*
X014338Y012874D03*
X014338Y012674D03*
X014338Y012484D03*
X014338Y012284D03*
X014338Y013074D03*
X014338Y013264D03*
X014338Y013464D03*
X014338Y013664D03*
X014338Y013854D03*
X014338Y014054D03*
X014338Y014254D03*
X014338Y014454D03*
X014338Y014644D03*
X014338Y014844D03*
X014338Y015044D03*
X014338Y015234D03*
X014338Y015434D03*
X014338Y015634D03*
X014338Y015824D03*
X014338Y016024D03*
X019538Y016024D03*
X019538Y015824D03*
X019538Y015634D03*
X019538Y015434D03*
X019538Y015234D03*
X019538Y015044D03*
X019538Y014844D03*
X019538Y014644D03*
X019538Y014454D03*
X019538Y014254D03*
X019538Y014054D03*
X019538Y013854D03*
X019538Y013664D03*
X019538Y013464D03*
X019538Y013264D03*
X019538Y013074D03*
X019538Y012874D03*
X019538Y012674D03*
X019538Y012484D03*
X019538Y012284D03*
D27*
X018808Y011554D03*
X018608Y011554D03*
X018418Y011554D03*
X018218Y011554D03*
X018018Y011554D03*
X017828Y011554D03*
X017628Y011554D03*
X017428Y011554D03*
X017238Y011554D03*
X017038Y011554D03*
X016838Y011554D03*
X016638Y011554D03*
X016448Y011554D03*
X016248Y011554D03*
X016048Y011554D03*
X015858Y011554D03*
X015658Y011554D03*
X015458Y011554D03*
X015268Y011554D03*
X015068Y011554D03*
X015068Y016754D03*
X015268Y016754D03*
X015458Y016754D03*
X015658Y016754D03*
X015858Y016754D03*
X016048Y016754D03*
X016248Y016754D03*
X016448Y016754D03*
X016638Y016754D03*
X016838Y016754D03*
X017038Y016754D03*
X017238Y016754D03*
X017428Y016754D03*
X017628Y016754D03*
X017828Y016754D03*
X018018Y016754D03*
X018218Y016754D03*
X018418Y016754D03*
X018608Y016754D03*
X018808Y016754D03*
D28*
X001577Y016587D03*
X001557Y009146D03*
X035395Y001893D03*
D29*
X035395Y003861D03*
X001557Y006250D03*
X001557Y007698D03*
X001577Y013691D03*
X001577Y015139D03*
D30*
X005972Y015819D03*
X007272Y015739D03*
X008402Y015109D03*
X008872Y014819D03*
X008892Y013999D03*
X007022Y014929D03*
X006292Y014859D03*
X008912Y017679D03*
X011762Y018119D03*
X013252Y017519D03*
X013572Y016599D03*
X015272Y015839D03*
X015652Y015279D03*
X016732Y014659D03*
X015632Y013859D03*
X013542Y015159D03*
X011692Y013789D03*
X012012Y013229D03*
X011682Y012749D03*
X011682Y012249D03*
X011692Y011719D03*
X011702Y011129D03*
X012132Y010679D03*
X012612Y010039D03*
X010862Y010839D03*
X007312Y009439D03*
X008532Y008639D03*
X009392Y007279D03*
X008652Y006379D03*
X008472Y005319D03*
X011832Y005499D03*
X012772Y005579D03*
X012872Y004819D03*
X013232Y004359D03*
X015352Y005319D03*
X015932Y005919D03*
X016472Y006479D03*
X015432Y007259D03*
X018012Y008199D03*
X018412Y008899D03*
X019562Y007539D03*
X019152Y006479D03*
X019752Y003199D03*
X017812Y001199D03*
X011852Y006069D03*
X007412Y007239D03*
X005952Y007199D03*
X005952Y008239D03*
X003692Y011339D03*
X002372Y011339D03*
X017532Y015679D03*
X019492Y016779D03*
X020292Y016359D03*
X021052Y016019D03*
X021632Y016259D03*
X021512Y016759D03*
X021432Y017659D03*
X021432Y018359D03*
X025762Y016239D03*
X025012Y015719D03*
X023982Y015759D03*
X023332Y015759D03*
X025712Y014479D03*
X025562Y013679D03*
X028282Y014749D03*
X028782Y014129D03*
X028752Y013579D03*
X029522Y012959D03*
X028672Y012479D03*
X025092Y011399D03*
X024592Y010919D03*
X023492Y011139D03*
X022772Y010899D03*
X023412Y010319D03*
X023402Y009669D03*
X024752Y008939D03*
X024752Y008229D03*
X024592Y012049D03*
X018212Y012319D03*
X018222Y012829D03*
X033152Y014079D03*
X033792Y017219D03*
D31*
X017392Y014239D03*
X016742Y012879D03*
M02*
