G75*
G70*
%OFA0B0*%
%FSLAX24Y24*%
%IPPOS*%
%LPD*%
%AMOC8*
5,1,8,0,0,1.08239X$1,22.5*
%
%ADD10C,0.1080*%
%ADD11R,0.1080X0.1080*%
%ADD12C,0.0820*%
%ADD13C,0.0730*%
%ADD14R,0.0730X0.0730*%
%ADD15R,0.1340X0.0789*%
%ADD16R,0.0789X0.0710*%
%ADD17R,0.0710X0.0789*%
%ADD18R,0.0880X0.0880*%
%ADD19C,0.0880*%
%ADD20C,0.0477*%
%ADD21C,0.0516*%
D10*
X028872Y007487D03*
X032622Y007487D03*
X032622Y001237D03*
X031372Y001237D03*
D11*
X028872Y001237D03*
D12*
X023715Y001050D03*
X022715Y001150D03*
X021715Y001050D03*
X020715Y001150D03*
X019715Y001050D03*
X018715Y001150D03*
X035183Y013820D03*
X035183Y014820D03*
X035183Y015820D03*
X035183Y016820D03*
X035183Y017820D03*
X035183Y018820D03*
X018881Y019030D03*
X017881Y019030D03*
X016881Y019030D03*
X015881Y019030D03*
X014881Y019030D03*
X013881Y019030D03*
D13*
X001781Y001913D03*
X024128Y005524D03*
X031060Y009572D03*
X001447Y018667D03*
D14*
X002447Y018667D03*
X030060Y009572D03*
X024128Y003524D03*
X002781Y001913D03*
D15*
X005894Y004081D03*
X007385Y004087D03*
X007385Y006291D03*
X005894Y006286D03*
X007281Y008379D03*
X007281Y010583D03*
X007283Y011703D03*
X005890Y011712D03*
X005890Y013916D03*
X007283Y013908D03*
X007251Y016637D03*
X007251Y018841D03*
D16*
X008914Y016979D03*
X008914Y015876D03*
X010024Y015759D03*
X010024Y014656D03*
X008776Y013190D03*
X008776Y012088D03*
X009482Y009658D03*
X009482Y008556D03*
X009206Y005160D03*
X009206Y004057D03*
D17*
X009351Y006366D03*
X010453Y006366D03*
D18*
X001557Y009146D03*
X001577Y016587D03*
X035395Y001893D03*
D19*
X035395Y003861D03*
X001557Y006250D03*
X001557Y007698D03*
X001577Y013691D03*
X001577Y015139D03*
D20*
X005972Y015819D03*
X007272Y015739D03*
X008402Y015109D03*
X008872Y014819D03*
X008892Y013999D03*
X007022Y014929D03*
X006292Y014859D03*
X008912Y017679D03*
X011762Y018119D03*
X013252Y017519D03*
X013572Y016599D03*
X015272Y015839D03*
X015652Y015279D03*
X016732Y014659D03*
X015632Y013859D03*
X013542Y015159D03*
X011692Y013789D03*
X012012Y013229D03*
X011682Y012749D03*
X011682Y012249D03*
X011692Y011719D03*
X011702Y011129D03*
X012132Y010679D03*
X012612Y010039D03*
X010862Y010839D03*
X007312Y009439D03*
X008532Y008639D03*
X009392Y007279D03*
X008652Y006379D03*
X008472Y005319D03*
X011832Y005499D03*
X012772Y005579D03*
X012872Y004819D03*
X013232Y004359D03*
X015352Y005319D03*
X015932Y005919D03*
X016472Y006479D03*
X015432Y007259D03*
X018012Y008199D03*
X018412Y008899D03*
X019562Y007539D03*
X019152Y006479D03*
X019752Y003199D03*
X017812Y001199D03*
X011852Y006069D03*
X007412Y007239D03*
X005952Y007199D03*
X005952Y008239D03*
X003692Y011339D03*
X002372Y011339D03*
X017532Y015679D03*
X019492Y016779D03*
X020292Y016359D03*
X021052Y016019D03*
X021632Y016259D03*
X021512Y016759D03*
X021432Y017659D03*
X021432Y018359D03*
X025762Y016239D03*
X025012Y015719D03*
X023982Y015759D03*
X023332Y015759D03*
X025712Y014479D03*
X025562Y013679D03*
X028282Y014749D03*
X028782Y014129D03*
X028752Y013579D03*
X029522Y012959D03*
X028672Y012479D03*
X025092Y011399D03*
X024592Y010919D03*
X023492Y011139D03*
X022772Y010899D03*
X023412Y010319D03*
X023402Y009669D03*
X024752Y008939D03*
X024752Y008229D03*
X024592Y012049D03*
X018212Y012319D03*
X018222Y012829D03*
X033152Y014079D03*
X033792Y017219D03*
D21*
X017392Y014239D03*
X016742Y012879D03*
M02*
