G75*
G70*
%OFA0B0*%
%FSLAX24Y24*%
%IPPOS*%
%LPD*%
%AMOC8*
5,1,8,0,0,1.08239X$1,22.5*
%
%ADD10C,0.0000*%
%ADD11R,0.0709X0.0630*%
%ADD12R,0.0630X0.0709*%
%ADD13C,0.0100*%
%ADD14R,0.1030X0.1030*%
%ADD15R,0.0250X0.0500*%
%ADD16C,0.0080*%
%ADD17R,0.0500X0.0250*%
%ADD18C,0.1000*%
%ADD19R,0.1000X0.1000*%
%ADD20R,0.0669X0.0984*%
%ADD21R,0.0472X0.0315*%
%ADD22R,0.0472X0.0551*%
%ADD23R,0.0315X0.0472*%
%ADD24C,0.0740*%
%ADD25C,0.0650*%
%ADD26R,0.0650X0.0650*%
%ADD27R,0.0830X0.0170*%
%ADD28R,0.0580X0.0110*%
%ADD29R,0.0110X0.0580*%
%ADD30R,0.0800X0.0800*%
%ADD31C,0.0800*%
%ADD32C,0.0160*%
%ADD33C,0.0397*%
%ADD34C,0.0436*%
%ADD35C,0.0120*%
%ADD36C,0.0760*%
%ADD37C,0.0860*%
%ADD38C,0.1000*%
%ADD39C,0.0320*%
D10*
X001354Y000159D02*
X035935Y000159D01*
X035971Y000161D01*
X036007Y000166D01*
X036042Y000175D01*
X036075Y000187D01*
X036108Y000202D01*
X036139Y000221D01*
X036168Y000242D01*
X036195Y000266D01*
X036219Y000293D01*
X036240Y000322D01*
X036259Y000353D01*
X036274Y000386D01*
X036286Y000419D01*
X036295Y000454D01*
X036300Y000490D01*
X036302Y000526D01*
X036302Y019283D01*
X036300Y019329D01*
X036294Y019375D01*
X036285Y019421D01*
X036272Y019465D01*
X036255Y019508D01*
X036234Y019550D01*
X036211Y019590D01*
X036184Y019628D01*
X036154Y019663D01*
X036121Y019696D01*
X036086Y019726D01*
X036048Y019753D01*
X036008Y019776D01*
X035966Y019797D01*
X035923Y019814D01*
X035879Y019827D01*
X035833Y019836D01*
X035787Y019842D01*
X035741Y019844D01*
X001191Y019844D01*
X001145Y019842D01*
X001099Y019836D01*
X001054Y019827D01*
X001009Y019814D01*
X000966Y019797D01*
X000925Y019777D01*
X000885Y019753D01*
X000848Y019726D01*
X000812Y019696D01*
X000780Y019664D01*
X000750Y019628D01*
X000723Y019591D01*
X000699Y019551D01*
X000679Y019510D01*
X000662Y019467D01*
X000649Y019422D01*
X000640Y019377D01*
X000634Y019331D01*
X000632Y019285D01*
X000632Y000881D01*
X000634Y000829D01*
X000639Y000778D01*
X000648Y000728D01*
X000661Y000678D01*
X000678Y000629D01*
X000697Y000581D01*
X000720Y000535D01*
X000747Y000491D01*
X000776Y000448D01*
X000808Y000408D01*
X000843Y000370D01*
X000881Y000335D01*
X000921Y000303D01*
X000964Y000274D01*
X001008Y000247D01*
X001054Y000224D01*
X001102Y000205D01*
X001151Y000188D01*
X001201Y000175D01*
X001251Y000166D01*
X001302Y000161D01*
X001354Y000159D01*
D11*
X003845Y004915D03*
X003845Y006017D03*
X003845Y007029D03*
X003845Y008131D03*
X003845Y009139D03*
X003845Y010241D03*
X003845Y012419D03*
X003845Y013521D03*
X003837Y014580D03*
X003837Y015682D03*
X003777Y016703D03*
X003777Y017806D03*
X012509Y016765D03*
X012509Y015663D03*
X013405Y014249D03*
X013405Y013147D03*
X015859Y010600D03*
X017219Y010610D03*
X017219Y009508D03*
X015859Y009498D03*
X013352Y008846D03*
X013352Y007744D03*
X016081Y002119D03*
X016081Y001016D03*
X026721Y001740D03*
X027702Y001725D03*
X027702Y002827D03*
X026721Y002842D03*
X027550Y010582D03*
X028559Y010590D03*
X028559Y011692D03*
X027550Y011684D03*
X024949Y017915D03*
X023877Y017903D03*
X023877Y019005D03*
X024949Y019017D03*
D12*
X029911Y014011D03*
X031013Y014011D03*
X023190Y013546D03*
X022088Y013546D03*
X021425Y006572D03*
X020323Y006572D03*
D13*
X020229Y006479D01*
X020323Y006572D02*
X020326Y006576D01*
X018022Y008209D02*
X018012Y008199D01*
X018022Y008209D02*
X018022Y011499D01*
X018012Y011509D01*
X018012Y011548D01*
X018018Y011554D01*
X017832Y011558D02*
X017828Y011554D01*
X017832Y011558D02*
X017832Y012679D01*
X017972Y012819D01*
X018212Y012819D01*
X018222Y012829D01*
X018492Y013169D02*
X018672Y012989D01*
X018672Y012289D01*
X020062Y010899D01*
X022772Y010899D01*
X023332Y011299D02*
X019952Y011299D01*
X019012Y012239D01*
X019012Y013209D01*
X018852Y013369D01*
X017692Y013369D01*
X017428Y013105D01*
X017428Y011554D01*
X017242Y011558D02*
X017242Y013624D01*
X016788Y013624D01*
X016748Y013664D01*
X016732Y013680D01*
X016732Y014659D01*
X017392Y014279D02*
X018752Y015639D01*
X019534Y015639D01*
X019538Y015634D01*
X019544Y015819D02*
X019538Y015824D01*
X019543Y015829D01*
X020482Y015829D01*
X020652Y015659D01*
X021432Y015659D01*
X021632Y015859D01*
X021632Y016259D01*
X021052Y016019D02*
X020912Y016019D01*
X020902Y016029D01*
X019543Y016029D01*
X019538Y016024D01*
X019544Y016019D01*
X019032Y016359D02*
X020292Y016359D01*
X019512Y016759D02*
X019492Y016779D01*
X019512Y016759D02*
X021512Y016759D01*
X022272Y016499D02*
X022732Y016959D01*
X025312Y016959D01*
X025602Y017249D01*
X025602Y018369D01*
X025892Y018659D01*
X026346Y018659D01*
X026355Y018650D01*
X027063Y018650D02*
X027818Y018650D01*
X027820Y018652D01*
X027812Y017704D02*
X027061Y017704D01*
X026353Y017704D02*
X026338Y017689D01*
X026072Y017689D01*
X025892Y017509D01*
X025892Y017069D01*
X025522Y016699D01*
X022902Y016699D01*
X022592Y016389D01*
X022592Y015899D01*
X021928Y015234D01*
X019538Y015234D01*
X019538Y015044D02*
X020046Y015044D01*
X020432Y014659D01*
X023132Y014659D01*
X023332Y014859D01*
X023332Y015759D01*
X023982Y015759D02*
X023982Y015039D01*
X023402Y014459D01*
X020332Y014459D01*
X019946Y014844D01*
X019538Y014844D01*
X019538Y014254D02*
X020128Y014254D01*
X020128Y014143D01*
X020272Y013999D01*
X020128Y014254D02*
X020132Y014259D01*
X019538Y013664D02*
X021969Y013664D01*
X022088Y013546D01*
X022088Y013383D01*
X021472Y012709D02*
X020716Y013464D01*
X019538Y013464D01*
X019538Y013264D02*
X020496Y013264D01*
X021342Y012419D01*
X024072Y012419D01*
X024762Y013109D01*
X025862Y013109D01*
X025626Y012873D01*
X025626Y012720D01*
X025862Y013109D02*
X026079Y013109D01*
X026083Y013112D01*
X026233Y013112D02*
X025933Y013112D01*
X025933Y013311D02*
X026233Y013311D01*
X026083Y013311D02*
X026075Y013319D01*
X024762Y013319D01*
X024901Y013458D01*
X024901Y013758D01*
X024762Y013319D02*
X024542Y013319D01*
X023932Y012709D01*
X021472Y012709D01*
X020842Y012049D02*
X020406Y012484D01*
X019538Y012484D01*
X019538Y012284D02*
X020046Y012284D01*
X020652Y011679D01*
X023822Y011679D01*
X024092Y011409D01*
X024092Y008889D01*
X024752Y008229D01*
X024752Y008939D02*
X024592Y009099D01*
X024592Y010919D01*
X025092Y011399D02*
X025626Y011933D01*
X025626Y012011D01*
X026407Y011803D02*
X026407Y011802D01*
X026407Y011803D02*
X026407Y012798D01*
X026407Y012948D02*
X026407Y012648D01*
X026607Y012648D02*
X026607Y012948D01*
X026805Y012948D02*
X026805Y012648D01*
X027015Y012648D02*
X027015Y012948D01*
X027214Y012948D02*
X027214Y012648D01*
X027413Y012648D02*
X027413Y012948D01*
X027587Y013112D02*
X027887Y013112D01*
X027960Y013311D02*
X028192Y013079D01*
X028192Y012669D01*
X027942Y012419D01*
X027742Y012419D01*
X027552Y012229D01*
X027552Y011686D01*
X027550Y011684D01*
X028559Y011692D02*
X028672Y011806D01*
X028672Y012479D01*
X028372Y013199D02*
X029102Y013199D01*
X029292Y013389D01*
X030342Y013389D01*
X030412Y013319D01*
X030412Y012940D01*
X030418Y012933D01*
X030098Y012933D02*
X030073Y012959D01*
X028752Y013579D02*
X028610Y013720D01*
X027737Y013720D01*
X027887Y013720D02*
X027587Y013720D01*
X027587Y013918D02*
X027887Y013918D01*
X027982Y013918D02*
X028482Y014419D01*
X028532Y014419D01*
X028892Y014779D01*
X029052Y014779D01*
X029412Y014779D01*
X030357Y014779D01*
X030434Y014856D01*
X030434Y015256D02*
X030434Y015661D01*
X030452Y015679D01*
X030452Y015669D01*
X030432Y015669D01*
X027837Y015703D02*
X027831Y015709D01*
X027086Y015709D01*
X026378Y015709D02*
X026368Y015719D01*
X025012Y015719D01*
X025762Y016239D02*
X025893Y016239D01*
X026368Y016714D01*
X027077Y016714D02*
X027819Y016714D01*
X027824Y016708D01*
X027820Y017696D02*
X027812Y017704D01*
X024949Y017915D02*
X024932Y017897D01*
X024932Y017559D01*
X024732Y017359D01*
X022272Y017359D01*
X022002Y017629D01*
X022002Y018509D01*
X021802Y018709D01*
X020902Y018709D01*
X020352Y018159D01*
X018032Y018159D01*
X017038Y017165D01*
X017038Y016754D01*
X017232Y016748D02*
X017238Y016754D01*
X017232Y016748D02*
X017232Y016359D01*
X016332Y015459D01*
X016332Y013359D01*
X016132Y013159D01*
X015432Y013159D01*
X015052Y012779D01*
X015052Y012079D01*
X014832Y011859D01*
X014832Y008159D01*
X015432Y007559D01*
X015432Y007259D01*
X015332Y006859D02*
X014552Y007639D01*
X014552Y011919D01*
X014832Y012199D01*
X014832Y012859D01*
X015332Y013359D01*
X015782Y013359D01*
X015982Y013559D01*
X015982Y014349D01*
X015876Y014454D01*
X014338Y014454D01*
X014338Y014054D02*
X013600Y014054D01*
X013405Y014249D01*
X013812Y013679D02*
X013988Y013854D01*
X014338Y013854D01*
X015628Y013854D01*
X015632Y013859D01*
X016712Y013589D02*
X016712Y013379D01*
X015858Y012525D01*
X015858Y011554D01*
X015858Y010600D01*
X015859Y010600D01*
X017219Y010610D02*
X017238Y010630D01*
X017238Y011554D01*
X017242Y011558D01*
X017038Y011554D02*
X017038Y012583D01*
X016742Y012879D01*
X016048Y012185D01*
X016048Y011554D01*
X015268Y011554D02*
X015268Y008483D01*
X016952Y006799D01*
X016952Y006219D01*
X016752Y006019D01*
X016032Y006019D01*
X015932Y005919D01*
X016472Y006479D02*
X016492Y006499D01*
X016492Y006919D01*
X015068Y008343D01*
X015068Y011554D01*
X017628Y011554D02*
X017628Y012855D01*
X017942Y013169D01*
X018492Y013169D01*
X019538Y013664D02*
X017282Y013664D01*
X017242Y013624D01*
X016752Y013629D02*
X016712Y013589D01*
X016752Y013629D02*
X016732Y013649D01*
X016748Y013664D01*
X017392Y014239D02*
X017392Y014279D01*
X017232Y015159D02*
X017832Y015159D01*
X019032Y016359D01*
X018808Y016754D02*
X018812Y016758D01*
X018812Y017239D01*
X019132Y017559D01*
X021332Y017559D01*
X021432Y017659D01*
X021032Y017959D02*
X019232Y017959D01*
X018612Y017339D01*
X018612Y016758D01*
X018608Y016754D01*
X018218Y016754D02*
X018212Y016748D01*
X018212Y016279D01*
X017612Y015679D01*
X017532Y015679D01*
X017302Y016129D02*
X017032Y015859D01*
X017032Y015359D01*
X017232Y015159D01*
X017302Y016129D02*
X017572Y016129D01*
X017632Y016189D01*
X017632Y016758D01*
X017628Y016754D01*
X016838Y016754D02*
X016838Y017365D01*
X017832Y018359D01*
X019902Y018359D01*
X020602Y019059D01*
X022072Y019059D01*
X022572Y018559D01*
X022572Y018089D01*
X022802Y017859D01*
X023833Y017859D01*
X023877Y017903D01*
X021432Y018359D02*
X021032Y017959D01*
X022272Y016499D02*
X022272Y016049D01*
X021658Y015434D01*
X019538Y015434D01*
X016838Y016754D02*
X016832Y016761D01*
X016642Y016758D02*
X016638Y016754D01*
X016642Y016758D02*
X016642Y017639D01*
X016881Y017877D01*
X016881Y019030D01*
X016448Y018343D02*
X015932Y018859D01*
X015932Y018978D01*
X015881Y019030D01*
X015432Y018159D02*
X014881Y018710D01*
X014881Y019030D01*
X013881Y019030D02*
X013881Y018910D01*
X014932Y017859D01*
X015832Y017859D01*
X016032Y017659D01*
X016032Y017649D01*
X016042Y017639D01*
X016042Y017629D01*
X016052Y017619D01*
X016052Y016758D01*
X016048Y016754D01*
X016242Y016761D02*
X016248Y016754D01*
X016242Y016761D02*
X016242Y017949D01*
X016032Y018159D01*
X015432Y018159D01*
X016448Y018343D02*
X016448Y016754D01*
X015658Y016754D02*
X015652Y016748D01*
X015652Y015279D01*
X015272Y015839D02*
X015272Y016751D01*
X015268Y016754D01*
X014132Y016659D02*
X014132Y016231D01*
X014338Y016024D01*
X014332Y016031D01*
X014334Y015639D02*
X013892Y015639D01*
X013572Y015959D01*
X013572Y016599D01*
X013832Y016959D02*
X014132Y016659D01*
X013832Y016959D02*
X013832Y017659D01*
X012982Y018509D01*
X011642Y018509D01*
X010942Y017809D01*
X010942Y017039D01*
X010628Y016724D01*
X010137Y016724D01*
X010137Y016474D02*
X010718Y016474D01*
X011282Y017039D01*
X011282Y017639D01*
X011762Y018119D01*
X012122Y017819D02*
X012952Y017819D01*
X013252Y017519D01*
X013112Y017169D02*
X013112Y015769D01*
X013022Y015679D01*
X012525Y015679D01*
X012509Y015663D01*
X012467Y015621D01*
X011767Y015621D01*
X011710Y015678D01*
X011582Y016259D02*
X010768Y015444D01*
X010137Y015444D01*
X010132Y015699D02*
X009642Y015699D01*
X009532Y015589D01*
X009532Y015049D01*
X009647Y014934D01*
X010137Y014934D01*
X010122Y014919D01*
X010137Y014684D02*
X010132Y014679D01*
X009522Y014679D01*
X009302Y014459D01*
X008582Y014459D01*
X008442Y014599D01*
X008442Y015069D01*
X008402Y015109D01*
X010132Y015699D02*
X010137Y015704D01*
X010137Y015964D02*
X010838Y015964D01*
X011792Y016919D01*
X011792Y017129D01*
X012082Y017419D01*
X012862Y017419D01*
X013112Y017169D01*
X012509Y016765D02*
X012002Y016259D01*
X011582Y016259D01*
X011532Y016999D02*
X010748Y016214D01*
X010137Y016214D01*
X011532Y016999D02*
X011532Y017229D01*
X012122Y017819D01*
X012467Y015621D02*
X012467Y014943D01*
X011710Y014970D02*
X011043Y014970D01*
X010882Y014809D01*
X010882Y014499D01*
X010802Y014419D01*
X010143Y014419D01*
X010137Y014424D01*
X010137Y014164D02*
X011317Y014164D01*
X011692Y013789D01*
X011592Y013309D02*
X010987Y013914D01*
X010137Y013914D01*
X010137Y013654D02*
X010887Y013654D01*
X011582Y012959D01*
X011582Y012849D01*
X011682Y012749D01*
X011592Y012839D01*
X011082Y013049D02*
X011082Y012569D01*
X011392Y012259D01*
X011672Y012259D01*
X011682Y012249D01*
X011152Y011719D02*
X010692Y012179D01*
X010692Y013059D01*
X010607Y013144D01*
X010137Y013144D01*
X010137Y013404D02*
X010727Y013404D01*
X011082Y013049D01*
X011592Y013309D02*
X011932Y013309D01*
X012012Y013229D01*
X012797Y013584D02*
X012912Y013699D01*
X013405Y013147D02*
X013812Y013554D01*
X013812Y013679D01*
X014338Y015634D02*
X014334Y015639D01*
X018212Y012319D02*
X018212Y011561D01*
X018218Y011554D01*
X018412Y011548D02*
X018418Y011554D01*
X018412Y011548D02*
X018412Y008899D01*
X019332Y009819D02*
X023252Y009819D01*
X023402Y009669D01*
X023412Y010319D02*
X023372Y010359D01*
X019402Y010359D01*
X018808Y010953D01*
X018808Y011554D01*
X018608Y011554D02*
X018608Y010543D01*
X019332Y009819D01*
X020842Y012049D02*
X024592Y012049D01*
X023492Y011139D02*
X023332Y011299D01*
X026362Y011089D02*
X026502Y011089D01*
X026532Y011119D01*
X026407Y011133D02*
X026362Y011089D01*
X026407Y011133D02*
X026407Y011402D01*
X027587Y013311D02*
X027887Y013311D01*
X027960Y013311D02*
X027737Y013311D01*
X027887Y013510D02*
X027587Y013510D01*
X027737Y013510D02*
X028061Y013510D01*
X028372Y013199D01*
X027982Y013918D02*
X027737Y013918D01*
X027887Y014118D02*
X027587Y014118D01*
X027413Y014283D02*
X027413Y014583D01*
X027413Y014729D02*
X027413Y014433D01*
X027214Y014583D02*
X027214Y014283D01*
X027015Y014283D02*
X027015Y014583D01*
X026805Y014583D02*
X026805Y014283D01*
X026607Y014283D02*
X026607Y014583D01*
X026407Y014583D02*
X026407Y014283D01*
X026407Y014433D02*
X025758Y014433D01*
X025712Y014479D01*
X025933Y014118D02*
X026233Y014118D01*
X026082Y013919D02*
X026083Y013918D01*
X026233Y013918D02*
X025933Y013918D01*
X026082Y013919D02*
X025712Y013919D01*
X025562Y013769D01*
X025562Y013679D01*
X025933Y013720D02*
X026233Y013720D01*
X026233Y013510D02*
X025933Y013510D01*
X024901Y014467D02*
X024873Y014439D01*
X027413Y014729D02*
X027433Y014749D01*
X027413Y014758D02*
X027413Y014729D01*
X028782Y014129D02*
X029793Y014129D01*
X029911Y014011D01*
X033152Y014079D02*
X033152Y015439D01*
X033532Y015819D01*
X035182Y015819D01*
X035183Y015820D01*
X030060Y009572D02*
X030036Y009549D01*
X032600Y008590D02*
X032622Y008569D01*
X032622Y007487D01*
X027772Y005019D02*
X027702Y004948D01*
X027702Y002827D01*
X026721Y001740D02*
X026708Y001727D01*
X025664Y001727D01*
X024955Y001727D02*
X024955Y002696D01*
X024128Y003524D01*
X019715Y001050D02*
X019712Y001047D01*
X018715Y001150D02*
X018712Y001152D01*
X018712Y001639D01*
X018230Y002121D01*
X017519Y002121D01*
X017812Y001827D01*
X017812Y001199D01*
X017172Y001526D02*
X017171Y001524D01*
X017172Y001526D02*
X017172Y001979D01*
X017030Y002121D01*
X016810Y002121D01*
X016809Y002119D01*
X016081Y002119D01*
X017171Y000816D02*
X017171Y000800D01*
X013232Y004359D02*
X011982Y004359D01*
X010598Y005743D01*
X010137Y005743D01*
X010137Y006003D02*
X010798Y006003D01*
X011982Y004819D01*
X012872Y004819D01*
X012772Y005579D02*
X012222Y006129D01*
X012222Y006449D01*
X011908Y006763D01*
X010137Y006763D01*
X010137Y006513D02*
X011668Y006513D01*
X011852Y006329D01*
X011852Y006069D01*
X011832Y005499D02*
X011078Y006253D01*
X010137Y006253D01*
X010137Y007023D02*
X010151Y007037D01*
X012447Y007037D01*
X012234Y007533D02*
X012447Y007745D01*
X013351Y007745D01*
X013352Y007744D01*
X013972Y008363D01*
X013972Y009299D01*
X013702Y009569D01*
X012562Y009569D01*
X011296Y008303D01*
X010137Y008303D01*
X010137Y008043D02*
X011636Y008043D01*
X012442Y008849D01*
X013350Y008849D01*
X013352Y008846D01*
X011892Y009679D02*
X011892Y010439D01*
X012132Y010679D01*
X011702Y011129D02*
X011622Y011129D01*
X011492Y010999D01*
X011492Y009759D01*
X011056Y009323D01*
X010137Y009323D01*
X010137Y009073D02*
X011286Y009073D01*
X011892Y009679D01*
X012612Y010039D02*
X011386Y008813D01*
X010137Y008813D01*
X010137Y007533D02*
X012234Y007533D01*
X013352Y007743D02*
X013352Y006848D01*
X013352Y007743D02*
X013352Y007744D01*
X015332Y006859D02*
X015332Y005339D01*
X015352Y005319D01*
X012772Y005579D02*
X012642Y005709D01*
X011692Y011719D02*
X011152Y011719D01*
D14*
X026906Y013619D03*
D15*
X030098Y012933D03*
X030418Y012933D03*
X030738Y012933D03*
D16*
X030434Y014906D02*
X030434Y015206D01*
X026407Y011752D02*
X026407Y011452D01*
D17*
X026407Y011402D03*
X026407Y011802D03*
X030434Y014856D03*
X030434Y015256D03*
D18*
X028872Y007487D03*
X032622Y007487D03*
X032622Y001237D03*
X031372Y001237D03*
D19*
X028872Y001237D03*
D20*
X033912Y006062D03*
X035487Y006062D03*
D21*
X032600Y008590D03*
X032600Y009299D03*
X025626Y012011D03*
X025626Y012720D03*
X024901Y013758D03*
X024901Y014467D03*
X012467Y014234D03*
X012467Y014943D03*
X011710Y014970D03*
X011710Y015678D03*
X012447Y007745D03*
X012447Y007037D03*
X013352Y006848D03*
X013352Y006139D03*
X017171Y001524D03*
X017171Y000816D03*
D22*
X027837Y015703D03*
X029018Y015703D03*
X029005Y016708D03*
X027824Y016708D03*
X027820Y017696D03*
X029001Y017696D03*
X029001Y018652D03*
X027820Y018652D03*
D23*
X027063Y018650D03*
X026355Y018650D03*
X026353Y017704D03*
X027061Y017704D03*
X027077Y016714D03*
X026368Y016714D03*
X026378Y015709D03*
X027086Y015709D03*
X017519Y002121D03*
X016810Y002121D03*
X024955Y001727D03*
X025664Y001727D03*
D24*
X023715Y001050D03*
X022715Y001150D03*
X021715Y001050D03*
X020715Y001150D03*
X019715Y001050D03*
X018715Y001150D03*
X035183Y013820D03*
X035183Y014820D03*
X035183Y015820D03*
X035183Y016820D03*
X035183Y017820D03*
X035183Y018820D03*
X018881Y019030D03*
X017881Y019030D03*
X016881Y019030D03*
X015881Y019030D03*
X014881Y019030D03*
X013881Y019030D03*
D25*
X001447Y018667D03*
X024128Y005524D03*
X031060Y009572D03*
X001781Y001913D03*
D26*
X002781Y001913D03*
X024128Y003524D03*
X030060Y009572D03*
X002447Y018667D03*
D27*
X004977Y017244D03*
X004977Y016984D03*
X004977Y016724D03*
X004977Y016474D03*
X004977Y016214D03*
X004977Y015964D03*
X004977Y015704D03*
X004977Y015444D03*
X004977Y015194D03*
X004977Y014934D03*
X004977Y014684D03*
X004977Y014424D03*
X004977Y014164D03*
X004977Y013914D03*
X004977Y013654D03*
X004977Y013404D03*
X004977Y013144D03*
X004977Y012884D03*
X010137Y012884D03*
X010137Y013144D03*
X010137Y013404D03*
X010137Y013654D03*
X010137Y013914D03*
X010137Y014164D03*
X010137Y014424D03*
X010137Y014684D03*
X010137Y014934D03*
X010137Y015194D03*
X010137Y015444D03*
X010137Y015704D03*
X010137Y015964D03*
X010137Y016214D03*
X010137Y016474D03*
X010137Y016724D03*
X010137Y016984D03*
X010137Y017244D03*
X010137Y009843D03*
X010137Y009583D03*
X010137Y009323D03*
X010137Y009073D03*
X010137Y008813D03*
X010137Y008563D03*
X010137Y008303D03*
X010137Y008043D03*
X010137Y007793D03*
X010137Y007533D03*
X010137Y007283D03*
X010137Y007023D03*
X010137Y006763D03*
X010137Y006513D03*
X010137Y006253D03*
X010137Y006003D03*
X010137Y005743D03*
X010137Y005483D03*
X004977Y005483D03*
X004977Y005743D03*
X004977Y006003D03*
X004977Y006253D03*
X004977Y006513D03*
X004977Y006763D03*
X004977Y007023D03*
X004977Y007283D03*
X004977Y007533D03*
X004977Y007793D03*
X004977Y008043D03*
X004977Y008303D03*
X004977Y008563D03*
X004977Y008813D03*
X004977Y009073D03*
X004977Y009323D03*
X004977Y009583D03*
X004977Y009843D03*
D28*
X014338Y012284D03*
X014338Y012484D03*
X014338Y012674D03*
X014338Y012874D03*
X014338Y013074D03*
X014338Y013264D03*
X014338Y013464D03*
X014338Y013664D03*
X014338Y013854D03*
X014338Y014054D03*
X014338Y014254D03*
X014338Y014454D03*
X014338Y014644D03*
X014338Y014844D03*
X014338Y015044D03*
X014338Y015234D03*
X014338Y015434D03*
X014338Y015634D03*
X014338Y015824D03*
X014338Y016024D03*
X019538Y016024D03*
X019538Y015824D03*
X019538Y015634D03*
X019538Y015434D03*
X019538Y015234D03*
X019538Y015044D03*
X019538Y014844D03*
X019538Y014644D03*
X019538Y014454D03*
X019538Y014254D03*
X019538Y014054D03*
X019538Y013854D03*
X019538Y013664D03*
X019538Y013464D03*
X019538Y013264D03*
X019538Y013074D03*
X019538Y012874D03*
X019538Y012674D03*
X019538Y012484D03*
X019538Y012284D03*
D29*
X018808Y011554D03*
X018608Y011554D03*
X018418Y011554D03*
X018218Y011554D03*
X018018Y011554D03*
X017828Y011554D03*
X017628Y011554D03*
X017428Y011554D03*
X017238Y011554D03*
X017038Y011554D03*
X016838Y011554D03*
X016638Y011554D03*
X016448Y011554D03*
X016248Y011554D03*
X016048Y011554D03*
X015858Y011554D03*
X015658Y011554D03*
X015458Y011554D03*
X015268Y011554D03*
X015068Y011554D03*
X015068Y016754D03*
X015268Y016754D03*
X015458Y016754D03*
X015658Y016754D03*
X015858Y016754D03*
X016048Y016754D03*
X016248Y016754D03*
X016448Y016754D03*
X016638Y016754D03*
X016838Y016754D03*
X017038Y016754D03*
X017238Y016754D03*
X017428Y016754D03*
X017628Y016754D03*
X017828Y016754D03*
X018018Y016754D03*
X018218Y016754D03*
X018418Y016754D03*
X018608Y016754D03*
X018808Y016754D03*
D30*
X001577Y016587D03*
X001557Y009146D03*
X035395Y001893D03*
D31*
X035395Y003861D03*
X001557Y006250D03*
X001557Y007698D03*
X001577Y013691D03*
X001577Y015139D03*
D32*
X000925Y000662D02*
X001013Y000540D01*
X001135Y000451D01*
X001279Y000405D01*
X001354Y000399D01*
X017120Y000399D01*
X017100Y000418D01*
X016887Y000418D01*
X016799Y000455D01*
X016731Y000522D01*
X016695Y000610D01*
X016695Y001021D01*
X016731Y001109D01*
X016792Y001170D01*
X016731Y001231D01*
X016695Y001319D01*
X016695Y001644D01*
X016616Y001644D01*
X016572Y001600D01*
X016483Y001564D01*
X015679Y001564D01*
X015591Y001600D01*
X015524Y001668D01*
X015487Y001756D01*
X015487Y002481D01*
X015524Y002570D01*
X015591Y002637D01*
X015679Y002674D01*
X016483Y002674D01*
X016572Y002637D01*
X016612Y002597D01*
X017016Y002597D01*
X017104Y002560D01*
X017165Y002499D01*
X017226Y002560D01*
X017314Y002597D01*
X017724Y002597D01*
X017812Y002560D01*
X017880Y002493D01*
X017914Y002411D01*
X018288Y002411D01*
X018395Y002366D01*
X018958Y001803D01*
X019002Y001696D01*
X019002Y001691D01*
X019060Y001667D01*
X019232Y001495D01*
X019251Y001449D01*
X019369Y001567D01*
X019395Y001577D01*
X019395Y002936D01*
X019380Y002950D01*
X019314Y003111D01*
X019314Y003286D01*
X019380Y003447D01*
X019504Y003570D01*
X019665Y003637D01*
X019839Y003637D01*
X020000Y003570D01*
X020124Y003447D01*
X020191Y003286D01*
X020191Y003111D01*
X020124Y002950D01*
X020035Y002861D01*
X020035Y001577D01*
X020060Y001567D01*
X020226Y001401D01*
X020244Y001438D01*
X020295Y001508D01*
X020357Y001569D01*
X020427Y001620D01*
X020504Y001659D01*
X020586Y001686D01*
X020672Y001700D01*
X020695Y001700D01*
X020695Y001170D01*
X020735Y001170D01*
X020735Y001700D01*
X020758Y001700D01*
X020844Y001686D01*
X020926Y001659D01*
X021003Y001620D01*
X021073Y001569D01*
X021134Y001508D01*
X021185Y001438D01*
X021204Y001401D01*
X021369Y001567D01*
X021593Y001660D01*
X021836Y001660D01*
X022060Y001567D01*
X022178Y001449D01*
X022198Y001495D01*
X022369Y001667D01*
X022593Y001760D01*
X022836Y001760D01*
X023060Y001667D01*
X023232Y001495D01*
X023251Y001449D01*
X023369Y001567D01*
X023593Y001660D01*
X023836Y001660D01*
X024060Y001567D01*
X024232Y001395D01*
X024325Y001171D01*
X024325Y000928D01*
X024232Y000704D01*
X024060Y000532D01*
X023836Y000440D01*
X023593Y000440D01*
X023369Y000532D01*
X023198Y000704D01*
X023178Y000751D01*
X023060Y000632D01*
X022836Y000540D01*
X022593Y000540D01*
X022369Y000632D01*
X022251Y000751D01*
X022232Y000704D01*
X022060Y000532D01*
X021836Y000440D01*
X021593Y000440D01*
X021369Y000532D01*
X021198Y000704D01*
X021152Y000815D01*
X021134Y000791D01*
X021073Y000730D01*
X021003Y000679D01*
X020926Y000640D01*
X020844Y000613D01*
X020758Y000600D01*
X020735Y000600D01*
X020735Y001130D01*
X020695Y001130D01*
X020695Y000600D01*
X020672Y000600D01*
X020586Y000613D01*
X020504Y000640D01*
X020427Y000679D01*
X020357Y000730D01*
X020295Y000791D01*
X020278Y000815D01*
X020232Y000704D01*
X020060Y000532D01*
X020032Y000521D01*
X020032Y000495D01*
X019992Y000399D01*
X035705Y000399D01*
X035705Y001313D01*
X035443Y001313D01*
X035443Y001845D01*
X035347Y001845D01*
X034815Y001845D01*
X034815Y001469D01*
X034827Y001423D01*
X034851Y001382D01*
X034884Y001349D01*
X034925Y001325D01*
X034971Y001313D01*
X035347Y001313D01*
X035347Y001845D01*
X035347Y001941D01*
X035347Y002473D01*
X034971Y002473D01*
X034925Y002460D01*
X034884Y002437D01*
X034851Y002403D01*
X034827Y002362D01*
X034815Y002316D01*
X034815Y001941D01*
X035347Y001941D01*
X035443Y001941D01*
X035443Y002473D01*
X035705Y002473D01*
X035705Y003189D01*
X035542Y003121D01*
X035248Y003121D01*
X034976Y003234D01*
X034767Y003442D01*
X034655Y003714D01*
X034655Y006117D01*
X034767Y006389D01*
X034913Y006534D01*
X034913Y006602D01*
X034949Y006690D01*
X035017Y006758D01*
X035105Y006794D01*
X035321Y006794D01*
X035340Y006802D01*
X035634Y006802D01*
X035653Y006794D01*
X035705Y006794D01*
X035705Y013648D01*
X035693Y013609D01*
X035653Y013532D01*
X035603Y013462D01*
X035541Y013400D01*
X035471Y013350D01*
X035394Y013310D01*
X035312Y013284D01*
X035226Y013270D01*
X035203Y013270D01*
X035203Y013800D01*
X035163Y013800D01*
X034633Y013800D01*
X034633Y013777D01*
X034647Y013691D01*
X034673Y013609D01*
X034713Y013532D01*
X034764Y013462D01*
X034825Y013400D01*
X034895Y013350D01*
X034972Y013310D01*
X035054Y013284D01*
X035140Y013270D01*
X035163Y013270D01*
X035163Y013800D01*
X035163Y013840D01*
X034633Y013840D01*
X034633Y013863D01*
X034647Y013949D01*
X034673Y014031D01*
X034713Y014108D01*
X034764Y014178D01*
X034825Y014240D01*
X034885Y014283D01*
X034838Y014303D01*
X034666Y014474D01*
X034573Y014699D01*
X034573Y014941D01*
X034666Y015166D01*
X034820Y015320D01*
X034666Y015474D01*
X034643Y015529D01*
X033652Y015529D01*
X033442Y015319D01*
X033442Y014409D01*
X033524Y014327D01*
X033591Y014166D01*
X033591Y013991D01*
X033524Y013830D01*
X033400Y013707D01*
X033239Y013640D01*
X033065Y013640D01*
X032904Y013707D01*
X032780Y013830D01*
X032714Y013991D01*
X032714Y014166D01*
X032780Y014327D01*
X032862Y014409D01*
X032862Y015496D01*
X032906Y015603D01*
X033368Y016065D01*
X033474Y016109D01*
X034642Y016109D01*
X034666Y016166D01*
X034838Y016337D01*
X034885Y016357D01*
X034825Y016400D01*
X034764Y016462D01*
X034713Y016532D01*
X034673Y016609D01*
X034647Y016691D01*
X034633Y016777D01*
X034633Y016800D01*
X035163Y016800D01*
X035163Y016840D01*
X034633Y016840D01*
X034633Y016863D01*
X034647Y016949D01*
X034673Y017031D01*
X034713Y017108D01*
X034764Y017178D01*
X034825Y017240D01*
X034885Y017283D01*
X034838Y017303D01*
X034666Y017474D01*
X034573Y017699D01*
X034573Y017941D01*
X034666Y018166D01*
X034820Y018320D01*
X034666Y018474D01*
X034573Y018699D01*
X034573Y018941D01*
X034666Y019166D01*
X034838Y019337D01*
X025484Y019337D01*
X025484Y019356D02*
X025484Y019094D01*
X025027Y019094D01*
X025027Y018939D01*
X025027Y018522D01*
X025327Y018522D01*
X025355Y018529D01*
X025330Y018470D01*
X024547Y018470D01*
X024459Y018433D01*
X024407Y018381D01*
X024367Y018421D01*
X024279Y018458D01*
X023475Y018458D01*
X023387Y018421D01*
X023319Y018354D01*
X023283Y018265D01*
X023283Y018149D01*
X022922Y018149D01*
X022862Y018209D01*
X022862Y018616D01*
X022818Y018723D01*
X022736Y018805D01*
X022236Y019305D01*
X022130Y019349D01*
X020544Y019349D01*
X020438Y019305D01*
X020356Y019223D01*
X019782Y018649D01*
X019362Y018649D01*
X019398Y018684D01*
X019491Y018909D01*
X019491Y019151D01*
X019398Y019375D01*
X019226Y019547D01*
X019089Y019604D01*
X035705Y019604D01*
X035705Y019153D01*
X035700Y019166D01*
X035529Y019337D01*
X035304Y019430D01*
X035062Y019430D01*
X034838Y019337D01*
X034679Y019179D02*
X025484Y019179D01*
X025484Y019356D02*
X025472Y019401D01*
X025448Y019442D01*
X025414Y019476D01*
X025373Y019500D01*
X025327Y019512D01*
X025027Y019512D01*
X025027Y019094D01*
X024872Y019094D01*
X024872Y018939D01*
X025027Y018939D01*
X025484Y018939D01*
X025484Y018678D01*
X025477Y018654D01*
X025646Y018823D01*
X025728Y018905D01*
X025834Y018949D01*
X025963Y018949D01*
X025994Y019022D01*
X026061Y019090D01*
X026149Y019126D01*
X026560Y019126D01*
X026648Y019090D01*
X026709Y019029D01*
X026770Y019090D01*
X026858Y019126D01*
X027269Y019126D01*
X027357Y019090D01*
X027382Y019065D01*
X027448Y019131D01*
X027536Y019167D01*
X028104Y019167D01*
X028192Y019131D01*
X028260Y019063D01*
X028296Y018975D01*
X028296Y018328D01*
X028260Y018240D01*
X028193Y018174D01*
X028260Y018107D01*
X028296Y018019D01*
X028296Y017372D01*
X028260Y017284D01*
X028192Y017217D01*
X028159Y017203D01*
X028196Y017187D01*
X028264Y017120D01*
X028300Y017032D01*
X028300Y016385D01*
X028264Y016297D01*
X028196Y016229D01*
X028146Y016208D01*
X028209Y016182D01*
X028276Y016115D01*
X028313Y016027D01*
X028313Y015380D01*
X028276Y015292D01*
X028209Y015224D01*
X028121Y015188D01*
X027553Y015188D01*
X027464Y015224D01*
X027400Y015289D01*
X027380Y015269D01*
X027291Y015233D01*
X026881Y015233D01*
X026793Y015269D01*
X026732Y015330D01*
X026671Y015269D01*
X026583Y015233D01*
X026172Y015233D01*
X026084Y015269D01*
X026017Y015337D01*
X025980Y015425D01*
X025980Y015429D01*
X025342Y015429D01*
X025260Y015347D01*
X025099Y015280D01*
X024925Y015280D01*
X024764Y015347D01*
X024640Y015470D01*
X024574Y015631D01*
X024574Y015806D01*
X024640Y015967D01*
X024764Y016090D01*
X024925Y016157D01*
X025099Y016157D01*
X025260Y016090D01*
X025342Y016009D01*
X025383Y016009D01*
X025342Y016009D01*
X025383Y016009D02*
X025324Y016151D01*
X025324Y016326D01*
X025358Y016409D01*
X023022Y016409D01*
X022882Y016269D01*
X022882Y015841D01*
X022838Y015734D01*
X022756Y015653D01*
X022092Y014989D01*
X021996Y014949D01*
X023012Y014949D01*
X023042Y014979D01*
X023042Y015429D01*
X022960Y015510D01*
X022894Y015671D01*
X022894Y015846D01*
X022960Y016007D01*
X023084Y016130D01*
X023245Y016197D01*
X023419Y016197D01*
X023580Y016130D01*
X023657Y016054D01*
X023734Y016130D01*
X023895Y016197D01*
X024069Y016197D01*
X024230Y016130D01*
X024354Y016007D01*
X024421Y015846D01*
X024421Y015671D01*
X024354Y015510D01*
X024272Y015429D01*
X024272Y014981D01*
X024228Y014874D01*
X023566Y014213D01*
X023460Y014169D01*
X020274Y014169D01*
X020168Y014213D01*
X020057Y014324D01*
X020032Y014263D01*
X020023Y014254D01*
X020032Y014245D01*
X020068Y014157D01*
X020068Y013954D01*
X021535Y013954D01*
X021569Y014036D01*
X021637Y014104D01*
X021725Y014140D01*
X022450Y014140D01*
X022539Y014104D01*
X022606Y014036D01*
X022643Y013948D01*
X022643Y013309D01*
X022695Y013309D01*
X022695Y013469D01*
X023113Y013469D01*
X023113Y013624D01*
X023113Y014080D01*
X022851Y014080D01*
X022806Y014068D01*
X022765Y014044D01*
X022731Y014011D01*
X022707Y013970D01*
X022695Y013924D01*
X022695Y013624D01*
X023113Y013624D01*
X023268Y013624D01*
X023268Y014080D01*
X023529Y014080D01*
X023575Y014068D01*
X023616Y014044D01*
X023649Y014011D01*
X023673Y013970D01*
X023685Y013924D01*
X023685Y013624D01*
X023268Y013624D01*
X023268Y013469D01*
X023685Y013469D01*
X023685Y013309D01*
X023690Y013309D01*
X024002Y013621D01*
X024002Y014272D01*
X024051Y014390D01*
X024281Y014620D01*
X024371Y014710D01*
X024455Y014745D01*
X024462Y014760D01*
X024529Y014828D01*
X024617Y014864D01*
X024846Y014864D01*
X025162Y015180D01*
X025279Y015229D01*
X027326Y015229D01*
X027443Y015180D01*
X027533Y015090D01*
X027555Y015069D01*
X027982Y015069D01*
X028034Y015120D01*
X028195Y015187D01*
X028369Y015187D01*
X028530Y015120D01*
X028654Y014997D01*
X028667Y014964D01*
X028728Y015025D01*
X028834Y015069D01*
X029961Y015069D01*
X029981Y015117D01*
X030004Y015140D01*
X030004Y015256D01*
X030154Y015256D01*
X030154Y015256D01*
X030004Y015256D01*
X030004Y015405D01*
X030017Y015450D01*
X030040Y015492D01*
X030074Y015525D01*
X030115Y015549D01*
X030161Y015561D01*
X030434Y015561D01*
X030434Y015486D01*
X030434Y015486D01*
X030434Y015561D01*
X030708Y015561D01*
X030754Y015549D01*
X030795Y015525D01*
X030828Y015492D01*
X030852Y015450D01*
X030864Y015405D01*
X030864Y015256D01*
X030714Y015256D01*
X030714Y015256D01*
X030864Y015256D01*
X030864Y015140D01*
X030888Y015117D01*
X030924Y015029D01*
X030924Y014683D01*
X030888Y014595D01*
X030838Y014545D01*
X030936Y014545D01*
X030936Y014088D01*
X030936Y013933D01*
X031091Y013933D01*
X031091Y013477D01*
X031352Y013477D01*
X031398Y013489D01*
X031439Y013513D01*
X031472Y013546D01*
X031496Y013587D01*
X031508Y013633D01*
X031508Y013933D01*
X031091Y013933D01*
X031091Y014088D01*
X031508Y014088D01*
X031508Y014389D01*
X031496Y014435D01*
X031472Y014476D01*
X031439Y014509D01*
X031398Y014533D01*
X031352Y014545D01*
X031091Y014545D01*
X031091Y014088D01*
X030936Y014088D01*
X030518Y014088D01*
X030518Y014389D01*
X030531Y014435D01*
X030554Y014476D01*
X030570Y014491D01*
X030434Y014491D01*
X030466Y014413D01*
X030466Y013651D01*
X030506Y013635D01*
X030522Y013619D01*
X030518Y013633D01*
X030518Y013933D01*
X030936Y013933D01*
X030936Y013477D01*
X030675Y013477D01*
X030659Y013481D01*
X030702Y013376D01*
X030702Y013364D01*
X030703Y013363D01*
X030738Y013363D01*
X030738Y013328D01*
X030738Y013328D01*
X030738Y013363D01*
X030887Y013363D01*
X030933Y013351D01*
X030974Y013327D01*
X031007Y013294D01*
X031031Y013253D01*
X031043Y013207D01*
X031043Y012933D01*
X030783Y012933D01*
X030783Y012933D01*
X031043Y012933D01*
X031043Y012660D01*
X031031Y012614D01*
X031007Y012573D01*
X030974Y012539D01*
X030933Y012516D01*
X030887Y012503D01*
X030738Y012503D01*
X030738Y012539D01*
X030738Y012539D01*
X030738Y012503D01*
X030703Y012503D01*
X030679Y012480D01*
X030591Y012443D01*
X030418Y012443D01*
X030418Y010137D01*
X030432Y010137D01*
X030520Y010101D01*
X030588Y010033D01*
X030625Y009945D01*
X030625Y009831D01*
X030628Y009837D01*
X030674Y009901D01*
X030731Y009957D01*
X030795Y010004D01*
X030866Y010040D01*
X030941Y010065D01*
X031020Y010077D01*
X031060Y010077D01*
X031060Y009572D01*
X031060Y009572D01*
X031565Y009572D01*
X031565Y009532D01*
X031552Y009454D01*
X031528Y009378D01*
X031491Y009307D01*
X031445Y009243D01*
X031389Y009187D01*
X031324Y009140D01*
X031253Y009104D01*
X031178Y009079D01*
X031099Y009067D01*
X031060Y009067D01*
X031060Y009572D01*
X031565Y009572D01*
X031565Y009612D01*
X031552Y009690D01*
X031528Y009766D01*
X031491Y009837D01*
X031445Y009901D01*
X031389Y009957D01*
X031324Y010004D01*
X031253Y010040D01*
X031178Y010065D01*
X031099Y010077D01*
X031060Y010077D01*
X031060Y009572D01*
X031060Y009572D01*
X031060Y009572D01*
X031060Y009067D01*
X031020Y009067D01*
X030941Y009079D01*
X030866Y009104D01*
X030795Y009140D01*
X030731Y009187D01*
X030674Y009243D01*
X030628Y009307D01*
X030625Y009313D01*
X030625Y009199D01*
X030588Y009111D01*
X030520Y009044D01*
X030432Y009007D01*
X029687Y009007D01*
X029599Y009044D01*
X029531Y009111D01*
X029524Y009128D01*
X029192Y008796D01*
X029192Y008155D01*
X029291Y008114D01*
X029499Y007906D01*
X029612Y007634D01*
X029612Y007340D01*
X029499Y007068D01*
X029291Y006859D01*
X029019Y006747D01*
X028724Y006747D01*
X028452Y006859D01*
X028244Y007068D01*
X028132Y007340D01*
X028132Y007634D01*
X028244Y007906D01*
X028452Y008114D01*
X028552Y008155D01*
X028552Y008992D01*
X028600Y009109D01*
X029221Y009730D01*
X029311Y009820D01*
X029428Y009869D01*
X029495Y009869D01*
X029495Y009945D01*
X029531Y010033D01*
X029599Y010101D01*
X029687Y010137D01*
X029778Y010137D01*
X029778Y012539D01*
X029770Y012547D01*
X029756Y012581D01*
X029609Y012520D01*
X029435Y012520D01*
X029274Y012587D01*
X029150Y012710D01*
X029084Y012871D01*
X029084Y012909D01*
X028780Y012909D01*
X028920Y012850D01*
X029044Y012727D01*
X029111Y012566D01*
X029111Y012391D01*
X029044Y012230D01*
X029031Y012218D01*
X029049Y012211D01*
X029116Y012143D01*
X029153Y012055D01*
X029153Y011329D01*
X029116Y011241D01*
X029049Y011174D01*
X028961Y011137D01*
X028157Y011137D01*
X028068Y011174D01*
X028058Y011184D01*
X028040Y011166D01*
X027952Y011129D01*
X027148Y011129D01*
X027060Y011166D01*
X026992Y011233D01*
X026956Y011322D01*
X026956Y012047D01*
X026992Y012135D01*
X027060Y012203D01*
X027148Y012239D01*
X027262Y012239D01*
X027262Y012286D01*
X027296Y012368D01*
X027272Y012358D01*
X027156Y012358D01*
X027115Y012375D01*
X027073Y012358D01*
X026958Y012358D01*
X026910Y012377D01*
X026862Y012358D01*
X026747Y012358D01*
X026706Y012375D01*
X026697Y012371D01*
X026697Y012167D01*
X026704Y012167D01*
X026792Y012130D01*
X026860Y012063D01*
X026897Y011974D01*
X026897Y011629D01*
X026860Y011541D01*
X026837Y011517D01*
X026837Y011402D01*
X026687Y011402D01*
X026687Y011402D01*
X026837Y011402D01*
X026837Y011253D01*
X026824Y011207D01*
X026801Y011166D01*
X026767Y011133D01*
X026726Y011109D01*
X026680Y011097D01*
X026407Y011097D01*
X026407Y011172D01*
X026407Y011172D01*
X026407Y011097D01*
X026133Y011097D01*
X026087Y011109D01*
X026046Y011133D01*
X026012Y011166D01*
X025989Y011207D01*
X025977Y011253D01*
X025977Y011402D01*
X026127Y011402D01*
X026127Y011402D01*
X025977Y011402D01*
X025977Y011517D01*
X025953Y011541D01*
X025921Y011618D01*
X025910Y011614D01*
X025717Y011614D01*
X025531Y011427D01*
X025531Y011311D01*
X025464Y011150D01*
X025340Y011027D01*
X025179Y010960D01*
X025031Y010960D01*
X025031Y010831D01*
X024964Y010670D01*
X024882Y010589D01*
X024882Y009359D01*
X025000Y009310D01*
X025124Y009187D01*
X025191Y009026D01*
X025191Y008851D01*
X025124Y008690D01*
X025017Y008584D01*
X025124Y008477D01*
X025191Y008316D01*
X025191Y008141D01*
X025124Y007980D01*
X025000Y007857D01*
X024839Y007790D01*
X024665Y007790D01*
X024504Y007857D01*
X024380Y007980D01*
X024314Y008141D01*
X024314Y008257D01*
X023846Y008724D01*
X023802Y008831D01*
X023802Y009489D01*
X023774Y009420D01*
X023650Y009297D01*
X023489Y009230D01*
X023315Y009230D01*
X023154Y009297D01*
X023030Y009420D01*
X022986Y009529D01*
X019274Y009529D01*
X019168Y009573D01*
X019086Y009654D01*
X018702Y010039D01*
X018702Y009229D01*
X018784Y009147D01*
X018851Y008986D01*
X018851Y008811D01*
X018784Y008650D01*
X018660Y008527D01*
X018499Y008460D01*
X018371Y008460D01*
X018384Y008447D01*
X018451Y008286D01*
X018451Y008111D01*
X018384Y007950D01*
X018260Y007827D01*
X018099Y007760D01*
X017925Y007760D01*
X017764Y007827D01*
X017640Y007950D01*
X017574Y008111D01*
X017574Y008286D01*
X017640Y008447D01*
X017732Y008539D01*
X017732Y009109D01*
X017717Y009082D01*
X017683Y009049D01*
X017642Y009025D01*
X017597Y009013D01*
X017296Y009013D01*
X017296Y009430D01*
X017141Y009430D01*
X017141Y009013D01*
X016841Y009013D01*
X016795Y009025D01*
X016754Y009049D01*
X016720Y009082D01*
X016697Y009124D01*
X016684Y009169D01*
X016684Y009430D01*
X017141Y009430D01*
X017141Y009585D01*
X016684Y009585D01*
X016684Y009847D01*
X016697Y009892D01*
X016720Y009933D01*
X016754Y009967D01*
X016795Y009991D01*
X016841Y010003D01*
X017141Y010003D01*
X017141Y009585D01*
X017296Y009585D01*
X017296Y010003D01*
X017597Y010003D01*
X017642Y009991D01*
X017683Y009967D01*
X017717Y009933D01*
X017732Y009907D01*
X017732Y010115D01*
X017709Y010092D01*
X017621Y010055D01*
X016817Y010055D01*
X016728Y010092D01*
X016661Y010159D01*
X016624Y010248D01*
X016624Y010973D01*
X016646Y011024D01*
X016427Y011024D01*
X016453Y010963D01*
X016453Y010237D01*
X016416Y010149D01*
X016349Y010082D01*
X016261Y010045D01*
X015558Y010045D01*
X015558Y009993D01*
X015781Y009993D01*
X015781Y009575D01*
X015936Y009575D01*
X016393Y009575D01*
X016393Y009836D01*
X016381Y009882D01*
X016357Y009923D01*
X016323Y009957D01*
X016282Y009980D01*
X016237Y009993D01*
X015936Y009993D01*
X015936Y009575D01*
X015936Y009420D01*
X015936Y009003D01*
X016237Y009003D01*
X016282Y009015D01*
X016323Y009039D01*
X016357Y009072D01*
X016381Y009113D01*
X016393Y009159D01*
X016393Y009420D01*
X015936Y009420D01*
X015781Y009420D01*
X015781Y009003D01*
X015558Y009003D01*
X015558Y008603D01*
X017116Y007045D01*
X017198Y006963D01*
X017242Y006856D01*
X017242Y006161D01*
X017198Y006054D01*
X016998Y005854D01*
X016916Y005773D01*
X016810Y005729D01*
X016328Y005729D01*
X016304Y005670D01*
X016180Y005547D01*
X016019Y005480D01*
X015845Y005480D01*
X015742Y005523D01*
X015791Y005406D01*
X015791Y005231D01*
X015789Y005229D01*
X023310Y005229D01*
X023582Y005116D01*
X024450Y004249D01*
X024596Y004249D01*
X024623Y004276D01*
X024640Y004283D01*
X026003Y005646D01*
X026275Y005759D01*
X031046Y005759D01*
X031976Y006689D01*
X032248Y006802D01*
X032341Y006802D01*
X032202Y006859D01*
X031994Y007068D01*
X031882Y007340D01*
X031882Y007634D01*
X031994Y007906D01*
X032202Y008114D01*
X032332Y008168D01*
X032332Y008193D01*
X032316Y008193D01*
X032228Y008230D01*
X032160Y008297D01*
X032124Y008385D01*
X032124Y008796D01*
X032160Y008884D01*
X032228Y008951D01*
X032289Y008977D01*
X032253Y008998D01*
X032220Y009031D01*
X032196Y009072D01*
X032184Y009118D01*
X032184Y009299D01*
X032600Y009299D01*
X032600Y009299D01*
X032600Y009299D01*
X033016Y009299D01*
X033016Y009118D01*
X033004Y009072D01*
X032980Y009031D01*
X032947Y008998D01*
X032911Y008977D01*
X032972Y008951D01*
X033040Y008884D01*
X033076Y008796D01*
X033076Y008385D01*
X033040Y008297D01*
X032972Y008230D01*
X032912Y008204D01*
X032912Y008168D01*
X033041Y008114D01*
X033249Y007906D01*
X033362Y007634D01*
X033362Y007340D01*
X033249Y007068D01*
X033041Y006859D01*
X032902Y006802D01*
X034060Y006802D01*
X034079Y006794D01*
X034295Y006794D01*
X034383Y006758D01*
X034450Y006690D01*
X034487Y006602D01*
X034487Y006534D01*
X034540Y006481D01*
X034652Y006209D01*
X034652Y005915D01*
X034540Y005643D01*
X034487Y005590D01*
X034487Y005522D01*
X034450Y005434D01*
X034383Y005366D01*
X034295Y005330D01*
X034079Y005330D01*
X034060Y005322D01*
X032702Y005322D01*
X032092Y004712D01*
X032092Y001754D01*
X032202Y001864D01*
X032474Y001977D01*
X032769Y001977D01*
X033041Y001864D01*
X033249Y001656D01*
X033362Y001384D01*
X033362Y001090D01*
X033249Y000818D01*
X033041Y000609D01*
X032769Y000497D01*
X032474Y000497D01*
X032202Y000609D01*
X031997Y000815D01*
X031791Y000609D01*
X031519Y000497D01*
X031224Y000497D01*
X030952Y000609D01*
X030744Y000818D01*
X030744Y000818D01*
X030725Y000837D01*
X030612Y001109D01*
X030612Y004279D01*
X027992Y004279D01*
X027992Y003382D01*
X028104Y003382D01*
X028192Y003346D01*
X028260Y003278D01*
X028296Y003190D01*
X028296Y002465D01*
X028260Y002376D01*
X028192Y002309D01*
X028104Y002272D01*
X027300Y002272D01*
X027212Y002309D01*
X027155Y002366D01*
X027145Y002360D01*
X027099Y002347D01*
X026798Y002347D01*
X026798Y002765D01*
X026643Y002765D01*
X026186Y002765D01*
X026186Y002504D01*
X026199Y002458D01*
X026222Y002417D01*
X026256Y002383D01*
X026297Y002360D01*
X026343Y002347D01*
X026643Y002347D01*
X026643Y002765D01*
X026643Y002920D01*
X026186Y002920D01*
X026186Y003181D01*
X026199Y003227D01*
X026222Y003268D01*
X026256Y003301D01*
X026297Y003325D01*
X026343Y003337D01*
X026643Y003337D01*
X026643Y002920D01*
X026798Y002920D01*
X026798Y003337D01*
X027099Y003337D01*
X027145Y003325D01*
X027174Y003308D01*
X027212Y003346D01*
X027300Y003382D01*
X027412Y003382D01*
X027412Y004279D01*
X026729Y004279D01*
X025679Y003229D01*
X025471Y003021D01*
X025454Y003014D01*
X025321Y002881D01*
X025212Y002836D01*
X025245Y002754D01*
X025245Y002168D01*
X025249Y002167D01*
X025310Y002106D01*
X025371Y002167D01*
X025459Y002203D01*
X025869Y002203D01*
X025958Y002167D01*
X026025Y002099D01*
X026059Y002017D01*
X026126Y002017D01*
X026126Y002103D01*
X026163Y002191D01*
X026231Y002258D01*
X026319Y002295D01*
X027123Y002295D01*
X027211Y002258D01*
X027268Y002202D01*
X027278Y002208D01*
X027324Y002220D01*
X027624Y002220D01*
X027624Y001802D01*
X027779Y001802D01*
X027779Y002220D01*
X028080Y002220D01*
X028126Y002208D01*
X028167Y002184D01*
X028200Y002150D01*
X028224Y002109D01*
X028236Y002064D01*
X028236Y001856D01*
X028261Y001881D01*
X028302Y001905D01*
X028348Y001917D01*
X028814Y001917D01*
X028814Y001294D01*
X028814Y001179D01*
X028929Y001179D01*
X028929Y000557D01*
X029395Y000557D01*
X029441Y000569D01*
X029482Y000593D01*
X029516Y000626D01*
X029539Y000667D01*
X029552Y000713D01*
X029552Y001179D01*
X028929Y001179D01*
X028929Y001294D01*
X029552Y001294D01*
X029552Y001760D01*
X029539Y001806D01*
X029516Y001847D01*
X029482Y001881D01*
X029441Y001905D01*
X029395Y001917D01*
X028929Y001917D01*
X028929Y001294D01*
X028814Y001294D01*
X028195Y001294D01*
X028167Y001266D01*
X028126Y001242D01*
X028080Y001230D01*
X027779Y001230D01*
X027779Y001647D01*
X027624Y001647D01*
X027624Y001230D01*
X027324Y001230D01*
X027278Y001242D01*
X027249Y001259D01*
X027211Y001221D01*
X027123Y001185D01*
X026319Y001185D01*
X026231Y001221D01*
X026163Y001289D01*
X026126Y001377D01*
X026126Y001437D01*
X026059Y001437D01*
X026025Y001355D01*
X025958Y001287D01*
X025869Y001251D01*
X025459Y001251D01*
X025371Y001287D01*
X025310Y001348D01*
X025249Y001287D01*
X025161Y001251D01*
X024750Y001251D01*
X024662Y001287D01*
X024594Y001355D01*
X024558Y001443D01*
X024558Y002011D01*
X024594Y002099D01*
X024662Y002167D01*
X024665Y002168D01*
X024665Y002576D01*
X024473Y002769D01*
X023996Y002769D01*
X023724Y002881D01*
X023709Y002896D01*
X023709Y002896D01*
X022857Y003749D01*
X016219Y003749D01*
X014079Y001609D01*
X013871Y001401D01*
X013599Y001289D01*
X007985Y001289D01*
X007713Y001401D01*
X007083Y002031D01*
X006875Y002239D01*
X006762Y002511D01*
X006762Y004159D01*
X005502Y004159D01*
X005502Y003429D01*
X005456Y003319D01*
X005372Y003234D01*
X003796Y001658D01*
X003686Y001613D01*
X003346Y001613D01*
X003346Y001540D01*
X003310Y001452D01*
X003242Y001384D01*
X003154Y001348D01*
X002408Y001348D01*
X002320Y001384D01*
X002253Y001452D01*
X002216Y001540D01*
X002216Y001654D01*
X002213Y001648D01*
X002166Y001584D01*
X002110Y001527D01*
X002046Y001481D01*
X001975Y001445D01*
X001899Y001420D01*
X001821Y001408D01*
X001781Y001408D01*
X001781Y001913D01*
X001781Y002418D01*
X001741Y002418D01*
X001663Y002405D01*
X001587Y002381D01*
X001516Y002345D01*
X001452Y002298D01*
X001396Y002242D01*
X001349Y002177D01*
X001313Y002107D01*
X001289Y002031D01*
X001276Y001952D01*
X001276Y001913D01*
X001781Y001913D01*
X001781Y001913D01*
X001781Y002418D01*
X001821Y002418D01*
X001899Y002405D01*
X001975Y002381D01*
X002046Y002345D01*
X002110Y002298D01*
X002166Y002242D01*
X002213Y002177D01*
X002216Y002171D01*
X002216Y002285D01*
X002253Y002374D01*
X002320Y002441D01*
X002408Y002478D01*
X003154Y002478D01*
X003242Y002441D01*
X003310Y002374D01*
X003346Y002285D01*
X003346Y002213D01*
X003502Y002213D01*
X004902Y003613D01*
X004902Y004159D01*
X004892Y004159D01*
X004829Y004159D01*
X004829Y004159D01*
X004828Y004159D01*
X004770Y004183D01*
X004711Y004207D01*
X004711Y004207D01*
X004711Y004207D01*
X004666Y004252D01*
X004621Y004297D01*
X004621Y004297D01*
X004621Y004297D01*
X004596Y004356D01*
X004572Y004415D01*
X004572Y004415D01*
X004572Y004479D01*
X004572Y005158D01*
X004540Y005158D01*
X004439Y005056D01*
X004439Y004552D01*
X004403Y004464D01*
X004335Y004396D01*
X004247Y004360D01*
X003443Y004360D01*
X003354Y004396D01*
X003287Y004464D01*
X003250Y004552D01*
X003250Y005277D01*
X003287Y005365D01*
X003354Y005433D01*
X003434Y005466D01*
X003354Y005499D01*
X003287Y005566D01*
X003273Y005599D01*
X002933Y005599D01*
X002786Y005660D01*
X002673Y005772D01*
X002673Y005772D01*
X002595Y005850D01*
X002062Y005850D01*
X001920Y005708D01*
X001685Y005610D01*
X001430Y005610D01*
X001195Y005708D01*
X001015Y005888D01*
X000917Y006123D01*
X000917Y006377D01*
X001015Y006613D01*
X001195Y006793D01*
X001430Y006890D01*
X001685Y006890D01*
X001920Y006793D01*
X002062Y006650D01*
X002840Y006650D01*
X002987Y006589D01*
X003178Y006399D01*
X003258Y006399D01*
X003287Y006468D01*
X003342Y006523D01*
X003287Y006578D01*
X003270Y006619D01*
X002953Y006619D01*
X002806Y006680D01*
X002693Y006792D01*
X002187Y007298D01*
X002062Y007298D01*
X001920Y007155D01*
X001685Y007058D01*
X001430Y007058D01*
X001195Y007155D01*
X001015Y007335D01*
X000917Y007571D01*
X000917Y007825D01*
X001015Y008061D01*
X001195Y008241D01*
X001430Y008338D01*
X001685Y008338D01*
X001920Y008241D01*
X002062Y008098D01*
X002432Y008098D01*
X002579Y008037D01*
X003198Y007419D01*
X003262Y007419D01*
X003287Y007480D01*
X003354Y007547D01*
X003434Y007580D01*
X003354Y007613D01*
X003287Y007680D01*
X003250Y007768D01*
X003250Y008494D01*
X003287Y008582D01*
X003340Y008635D01*
X003287Y008688D01*
X003263Y008746D01*
X002197Y008746D01*
X002197Y008698D01*
X002161Y008610D01*
X002093Y008543D01*
X002005Y008506D01*
X001110Y008506D01*
X001021Y008543D01*
X000954Y008610D01*
X000917Y008698D01*
X000917Y009594D01*
X000954Y009682D01*
X001021Y009749D01*
X001110Y009786D01*
X002005Y009786D01*
X002093Y009749D01*
X002161Y009682D01*
X002197Y009594D01*
X002197Y009546D01*
X003269Y009546D01*
X003287Y009590D01*
X003354Y009657D01*
X003434Y009690D01*
X003354Y009723D01*
X003287Y009790D01*
X003250Y009879D01*
X003250Y010604D01*
X003287Y010692D01*
X003354Y010760D01*
X003443Y010796D01*
X004247Y010796D01*
X004335Y010760D01*
X004403Y010692D01*
X004439Y010604D01*
X004439Y010244D01*
X004443Y010240D01*
X004516Y010168D01*
X004568Y010168D01*
X004566Y012559D01*
X004515Y012559D01*
X004439Y012590D01*
X004439Y012056D01*
X004403Y011968D01*
X004335Y011900D01*
X004247Y011864D01*
X003443Y011864D01*
X003354Y011900D01*
X003287Y011968D01*
X003250Y012056D01*
X003250Y012781D01*
X003287Y012869D01*
X003354Y012937D01*
X003434Y012970D01*
X003354Y013002D01*
X003287Y013070D01*
X003250Y013158D01*
X003250Y013291D01*
X002082Y013291D01*
X001940Y013148D01*
X001704Y013051D01*
X001450Y013051D01*
X001214Y013148D01*
X001034Y013328D01*
X000937Y013564D01*
X000937Y013818D01*
X001034Y014054D01*
X001214Y014234D01*
X001450Y014331D01*
X001704Y014331D01*
X001940Y014234D01*
X002082Y014091D01*
X003317Y014091D01*
X003279Y014129D01*
X003258Y014180D01*
X002951Y014180D01*
X002804Y014241D01*
X002306Y014739D01*
X002082Y014739D01*
X001940Y014596D01*
X001704Y014499D01*
X001450Y014499D01*
X001214Y014596D01*
X001034Y014776D01*
X000937Y015012D01*
X000937Y015266D01*
X001034Y015502D01*
X001214Y015682D01*
X001450Y015779D01*
X001704Y015779D01*
X001940Y015682D01*
X002082Y015539D01*
X002552Y015539D01*
X002699Y015478D01*
X002811Y015365D01*
X003197Y014980D01*
X003258Y014980D01*
X003279Y015031D01*
X003347Y015098D01*
X003426Y015131D01*
X003347Y015164D01*
X003279Y015231D01*
X003243Y015320D01*
X003243Y016045D01*
X003279Y016133D01*
X003318Y016172D01*
X003287Y016185D01*
X003284Y016187D01*
X002217Y016187D01*
X002217Y016139D01*
X002180Y016051D01*
X002113Y015983D01*
X002025Y015947D01*
X001129Y015947D01*
X001041Y015983D01*
X000974Y016051D01*
X000937Y016139D01*
X000937Y017035D01*
X000974Y017123D01*
X001041Y017190D01*
X001129Y017227D01*
X002025Y017227D01*
X002113Y017190D01*
X002180Y017123D01*
X002217Y017035D01*
X002217Y016987D01*
X003183Y016987D01*
X003183Y017066D01*
X003219Y017154D01*
X003287Y017222D01*
X003366Y017254D01*
X003287Y017287D01*
X003219Y017355D01*
X003183Y017443D01*
X003183Y018168D01*
X003219Y018256D01*
X003287Y018324D01*
X003375Y018360D01*
X004179Y018360D01*
X004267Y018324D01*
X004335Y018256D01*
X004371Y018168D01*
X004371Y018028D01*
X004563Y017823D01*
X004562Y018304D01*
X004500Y018367D01*
X003012Y018367D01*
X003012Y018294D01*
X002975Y018206D01*
X002908Y018138D01*
X002820Y018102D01*
X002074Y018102D01*
X001986Y018138D01*
X001918Y018206D01*
X001882Y018294D01*
X001882Y018408D01*
X001879Y018402D01*
X001832Y018338D01*
X001776Y018282D01*
X001711Y018235D01*
X001641Y018199D01*
X001565Y018174D01*
X001487Y018162D01*
X001447Y018162D01*
X001447Y018667D01*
X001447Y018667D01*
X001447Y019172D01*
X001487Y019172D01*
X001565Y019159D01*
X001641Y019135D01*
X001711Y019099D01*
X001776Y019052D01*
X001832Y018996D01*
X001879Y018932D01*
X001882Y018925D01*
X001882Y019040D01*
X001918Y019128D01*
X001986Y019195D01*
X002074Y019232D01*
X002820Y019232D01*
X002908Y019195D01*
X002975Y019128D01*
X003012Y019040D01*
X003012Y018967D01*
X004684Y018967D01*
X004794Y018921D01*
X004886Y018829D01*
X004946Y018829D01*
X004946Y018829D01*
X010262Y018829D01*
X010326Y018829D01*
X010326Y018829D01*
X010384Y018804D01*
X010443Y018780D01*
X010443Y018780D01*
X010443Y018780D01*
X010488Y018735D01*
X010533Y018690D01*
X010533Y018690D01*
X010533Y018690D01*
X010558Y018631D01*
X010582Y018573D01*
X010582Y018572D01*
X010582Y018572D01*
X010582Y018509D01*
X010583Y017507D01*
X010622Y017497D01*
X010652Y017479D01*
X010652Y017866D01*
X010696Y017973D01*
X011396Y018673D01*
X011478Y018755D01*
X011584Y018799D01*
X013040Y018799D01*
X013146Y018755D01*
X014078Y017823D01*
X014122Y017716D01*
X014122Y017079D01*
X014296Y016905D01*
X014378Y016823D01*
X014422Y016716D01*
X014422Y016351D01*
X014453Y016319D01*
X014676Y016319D01*
X014764Y016283D01*
X014832Y016215D01*
X014868Y016127D01*
X014868Y016009D01*
X014900Y016087D01*
X014982Y016169D01*
X014982Y016224D01*
X014966Y016224D01*
X014877Y016261D01*
X014810Y016328D01*
X014773Y016417D01*
X014773Y017092D01*
X014810Y017180D01*
X014877Y017248D01*
X014966Y017284D01*
X015762Y017284D01*
X015762Y017519D01*
X015712Y017569D01*
X014874Y017569D01*
X014768Y017613D01*
X014686Y017694D01*
X013961Y018420D01*
X013759Y018420D01*
X013535Y018513D01*
X013363Y018684D01*
X013271Y018909D01*
X013271Y019151D01*
X013363Y019375D01*
X013535Y019547D01*
X013672Y019604D01*
X001191Y019604D01*
X001129Y019598D01*
X001014Y019550D01*
X000926Y019462D01*
X000878Y019347D01*
X000872Y019285D01*
X000872Y000881D01*
X000878Y000805D01*
X000925Y000662D01*
X000945Y000634D02*
X015559Y000634D01*
X015559Y000632D02*
X015583Y000591D01*
X015617Y000557D01*
X015658Y000534D01*
X015703Y000521D01*
X016004Y000521D01*
X016004Y000939D01*
X015547Y000939D01*
X015547Y000678D01*
X015559Y000632D01*
X015547Y000793D02*
X000882Y000793D01*
X000872Y000951D02*
X016004Y000951D01*
X016004Y000939D02*
X016004Y001094D01*
X016004Y001511D01*
X015703Y001511D01*
X015658Y001499D01*
X015617Y001475D01*
X015583Y001442D01*
X015559Y001401D01*
X015547Y001355D01*
X015547Y001094D01*
X016004Y001094D01*
X016159Y001094D01*
X016159Y001511D01*
X016459Y001511D01*
X016505Y001499D01*
X016546Y001475D01*
X016580Y001442D01*
X016603Y001401D01*
X016616Y001355D01*
X016616Y001094D01*
X016159Y001094D01*
X016159Y000939D01*
X016616Y000939D01*
X016616Y000678D01*
X016603Y000632D01*
X016580Y000591D01*
X016546Y000557D01*
X016505Y000534D01*
X016459Y000521D01*
X016159Y000521D01*
X016159Y000939D01*
X016004Y000939D01*
X016004Y000793D02*
X016159Y000793D01*
X016159Y000951D02*
X016695Y000951D01*
X016695Y000793D02*
X016616Y000793D01*
X016604Y000634D02*
X016695Y000634D01*
X016778Y000476D02*
X001102Y000476D01*
X000872Y001110D02*
X015547Y001110D01*
X015547Y001268D02*
X000872Y001268D01*
X000872Y001427D02*
X001643Y001427D01*
X001663Y001420D02*
X001741Y001408D01*
X001781Y001408D01*
X001781Y001913D01*
X001781Y001913D01*
X001276Y001913D01*
X001276Y001873D01*
X001289Y001794D01*
X001313Y001719D01*
X001349Y001648D01*
X001396Y001584D01*
X001452Y001527D01*
X001516Y001481D01*
X001587Y001445D01*
X001663Y001420D01*
X001781Y001427D02*
X001781Y001427D01*
X001920Y001427D02*
X002278Y001427D01*
X002216Y001585D02*
X002167Y001585D01*
X001781Y001585D02*
X001781Y001585D01*
X001781Y001744D02*
X001781Y001744D01*
X001781Y001902D02*
X001781Y001902D01*
X001781Y001913D02*
X001781Y001913D01*
X001781Y002061D02*
X001781Y002061D01*
X001781Y002219D02*
X001781Y002219D01*
X001781Y002378D02*
X001781Y002378D01*
X001581Y002378D02*
X000872Y002378D01*
X000872Y002536D02*
X003825Y002536D01*
X003667Y002378D02*
X003306Y002378D01*
X003346Y002219D02*
X003508Y002219D01*
X004040Y001902D02*
X007212Y001902D01*
X007371Y001744D02*
X003881Y001744D01*
X003346Y001585D02*
X007529Y001585D01*
X007688Y001427D02*
X003284Y001427D01*
X004198Y002061D02*
X007054Y002061D01*
X006895Y002219D02*
X004357Y002219D01*
X004515Y002378D02*
X006818Y002378D01*
X006762Y002536D02*
X004674Y002536D01*
X004832Y002695D02*
X006762Y002695D01*
X006762Y002853D02*
X004991Y002853D01*
X005149Y003012D02*
X006762Y003012D01*
X006762Y003170D02*
X005308Y003170D01*
X005461Y003329D02*
X006762Y003329D01*
X006762Y003487D02*
X005502Y003487D01*
X005502Y003646D02*
X006762Y003646D01*
X006762Y003804D02*
X005502Y003804D01*
X005502Y003963D02*
X006762Y003963D01*
X006762Y004121D02*
X005502Y004121D01*
X004902Y004121D02*
X000872Y004121D01*
X000872Y003963D02*
X004902Y003963D01*
X004902Y003804D02*
X000872Y003804D01*
X000872Y003646D02*
X004902Y003646D01*
X004776Y003487D02*
X000872Y003487D01*
X000872Y003329D02*
X004618Y003329D01*
X004459Y003170D02*
X000872Y003170D01*
X000872Y003012D02*
X004301Y003012D01*
X004142Y002853D02*
X000872Y002853D01*
X000872Y002695D02*
X003984Y002695D01*
X002257Y002378D02*
X001981Y002378D01*
X002183Y002219D02*
X002216Y002219D01*
X001380Y002219D02*
X000872Y002219D01*
X000872Y002061D02*
X001298Y002061D01*
X001276Y001902D02*
X000872Y001902D01*
X000872Y001744D02*
X001305Y001744D01*
X001395Y001585D02*
X000872Y001585D01*
X000872Y004280D02*
X004639Y004280D01*
X004572Y004415D02*
X004572Y004415D01*
X004572Y004438D02*
X004377Y004438D01*
X004439Y004597D02*
X004572Y004597D01*
X004572Y004755D02*
X004439Y004755D01*
X004439Y004914D02*
X004572Y004914D01*
X004572Y005072D02*
X004455Y005072D01*
X004292Y005362D02*
X003845Y004915D01*
X003250Y004914D02*
X000872Y004914D01*
X000872Y005072D02*
X003250Y005072D01*
X003250Y005231D02*
X000872Y005231D01*
X000872Y005389D02*
X003311Y005389D01*
X003305Y005548D02*
X000872Y005548D01*
X000872Y005706D02*
X001198Y005706D01*
X001038Y005865D02*
X000872Y005865D01*
X000872Y006023D02*
X000959Y006023D01*
X000917Y006182D02*
X000872Y006182D01*
X000872Y006340D02*
X000917Y006340D01*
X000872Y006499D02*
X000968Y006499D01*
X001059Y006657D02*
X000872Y006657D01*
X000872Y006816D02*
X001250Y006816D01*
X001250Y007133D02*
X000872Y007133D01*
X000872Y007291D02*
X001059Y007291D01*
X000967Y007450D02*
X000872Y007450D01*
X000872Y007608D02*
X000917Y007608D01*
X000917Y007767D02*
X000872Y007767D01*
X000872Y007925D02*
X000959Y007925D01*
X001038Y008084D02*
X000872Y008084D01*
X000872Y008242D02*
X001199Y008242D01*
X000872Y008401D02*
X003250Y008401D01*
X003250Y008242D02*
X001916Y008242D01*
X002110Y008559D02*
X003277Y008559D01*
X003275Y008718D02*
X002197Y008718D01*
X002467Y008084D02*
X003250Y008084D01*
X003250Y007925D02*
X002691Y007925D01*
X002850Y007767D02*
X003251Y007767D01*
X003365Y007608D02*
X003008Y007608D01*
X003167Y007450D02*
X003275Y007450D01*
X003845Y007029D02*
X003851Y007023D01*
X004977Y007023D01*
X004977Y007283D02*
X005488Y007283D01*
X005492Y007279D01*
X005482Y007283D02*
X005572Y007283D01*
X005572Y008251D01*
X005574Y008249D01*
X005574Y008163D01*
X005631Y008024D01*
X005738Y007918D01*
X005877Y007860D01*
X006027Y007860D01*
X006166Y007918D01*
X006273Y008024D01*
X006331Y008163D01*
X006331Y008314D01*
X006273Y008453D01*
X006173Y008553D01*
X006738Y008553D01*
X006833Y008592D01*
X007301Y009060D01*
X007387Y009060D01*
X007526Y009118D01*
X007633Y009224D01*
X007691Y009363D01*
X007691Y009514D01*
X007633Y009653D01*
X007526Y009759D01*
X007387Y009817D01*
X007237Y009817D01*
X007098Y009759D01*
X006991Y009653D01*
X006934Y009514D01*
X006934Y009428D01*
X006578Y009073D01*
X005572Y009073D01*
X005572Y009232D01*
X005572Y009323D01*
X005572Y009742D01*
X005572Y009843D01*
X005572Y009951D01*
X005560Y009997D01*
X005536Y010038D01*
X005503Y010072D01*
X005462Y010095D01*
X005416Y010108D01*
X004977Y010108D01*
X004888Y010108D01*
X004886Y012619D01*
X004977Y012619D01*
X004977Y012879D01*
X004977Y012879D01*
X004977Y012619D01*
X005416Y012619D01*
X005462Y012631D01*
X005503Y012655D01*
X005536Y012689D01*
X005560Y012730D01*
X005572Y012775D01*
X005572Y012884D01*
X005472Y012884D01*
X005472Y012884D01*
X005572Y012884D01*
X005572Y013304D01*
X005572Y013404D01*
X005482Y013404D01*
X005482Y013404D01*
X005572Y013404D01*
X005572Y013654D01*
X006909Y013654D01*
X007005Y013694D01*
X007169Y013858D01*
X007243Y013931D01*
X007282Y014027D01*
X007282Y014653D01*
X007343Y014714D01*
X007401Y014853D01*
X007401Y015004D01*
X007343Y015143D01*
X007236Y015249D01*
X007097Y015307D01*
X006947Y015307D01*
X006808Y015249D01*
X006701Y015143D01*
X006644Y015004D01*
X006644Y014999D01*
X006613Y015073D01*
X006506Y015179D01*
X006367Y015237D01*
X006217Y015237D01*
X006078Y015179D01*
X005971Y015073D01*
X005914Y014934D01*
X005914Y014783D01*
X005971Y014644D01*
X006032Y014583D01*
X006032Y014424D01*
X005572Y014424D01*
X005572Y014584D01*
X005572Y014684D01*
X005482Y014684D01*
X005482Y014684D01*
X005572Y014684D01*
X005572Y015704D01*
X005610Y015704D01*
X005651Y015604D01*
X005758Y015498D01*
X005897Y015440D01*
X006047Y015440D01*
X006186Y015498D01*
X006293Y015604D01*
X006351Y015743D01*
X006351Y015894D01*
X006326Y015954D01*
X006886Y015954D01*
X006932Y015907D01*
X006894Y015814D01*
X006894Y015663D01*
X006951Y015524D01*
X007058Y015418D01*
X007197Y015360D01*
X007347Y015360D01*
X007486Y015418D01*
X007593Y015524D01*
X007651Y015663D01*
X007651Y015814D01*
X007593Y015953D01*
X007512Y016034D01*
X007491Y016084D01*
X007418Y016157D01*
X007141Y016435D01*
X007045Y016474D01*
X005572Y016474D01*
X005572Y016634D01*
X005572Y016724D01*
X005482Y016724D01*
X005482Y016724D01*
X005572Y016724D01*
X005572Y017144D01*
X005572Y017244D01*
X005472Y017244D01*
X005472Y017244D01*
X005572Y017244D01*
X005572Y017353D01*
X005560Y017399D01*
X005536Y017440D01*
X005503Y017473D01*
X005462Y017497D01*
X005416Y017509D01*
X004977Y017509D01*
X004883Y017509D01*
X004882Y018509D01*
X010262Y018509D01*
X010262Y018476D01*
X009917Y018131D01*
X009877Y018036D01*
X009877Y017509D01*
X009648Y017509D01*
X009542Y017404D01*
X009542Y016984D01*
X009542Y016875D01*
X009542Y015924D01*
X009412Y015794D01*
X009302Y015684D01*
X009302Y014953D01*
X009387Y014869D01*
X009292Y014774D01*
X009207Y014689D01*
X008677Y014689D01*
X008672Y014694D01*
X008672Y014843D01*
X008723Y014894D01*
X008781Y015033D01*
X008781Y015184D01*
X008723Y015323D01*
X008616Y015429D01*
X008477Y015487D01*
X008327Y015487D01*
X008188Y015429D01*
X008081Y015323D01*
X008024Y015184D01*
X008024Y015033D01*
X008081Y014894D01*
X008188Y014788D01*
X008212Y014778D01*
X008212Y014503D01*
X008347Y014369D01*
X008487Y014229D01*
X009397Y014229D01*
X009542Y014374D01*
X009542Y012884D01*
X009542Y012775D01*
X009555Y012730D01*
X009578Y012689D01*
X009612Y012655D01*
X009653Y012631D01*
X009699Y012619D01*
X010137Y012619D01*
X010137Y012879D01*
X010137Y012879D01*
X010137Y012619D01*
X010266Y012619D01*
X010268Y010108D01*
X009648Y010108D01*
X009542Y010002D01*
X009542Y009583D01*
X009643Y009583D01*
X009643Y009583D01*
X009643Y009583D01*
X009542Y009583D01*
X009542Y009474D01*
X009542Y007626D01*
X009467Y007657D01*
X009317Y007657D01*
X009178Y007599D01*
X009071Y007493D01*
X009014Y007354D01*
X009014Y007203D01*
X009071Y007064D01*
X009178Y006958D01*
X009317Y006900D01*
X009467Y006900D01*
X009542Y006931D01*
X009542Y005483D01*
X009643Y005483D01*
X009643Y005483D01*
X009542Y005483D01*
X009542Y005374D01*
X009555Y005328D01*
X009578Y005287D01*
X009612Y005254D01*
X009653Y005230D01*
X009699Y005218D01*
X010137Y005218D01*
X010137Y005478D01*
X010137Y005478D01*
X010137Y005218D01*
X010272Y005218D01*
X010272Y004479D01*
X004892Y004479D01*
X004892Y005218D01*
X004977Y005218D01*
X004977Y005478D01*
X004977Y005478D01*
X004977Y005218D01*
X005416Y005218D01*
X005462Y005230D01*
X005503Y005254D01*
X005536Y005287D01*
X005560Y005328D01*
X005572Y005374D01*
X005572Y005483D01*
X005572Y005902D01*
X005572Y006003D01*
X005572Y006253D01*
X007438Y006253D01*
X007533Y006292D01*
X007559Y006318D01*
X007633Y006391D01*
X007672Y006487D01*
X007672Y006963D01*
X007733Y007024D01*
X007791Y007163D01*
X007791Y007314D01*
X007733Y007453D01*
X007626Y007559D01*
X007487Y007617D01*
X007337Y007617D01*
X007198Y007559D01*
X007091Y007453D01*
X007034Y007314D01*
X007034Y007163D01*
X007091Y007024D01*
X007152Y006963D01*
X007152Y006773D01*
X006212Y006773D01*
X006212Y006923D01*
X006273Y006984D01*
X006331Y007123D01*
X006331Y007274D01*
X006273Y007413D01*
X006166Y007519D01*
X006027Y007577D01*
X005877Y007577D01*
X005738Y007519D01*
X005631Y007413D01*
X005574Y007274D01*
X005574Y007123D01*
X005615Y007023D01*
X005572Y007023D01*
X005572Y007182D01*
X005572Y007283D01*
X005482Y007283D01*
X005482Y007283D01*
X005572Y007291D02*
X005581Y007291D01*
X005572Y007182D02*
X005572Y007182D01*
X005572Y007133D02*
X005574Y007133D01*
X005952Y007199D02*
X005952Y006779D01*
X005936Y006763D01*
X004977Y006763D01*
X004977Y006513D02*
X007386Y006513D01*
X007412Y006539D01*
X007412Y007239D01*
X007046Y007133D02*
X006331Y007133D01*
X006323Y007291D02*
X007034Y007291D01*
X007090Y007450D02*
X006236Y007450D01*
X005668Y007450D02*
X005572Y007450D01*
X005572Y007608D02*
X007315Y007608D01*
X007509Y007608D02*
X009199Y007608D01*
X009053Y007450D02*
X007734Y007450D01*
X007791Y007291D02*
X009014Y007291D01*
X009043Y007133D02*
X007778Y007133D01*
X007683Y006974D02*
X009161Y006974D01*
X009542Y006816D02*
X007672Y006816D01*
X007672Y006657D02*
X009542Y006657D01*
X009542Y006499D02*
X007672Y006499D01*
X007581Y006340D02*
X009542Y006340D01*
X009542Y006182D02*
X005572Y006182D01*
X005572Y006023D02*
X009542Y006023D01*
X009542Y005865D02*
X005572Y005865D01*
X005572Y006003D02*
X005482Y006003D01*
X005572Y006003D01*
X005482Y006003D02*
X005482Y006003D01*
X005688Y006003D02*
X004977Y006003D01*
X004977Y006253D02*
X004080Y006253D01*
X003845Y006017D01*
X004392Y005719D02*
X004382Y005619D01*
X004292Y005519D01*
X004292Y005362D01*
X004392Y005719D02*
X004416Y005743D01*
X004977Y005743D01*
X004977Y005483D02*
X005588Y005483D01*
X005592Y005479D01*
X005572Y005483D02*
X005472Y005483D01*
X005472Y005483D01*
X005572Y005483D01*
X005572Y005548D02*
X009542Y005548D01*
X009542Y005706D02*
X005572Y005706D01*
X005572Y005389D02*
X009542Y005389D01*
X009651Y005231D02*
X005463Y005231D01*
X004977Y005231D02*
X004977Y005231D01*
X004977Y005389D02*
X004977Y005389D01*
X004892Y005072D02*
X010272Y005072D01*
X010272Y004914D02*
X004892Y004914D01*
X004892Y004755D02*
X010272Y004755D01*
X010272Y004597D02*
X004892Y004597D01*
X003312Y004438D02*
X000872Y004438D01*
X000872Y004597D02*
X003250Y004597D01*
X003250Y004755D02*
X000872Y004755D01*
X001917Y005706D02*
X002739Y005706D01*
X003078Y006499D02*
X003318Y006499D01*
X002860Y006657D02*
X002055Y006657D01*
X001864Y006816D02*
X002669Y006816D01*
X002511Y006974D02*
X000872Y006974D01*
X001865Y007133D02*
X002352Y007133D01*
X002194Y007291D02*
X002056Y007291D01*
X003845Y008131D02*
X004292Y007684D01*
X004292Y007659D01*
X004418Y007533D01*
X004977Y007533D01*
X005572Y007767D02*
X009542Y007767D01*
X009542Y007925D02*
X006174Y007925D01*
X006298Y008084D02*
X009542Y008084D01*
X009542Y008242D02*
X006331Y008242D01*
X006295Y008401D02*
X009542Y008401D01*
X009542Y008559D02*
X006754Y008559D01*
X006959Y008718D02*
X009542Y008718D01*
X009542Y008876D02*
X007117Y008876D01*
X007276Y009035D02*
X009542Y009035D01*
X009542Y009193D02*
X007602Y009193D01*
X007686Y009352D02*
X009542Y009352D01*
X009542Y009510D02*
X007691Y009510D01*
X007617Y009669D02*
X009542Y009669D01*
X009476Y009583D02*
X009452Y009559D01*
X009476Y009583D02*
X010137Y009583D01*
X010137Y009843D02*
X011016Y009843D01*
X011032Y009859D01*
X011151Y009827D02*
X010732Y009827D01*
X010732Y009843D01*
X010732Y009951D01*
X010720Y009997D01*
X010696Y010038D01*
X010663Y010072D01*
X010622Y010095D01*
X010588Y010104D01*
X010587Y011874D01*
X010906Y011554D01*
X010988Y011473D01*
X011094Y011429D01*
X011362Y011429D01*
X011372Y011419D01*
X011330Y011377D01*
X011264Y011216D01*
X011264Y011180D01*
X011246Y011163D01*
X011202Y011056D01*
X011202Y009879D01*
X010936Y009613D01*
X010792Y009613D01*
X010792Y009715D01*
X010756Y009804D01*
X010732Y009827D01*
X010732Y009843D02*
X010717Y009843D01*
X010732Y009843D01*
X010717Y009843D02*
X010717Y009843D01*
X010723Y009986D02*
X011202Y009986D01*
X011202Y010144D02*
X010588Y010144D01*
X010588Y010303D02*
X011202Y010303D01*
X011202Y010461D02*
X010588Y010461D01*
X010588Y010620D02*
X011202Y010620D01*
X011202Y010778D02*
X010588Y010778D01*
X010588Y010937D02*
X011202Y010937D01*
X011218Y011095D02*
X010587Y011095D01*
X010587Y011254D02*
X011279Y011254D01*
X011366Y011412D02*
X010587Y011412D01*
X010587Y011571D02*
X010890Y011571D01*
X010731Y011729D02*
X010587Y011729D01*
X010267Y011729D02*
X004887Y011729D01*
X004887Y011571D02*
X010267Y011571D01*
X010267Y011412D02*
X004887Y011412D01*
X004887Y011254D02*
X010267Y011254D01*
X010267Y011095D02*
X004887Y011095D01*
X004888Y010937D02*
X010268Y010937D01*
X010268Y010778D02*
X004888Y010778D01*
X004888Y010620D02*
X010268Y010620D01*
X010268Y010461D02*
X004888Y010461D01*
X004888Y010303D02*
X010268Y010303D01*
X010268Y010144D02*
X004888Y010144D01*
X004977Y010108D02*
X004977Y009848D01*
X004977Y009848D01*
X004977Y010108D01*
X004977Y009986D02*
X004977Y009986D01*
X004977Y009843D02*
X005628Y009843D01*
X005632Y009839D01*
X005572Y009843D02*
X005472Y009843D01*
X005472Y009843D01*
X005572Y009843D01*
X005572Y009827D02*
X009542Y009827D01*
X009542Y009986D02*
X005563Y009986D01*
X005572Y009669D02*
X007007Y009669D01*
X006934Y009510D02*
X005572Y009510D01*
X005572Y009352D02*
X006857Y009352D01*
X006699Y009193D02*
X005572Y009193D01*
X005572Y009323D02*
X005482Y009323D01*
X005572Y009323D01*
X005482Y009323D02*
X005482Y009323D01*
X005708Y009323D02*
X004977Y009323D01*
X004977Y009073D02*
X003911Y009073D01*
X003845Y009139D01*
X003382Y009669D02*
X002166Y009669D01*
X003272Y009827D02*
X000872Y009827D01*
X000872Y009669D02*
X000948Y009669D01*
X000917Y009510D02*
X000872Y009510D01*
X000872Y009352D02*
X000917Y009352D01*
X000917Y009193D02*
X000872Y009193D01*
X000872Y009035D02*
X000917Y009035D01*
X000917Y008876D02*
X000872Y008876D01*
X000872Y008718D02*
X000917Y008718D01*
X000872Y008559D02*
X001005Y008559D01*
X000872Y009986D02*
X003250Y009986D01*
X003250Y010144D02*
X000872Y010144D01*
X000872Y010303D02*
X003250Y010303D01*
X003250Y010461D02*
X000872Y010461D01*
X000872Y010620D02*
X003257Y010620D01*
X003399Y010778D02*
X000872Y010778D01*
X000872Y010937D02*
X004568Y010937D01*
X004567Y011095D02*
X000872Y011095D01*
X000872Y011254D02*
X004567Y011254D01*
X004567Y011412D02*
X000872Y011412D01*
X000872Y011571D02*
X004567Y011571D01*
X004567Y011729D02*
X000872Y011729D01*
X000872Y011888D02*
X003384Y011888D01*
X003254Y012046D02*
X000872Y012046D01*
X000872Y012205D02*
X003250Y012205D01*
X003250Y012363D02*
X000872Y012363D01*
X000872Y012522D02*
X003250Y012522D01*
X003250Y012680D02*
X000872Y012680D01*
X000872Y012839D02*
X003274Y012839D01*
X003367Y012997D02*
X000872Y012997D01*
X000872Y013156D02*
X001207Y013156D01*
X001049Y013314D02*
X000872Y013314D01*
X000872Y013473D02*
X000975Y013473D01*
X000937Y013631D02*
X000872Y013631D01*
X000872Y013790D02*
X000937Y013790D01*
X000991Y013948D02*
X000872Y013948D01*
X000872Y014107D02*
X001088Y014107D01*
X001291Y014265D02*
X000872Y014265D01*
X000872Y014424D02*
X002621Y014424D01*
X002463Y014582D02*
X001905Y014582D01*
X001863Y014265D02*
X002780Y014265D01*
X003301Y014107D02*
X002066Y014107D01*
X001249Y014582D02*
X000872Y014582D01*
X000872Y014741D02*
X001070Y014741D01*
X000984Y014899D02*
X000872Y014899D01*
X000872Y015058D02*
X000937Y015058D01*
X000937Y015216D02*
X000872Y015216D01*
X000872Y015375D02*
X000982Y015375D01*
X001066Y015533D02*
X000872Y015533D01*
X000872Y015692D02*
X001239Y015692D01*
X000872Y015850D02*
X003243Y015850D01*
X003243Y015692D02*
X001915Y015692D01*
X002565Y015533D02*
X003243Y015533D01*
X003243Y015375D02*
X002802Y015375D01*
X002960Y015216D02*
X003294Y015216D01*
X003306Y015058D02*
X003119Y015058D01*
X003837Y014580D02*
X003837Y014424D01*
X004977Y014424D01*
X004977Y014164D02*
X006178Y014164D01*
X006292Y014279D01*
X006292Y014859D01*
X005931Y014741D02*
X005572Y014741D01*
X005667Y014684D02*
X004977Y014684D01*
X004977Y014934D02*
X004457Y014934D01*
X004352Y015039D01*
X004352Y015167D01*
X003837Y015682D01*
X003243Y016009D02*
X002138Y016009D01*
X002217Y016167D02*
X003313Y016167D01*
X003837Y016474D02*
X003777Y016703D01*
X003837Y016474D02*
X004977Y016474D01*
X004977Y016724D02*
X005667Y016724D01*
X005672Y016719D01*
X005572Y016643D02*
X009542Y016643D01*
X009542Y016801D02*
X005572Y016801D01*
X005572Y016960D02*
X009542Y016960D01*
X009542Y016984D02*
X009643Y016984D01*
X009643Y016984D01*
X009643Y016984D01*
X009542Y016984D01*
X009418Y016984D02*
X009412Y016979D01*
X009418Y016984D02*
X010137Y016984D01*
X010137Y017244D02*
X010137Y017984D01*
X011022Y018869D01*
X011427Y018703D02*
X010520Y018703D01*
X010582Y018545D02*
X011268Y018545D01*
X011110Y018386D02*
X010582Y018386D01*
X010582Y018228D02*
X010951Y018228D01*
X010793Y018069D02*
X010582Y018069D01*
X010583Y017911D02*
X010670Y017911D01*
X010652Y017752D02*
X010583Y017752D01*
X010583Y017594D02*
X010652Y017594D01*
X009877Y017594D02*
X004883Y017594D01*
X004977Y017509D02*
X004977Y017249D01*
X004977Y017249D01*
X004977Y017509D01*
X004977Y017435D02*
X004977Y017435D01*
X004977Y017277D02*
X004977Y017277D01*
X004977Y017244D02*
X005698Y017244D01*
X005712Y017259D01*
X005572Y017277D02*
X009542Y017277D01*
X009542Y017118D02*
X005572Y017118D01*
X005572Y017144D02*
X005572Y017144D01*
X005539Y017435D02*
X009574Y017435D01*
X009032Y017679D02*
X008912Y017679D01*
X009877Y017752D02*
X004883Y017752D01*
X004883Y017911D02*
X009877Y017911D01*
X009891Y018069D02*
X004882Y018069D01*
X004882Y018228D02*
X010013Y018228D01*
X010172Y018386D02*
X004882Y018386D01*
X004562Y018228D02*
X004347Y018228D01*
X004371Y018069D02*
X004562Y018069D01*
X004563Y017911D02*
X004481Y017911D01*
X004372Y017559D02*
X004072Y017879D01*
X003860Y017879D01*
X003777Y017806D01*
X004372Y017559D02*
X004372Y017059D01*
X004467Y016984D01*
X004977Y016984D01*
X005572Y016634D02*
X005572Y016634D01*
X005572Y016484D02*
X009542Y016484D01*
X009542Y016326D02*
X007250Y016326D01*
X007408Y016167D02*
X009542Y016167D01*
X009542Y016009D02*
X007537Y016009D01*
X007636Y015850D02*
X009468Y015850D01*
X009310Y015692D02*
X007651Y015692D01*
X007597Y015533D02*
X009302Y015533D01*
X009302Y015375D02*
X008671Y015375D01*
X008767Y015216D02*
X009302Y015216D01*
X009302Y015058D02*
X008781Y015058D01*
X008725Y014899D02*
X009356Y014899D01*
X009259Y014741D02*
X008672Y014741D01*
X008812Y014819D02*
X008872Y014819D01*
X008212Y014741D02*
X007354Y014741D01*
X007401Y014899D02*
X008079Y014899D01*
X008024Y015058D02*
X007378Y015058D01*
X007270Y015216D02*
X008037Y015216D01*
X008133Y015375D02*
X007382Y015375D01*
X007162Y015375D02*
X005572Y015375D01*
X005572Y015533D02*
X005722Y015533D01*
X005615Y015692D02*
X005572Y015692D01*
X005827Y015964D02*
X005972Y015819D01*
X005827Y015964D02*
X004977Y015964D01*
X004977Y015704D01*
X005572Y015216D02*
X006166Y015216D01*
X006418Y015216D02*
X006774Y015216D01*
X006666Y015058D02*
X006619Y015058D01*
X005965Y015058D02*
X005572Y015058D01*
X005572Y014899D02*
X005914Y014899D01*
X006032Y014582D02*
X005572Y014582D01*
X004977Y013914D02*
X006858Y013914D01*
X007022Y014079D01*
X007022Y014929D01*
X007282Y014582D02*
X008212Y014582D01*
X008292Y014424D02*
X007282Y014424D01*
X007282Y014265D02*
X008450Y014265D01*
X008892Y013999D02*
X008972Y013999D01*
X009434Y014265D02*
X009542Y014265D01*
X009542Y014107D02*
X007282Y014107D01*
X007250Y013948D02*
X009542Y013948D01*
X009542Y013790D02*
X007101Y013790D01*
X005572Y013631D02*
X009542Y013631D01*
X009542Y013473D02*
X005572Y013473D01*
X005547Y013404D02*
X005552Y013399D01*
X005547Y013404D02*
X004977Y013404D01*
X004977Y013654D02*
X003978Y013654D01*
X003845Y013521D01*
X004412Y013139D02*
X004972Y013139D01*
X004977Y013144D01*
X004977Y012884D02*
X005667Y012884D01*
X005692Y012859D01*
X005572Y012839D02*
X009542Y012839D01*
X009542Y012884D02*
X009643Y012884D01*
X009643Y012884D01*
X009542Y012884D01*
X009478Y012884D02*
X009432Y012839D01*
X009478Y012884D02*
X010137Y012884D01*
X010137Y012839D02*
X010137Y012839D01*
X010137Y012680D02*
X010137Y012680D01*
X010266Y012522D02*
X004886Y012522D01*
X004887Y012363D02*
X010267Y012363D01*
X010267Y012205D02*
X004887Y012205D01*
X004887Y012046D02*
X010267Y012046D01*
X010267Y011888D02*
X004887Y011888D01*
X004567Y011888D02*
X004305Y011888D01*
X004435Y012046D02*
X004567Y012046D01*
X004567Y012205D02*
X004439Y012205D01*
X004439Y012363D02*
X004567Y012363D01*
X004566Y012522D02*
X004439Y012522D01*
X004977Y012680D02*
X004977Y012680D01*
X004977Y012839D02*
X004977Y012839D01*
X005528Y012680D02*
X009587Y012680D01*
X009542Y012997D02*
X005572Y012997D01*
X005572Y013156D02*
X009542Y013156D01*
X009542Y013314D02*
X005572Y013314D01*
X004412Y013139D02*
X003845Y012571D01*
X003845Y012419D01*
X003251Y013156D02*
X001947Y013156D01*
X002392Y011339D02*
X003692Y011339D01*
X004291Y010778D02*
X004568Y010778D01*
X004568Y010620D02*
X004433Y010620D01*
X004439Y010461D02*
X004568Y010461D01*
X004568Y010303D02*
X004439Y010303D01*
X004172Y010059D02*
X004027Y010059D01*
X003845Y010241D01*
X004172Y010059D02*
X004292Y009939D01*
X004292Y009699D01*
X004408Y009583D01*
X004977Y009583D01*
X005708Y009323D02*
X005712Y009319D01*
X004977Y008813D02*
X006686Y008813D01*
X007312Y009439D01*
X008532Y008959D02*
X008532Y008639D01*
X010137Y008563D02*
X010137Y008303D01*
X010137Y008043D02*
X010137Y007793D01*
X010137Y007283D02*
X009396Y007283D01*
X009392Y007279D01*
X008652Y006659D02*
X008572Y006739D01*
X008652Y006659D02*
X008652Y006379D01*
X008512Y005439D02*
X008592Y005359D01*
X008472Y005319D01*
X009252Y005479D02*
X009256Y005483D01*
X010137Y005483D01*
X009356Y005483D01*
X009332Y005459D01*
X010137Y005389D02*
X010137Y005389D01*
X010137Y005231D02*
X010137Y005231D01*
X010592Y005158D02*
X010600Y005158D01*
X010688Y005194D01*
X010712Y005218D01*
X011818Y004113D01*
X011924Y004069D01*
X012902Y004069D01*
X012984Y003987D01*
X013145Y003920D01*
X013319Y003920D01*
X013480Y003987D01*
X013604Y004110D01*
X013671Y004271D01*
X013671Y004446D01*
X013604Y004607D01*
X013480Y004730D01*
X013319Y004797D01*
X013311Y004797D01*
X013311Y004906D01*
X013244Y005067D01*
X013120Y005190D01*
X013038Y005225D01*
X013144Y005330D01*
X013211Y005491D01*
X013211Y005666D01*
X013154Y005802D01*
X013352Y005802D01*
X013612Y005802D01*
X013658Y005814D01*
X013699Y005838D01*
X013732Y005871D01*
X013756Y005912D01*
X013768Y005958D01*
X013768Y006139D01*
X013352Y006139D01*
X013352Y006139D01*
X013352Y005802D01*
X013352Y006139D01*
X013352Y006139D01*
X013768Y006139D01*
X013768Y006320D01*
X013756Y006366D01*
X013732Y006407D01*
X013699Y006441D01*
X013663Y006461D01*
X013724Y006487D01*
X013792Y006554D01*
X013828Y006643D01*
X013828Y007053D01*
X013792Y007141D01*
X013744Y007189D01*
X013754Y007189D01*
X013843Y007225D01*
X013910Y007293D01*
X013947Y007381D01*
X013947Y007928D01*
X014218Y008199D01*
X014262Y008306D01*
X014262Y009356D01*
X014218Y009463D01*
X014136Y009545D01*
X013866Y009815D01*
X013760Y009859D01*
X013012Y009859D01*
X013051Y009951D01*
X013051Y010126D01*
X012984Y010287D01*
X012860Y010410D01*
X012699Y010477D01*
X012525Y010477D01*
X012523Y010476D01*
X012571Y010591D01*
X012571Y010766D01*
X012504Y010927D01*
X012380Y011050D01*
X012219Y011117D01*
X012141Y011117D01*
X012141Y011216D01*
X012074Y011377D01*
X012022Y011429D01*
X012064Y011470D01*
X012131Y011631D01*
X012131Y011806D01*
X012064Y011967D01*
X012042Y011989D01*
X012054Y012000D01*
X012121Y012161D01*
X012121Y012336D01*
X012054Y012497D01*
X012052Y012499D01*
X012054Y012500D01*
X012121Y012661D01*
X012121Y012799D01*
X012260Y012857D01*
X012384Y012980D01*
X012451Y013141D01*
X012451Y013316D01*
X012384Y013477D01*
X012260Y013600D01*
X012114Y013661D01*
X012131Y013701D01*
X012131Y013876D01*
X012098Y013955D01*
X012121Y013932D01*
X012162Y013909D01*
X012207Y013896D01*
X012467Y013896D01*
X012467Y014234D01*
X012467Y014234D01*
X012051Y014234D01*
X012051Y014415D01*
X012063Y014461D01*
X012087Y014502D01*
X012121Y014535D01*
X012157Y014556D01*
X012095Y014582D01*
X012019Y014582D01*
X011994Y014572D02*
X012072Y014604D01*
X012095Y014582D01*
X011994Y014572D02*
X011426Y014572D01*
X011338Y014609D01*
X011270Y014676D01*
X011269Y014680D01*
X011172Y014680D01*
X011172Y014454D01*
X011374Y014454D01*
X011481Y014410D01*
X011664Y014227D01*
X011779Y014227D01*
X011940Y014160D01*
X012052Y014049D01*
X012051Y014053D01*
X012051Y014234D01*
X012467Y014234D01*
X012467Y014234D01*
X012884Y014234D01*
X012884Y014326D01*
X013328Y014326D01*
X013328Y014171D01*
X013483Y014171D01*
X013483Y013754D01*
X013529Y013754D01*
X013522Y013736D01*
X013522Y013701D01*
X013003Y013701D01*
X012915Y013665D01*
X012847Y013597D01*
X012811Y013509D01*
X012811Y012784D01*
X012847Y012696D01*
X012915Y012628D01*
X013003Y012592D01*
X013807Y012592D01*
X013808Y012592D01*
X013808Y012182D01*
X013845Y012093D01*
X013912Y012026D01*
X014001Y011989D01*
X014268Y011989D01*
X014262Y011976D01*
X014262Y007581D01*
X014306Y007474D01*
X015042Y006739D01*
X015042Y005629D01*
X014980Y005567D01*
X014914Y005406D01*
X014914Y005231D01*
X013044Y005231D01*
X013168Y005389D02*
X014914Y005389D01*
X014914Y005231D02*
X014980Y005070D01*
X015104Y004947D01*
X015259Y004883D01*
X013146Y002769D01*
X008439Y002769D01*
X008242Y002965D01*
X008242Y004159D01*
X010209Y004159D01*
X010272Y004159D01*
X010336Y004159D01*
X010395Y004183D01*
X010453Y004207D01*
X010453Y004207D01*
X010454Y004208D01*
X010499Y004253D01*
X010543Y004297D01*
X010543Y004298D01*
X010544Y004298D01*
X010568Y004357D01*
X010592Y004415D01*
X010592Y004415D01*
X010592Y004415D01*
X010592Y004479D01*
X010592Y004542D01*
X010592Y004542D01*
X010592Y005158D01*
X010592Y005072D02*
X010858Y005072D01*
X011017Y004914D02*
X010592Y004914D01*
X010592Y004755D02*
X011175Y004755D01*
X011334Y004597D02*
X010592Y004597D01*
X010592Y004438D02*
X011492Y004438D01*
X011651Y004280D02*
X010526Y004280D01*
X010336Y004159D02*
X010336Y004159D01*
X010336Y004159D01*
X010209Y004159D02*
X010209Y004159D01*
X011809Y004121D02*
X008242Y004121D01*
X008242Y003963D02*
X013042Y003963D01*
X013422Y003963D02*
X014340Y003963D01*
X014498Y004121D02*
X013608Y004121D01*
X013671Y004280D02*
X014657Y004280D01*
X014815Y004438D02*
X013671Y004438D01*
X013608Y004597D02*
X014974Y004597D01*
X015132Y004755D02*
X013421Y004755D01*
X013307Y004914D02*
X015184Y004914D01*
X014980Y005072D02*
X013239Y005072D01*
X013211Y005548D02*
X014972Y005548D01*
X015042Y005706D02*
X013194Y005706D01*
X013352Y005865D02*
X013352Y005865D01*
X013352Y006023D02*
X013352Y006023D01*
X013352Y006139D02*
X012936Y006139D01*
X012936Y005985D01*
X012859Y006017D01*
X012744Y006017D01*
X012512Y006249D01*
X012512Y006506D01*
X012468Y006613D01*
X012442Y006639D01*
X012731Y006639D01*
X012819Y006676D01*
X012876Y006732D01*
X012876Y006643D01*
X012912Y006554D01*
X012980Y006487D01*
X013041Y006461D01*
X013005Y006441D01*
X012972Y006407D01*
X012948Y006366D01*
X012936Y006320D01*
X012936Y006139D01*
X013352Y006139D01*
X013352Y006139D01*
X013768Y006182D02*
X015042Y006182D01*
X015042Y006340D02*
X013763Y006340D01*
X013736Y006499D02*
X015042Y006499D01*
X015042Y006657D02*
X013828Y006657D01*
X013828Y006816D02*
X014965Y006816D01*
X014806Y006974D02*
X013828Y006974D01*
X013795Y007133D02*
X014648Y007133D01*
X014489Y007291D02*
X013909Y007291D01*
X013947Y007450D02*
X014331Y007450D01*
X014262Y007608D02*
X013947Y007608D01*
X013947Y007767D02*
X014262Y007767D01*
X014262Y007925D02*
X013947Y007925D01*
X014103Y008084D02*
X014262Y008084D01*
X014262Y008242D02*
X014236Y008242D01*
X014262Y008401D02*
X014262Y008401D01*
X014262Y008559D02*
X014262Y008559D01*
X014262Y008718D02*
X014262Y008718D01*
X014262Y008876D02*
X014262Y008876D01*
X014262Y009035D02*
X014262Y009035D01*
X014262Y009193D02*
X014262Y009193D01*
X014262Y009352D02*
X014262Y009352D01*
X014262Y009510D02*
X014171Y009510D01*
X014136Y009545D02*
X014136Y009545D01*
X014012Y009669D02*
X014262Y009669D01*
X014262Y009827D02*
X013836Y009827D01*
X014262Y009986D02*
X013051Y009986D01*
X013043Y010144D02*
X014262Y010144D01*
X014262Y010303D02*
X012968Y010303D01*
X012738Y010461D02*
X014262Y010461D01*
X014262Y010620D02*
X012571Y010620D01*
X012565Y010778D02*
X014262Y010778D01*
X014262Y010937D02*
X012494Y010937D01*
X012272Y011095D02*
X014262Y011095D01*
X014262Y011254D02*
X012125Y011254D01*
X012039Y011412D02*
X014262Y011412D01*
X014262Y011571D02*
X012105Y011571D01*
X012131Y011729D02*
X014262Y011729D01*
X014262Y011888D02*
X012097Y011888D01*
X012073Y012046D02*
X013892Y012046D01*
X013808Y012205D02*
X012121Y012205D01*
X012109Y012363D02*
X013808Y012363D01*
X013808Y012522D02*
X012063Y012522D01*
X012121Y012680D02*
X012863Y012680D01*
X012811Y012839D02*
X012216Y012839D01*
X012391Y012997D02*
X012811Y012997D01*
X012811Y013156D02*
X012451Y013156D01*
X012451Y013314D02*
X012811Y013314D01*
X012811Y013473D02*
X012386Y013473D01*
X012186Y013631D02*
X012881Y013631D01*
X012981Y013766D02*
X013027Y013754D01*
X013328Y013754D01*
X013328Y014171D01*
X012884Y014171D01*
X012884Y014234D01*
X012467Y014234D01*
X012467Y014234D01*
X012467Y013896D01*
X012727Y013896D01*
X012773Y013909D01*
X012814Y013932D01*
X012848Y013966D01*
X012871Y014006D01*
X012871Y013910D01*
X012883Y013864D01*
X012907Y013823D01*
X012940Y013790D01*
X012981Y013766D01*
X012941Y013790D02*
X012131Y013790D01*
X012101Y013948D02*
X012105Y013948D01*
X012051Y014107D02*
X011994Y014107D01*
X012051Y014265D02*
X011626Y014265D01*
X011448Y014424D02*
X012053Y014424D01*
X012467Y014107D02*
X012467Y014107D01*
X012467Y013948D02*
X012467Y013948D01*
X012830Y013948D02*
X012871Y013948D01*
X012884Y014265D02*
X013328Y014265D01*
X013328Y014326D02*
X013328Y014744D01*
X013027Y014744D01*
X012981Y014732D01*
X012940Y014708D01*
X012925Y014693D01*
X012944Y014737D01*
X012944Y015121D01*
X012999Y015144D01*
X013067Y015212D01*
X013103Y015300D01*
X013103Y015398D01*
X013186Y015433D01*
X013268Y015514D01*
X013358Y015604D01*
X013402Y015711D01*
X013402Y015719D01*
X013646Y015474D01*
X013728Y015393D01*
X013808Y015360D01*
X013808Y014737D01*
X013783Y014744D01*
X013483Y014744D01*
X013483Y014326D01*
X013328Y014326D01*
X013328Y014424D02*
X013483Y014424D01*
X013483Y014582D02*
X013328Y014582D01*
X013328Y014741D02*
X013483Y014741D01*
X013795Y014741D02*
X013808Y014741D01*
X013808Y014899D02*
X012944Y014899D01*
X012944Y014741D02*
X013015Y014741D01*
X012944Y015058D02*
X013808Y015058D01*
X013808Y015216D02*
X013068Y015216D01*
X013103Y015375D02*
X013772Y015375D01*
X013587Y015533D02*
X013287Y015533D01*
X013394Y015692D02*
X013429Y015692D01*
X014447Y016326D02*
X014813Y016326D01*
X014773Y016484D02*
X014422Y016484D01*
X014422Y016643D02*
X014773Y016643D01*
X014773Y016801D02*
X014387Y016801D01*
X014241Y016960D02*
X014773Y016960D01*
X014784Y017118D02*
X014122Y017118D01*
X014122Y017277D02*
X014947Y017277D01*
X014814Y017594D02*
X014122Y017594D01*
X014122Y017435D02*
X015762Y017435D01*
X014628Y017752D02*
X014107Y017752D01*
X013990Y017911D02*
X014470Y017911D01*
X014311Y018069D02*
X013832Y018069D01*
X013673Y018228D02*
X014153Y018228D01*
X013994Y018386D02*
X013515Y018386D01*
X013503Y018545D02*
X013356Y018545D01*
X013356Y018703D02*
X013198Y018703D01*
X013290Y018862D02*
X004853Y018862D01*
X003207Y018228D02*
X002984Y018228D01*
X003183Y018069D02*
X000872Y018069D01*
X000872Y017911D02*
X003183Y017911D01*
X003183Y017752D02*
X000872Y017752D01*
X000872Y017594D02*
X003183Y017594D01*
X003186Y017435D02*
X000872Y017435D01*
X000872Y017277D02*
X003312Y017277D01*
X003204Y017118D02*
X002182Y017118D01*
X000972Y017118D02*
X000872Y017118D01*
X000872Y016960D02*
X000937Y016960D01*
X000937Y016801D02*
X000872Y016801D01*
X000872Y016643D02*
X000937Y016643D01*
X000937Y016484D02*
X000872Y016484D01*
X000872Y016326D02*
X000937Y016326D01*
X000937Y016167D02*
X000872Y016167D01*
X000872Y016009D02*
X001016Y016009D01*
X001329Y018174D02*
X001407Y018162D01*
X001447Y018162D01*
X001447Y018667D01*
X001447Y019172D01*
X001407Y019172D01*
X001329Y019159D01*
X001253Y019135D01*
X001182Y019099D01*
X001118Y019052D01*
X001062Y018996D01*
X001015Y018932D01*
X000979Y018861D01*
X000954Y018785D01*
X000942Y018707D01*
X000942Y018667D01*
X001447Y018667D01*
X001447Y018667D01*
X001447Y018667D01*
X000942Y018667D01*
X000942Y018627D01*
X000954Y018549D01*
X000979Y018473D01*
X001015Y018402D01*
X001062Y018338D01*
X001118Y018282D01*
X001182Y018235D01*
X001253Y018199D01*
X001329Y018174D01*
X001447Y018228D02*
X001447Y018228D01*
X001447Y018386D02*
X001447Y018386D01*
X001447Y018545D02*
X001447Y018545D01*
X001447Y018703D02*
X001447Y018703D01*
X001447Y018862D02*
X001447Y018862D01*
X001447Y019020D02*
X001447Y019020D01*
X001808Y019020D02*
X001882Y019020D01*
X001969Y019179D02*
X000872Y019179D01*
X000877Y019337D02*
X013348Y019337D01*
X013282Y019179D02*
X002924Y019179D01*
X003012Y019020D02*
X013271Y019020D01*
X013484Y019496D02*
X000960Y019496D01*
X000872Y019020D02*
X001086Y019020D01*
X000979Y018862D02*
X000872Y018862D01*
X000872Y018703D02*
X000942Y018703D01*
X000955Y018545D02*
X000872Y018545D01*
X000872Y018386D02*
X001026Y018386D01*
X000872Y018228D02*
X001196Y018228D01*
X001697Y018228D02*
X001909Y018228D01*
X001882Y018386D02*
X001867Y018386D01*
X004977Y016214D02*
X006993Y016214D01*
X007271Y015937D01*
X007271Y015740D01*
X007272Y015739D01*
X006909Y015850D02*
X006351Y015850D01*
X006329Y015692D02*
X006894Y015692D01*
X006948Y015533D02*
X006222Y015533D01*
X010137Y015444D02*
X010137Y015194D01*
X010137Y015704D02*
X010137Y015964D01*
X011172Y014582D02*
X011402Y014582D01*
X013328Y014107D02*
X013483Y014107D01*
X013483Y013948D02*
X013328Y013948D01*
X013328Y013790D02*
X013483Y013790D01*
X016148Y012405D02*
X016952Y013209D01*
X016952Y012080D01*
X016941Y012084D01*
X016148Y012084D01*
X016148Y012405D01*
X016148Y012363D02*
X016952Y012363D01*
X016952Y012205D02*
X016148Y012205D01*
X016265Y012522D02*
X016952Y012522D01*
X016952Y012680D02*
X016424Y012680D01*
X016582Y012839D02*
X016952Y012839D01*
X016952Y012997D02*
X016741Y012997D01*
X016899Y013156D02*
X016952Y013156D01*
X020068Y014107D02*
X021644Y014107D01*
X022088Y013383D02*
X022482Y012989D01*
X023822Y012989D01*
X024322Y013489D01*
X024322Y014209D01*
X024552Y014439D01*
X024873Y014439D01*
X024901Y014467D02*
X025343Y014909D01*
X027262Y014909D01*
X027413Y014758D01*
X027433Y014749D02*
X028282Y014749D01*
X028593Y015058D02*
X028808Y015058D01*
X028758Y015248D02*
X028712Y015260D01*
X028671Y015284D01*
X028637Y015317D01*
X028614Y015358D01*
X028601Y015404D01*
X028601Y015665D01*
X028980Y015665D01*
X029056Y015665D01*
X029056Y015741D01*
X029434Y015741D01*
X029434Y016003D01*
X029422Y016048D01*
X029398Y016089D01*
X029364Y016123D01*
X029323Y016147D01*
X029278Y016159D01*
X029056Y016159D01*
X029056Y015741D01*
X028980Y015741D01*
X028980Y015665D01*
X028980Y015248D01*
X028758Y015248D01*
X028609Y015375D02*
X028311Y015375D01*
X028313Y015533D02*
X028601Y015533D01*
X028601Y015741D02*
X028980Y015741D01*
X028980Y016159D01*
X028758Y016159D01*
X028712Y016147D01*
X028671Y016123D01*
X028637Y016089D01*
X028614Y016048D01*
X028601Y016003D01*
X028601Y015741D01*
X028601Y015850D02*
X028313Y015850D01*
X028313Y015692D02*
X028980Y015692D01*
X029056Y015692D02*
X032995Y015692D01*
X032877Y015533D02*
X030781Y015533D01*
X030864Y015375D02*
X032862Y015375D01*
X032862Y015216D02*
X030864Y015216D01*
X030912Y015058D02*
X032862Y015058D01*
X032862Y014899D02*
X030924Y014899D01*
X030924Y014741D02*
X032862Y014741D01*
X032862Y014582D02*
X030875Y014582D01*
X030936Y014424D02*
X031091Y014424D01*
X031091Y014265D02*
X030936Y014265D01*
X030936Y014107D02*
X031091Y014107D01*
X031091Y013948D02*
X032732Y013948D01*
X032714Y014107D02*
X031508Y014107D01*
X031508Y014265D02*
X032755Y014265D01*
X032862Y014424D02*
X031499Y014424D01*
X031508Y013790D02*
X032821Y013790D01*
X033483Y013790D02*
X034633Y013790D01*
X034647Y013948D02*
X033573Y013948D01*
X033591Y014107D02*
X034712Y014107D01*
X034860Y014265D02*
X033549Y014265D01*
X033442Y014424D02*
X034717Y014424D01*
X034621Y014582D02*
X033442Y014582D01*
X033442Y014741D02*
X034573Y014741D01*
X034573Y014899D02*
X033442Y014899D01*
X033442Y015058D02*
X034621Y015058D01*
X034717Y015216D02*
X033442Y015216D01*
X033498Y015375D02*
X034766Y015375D01*
X034668Y016167D02*
X028224Y016167D01*
X028276Y016326D02*
X028623Y016326D01*
X028625Y016322D02*
X028658Y016289D01*
X028699Y016265D01*
X028745Y016253D01*
X028967Y016253D01*
X028967Y016670D01*
X029043Y016670D01*
X029043Y016253D01*
X029265Y016253D01*
X029311Y016265D01*
X029352Y016289D01*
X029385Y016322D01*
X029409Y016363D01*
X029421Y016409D01*
X029421Y016670D01*
X029043Y016670D01*
X029043Y016747D01*
X028967Y016747D01*
X028967Y017164D01*
X028745Y017164D01*
X028699Y017152D01*
X028658Y017128D01*
X028625Y017095D01*
X028601Y017053D01*
X028589Y017008D01*
X028589Y016747D01*
X028967Y016747D01*
X028967Y016670D01*
X028589Y016670D01*
X028589Y016409D01*
X028601Y016363D01*
X028625Y016322D01*
X028589Y016484D02*
X028300Y016484D01*
X028300Y016643D02*
X028589Y016643D01*
X028589Y016801D02*
X028300Y016801D01*
X028300Y016960D02*
X028589Y016960D01*
X028649Y017118D02*
X028265Y017118D01*
X028252Y017277D02*
X028654Y017277D01*
X028654Y017276D02*
X028695Y017252D01*
X028741Y017240D01*
X028963Y017240D01*
X028963Y017658D01*
X028585Y017658D01*
X028585Y017396D01*
X028597Y017351D01*
X028621Y017310D01*
X028654Y017276D01*
X028585Y017435D02*
X028296Y017435D01*
X028296Y017594D02*
X028585Y017594D01*
X028585Y017734D02*
X028963Y017734D01*
X028963Y018151D01*
X028741Y018151D01*
X028695Y018139D01*
X028654Y018115D01*
X028621Y018082D01*
X028597Y018041D01*
X028585Y017995D01*
X028585Y017734D01*
X028585Y017752D02*
X028296Y017752D01*
X028296Y017911D02*
X028585Y017911D01*
X028614Y018069D02*
X028275Y018069D01*
X028247Y018228D02*
X028662Y018228D01*
X028654Y018232D02*
X028695Y018208D01*
X028741Y018196D01*
X028963Y018196D01*
X028963Y018614D01*
X028585Y018614D01*
X028585Y018352D01*
X028597Y018307D01*
X028621Y018266D01*
X028654Y018232D01*
X028585Y018386D02*
X028296Y018386D01*
X028296Y018545D02*
X028585Y018545D01*
X028585Y018690D02*
X028963Y018690D01*
X028963Y019107D01*
X028741Y019107D01*
X028695Y019095D01*
X028654Y019071D01*
X028621Y019038D01*
X028597Y018997D01*
X028585Y018951D01*
X028585Y018690D01*
X028585Y018703D02*
X028296Y018703D01*
X028296Y018862D02*
X028585Y018862D01*
X028611Y019020D02*
X028278Y019020D01*
X028963Y019020D02*
X029039Y019020D01*
X029039Y019107D02*
X029261Y019107D01*
X029307Y019095D01*
X029348Y019071D01*
X029381Y019038D01*
X029405Y018997D01*
X029417Y018951D01*
X029417Y018690D01*
X029039Y018690D01*
X028963Y018690D01*
X028963Y018614D01*
X029039Y018614D01*
X029039Y018690D01*
X029039Y019107D01*
X029039Y018862D02*
X028963Y018862D01*
X028963Y018703D02*
X029039Y018703D01*
X029039Y018614D02*
X029417Y018614D01*
X029417Y018352D01*
X029405Y018307D01*
X029381Y018266D01*
X029348Y018232D01*
X029307Y018208D01*
X029261Y018196D01*
X029039Y018196D01*
X029039Y018614D01*
X029039Y018545D02*
X028963Y018545D01*
X028963Y018386D02*
X029039Y018386D01*
X029039Y018228D02*
X028963Y018228D01*
X029039Y018151D02*
X029261Y018151D01*
X029307Y018139D01*
X029348Y018115D01*
X029381Y018082D01*
X029405Y018041D01*
X029417Y017995D01*
X029417Y017734D01*
X029039Y017734D01*
X028963Y017734D01*
X028963Y017658D01*
X029039Y017658D01*
X029039Y017734D01*
X029039Y018151D01*
X029039Y018069D02*
X028963Y018069D01*
X028963Y017911D02*
X029039Y017911D01*
X029039Y017752D02*
X028963Y017752D01*
X029039Y017658D02*
X029417Y017658D01*
X029417Y017396D01*
X029405Y017351D01*
X029381Y017310D01*
X029348Y017276D01*
X029307Y017252D01*
X029261Y017240D01*
X029039Y017240D01*
X029039Y017658D01*
X029039Y017594D02*
X028963Y017594D01*
X028963Y017435D02*
X029039Y017435D01*
X029039Y017277D02*
X028963Y017277D01*
X029043Y017164D02*
X029265Y017164D01*
X029311Y017152D01*
X029352Y017128D01*
X029385Y017095D01*
X029409Y017053D01*
X029421Y017008D01*
X029421Y016747D01*
X029043Y016747D01*
X029043Y017164D01*
X029043Y017118D02*
X028967Y017118D01*
X028967Y016960D02*
X029043Y016960D01*
X029043Y016801D02*
X028967Y016801D01*
X028967Y016643D02*
X029043Y016643D01*
X029043Y016484D02*
X028967Y016484D01*
X028967Y016326D02*
X029043Y016326D01*
X029056Y016009D02*
X028980Y016009D01*
X028980Y015850D02*
X029056Y015850D01*
X029056Y015665D02*
X029434Y015665D01*
X029434Y015404D01*
X029422Y015358D01*
X029398Y015317D01*
X029364Y015284D01*
X029323Y015260D01*
X029278Y015248D01*
X029056Y015248D01*
X029056Y015665D01*
X029056Y015533D02*
X028980Y015533D01*
X028980Y015375D02*
X029056Y015375D01*
X029426Y015375D02*
X030004Y015375D01*
X030004Y015216D02*
X028189Y015216D01*
X027484Y015216D02*
X027356Y015216D01*
X026177Y014589D02*
X026177Y014433D01*
X026317Y014433D01*
X026317Y014433D01*
X026177Y014433D01*
X026177Y014408D01*
X025875Y014408D01*
X025768Y014364D01*
X025687Y014282D01*
X025656Y014209D01*
X025654Y014209D01*
X025548Y014165D01*
X025500Y014117D01*
X025475Y014117D01*
X025334Y014059D01*
X025280Y014113D01*
X025341Y014173D01*
X025377Y014262D01*
X025377Y014491D01*
X025476Y014589D01*
X026177Y014589D01*
X026177Y014582D02*
X025469Y014582D01*
X025377Y014424D02*
X026177Y014424D01*
X025680Y014265D02*
X025377Y014265D01*
X025450Y014107D02*
X025286Y014107D01*
X024445Y014741D02*
X024094Y014741D01*
X024238Y014899D02*
X024881Y014899D01*
X025040Y015058D02*
X024272Y015058D01*
X024272Y015216D02*
X025249Y015216D01*
X025288Y015375D02*
X026001Y015375D01*
X024736Y015375D02*
X024272Y015375D01*
X024363Y015533D02*
X024614Y015533D01*
X024574Y015692D02*
X024421Y015692D01*
X024419Y015850D02*
X024592Y015850D01*
X024682Y016009D02*
X024352Y016009D01*
X024142Y016167D02*
X025324Y016167D01*
X025324Y016326D02*
X022939Y016326D01*
X022882Y016167D02*
X023173Y016167D01*
X022962Y016009D02*
X022882Y016009D01*
X022882Y015850D02*
X022895Y015850D01*
X022894Y015692D02*
X022795Y015692D01*
X022951Y015533D02*
X022637Y015533D01*
X022478Y015375D02*
X023042Y015375D01*
X023042Y015216D02*
X022320Y015216D01*
X022161Y015058D02*
X023042Y015058D01*
X023936Y014582D02*
X024243Y014582D01*
X024085Y014424D02*
X023777Y014424D01*
X023619Y014265D02*
X024002Y014265D01*
X024002Y014107D02*
X022532Y014107D01*
X022643Y013948D02*
X022702Y013948D01*
X022695Y013790D02*
X022643Y013790D01*
X022643Y013631D02*
X022695Y013631D01*
X022643Y013473D02*
X023113Y013473D01*
X023268Y013473D02*
X023854Y013473D01*
X024002Y013631D02*
X023685Y013631D01*
X023685Y013790D02*
X024002Y013790D01*
X024002Y013948D02*
X023679Y013948D01*
X023268Y013948D02*
X023113Y013948D01*
X023113Y013790D02*
X023268Y013790D01*
X023268Y013631D02*
X023113Y013631D01*
X022695Y013314D02*
X022643Y013314D01*
X023685Y013314D02*
X023695Y013314D01*
X025674Y011571D02*
X025941Y011571D01*
X025977Y011412D02*
X025531Y011412D01*
X025507Y011254D02*
X025977Y011254D01*
X025409Y011095D02*
X029778Y011095D01*
X029778Y010937D02*
X029091Y010937D01*
X029093Y010928D02*
X029081Y010974D01*
X029057Y011015D01*
X029023Y011049D01*
X028982Y011072D01*
X028937Y011085D01*
X028636Y011085D01*
X028636Y010667D01*
X029093Y010667D01*
X029093Y010928D01*
X029093Y010778D02*
X029778Y010778D01*
X029778Y010620D02*
X028636Y010620D01*
X028636Y010667D02*
X028636Y010512D01*
X028636Y010095D01*
X028937Y010095D01*
X028982Y010107D01*
X029023Y010131D01*
X029057Y010164D01*
X029081Y010205D01*
X029093Y010251D01*
X029093Y010512D01*
X028636Y010512D01*
X028481Y010512D01*
X028481Y010095D01*
X028181Y010095D01*
X028135Y010107D01*
X028094Y010131D01*
X028060Y010164D01*
X028057Y010171D01*
X028048Y010156D01*
X028015Y010123D01*
X027974Y010099D01*
X027928Y010087D01*
X027627Y010087D01*
X027627Y010504D01*
X027473Y010504D01*
X027473Y010087D01*
X027172Y010087D01*
X027126Y010099D01*
X027085Y010123D01*
X027052Y010156D01*
X027028Y010197D01*
X027016Y010243D01*
X027016Y010504D01*
X027473Y010504D01*
X027473Y010659D01*
X027473Y011077D01*
X027172Y011077D01*
X027126Y011065D01*
X027085Y011041D01*
X027052Y011007D01*
X027028Y010966D01*
X027016Y010921D01*
X027016Y010659D01*
X027473Y010659D01*
X027627Y010659D01*
X027627Y011077D01*
X027928Y011077D01*
X027974Y011065D01*
X028015Y011041D01*
X028048Y011007D01*
X028052Y011001D01*
X028060Y011015D01*
X028094Y011049D01*
X028135Y011072D01*
X028181Y011085D01*
X028481Y011085D01*
X028481Y010667D01*
X028481Y010512D01*
X028024Y010512D01*
X028024Y010504D01*
X027627Y010504D01*
X027627Y010659D01*
X028084Y010659D01*
X028084Y010667D01*
X028481Y010667D01*
X028636Y010667D01*
X028636Y010778D02*
X028481Y010778D01*
X028481Y010620D02*
X027627Y010620D01*
X027473Y010620D02*
X024913Y010620D01*
X024882Y010461D02*
X027016Y010461D01*
X027016Y010303D02*
X024882Y010303D01*
X024882Y010144D02*
X027064Y010144D01*
X027473Y010144D02*
X027627Y010144D01*
X027627Y010303D02*
X027473Y010303D01*
X027473Y010461D02*
X027627Y010461D01*
X027627Y010778D02*
X027473Y010778D01*
X027473Y010937D02*
X027627Y010937D01*
X027020Y010937D02*
X025031Y010937D01*
X025008Y010778D02*
X027016Y010778D01*
X026984Y011254D02*
X026837Y011254D01*
X026837Y011412D02*
X026956Y011412D01*
X026956Y011571D02*
X026872Y011571D01*
X026897Y011729D02*
X026956Y011729D01*
X026956Y011888D02*
X026897Y011888D01*
X026867Y012046D02*
X026956Y012046D01*
X027065Y012205D02*
X026697Y012205D01*
X026697Y012363D02*
X026734Y012363D01*
X026876Y012363D02*
X026944Y012363D01*
X027086Y012363D02*
X027143Y012363D01*
X027285Y012363D02*
X027294Y012363D01*
X028932Y012839D02*
X029097Y012839D01*
X029063Y012680D02*
X029181Y012680D01*
X029111Y012522D02*
X029431Y012522D01*
X029613Y012522D02*
X029778Y012522D01*
X029778Y012363D02*
X029099Y012363D01*
X029055Y012205D02*
X029778Y012205D01*
X029778Y012046D02*
X029153Y012046D01*
X029153Y011888D02*
X029778Y011888D01*
X029778Y011729D02*
X029153Y011729D01*
X029153Y011571D02*
X029778Y011571D01*
X029778Y011412D02*
X029153Y011412D01*
X029122Y011254D02*
X029778Y011254D01*
X030418Y011254D02*
X035705Y011254D01*
X035705Y011412D02*
X030418Y011412D01*
X030418Y011571D02*
X035705Y011571D01*
X035705Y011729D02*
X030418Y011729D01*
X030418Y011888D02*
X035705Y011888D01*
X035705Y012046D02*
X030418Y012046D01*
X030418Y012205D02*
X035705Y012205D01*
X035705Y012363D02*
X030418Y012363D01*
X030738Y012522D02*
X030738Y012522D01*
X030943Y012522D02*
X035705Y012522D01*
X035705Y012680D02*
X031043Y012680D01*
X031043Y012839D02*
X035705Y012839D01*
X035705Y012997D02*
X031043Y012997D01*
X031043Y013156D02*
X035705Y013156D01*
X035705Y013314D02*
X035402Y013314D01*
X035203Y013314D02*
X035163Y013314D01*
X035163Y013473D02*
X035203Y013473D01*
X035203Y013631D02*
X035163Y013631D01*
X035163Y013790D02*
X035203Y013790D01*
X035700Y013631D02*
X035705Y013631D01*
X035705Y013473D02*
X035611Y013473D01*
X034964Y013314D02*
X030987Y013314D01*
X030662Y013473D02*
X034756Y013473D01*
X034666Y013631D02*
X031508Y013631D01*
X031091Y013631D02*
X030936Y013631D01*
X030936Y013790D02*
X031091Y013790D01*
X030936Y013948D02*
X030466Y013948D01*
X030466Y013790D02*
X030518Y013790D01*
X030510Y013631D02*
X030519Y013631D01*
X030518Y014107D02*
X030466Y014107D01*
X030466Y014265D02*
X030518Y014265D01*
X030528Y014424D02*
X030462Y014424D01*
X030434Y015533D02*
X030434Y015533D01*
X030088Y015533D02*
X029434Y015533D01*
X029434Y015850D02*
X033154Y015850D01*
X033312Y016009D02*
X029432Y016009D01*
X029387Y016326D02*
X034826Y016326D01*
X034747Y016484D02*
X029421Y016484D01*
X029421Y016643D02*
X034662Y016643D01*
X035163Y016801D02*
X029421Y016801D01*
X029421Y016960D02*
X034650Y016960D01*
X034720Y017118D02*
X029362Y017118D01*
X029348Y017277D02*
X034876Y017277D01*
X034705Y017435D02*
X029417Y017435D01*
X029417Y017594D02*
X034617Y017594D01*
X034573Y017752D02*
X029417Y017752D01*
X029417Y017911D02*
X034573Y017911D01*
X034626Y018069D02*
X029389Y018069D01*
X029340Y018228D02*
X034728Y018228D01*
X034754Y018386D02*
X029417Y018386D01*
X029417Y018545D02*
X034637Y018545D01*
X034573Y018703D02*
X029417Y018703D01*
X029417Y018862D02*
X034573Y018862D01*
X034606Y019020D02*
X029392Y019020D01*
X025993Y019020D02*
X025027Y019020D01*
X024872Y019020D02*
X023954Y019020D01*
X023954Y019083D02*
X024411Y019083D01*
X024411Y019344D01*
X024399Y019390D01*
X024375Y019431D01*
X024342Y019464D01*
X024301Y019488D01*
X024255Y019500D01*
X023954Y019500D01*
X023954Y019083D01*
X023800Y019083D01*
X023800Y019500D01*
X023499Y019500D01*
X023453Y019488D01*
X023412Y019464D01*
X023379Y019431D01*
X023355Y019390D01*
X023343Y019344D01*
X023343Y019083D01*
X023800Y019083D01*
X023800Y018928D01*
X023954Y018928D01*
X023954Y018510D01*
X024255Y018510D01*
X024301Y018522D01*
X024342Y018546D01*
X024375Y018580D01*
X024399Y018621D01*
X024411Y018666D01*
X024411Y018928D01*
X023954Y018928D01*
X023954Y019083D01*
X023954Y019179D02*
X023800Y019179D01*
X023800Y019337D02*
X023954Y019337D01*
X023954Y019496D02*
X023800Y019496D01*
X023483Y019496D02*
X019277Y019496D01*
X019414Y019337D02*
X020517Y019337D01*
X020312Y019179D02*
X019479Y019179D01*
X019491Y019020D02*
X020154Y019020D01*
X019995Y018862D02*
X019471Y018862D01*
X019406Y018703D02*
X019837Y018703D01*
X022158Y019337D02*
X023343Y019337D01*
X023343Y019179D02*
X022362Y019179D01*
X022521Y019020D02*
X023800Y019020D01*
X023800Y018928D02*
X023343Y018928D01*
X023343Y018666D01*
X023355Y018621D01*
X023379Y018580D01*
X023412Y018546D01*
X023453Y018522D01*
X023499Y018510D01*
X023800Y018510D01*
X023800Y018928D01*
X023800Y018862D02*
X023954Y018862D01*
X023954Y018703D02*
X023800Y018703D01*
X023800Y018545D02*
X023954Y018545D01*
X024339Y018545D02*
X024508Y018545D01*
X024526Y018534D02*
X024571Y018522D01*
X024872Y018522D01*
X024872Y018939D01*
X024415Y018939D01*
X024415Y018678D01*
X024427Y018632D01*
X024451Y018591D01*
X024485Y018558D01*
X024526Y018534D01*
X024412Y018386D02*
X024402Y018386D01*
X024411Y018703D02*
X024415Y018703D01*
X024411Y018862D02*
X024415Y018862D01*
X024415Y019094D02*
X024872Y019094D01*
X024872Y019512D01*
X024571Y019512D01*
X024526Y019500D01*
X024485Y019476D01*
X024451Y019442D01*
X024427Y019401D01*
X024415Y019356D01*
X024415Y019094D01*
X024411Y019179D02*
X024415Y019179D01*
X024411Y019337D02*
X024415Y019337D01*
X024519Y019496D02*
X024271Y019496D01*
X024872Y019496D02*
X025027Y019496D01*
X025027Y019337D02*
X024872Y019337D01*
X024872Y019179D02*
X025027Y019179D01*
X025380Y019496D02*
X035705Y019496D01*
X035705Y019337D02*
X035528Y019337D01*
X035687Y019179D02*
X035705Y019179D01*
X028603Y016009D02*
X028313Y016009D01*
X025027Y018545D02*
X024872Y018545D01*
X024872Y018703D02*
X025027Y018703D01*
X025027Y018862D02*
X024872Y018862D01*
X025484Y018862D02*
X025685Y018862D01*
X025527Y018703D02*
X025484Y018703D01*
X023415Y018545D02*
X022862Y018545D01*
X022862Y018386D02*
X023352Y018386D01*
X023283Y018228D02*
X022862Y018228D01*
X022826Y018703D02*
X023343Y018703D01*
X023343Y018862D02*
X022679Y018862D01*
X023492Y016167D02*
X023823Y016167D01*
X020115Y014265D02*
X020032Y014265D01*
X014981Y016167D02*
X014852Y016167D01*
X010326Y018829D02*
X010326Y018829D01*
X016453Y010937D02*
X016624Y010937D01*
X016624Y010778D02*
X016453Y010778D01*
X016453Y010620D02*
X016624Y010620D01*
X016624Y010461D02*
X016453Y010461D01*
X016453Y010303D02*
X016624Y010303D01*
X016676Y010144D02*
X016411Y010144D01*
X016263Y009986D02*
X016786Y009986D01*
X016684Y009827D02*
X016393Y009827D01*
X016393Y009669D02*
X016684Y009669D01*
X017141Y009669D02*
X017296Y009669D01*
X017296Y009827D02*
X017141Y009827D01*
X017141Y009986D02*
X017296Y009986D01*
X017651Y009986D02*
X017732Y009986D01*
X018702Y009986D02*
X018755Y009986D01*
X018702Y009827D02*
X018913Y009827D01*
X019072Y009669D02*
X018702Y009669D01*
X018702Y009510D02*
X022993Y009510D01*
X023099Y009352D02*
X018702Y009352D01*
X018738Y009193D02*
X023802Y009193D01*
X023802Y009035D02*
X018830Y009035D01*
X018851Y008876D02*
X023802Y008876D01*
X023853Y008718D02*
X018812Y008718D01*
X018693Y008559D02*
X024011Y008559D01*
X024170Y008401D02*
X018403Y008401D01*
X018451Y008242D02*
X024314Y008242D01*
X024338Y008084D02*
X018439Y008084D01*
X018359Y007925D02*
X019350Y007925D01*
X019314Y007910D02*
X019190Y007787D01*
X019124Y007626D01*
X019124Y007553D01*
X018881Y007310D01*
X018832Y007192D01*
X018832Y006779D01*
X018780Y006727D01*
X018714Y006566D01*
X018714Y006391D01*
X018780Y006230D01*
X018904Y006107D01*
X019065Y006040D01*
X019239Y006040D01*
X019400Y006107D01*
X019452Y006159D01*
X019773Y006159D01*
X019804Y006082D01*
X019872Y006015D01*
X019960Y005978D01*
X020685Y005978D01*
X020774Y006015D01*
X020841Y006082D01*
X020878Y006170D01*
X020878Y006974D01*
X020936Y006974D01*
X020942Y006996D02*
X020930Y006950D01*
X020930Y006650D01*
X021348Y006650D01*
X021348Y007107D01*
X021086Y007107D01*
X021041Y007094D01*
X021000Y007071D01*
X020966Y007037D01*
X020942Y006996D01*
X020878Y006974D02*
X020841Y007063D01*
X020774Y007130D01*
X020685Y007167D01*
X019960Y007167D01*
X019872Y007130D01*
X019804Y007063D01*
X019768Y006974D01*
X019472Y006974D01*
X019472Y006996D02*
X019472Y006799D01*
X019768Y006799D01*
X019768Y006974D01*
X019768Y006816D02*
X019472Y006816D01*
X019472Y006996D02*
X019576Y007100D01*
X019649Y007100D01*
X019810Y007167D01*
X019934Y007290D01*
X020001Y007451D01*
X020001Y007626D01*
X019934Y007787D01*
X019810Y007910D01*
X019649Y007977D01*
X019475Y007977D01*
X019314Y007910D01*
X019182Y007767D02*
X018115Y007767D01*
X017909Y007767D02*
X016394Y007767D01*
X016236Y007925D02*
X017666Y007925D01*
X017585Y008084D02*
X016077Y008084D01*
X015919Y008242D02*
X017574Y008242D01*
X017621Y008401D02*
X015760Y008401D01*
X015602Y008559D02*
X017732Y008559D01*
X017732Y008718D02*
X015558Y008718D01*
X015558Y008876D02*
X017732Y008876D01*
X017732Y009035D02*
X017659Y009035D01*
X017296Y009035D02*
X017141Y009035D01*
X017141Y009193D02*
X017296Y009193D01*
X017296Y009352D02*
X017141Y009352D01*
X017141Y009510D02*
X015936Y009510D01*
X015936Y009352D02*
X015781Y009352D01*
X015781Y009193D02*
X015936Y009193D01*
X015936Y009035D02*
X015781Y009035D01*
X016316Y009035D02*
X016778Y009035D01*
X016684Y009193D02*
X016393Y009193D01*
X016393Y009352D02*
X016684Y009352D01*
X015936Y009669D02*
X015781Y009669D01*
X015781Y009827D02*
X015936Y009827D01*
X015936Y009986D02*
X015781Y009986D01*
X019775Y007925D02*
X024436Y007925D01*
X025069Y007925D02*
X028264Y007925D01*
X028187Y007767D02*
X019942Y007767D01*
X020001Y007608D02*
X028132Y007608D01*
X028132Y007450D02*
X020000Y007450D01*
X019934Y007291D02*
X028152Y007291D01*
X028217Y007133D02*
X020768Y007133D01*
X020878Y006816D02*
X020930Y006816D01*
X020930Y006657D02*
X020878Y006657D01*
X020878Y006499D02*
X021348Y006499D01*
X021348Y006495D02*
X020930Y006495D01*
X020930Y006194D01*
X020942Y006149D01*
X020966Y006108D01*
X021000Y006074D01*
X021041Y006050D01*
X021086Y006038D01*
X021348Y006038D01*
X021348Y006495D01*
X021503Y006495D01*
X021503Y006650D01*
X021920Y006650D01*
X021920Y006950D01*
X021908Y006996D01*
X021884Y007037D01*
X021851Y007071D01*
X021809Y007094D01*
X021764Y007107D01*
X021503Y007107D01*
X021503Y006650D01*
X021348Y006650D01*
X021348Y006495D01*
X021503Y006495D02*
X021503Y006038D01*
X021764Y006038D01*
X021809Y006050D01*
X021851Y006074D01*
X021884Y006108D01*
X021908Y006149D01*
X021920Y006194D01*
X021920Y006495D01*
X021503Y006495D01*
X021503Y006499D02*
X031786Y006499D01*
X031944Y006657D02*
X021920Y006657D01*
X021920Y006816D02*
X028558Y006816D01*
X028338Y006974D02*
X021914Y006974D01*
X021503Y006974D02*
X021348Y006974D01*
X021348Y006816D02*
X021503Y006816D01*
X021503Y006657D02*
X021348Y006657D01*
X021348Y006340D02*
X021503Y006340D01*
X021503Y006182D02*
X021348Y006182D01*
X020933Y006182D02*
X020878Y006182D01*
X020878Y006340D02*
X020930Y006340D01*
X020782Y006023D02*
X024053Y006023D01*
X024088Y006029D02*
X024010Y006016D01*
X023934Y005992D01*
X023863Y005956D01*
X023799Y005909D01*
X023743Y005853D01*
X023696Y005788D01*
X023660Y005718D01*
X023635Y005642D01*
X023623Y005563D01*
X023623Y005524D01*
X024128Y005524D01*
X024128Y006029D01*
X024088Y006029D01*
X024128Y006029D02*
X024128Y005524D01*
X024128Y005524D01*
X024128Y005524D01*
X024633Y005524D01*
X024633Y005563D01*
X024621Y005642D01*
X024596Y005718D01*
X024560Y005788D01*
X024513Y005853D01*
X024457Y005909D01*
X024393Y005956D01*
X024322Y005992D01*
X024246Y006016D01*
X024168Y006029D01*
X024128Y006029D01*
X024128Y006023D02*
X024128Y006023D01*
X024203Y006023D02*
X031310Y006023D01*
X031152Y005865D02*
X024501Y005865D01*
X024600Y005706D02*
X026148Y005706D01*
X025905Y005548D02*
X024633Y005548D01*
X024633Y005524D02*
X024128Y005524D01*
X024128Y005524D01*
X023623Y005524D01*
X023623Y005484D01*
X023635Y005405D01*
X023660Y005330D01*
X023696Y005259D01*
X023743Y005195D01*
X023799Y005139D01*
X023863Y005092D01*
X023934Y005056D01*
X024010Y005031D01*
X024088Y005019D01*
X024128Y005019D01*
X024128Y005524D01*
X024128Y005524D01*
X024128Y005019D01*
X024168Y005019D01*
X024246Y005031D01*
X024322Y005056D01*
X024393Y005092D01*
X024457Y005139D01*
X024513Y005195D01*
X024560Y005259D01*
X024596Y005330D01*
X024621Y005405D01*
X024633Y005484D01*
X024633Y005524D01*
X024615Y005389D02*
X025746Y005389D01*
X025588Y005231D02*
X024539Y005231D01*
X024354Y005072D02*
X025429Y005072D01*
X025271Y004914D02*
X023785Y004914D01*
X023902Y005072D02*
X023626Y005072D01*
X023717Y005231D02*
X015790Y005231D01*
X015791Y005389D02*
X023641Y005389D01*
X023623Y005548D02*
X016181Y005548D01*
X016319Y005706D02*
X023656Y005706D01*
X023755Y005865D02*
X017008Y005865D01*
X017167Y006023D02*
X019863Y006023D01*
X020229Y006479D02*
X019152Y006479D01*
X019152Y007129D01*
X019562Y007539D01*
X019728Y007133D02*
X019878Y007133D01*
X019021Y007450D02*
X016711Y007450D01*
X016553Y007608D02*
X019124Y007608D01*
X018873Y007291D02*
X016870Y007291D01*
X017028Y007133D02*
X018832Y007133D01*
X018832Y006974D02*
X017187Y006974D01*
X017242Y006816D02*
X018832Y006816D01*
X018752Y006657D02*
X017242Y006657D01*
X017242Y006499D02*
X018714Y006499D01*
X018735Y006340D02*
X017242Y006340D01*
X017242Y006182D02*
X018829Y006182D01*
X021917Y006182D02*
X031469Y006182D01*
X031627Y006340D02*
X021920Y006340D01*
X024128Y005865D02*
X024128Y005865D01*
X024128Y005706D02*
X024128Y005706D01*
X024128Y005548D02*
X024128Y005548D01*
X024128Y005389D02*
X024128Y005389D01*
X024128Y005231D02*
X024128Y005231D01*
X024128Y005072D02*
X024128Y005072D01*
X023943Y004755D02*
X025112Y004755D01*
X024954Y004597D02*
X024102Y004597D01*
X024260Y004438D02*
X024795Y004438D01*
X024632Y004280D02*
X024419Y004280D01*
X023118Y003487D02*
X020084Y003487D01*
X020173Y003329D02*
X023277Y003329D01*
X023435Y003170D02*
X020191Y003170D01*
X020149Y003012D02*
X023594Y003012D01*
X023792Y002853D02*
X020035Y002853D01*
X020035Y002695D02*
X024547Y002695D01*
X024665Y002536D02*
X020035Y002536D01*
X020035Y002378D02*
X024665Y002378D01*
X024665Y002219D02*
X020035Y002219D01*
X020035Y002061D02*
X024579Y002061D01*
X024558Y001902D02*
X020035Y001902D01*
X020035Y001744D02*
X022555Y001744D01*
X022288Y001585D02*
X022016Y001585D01*
X021414Y001585D02*
X021051Y001585D01*
X021191Y001427D02*
X021229Y001427D01*
X020735Y001427D02*
X020695Y001427D01*
X020695Y001585D02*
X020735Y001585D01*
X020735Y001268D02*
X020695Y001268D01*
X020695Y001110D02*
X020735Y001110D01*
X020735Y000951D02*
X020695Y000951D01*
X020695Y000793D02*
X020735Y000793D01*
X020735Y000634D02*
X020695Y000634D01*
X020521Y000634D02*
X020162Y000634D01*
X020269Y000793D02*
X020294Y000793D01*
X020024Y000476D02*
X021506Y000476D01*
X021268Y000634D02*
X020908Y000634D01*
X021135Y000793D02*
X021161Y000793D01*
X021923Y000476D02*
X023506Y000476D01*
X023268Y000634D02*
X023062Y000634D01*
X022368Y000634D02*
X022162Y000634D01*
X023142Y001585D02*
X023414Y001585D01*
X022875Y001744D02*
X024558Y001744D01*
X024558Y001585D02*
X024016Y001585D01*
X024200Y001427D02*
X024565Y001427D01*
X024708Y001268D02*
X024285Y001268D01*
X024325Y001110D02*
X028192Y001110D01*
X028192Y001179D02*
X028192Y000713D01*
X028204Y000667D01*
X028228Y000626D01*
X028261Y000593D01*
X028302Y000569D01*
X028348Y000557D01*
X028814Y000557D01*
X028814Y001179D01*
X028192Y001179D01*
X028169Y001268D02*
X028814Y001268D01*
X028929Y001268D02*
X030612Y001268D01*
X030612Y001110D02*
X029552Y001110D01*
X029552Y000951D02*
X030678Y000951D01*
X030769Y000793D02*
X029552Y000793D01*
X029520Y000634D02*
X030928Y000634D01*
X031816Y000634D02*
X032178Y000634D01*
X032019Y000793D02*
X031974Y000793D01*
X033066Y000634D02*
X035705Y000634D01*
X035705Y000476D02*
X023923Y000476D01*
X024162Y000634D02*
X028223Y000634D01*
X028192Y000793D02*
X024269Y000793D01*
X024325Y000951D02*
X028192Y000951D01*
X027779Y001268D02*
X027624Y001268D01*
X027624Y001427D02*
X027779Y001427D01*
X027779Y001585D02*
X027624Y001585D01*
X027624Y001902D02*
X027779Y001902D01*
X027779Y002061D02*
X027624Y002061D01*
X027624Y002219D02*
X027779Y002219D01*
X028083Y002219D02*
X030612Y002219D01*
X030612Y002061D02*
X028236Y002061D01*
X028236Y001902D02*
X028298Y001902D01*
X028260Y002378D02*
X030612Y002378D01*
X030612Y002536D02*
X028296Y002536D01*
X028296Y002695D02*
X030612Y002695D01*
X030612Y002853D02*
X028296Y002853D01*
X028296Y003012D02*
X030612Y003012D01*
X030612Y003170D02*
X028296Y003170D01*
X028209Y003329D02*
X030612Y003329D01*
X030612Y003487D02*
X027992Y003487D01*
X027992Y003646D02*
X030612Y003646D01*
X030612Y003804D02*
X027992Y003804D01*
X027992Y003963D02*
X030612Y003963D01*
X030612Y004121D02*
X027992Y004121D01*
X027412Y004121D02*
X026571Y004121D01*
X026413Y003963D02*
X027412Y003963D01*
X027412Y003804D02*
X026254Y003804D01*
X026096Y003646D02*
X027412Y003646D01*
X027412Y003487D02*
X025937Y003487D01*
X025779Y003329D02*
X026311Y003329D01*
X026186Y003170D02*
X025620Y003170D01*
X025452Y003012D02*
X026186Y003012D01*
X026643Y003012D02*
X026798Y003012D01*
X026798Y003170D02*
X026643Y003170D01*
X026643Y003329D02*
X026798Y003329D01*
X027131Y003329D02*
X027195Y003329D01*
X026643Y002853D02*
X025253Y002853D01*
X025245Y002695D02*
X026186Y002695D01*
X026186Y002536D02*
X025245Y002536D01*
X025245Y002378D02*
X026266Y002378D01*
X026191Y002219D02*
X025245Y002219D01*
X026041Y002061D02*
X026126Y002061D01*
X026643Y002378D02*
X026798Y002378D01*
X026798Y002536D02*
X026643Y002536D01*
X026643Y002695D02*
X026798Y002695D01*
X027250Y002219D02*
X027321Y002219D01*
X026126Y001427D02*
X026055Y001427D01*
X026184Y001268D02*
X025912Y001268D01*
X025417Y001268D02*
X025203Y001268D01*
X028814Y001110D02*
X028929Y001110D01*
X028929Y000951D02*
X028814Y000951D01*
X028814Y000793D02*
X028929Y000793D01*
X028929Y000634D02*
X028814Y000634D01*
X028814Y001427D02*
X028929Y001427D01*
X028929Y001585D02*
X028814Y001585D01*
X028814Y001744D02*
X028929Y001744D01*
X028929Y001902D02*
X028814Y001902D01*
X029445Y001902D02*
X030612Y001902D01*
X030612Y001744D02*
X029552Y001744D01*
X029552Y001585D02*
X030612Y001585D01*
X030612Y001427D02*
X029552Y001427D01*
X032092Y001902D02*
X032294Y001902D01*
X032092Y002061D02*
X034815Y002061D01*
X034815Y002219D02*
X032092Y002219D01*
X032092Y002378D02*
X034836Y002378D01*
X035347Y002378D02*
X035443Y002378D01*
X035443Y002219D02*
X035347Y002219D01*
X035347Y002061D02*
X035443Y002061D01*
X035347Y001902D02*
X032949Y001902D01*
X033161Y001744D02*
X034815Y001744D01*
X034815Y001585D02*
X033278Y001585D01*
X033344Y001427D02*
X034826Y001427D01*
X035347Y001427D02*
X035443Y001427D01*
X035443Y001585D02*
X035347Y001585D01*
X035347Y001744D02*
X035443Y001744D01*
X035705Y001268D02*
X033362Y001268D01*
X033362Y001110D02*
X035705Y001110D01*
X035705Y000951D02*
X033304Y000951D01*
X033224Y000793D02*
X035705Y000793D01*
X035705Y002536D02*
X032092Y002536D01*
X032092Y002695D02*
X035705Y002695D01*
X035705Y002853D02*
X032092Y002853D01*
X032092Y003012D02*
X035705Y003012D01*
X035705Y003170D02*
X035660Y003170D01*
X035129Y003170D02*
X032092Y003170D01*
X032092Y003329D02*
X034881Y003329D01*
X034749Y003487D02*
X032092Y003487D01*
X032092Y003646D02*
X034683Y003646D01*
X034655Y003804D02*
X032092Y003804D01*
X032092Y003963D02*
X034655Y003963D01*
X034655Y004121D02*
X032092Y004121D01*
X032092Y004280D02*
X034655Y004280D01*
X034655Y004438D02*
X032092Y004438D01*
X032092Y004597D02*
X034655Y004597D01*
X034655Y004755D02*
X032135Y004755D01*
X032294Y004914D02*
X034655Y004914D01*
X034655Y005072D02*
X032452Y005072D01*
X032611Y005231D02*
X034655Y005231D01*
X034655Y005389D02*
X034406Y005389D01*
X034487Y005548D02*
X034655Y005548D01*
X034655Y005706D02*
X034566Y005706D01*
X034632Y005865D02*
X034655Y005865D01*
X034652Y006023D02*
X034655Y006023D01*
X034652Y006182D02*
X034682Y006182D01*
X034747Y006340D02*
X034598Y006340D01*
X034522Y006499D02*
X034877Y006499D01*
X034935Y006657D02*
X034464Y006657D01*
X035705Y006816D02*
X032935Y006816D01*
X033156Y006974D02*
X035705Y006974D01*
X035705Y007133D02*
X033276Y007133D01*
X033342Y007291D02*
X035705Y007291D01*
X035705Y007450D02*
X033362Y007450D01*
X033362Y007608D02*
X035705Y007608D01*
X035705Y007767D02*
X033307Y007767D01*
X033230Y007925D02*
X035705Y007925D01*
X035705Y008084D02*
X033071Y008084D01*
X032985Y008242D02*
X035705Y008242D01*
X035705Y008401D02*
X033076Y008401D01*
X033076Y008559D02*
X035705Y008559D01*
X035705Y008718D02*
X033076Y008718D01*
X033043Y008876D02*
X035705Y008876D01*
X035705Y009035D02*
X032982Y009035D01*
X033016Y009193D02*
X035705Y009193D01*
X035705Y009352D02*
X033016Y009352D01*
X033016Y009299D02*
X033016Y009480D01*
X033004Y009526D01*
X032980Y009567D01*
X032947Y009601D01*
X032906Y009624D01*
X032860Y009637D01*
X032600Y009637D01*
X032600Y009299D01*
X032184Y009299D01*
X032184Y009480D01*
X032196Y009526D01*
X032220Y009567D01*
X032253Y009601D01*
X032294Y009624D01*
X032340Y009637D01*
X032600Y009637D01*
X032600Y009299D01*
X033016Y009299D01*
X033008Y009510D02*
X035705Y009510D01*
X035705Y009669D02*
X031556Y009669D01*
X031561Y009510D02*
X032192Y009510D01*
X032184Y009352D02*
X031514Y009352D01*
X031395Y009193D02*
X032184Y009193D01*
X032218Y009035D02*
X030499Y009035D01*
X030622Y009193D02*
X030724Y009193D01*
X031060Y009193D02*
X031060Y009193D01*
X031060Y009352D02*
X031060Y009352D01*
X031060Y009510D02*
X031060Y009510D01*
X031060Y009669D02*
X031060Y009669D01*
X031060Y009827D02*
X031060Y009827D01*
X031060Y009986D02*
X031060Y009986D01*
X031349Y009986D02*
X035705Y009986D01*
X035705Y010144D02*
X030418Y010144D01*
X030418Y010303D02*
X035705Y010303D01*
X035705Y010461D02*
X030418Y010461D01*
X030418Y010620D02*
X035705Y010620D01*
X035705Y010778D02*
X030418Y010778D01*
X030418Y010937D02*
X035705Y010937D01*
X035705Y011095D02*
X030418Y011095D01*
X029778Y010461D02*
X029093Y010461D01*
X029093Y010303D02*
X029778Y010303D01*
X029778Y010144D02*
X029037Y010144D01*
X028636Y010144D02*
X028481Y010144D01*
X028481Y010303D02*
X028636Y010303D01*
X028636Y010461D02*
X028481Y010461D01*
X028481Y010937D02*
X028636Y010937D01*
X028080Y010144D02*
X028036Y010144D01*
X029001Y009510D02*
X024882Y009510D01*
X024882Y009669D02*
X029160Y009669D01*
X029328Y009827D02*
X024882Y009827D01*
X024882Y009986D02*
X029511Y009986D01*
X030060Y009572D02*
X030098Y009611D01*
X030098Y012933D01*
X030073Y012959D02*
X029522Y012959D01*
X030608Y009986D02*
X030770Y009986D01*
X031496Y009827D02*
X035705Y009827D01*
X032600Y009510D02*
X032600Y009510D01*
X032600Y009352D02*
X032600Y009352D01*
X032600Y009299D02*
X032600Y009299D01*
X032157Y008876D02*
X029272Y008876D01*
X029192Y008718D02*
X032124Y008718D01*
X032124Y008559D02*
X029192Y008559D01*
X029192Y008401D02*
X032124Y008401D01*
X032215Y008242D02*
X029192Y008242D01*
X029321Y008084D02*
X032172Y008084D01*
X032014Y007925D02*
X029480Y007925D01*
X029557Y007767D02*
X031937Y007767D01*
X031882Y007608D02*
X029612Y007608D01*
X029612Y007450D02*
X031882Y007450D01*
X031902Y007291D02*
X029592Y007291D01*
X029526Y007133D02*
X031967Y007133D01*
X032088Y006974D02*
X029406Y006974D01*
X029185Y006816D02*
X032308Y006816D01*
X028872Y007487D02*
X028872Y008928D01*
X029492Y009549D01*
X030036Y009549D01*
X029620Y009035D02*
X029431Y009035D01*
X028843Y009352D02*
X024901Y009352D01*
X025118Y009193D02*
X028684Y009193D01*
X028569Y009035D02*
X025187Y009035D01*
X025191Y008876D02*
X028552Y008876D01*
X028552Y008718D02*
X025135Y008718D01*
X025042Y008559D02*
X028552Y008559D01*
X028552Y008401D02*
X025155Y008401D01*
X025191Y008242D02*
X028552Y008242D01*
X028422Y008084D02*
X025167Y008084D01*
X023802Y009352D02*
X023705Y009352D01*
X015042Y006023D02*
X013768Y006023D01*
X013726Y005865D02*
X015042Y005865D01*
X012936Y006023D02*
X012738Y006023D01*
X012579Y006182D02*
X012936Y006182D01*
X012941Y006340D02*
X012512Y006340D01*
X012512Y006499D02*
X012968Y006499D01*
X012876Y006657D02*
X012775Y006657D01*
X014181Y003804D02*
X008242Y003804D01*
X008242Y003646D02*
X014023Y003646D01*
X013864Y003487D02*
X008242Y003487D01*
X008242Y003329D02*
X013706Y003329D01*
X013547Y003170D02*
X008242Y003170D01*
X008242Y003012D02*
X013389Y003012D01*
X013230Y002853D02*
X008354Y002853D01*
X013897Y001427D02*
X015574Y001427D01*
X015628Y001585D02*
X014055Y001585D01*
X014214Y001744D02*
X015492Y001744D01*
X015487Y001902D02*
X014372Y001902D01*
X014531Y002061D02*
X015487Y002061D01*
X015487Y002219D02*
X014689Y002219D01*
X014848Y002378D02*
X015487Y002378D01*
X015510Y002536D02*
X015006Y002536D01*
X015165Y002695D02*
X019395Y002695D01*
X019395Y002853D02*
X015323Y002853D01*
X015482Y003012D02*
X019355Y003012D01*
X019314Y003170D02*
X015640Y003170D01*
X015799Y003329D02*
X019331Y003329D01*
X019421Y003487D02*
X015957Y003487D01*
X016116Y003646D02*
X022960Y003646D01*
X019752Y003199D02*
X019715Y003161D01*
X019715Y001050D01*
X019712Y001047D02*
X019712Y000559D01*
X019572Y000419D01*
X017552Y000419D01*
X017171Y000800D01*
X016732Y001110D02*
X016616Y001110D01*
X016616Y001268D02*
X016716Y001268D01*
X016695Y001427D02*
X016589Y001427D01*
X016535Y001585D02*
X016695Y001585D01*
X016159Y001427D02*
X016004Y001427D01*
X016004Y001268D02*
X016159Y001268D01*
X016159Y001110D02*
X016004Y001110D01*
X016004Y000634D02*
X016159Y000634D01*
X018700Y002061D02*
X019395Y002061D01*
X019395Y002219D02*
X018542Y002219D01*
X018367Y002378D02*
X019395Y002378D01*
X019395Y002536D02*
X017837Y002536D01*
X017202Y002536D02*
X017128Y002536D01*
X018859Y001902D02*
X019395Y001902D01*
X019395Y001744D02*
X018983Y001744D01*
X019142Y001585D02*
X019395Y001585D01*
X020035Y001585D02*
X020379Y001585D01*
X020239Y001427D02*
X020200Y001427D01*
X007152Y006816D02*
X006212Y006816D01*
X006263Y006974D02*
X007141Y006974D01*
X005692Y005999D02*
X005688Y006003D01*
X005730Y007925D02*
X005572Y007925D01*
X005572Y008084D02*
X005607Y008084D01*
X005572Y008242D02*
X005574Y008242D01*
X005628Y008563D02*
X005952Y008239D01*
X005628Y008563D02*
X004977Y008563D01*
X004977Y008303D01*
X010792Y009669D02*
X010992Y009669D01*
D33*
X012132Y010679D03*
X011702Y011129D03*
X010862Y010839D03*
X011692Y011719D03*
X011682Y012249D03*
X011682Y012749D03*
X012012Y013229D03*
X011692Y013789D03*
X013542Y015159D03*
X015272Y015839D03*
X015652Y015279D03*
X016732Y014659D03*
X015632Y013859D03*
X018222Y012829D03*
X018212Y012319D03*
X022772Y010899D03*
X023492Y011139D03*
X024592Y010919D03*
X025092Y011399D03*
X024592Y012049D03*
X025562Y013679D03*
X025712Y014479D03*
X025012Y015719D03*
X023982Y015759D03*
X023332Y015759D03*
X021632Y016259D03*
X021052Y016019D03*
X020292Y016359D03*
X019492Y016779D03*
X021512Y016759D03*
X021432Y017659D03*
X021432Y018359D03*
X025762Y016239D03*
X028282Y014749D03*
X028782Y014129D03*
X028752Y013579D03*
X029522Y012959D03*
X028672Y012479D03*
X033152Y014079D03*
X033792Y017219D03*
X023412Y010319D03*
X023402Y009669D03*
X024752Y008939D03*
X024752Y008229D03*
X019562Y007539D03*
X019152Y006479D03*
X016472Y006479D03*
X015932Y005919D03*
X015352Y005319D03*
X013232Y004359D03*
X012872Y004819D03*
X012772Y005579D03*
X011832Y005499D03*
X011852Y006069D03*
X009392Y007279D03*
X008652Y006379D03*
X008472Y005319D03*
X007412Y007239D03*
X005952Y007199D03*
X005952Y008239D03*
X007312Y009439D03*
X008532Y008639D03*
X012612Y010039D03*
X015432Y007259D03*
X018012Y008199D03*
X018412Y008899D03*
X008892Y013999D03*
X008872Y014819D03*
X008402Y015109D03*
X007272Y015739D03*
X005972Y015819D03*
X006292Y014859D03*
X007022Y014929D03*
X008912Y017679D03*
X011762Y018119D03*
X013252Y017519D03*
X013572Y016599D03*
X017532Y015679D03*
X003692Y011339D03*
X002372Y011339D03*
X019752Y003199D03*
X017812Y001199D03*
D34*
X016742Y012879D03*
X017392Y014239D03*
D35*
X005422Y017869D02*
X004624Y018667D01*
X002447Y018667D01*
X005212Y004819D02*
X005202Y004809D01*
X005202Y003489D01*
X003626Y001913D01*
X002781Y001913D01*
D36*
X007332Y005179D02*
X007382Y005129D01*
D37*
X007392Y005119D01*
D38*
X007502Y005009D01*
X007502Y002659D01*
X008132Y002029D01*
X013452Y002029D01*
X015912Y004489D01*
X023163Y004489D01*
X024128Y003524D01*
X024143Y003509D01*
X024902Y003509D01*
X025042Y003649D01*
X025052Y003649D01*
X026422Y005019D01*
X027772Y005019D01*
X031352Y005019D01*
X031352Y001256D01*
X031372Y001237D01*
X035395Y003861D02*
X035395Y005970D01*
X035487Y006062D01*
X033912Y006062D02*
X032396Y006062D01*
X031352Y005019D01*
D39*
X003845Y006017D02*
X003826Y005999D01*
X003012Y005999D01*
X002761Y006250D01*
X001557Y006250D01*
X002353Y007698D02*
X003032Y007019D01*
X003835Y007019D01*
X003845Y007029D01*
X002353Y007698D02*
X001557Y007698D01*
X001557Y009146D02*
X003838Y009146D01*
X003845Y009139D01*
X003845Y013521D02*
X003675Y013691D01*
X001577Y013691D01*
X002472Y015139D02*
X003031Y014580D01*
X003837Y014580D01*
X002472Y015139D02*
X001577Y015139D01*
X001577Y015139D01*
X001577Y016587D02*
X003837Y016587D01*
X003777Y016703D01*
M02*
