G75*
G70*
%OFA0B0*%
%FSLAX24Y24*%
%IPPOS*%
%LPD*%
%AMOC8*
5,1,8,0,0,1.08239X$1,22.5*
%
%ADD10C,0.1000*%
%ADD11R,0.1000X0.1000*%
%ADD12C,0.0740*%
%ADD13C,0.0650*%
%ADD14R,0.0650X0.0650*%
%ADD15R,0.1260X0.0709*%
%ADD16R,0.0709X0.0630*%
%ADD17R,0.0630X0.0709*%
%ADD18R,0.0800X0.0800*%
%ADD19C,0.0800*%
%ADD20C,0.0397*%
%ADD21C,0.0100*%
%ADD22C,0.0160*%
%ADD23C,0.0436*%
D10*
X028872Y007487D03*
X032622Y007487D03*
X032622Y001237D03*
X031372Y001237D03*
D11*
X028872Y001237D03*
D12*
X023715Y001050D03*
X022715Y001150D03*
X021715Y001050D03*
X020715Y001150D03*
X019715Y001050D03*
X018715Y001150D03*
X035183Y013820D03*
X035183Y014820D03*
X035183Y015820D03*
X035183Y016820D03*
X035183Y017820D03*
X035183Y018820D03*
X018881Y019030D03*
X017881Y019030D03*
X016881Y019030D03*
X015881Y019030D03*
X014881Y019030D03*
X013881Y019030D03*
D13*
X001447Y018667D03*
X024128Y005524D03*
X031060Y009572D03*
X001781Y001913D03*
D14*
X002781Y001913D03*
X024128Y003524D03*
X030060Y009572D03*
X002447Y018667D03*
D15*
X007251Y018841D03*
X007251Y016637D03*
X007283Y013908D03*
X005890Y013916D03*
X005890Y011712D03*
X007283Y011703D03*
X007281Y010583D03*
X007281Y008379D03*
X007385Y006291D03*
X005894Y006286D03*
X005894Y004081D03*
X007385Y004087D03*
D16*
X009206Y004057D03*
X009206Y005160D03*
X009482Y008556D03*
X009482Y009658D03*
X008776Y012088D03*
X008776Y013190D03*
X010024Y014656D03*
X010024Y015759D03*
X008914Y015876D03*
X008914Y016979D03*
D17*
X009351Y006366D03*
X010453Y006366D03*
D18*
X001557Y009146D03*
X001577Y016587D03*
X035395Y001893D03*
D19*
X035395Y003861D03*
X001557Y006250D03*
X001557Y007698D03*
X001577Y013691D03*
X001577Y015139D03*
D20*
X005972Y015819D03*
X007272Y015739D03*
X008402Y015109D03*
X008872Y014819D03*
X008892Y013999D03*
X007022Y014929D03*
X006292Y014859D03*
X008912Y017679D03*
X011762Y018119D03*
X013252Y017519D03*
X013572Y016599D03*
X015272Y015839D03*
X015652Y015279D03*
X016732Y014659D03*
X015632Y013859D03*
X013542Y015159D03*
X011692Y013789D03*
X012012Y013229D03*
X011682Y012749D03*
X011682Y012249D03*
X011692Y011719D03*
X011702Y011129D03*
X012132Y010679D03*
X012612Y010039D03*
X010862Y010839D03*
X007312Y009439D03*
X008532Y008639D03*
X009392Y007279D03*
X008652Y006379D03*
X008472Y005319D03*
X011832Y005499D03*
X012772Y005579D03*
X012872Y004819D03*
X013232Y004359D03*
X015352Y005319D03*
X015932Y005919D03*
X016472Y006479D03*
X015432Y007259D03*
X018012Y008199D03*
X018412Y008899D03*
X019562Y007539D03*
X019152Y006479D03*
X019752Y003199D03*
X017812Y001199D03*
X011852Y006069D03*
X007412Y007239D03*
X005952Y007199D03*
X005952Y008239D03*
X003692Y011339D03*
X002372Y011339D03*
X017532Y015679D03*
X019492Y016779D03*
X020292Y016359D03*
X021052Y016019D03*
X021632Y016259D03*
X021512Y016759D03*
X021432Y017659D03*
X021432Y018359D03*
X025762Y016239D03*
X025012Y015719D03*
X023982Y015759D03*
X023332Y015759D03*
X025712Y014479D03*
X025562Y013679D03*
X028282Y014749D03*
X028782Y014129D03*
X028752Y013579D03*
X029522Y012959D03*
X028672Y012479D03*
X025092Y011399D03*
X024592Y010919D03*
X023492Y011139D03*
X022772Y010899D03*
X023412Y010319D03*
X023402Y009669D03*
X024752Y008939D03*
X024752Y008229D03*
X024592Y012049D03*
X018212Y012319D03*
X018222Y012829D03*
X033152Y014079D03*
X033792Y017219D03*
D21*
X033062Y017819D02*
X035182Y017819D01*
X035183Y017820D01*
X035182Y018819D02*
X035183Y018820D01*
X035182Y018819D02*
X032702Y018819D01*
X031452Y017569D01*
X031452Y012289D01*
X030832Y011669D01*
X027042Y011669D01*
X025692Y010319D01*
X023412Y010319D01*
X023402Y009669D02*
X025732Y009669D01*
X027252Y011189D01*
X030952Y011189D01*
X031902Y012139D01*
X031902Y016659D01*
X033062Y017819D01*
X032842Y014829D02*
X035174Y014829D01*
X035183Y014820D01*
X033152Y014079D02*
X033142Y014069D01*
X033142Y011599D01*
X031852Y010309D01*
X028362Y010309D01*
X026282Y008229D01*
X024752Y008229D01*
X024752Y008939D02*
X025622Y008939D01*
X027432Y010749D01*
X031262Y010749D01*
X032432Y011919D01*
X032432Y014419D01*
X032842Y014829D01*
X028782Y014129D02*
X028552Y013899D01*
X025782Y013899D01*
X025562Y013679D01*
X025322Y014109D02*
X023922Y012709D01*
X023922Y012609D01*
X024102Y012429D01*
X024782Y012429D01*
X025022Y012189D01*
X025022Y011469D01*
X025092Y011399D01*
X024592Y010919D02*
X024592Y012049D01*
X023492Y012699D02*
X025162Y014369D01*
X025162Y014909D01*
X025652Y015399D01*
X025652Y016129D01*
X025762Y016239D01*
X025012Y015719D02*
X024782Y015489D01*
X024782Y014709D01*
X022842Y012769D01*
X022842Y010969D01*
X022772Y010899D01*
X023492Y011139D02*
X023492Y012699D01*
X022152Y011459D02*
X022152Y014799D01*
X022552Y015199D01*
X022552Y016639D01*
X022432Y016759D01*
X021512Y016759D01*
X021632Y016259D02*
X021932Y016259D01*
X022132Y016059D01*
X022132Y015259D01*
X021432Y014559D01*
X021432Y011519D01*
X019952Y010039D01*
X012612Y010039D01*
X012932Y009479D02*
X020172Y009479D01*
X022152Y011459D01*
X020912Y011679D02*
X020912Y015879D01*
X021052Y016019D01*
X020292Y016359D02*
X020292Y011879D01*
X019542Y011129D01*
X011702Y011129D01*
X012132Y010679D02*
X019912Y010679D01*
X020912Y011679D01*
X018712Y012019D02*
X018712Y012639D01*
X018522Y012829D01*
X018222Y012829D01*
X018212Y012319D02*
X018142Y012249D01*
X011682Y012249D01*
X011822Y012659D02*
X011732Y012749D01*
X011682Y012749D01*
X011822Y012659D02*
X015712Y012659D01*
X016902Y013849D01*
X017762Y013849D01*
X018432Y014519D01*
X018432Y014899D01*
X018312Y015019D01*
X015912Y015019D01*
X015652Y015279D01*
X015932Y014759D02*
X016632Y014759D01*
X016732Y014659D01*
X016682Y014239D02*
X017392Y014239D01*
X016682Y014239D02*
X015542Y013099D01*
X012232Y013099D01*
X012102Y013229D01*
X012012Y013229D01*
X012442Y013559D02*
X012192Y013809D01*
X011712Y013809D01*
X011692Y013789D01*
X012442Y013559D02*
X012992Y013559D01*
X015272Y015839D01*
X015932Y014759D02*
X015632Y014459D01*
X015632Y013859D01*
X016742Y012879D02*
X016772Y012879D01*
X016802Y012909D01*
X018132Y012239D02*
X018212Y012319D01*
X018712Y012019D02*
X018412Y011719D01*
X011692Y011719D01*
X012932Y009479D02*
X011852Y008399D01*
X011852Y006069D01*
X011832Y005499D02*
X011832Y003499D01*
X011392Y003059D01*
X003492Y003059D01*
X002972Y003579D01*
X002972Y017579D01*
X003132Y017739D01*
X007912Y017739D01*
X009192Y019019D01*
X010752Y019019D01*
X011312Y018459D01*
X011312Y016979D01*
X011592Y016699D01*
X013472Y016699D01*
X013572Y016599D01*
X013252Y017519D02*
X021292Y017519D01*
X021432Y017659D01*
X021032Y017959D02*
X021432Y018359D01*
X020992Y018739D02*
X021912Y018739D01*
X022092Y018559D01*
X022832Y018559D01*
X023332Y018059D01*
X023332Y015759D01*
X023982Y015759D02*
X024332Y016109D01*
X024332Y018359D01*
X023661Y019030D01*
X018881Y019030D01*
X018232Y018459D02*
X020712Y018459D01*
X020992Y018739D01*
X021032Y017959D02*
X013052Y017959D01*
X012892Y018119D01*
X011762Y018119D01*
X008242Y015109D02*
X008192Y015159D01*
X008242Y015109D02*
X008402Y015109D01*
X017532Y015679D02*
X018632Y016779D01*
X019492Y016779D01*
X018232Y018459D02*
X017881Y018810D01*
X017881Y019030D01*
X025712Y014479D02*
X025742Y014479D01*
X025772Y014509D01*
X025962Y014109D02*
X025322Y014109D01*
X025962Y014109D02*
X026602Y014749D01*
X028282Y014749D01*
X028752Y013579D02*
X028752Y012559D01*
X028672Y012479D01*
X028820Y007539D02*
X028872Y007487D01*
X022672Y002179D02*
X022532Y002319D01*
X019032Y002319D01*
X016472Y004879D01*
X016472Y006479D01*
X015932Y005919D02*
X015932Y004899D01*
X018752Y002079D01*
X021392Y002079D01*
X021712Y001759D01*
X021712Y001052D01*
X021715Y001050D01*
X022672Y001192D02*
X022715Y001150D01*
X022672Y001192D02*
X022672Y002179D01*
X017812Y001199D02*
X017632Y001379D01*
X017632Y002639D01*
X015352Y004919D01*
X015352Y005319D01*
X014052Y005579D02*
X012772Y005579D01*
X012872Y004819D02*
X013792Y004819D01*
X017632Y008659D01*
X018172Y008659D01*
X018412Y008899D01*
X018012Y008199D02*
X017052Y007239D01*
X016682Y007239D01*
X013902Y004459D01*
X013332Y004459D01*
X013232Y004359D01*
X014052Y005579D02*
X015532Y007059D01*
X015532Y007159D01*
X015432Y007259D01*
D22*
X001013Y000540D02*
X000925Y000662D01*
X000878Y000805D01*
X000872Y000881D01*
X000872Y019285D01*
X000878Y019347D01*
X000926Y019462D01*
X001014Y019550D01*
X001129Y019598D01*
X001191Y019604D01*
X013672Y019604D01*
X013535Y019547D01*
X013363Y019375D01*
X013271Y019151D01*
X013271Y018909D01*
X013363Y018684D01*
X013535Y018513D01*
X013759Y018420D01*
X014002Y018420D01*
X014226Y018513D01*
X014381Y018667D01*
X014535Y018513D01*
X014759Y018420D01*
X015002Y018420D01*
X015226Y018513D01*
X015381Y018667D01*
X015535Y018513D01*
X015759Y018420D01*
X016002Y018420D01*
X016226Y018513D01*
X016381Y018667D01*
X016535Y018513D01*
X016759Y018420D01*
X017002Y018420D01*
X017226Y018513D01*
X017381Y018667D01*
X017535Y018513D01*
X017759Y018420D01*
X017861Y018420D01*
X017986Y018294D01*
X018032Y018249D01*
X013172Y018249D01*
X013056Y018365D01*
X012950Y018409D01*
X012092Y018409D01*
X012010Y018490D01*
X011849Y018557D01*
X011675Y018557D01*
X011598Y018525D01*
X011558Y018623D01*
X011476Y018705D01*
X010916Y019265D01*
X010810Y019309D01*
X009134Y019309D01*
X009028Y019265D01*
X008946Y019183D01*
X007792Y018029D01*
X003074Y018029D01*
X002968Y017985D01*
X002886Y017903D01*
X002726Y017743D01*
X002682Y017636D01*
X002682Y003521D01*
X002726Y003414D01*
X002808Y003333D01*
X003328Y002813D01*
X003434Y002769D01*
X011450Y002769D01*
X011556Y002813D01*
X011638Y002894D01*
X012078Y003334D01*
X012122Y003441D01*
X012122Y005169D01*
X012204Y005250D01*
X012271Y005411D01*
X012271Y005586D01*
X012204Y005747D01*
X012177Y005774D01*
X012224Y005820D01*
X012291Y005981D01*
X012291Y006156D01*
X012224Y006317D01*
X012142Y006399D01*
X012142Y008279D01*
X013052Y009189D01*
X018082Y009189D01*
X018040Y009147D01*
X017974Y008986D01*
X017974Y008949D01*
X017574Y008949D01*
X017468Y008905D01*
X017386Y008823D01*
X015871Y007307D01*
X015871Y007346D01*
X015804Y007507D01*
X015680Y007630D01*
X015519Y007697D01*
X015345Y007697D01*
X015184Y007630D01*
X015060Y007507D01*
X014994Y007346D01*
X014994Y007171D01*
X015060Y007010D01*
X015067Y007004D01*
X013932Y005869D01*
X013102Y005869D01*
X013020Y005950D01*
X012859Y006017D01*
X012685Y006017D01*
X012524Y005950D01*
X012400Y005827D01*
X012334Y005666D01*
X012334Y005491D01*
X012400Y005330D01*
X012524Y005207D01*
X012606Y005173D01*
X012500Y005067D01*
X012434Y004906D01*
X012434Y004731D01*
X012500Y004570D01*
X012624Y004447D01*
X012785Y004380D01*
X012794Y004380D01*
X012794Y004271D01*
X012860Y004110D01*
X012984Y003987D01*
X013145Y003920D01*
X013319Y003920D01*
X013480Y003987D01*
X013604Y004110D01*
X013628Y004169D01*
X013960Y004169D01*
X014066Y004213D01*
X014148Y004294D01*
X014964Y005110D01*
X014980Y005070D01*
X015062Y004989D01*
X015062Y004861D01*
X015106Y004754D01*
X017342Y002519D01*
X017342Y001321D01*
X017374Y001245D01*
X017374Y001111D01*
X017440Y000950D01*
X017564Y000827D01*
X017725Y000760D01*
X017899Y000760D01*
X018060Y000827D01*
X018151Y000917D01*
X018198Y000804D01*
X018369Y000632D01*
X018593Y000540D01*
X018836Y000540D01*
X019060Y000632D01*
X019178Y000751D01*
X019198Y000704D01*
X019369Y000532D01*
X019593Y000440D01*
X019836Y000440D01*
X020060Y000532D01*
X020232Y000704D01*
X020278Y000815D01*
X020295Y000791D01*
X020357Y000730D01*
X020427Y000679D01*
X020504Y000640D01*
X020586Y000613D01*
X020672Y000600D01*
X020695Y000600D01*
X020695Y001130D01*
X020735Y001130D01*
X020735Y000600D01*
X020758Y000600D01*
X020844Y000613D01*
X020926Y000640D01*
X021003Y000679D01*
X021073Y000730D01*
X021134Y000791D01*
X021152Y000815D01*
X021198Y000704D01*
X021369Y000532D01*
X021593Y000440D01*
X021836Y000440D01*
X022060Y000532D01*
X022232Y000704D01*
X022251Y000751D01*
X022369Y000632D01*
X022593Y000540D01*
X022836Y000540D01*
X023060Y000632D01*
X023178Y000751D01*
X023198Y000704D01*
X023369Y000532D01*
X023593Y000440D01*
X023836Y000440D01*
X024060Y000532D01*
X024232Y000704D01*
X024325Y000928D01*
X024325Y001171D01*
X024232Y001395D01*
X024060Y001567D01*
X023836Y001660D01*
X023593Y001660D01*
X023369Y001567D01*
X023251Y001449D01*
X023232Y001495D01*
X023060Y001667D01*
X022962Y001707D01*
X022962Y002236D01*
X022918Y002343D01*
X022836Y002425D01*
X022778Y002483D01*
X022696Y002565D01*
X022590Y002609D01*
X019152Y002609D01*
X016762Y004999D01*
X016762Y006149D01*
X016844Y006230D01*
X016911Y006391D01*
X016911Y006566D01*
X016844Y006727D01*
X016720Y006850D01*
X016709Y006855D01*
X016802Y006949D01*
X017110Y006949D01*
X017216Y006993D01*
X017298Y007074D01*
X017984Y007760D01*
X018099Y007760D01*
X018260Y007827D01*
X018384Y007950D01*
X018451Y008111D01*
X018451Y008286D01*
X018384Y008447D01*
X018377Y008454D01*
X018384Y008460D01*
X018499Y008460D01*
X018660Y008527D01*
X018784Y008650D01*
X018851Y008811D01*
X018851Y008986D01*
X018784Y009147D01*
X018742Y009189D01*
X020230Y009189D01*
X020336Y009233D01*
X022316Y011213D01*
X022398Y011294D01*
X022442Y011401D01*
X022442Y014679D01*
X022798Y015034D01*
X022842Y015141D01*
X022842Y016696D01*
X022798Y016803D01*
X022678Y016923D01*
X022596Y017005D01*
X022490Y017049D01*
X021842Y017049D01*
X021760Y017130D01*
X021599Y017197D01*
X021425Y017197D01*
X021264Y017130D01*
X021140Y017007D01*
X021074Y016846D01*
X021074Y016671D01*
X021140Y016510D01*
X021226Y016424D01*
X021225Y016422D01*
X021139Y016457D01*
X020965Y016457D01*
X020804Y016390D01*
X020731Y016317D01*
X020731Y016446D01*
X020664Y016607D01*
X020540Y016730D01*
X020379Y016797D01*
X020205Y016797D01*
X020044Y016730D01*
X019920Y016607D01*
X019854Y016446D01*
X019854Y016271D01*
X019920Y016110D01*
X020002Y016029D01*
X020002Y011999D01*
X019422Y011419D01*
X012032Y011419D01*
X012022Y011429D01*
X018470Y011429D01*
X018576Y011473D01*
X018658Y011554D01*
X018658Y011554D01*
X018876Y011773D01*
X018876Y011773D01*
X018958Y011854D01*
X019002Y011961D01*
X019002Y012696D01*
X018958Y012803D01*
X018768Y012993D01*
X018686Y013075D01*
X018580Y013119D01*
X018552Y013119D01*
X018470Y013200D01*
X018309Y013267D01*
X018135Y013267D01*
X017974Y013200D01*
X017850Y013077D01*
X017784Y012916D01*
X017784Y012741D01*
X017850Y012580D01*
X017852Y012579D01*
X017840Y012567D01*
X017829Y012539D01*
X016002Y012539D01*
X017022Y013559D01*
X017820Y013559D01*
X017926Y013603D01*
X018678Y014354D01*
X018722Y014461D01*
X018722Y014956D01*
X018678Y015063D01*
X018558Y015183D01*
X018476Y015265D01*
X018370Y015309D01*
X017782Y015309D01*
X017904Y015430D01*
X017971Y015591D01*
X017971Y015707D01*
X018752Y016489D01*
X019162Y016489D01*
X019244Y016407D01*
X019405Y016340D01*
X019579Y016340D01*
X019740Y016407D01*
X019864Y016530D01*
X019931Y016691D01*
X019931Y016866D01*
X019864Y017027D01*
X019740Y017150D01*
X019579Y017217D01*
X019405Y017217D01*
X019244Y017150D01*
X019162Y017069D01*
X018574Y017069D01*
X018468Y017025D01*
X017560Y016117D01*
X017445Y016117D01*
X017284Y016050D01*
X017160Y015927D01*
X017094Y015766D01*
X017094Y015591D01*
X017160Y015430D01*
X017282Y015309D01*
X016091Y015309D01*
X016091Y015366D01*
X016024Y015527D01*
X015900Y015650D01*
X015739Y015717D01*
X015696Y015717D01*
X015711Y015751D01*
X015711Y015926D01*
X015644Y016087D01*
X015520Y016210D01*
X015359Y016277D01*
X015185Y016277D01*
X015024Y016210D01*
X014900Y016087D01*
X014834Y015926D01*
X014834Y015810D01*
X012872Y013849D01*
X012562Y013849D01*
X012438Y013973D01*
X012356Y014055D01*
X012250Y014099D01*
X012002Y014099D01*
X011940Y014160D01*
X011779Y014227D01*
X011605Y014227D01*
X011444Y014160D01*
X011320Y014037D01*
X011254Y013876D01*
X011254Y013701D01*
X011320Y013540D01*
X011444Y013417D01*
X011590Y013356D01*
X011574Y013316D01*
X011574Y013178D01*
X011434Y013120D01*
X011310Y012997D01*
X011244Y012836D01*
X011244Y012661D01*
X011310Y012500D01*
X011312Y012499D01*
X011310Y012497D01*
X011244Y012336D01*
X011244Y012161D01*
X011310Y012000D01*
X011332Y011979D01*
X011320Y011967D01*
X011254Y011806D01*
X011254Y011631D01*
X011320Y011470D01*
X011372Y011419D01*
X011330Y011377D01*
X011264Y011216D01*
X011264Y011041D01*
X011330Y010880D01*
X011454Y010757D01*
X011615Y010690D01*
X011694Y010690D01*
X011694Y010591D01*
X011760Y010430D01*
X011884Y010307D01*
X012045Y010240D01*
X012219Y010240D01*
X012221Y010241D01*
X012174Y010126D01*
X012174Y009951D01*
X012240Y009790D01*
X012364Y009667D01*
X012525Y009600D01*
X012644Y009600D01*
X011606Y008563D01*
X011562Y008456D01*
X011562Y006399D01*
X011480Y006317D01*
X011414Y006156D01*
X011414Y005981D01*
X011480Y005820D01*
X011507Y005794D01*
X011460Y005747D01*
X011394Y005586D01*
X011394Y005411D01*
X011460Y005250D01*
X011542Y005169D01*
X011542Y003619D01*
X011272Y003349D01*
X003612Y003349D01*
X003262Y003699D01*
X003262Y017449D01*
X007970Y017449D01*
X008076Y017493D01*
X009312Y018729D01*
X010632Y018729D01*
X011022Y018339D01*
X011022Y016921D01*
X011066Y016814D01*
X011346Y016534D01*
X011428Y016453D01*
X011534Y016409D01*
X013176Y016409D01*
X013200Y016350D01*
X013324Y016227D01*
X013485Y016160D01*
X013659Y016160D01*
X013820Y016227D01*
X013944Y016350D01*
X014011Y016511D01*
X014011Y016686D01*
X013944Y016847D01*
X013820Y016970D01*
X013659Y017037D01*
X013485Y017037D01*
X013368Y016989D01*
X011712Y016989D01*
X011602Y017099D01*
X011602Y017710D01*
X011675Y017680D01*
X011849Y017680D01*
X012010Y017747D01*
X012092Y017829D01*
X012772Y017829D01*
X012867Y017734D01*
X012814Y017606D01*
X012814Y017431D01*
X012880Y017270D01*
X013004Y017147D01*
X013165Y017080D01*
X013339Y017080D01*
X013500Y017147D01*
X013582Y017229D01*
X021325Y017229D01*
X021345Y017220D01*
X021519Y017220D01*
X021680Y017287D01*
X021804Y017410D01*
X021871Y017571D01*
X021871Y017746D01*
X021804Y017907D01*
X021702Y018009D01*
X021804Y018110D01*
X021871Y018271D01*
X021871Y018370D01*
X021928Y018313D01*
X022034Y018269D01*
X022712Y018269D01*
X023042Y017939D01*
X023042Y016089D01*
X022960Y016007D01*
X022894Y015846D01*
X022894Y015671D01*
X022960Y015510D01*
X023084Y015387D01*
X023245Y015320D01*
X023419Y015320D01*
X023580Y015387D01*
X023657Y015464D01*
X023734Y015387D01*
X023895Y015320D01*
X024069Y015320D01*
X024230Y015387D01*
X024354Y015510D01*
X024421Y015671D01*
X024421Y015787D01*
X024578Y015944D01*
X024622Y016051D01*
X024622Y018416D01*
X024578Y018523D01*
X024496Y018605D01*
X023825Y019276D01*
X023719Y019320D01*
X019421Y019320D01*
X019398Y019375D01*
X019226Y019547D01*
X019089Y019604D01*
X035705Y019604D01*
X035705Y019153D01*
X035700Y019166D01*
X035529Y019337D01*
X035304Y019430D01*
X035062Y019430D01*
X034838Y019337D01*
X019414Y019337D01*
X019277Y019496D02*
X035705Y019496D01*
X035705Y019337D02*
X035528Y019337D01*
X035687Y019179D02*
X035705Y019179D01*
X034838Y019337D02*
X034666Y019166D01*
X034642Y019109D01*
X032644Y019109D01*
X032538Y019065D01*
X032456Y018983D01*
X031206Y017733D01*
X031162Y017626D01*
X031162Y012409D01*
X030712Y011959D01*
X026984Y011959D01*
X026878Y011915D01*
X026796Y011833D01*
X025572Y010609D01*
X024902Y010609D01*
X024964Y010670D01*
X025031Y010831D01*
X025031Y010960D01*
X025179Y010960D01*
X025340Y011027D01*
X025464Y011150D01*
X025531Y011311D01*
X025531Y011486D01*
X025464Y011647D01*
X025340Y011770D01*
X025312Y011782D01*
X025312Y012246D01*
X025268Y012353D01*
X025186Y012435D01*
X024946Y012675D01*
X024840Y012719D01*
X024342Y012719D01*
X025150Y013527D01*
X025190Y013430D01*
X025314Y013307D01*
X025475Y013240D01*
X025649Y013240D01*
X025810Y013307D01*
X025934Y013430D01*
X026001Y013591D01*
X026001Y013609D01*
X028314Y013609D01*
X028314Y013491D01*
X028380Y013330D01*
X028462Y013249D01*
X028462Y012866D01*
X028424Y012850D01*
X028300Y012727D01*
X028234Y012566D01*
X028234Y012391D01*
X028300Y012230D01*
X028424Y012107D01*
X028585Y012040D01*
X028759Y012040D01*
X028920Y012107D01*
X029044Y012230D01*
X029111Y012391D01*
X029111Y012566D01*
X029044Y012727D01*
X029042Y012729D01*
X029042Y013249D01*
X029124Y013330D01*
X029191Y013491D01*
X029191Y013666D01*
X029124Y013827D01*
X029112Y013839D01*
X029154Y013880D01*
X029202Y013997D01*
X029202Y013259D01*
X029150Y013207D01*
X029084Y013046D01*
X029084Y012871D01*
X029150Y012710D01*
X029274Y012587D01*
X029435Y012520D01*
X029609Y012520D01*
X029770Y012587D01*
X029894Y012710D01*
X029961Y012871D01*
X029961Y013046D01*
X029894Y013207D01*
X029842Y013259D01*
X029842Y014712D01*
X029793Y014830D01*
X029703Y014920D01*
X029603Y015020D01*
X029486Y015069D01*
X028582Y015069D01*
X028530Y015120D01*
X028369Y015187D01*
X028195Y015187D01*
X028034Y015120D01*
X027952Y015039D01*
X026544Y015039D01*
X026438Y014995D01*
X025842Y014399D01*
X025452Y014399D01*
X025452Y014789D01*
X025816Y015153D01*
X025898Y015234D01*
X025942Y015341D01*
X025942Y015839D01*
X026010Y015867D01*
X026134Y015990D01*
X026201Y016151D01*
X026201Y016326D01*
X026134Y016487D01*
X026010Y016610D01*
X025849Y016677D01*
X025675Y016677D01*
X025514Y016610D01*
X025390Y016487D01*
X025324Y016326D01*
X025324Y016151D01*
X025362Y016059D01*
X025362Y015989D01*
X025260Y016090D01*
X025099Y016157D01*
X024925Y016157D01*
X024764Y016090D01*
X024640Y015967D01*
X024574Y015806D01*
X024574Y015690D01*
X024536Y015653D01*
X024492Y015546D01*
X024492Y014829D01*
X022678Y013015D01*
X022596Y012933D01*
X022552Y012826D01*
X022552Y011282D01*
X022524Y011270D01*
X022400Y011147D01*
X022334Y010986D01*
X022334Y010811D01*
X022400Y010650D01*
X022524Y010527D01*
X022685Y010460D01*
X022859Y010460D01*
X023020Y010527D01*
X023026Y010533D01*
X022974Y010406D01*
X022974Y010231D01*
X023040Y010070D01*
X023112Y009999D01*
X023030Y009917D01*
X022964Y009756D01*
X022964Y009581D01*
X023030Y009420D01*
X023154Y009297D01*
X023315Y009230D01*
X023489Y009230D01*
X023650Y009297D01*
X023732Y009379D01*
X025652Y009379D01*
X025502Y009229D01*
X025082Y009229D01*
X025000Y009310D01*
X024839Y009377D01*
X024665Y009377D01*
X024504Y009310D01*
X024380Y009187D01*
X024314Y009026D01*
X024314Y008851D01*
X024380Y008690D01*
X024487Y008584D01*
X024380Y008477D01*
X024314Y008316D01*
X024314Y008141D01*
X024380Y007980D01*
X024502Y007859D01*
X019862Y007859D01*
X019810Y007910D01*
X019649Y007977D01*
X019475Y007977D01*
X019314Y007910D01*
X019190Y007787D01*
X019124Y007626D01*
X019124Y007451D01*
X019190Y007290D01*
X019314Y007167D01*
X019475Y007100D01*
X019649Y007100D01*
X019810Y007167D01*
X019862Y007219D01*
X028182Y007219D01*
X028244Y007068D01*
X028452Y006859D01*
X028724Y006747D01*
X029019Y006747D01*
X029291Y006859D01*
X029499Y007068D01*
X029612Y007340D01*
X029612Y007634D01*
X029499Y007906D01*
X029291Y008114D01*
X029019Y008227D01*
X028724Y008227D01*
X028452Y008114D01*
X028244Y007906D01*
X028225Y007859D01*
X025002Y007859D01*
X025082Y007939D01*
X026340Y007939D01*
X026446Y007983D01*
X028482Y010019D01*
X029525Y010019D01*
X029495Y009945D01*
X029495Y009199D01*
X029531Y009111D01*
X029599Y009044D01*
X029687Y009007D01*
X030432Y009007D01*
X030520Y009044D01*
X030588Y009111D01*
X030625Y009199D01*
X030625Y009313D01*
X030628Y009307D01*
X030674Y009243D01*
X030731Y009187D01*
X030795Y009140D01*
X030866Y009104D01*
X030941Y009079D01*
X031020Y009067D01*
X031060Y009067D01*
X031099Y009067D01*
X031178Y009079D01*
X031253Y009104D01*
X031324Y009140D01*
X031389Y009187D01*
X031445Y009243D01*
X031491Y009307D01*
X031528Y009378D01*
X031552Y009454D01*
X031565Y009532D01*
X031565Y009572D01*
X031060Y009572D01*
X031060Y009572D01*
X031565Y009572D01*
X031565Y009612D01*
X031552Y009690D01*
X031528Y009766D01*
X031491Y009837D01*
X031445Y009901D01*
X031389Y009957D01*
X031324Y010004D01*
X031295Y010019D01*
X031910Y010019D01*
X032016Y010063D01*
X033306Y011353D01*
X033388Y011434D01*
X033432Y011541D01*
X033432Y013739D01*
X033524Y013830D01*
X033591Y013991D01*
X033591Y014166D01*
X033524Y014327D01*
X033400Y014450D01*
X033239Y014517D01*
X033065Y014517D01*
X032904Y014450D01*
X032780Y014327D01*
X032722Y014186D01*
X032722Y014299D01*
X032962Y014539D01*
X034639Y014539D01*
X034666Y014474D01*
X034838Y014303D01*
X034885Y014283D01*
X034825Y014240D01*
X034764Y014178D01*
X034713Y014108D01*
X034673Y014031D01*
X034647Y013949D01*
X034633Y013863D01*
X034633Y013840D01*
X035163Y013840D01*
X035163Y013800D01*
X034633Y013800D01*
X034633Y013777D01*
X034647Y013691D01*
X034673Y013609D01*
X034713Y013532D01*
X034764Y013462D01*
X034825Y013400D01*
X034895Y013350D01*
X034972Y013310D01*
X035054Y013284D01*
X035140Y013270D01*
X035163Y013270D01*
X035163Y013800D01*
X035203Y013800D01*
X035203Y013270D01*
X035226Y013270D01*
X035312Y013284D01*
X035394Y013310D01*
X035471Y013350D01*
X035541Y013400D01*
X035603Y013462D01*
X035653Y013532D01*
X035693Y013609D01*
X035705Y013648D01*
X035705Y004425D01*
X035522Y004501D01*
X035267Y004501D01*
X035032Y004404D01*
X034852Y004224D01*
X034755Y003988D01*
X034755Y003734D01*
X034852Y003499D01*
X035032Y003319D01*
X035267Y003221D01*
X035522Y003221D01*
X035705Y003297D01*
X035705Y002473D01*
X035443Y002473D01*
X035443Y001941D01*
X035347Y001941D01*
X035347Y002473D01*
X034971Y002473D01*
X034925Y002460D01*
X034884Y002437D01*
X034851Y002403D01*
X034827Y002362D01*
X034815Y002316D01*
X034815Y001941D01*
X035347Y001941D01*
X035347Y001845D01*
X034815Y001845D01*
X034815Y001469D01*
X034827Y001423D01*
X034851Y001382D01*
X034884Y001349D01*
X034925Y001325D01*
X034971Y001313D01*
X035347Y001313D01*
X035347Y001845D01*
X035443Y001845D01*
X035443Y001313D01*
X035705Y001313D01*
X035705Y000399D01*
X001354Y000399D01*
X001279Y000405D01*
X001135Y000451D01*
X001013Y000540D01*
X001102Y000476D02*
X019506Y000476D01*
X019268Y000634D02*
X019062Y000634D01*
X018368Y000634D02*
X000945Y000634D01*
X000882Y000793D02*
X017647Y000793D01*
X017440Y000951D02*
X000872Y000951D01*
X000872Y001110D02*
X017374Y001110D01*
X017364Y001268D02*
X000872Y001268D01*
X000872Y001427D02*
X001643Y001427D01*
X001663Y001420D02*
X001741Y001408D01*
X001781Y001408D01*
X001781Y001913D01*
X001781Y002418D01*
X001741Y002418D01*
X001663Y002405D01*
X001587Y002381D01*
X001516Y002345D01*
X001452Y002298D01*
X001396Y002242D01*
X001349Y002177D01*
X001313Y002107D01*
X001289Y002031D01*
X001276Y001952D01*
X001276Y001913D01*
X001781Y001913D01*
X001781Y001913D01*
X001781Y002418D01*
X001821Y002418D01*
X001899Y002405D01*
X001975Y002381D01*
X002046Y002345D01*
X002110Y002298D01*
X002166Y002242D01*
X002213Y002177D01*
X002216Y002171D01*
X002216Y002285D01*
X002253Y002374D01*
X002320Y002441D01*
X002408Y002478D01*
X003154Y002478D01*
X003242Y002441D01*
X003310Y002374D01*
X003346Y002285D01*
X003346Y001540D01*
X003310Y001452D01*
X003242Y001384D01*
X003154Y001348D01*
X002408Y001348D01*
X002320Y001384D01*
X002253Y001452D01*
X002216Y001540D01*
X002216Y001654D01*
X002213Y001648D01*
X002166Y001584D01*
X002110Y001527D01*
X002046Y001481D01*
X001975Y001445D01*
X001899Y001420D01*
X001821Y001408D01*
X001781Y001408D01*
X001781Y001913D01*
X001781Y001913D01*
X001276Y001913D01*
X001276Y001873D01*
X001289Y001794D01*
X001313Y001719D01*
X001349Y001648D01*
X001396Y001584D01*
X001452Y001527D01*
X001516Y001481D01*
X001587Y001445D01*
X001663Y001420D01*
X001781Y001427D02*
X001781Y001427D01*
X001920Y001427D02*
X002278Y001427D01*
X002216Y001585D02*
X002167Y001585D01*
X001781Y001585D02*
X001781Y001585D01*
X001781Y001744D02*
X001781Y001744D01*
X001781Y001902D02*
X001781Y001902D01*
X001781Y001913D02*
X001781Y001913D01*
X001781Y002061D02*
X001781Y002061D01*
X001781Y002219D02*
X001781Y002219D01*
X001781Y002378D02*
X001781Y002378D01*
X001581Y002378D02*
X000872Y002378D01*
X000872Y002536D02*
X017324Y002536D01*
X017342Y002378D02*
X003306Y002378D01*
X003346Y002219D02*
X017342Y002219D01*
X017342Y002061D02*
X003346Y002061D01*
X003346Y001902D02*
X017342Y001902D01*
X017342Y001744D02*
X003346Y001744D01*
X003346Y001585D02*
X017342Y001585D01*
X017342Y001427D02*
X003284Y001427D01*
X002216Y002219D02*
X002183Y002219D01*
X002257Y002378D02*
X001981Y002378D01*
X001380Y002219D02*
X000872Y002219D01*
X000872Y002061D02*
X001298Y002061D01*
X001276Y001902D02*
X000872Y001902D01*
X000872Y001744D02*
X001305Y001744D01*
X001395Y001585D02*
X000872Y001585D01*
X000872Y002695D02*
X017166Y002695D01*
X017007Y002853D02*
X011597Y002853D01*
X011755Y003012D02*
X016849Y003012D01*
X016690Y003170D02*
X011914Y003170D01*
X012072Y003329D02*
X016532Y003329D01*
X016373Y003487D02*
X012122Y003487D01*
X012122Y003646D02*
X016215Y003646D01*
X016056Y003804D02*
X012122Y003804D01*
X012122Y003963D02*
X013042Y003963D01*
X012856Y004121D02*
X012122Y004121D01*
X012122Y004280D02*
X012794Y004280D01*
X012645Y004438D02*
X012122Y004438D01*
X012122Y004597D02*
X012490Y004597D01*
X012434Y004755D02*
X012122Y004755D01*
X012122Y004914D02*
X012437Y004914D01*
X012506Y005072D02*
X012122Y005072D01*
X012184Y005231D02*
X012500Y005231D01*
X012376Y005389D02*
X012261Y005389D01*
X012271Y005548D02*
X012334Y005548D01*
X012350Y005706D02*
X012221Y005706D01*
X012242Y005865D02*
X012438Y005865D01*
X012291Y006023D02*
X014087Y006023D01*
X014245Y006182D02*
X012280Y006182D01*
X012201Y006340D02*
X014404Y006340D01*
X014562Y006499D02*
X012142Y006499D01*
X012142Y006657D02*
X014721Y006657D01*
X014879Y006816D02*
X012142Y006816D01*
X012142Y006974D02*
X015038Y006974D01*
X015010Y007133D02*
X012142Y007133D01*
X012142Y007291D02*
X014994Y007291D01*
X015037Y007450D02*
X012142Y007450D01*
X012142Y007608D02*
X015162Y007608D01*
X015703Y007608D02*
X016172Y007608D01*
X016330Y007767D02*
X012142Y007767D01*
X012142Y007925D02*
X016489Y007925D01*
X016647Y008084D02*
X012142Y008084D01*
X012142Y008242D02*
X016806Y008242D01*
X016964Y008401D02*
X012264Y008401D01*
X012423Y008559D02*
X017123Y008559D01*
X017281Y008718D02*
X012581Y008718D01*
X012740Y008876D02*
X017440Y008876D01*
X017994Y009035D02*
X012898Y009035D01*
X012554Y009510D02*
X010017Y009510D01*
X010017Y009581D02*
X010017Y009319D01*
X010004Y009274D01*
X009981Y009233D01*
X009947Y009199D01*
X009906Y009175D01*
X009860Y009163D01*
X009560Y009163D01*
X009560Y009581D01*
X009560Y009736D01*
X009405Y009736D01*
X009405Y010153D01*
X009104Y010153D01*
X009059Y010141D01*
X009018Y010117D01*
X008984Y010084D01*
X008960Y010042D01*
X008948Y009997D01*
X008948Y009736D01*
X009405Y009736D01*
X009405Y009581D01*
X008948Y009581D01*
X008948Y009319D01*
X008960Y009274D01*
X008984Y009233D01*
X009018Y009199D01*
X009059Y009175D01*
X009104Y009163D01*
X009405Y009163D01*
X009405Y009581D01*
X009560Y009581D01*
X010017Y009581D01*
X010017Y009736D02*
X010017Y009997D01*
X010004Y010042D01*
X009981Y010084D01*
X009947Y010117D01*
X009906Y010141D01*
X009860Y010153D01*
X009560Y010153D01*
X009560Y009736D01*
X010017Y009736D01*
X010017Y009827D02*
X012225Y009827D01*
X012174Y009986D02*
X010017Y009986D01*
X009893Y010144D02*
X012181Y010144D01*
X011894Y010303D02*
X008091Y010303D01*
X008091Y010205D02*
X008091Y010503D01*
X007361Y010503D01*
X007361Y010049D01*
X007935Y010049D01*
X007981Y010061D01*
X008022Y010085D01*
X008055Y010119D01*
X008079Y010160D01*
X008091Y010205D01*
X008070Y010144D02*
X009071Y010144D01*
X008948Y009986D02*
X003262Y009986D01*
X003262Y010144D02*
X006492Y010144D01*
X006483Y010160D02*
X006507Y010119D01*
X006541Y010085D01*
X006582Y010061D01*
X006627Y010049D01*
X007201Y010049D01*
X007201Y010503D01*
X007361Y010503D01*
X007361Y010663D01*
X008091Y010663D01*
X008091Y010961D01*
X008079Y011007D01*
X008055Y011048D01*
X008022Y011082D01*
X007981Y011105D01*
X007935Y011118D01*
X007361Y011118D01*
X007361Y010663D01*
X007201Y010663D01*
X007201Y010503D01*
X006471Y010503D01*
X006471Y010205D01*
X006483Y010160D01*
X006471Y010303D02*
X003262Y010303D01*
X003262Y010461D02*
X006471Y010461D01*
X006471Y010663D02*
X006471Y010961D01*
X006483Y011007D01*
X006507Y011048D01*
X006541Y011082D01*
X006582Y011105D01*
X006627Y011118D01*
X007201Y011118D01*
X007201Y010663D01*
X006471Y010663D01*
X006471Y010778D02*
X003262Y010778D01*
X003262Y010620D02*
X007201Y010620D01*
X007201Y010778D02*
X007361Y010778D01*
X007361Y010620D02*
X011694Y010620D01*
X011748Y010461D02*
X008091Y010461D01*
X008091Y010778D02*
X011433Y010778D01*
X011307Y010937D02*
X008091Y010937D01*
X007998Y011095D02*
X011264Y011095D01*
X011279Y011254D02*
X008066Y011254D01*
X008057Y011238D02*
X008081Y011279D01*
X008093Y011325D01*
X008093Y011623D01*
X007363Y011623D01*
X007363Y011169D01*
X007937Y011169D01*
X007982Y011181D01*
X008023Y011205D01*
X008057Y011238D01*
X008093Y011412D02*
X011366Y011412D01*
X011279Y011571D02*
X008093Y011571D01*
X008278Y011663D02*
X008311Y011629D01*
X008352Y011605D01*
X008398Y011593D01*
X008699Y011593D01*
X008699Y012011D01*
X008242Y012011D01*
X008242Y011749D01*
X008254Y011704D01*
X008278Y011663D01*
X008247Y011729D02*
X007363Y011729D01*
X007363Y011783D02*
X007363Y011623D01*
X007203Y011623D01*
X007203Y011169D01*
X006629Y011169D01*
X006584Y011181D01*
X006575Y011186D01*
X006544Y011177D01*
X005970Y011177D01*
X005970Y011632D01*
X005970Y011792D01*
X005810Y011792D01*
X005810Y012246D01*
X005236Y012246D01*
X005191Y012234D01*
X005150Y012210D01*
X005116Y012176D01*
X005092Y012135D01*
X005080Y012090D01*
X005080Y011792D01*
X005810Y011792D01*
X005810Y011632D01*
X005080Y011632D01*
X005080Y011334D01*
X005092Y011288D01*
X005116Y011247D01*
X005150Y011213D01*
X005191Y011190D01*
X005236Y011177D01*
X005810Y011177D01*
X005810Y011632D01*
X005970Y011632D01*
X006700Y011632D01*
X006700Y011623D01*
X007203Y011623D01*
X007203Y011783D01*
X006473Y011783D01*
X006473Y011792D01*
X005970Y011792D01*
X005970Y012246D01*
X006544Y012246D01*
X006589Y012234D01*
X006598Y012229D01*
X006629Y012237D01*
X007203Y012237D01*
X007203Y011783D01*
X007363Y011783D01*
X008093Y011783D01*
X008093Y012081D01*
X008081Y012127D01*
X008057Y012168D01*
X008023Y012201D01*
X007982Y012225D01*
X007937Y012237D01*
X007363Y012237D01*
X007363Y011783D01*
X007363Y011888D02*
X007203Y011888D01*
X007203Y012046D02*
X007363Y012046D01*
X007363Y012205D02*
X007203Y012205D01*
X008018Y012205D02*
X008242Y012205D01*
X008242Y012166D02*
X008699Y012166D01*
X008699Y012583D01*
X008398Y012583D01*
X008352Y012571D01*
X008311Y012547D01*
X008278Y012514D01*
X008254Y012473D01*
X008242Y012427D01*
X008242Y012166D01*
X008093Y012046D02*
X008699Y012046D01*
X008699Y012011D02*
X008699Y012166D01*
X008854Y012166D01*
X008854Y012583D01*
X009154Y012583D01*
X009200Y012571D01*
X009241Y012547D01*
X009275Y012514D01*
X009298Y012473D01*
X009311Y012427D01*
X009311Y012166D01*
X008854Y012166D01*
X008854Y012011D01*
X009311Y012011D01*
X009311Y011749D01*
X009298Y011704D01*
X009275Y011663D01*
X009241Y011629D01*
X009200Y011605D01*
X009154Y011593D01*
X008854Y011593D01*
X008854Y012011D01*
X008699Y012011D01*
X008699Y011888D02*
X008854Y011888D01*
X008854Y012046D02*
X011291Y012046D01*
X011288Y011888D02*
X009311Y011888D01*
X009305Y011729D02*
X011254Y011729D01*
X012022Y011429D02*
X012022Y011429D01*
X011244Y012205D02*
X009311Y012205D01*
X009311Y012363D02*
X011255Y012363D01*
X011302Y012522D02*
X009266Y012522D01*
X009178Y012636D02*
X009266Y012672D01*
X009334Y012740D01*
X009371Y012828D01*
X009371Y013553D01*
X009334Y013641D01*
X009266Y013709D01*
X009235Y013722D01*
X009264Y013750D01*
X009331Y013911D01*
X009331Y014086D01*
X009264Y014247D01*
X009174Y014336D01*
X009430Y014336D01*
X009430Y014294D01*
X009466Y014206D01*
X009534Y014138D01*
X009622Y014101D01*
X010426Y014101D01*
X010514Y014138D01*
X010582Y014206D01*
X010618Y014294D01*
X010618Y015019D01*
X010582Y015107D01*
X010514Y015175D01*
X010426Y015211D01*
X009622Y015211D01*
X009534Y015175D01*
X009466Y015107D01*
X009430Y015019D01*
X009430Y014976D01*
X009281Y014976D01*
X009244Y015067D01*
X009120Y015190D01*
X008959Y015257D01*
X008785Y015257D01*
X008624Y015190D01*
X008500Y015067D01*
X008434Y014906D01*
X008434Y014731D01*
X008500Y014570D01*
X008624Y014447D01*
X008726Y014405D01*
X008644Y014370D01*
X008520Y014247D01*
X008454Y014086D01*
X008454Y013911D01*
X008456Y013905D01*
X008456Y013745D01*
X008374Y013745D01*
X008286Y013709D01*
X008218Y013641D01*
X008182Y013553D01*
X008182Y012828D01*
X008218Y012740D01*
X008286Y012672D01*
X008374Y012636D01*
X009178Y012636D01*
X009275Y012680D02*
X011244Y012680D01*
X011245Y012839D02*
X009371Y012839D01*
X009371Y012997D02*
X011311Y012997D01*
X011519Y013156D02*
X009371Y013156D01*
X009371Y013314D02*
X011574Y013314D01*
X011388Y013473D02*
X009371Y013473D01*
X009338Y013631D02*
X011283Y013631D01*
X011254Y013790D02*
X009280Y013790D01*
X009331Y013948D02*
X011284Y013948D01*
X011390Y014107D02*
X010439Y014107D01*
X010607Y014265D02*
X013289Y014265D01*
X013447Y014424D02*
X010618Y014424D01*
X010618Y014582D02*
X013606Y014582D01*
X013764Y014741D02*
X010618Y014741D01*
X010618Y014899D02*
X013923Y014899D01*
X014081Y015058D02*
X010602Y015058D01*
X010489Y015300D02*
X010522Y015333D01*
X010546Y015374D01*
X010558Y015420D01*
X010558Y015681D01*
X010102Y015681D01*
X010102Y015836D01*
X010558Y015836D01*
X010558Y016097D01*
X010546Y016143D01*
X010522Y016184D01*
X010489Y016218D01*
X010448Y016242D01*
X010402Y016254D01*
X010102Y016254D01*
X010102Y015836D01*
X009947Y015836D01*
X009947Y016254D01*
X009646Y016254D01*
X009600Y016242D01*
X009559Y016218D01*
X009526Y016184D01*
X009502Y016143D01*
X009490Y016097D01*
X009490Y015836D01*
X009947Y015836D01*
X009947Y015681D01*
X010102Y015681D01*
X010102Y015264D01*
X010402Y015264D01*
X010448Y015276D01*
X010489Y015300D01*
X010546Y015375D02*
X014398Y015375D01*
X014557Y015533D02*
X010558Y015533D01*
X010102Y015533D02*
X009947Y015533D01*
X009947Y015681D02*
X009947Y015264D01*
X009646Y015264D01*
X009600Y015276D01*
X009559Y015300D01*
X009526Y015333D01*
X009502Y015374D01*
X009490Y015420D01*
X009490Y015681D01*
X009947Y015681D01*
X009947Y015692D02*
X009448Y015692D01*
X009448Y015799D02*
X008992Y015799D01*
X008992Y015954D01*
X009448Y015954D01*
X009448Y016215D01*
X009436Y016261D01*
X009412Y016302D01*
X009379Y016335D01*
X009338Y016359D01*
X009292Y016371D01*
X008991Y016371D01*
X008991Y015954D01*
X008837Y015954D01*
X008837Y016371D01*
X008536Y016371D01*
X008490Y016359D01*
X008449Y016335D01*
X008416Y016302D01*
X008392Y016261D01*
X008380Y016215D01*
X008380Y015954D01*
X008837Y015954D01*
X008837Y015799D01*
X008991Y015799D01*
X008991Y015381D01*
X009292Y015381D01*
X009338Y015394D01*
X009379Y015417D01*
X009412Y015451D01*
X009436Y015492D01*
X009448Y015538D01*
X009448Y015799D01*
X009490Y015850D02*
X008992Y015850D01*
X008837Y015850D02*
X007700Y015850D01*
X007711Y015826D02*
X007644Y015987D01*
X007592Y016039D01*
X007592Y016042D01*
X007929Y016042D01*
X008017Y016079D01*
X008084Y016146D01*
X008121Y016235D01*
X008121Y017039D01*
X008084Y017127D01*
X008017Y017195D01*
X007929Y017231D01*
X006573Y017231D01*
X006485Y017195D01*
X006417Y017127D01*
X006381Y017039D01*
X006381Y016235D01*
X006417Y016146D01*
X006485Y016079D01*
X006573Y016042D01*
X006952Y016042D01*
X006952Y016039D01*
X006900Y015987D01*
X006834Y015826D01*
X006834Y015651D01*
X006900Y015490D01*
X007024Y015367D01*
X006935Y015367D01*
X006774Y015300D01*
X006650Y015177D01*
X006634Y015137D01*
X006540Y015230D01*
X006379Y015297D01*
X006205Y015297D01*
X006044Y015230D01*
X005920Y015107D01*
X005854Y014946D01*
X005854Y014771D01*
X005920Y014610D01*
X005972Y014559D01*
X005972Y014511D01*
X005212Y014511D01*
X005124Y014474D01*
X005057Y014407D01*
X005020Y014318D01*
X005020Y013514D01*
X005057Y013426D01*
X005124Y013359D01*
X005212Y013322D01*
X006568Y013322D01*
X006576Y013326D01*
X006605Y013313D01*
X007961Y013313D01*
X008049Y013350D01*
X008116Y013418D01*
X008153Y013506D01*
X008153Y014310D01*
X008116Y014398D01*
X008049Y014466D01*
X007961Y014502D01*
X007342Y014502D01*
X007342Y014629D01*
X007394Y014680D01*
X007461Y014841D01*
X007461Y015016D01*
X007394Y015177D01*
X007271Y015300D01*
X007359Y015300D01*
X007520Y015367D01*
X007644Y015490D01*
X007711Y015651D01*
X007711Y015826D01*
X007711Y015692D02*
X008380Y015692D01*
X008380Y015799D02*
X008380Y015538D01*
X008392Y015492D01*
X008416Y015451D01*
X008449Y015417D01*
X008490Y015394D01*
X008536Y015381D01*
X008837Y015381D01*
X008837Y015799D01*
X008380Y015799D01*
X008380Y016009D02*
X007622Y016009D01*
X008093Y016167D02*
X008380Y016167D01*
X008440Y016326D02*
X008121Y016326D01*
X008121Y016484D02*
X008400Y016484D01*
X008424Y016460D02*
X008512Y016424D01*
X009316Y016424D01*
X009404Y016460D01*
X009472Y016528D01*
X009508Y016616D01*
X009508Y017341D01*
X009472Y017430D01*
X009404Y017497D01*
X009325Y017530D01*
X009351Y017591D01*
X009351Y017766D01*
X009284Y017927D01*
X009160Y018050D01*
X008999Y018117D01*
X008825Y018117D01*
X008664Y018050D01*
X008540Y017927D01*
X008474Y017766D01*
X008474Y017591D01*
X008500Y017529D01*
X008424Y017497D01*
X008356Y017430D01*
X008320Y017341D01*
X008320Y016616D01*
X008356Y016528D01*
X008424Y016460D01*
X008320Y016643D02*
X008121Y016643D01*
X008121Y016801D02*
X008320Y016801D01*
X008320Y016960D02*
X008121Y016960D01*
X008088Y017118D02*
X008320Y017118D01*
X008320Y017277D02*
X003262Y017277D01*
X003262Y017435D02*
X008362Y017435D01*
X008474Y017594D02*
X008177Y017594D01*
X008336Y017752D02*
X008474Y017752D01*
X008494Y017911D02*
X008534Y017911D01*
X008653Y018069D02*
X008709Y018069D01*
X008811Y018228D02*
X011022Y018228D01*
X011022Y018069D02*
X009115Y018069D01*
X009291Y017911D02*
X011022Y017911D01*
X011022Y017752D02*
X009351Y017752D01*
X009351Y017594D02*
X011022Y017594D01*
X011022Y017435D02*
X009466Y017435D01*
X009508Y017277D02*
X011022Y017277D01*
X011022Y017118D02*
X009508Y017118D01*
X009508Y016960D02*
X011022Y016960D01*
X011079Y016801D02*
X009508Y016801D01*
X009508Y016643D02*
X011238Y016643D01*
X011396Y016484D02*
X009428Y016484D01*
X009388Y016326D02*
X013225Y016326D01*
X013468Y016167D02*
X010532Y016167D01*
X010558Y016009D02*
X014868Y016009D01*
X014834Y015850D02*
X010558Y015850D01*
X010102Y015850D02*
X009947Y015850D01*
X009947Y016009D02*
X010102Y016009D01*
X010102Y016167D02*
X009947Y016167D01*
X009516Y016167D02*
X009448Y016167D01*
X009448Y016009D02*
X009490Y016009D01*
X008991Y016009D02*
X008837Y016009D01*
X008837Y016167D02*
X008991Y016167D01*
X008991Y016326D02*
X008837Y016326D01*
X008837Y015692D02*
X008991Y015692D01*
X008991Y015533D02*
X008837Y015533D01*
X008686Y015216D02*
X007355Y015216D01*
X007443Y015058D02*
X008497Y015058D01*
X008434Y014899D02*
X007461Y014899D01*
X007419Y014741D02*
X008434Y014741D01*
X008496Y014582D02*
X007342Y014582D01*
X007022Y014929D02*
X007022Y014169D01*
X007283Y013908D01*
X007392Y014017D01*
X007272Y013919D02*
X007283Y013908D01*
X006292Y014318D02*
X005890Y013916D01*
X006292Y014318D02*
X006292Y014859D01*
X005900Y015058D02*
X003262Y015058D01*
X003262Y015216D02*
X006030Y015216D01*
X006555Y015216D02*
X006690Y015216D01*
X007016Y015375D02*
X003262Y015375D01*
X003262Y015533D02*
X006883Y015533D01*
X006834Y015692D02*
X003262Y015692D01*
X003262Y015850D02*
X006844Y015850D01*
X006922Y016009D02*
X003262Y016009D01*
X003262Y016167D02*
X006409Y016167D01*
X006381Y016326D02*
X003262Y016326D01*
X003262Y016484D02*
X006381Y016484D01*
X006381Y016643D02*
X003262Y016643D01*
X003262Y016801D02*
X006381Y016801D01*
X006381Y016960D02*
X003262Y016960D01*
X003262Y017118D02*
X006414Y017118D01*
X007251Y016637D02*
X007272Y016616D01*
X007272Y015739D01*
X007662Y015533D02*
X008381Y015533D01*
X008192Y015159D02*
X008172Y015139D01*
X007528Y015375D02*
X009502Y015375D01*
X009490Y015533D02*
X009447Y015533D01*
X009058Y015216D02*
X014240Y015216D01*
X014715Y015692D02*
X010102Y015692D01*
X010102Y015375D02*
X009947Y015375D01*
X009446Y015058D02*
X009248Y015058D01*
X008872Y014819D02*
X009034Y014656D01*
X010024Y014656D01*
X009442Y014265D02*
X009246Y014265D01*
X009322Y014107D02*
X009610Y014107D01*
X008892Y013999D02*
X008776Y013883D01*
X008776Y013190D01*
X008182Y013156D02*
X003262Y013156D01*
X003262Y013314D02*
X006604Y013314D01*
X007962Y013314D02*
X008182Y013314D01*
X008182Y013473D02*
X008139Y013473D01*
X008153Y013631D02*
X008214Y013631D01*
X008153Y013790D02*
X008456Y013790D01*
X008454Y013948D02*
X008153Y013948D01*
X008153Y014107D02*
X008462Y014107D01*
X008539Y014265D02*
X008153Y014265D01*
X008091Y014424D02*
X008680Y014424D01*
X008182Y012997D02*
X003262Y012997D01*
X003262Y012839D02*
X008182Y012839D01*
X008278Y012680D02*
X003262Y012680D01*
X003262Y012522D02*
X008286Y012522D01*
X008242Y012363D02*
X003262Y012363D01*
X003262Y012205D02*
X005144Y012205D01*
X005080Y012046D02*
X003262Y012046D01*
X003262Y011888D02*
X005080Y011888D01*
X005080Y011571D02*
X003262Y011571D01*
X003262Y011729D02*
X005810Y011729D01*
X005810Y011571D02*
X005970Y011571D01*
X005970Y011729D02*
X007203Y011729D01*
X007203Y011571D02*
X007363Y011571D01*
X007363Y011412D02*
X007203Y011412D01*
X007203Y011254D02*
X007363Y011254D01*
X007361Y011095D02*
X007201Y011095D01*
X007201Y010937D02*
X007361Y010937D01*
X007361Y010461D02*
X007201Y010461D01*
X007201Y010303D02*
X007361Y010303D01*
X007361Y010144D02*
X007201Y010144D01*
X007225Y009877D02*
X007064Y009810D01*
X006940Y009687D01*
X006874Y009526D01*
X006874Y009351D01*
X006940Y009190D01*
X006992Y009139D01*
X006992Y008973D01*
X006603Y008973D01*
X006515Y008936D01*
X006448Y008869D01*
X006411Y008781D01*
X006411Y007977D01*
X006448Y007888D01*
X006515Y007821D01*
X006603Y007784D01*
X007959Y007784D01*
X008047Y007821D01*
X008114Y007888D01*
X008151Y007977D01*
X008151Y008413D01*
X008160Y008390D01*
X008284Y008267D01*
X008445Y008200D01*
X008619Y008200D01*
X008705Y008236D01*
X008888Y008236D01*
X008888Y008193D01*
X008925Y008105D01*
X008992Y008037D01*
X009080Y008001D01*
X009884Y008001D01*
X009973Y008037D01*
X010040Y008105D01*
X010077Y008193D01*
X010077Y008918D01*
X010040Y009007D01*
X009973Y009074D01*
X009884Y009111D01*
X009080Y009111D01*
X008992Y009074D01*
X008925Y009007D01*
X008888Y008918D01*
X008888Y008903D01*
X008780Y009010D01*
X008619Y009077D01*
X008445Y009077D01*
X008284Y009010D01*
X008160Y008887D01*
X008134Y008822D01*
X008114Y008869D01*
X008047Y008936D01*
X007959Y008973D01*
X007632Y008973D01*
X007632Y009139D01*
X007684Y009190D01*
X007751Y009351D01*
X007751Y009526D01*
X007684Y009687D01*
X007560Y009810D01*
X007399Y009877D01*
X007225Y009877D01*
X007104Y009827D02*
X003262Y009827D01*
X003262Y009669D02*
X006933Y009669D01*
X006874Y009510D02*
X003262Y009510D01*
X003262Y009352D02*
X006874Y009352D01*
X006939Y009193D02*
X003262Y009193D01*
X003262Y009035D02*
X006992Y009035D01*
X006455Y008876D02*
X003262Y008876D01*
X003262Y008718D02*
X006411Y008718D01*
X006411Y008559D02*
X003262Y008559D01*
X003262Y008401D02*
X006411Y008401D01*
X006411Y008242D02*
X003262Y008242D01*
X003262Y008084D02*
X006411Y008084D01*
X006432Y007925D02*
X003262Y007925D01*
X003262Y007767D02*
X011562Y007767D01*
X011562Y007925D02*
X008130Y007925D01*
X008151Y008084D02*
X008946Y008084D01*
X008615Y008556D02*
X008532Y008639D01*
X008615Y008556D02*
X009482Y008556D01*
X010077Y008559D02*
X011605Y008559D01*
X011562Y008401D02*
X010077Y008401D01*
X010077Y008242D02*
X011562Y008242D01*
X011562Y008084D02*
X010019Y008084D01*
X010077Y008718D02*
X011761Y008718D01*
X011920Y008876D02*
X010077Y008876D01*
X010012Y009035D02*
X012078Y009035D01*
X012237Y009193D02*
X009937Y009193D01*
X010017Y009352D02*
X012395Y009352D01*
X012362Y009669D02*
X009560Y009669D01*
X009405Y009669D02*
X007691Y009669D01*
X007751Y009510D02*
X008948Y009510D01*
X008948Y009352D02*
X007751Y009352D01*
X007685Y009193D02*
X009028Y009193D01*
X008953Y009035D02*
X008722Y009035D01*
X008343Y009035D02*
X007632Y009035D01*
X008107Y008876D02*
X008156Y008876D01*
X008151Y008401D02*
X008156Y008401D01*
X008151Y008242D02*
X008344Y008242D01*
X007663Y007608D02*
X011562Y007608D01*
X011562Y007450D02*
X007799Y007450D01*
X007784Y007487D02*
X007660Y007610D01*
X007499Y007677D01*
X007325Y007677D01*
X007164Y007610D01*
X007040Y007487D01*
X006974Y007326D01*
X006974Y007151D01*
X007040Y006990D01*
X007092Y006939D01*
X007092Y006886D01*
X006707Y006886D01*
X006634Y006855D01*
X006572Y006881D01*
X006272Y006881D01*
X006272Y006899D01*
X006324Y006950D01*
X006391Y007111D01*
X006391Y007286D01*
X006324Y007447D01*
X006200Y007570D01*
X006039Y007637D01*
X005865Y007637D01*
X005704Y007570D01*
X005580Y007447D01*
X005514Y007286D01*
X005514Y007111D01*
X005580Y006950D01*
X005632Y006899D01*
X005632Y006881D01*
X005217Y006881D01*
X005129Y006844D01*
X005061Y006776D01*
X005025Y006688D01*
X005025Y005884D01*
X005061Y005796D01*
X005129Y005728D01*
X005217Y005692D01*
X006572Y005692D01*
X006646Y005722D01*
X006707Y005697D01*
X008063Y005697D01*
X008151Y005733D01*
X008218Y005801D01*
X008255Y005889D01*
X008255Y006192D01*
X008280Y006130D01*
X008404Y006007D01*
X008565Y005940D01*
X008739Y005940D01*
X008796Y005964D01*
X008796Y005964D01*
X008832Y005875D01*
X008900Y005808D01*
X008988Y005771D01*
X009714Y005771D01*
X009802Y005808D01*
X009869Y005875D01*
X009906Y005964D01*
X009906Y006768D01*
X009869Y006856D01*
X009802Y006923D01*
X009714Y006960D01*
X008988Y006960D01*
X008900Y006923D01*
X008832Y006856D01*
X008805Y006790D01*
X008739Y006817D01*
X008565Y006817D01*
X008404Y006750D01*
X008280Y006627D01*
X008255Y006565D01*
X008255Y006693D01*
X008218Y006782D01*
X008151Y006849D01*
X008063Y006886D01*
X007732Y006886D01*
X007732Y006939D01*
X007784Y006990D01*
X007851Y007151D01*
X007851Y007326D01*
X007784Y007487D01*
X007851Y007291D02*
X011562Y007291D01*
X011562Y007133D02*
X007843Y007133D01*
X007768Y006974D02*
X011562Y006974D01*
X011562Y006816D02*
X010921Y006816D01*
X010912Y006830D02*
X010879Y006864D01*
X010838Y006888D01*
X010792Y006900D01*
X010531Y006900D01*
X010531Y006443D01*
X010948Y006443D01*
X010948Y006744D01*
X010936Y006789D01*
X010912Y006830D01*
X010948Y006657D02*
X011562Y006657D01*
X011562Y006499D02*
X010948Y006499D01*
X010948Y006288D02*
X010531Y006288D01*
X010531Y006443D01*
X010376Y006443D01*
X010376Y006900D01*
X010115Y006900D01*
X010069Y006888D01*
X010028Y006864D01*
X009994Y006830D01*
X009971Y006789D01*
X009958Y006744D01*
X009958Y006443D01*
X010376Y006443D01*
X010376Y006288D01*
X010531Y006288D01*
X010531Y005831D01*
X010792Y005831D01*
X010838Y005844D01*
X010879Y005867D01*
X010912Y005901D01*
X010936Y005942D01*
X010948Y005988D01*
X010948Y006288D01*
X010948Y006182D02*
X011424Y006182D01*
X011414Y006023D02*
X010948Y006023D01*
X010874Y005865D02*
X011462Y005865D01*
X011444Y005706D02*
X009629Y005706D01*
X009609Y005715D02*
X008804Y005715D01*
X008728Y005683D01*
X008720Y005690D01*
X008559Y005757D01*
X008385Y005757D01*
X008224Y005690D01*
X008100Y005567D01*
X008034Y005406D01*
X008034Y005231D01*
X003262Y005231D01*
X003262Y005389D02*
X008034Y005389D01*
X008034Y005231D02*
X008100Y005070D01*
X008224Y004947D01*
X008385Y004880D01*
X008529Y004880D01*
X008534Y004878D01*
X008555Y004863D01*
X008592Y004854D01*
X008612Y004846D01*
X008612Y004797D01*
X008649Y004709D01*
X008716Y004641D01*
X008804Y004605D01*
X009609Y004605D01*
X009697Y004641D01*
X009764Y004709D01*
X009801Y004797D01*
X009801Y005522D01*
X009764Y005611D01*
X009697Y005678D01*
X009609Y005715D01*
X009790Y005548D02*
X011394Y005548D01*
X011403Y005389D02*
X009801Y005389D01*
X009801Y005231D02*
X011480Y005231D01*
X011542Y005072D02*
X009801Y005072D01*
X009801Y004914D02*
X011542Y004914D01*
X011542Y004755D02*
X009783Y004755D01*
X009671Y004516D02*
X009630Y004540D01*
X009584Y004552D01*
X009284Y004552D01*
X009284Y004135D01*
X009129Y004135D01*
X009129Y004552D01*
X008828Y004552D01*
X008783Y004540D01*
X008742Y004516D01*
X008708Y004483D01*
X008684Y004442D01*
X008672Y004396D01*
X008672Y004135D01*
X009129Y004135D01*
X009129Y003980D01*
X008672Y003980D01*
X008672Y003719D01*
X008684Y003673D01*
X008708Y003632D01*
X008742Y003598D01*
X008783Y003575D01*
X008828Y003562D01*
X009129Y003562D01*
X009129Y003980D01*
X009284Y003980D01*
X009284Y004135D01*
X009741Y004135D01*
X009741Y004396D01*
X009729Y004442D01*
X009705Y004483D01*
X009671Y004516D01*
X009729Y004438D02*
X011542Y004438D01*
X011542Y004280D02*
X009741Y004280D01*
X009284Y004280D02*
X009129Y004280D01*
X009129Y004438D02*
X009284Y004438D01*
X009284Y004121D02*
X011542Y004121D01*
X011542Y003963D02*
X009741Y003963D01*
X009741Y003980D02*
X009741Y003719D01*
X009729Y003673D01*
X009705Y003632D01*
X009671Y003598D01*
X009630Y003575D01*
X009584Y003562D01*
X009284Y003562D01*
X009284Y003980D01*
X009741Y003980D01*
X009741Y003804D02*
X011542Y003804D01*
X011542Y003646D02*
X009713Y003646D01*
X009284Y003646D02*
X009129Y003646D01*
X009129Y003804D02*
X009284Y003804D01*
X009284Y003963D02*
X009129Y003963D01*
X009129Y004121D02*
X007465Y004121D01*
X007465Y004167D02*
X008195Y004167D01*
X008195Y004465D01*
X008183Y004510D01*
X008159Y004551D01*
X008125Y004585D01*
X008084Y004609D01*
X008039Y004621D01*
X007465Y004621D01*
X007465Y004167D01*
X007305Y004167D01*
X007305Y004621D01*
X006731Y004621D01*
X006685Y004609D01*
X006644Y004585D01*
X006637Y004578D01*
X006635Y004580D01*
X006594Y004604D01*
X006548Y004616D01*
X005974Y004616D01*
X005974Y004161D01*
X005814Y004161D01*
X005814Y004001D01*
X005974Y004001D01*
X005974Y003547D01*
X006548Y003547D01*
X006594Y003559D01*
X006635Y003583D01*
X006642Y003590D01*
X006644Y003588D01*
X006685Y003564D01*
X006731Y003552D01*
X007305Y003552D01*
X007305Y004007D01*
X006575Y004007D01*
X006575Y004001D01*
X005974Y004001D01*
X005974Y004161D01*
X006704Y004161D01*
X006704Y004167D01*
X007305Y004167D01*
X007305Y004007D01*
X007465Y004007D01*
X007465Y004167D01*
X007465Y004280D02*
X007305Y004280D01*
X007305Y004438D02*
X007465Y004438D01*
X007465Y004597D02*
X007305Y004597D01*
X006665Y004597D02*
X006606Y004597D01*
X005974Y004597D02*
X005814Y004597D01*
X005814Y004616D02*
X005241Y004616D01*
X005195Y004604D01*
X005154Y004580D01*
X005121Y004546D01*
X005097Y004505D01*
X005085Y004460D01*
X005085Y004161D01*
X005814Y004161D01*
X005814Y004616D01*
X005814Y004438D02*
X005974Y004438D01*
X005974Y004280D02*
X005814Y004280D01*
X005814Y004121D02*
X003262Y004121D01*
X003262Y003963D02*
X005085Y003963D01*
X005085Y004001D02*
X005085Y003703D01*
X005097Y003658D01*
X005121Y003617D01*
X005154Y003583D01*
X005195Y003559D01*
X005241Y003547D01*
X005814Y003547D01*
X005814Y004001D01*
X005085Y004001D01*
X005085Y003804D02*
X003262Y003804D01*
X003315Y003646D02*
X005104Y003646D01*
X005814Y003646D02*
X005974Y003646D01*
X005974Y003804D02*
X005814Y003804D01*
X005814Y003963D02*
X005974Y003963D01*
X005974Y004121D02*
X007305Y004121D01*
X007305Y003963D02*
X007465Y003963D01*
X007465Y004007D02*
X007465Y003552D01*
X008039Y003552D01*
X008084Y003564D01*
X008125Y003588D01*
X008159Y003622D01*
X008183Y003663D01*
X008195Y003709D01*
X008195Y004007D01*
X007465Y004007D01*
X007465Y003804D02*
X007305Y003804D01*
X007305Y003646D02*
X007465Y003646D01*
X008173Y003646D02*
X008700Y003646D01*
X008672Y003804D02*
X008195Y003804D01*
X008195Y003963D02*
X008672Y003963D01*
X008672Y004280D02*
X008195Y004280D01*
X008195Y004438D02*
X008683Y004438D01*
X008629Y004755D02*
X003262Y004755D01*
X003262Y004597D02*
X005183Y004597D01*
X005085Y004438D02*
X003262Y004438D01*
X003262Y004280D02*
X005085Y004280D01*
X003474Y003487D02*
X011411Y003487D01*
X011542Y004597D02*
X008105Y004597D01*
X008304Y004914D02*
X003262Y004914D01*
X003262Y005072D02*
X008100Y005072D01*
X008472Y005319D02*
X008691Y005160D01*
X009206Y005160D01*
X008784Y005706D02*
X008682Y005706D01*
X008843Y005865D02*
X008245Y005865D01*
X008255Y006023D02*
X008388Y006023D01*
X008259Y006182D02*
X008255Y006182D01*
X008652Y006379D02*
X008665Y006366D01*
X009351Y006366D01*
X009906Y006340D02*
X010376Y006340D01*
X010376Y006288D02*
X009958Y006288D01*
X009958Y005988D01*
X009971Y005942D01*
X009994Y005901D01*
X010028Y005867D01*
X010069Y005844D01*
X010115Y005831D01*
X010376Y005831D01*
X010376Y006288D01*
X010376Y006182D02*
X010531Y006182D01*
X010531Y006340D02*
X011504Y006340D01*
X010531Y006499D02*
X010376Y006499D01*
X010376Y006657D02*
X010531Y006657D01*
X010531Y006816D02*
X010376Y006816D01*
X009986Y006816D02*
X009886Y006816D01*
X009906Y006657D02*
X009958Y006657D01*
X009958Y006499D02*
X009906Y006499D01*
X009906Y006182D02*
X009958Y006182D01*
X009958Y006023D02*
X009906Y006023D01*
X009859Y005865D02*
X010032Y005865D01*
X010376Y005865D02*
X010531Y005865D01*
X010531Y006023D02*
X010376Y006023D01*
X008816Y006816D02*
X008743Y006816D01*
X008562Y006816D02*
X008184Y006816D01*
X008255Y006657D02*
X008311Y006657D01*
X007412Y006319D02*
X007385Y006291D01*
X007412Y006319D02*
X007412Y007239D01*
X007025Y007450D02*
X006321Y007450D01*
X006388Y007291D02*
X006974Y007291D01*
X006981Y007133D02*
X006391Y007133D01*
X006334Y006974D02*
X007057Y006974D01*
X005952Y007199D02*
X005952Y006344D01*
X005894Y006286D01*
X005571Y006974D02*
X003262Y006974D01*
X003262Y006816D02*
X005100Y006816D01*
X005025Y006657D02*
X003262Y006657D01*
X003262Y006499D02*
X005025Y006499D01*
X005025Y006340D02*
X003262Y006340D01*
X003262Y006182D02*
X005025Y006182D01*
X005025Y006023D02*
X003262Y006023D01*
X003262Y005865D02*
X005033Y005865D01*
X005182Y005706D02*
X003262Y005706D01*
X003262Y005548D02*
X008092Y005548D01*
X008085Y005706D02*
X008262Y005706D01*
X006685Y005706D02*
X006607Y005706D01*
X005514Y007133D02*
X003262Y007133D01*
X003262Y007291D02*
X005516Y007291D01*
X005583Y007450D02*
X003262Y007450D01*
X003262Y007608D02*
X005795Y007608D01*
X006109Y007608D02*
X007162Y007608D01*
X006112Y008279D02*
X006072Y008239D01*
X005952Y008239D01*
X007281Y008379D02*
X007312Y008410D01*
X007312Y009439D01*
X007520Y009827D02*
X008948Y009827D01*
X009405Y009827D02*
X009560Y009827D01*
X009560Y009986D02*
X009405Y009986D01*
X009405Y010144D02*
X009560Y010144D01*
X009560Y009510D02*
X009405Y009510D01*
X009405Y009352D02*
X009560Y009352D01*
X009560Y009193D02*
X009405Y009193D01*
X006471Y010937D02*
X003262Y010937D01*
X003262Y011095D02*
X006564Y011095D01*
X005970Y011254D02*
X005810Y011254D01*
X005810Y011412D02*
X005970Y011412D01*
X005970Y011888D02*
X005810Y011888D01*
X005810Y012046D02*
X005970Y012046D01*
X005970Y012205D02*
X005810Y012205D01*
X005080Y011412D02*
X003262Y011412D01*
X003262Y011254D02*
X005112Y011254D01*
X002682Y011254D02*
X000872Y011254D01*
X000872Y011412D02*
X002682Y011412D01*
X002682Y011571D02*
X000872Y011571D01*
X000872Y011729D02*
X002682Y011729D01*
X002682Y011888D02*
X000872Y011888D01*
X000872Y012046D02*
X002682Y012046D01*
X002682Y012205D02*
X000872Y012205D01*
X000872Y012363D02*
X002682Y012363D01*
X002682Y012522D02*
X000872Y012522D01*
X000872Y012680D02*
X002682Y012680D01*
X002682Y012839D02*
X000872Y012839D01*
X000872Y012997D02*
X002682Y012997D01*
X002682Y013156D02*
X001947Y013156D01*
X001940Y013148D02*
X002120Y013328D01*
X002217Y013564D01*
X002217Y013818D01*
X002120Y014054D01*
X001940Y014234D01*
X001704Y014331D01*
X001450Y014331D01*
X001214Y014234D01*
X001034Y014054D01*
X000937Y013818D01*
X000937Y013564D01*
X001034Y013328D01*
X001214Y013148D01*
X001450Y013051D01*
X001704Y013051D01*
X001940Y013148D01*
X002105Y013314D02*
X002682Y013314D01*
X002682Y013473D02*
X002179Y013473D01*
X002217Y013631D02*
X002682Y013631D01*
X002682Y013790D02*
X002217Y013790D01*
X002163Y013948D02*
X002682Y013948D01*
X002682Y014107D02*
X002066Y014107D01*
X001863Y014265D02*
X002682Y014265D01*
X002682Y014424D02*
X000872Y014424D01*
X000872Y014582D02*
X001249Y014582D01*
X001214Y014596D02*
X001450Y014499D01*
X001704Y014499D01*
X001940Y014596D01*
X002120Y014776D01*
X002217Y015012D01*
X002217Y015266D01*
X002120Y015502D01*
X001940Y015682D01*
X001704Y015779D01*
X001450Y015779D01*
X001214Y015682D01*
X001034Y015502D01*
X000937Y015266D01*
X000937Y015012D01*
X001034Y014776D01*
X001214Y014596D01*
X001070Y014741D02*
X000872Y014741D01*
X000872Y014899D02*
X000984Y014899D01*
X000937Y015058D02*
X000872Y015058D01*
X000872Y015216D02*
X000937Y015216D01*
X000982Y015375D02*
X000872Y015375D01*
X000872Y015533D02*
X001066Y015533D01*
X001239Y015692D02*
X000872Y015692D01*
X000872Y015850D02*
X002682Y015850D01*
X002682Y015692D02*
X001915Y015692D01*
X002088Y015533D02*
X002682Y015533D01*
X002682Y015375D02*
X002172Y015375D01*
X002217Y015216D02*
X002682Y015216D01*
X002682Y015058D02*
X002217Y015058D01*
X002170Y014899D02*
X002682Y014899D01*
X002682Y014741D02*
X002084Y014741D01*
X001905Y014582D02*
X002682Y014582D01*
X003262Y014582D02*
X005949Y014582D01*
X005866Y014741D02*
X003262Y014741D01*
X003262Y014899D02*
X005854Y014899D01*
X005074Y014424D02*
X003262Y014424D01*
X003262Y014265D02*
X005020Y014265D01*
X005020Y014107D02*
X003262Y014107D01*
X003262Y013948D02*
X005020Y013948D01*
X005020Y013790D02*
X003262Y013790D01*
X003262Y013631D02*
X005020Y013631D01*
X005037Y013473D02*
X003262Y013473D01*
X001207Y013156D02*
X000872Y013156D01*
X000872Y013314D02*
X001049Y013314D01*
X000975Y013473D02*
X000872Y013473D01*
X000872Y013631D02*
X000937Y013631D01*
X000937Y013790D02*
X000872Y013790D01*
X000872Y013948D02*
X000991Y013948D01*
X001088Y014107D02*
X000872Y014107D01*
X000872Y014265D02*
X001291Y014265D01*
X001129Y015947D02*
X001041Y015983D01*
X000974Y016051D01*
X000937Y016139D01*
X000937Y017035D01*
X000974Y017123D01*
X001041Y017190D01*
X001129Y017227D01*
X002025Y017227D01*
X002113Y017190D01*
X002180Y017123D01*
X002217Y017035D01*
X002217Y016139D01*
X002180Y016051D01*
X002113Y015983D01*
X002025Y015947D01*
X001129Y015947D01*
X001016Y016009D02*
X000872Y016009D01*
X000872Y016167D02*
X000937Y016167D01*
X000937Y016326D02*
X000872Y016326D01*
X000872Y016484D02*
X000937Y016484D01*
X000937Y016643D02*
X000872Y016643D01*
X000872Y016801D02*
X000937Y016801D01*
X000937Y016960D02*
X000872Y016960D01*
X000872Y017118D02*
X000972Y017118D01*
X000872Y017277D02*
X002682Y017277D01*
X002682Y017435D02*
X000872Y017435D01*
X000872Y017594D02*
X002682Y017594D01*
X002736Y017752D02*
X000872Y017752D01*
X000872Y017911D02*
X002894Y017911D01*
X002820Y018102D02*
X002908Y018138D01*
X002975Y018206D01*
X003012Y018294D01*
X003012Y019040D01*
X002975Y019128D01*
X002908Y019195D01*
X002820Y019232D01*
X002074Y019232D01*
X001986Y019195D01*
X001918Y019128D01*
X001882Y019040D01*
X001882Y018925D01*
X001879Y018932D01*
X001832Y018996D01*
X001776Y019052D01*
X001711Y019099D01*
X001641Y019135D01*
X001565Y019159D01*
X001487Y019172D01*
X001447Y019172D01*
X001447Y018667D01*
X001447Y018667D01*
X001447Y019172D01*
X001407Y019172D01*
X001329Y019159D01*
X001253Y019135D01*
X001182Y019099D01*
X001118Y019052D01*
X001062Y018996D01*
X001015Y018932D01*
X000979Y018861D01*
X000954Y018785D01*
X000942Y018707D01*
X000942Y018667D01*
X001447Y018667D01*
X001447Y018162D01*
X001487Y018162D01*
X001565Y018174D01*
X001641Y018199D01*
X001711Y018235D01*
X001776Y018282D01*
X001832Y018338D01*
X001879Y018402D01*
X001882Y018408D01*
X001882Y018294D01*
X001918Y018206D01*
X001986Y018138D01*
X002074Y018102D01*
X002820Y018102D01*
X002984Y018228D02*
X007991Y018228D01*
X007950Y018319D02*
X007991Y018343D01*
X008025Y018377D01*
X008049Y018418D01*
X008061Y018463D01*
X008061Y018761D01*
X007331Y018761D01*
X007331Y018307D01*
X007904Y018307D01*
X007950Y018319D01*
X008030Y018386D02*
X008150Y018386D01*
X008061Y018545D02*
X008308Y018545D01*
X008467Y018703D02*
X008061Y018703D01*
X008061Y018921D02*
X008061Y019220D01*
X008049Y019265D01*
X008025Y019306D01*
X007991Y019340D01*
X007950Y019364D01*
X007904Y019376D01*
X007331Y019376D01*
X007331Y018921D01*
X008061Y018921D01*
X008061Y019020D02*
X008784Y019020D01*
X008942Y019179D02*
X008061Y019179D01*
X007994Y019337D02*
X013348Y019337D01*
X013282Y019179D02*
X011002Y019179D01*
X011161Y019020D02*
X013271Y019020D01*
X013290Y018862D02*
X011319Y018862D01*
X011478Y018703D02*
X013356Y018703D01*
X013503Y018545D02*
X011879Y018545D01*
X011645Y018545D02*
X011590Y018545D01*
X010974Y018386D02*
X008970Y018386D01*
X009128Y018545D02*
X010816Y018545D01*
X010657Y018703D02*
X009287Y018703D01*
X008625Y018862D02*
X007331Y018862D01*
X007331Y018921D02*
X007331Y018761D01*
X007171Y018761D01*
X007171Y018307D01*
X006597Y018307D01*
X006551Y018319D01*
X006510Y018343D01*
X006477Y018377D01*
X006453Y018418D01*
X006441Y018463D01*
X006441Y018761D01*
X007171Y018761D01*
X007171Y018921D01*
X006441Y018921D01*
X006441Y019220D01*
X006453Y019265D01*
X006477Y019306D01*
X006510Y019340D01*
X006551Y019364D01*
X006597Y019376D01*
X007171Y019376D01*
X007171Y018921D01*
X007331Y018921D01*
X007331Y019020D02*
X007171Y019020D01*
X007171Y018862D02*
X003012Y018862D01*
X003012Y019020D02*
X006441Y019020D01*
X006441Y019179D02*
X002924Y019179D01*
X001969Y019179D02*
X000872Y019179D01*
X000877Y019337D02*
X006508Y019337D01*
X007171Y019337D02*
X007331Y019337D01*
X007331Y019179D02*
X007171Y019179D01*
X007171Y018703D02*
X007331Y018703D01*
X007331Y018545D02*
X007171Y018545D01*
X007171Y018386D02*
X007331Y018386D01*
X007833Y018069D02*
X000872Y018069D01*
X000872Y018228D02*
X001196Y018228D01*
X001182Y018235D02*
X001253Y018199D01*
X001329Y018174D01*
X001407Y018162D01*
X001447Y018162D01*
X001447Y018667D01*
X001447Y018667D01*
X001447Y018667D01*
X000942Y018667D01*
X000942Y018627D01*
X000954Y018549D01*
X000979Y018473D01*
X001015Y018402D01*
X001062Y018338D01*
X001118Y018282D01*
X001182Y018235D01*
X001026Y018386D02*
X000872Y018386D01*
X000872Y018545D02*
X000955Y018545D01*
X000942Y018703D02*
X000872Y018703D01*
X000872Y018862D02*
X000979Y018862D01*
X000872Y019020D02*
X001086Y019020D01*
X001447Y019020D02*
X001447Y019020D01*
X001447Y018862D02*
X001447Y018862D01*
X001447Y018703D02*
X001447Y018703D01*
X001447Y018545D02*
X001447Y018545D01*
X001447Y018386D02*
X001447Y018386D01*
X001447Y018228D02*
X001447Y018228D01*
X001697Y018228D02*
X001909Y018228D01*
X001882Y018386D02*
X001867Y018386D01*
X001882Y019020D02*
X001808Y019020D01*
X000960Y019496D02*
X013484Y019496D01*
X013004Y018386D02*
X017894Y018386D01*
X017986Y018294D02*
X017986Y018294D01*
X017503Y018545D02*
X017258Y018545D01*
X016503Y018545D02*
X016258Y018545D01*
X015503Y018545D02*
X015258Y018545D01*
X014503Y018545D02*
X014258Y018545D01*
X012848Y017752D02*
X012016Y017752D01*
X011602Y017594D02*
X012814Y017594D01*
X012814Y017435D02*
X011602Y017435D01*
X011602Y017277D02*
X012878Y017277D01*
X013073Y017118D02*
X011602Y017118D01*
X013431Y017118D02*
X019212Y017118D01*
X019773Y017118D02*
X021252Y017118D01*
X021121Y016960D02*
X019892Y016960D01*
X019931Y016801D02*
X021074Y016801D01*
X021086Y016643D02*
X020628Y016643D01*
X020715Y016484D02*
X021167Y016484D01*
X020739Y016326D02*
X020731Y016326D01*
X020002Y016009D02*
X018272Y016009D01*
X018431Y016167D02*
X019897Y016167D01*
X019854Y016326D02*
X018589Y016326D01*
X018748Y016484D02*
X019167Y016484D01*
X019818Y016484D02*
X019870Y016484D01*
X019910Y016643D02*
X019956Y016643D01*
X020002Y015850D02*
X018114Y015850D01*
X017971Y015692D02*
X020002Y015692D01*
X020002Y015533D02*
X017946Y015533D01*
X017848Y015375D02*
X020002Y015375D01*
X020002Y015216D02*
X018525Y015216D01*
X018680Y015058D02*
X020002Y015058D01*
X020002Y014899D02*
X018722Y014899D01*
X018722Y014741D02*
X020002Y014741D01*
X020002Y014582D02*
X018722Y014582D01*
X018707Y014424D02*
X020002Y014424D01*
X020002Y014265D02*
X018589Y014265D01*
X018430Y014107D02*
X020002Y014107D01*
X020002Y013948D02*
X018272Y013948D01*
X018113Y013790D02*
X020002Y013790D01*
X020002Y013631D02*
X017955Y013631D01*
X017929Y013156D02*
X016619Y013156D01*
X016778Y013314D02*
X020002Y013314D01*
X020002Y013156D02*
X018515Y013156D01*
X018764Y012997D02*
X020002Y012997D01*
X020002Y012839D02*
X018922Y012839D01*
X019002Y012680D02*
X020002Y012680D01*
X020002Y012522D02*
X019002Y012522D01*
X019002Y012363D02*
X020002Y012363D01*
X020002Y012205D02*
X019002Y012205D01*
X019002Y012046D02*
X020002Y012046D01*
X019891Y011888D02*
X018972Y011888D01*
X018833Y011729D02*
X019733Y011729D01*
X019574Y011571D02*
X018674Y011571D01*
X017809Y012680D02*
X016144Y012680D01*
X016302Y012839D02*
X017784Y012839D01*
X017817Y012997D02*
X016461Y012997D01*
X016936Y013473D02*
X020002Y013473D01*
X018768Y012993D02*
X018768Y012993D01*
X022442Y012997D02*
X022661Y012997D01*
X022557Y012839D02*
X022442Y012839D01*
X022442Y012680D02*
X022552Y012680D01*
X022552Y012522D02*
X022442Y012522D01*
X022442Y012363D02*
X022552Y012363D01*
X022552Y012205D02*
X022442Y012205D01*
X022442Y012046D02*
X022552Y012046D01*
X022552Y011888D02*
X022442Y011888D01*
X022442Y011729D02*
X022552Y011729D01*
X022552Y011571D02*
X022442Y011571D01*
X022442Y011412D02*
X022552Y011412D01*
X022507Y011254D02*
X022357Y011254D01*
X022379Y011095D02*
X022199Y011095D01*
X022334Y010937D02*
X022040Y010937D01*
X021882Y010778D02*
X022347Y010778D01*
X022431Y010620D02*
X021723Y010620D01*
X021565Y010461D02*
X022683Y010461D01*
X022862Y010461D02*
X022997Y010461D01*
X022974Y010303D02*
X021406Y010303D01*
X021248Y010144D02*
X023010Y010144D01*
X023099Y009986D02*
X021089Y009986D01*
X020931Y009827D02*
X022993Y009827D01*
X022964Y009669D02*
X020772Y009669D01*
X020614Y009510D02*
X022993Y009510D01*
X023099Y009352D02*
X020455Y009352D01*
X020241Y009193D02*
X024387Y009193D01*
X024317Y009035D02*
X018830Y009035D01*
X018851Y008876D02*
X024314Y008876D01*
X024369Y008718D02*
X018812Y008718D01*
X018693Y008559D02*
X024463Y008559D01*
X024349Y008401D02*
X018403Y008401D01*
X018451Y008242D02*
X024314Y008242D01*
X024338Y008084D02*
X018439Y008084D01*
X018359Y007925D02*
X019350Y007925D01*
X019182Y007767D02*
X018115Y007767D01*
X017832Y007608D02*
X019124Y007608D01*
X019124Y007450D02*
X017673Y007450D01*
X017515Y007291D02*
X019190Y007291D01*
X019397Y007133D02*
X017356Y007133D01*
X017171Y006974D02*
X028338Y006974D01*
X028217Y007133D02*
X019728Y007133D01*
X019435Y006816D02*
X028558Y006816D01*
X029185Y006816D02*
X032308Y006816D01*
X032202Y006859D02*
X032474Y006747D01*
X032769Y006747D01*
X033041Y006859D01*
X033249Y007068D01*
X033362Y007340D01*
X033362Y007634D01*
X033249Y007906D01*
X033041Y008114D01*
X032769Y008227D01*
X032474Y008227D01*
X032202Y008114D01*
X031994Y007906D01*
X031882Y007634D01*
X031882Y007340D01*
X031994Y007068D01*
X032202Y006859D01*
X032088Y006974D02*
X029406Y006974D01*
X029526Y007133D02*
X031967Y007133D01*
X031902Y007291D02*
X029592Y007291D01*
X029612Y007450D02*
X031882Y007450D01*
X031882Y007608D02*
X029612Y007608D01*
X029557Y007767D02*
X031937Y007767D01*
X032014Y007925D02*
X029480Y007925D01*
X029321Y008084D02*
X032172Y008084D01*
X033071Y008084D02*
X035705Y008084D01*
X035705Y008242D02*
X026706Y008242D01*
X026864Y008401D02*
X035705Y008401D01*
X035705Y008559D02*
X027023Y008559D01*
X027181Y008718D02*
X035705Y008718D01*
X035705Y008876D02*
X027340Y008876D01*
X027498Y009035D02*
X029620Y009035D01*
X029497Y009193D02*
X027657Y009193D01*
X027815Y009352D02*
X029495Y009352D01*
X029495Y009510D02*
X027974Y009510D01*
X028132Y009669D02*
X029495Y009669D01*
X029495Y009827D02*
X028291Y009827D01*
X028449Y009986D02*
X029511Y009986D01*
X030622Y009193D02*
X030724Y009193D01*
X030499Y009035D02*
X035705Y009035D01*
X035705Y009193D02*
X031395Y009193D01*
X031514Y009352D02*
X035705Y009352D01*
X035705Y009510D02*
X031561Y009510D01*
X031556Y009669D02*
X035705Y009669D01*
X035705Y009827D02*
X031496Y009827D01*
X031349Y009986D02*
X035705Y009986D01*
X035705Y010144D02*
X032098Y010144D01*
X032256Y010303D02*
X035705Y010303D01*
X035705Y010461D02*
X032415Y010461D01*
X032573Y010620D02*
X035705Y010620D01*
X035705Y010778D02*
X032732Y010778D01*
X032890Y010937D02*
X035705Y010937D01*
X035705Y011095D02*
X033049Y011095D01*
X033207Y011254D02*
X035705Y011254D01*
X035705Y011412D02*
X033366Y011412D01*
X033432Y011571D02*
X035705Y011571D01*
X035705Y011729D02*
X033432Y011729D01*
X033432Y011888D02*
X035705Y011888D01*
X035705Y012046D02*
X033432Y012046D01*
X033432Y012205D02*
X035705Y012205D01*
X035705Y012363D02*
X033432Y012363D01*
X033432Y012522D02*
X035705Y012522D01*
X035705Y012680D02*
X033432Y012680D01*
X033432Y012839D02*
X035705Y012839D01*
X035705Y012997D02*
X033432Y012997D01*
X033432Y013156D02*
X035705Y013156D01*
X035705Y013314D02*
X035402Y013314D01*
X035203Y013314D02*
X035163Y013314D01*
X035163Y013473D02*
X035203Y013473D01*
X035203Y013631D02*
X035163Y013631D01*
X035163Y013790D02*
X035203Y013790D01*
X035700Y013631D02*
X035705Y013631D01*
X035705Y013473D02*
X035611Y013473D01*
X034964Y013314D02*
X033432Y013314D01*
X033432Y013473D02*
X034756Y013473D01*
X034666Y013631D02*
X033432Y013631D01*
X033483Y013790D02*
X034633Y013790D01*
X034647Y013948D02*
X033573Y013948D01*
X033591Y014107D02*
X034712Y014107D01*
X034860Y014265D02*
X033549Y014265D01*
X033427Y014424D02*
X034717Y014424D01*
X034647Y015119D02*
X032784Y015119D01*
X032678Y015075D01*
X032596Y014993D01*
X032192Y014589D01*
X032192Y016539D01*
X033182Y017529D01*
X034643Y017529D01*
X034666Y017474D01*
X034838Y017303D01*
X034885Y017283D01*
X034825Y017240D01*
X034764Y017178D01*
X034713Y017108D01*
X034673Y017031D01*
X034647Y016949D01*
X034633Y016863D01*
X034633Y016840D01*
X035163Y016840D01*
X035163Y016800D01*
X034633Y016800D01*
X034633Y016777D01*
X034647Y016691D01*
X034673Y016609D01*
X034713Y016532D01*
X034764Y016462D01*
X034825Y016400D01*
X034885Y016357D01*
X034838Y016337D01*
X034666Y016166D01*
X034573Y015941D01*
X034573Y015699D01*
X034666Y015474D01*
X034820Y015320D01*
X034666Y015166D01*
X034647Y015119D01*
X034717Y015216D02*
X032192Y015216D01*
X032192Y015058D02*
X032661Y015058D01*
X032503Y014899D02*
X032192Y014899D01*
X032192Y014741D02*
X032344Y014741D01*
X032847Y014424D02*
X032877Y014424D01*
X032755Y014265D02*
X032722Y014265D01*
X031162Y014265D02*
X029842Y014265D01*
X029842Y014107D02*
X031162Y014107D01*
X031162Y013948D02*
X029842Y013948D01*
X029842Y013790D02*
X031162Y013790D01*
X031162Y013631D02*
X029842Y013631D01*
X029842Y013473D02*
X031162Y013473D01*
X031162Y013314D02*
X029842Y013314D01*
X029915Y013156D02*
X031162Y013156D01*
X031162Y012997D02*
X029961Y012997D01*
X029947Y012839D02*
X031162Y012839D01*
X031162Y012680D02*
X029864Y012680D01*
X029613Y012522D02*
X031162Y012522D01*
X031117Y012363D02*
X029099Y012363D01*
X029111Y012522D02*
X029431Y012522D01*
X029181Y012680D02*
X029063Y012680D01*
X029042Y012839D02*
X029097Y012839D01*
X029084Y012997D02*
X029042Y012997D01*
X029042Y013156D02*
X029129Y013156D01*
X029108Y013314D02*
X029202Y013314D01*
X029202Y013473D02*
X029183Y013473D01*
X029191Y013631D02*
X029202Y013631D01*
X029202Y013790D02*
X029139Y013790D01*
X029182Y013948D02*
X029202Y013948D01*
X029842Y014424D02*
X031162Y014424D01*
X031162Y014582D02*
X029842Y014582D01*
X029830Y014741D02*
X031162Y014741D01*
X031162Y014899D02*
X029724Y014899D01*
X029512Y015058D02*
X031162Y015058D01*
X031162Y015216D02*
X025880Y015216D01*
X025942Y015375D02*
X031162Y015375D01*
X031162Y015533D02*
X025942Y015533D01*
X025942Y015692D02*
X031162Y015692D01*
X031162Y015850D02*
X025970Y015850D01*
X026141Y016009D02*
X031162Y016009D01*
X031162Y016167D02*
X026201Y016167D01*
X026201Y016326D02*
X031162Y016326D01*
X031162Y016484D02*
X026135Y016484D01*
X025932Y016643D02*
X031162Y016643D01*
X031162Y016801D02*
X024622Y016801D01*
X024622Y016643D02*
X025592Y016643D01*
X025389Y016484D02*
X024622Y016484D01*
X024622Y016326D02*
X025324Y016326D01*
X025324Y016167D02*
X024622Y016167D01*
X024605Y016009D02*
X024682Y016009D01*
X024592Y015850D02*
X024484Y015850D01*
X024421Y015692D02*
X024574Y015692D01*
X024492Y015533D02*
X024363Y015533D01*
X024492Y015375D02*
X024201Y015375D01*
X024492Y015216D02*
X022842Y015216D01*
X022842Y015375D02*
X023113Y015375D01*
X022951Y015533D02*
X022842Y015533D01*
X022842Y015692D02*
X022894Y015692D01*
X022895Y015850D02*
X022842Y015850D01*
X022842Y016009D02*
X022962Y016009D01*
X023042Y016167D02*
X022842Y016167D01*
X022842Y016326D02*
X023042Y016326D01*
X023042Y016484D02*
X022842Y016484D01*
X022842Y016643D02*
X023042Y016643D01*
X023042Y016801D02*
X022799Y016801D01*
X022641Y016960D02*
X023042Y016960D01*
X023042Y017118D02*
X021773Y017118D01*
X021656Y017277D02*
X023042Y017277D01*
X023042Y017435D02*
X021814Y017435D01*
X021871Y017594D02*
X023042Y017594D01*
X023042Y017752D02*
X021868Y017752D01*
X021800Y017911D02*
X023042Y017911D01*
X022911Y018069D02*
X021763Y018069D01*
X021852Y018228D02*
X022753Y018228D01*
X024081Y019020D02*
X032494Y019020D01*
X032335Y018862D02*
X024239Y018862D01*
X024398Y018703D02*
X032177Y018703D01*
X032018Y018545D02*
X024556Y018545D01*
X024622Y018386D02*
X031860Y018386D01*
X031701Y018228D02*
X024622Y018228D01*
X024622Y018069D02*
X031543Y018069D01*
X031384Y017911D02*
X024622Y017911D01*
X024622Y017752D02*
X031226Y017752D01*
X031162Y017594D02*
X024622Y017594D01*
X024622Y017435D02*
X031162Y017435D01*
X031162Y017277D02*
X024622Y017277D01*
X024622Y017118D02*
X031162Y017118D01*
X031162Y016960D02*
X024622Y016960D01*
X025342Y016009D02*
X025362Y016009D01*
X023763Y015375D02*
X023551Y015375D01*
X022808Y015058D02*
X024492Y015058D01*
X024492Y014899D02*
X022663Y014899D01*
X022504Y014741D02*
X024404Y014741D01*
X024246Y014582D02*
X022442Y014582D01*
X022442Y014424D02*
X024087Y014424D01*
X023929Y014265D02*
X022442Y014265D01*
X022442Y014107D02*
X023770Y014107D01*
X023612Y013948D02*
X022442Y013948D01*
X022442Y013790D02*
X023453Y013790D01*
X023295Y013631D02*
X022442Y013631D01*
X022442Y013473D02*
X023136Y013473D01*
X022978Y013314D02*
X022442Y013314D01*
X022442Y013156D02*
X022819Y013156D01*
X024462Y012839D02*
X028412Y012839D01*
X028462Y012997D02*
X024621Y012997D01*
X024779Y013156D02*
X028462Y013156D01*
X028397Y013314D02*
X025818Y013314D01*
X025951Y013473D02*
X028321Y013473D01*
X028281Y012680D02*
X024933Y012680D01*
X025099Y012522D02*
X028234Y012522D01*
X028245Y012363D02*
X025258Y012363D01*
X025312Y012205D02*
X028326Y012205D01*
X028571Y012046D02*
X025312Y012046D01*
X025312Y011888D02*
X026851Y011888D01*
X026693Y011729D02*
X025382Y011729D01*
X025495Y011571D02*
X026534Y011571D01*
X026376Y011412D02*
X025531Y011412D01*
X025507Y011254D02*
X026217Y011254D01*
X026059Y011095D02*
X025409Y011095D01*
X025031Y010937D02*
X025900Y010937D01*
X025742Y010778D02*
X025008Y010778D01*
X024913Y010620D02*
X025583Y010620D01*
X025625Y009352D02*
X024901Y009352D01*
X024604Y009352D02*
X023705Y009352D01*
X024436Y007925D02*
X019775Y007925D01*
X019562Y007539D02*
X028820Y007539D01*
X028264Y007925D02*
X025069Y007925D01*
X026547Y008084D02*
X028422Y008084D01*
X031060Y009067D02*
X031060Y009572D01*
X031060Y009067D01*
X031060Y009193D02*
X031060Y009193D01*
X031060Y009352D02*
X031060Y009352D01*
X031060Y009510D02*
X031060Y009510D01*
X031060Y009572D02*
X031060Y009572D01*
X033230Y007925D02*
X035705Y007925D01*
X035705Y007767D02*
X033307Y007767D01*
X033362Y007608D02*
X035705Y007608D01*
X035705Y007450D02*
X033362Y007450D01*
X033342Y007291D02*
X035705Y007291D01*
X035705Y007133D02*
X033276Y007133D01*
X033156Y006974D02*
X035705Y006974D01*
X035705Y006816D02*
X032935Y006816D01*
X035705Y006657D02*
X019553Y006657D01*
X019524Y006727D02*
X019400Y006850D01*
X019239Y006917D01*
X019065Y006917D01*
X018904Y006850D01*
X018780Y006727D01*
X018714Y006566D01*
X018714Y006391D01*
X018780Y006230D01*
X018904Y006107D01*
X019065Y006040D01*
X019138Y006040D01*
X019432Y005746D01*
X019432Y003499D01*
X019380Y003447D01*
X019314Y003286D01*
X019314Y003111D01*
X019380Y002950D01*
X019504Y002827D01*
X019665Y002760D01*
X019839Y002760D01*
X020000Y002827D01*
X020124Y002950D01*
X020191Y003111D01*
X020191Y003286D01*
X020124Y003447D01*
X020072Y003499D01*
X020072Y005942D01*
X020023Y006060D01*
X019591Y006493D01*
X019591Y006566D01*
X019524Y006727D01*
X019591Y006499D02*
X035705Y006499D01*
X035705Y006340D02*
X019743Y006340D01*
X019902Y006182D02*
X035705Y006182D01*
X035705Y006023D02*
X024203Y006023D01*
X024168Y006029D02*
X024128Y006029D01*
X024088Y006029D01*
X024010Y006016D01*
X023934Y005992D01*
X023863Y005956D01*
X023799Y005909D01*
X023743Y005853D01*
X023696Y005788D01*
X023660Y005718D01*
X023635Y005642D01*
X023623Y005563D01*
X023623Y005524D01*
X024128Y005524D01*
X024128Y006029D01*
X024128Y005524D01*
X024128Y005524D01*
X024128Y005524D01*
X024633Y005524D01*
X024633Y005563D01*
X024621Y005642D01*
X024596Y005718D01*
X024560Y005788D01*
X024513Y005853D01*
X024457Y005909D01*
X024393Y005956D01*
X024322Y005992D01*
X024246Y006016D01*
X024168Y006029D01*
X024128Y006023D02*
X024128Y006023D01*
X024053Y006023D02*
X020039Y006023D01*
X020072Y005865D02*
X023755Y005865D01*
X023656Y005706D02*
X020072Y005706D01*
X020072Y005548D02*
X023623Y005548D01*
X023623Y005524D02*
X023623Y005484D01*
X023635Y005405D01*
X023660Y005330D01*
X023696Y005259D01*
X023743Y005195D01*
X023799Y005139D01*
X023863Y005092D01*
X023934Y005056D01*
X024010Y005031D01*
X024088Y005019D01*
X024128Y005019D01*
X024128Y005524D01*
X024128Y005524D01*
X023623Y005524D01*
X023641Y005389D02*
X020072Y005389D01*
X020072Y005231D02*
X023717Y005231D01*
X023902Y005072D02*
X020072Y005072D01*
X020072Y004914D02*
X035705Y004914D01*
X035705Y005072D02*
X024354Y005072D01*
X024322Y005056D02*
X024393Y005092D01*
X024457Y005139D01*
X024513Y005195D01*
X024560Y005259D01*
X024596Y005330D01*
X024621Y005405D01*
X024633Y005484D01*
X024633Y005524D01*
X024128Y005524D01*
X024128Y005524D01*
X024128Y005019D01*
X024168Y005019D01*
X024246Y005031D01*
X024322Y005056D01*
X024128Y005072D02*
X024128Y005072D01*
X024128Y005231D02*
X024128Y005231D01*
X024128Y005389D02*
X024128Y005389D01*
X024128Y005548D02*
X024128Y005548D01*
X024128Y005706D02*
X024128Y005706D01*
X024128Y005865D02*
X024128Y005865D01*
X024501Y005865D02*
X035705Y005865D01*
X035705Y005706D02*
X024600Y005706D01*
X024633Y005548D02*
X035705Y005548D01*
X035705Y005389D02*
X024615Y005389D01*
X024539Y005231D02*
X035705Y005231D01*
X035705Y004755D02*
X020072Y004755D01*
X020072Y004597D02*
X035705Y004597D01*
X035705Y004438D02*
X035674Y004438D01*
X035115Y004438D02*
X020072Y004438D01*
X020072Y004280D02*
X034908Y004280D01*
X034810Y004121D02*
X020072Y004121D01*
X020072Y003963D02*
X023590Y003963D01*
X023600Y003985D02*
X023563Y003896D01*
X023563Y003151D01*
X023600Y003063D01*
X023667Y002995D01*
X023755Y002959D01*
X024501Y002959D01*
X024589Y002995D01*
X024656Y003063D01*
X024693Y003151D01*
X024693Y003896D01*
X024656Y003985D01*
X024589Y004052D01*
X024501Y004089D01*
X023755Y004089D01*
X023667Y004052D01*
X023600Y003985D01*
X023563Y003804D02*
X020072Y003804D01*
X020072Y003646D02*
X023563Y003646D01*
X023563Y003487D02*
X020084Y003487D01*
X020173Y003329D02*
X023563Y003329D01*
X023563Y003170D02*
X020191Y003170D01*
X020149Y003012D02*
X023651Y003012D01*
X024605Y003012D02*
X035705Y003012D01*
X035705Y003170D02*
X024693Y003170D01*
X024693Y003329D02*
X035022Y003329D01*
X034864Y003487D02*
X024693Y003487D01*
X024693Y003646D02*
X034791Y003646D01*
X034755Y003804D02*
X024693Y003804D01*
X024666Y003963D02*
X034755Y003963D01*
X035705Y002853D02*
X020027Y002853D01*
X019752Y003199D02*
X019752Y005879D01*
X019152Y006479D01*
X018752Y006657D02*
X016873Y006657D01*
X016911Y006499D02*
X018714Y006499D01*
X018735Y006340D02*
X016889Y006340D01*
X016795Y006182D02*
X018829Y006182D01*
X019155Y006023D02*
X016762Y006023D01*
X016762Y005865D02*
X019314Y005865D01*
X019432Y005706D02*
X016762Y005706D01*
X016762Y005548D02*
X019432Y005548D01*
X019432Y005389D02*
X016762Y005389D01*
X016762Y005231D02*
X019432Y005231D01*
X019432Y005072D02*
X016762Y005072D01*
X016847Y004914D02*
X019432Y004914D01*
X019432Y004755D02*
X017006Y004755D01*
X017164Y004597D02*
X019432Y004597D01*
X019432Y004438D02*
X017323Y004438D01*
X017481Y004280D02*
X019432Y004280D01*
X019432Y004121D02*
X017640Y004121D01*
X017798Y003963D02*
X019432Y003963D01*
X019432Y003804D02*
X017957Y003804D01*
X018115Y003646D02*
X019432Y003646D01*
X019421Y003487D02*
X018274Y003487D01*
X018432Y003329D02*
X019331Y003329D01*
X019314Y003170D02*
X018591Y003170D01*
X018749Y003012D02*
X019355Y003012D01*
X019478Y002853D02*
X018908Y002853D01*
X019066Y002695D02*
X035705Y002695D01*
X035705Y002536D02*
X022725Y002536D01*
X022778Y002483D02*
X022778Y002483D01*
X022836Y002425D02*
X022836Y002425D01*
X022883Y002378D02*
X034836Y002378D01*
X034815Y002219D02*
X022962Y002219D01*
X022962Y002061D02*
X034815Y002061D01*
X035347Y002061D02*
X035443Y002061D01*
X035443Y002219D02*
X035347Y002219D01*
X035347Y002378D02*
X035443Y002378D01*
X035347Y001902D02*
X032949Y001902D01*
X033041Y001864D02*
X032769Y001977D01*
X032474Y001977D01*
X032202Y001864D01*
X031997Y001658D01*
X031791Y001864D01*
X031519Y001977D01*
X031224Y001977D01*
X030952Y001864D01*
X030744Y001656D01*
X030632Y001384D01*
X030632Y001090D01*
X030744Y000818D01*
X030952Y000609D01*
X031224Y000497D01*
X031519Y000497D01*
X031791Y000609D01*
X031997Y000815D01*
X032202Y000609D01*
X032474Y000497D01*
X032769Y000497D01*
X033041Y000609D01*
X033249Y000818D01*
X033362Y001090D01*
X033362Y001384D01*
X033249Y001656D01*
X033041Y001864D01*
X033161Y001744D02*
X034815Y001744D01*
X034815Y001585D02*
X033278Y001585D01*
X033344Y001427D02*
X034826Y001427D01*
X035347Y001427D02*
X035443Y001427D01*
X035443Y001585D02*
X035347Y001585D01*
X035347Y001744D02*
X035443Y001744D01*
X035705Y001268D02*
X033362Y001268D01*
X033362Y001110D02*
X035705Y001110D01*
X035705Y000951D02*
X033304Y000951D01*
X033224Y000793D02*
X035705Y000793D01*
X035705Y000634D02*
X033066Y000634D01*
X032178Y000634D02*
X031816Y000634D01*
X031974Y000793D02*
X032019Y000793D01*
X030928Y000634D02*
X029520Y000634D01*
X029516Y000626D02*
X029539Y000667D01*
X029552Y000713D01*
X029552Y001179D01*
X028929Y001179D01*
X028929Y000557D01*
X029395Y000557D01*
X029441Y000569D01*
X029482Y000593D01*
X029516Y000626D01*
X029552Y000793D02*
X030769Y000793D01*
X030689Y000951D02*
X029552Y000951D01*
X029552Y001110D02*
X030632Y001110D01*
X030632Y001268D02*
X028929Y001268D01*
X028929Y001294D02*
X029552Y001294D01*
X029552Y001760D01*
X029539Y001806D01*
X029516Y001847D01*
X029482Y001881D01*
X029441Y001905D01*
X029395Y001917D01*
X028929Y001917D01*
X028929Y001294D01*
X028929Y001179D01*
X028814Y001179D01*
X028814Y000557D01*
X028348Y000557D01*
X028302Y000569D01*
X028261Y000593D01*
X028228Y000626D01*
X028204Y000667D01*
X028192Y000713D01*
X028192Y001179D01*
X028814Y001179D01*
X028814Y001294D01*
X028192Y001294D01*
X028192Y001760D01*
X028204Y001806D01*
X028228Y001847D01*
X028261Y001881D01*
X028302Y001905D01*
X028348Y001917D01*
X028814Y001917D01*
X028814Y001294D01*
X028929Y001294D01*
X028814Y001268D02*
X024285Y001268D01*
X024325Y001110D02*
X028192Y001110D01*
X028192Y000951D02*
X024325Y000951D01*
X024269Y000793D02*
X028192Y000793D01*
X028223Y000634D02*
X024162Y000634D01*
X023923Y000476D02*
X035705Y000476D01*
X032294Y001902D02*
X031699Y001902D01*
X031911Y001744D02*
X032082Y001744D01*
X031044Y001902D02*
X029445Y001902D01*
X029552Y001744D02*
X030832Y001744D01*
X030715Y001585D02*
X029552Y001585D01*
X029552Y001427D02*
X030649Y001427D01*
X028929Y001427D02*
X028814Y001427D01*
X028814Y001585D02*
X028929Y001585D01*
X028929Y001744D02*
X028814Y001744D01*
X028814Y001902D02*
X028929Y001902D01*
X028298Y001902D02*
X022962Y001902D01*
X022962Y001744D02*
X028192Y001744D01*
X028192Y001585D02*
X024016Y001585D01*
X024200Y001427D02*
X028192Y001427D01*
X028814Y001110D02*
X028929Y001110D01*
X028929Y000951D02*
X028814Y000951D01*
X028814Y000793D02*
X028929Y000793D01*
X028929Y000634D02*
X028814Y000634D01*
X023506Y000476D02*
X021923Y000476D01*
X022162Y000634D02*
X022368Y000634D01*
X023062Y000634D02*
X023268Y000634D01*
X023142Y001585D02*
X023414Y001585D01*
X021422Y001589D02*
X021369Y001567D01*
X021204Y001401D01*
X021185Y001438D01*
X021134Y001508D01*
X021073Y001569D01*
X021003Y001620D01*
X020926Y001659D01*
X020844Y001686D01*
X020758Y001700D01*
X020735Y001700D01*
X020735Y001170D01*
X020695Y001170D01*
X020695Y001700D01*
X020672Y001700D01*
X020586Y001686D01*
X020504Y001659D01*
X020427Y001620D01*
X020357Y001569D01*
X020295Y001508D01*
X020244Y001438D01*
X020226Y001401D01*
X020060Y001567D01*
X019836Y001660D01*
X019593Y001660D01*
X019369Y001567D01*
X019251Y001449D01*
X019232Y001495D01*
X019060Y001667D01*
X018836Y001760D01*
X018593Y001760D01*
X018369Y001667D01*
X018198Y001495D01*
X018180Y001451D01*
X018060Y001570D01*
X017922Y001628D01*
X017922Y002499D01*
X018506Y001914D01*
X018588Y001833D01*
X018694Y001789D01*
X021272Y001789D01*
X021422Y001639D01*
X021422Y001589D01*
X021414Y001585D02*
X021051Y001585D01*
X021191Y001427D02*
X021229Y001427D01*
X021317Y001744D02*
X018875Y001744D01*
X019142Y001585D02*
X019414Y001585D01*
X020016Y001585D02*
X020379Y001585D01*
X020239Y001427D02*
X020200Y001427D01*
X020695Y001427D02*
X020735Y001427D01*
X020735Y001585D02*
X020695Y001585D01*
X020695Y001268D02*
X020735Y001268D01*
X020735Y001110D02*
X020695Y001110D01*
X020695Y000951D02*
X020735Y000951D01*
X020735Y000793D02*
X020695Y000793D01*
X020695Y000634D02*
X020735Y000634D01*
X020908Y000634D02*
X021268Y000634D01*
X021161Y000793D02*
X021135Y000793D01*
X021506Y000476D02*
X019923Y000476D01*
X020162Y000634D02*
X020521Y000634D01*
X020294Y000793D02*
X020269Y000793D01*
X018555Y001744D02*
X017922Y001744D01*
X017922Y001902D02*
X018519Y001902D01*
X018360Y002061D02*
X017922Y002061D01*
X017922Y002219D02*
X018201Y002219D01*
X018043Y002378D02*
X017922Y002378D01*
X018025Y001585D02*
X018288Y001585D01*
X018209Y000793D02*
X017978Y000793D01*
X015898Y003963D02*
X013422Y003963D01*
X013608Y004121D02*
X015739Y004121D01*
X015581Y004280D02*
X014133Y004280D01*
X014292Y004438D02*
X015422Y004438D01*
X015264Y004597D02*
X014450Y004597D01*
X014609Y004755D02*
X015106Y004755D01*
X015062Y004914D02*
X014767Y004914D01*
X014926Y005072D02*
X014980Y005072D01*
X016755Y006816D02*
X018869Y006816D01*
X016013Y007450D02*
X015828Y007450D01*
X009392Y007279D02*
X009292Y007279D01*
X002682Y007291D02*
X002056Y007291D01*
X002100Y007335D02*
X002197Y007571D01*
X002197Y007825D01*
X002100Y008061D01*
X001920Y008241D01*
X001685Y008338D01*
X001430Y008338D01*
X001195Y008241D01*
X001015Y008061D01*
X000917Y007825D01*
X000917Y007571D01*
X001015Y007335D01*
X001195Y007155D01*
X001430Y007058D01*
X001685Y007058D01*
X001920Y007155D01*
X002100Y007335D01*
X002147Y007450D02*
X002682Y007450D01*
X002682Y007608D02*
X002197Y007608D01*
X002197Y007767D02*
X002682Y007767D01*
X002682Y007925D02*
X002156Y007925D01*
X002077Y008084D02*
X002682Y008084D01*
X002682Y008242D02*
X001916Y008242D01*
X002005Y008506D02*
X002093Y008543D01*
X002161Y008610D01*
X002197Y008698D01*
X002197Y009594D01*
X002161Y009682D01*
X002093Y009749D01*
X002005Y009786D01*
X001110Y009786D01*
X001021Y009749D01*
X000954Y009682D01*
X000917Y009594D01*
X000917Y008698D01*
X000954Y008610D01*
X001021Y008543D01*
X001110Y008506D01*
X002005Y008506D01*
X002110Y008559D02*
X002682Y008559D01*
X002682Y008401D02*
X000872Y008401D01*
X000872Y008559D02*
X001005Y008559D01*
X000917Y008718D02*
X000872Y008718D01*
X000872Y008876D02*
X000917Y008876D01*
X000917Y009035D02*
X000872Y009035D01*
X000872Y009193D02*
X000917Y009193D01*
X000917Y009352D02*
X000872Y009352D01*
X000872Y009510D02*
X000917Y009510D01*
X000948Y009669D02*
X000872Y009669D01*
X000872Y009827D02*
X002682Y009827D01*
X002682Y009669D02*
X002166Y009669D01*
X002197Y009510D02*
X002682Y009510D01*
X002682Y009352D02*
X002197Y009352D01*
X002197Y009193D02*
X002682Y009193D01*
X002682Y009035D02*
X002197Y009035D01*
X002197Y008876D02*
X002682Y008876D01*
X002682Y008718D02*
X002197Y008718D01*
X001199Y008242D02*
X000872Y008242D01*
X000872Y008084D02*
X001038Y008084D01*
X000959Y007925D02*
X000872Y007925D01*
X000872Y007767D02*
X000917Y007767D01*
X000917Y007608D02*
X000872Y007608D01*
X000872Y007450D02*
X000967Y007450D01*
X001059Y007291D02*
X000872Y007291D01*
X000872Y007133D02*
X001250Y007133D01*
X001430Y006890D02*
X001195Y006793D01*
X001015Y006613D01*
X000917Y006377D01*
X000917Y006123D01*
X001015Y005888D01*
X001195Y005708D01*
X001430Y005610D01*
X001685Y005610D01*
X001920Y005708D01*
X002100Y005888D01*
X002197Y006123D01*
X002197Y006377D01*
X002100Y006613D01*
X001920Y006793D01*
X001685Y006890D01*
X001430Y006890D01*
X001250Y006816D02*
X000872Y006816D01*
X000872Y006974D02*
X002682Y006974D01*
X002682Y006816D02*
X001864Y006816D01*
X002055Y006657D02*
X002682Y006657D01*
X002682Y006499D02*
X002147Y006499D01*
X002197Y006340D02*
X002682Y006340D01*
X002682Y006182D02*
X002197Y006182D01*
X002156Y006023D02*
X002682Y006023D01*
X002682Y005865D02*
X002077Y005865D01*
X001917Y005706D02*
X002682Y005706D01*
X002682Y005548D02*
X000872Y005548D01*
X000872Y005706D02*
X001198Y005706D01*
X001038Y005865D02*
X000872Y005865D01*
X000872Y006023D02*
X000959Y006023D01*
X000917Y006182D02*
X000872Y006182D01*
X000872Y006340D02*
X000917Y006340D01*
X000872Y006499D02*
X000968Y006499D01*
X001059Y006657D02*
X000872Y006657D01*
X001865Y007133D02*
X002682Y007133D01*
X002682Y005389D02*
X000872Y005389D01*
X000872Y005231D02*
X002682Y005231D01*
X002682Y005072D02*
X000872Y005072D01*
X000872Y004914D02*
X002682Y004914D01*
X002682Y004755D02*
X000872Y004755D01*
X000872Y004597D02*
X002682Y004597D01*
X002682Y004438D02*
X000872Y004438D01*
X000872Y004280D02*
X002682Y004280D01*
X002682Y004121D02*
X000872Y004121D01*
X000872Y003963D02*
X002682Y003963D01*
X002682Y003804D02*
X000872Y003804D01*
X000872Y003646D02*
X002682Y003646D01*
X002696Y003487D02*
X000872Y003487D01*
X000872Y003329D02*
X002812Y003329D01*
X002970Y003170D02*
X000872Y003170D01*
X000872Y003012D02*
X003129Y003012D01*
X003287Y002853D02*
X000872Y002853D01*
X000872Y009986D02*
X002682Y009986D01*
X002682Y010144D02*
X000872Y010144D01*
X000872Y010303D02*
X002682Y010303D01*
X002682Y010461D02*
X000872Y010461D01*
X000872Y010620D02*
X002682Y010620D01*
X002682Y010778D02*
X000872Y010778D01*
X000872Y010937D02*
X002682Y010937D01*
X002682Y011095D02*
X000872Y011095D01*
X008093Y011888D02*
X008242Y011888D01*
X008699Y011729D02*
X008854Y011729D01*
X008854Y012205D02*
X008699Y012205D01*
X008699Y012363D02*
X008854Y012363D01*
X008854Y012522D02*
X008699Y012522D01*
X011994Y014107D02*
X013130Y014107D01*
X012972Y013948D02*
X012463Y013948D01*
X015801Y015692D02*
X017094Y015692D01*
X017118Y015533D02*
X016018Y015533D01*
X016087Y015375D02*
X017216Y015375D01*
X017129Y015850D02*
X015711Y015850D01*
X015676Y016009D02*
X017242Y016009D01*
X017611Y016167D02*
X015564Y016167D01*
X014981Y016167D02*
X013676Y016167D01*
X013919Y016326D02*
X017769Y016326D01*
X017928Y016484D02*
X013999Y016484D01*
X014011Y016643D02*
X018086Y016643D01*
X018245Y016801D02*
X013963Y016801D01*
X013831Y016960D02*
X018403Y016960D01*
X023922Y019179D02*
X034679Y019179D01*
X034705Y017435D02*
X033089Y017435D01*
X032930Y017277D02*
X034876Y017277D01*
X034720Y017118D02*
X032772Y017118D01*
X032613Y016960D02*
X034650Y016960D01*
X035163Y016801D02*
X032455Y016801D01*
X032296Y016643D02*
X034662Y016643D01*
X034747Y016484D02*
X032192Y016484D01*
X032192Y016326D02*
X034826Y016326D01*
X034668Y016167D02*
X032192Y016167D01*
X032192Y016009D02*
X034601Y016009D01*
X034573Y015850D02*
X032192Y015850D01*
X032192Y015692D02*
X034576Y015692D01*
X034642Y015533D02*
X032192Y015533D01*
X032192Y015375D02*
X034766Y015375D01*
X029522Y014649D02*
X029522Y012959D01*
X029018Y012205D02*
X030958Y012205D01*
X030800Y012046D02*
X028774Y012046D01*
X025307Y013314D02*
X024938Y013314D01*
X025096Y013473D02*
X025173Y013473D01*
X025452Y014424D02*
X025867Y014424D01*
X026026Y014582D02*
X025452Y014582D01*
X025452Y014741D02*
X026184Y014741D01*
X026343Y014899D02*
X025563Y014899D01*
X025721Y015058D02*
X027971Y015058D01*
X028282Y014749D02*
X029422Y014749D01*
X029522Y014649D01*
X008914Y016979D02*
X008914Y017677D01*
X008912Y017679D01*
X006471Y018386D02*
X003012Y018386D01*
X003012Y018545D02*
X006441Y018545D01*
X006441Y018703D02*
X003012Y018703D01*
X002682Y017118D02*
X002182Y017118D01*
X002217Y016960D02*
X002682Y016960D01*
X002682Y016801D02*
X002217Y016801D01*
X002217Y016643D02*
X002682Y016643D01*
X002682Y016484D02*
X002217Y016484D01*
X002217Y016326D02*
X002682Y016326D01*
X002682Y016167D02*
X002217Y016167D01*
X002138Y016009D02*
X002682Y016009D01*
X005972Y015819D02*
X005972Y015679D01*
D23*
X016742Y012879D03*
X017392Y014239D03*
M02*
