G75*
G70*
%OFA0B0*%
%FSLAX24Y24*%
%IPPOS*%
%LPD*%
%AMOC8*
5,1,8,0,0,1.08239X$1,22.5*
%
%ADD10C,0.0000*%
%ADD11C,0.0060*%
D10*
X010057Y010616D02*
X010061Y010616D01*
X000346Y016966D02*
X000346Y016967D01*
D11*
X003024Y003140D02*
X016974Y003140D01*
X017024Y003140D02*
X017024Y003640D01*
X016980Y003642D01*
X016937Y003648D01*
X016895Y003657D01*
X016853Y003670D01*
X016813Y003687D01*
X016774Y003707D01*
X016737Y003730D01*
X016703Y003757D01*
X016670Y003786D01*
X016641Y003819D01*
X016614Y003853D01*
X016591Y003890D01*
X016571Y003929D01*
X016554Y003969D01*
X016541Y004011D01*
X016532Y004053D01*
X016526Y004096D01*
X016524Y004140D01*
X016526Y004184D01*
X016532Y004227D01*
X016541Y004269D01*
X016554Y004311D01*
X016571Y004351D01*
X016591Y004390D01*
X016614Y004427D01*
X016641Y004461D01*
X016670Y004494D01*
X016703Y004523D01*
X016737Y004550D01*
X016774Y004573D01*
X016813Y004593D01*
X016853Y004610D01*
X016895Y004623D01*
X016937Y004632D01*
X016980Y004638D01*
X017024Y004640D01*
X017024Y005140D01*
X003024Y005140D01*
X003024Y003140D01*
M02*
