G75*
G70*
%OFA0B0*%
%FSLAX24Y24*%
%IPPOS*%
%LPD*%
%AMOC8*
5,1,8,0,0,1.08239X$1,22.5*
%
%ADD10OC8,0.0820*%
%ADD11C,0.0682*%
%ADD12C,0.1007*%
%ADD13C,0.1360*%
%ADD14C,0.0600*%
D10*
X015724Y019390D03*
X016724Y019390D03*
X017724Y019390D03*
X017724Y020390D03*
X016724Y020390D03*
X015724Y020390D03*
X018724Y020390D03*
X019724Y020390D03*
X020724Y020390D03*
X021724Y020390D03*
X021724Y019390D03*
X020724Y019390D03*
X019724Y019390D03*
X018724Y019390D03*
X027724Y016390D03*
X028724Y016390D03*
X028724Y015390D03*
X027724Y015390D03*
X027724Y014390D03*
X028724Y014390D03*
X028724Y013390D03*
X027724Y013390D03*
X027724Y012390D03*
X028724Y012390D03*
X028724Y011390D03*
X027724Y011390D03*
X027724Y010390D03*
X028724Y010390D03*
D11*
X010024Y010951D03*
X009056Y011797D03*
X010024Y011951D03*
X009056Y012597D03*
X009056Y013396D03*
X009056Y014195D03*
X009056Y014994D03*
X009056Y015794D03*
X010024Y015640D03*
X010024Y016640D03*
D12*
X003407Y016967D03*
X003407Y010616D03*
D13*
X004658Y011294D03*
X004658Y016294D03*
D14*
X003524Y002900D02*
X003524Y002380D01*
X004524Y002380D02*
X004524Y002900D01*
X005524Y002900D02*
X005524Y002380D01*
X006524Y002380D02*
X006524Y002900D01*
X007524Y002900D02*
X007524Y002380D01*
X008524Y002380D02*
X008524Y002900D01*
X009524Y002900D02*
X009524Y002380D01*
X010524Y002380D02*
X010524Y002900D01*
X011524Y002900D02*
X011524Y002380D01*
X012524Y002380D02*
X012524Y002900D01*
X013524Y002900D02*
X013524Y002380D01*
X014524Y002380D02*
X014524Y002900D01*
X015524Y002900D02*
X015524Y002380D01*
X016524Y002380D02*
X016524Y002900D01*
X016524Y005380D02*
X016524Y005900D01*
X015524Y005900D02*
X015524Y005380D01*
X014524Y005380D02*
X014524Y005900D01*
X013524Y005900D02*
X013524Y005380D01*
X012524Y005380D02*
X012524Y005900D01*
X011524Y005900D02*
X011524Y005380D01*
X010524Y005380D02*
X010524Y005900D01*
X009524Y005900D02*
X009524Y005380D01*
X008524Y005380D02*
X008524Y005900D01*
X007524Y005900D02*
X007524Y005380D01*
X006524Y005380D02*
X006524Y005900D01*
X005524Y005900D02*
X005524Y005380D01*
X004524Y005380D02*
X004524Y005900D01*
X003524Y005900D02*
X003524Y005380D01*
M02*
