G75*
G70*
%OFA0B0*%
%FSLAX24Y24*%
%IPPOS*%
%LPD*%
%AMOC8*
5,1,8,0,0,1.08239X$1,22.5*
%
%ADD10R,0.2165X0.0787*%
%ADD11OC8,0.0740*%
%ADD12C,0.0602*%
%ADD13C,0.0927*%
%ADD14R,0.0630X0.0709*%
%ADD15R,0.0315X0.0472*%
%ADD16R,0.0472X0.0315*%
%ADD17R,0.0709X0.0630*%
%ADD18C,0.0520*%
%ADD19C,0.0100*%
D10*
X010054Y008160D03*
X013794Y008160D03*
D11*
X027724Y010390D03*
X028724Y010390D03*
X028724Y011390D03*
X027724Y011390D03*
X027724Y012390D03*
X028724Y012390D03*
X028724Y013390D03*
X027724Y013390D03*
X027724Y014390D03*
X028724Y014390D03*
X028724Y015390D03*
X027724Y015390D03*
X027724Y016390D03*
X028724Y016390D03*
X021724Y019390D03*
X020724Y019390D03*
X019724Y019390D03*
X018724Y019390D03*
X017724Y019390D03*
X016724Y019390D03*
X015724Y019390D03*
X015724Y020390D03*
X016724Y020390D03*
X017724Y020390D03*
X018724Y020390D03*
X019724Y020390D03*
X020724Y020390D03*
X021724Y020390D03*
D12*
X010024Y016640D03*
X010024Y015640D03*
X009056Y015794D03*
X009056Y014994D03*
X009056Y014195D03*
X009056Y013396D03*
X009056Y012597D03*
X010024Y011951D03*
X009056Y011797D03*
X010024Y010951D03*
D13*
X003407Y010616D03*
X003407Y016967D03*
D14*
X009583Y009700D03*
X010686Y009700D03*
X013153Y009690D03*
X014256Y009690D03*
X016833Y010220D03*
X017936Y010220D03*
X017933Y002635D03*
X019036Y002635D03*
D15*
X019470Y011465D03*
X020179Y011465D03*
X017729Y011465D03*
X017020Y011465D03*
X017020Y013440D03*
X017729Y013440D03*
X019445Y013440D03*
X020154Y013440D03*
X011554Y015640D03*
X010845Y015640D03*
D16*
X011514Y011959D03*
X011514Y011251D03*
X003524Y001494D03*
X003524Y000786D03*
D17*
X003974Y008014D03*
X003974Y009116D03*
X009284Y018589D03*
X009284Y019691D03*
X011024Y019691D03*
X011024Y018589D03*
X012704Y018589D03*
X012704Y019691D03*
X017024Y016191D03*
X018024Y016191D03*
X018024Y015089D03*
X017024Y015089D03*
D18*
X016524Y005900D02*
X016524Y005380D01*
X015524Y005380D02*
X015524Y005900D01*
X014524Y005900D02*
X014524Y005380D01*
X013524Y005380D02*
X013524Y005900D01*
X012524Y005900D02*
X012524Y005380D01*
X011524Y005380D02*
X011524Y005900D01*
X010524Y005900D02*
X010524Y005380D01*
X009524Y005380D02*
X009524Y005900D01*
X008524Y005900D02*
X008524Y005380D01*
X007524Y005380D02*
X007524Y005900D01*
X006524Y005900D02*
X006524Y005380D01*
X005524Y005380D02*
X005524Y005900D01*
X004524Y005900D02*
X004524Y005380D01*
X003524Y005380D02*
X003524Y005900D01*
X003524Y002900D02*
X003524Y002380D01*
X004524Y002380D02*
X004524Y002900D01*
X005524Y002900D02*
X005524Y002380D01*
X006524Y002380D02*
X006524Y002900D01*
X007524Y002900D02*
X007524Y002380D01*
X008524Y002380D02*
X008524Y002900D01*
X009524Y002900D02*
X009524Y002380D01*
X010524Y002380D02*
X010524Y002900D01*
X011524Y002900D02*
X011524Y002380D01*
X012524Y002380D02*
X012524Y002900D01*
X013524Y002900D02*
X013524Y002380D01*
X014524Y002380D02*
X014524Y002900D01*
X015524Y002900D02*
X015524Y002380D01*
X016524Y002380D02*
X016524Y002900D01*
D19*
X002494Y000550D02*
X002494Y009568D01*
X002562Y009568D01*
X002563Y009568D01*
X002594Y009568D01*
X002673Y009614D01*
X002729Y009637D01*
X002729Y009637D01*
X002729Y009637D01*
X002729Y009637D01*
X002750Y009658D01*
X002804Y009689D01*
X002804Y009689D01*
X002804Y009689D01*
X002835Y009743D01*
X002856Y009764D01*
X002856Y009764D01*
X002856Y009764D01*
X002879Y009820D01*
X002925Y009899D01*
X002925Y010039D01*
X003199Y010039D01*
X003263Y010018D01*
X003357Y010003D01*
X003357Y010039D01*
X003457Y010039D01*
X003457Y010003D01*
X003550Y010018D01*
X003615Y010039D01*
X006640Y010039D01*
X005942Y009340D01*
X005824Y009223D01*
X005824Y007223D01*
X005442Y006840D01*
X005324Y006723D01*
X005324Y006261D01*
X005292Y006248D01*
X005177Y006132D01*
X005114Y005982D01*
X005114Y005298D01*
X005177Y005148D01*
X005292Y005032D01*
X005443Y004970D01*
X005606Y004970D01*
X005735Y005023D01*
X005682Y004970D01*
X004727Y004970D01*
X004724Y004973D01*
X004724Y005019D01*
X004757Y005032D01*
X004872Y005148D01*
X004934Y005298D01*
X004934Y005982D01*
X004872Y006132D01*
X004757Y006248D01*
X004606Y006310D01*
X004443Y006310D01*
X004292Y006248D01*
X004177Y006132D01*
X004114Y005982D01*
X004114Y005298D01*
X004177Y005148D01*
X004292Y005032D01*
X004324Y005019D01*
X004324Y004807D01*
X004444Y004687D01*
X004562Y004570D01*
X005847Y004570D01*
X006107Y004830D01*
X006224Y004947D01*
X006224Y005100D01*
X006257Y005067D01*
X006310Y005029D01*
X006367Y005000D01*
X006428Y004980D01*
X006492Y004970D01*
X006494Y004970D01*
X006494Y005610D01*
X006554Y005610D01*
X006554Y004970D01*
X006557Y004970D01*
X006620Y004980D01*
X006682Y005000D01*
X006739Y005029D01*
X006792Y005067D01*
X006834Y005110D01*
X006834Y004823D01*
X006352Y004340D01*
X004942Y004340D01*
X004824Y004223D01*
X004324Y003723D01*
X004324Y003261D01*
X004292Y003248D01*
X004177Y003132D01*
X004114Y002982D01*
X004114Y002298D01*
X004177Y002148D01*
X004292Y002032D01*
X004443Y001970D01*
X004606Y001970D01*
X004757Y002032D01*
X004872Y002148D01*
X004934Y002298D01*
X004934Y002982D01*
X004872Y003132D01*
X004757Y003248D01*
X004724Y003261D01*
X004724Y003557D01*
X005107Y003940D01*
X005852Y003940D01*
X005324Y003413D01*
X005324Y003261D01*
X005292Y003248D01*
X005177Y003132D01*
X005114Y002982D01*
X005114Y002298D01*
X005177Y002148D01*
X005292Y002032D01*
X005443Y001970D01*
X005606Y001970D01*
X005757Y002032D01*
X005872Y002148D01*
X005934Y002298D01*
X005934Y002982D01*
X005872Y003132D01*
X005757Y003248D01*
X005734Y003257D01*
X006107Y003630D01*
X006777Y003630D01*
X006894Y003747D01*
X007067Y003920D01*
X007087Y003920D01*
X008107Y004940D01*
X008224Y005057D01*
X008224Y005100D01*
X008292Y005032D01*
X008443Y004970D01*
X008606Y004970D01*
X008757Y005032D01*
X008872Y005148D01*
X008934Y005298D01*
X008934Y005982D01*
X008872Y006132D01*
X008757Y006248D01*
X008606Y006310D01*
X008443Y006310D01*
X008292Y006248D01*
X008224Y006180D01*
X008224Y008607D01*
X008894Y009277D01*
X008894Y010039D01*
X009118Y010039D01*
X009118Y009750D01*
X009533Y009750D01*
X009533Y009650D01*
X009118Y009650D01*
X009118Y009326D01*
X009128Y009288D01*
X009148Y009254D01*
X009176Y009226D01*
X009210Y009206D01*
X009249Y009196D01*
X009533Y009196D01*
X009533Y009650D01*
X009633Y009650D01*
X009633Y009196D01*
X009918Y009196D01*
X009956Y009206D01*
X009990Y009226D01*
X010018Y009254D01*
X010038Y009288D01*
X010048Y009326D01*
X010048Y009650D01*
X009633Y009650D01*
X009633Y009750D01*
X010048Y009750D01*
X010048Y010039D01*
X010221Y010039D01*
X010221Y009284D01*
X010308Y009196D01*
X010484Y009196D01*
X010484Y009133D01*
X010055Y008704D01*
X008910Y008704D01*
X008822Y008616D01*
X008822Y007704D01*
X008910Y007616D01*
X010455Y007616D01*
X011324Y006747D01*
X011324Y006261D01*
X011292Y006248D01*
X011177Y006132D01*
X011114Y005982D01*
X011114Y005298D01*
X011177Y005148D01*
X011292Y005032D01*
X011443Y004970D01*
X011606Y004970D01*
X011757Y005032D01*
X011872Y005148D01*
X011934Y005298D01*
X011934Y005982D01*
X011872Y006132D01*
X011757Y006248D01*
X011724Y006261D01*
X011724Y006913D01*
X011607Y007030D01*
X011021Y007616D01*
X011199Y007616D01*
X011287Y007704D01*
X011287Y008616D01*
X011199Y008704D01*
X010621Y008704D01*
X010767Y008850D01*
X010767Y008850D01*
X010884Y008967D01*
X010884Y009196D01*
X011063Y009196D01*
X011151Y009284D01*
X011151Y010116D01*
X011063Y010204D01*
X010759Y010204D01*
X010790Y010235D01*
X010859Y010401D01*
X010859Y010581D01*
X010858Y010582D01*
X010858Y011751D01*
X011128Y011751D01*
X011128Y011740D01*
X011216Y011652D01*
X011813Y011652D01*
X011901Y011740D01*
X011901Y012179D01*
X011813Y012267D01*
X011216Y012267D01*
X011128Y012179D01*
X011128Y012151D01*
X010858Y012151D01*
X010858Y012397D01*
X012465Y012397D01*
X013484Y011377D01*
X013602Y011260D01*
X016713Y011260D01*
X016713Y011167D01*
X016800Y011079D01*
X017240Y011079D01*
X017328Y011167D01*
X017328Y011763D01*
X017421Y011763D01*
X017421Y011167D01*
X017445Y011143D01*
X017282Y010980D01*
X016802Y010980D01*
X016752Y010930D01*
X016634Y010813D01*
X016634Y010724D01*
X016456Y010724D01*
X016368Y010636D01*
X016368Y009804D01*
X016456Y009716D01*
X017210Y009716D01*
X017298Y009804D01*
X017298Y010580D01*
X017447Y010580D01*
X017474Y010607D01*
X017471Y010594D01*
X017471Y010270D01*
X017886Y010270D01*
X017886Y010724D01*
X017601Y010724D01*
X017588Y010721D01*
X017929Y011061D01*
X017929Y011079D01*
X017948Y011079D01*
X018036Y011167D01*
X018036Y011265D01*
X019163Y011265D01*
X019163Y011167D01*
X019250Y011079D01*
X019690Y011079D01*
X019778Y011167D01*
X019778Y011763D01*
X019871Y011763D01*
X019871Y011167D01*
X019959Y011079D01*
X020398Y011079D01*
X020486Y011167D01*
X020486Y011265D01*
X020742Y011265D01*
X020917Y011440D01*
X020924Y011447D01*
X020924Y011003D01*
X020792Y010870D01*
X019122Y010870D01*
X018762Y010510D01*
X018644Y010393D01*
X018644Y009623D01*
X018492Y009470D01*
X016772Y009470D01*
X015442Y008140D01*
X015374Y008073D01*
X015374Y008783D01*
X015257Y008900D01*
X014997Y009160D01*
X013977Y009160D01*
X013952Y009186D01*
X014206Y009186D01*
X014206Y009640D01*
X014306Y009640D01*
X014306Y009740D01*
X014721Y009740D01*
X014721Y010064D01*
X014710Y010102D01*
X014691Y010136D01*
X014663Y010164D01*
X014628Y010184D01*
X014590Y010194D01*
X014306Y010194D01*
X014306Y009740D01*
X014206Y009740D01*
X014206Y010194D01*
X013934Y010194D01*
X013934Y010403D01*
X013817Y010520D01*
X012887Y011451D01*
X011901Y011451D01*
X011901Y011470D01*
X011813Y011558D01*
X011216Y011558D01*
X011128Y011470D01*
X011128Y011031D01*
X011216Y010943D01*
X011813Y010943D01*
X011901Y011031D01*
X011901Y011051D01*
X012721Y011051D01*
X013534Y010237D01*
X013534Y010190D01*
X013530Y010194D01*
X012776Y010194D01*
X012688Y010106D01*
X012688Y009274D01*
X012776Y009186D01*
X012953Y009186D01*
X012953Y008718D01*
X012968Y008704D01*
X012650Y008704D01*
X012562Y008616D01*
X012562Y007704D01*
X012650Y007616D01*
X013028Y007616D01*
X012442Y007030D01*
X012324Y006913D01*
X012324Y006261D01*
X012292Y006248D01*
X012177Y006132D01*
X012114Y005982D01*
X012114Y005298D01*
X012177Y005148D01*
X012292Y005032D01*
X012443Y004970D01*
X012606Y004970D01*
X012757Y005032D01*
X012872Y005148D01*
X012934Y005298D01*
X012934Y005982D01*
X012872Y006132D01*
X012757Y006248D01*
X012724Y006261D01*
X012724Y006747D01*
X013594Y007616D01*
X014939Y007616D01*
X014974Y007651D01*
X014974Y007483D01*
X014324Y006833D01*
X014324Y006261D01*
X014292Y006248D01*
X014177Y006132D01*
X014114Y005982D01*
X014114Y005298D01*
X014177Y005148D01*
X014265Y005060D01*
X013784Y005060D01*
X013872Y005148D01*
X013934Y005298D01*
X013934Y005982D01*
X013872Y006132D01*
X013757Y006248D01*
X013606Y006310D01*
X013443Y006310D01*
X013292Y006248D01*
X013177Y006132D01*
X013114Y005982D01*
X013114Y005298D01*
X013177Y005148D01*
X013292Y005032D01*
X013324Y005019D01*
X013324Y004917D01*
X013432Y004810D01*
X008842Y004810D01*
X007824Y003793D01*
X007824Y003180D01*
X007757Y003248D01*
X007606Y003310D01*
X007443Y003310D01*
X007292Y003248D01*
X007177Y003132D01*
X007114Y002982D01*
X007114Y002298D01*
X007177Y002148D01*
X007292Y002032D01*
X007443Y001970D01*
X007606Y001970D01*
X007757Y002032D01*
X007824Y002100D01*
X007824Y001807D01*
X007944Y001687D01*
X008062Y001570D01*
X009467Y001570D01*
X009607Y001710D01*
X009724Y001827D01*
X009724Y002019D01*
X009757Y002032D01*
X009872Y002148D01*
X009934Y002298D01*
X009934Y002982D01*
X009872Y003132D01*
X009757Y003248D01*
X009606Y003310D01*
X009443Y003310D01*
X009292Y003248D01*
X009177Y003132D01*
X009114Y002982D01*
X009114Y002298D01*
X009177Y002148D01*
X009292Y002032D01*
X009324Y002019D01*
X009324Y001993D01*
X009302Y001970D01*
X008227Y001970D01*
X008224Y001973D01*
X008224Y002100D01*
X008292Y002032D01*
X008443Y001970D01*
X008606Y001970D01*
X008757Y002032D01*
X008872Y002148D01*
X008934Y002298D01*
X008934Y002982D01*
X008872Y003132D01*
X008757Y003248D01*
X008724Y003261D01*
X008724Y003537D01*
X009387Y004200D01*
X010762Y004200D01*
X010324Y003763D01*
X010324Y003261D01*
X010292Y003248D01*
X010177Y003132D01*
X010114Y002982D01*
X010114Y002298D01*
X010177Y002148D01*
X010292Y002032D01*
X010443Y001970D01*
X010606Y001970D01*
X010757Y002032D01*
X010872Y002148D01*
X010934Y002298D01*
X010934Y002982D01*
X010872Y003132D01*
X010757Y003248D01*
X010724Y003261D01*
X010724Y003597D01*
X011097Y003970D01*
X014102Y003970D01*
X014074Y003943D01*
X013441Y003309D01*
X013292Y003248D01*
X013177Y003132D01*
X013114Y002982D01*
X013114Y002298D01*
X013177Y002148D01*
X013292Y002032D01*
X013443Y001970D01*
X013606Y001970D01*
X013757Y002032D01*
X013872Y002148D01*
X013934Y002298D01*
X013934Y002982D01*
X013872Y003132D01*
X013851Y003153D01*
X014357Y003660D01*
X015182Y003660D01*
X015144Y003623D01*
X014834Y003313D01*
X014834Y003170D01*
X014757Y003248D01*
X014606Y003310D01*
X014443Y003310D01*
X014292Y003248D01*
X014177Y003132D01*
X014114Y002982D01*
X014114Y002298D01*
X014177Y002148D01*
X014292Y002032D01*
X014443Y001970D01*
X014606Y001970D01*
X014757Y002032D01*
X014834Y002110D01*
X014834Y002110D01*
X014834Y001993D01*
X014652Y001810D01*
X011777Y001810D01*
X011724Y001863D01*
X011724Y002019D01*
X011757Y002032D01*
X011872Y002148D01*
X011934Y002298D01*
X011934Y002982D01*
X011872Y003132D01*
X011757Y003248D01*
X011606Y003310D01*
X011443Y003310D01*
X011292Y003248D01*
X011177Y003132D01*
X011114Y002982D01*
X011114Y002298D01*
X011177Y002148D01*
X011292Y002032D01*
X011324Y002019D01*
X011324Y001697D01*
X011612Y001410D01*
X014817Y001410D01*
X015117Y001710D01*
X015117Y001710D01*
X015234Y001827D01*
X015234Y002090D01*
X015257Y002067D01*
X015310Y002029D01*
X015367Y002000D01*
X015428Y001980D01*
X015492Y001970D01*
X015494Y001970D01*
X015494Y002610D01*
X015554Y002610D01*
X015554Y001970D01*
X015557Y001970D01*
X015620Y001980D01*
X015682Y002000D01*
X015739Y002029D01*
X015792Y002067D01*
X015837Y002113D01*
X015875Y002165D01*
X015904Y002223D01*
X015924Y002284D01*
X015934Y002348D01*
X015934Y002610D01*
X015554Y002610D01*
X015554Y002670D01*
X015494Y002670D01*
X015494Y003310D01*
X015492Y003310D01*
X015428Y003300D01*
X015367Y003280D01*
X015427Y003340D01*
X016902Y003340D01*
X016783Y003221D01*
X016757Y003248D01*
X016606Y003310D01*
X016443Y003310D01*
X016292Y003248D01*
X016177Y003132D01*
X016114Y002982D01*
X016114Y002298D01*
X016177Y002148D01*
X016292Y002032D01*
X016443Y001970D01*
X016606Y001970D01*
X016757Y002032D01*
X016872Y002148D01*
X016934Y002298D01*
X016934Y002807D01*
X017227Y003100D01*
X017517Y003100D01*
X017498Y003081D01*
X017478Y003047D01*
X017468Y003009D01*
X017468Y002685D01*
X017883Y002685D01*
X017883Y002585D01*
X017468Y002585D01*
X017468Y002261D01*
X017478Y002223D01*
X017498Y002189D01*
X017526Y002161D01*
X017560Y002141D01*
X017599Y002131D01*
X017883Y002131D01*
X017883Y002585D01*
X017983Y002585D01*
X017983Y002131D01*
X018268Y002131D01*
X018306Y002141D01*
X018340Y002161D01*
X018368Y002189D01*
X018388Y002223D01*
X018398Y002261D01*
X018398Y002585D01*
X017983Y002585D01*
X017983Y002685D01*
X018398Y002685D01*
X018398Y003009D01*
X018388Y003047D01*
X018368Y003081D01*
X018350Y003100D01*
X018619Y003100D01*
X018571Y003051D01*
X018571Y002219D01*
X018658Y002131D01*
X019413Y002131D01*
X019501Y002219D01*
X019501Y003051D01*
X019413Y003139D01*
X019234Y003139D01*
X019234Y003343D01*
X019117Y003460D01*
X019077Y003500D01*
X018297Y003500D01*
X019107Y004310D01*
X019107Y004310D01*
X019224Y004427D01*
X019224Y006007D01*
X023374Y010157D01*
X023374Y011497D01*
X024637Y012760D01*
X027242Y012760D01*
X027300Y012701D01*
X027204Y012605D01*
X027204Y012175D01*
X027489Y011890D01*
X027204Y011605D01*
X027204Y011175D01*
X027489Y010890D01*
X027204Y010605D01*
X027204Y010440D01*
X027674Y010440D01*
X027674Y010340D01*
X027204Y010340D01*
X027204Y010175D01*
X027509Y009870D01*
X027674Y009870D01*
X027674Y010340D01*
X027774Y010340D01*
X027774Y009870D01*
X027940Y009870D01*
X028224Y010155D01*
X028509Y009870D01*
X028674Y009870D01*
X028674Y010340D01*
X028204Y010340D01*
X027774Y010340D01*
X027774Y010440D01*
X028674Y010440D01*
X028674Y010340D01*
X028774Y010340D01*
X028774Y009870D01*
X028940Y009870D01*
X029244Y010175D01*
X029244Y010340D01*
X028774Y010340D01*
X028774Y010440D01*
X029244Y010440D01*
X029244Y010605D01*
X028960Y010890D01*
X029244Y011175D01*
X029244Y011605D01*
X028960Y011890D01*
X029244Y012175D01*
X029244Y012605D01*
X029160Y012690D01*
X029307Y012690D01*
X029424Y012807D01*
X029447Y012830D01*
X029564Y012947D01*
X029564Y017313D01*
X029344Y017533D01*
X029227Y017650D01*
X024057Y017650D01*
X023104Y018603D01*
X023104Y020693D01*
X022674Y021123D01*
X022557Y021240D01*
X020292Y021240D01*
X019951Y020899D01*
X019940Y020910D01*
X019509Y020910D01*
X019224Y020625D01*
X018940Y020910D01*
X018509Y020910D01*
X018224Y020625D01*
X017940Y020910D01*
X017509Y020910D01*
X017224Y020625D01*
X016940Y020910D01*
X016509Y020910D01*
X016224Y020625D01*
X015940Y020910D01*
X015774Y020910D01*
X015774Y020440D01*
X015674Y020440D01*
X015674Y020340D01*
X015204Y020340D01*
X015204Y020175D01*
X015289Y020090D01*
X014922Y020090D01*
X014804Y019973D01*
X014544Y019713D01*
X014544Y019473D01*
X013860Y018789D01*
X013209Y018789D01*
X013209Y018966D01*
X013121Y019054D01*
X012288Y019054D01*
X012200Y018966D01*
X012200Y018789D01*
X011529Y018789D01*
X011529Y018966D01*
X011441Y019054D01*
X010608Y019054D01*
X010520Y018966D01*
X010520Y018789D01*
X009789Y018789D01*
X009789Y018966D01*
X009701Y019054D01*
X008868Y019054D01*
X008780Y018966D01*
X008780Y018212D01*
X008868Y018124D01*
X009701Y018124D01*
X009789Y018212D01*
X009789Y018389D01*
X010520Y018389D01*
X010520Y018212D01*
X010608Y018124D01*
X011441Y018124D01*
X011529Y018212D01*
X011529Y018389D01*
X012200Y018389D01*
X012200Y018212D01*
X012288Y018124D01*
X013121Y018124D01*
X013164Y018167D01*
X015339Y015991D01*
X016520Y015991D01*
X016520Y015840D01*
X011861Y015840D01*
X011861Y015938D01*
X011773Y016026D01*
X011334Y016026D01*
X011246Y015938D01*
X011246Y015342D01*
X011334Y015254D01*
X011773Y015254D01*
X011861Y015342D01*
X011861Y015440D01*
X016520Y015440D01*
X016520Y015240D01*
X010858Y015240D01*
X010858Y015254D01*
X011065Y015254D01*
X011153Y015342D01*
X011153Y015938D01*
X011065Y016026D01*
X010858Y016026D01*
X010858Y017191D01*
X010789Y017357D01*
X010662Y017484D01*
X010496Y017553D01*
X003590Y017553D01*
X003551Y017565D01*
X003457Y017580D01*
X003457Y017553D01*
X003357Y017553D01*
X003357Y017580D01*
X003263Y017565D01*
X003224Y017553D01*
X002925Y017553D01*
X002925Y017661D01*
X002856Y017827D01*
X002729Y017954D01*
X002563Y018023D01*
X002494Y018023D01*
X002494Y021446D01*
X030084Y021436D01*
X030084Y000550D01*
X003889Y000550D01*
X003900Y000570D01*
X003911Y000608D01*
X003911Y000757D01*
X003553Y000757D01*
X003553Y000814D01*
X003911Y000814D01*
X003911Y000963D01*
X003900Y001001D01*
X003881Y001035D01*
X003853Y001063D01*
X003819Y001083D01*
X003780Y001093D01*
X003553Y001093D01*
X003553Y000814D01*
X003496Y000814D01*
X003496Y000757D01*
X003138Y000757D01*
X003138Y000608D01*
X003148Y000570D01*
X003160Y000550D01*
X002494Y000550D01*
X002494Y000633D02*
X003138Y000633D01*
X003138Y000731D02*
X002494Y000731D01*
X002494Y000830D02*
X003138Y000830D01*
X003138Y000814D02*
X003496Y000814D01*
X003496Y001093D01*
X003268Y001093D01*
X003230Y001083D01*
X003196Y001063D01*
X003168Y001035D01*
X003148Y001001D01*
X003138Y000963D01*
X003138Y000814D01*
X003138Y000928D02*
X002494Y000928D01*
X002494Y001027D02*
X003163Y001027D01*
X003226Y001187D02*
X003823Y001187D01*
X003911Y001275D01*
X003911Y001714D01*
X003823Y001802D01*
X003724Y001802D01*
X003724Y002019D01*
X003757Y002032D01*
X003872Y002148D01*
X003934Y002298D01*
X003934Y002982D01*
X003872Y003132D01*
X003757Y003248D01*
X003606Y003310D01*
X003443Y003310D01*
X003292Y003248D01*
X003177Y003132D01*
X003114Y002982D01*
X003114Y002298D01*
X003177Y002148D01*
X003292Y002032D01*
X003324Y002019D01*
X003324Y001802D01*
X003226Y001802D01*
X003138Y001714D01*
X003138Y001275D01*
X003226Y001187D01*
X003189Y001224D02*
X002494Y001224D01*
X002494Y001322D02*
X003138Y001322D01*
X003138Y001421D02*
X002494Y001421D01*
X002494Y001519D02*
X003138Y001519D01*
X003138Y001618D02*
X002494Y001618D01*
X002494Y001716D02*
X003140Y001716D01*
X003324Y001815D02*
X002494Y001815D01*
X002494Y001913D02*
X003324Y001913D01*
X003324Y002012D02*
X002494Y002012D01*
X002494Y002110D02*
X003215Y002110D01*
X003152Y002209D02*
X002494Y002209D01*
X002494Y002307D02*
X003114Y002307D01*
X003114Y002406D02*
X002494Y002406D01*
X002494Y002504D02*
X003114Y002504D01*
X003114Y002603D02*
X002494Y002603D01*
X002494Y002701D02*
X003114Y002701D01*
X003114Y002800D02*
X002494Y002800D01*
X002494Y002898D02*
X003114Y002898D01*
X003121Y002997D02*
X002494Y002997D01*
X002494Y003095D02*
X003161Y003095D01*
X003238Y003194D02*
X002494Y003194D01*
X002494Y003292D02*
X003399Y003292D01*
X003649Y003292D02*
X004324Y003292D01*
X004324Y003391D02*
X002494Y003391D01*
X002494Y003489D02*
X004324Y003489D01*
X004324Y003588D02*
X002494Y003588D01*
X002494Y003686D02*
X004324Y003686D01*
X004386Y003785D02*
X002494Y003785D01*
X002494Y003883D02*
X004485Y003883D01*
X004583Y003982D02*
X002494Y003982D01*
X002494Y004080D02*
X004682Y004080D01*
X004780Y004179D02*
X002494Y004179D01*
X002494Y004277D02*
X004879Y004277D01*
X005024Y004140D02*
X006434Y004140D01*
X007034Y004740D01*
X007034Y008790D01*
X008034Y009790D01*
X008034Y012910D01*
X008520Y013396D01*
X009056Y013396D01*
X009062Y013390D01*
X012474Y013390D01*
X013724Y012140D01*
X020664Y012140D01*
X020834Y011970D01*
X020834Y011640D01*
X020659Y011465D01*
X020179Y011465D01*
X019871Y011468D02*
X019778Y011468D01*
X019778Y011566D02*
X019871Y011566D01*
X019871Y011665D02*
X019778Y011665D01*
X019778Y011763D02*
X019690Y011851D01*
X019250Y011851D01*
X019163Y011763D01*
X018036Y011763D01*
X017948Y011851D01*
X017509Y011851D01*
X017421Y011763D01*
X017328Y011763D02*
X017240Y011851D01*
X016800Y011851D01*
X016713Y011763D01*
X013664Y011763D01*
X013566Y011862D02*
X020634Y011862D01*
X020634Y011887D02*
X020634Y011723D01*
X020577Y011665D01*
X020486Y011665D01*
X020486Y011763D01*
X020634Y011763D01*
X020634Y011887D02*
X020582Y011940D01*
X013642Y011940D01*
X012392Y013190D01*
X010858Y013190D01*
X010858Y012797D01*
X012631Y012797D01*
X013767Y011660D01*
X016713Y011660D01*
X016713Y011763D01*
X016713Y011665D02*
X013763Y011665D01*
X013684Y011460D02*
X017015Y011460D01*
X017020Y011465D01*
X017328Y011468D02*
X017421Y011468D01*
X017421Y011566D02*
X017328Y011566D01*
X017328Y011665D02*
X017421Y011665D01*
X017729Y011465D02*
X017729Y011144D01*
X017364Y010780D01*
X016884Y010780D01*
X016834Y010730D01*
X016834Y010221D01*
X016833Y010220D01*
X016368Y010187D02*
X014618Y010187D01*
X014714Y010089D02*
X016368Y010089D01*
X016368Y009990D02*
X014721Y009990D01*
X014721Y009892D02*
X016368Y009892D01*
X016379Y009793D02*
X014721Y009793D01*
X014721Y009640D02*
X014306Y009640D01*
X014306Y009186D01*
X014590Y009186D01*
X014628Y009196D01*
X014663Y009216D01*
X014691Y009244D01*
X014710Y009278D01*
X014721Y009316D01*
X014721Y009640D01*
X014721Y009596D02*
X018618Y009596D01*
X018644Y009695D02*
X014306Y009695D01*
X014306Y009793D02*
X014206Y009793D01*
X014206Y009892D02*
X014306Y009892D01*
X014306Y009990D02*
X014206Y009990D01*
X014206Y010089D02*
X014306Y010089D01*
X014306Y010187D02*
X014206Y010187D01*
X013934Y010286D02*
X016368Y010286D01*
X016368Y010384D02*
X013934Y010384D01*
X013855Y010483D02*
X016368Y010483D01*
X016368Y010581D02*
X013756Y010581D01*
X013658Y010680D02*
X016411Y010680D01*
X016634Y010778D02*
X013559Y010778D01*
X013461Y010877D02*
X016698Y010877D01*
X016797Y010975D02*
X013362Y010975D01*
X013264Y011074D02*
X017375Y011074D01*
X017328Y011172D02*
X017421Y011172D01*
X017421Y011271D02*
X017328Y011271D01*
X017328Y011369D02*
X017421Y011369D01*
X017729Y011465D02*
X019470Y011465D01*
X019778Y011369D02*
X019871Y011369D01*
X019871Y011271D02*
X019778Y011271D01*
X019778Y011172D02*
X019871Y011172D01*
X020486Y011172D02*
X020924Y011172D01*
X020924Y011074D02*
X017929Y011074D01*
X017842Y010975D02*
X020897Y010975D01*
X020798Y010877D02*
X017744Y010877D01*
X017645Y010778D02*
X019030Y010778D01*
X018931Y010680D02*
X018357Y010680D01*
X018371Y010666D02*
X018343Y010694D01*
X018308Y010714D01*
X018270Y010724D01*
X017986Y010724D01*
X017986Y010270D01*
X018401Y010270D01*
X018401Y010594D01*
X018390Y010632D01*
X018371Y010666D01*
X018401Y010581D02*
X018833Y010581D01*
X018734Y010483D02*
X018401Y010483D01*
X018401Y010384D02*
X018644Y010384D01*
X018644Y010286D02*
X018401Y010286D01*
X018401Y010170D02*
X017986Y010170D01*
X017986Y010270D01*
X017886Y010270D01*
X017886Y010170D01*
X017986Y010170D01*
X017986Y009716D01*
X018270Y009716D01*
X018308Y009726D01*
X018343Y009746D01*
X018371Y009774D01*
X018390Y009808D01*
X018401Y009846D01*
X018401Y010170D01*
X018401Y010089D02*
X018644Y010089D01*
X018644Y010187D02*
X017986Y010187D01*
X017986Y010089D02*
X017886Y010089D01*
X017886Y010170D02*
X017886Y009716D01*
X017601Y009716D01*
X017563Y009726D01*
X017529Y009746D01*
X017501Y009774D01*
X017481Y009808D01*
X017471Y009846D01*
X017471Y010170D01*
X017886Y010170D01*
X017886Y010187D02*
X017298Y010187D01*
X017298Y010089D02*
X017471Y010089D01*
X017471Y009990D02*
X017298Y009990D01*
X017298Y009892D02*
X017471Y009892D01*
X017489Y009793D02*
X017288Y009793D01*
X017298Y010286D02*
X017471Y010286D01*
X017471Y010384D02*
X017298Y010384D01*
X017298Y010483D02*
X017471Y010483D01*
X017471Y010581D02*
X017448Y010581D01*
X017886Y010581D02*
X017986Y010581D01*
X017986Y010483D02*
X017886Y010483D01*
X017886Y010384D02*
X017986Y010384D01*
X017986Y010286D02*
X017886Y010286D01*
X017886Y009990D02*
X017986Y009990D01*
X017986Y009892D02*
X017886Y009892D01*
X017886Y009793D02*
X017986Y009793D01*
X018382Y009793D02*
X018644Y009793D01*
X018644Y009892D02*
X018401Y009892D01*
X018401Y009990D02*
X018644Y009990D01*
X018844Y010310D02*
X018844Y009540D01*
X018574Y009270D01*
X016854Y009270D01*
X015524Y007940D01*
X015524Y005640D01*
X014524Y005640D02*
X014524Y006750D01*
X015174Y007400D01*
X015174Y008700D01*
X014914Y008960D01*
X013894Y008960D01*
X013734Y009120D01*
X013734Y010320D01*
X012804Y011251D01*
X011514Y011251D01*
X011128Y011271D02*
X010858Y011271D01*
X010858Y011369D02*
X011128Y011369D01*
X011128Y011468D02*
X010858Y011468D01*
X010858Y011566D02*
X013296Y011566D01*
X013394Y011468D02*
X011901Y011468D01*
X011825Y011665D02*
X013197Y011665D01*
X013099Y011763D02*
X011901Y011763D01*
X011901Y011862D02*
X013000Y011862D01*
X012902Y011960D02*
X011901Y011960D01*
X011901Y012059D02*
X012803Y012059D01*
X012705Y012157D02*
X011901Y012157D01*
X011824Y012256D02*
X012606Y012256D01*
X012508Y012354D02*
X010858Y012354D01*
X010858Y012256D02*
X011205Y012256D01*
X011128Y012157D02*
X010858Y012157D01*
X010858Y011665D02*
X011203Y011665D01*
X011506Y011951D02*
X011514Y011959D01*
X011506Y011951D02*
X010024Y011951D01*
X009573Y011960D02*
X009477Y011960D01*
X009507Y011887D02*
X009438Y012053D01*
X009311Y012180D01*
X009270Y012197D01*
X009311Y012214D01*
X009438Y012341D01*
X009461Y012397D01*
X009921Y012397D01*
X009769Y012334D01*
X009642Y012207D01*
X009573Y012041D01*
X009573Y011861D01*
X009642Y011695D01*
X009769Y011569D01*
X009935Y011500D01*
X009954Y011500D01*
X009954Y011397D01*
X009919Y011391D01*
X009851Y011369D01*
X009201Y011369D01*
X009146Y011346D02*
X009311Y011415D01*
X009438Y011542D01*
X009507Y011708D01*
X009507Y011887D01*
X009507Y011862D02*
X009573Y011862D01*
X009614Y011763D02*
X009507Y011763D01*
X009489Y011665D02*
X009673Y011665D01*
X009775Y011566D02*
X009448Y011566D01*
X009364Y011468D02*
X009954Y011468D01*
X009851Y011369D02*
X009788Y011337D01*
X009730Y011295D01*
X009680Y011245D01*
X009639Y011187D01*
X009606Y011124D01*
X009584Y011057D01*
X009576Y011001D01*
X009954Y011001D01*
X009954Y010943D01*
X008814Y010943D01*
X008654Y011103D01*
X008654Y011588D01*
X008673Y011542D01*
X008800Y011415D01*
X008966Y011346D01*
X009146Y011346D01*
X008911Y011369D02*
X008654Y011369D01*
X008654Y011271D02*
X009706Y011271D01*
X009631Y011172D02*
X008654Y011172D01*
X008684Y011074D02*
X009590Y011074D01*
X009954Y010975D02*
X008782Y010975D01*
X008694Y010780D02*
X008454Y011020D01*
X008454Y011995D01*
X009056Y012597D01*
X012548Y012597D01*
X013684Y011460D01*
X013591Y011271D02*
X013067Y011271D01*
X012968Y011369D02*
X013493Y011369D01*
X013165Y011172D02*
X016713Y011172D01*
X017886Y010680D02*
X017986Y010680D01*
X018036Y011172D02*
X019163Y011172D01*
X019204Y010670D02*
X018844Y010310D01*
X019204Y010670D02*
X020874Y010670D01*
X021124Y010920D01*
X021124Y015040D01*
X020524Y015640D01*
X011554Y015640D01*
X011246Y015605D02*
X011153Y015605D01*
X011153Y015703D02*
X011246Y015703D01*
X011246Y015802D02*
X011153Y015802D01*
X011153Y015900D02*
X011246Y015900D01*
X011306Y015999D02*
X011092Y015999D01*
X010858Y016097D02*
X015233Y016097D01*
X015135Y016196D02*
X010858Y016196D01*
X010858Y016294D02*
X015036Y016294D01*
X014938Y016393D02*
X010858Y016393D01*
X010858Y016491D02*
X014839Y016491D01*
X014741Y016590D02*
X010858Y016590D01*
X010858Y016688D02*
X014642Y016688D01*
X014544Y016787D02*
X010858Y016787D01*
X010858Y016885D02*
X014445Y016885D01*
X014347Y016984D02*
X010858Y016984D01*
X010858Y017082D02*
X014248Y017082D01*
X014150Y017181D02*
X010858Y017181D01*
X010822Y017279D02*
X014051Y017279D01*
X013953Y017378D02*
X010769Y017378D01*
X010670Y017476D02*
X013854Y017476D01*
X013756Y017575D02*
X003492Y017575D01*
X003457Y017575D02*
X003357Y017575D01*
X003322Y017575D02*
X002925Y017575D01*
X002920Y017673D02*
X013657Y017673D01*
X013559Y017772D02*
X002879Y017772D01*
X002813Y017870D02*
X013460Y017870D01*
X013362Y017969D02*
X002694Y017969D01*
X002494Y018067D02*
X013263Y018067D01*
X013165Y018166D02*
X013163Y018166D01*
X013507Y018389D02*
X014026Y018389D01*
X014827Y019190D01*
X014944Y019307D01*
X014944Y019547D01*
X015087Y019690D01*
X015289Y019690D01*
X015204Y019605D01*
X015204Y019440D01*
X015674Y019440D01*
X015674Y019340D01*
X015204Y019340D01*
X015204Y019175D01*
X015509Y018870D01*
X015674Y018870D01*
X015674Y019340D01*
X015774Y019340D01*
X015774Y018870D01*
X015940Y018870D01*
X016224Y019155D01*
X016509Y018870D01*
X016940Y018870D01*
X017224Y019155D01*
X017509Y018870D01*
X017940Y018870D01*
X017951Y018881D01*
X018024Y018807D01*
X018024Y017067D01*
X018184Y016907D01*
X018184Y016897D01*
X018302Y016780D01*
X018312Y016780D01*
X018458Y016634D01*
X018437Y016646D01*
X018398Y016656D01*
X018074Y016656D01*
X018074Y016241D01*
X017974Y016241D01*
X017974Y016656D01*
X017650Y016656D01*
X017612Y016646D01*
X017578Y016626D01*
X017550Y016598D01*
X017530Y016564D01*
X017529Y016558D01*
X017529Y016568D01*
X017441Y016656D01*
X016608Y016656D01*
X016520Y016568D01*
X016520Y016391D01*
X015505Y016391D01*
X013507Y018389D01*
X013534Y018363D02*
X018024Y018363D01*
X018024Y018461D02*
X014098Y018461D01*
X014197Y018560D02*
X018024Y018560D01*
X018024Y018658D02*
X014295Y018658D01*
X014394Y018757D02*
X018024Y018757D01*
X017977Y018855D02*
X014492Y018855D01*
X014591Y018954D02*
X015425Y018954D01*
X015327Y019052D02*
X014689Y019052D01*
X014788Y019151D02*
X015228Y019151D01*
X015204Y019249D02*
X014886Y019249D01*
X014944Y019348D02*
X015674Y019348D01*
X015674Y019249D02*
X015774Y019249D01*
X015774Y019151D02*
X015674Y019151D01*
X015674Y019052D02*
X015774Y019052D01*
X015774Y018954D02*
X015674Y018954D01*
X016023Y018954D02*
X016425Y018954D01*
X016327Y019052D02*
X016122Y019052D01*
X016220Y019151D02*
X016228Y019151D01*
X017023Y018954D02*
X017425Y018954D01*
X017327Y019052D02*
X017122Y019052D01*
X017220Y019151D02*
X017228Y019151D01*
X017724Y019390D02*
X017224Y019890D01*
X015004Y019890D01*
X014744Y019630D01*
X014744Y019390D01*
X013943Y018589D01*
X013024Y018589D01*
X015422Y016191D01*
X017024Y016191D01*
X016520Y016393D02*
X015504Y016393D01*
X015405Y016491D02*
X016520Y016491D01*
X016541Y016590D02*
X015307Y016590D01*
X015208Y016688D02*
X018404Y016688D01*
X018506Y016585D02*
X019252Y015840D01*
X018524Y015840D01*
X018529Y015856D01*
X018529Y016141D01*
X018074Y016141D01*
X018074Y016241D01*
X018529Y016241D01*
X018529Y016526D01*
X018519Y016564D01*
X018506Y016585D01*
X018529Y016491D02*
X018601Y016491D01*
X018529Y016393D02*
X018699Y016393D01*
X018798Y016294D02*
X018529Y016294D01*
X018529Y016097D02*
X018995Y016097D01*
X019093Y015999D02*
X018529Y015999D01*
X018529Y015900D02*
X019192Y015900D01*
X019414Y015960D02*
X018394Y016980D01*
X018224Y017150D01*
X018224Y018890D01*
X017724Y019390D01*
X018724Y019390D02*
X019224Y019890D01*
X021104Y019890D01*
X021224Y019770D01*
X021224Y019080D01*
X021214Y019070D01*
X021214Y017060D01*
X022384Y015890D01*
X028184Y015890D01*
X028224Y015850D01*
X028224Y015040D01*
X028074Y014890D01*
X027304Y014890D01*
X027224Y014970D01*
X023644Y014970D01*
X022514Y013840D01*
X022514Y010490D01*
X018274Y006250D01*
X018274Y004810D01*
X017634Y004170D01*
X011014Y004170D01*
X010524Y003680D01*
X010524Y002640D01*
X010114Y002603D02*
X009934Y002603D01*
X009934Y002701D02*
X010114Y002701D01*
X010114Y002800D02*
X009934Y002800D01*
X009934Y002898D02*
X010114Y002898D01*
X010121Y002997D02*
X009928Y002997D01*
X009887Y003095D02*
X010161Y003095D01*
X010238Y003194D02*
X009811Y003194D01*
X009649Y003292D02*
X010324Y003292D01*
X010324Y003391D02*
X008724Y003391D01*
X008724Y003489D02*
X010324Y003489D01*
X010324Y003588D02*
X008775Y003588D01*
X008873Y003686D02*
X010324Y003686D01*
X010346Y003785D02*
X008972Y003785D01*
X009070Y003883D02*
X010445Y003883D01*
X010543Y003982D02*
X009169Y003982D01*
X009267Y004080D02*
X010642Y004080D01*
X010740Y004179D02*
X009366Y004179D01*
X009304Y004400D02*
X017394Y004400D01*
X017984Y004990D01*
X017984Y006370D01*
X022214Y010600D01*
X022214Y014070D01*
X023534Y015390D01*
X027724Y015390D01*
X028224Y014710D02*
X028224Y014000D01*
X028114Y013890D01*
X024234Y013890D01*
X022874Y012530D01*
X022874Y010370D01*
X018654Y006150D01*
X018654Y004680D01*
X017834Y003860D01*
X014274Y003860D01*
X013524Y003110D01*
X013524Y002640D01*
X013934Y002603D02*
X014114Y002603D01*
X014114Y002701D02*
X013934Y002701D01*
X013934Y002800D02*
X014114Y002800D01*
X014114Y002898D02*
X013934Y002898D01*
X013928Y002997D02*
X014121Y002997D01*
X014161Y003095D02*
X013887Y003095D01*
X013891Y003194D02*
X014238Y003194D01*
X014399Y003292D02*
X013989Y003292D01*
X014088Y003391D02*
X014912Y003391D01*
X014834Y003292D02*
X014649Y003292D01*
X014811Y003194D02*
X014834Y003194D01*
X015034Y003230D02*
X015344Y003540D01*
X018054Y003540D01*
X019024Y004510D01*
X019024Y006090D01*
X023174Y010240D01*
X023174Y011580D01*
X024554Y012960D01*
X027324Y012960D01*
X027394Y012890D01*
X029224Y012890D01*
X029364Y013030D01*
X029364Y017230D01*
X029144Y017450D01*
X023974Y017450D01*
X022904Y018520D01*
X022904Y020610D01*
X022474Y021040D01*
X020374Y021040D01*
X019724Y020390D01*
X019326Y020727D02*
X019123Y020727D01*
X019025Y020825D02*
X019424Y020825D01*
X019227Y020628D02*
X019222Y020628D01*
X018424Y020825D02*
X018025Y020825D01*
X018123Y020727D02*
X018326Y020727D01*
X018227Y020628D02*
X018222Y020628D01*
X017424Y020825D02*
X017025Y020825D01*
X017123Y020727D02*
X017326Y020727D01*
X017227Y020628D02*
X017222Y020628D01*
X016424Y020825D02*
X016025Y020825D01*
X016123Y020727D02*
X016326Y020727D01*
X016227Y020628D02*
X016222Y020628D01*
X015774Y020628D02*
X015674Y020628D01*
X015674Y020530D02*
X015774Y020530D01*
X015674Y020440D02*
X015674Y020910D01*
X015509Y020910D01*
X015204Y020605D01*
X015204Y020440D01*
X015674Y020440D01*
X015674Y020431D02*
X002494Y020431D01*
X002494Y020333D02*
X015204Y020333D01*
X015204Y020234D02*
X002494Y020234D01*
X002494Y020136D02*
X008854Y020136D01*
X008838Y020126D02*
X008810Y020098D01*
X008790Y020064D01*
X008780Y020026D01*
X008780Y019741D01*
X009234Y019741D01*
X009234Y019641D01*
X008780Y019641D01*
X008780Y019356D01*
X008790Y019318D01*
X008810Y019284D01*
X008838Y019256D01*
X008872Y019236D01*
X008910Y019226D01*
X009234Y019226D01*
X009234Y019641D01*
X009334Y019641D01*
X009334Y019226D01*
X009658Y019226D01*
X009697Y019236D01*
X009731Y019256D01*
X009759Y019284D01*
X009779Y019318D01*
X009789Y019356D01*
X009789Y019641D01*
X009334Y019641D01*
X009334Y019741D01*
X009234Y019741D01*
X009234Y020156D01*
X008910Y020156D01*
X008872Y020146D01*
X008838Y020126D01*
X008783Y020037D02*
X002494Y020037D01*
X002494Y019939D02*
X008780Y019939D01*
X008780Y019840D02*
X002494Y019840D01*
X002494Y019742D02*
X008780Y019742D01*
X008780Y019545D02*
X002494Y019545D01*
X002494Y019643D02*
X009234Y019643D01*
X009234Y019545D02*
X009334Y019545D01*
X009334Y019643D02*
X010974Y019643D01*
X010974Y019641D02*
X010520Y019641D01*
X010520Y019356D01*
X010530Y019318D01*
X010550Y019284D01*
X010578Y019256D01*
X010612Y019236D01*
X010650Y019226D01*
X010974Y019226D01*
X010974Y019641D01*
X010974Y019741D01*
X010520Y019741D01*
X010520Y020026D01*
X010530Y020064D01*
X010550Y020098D01*
X010578Y020126D01*
X010612Y020146D01*
X010650Y020156D01*
X010974Y020156D01*
X010974Y019741D01*
X011074Y019741D01*
X011074Y020156D01*
X011398Y020156D01*
X011437Y020146D01*
X011471Y020126D01*
X011499Y020098D01*
X011519Y020064D01*
X011529Y020026D01*
X011529Y019741D01*
X011074Y019741D01*
X011074Y019641D01*
X011074Y019226D01*
X011398Y019226D01*
X011437Y019236D01*
X011471Y019256D01*
X011499Y019284D01*
X011519Y019318D01*
X011529Y019356D01*
X011529Y019641D01*
X011074Y019641D01*
X010974Y019641D01*
X010974Y019545D02*
X011074Y019545D01*
X011074Y019643D02*
X012654Y019643D01*
X012654Y019641D02*
X012200Y019641D01*
X012200Y019356D01*
X012210Y019318D01*
X012230Y019284D01*
X012258Y019256D01*
X012292Y019236D01*
X012330Y019226D01*
X012654Y019226D01*
X012654Y019641D01*
X012654Y019741D01*
X012200Y019741D01*
X012200Y020026D01*
X012210Y020064D01*
X012230Y020098D01*
X012258Y020126D01*
X012292Y020146D01*
X012330Y020156D01*
X012654Y020156D01*
X012654Y019741D01*
X012754Y019741D01*
X012754Y020156D01*
X013078Y020156D01*
X013117Y020146D01*
X013151Y020126D01*
X013179Y020098D01*
X013199Y020064D01*
X013209Y020026D01*
X013209Y019741D01*
X012754Y019741D01*
X012754Y019641D01*
X012754Y019226D01*
X013078Y019226D01*
X013117Y019236D01*
X013151Y019256D01*
X013179Y019284D01*
X013199Y019318D01*
X013209Y019356D01*
X013209Y019641D01*
X012754Y019641D01*
X012654Y019641D01*
X012654Y019545D02*
X012754Y019545D01*
X012754Y019643D02*
X014544Y019643D01*
X014544Y019545D02*
X013209Y019545D01*
X013209Y019446D02*
X014518Y019446D01*
X014419Y019348D02*
X013206Y019348D01*
X013138Y019249D02*
X014321Y019249D01*
X014222Y019151D02*
X002494Y019151D01*
X002494Y019249D02*
X008850Y019249D01*
X008782Y019348D02*
X002494Y019348D01*
X002494Y019446D02*
X008780Y019446D01*
X008866Y019052D02*
X002494Y019052D01*
X002494Y018954D02*
X008780Y018954D01*
X008780Y018855D02*
X002494Y018855D01*
X002494Y018757D02*
X008780Y018757D01*
X008780Y018658D02*
X002494Y018658D01*
X002494Y018560D02*
X008780Y018560D01*
X008780Y018461D02*
X002494Y018461D01*
X002494Y018363D02*
X008780Y018363D01*
X008780Y018264D02*
X002494Y018264D01*
X002494Y018166D02*
X008826Y018166D01*
X009284Y018589D02*
X012704Y018589D01*
X013024Y018589D01*
X013209Y018855D02*
X013927Y018855D01*
X014025Y018954D02*
X013209Y018954D01*
X013123Y019052D02*
X014124Y019052D01*
X014944Y019446D02*
X015204Y019446D01*
X015204Y019545D02*
X014944Y019545D01*
X015040Y019643D02*
X015242Y019643D01*
X014770Y019939D02*
X013209Y019939D01*
X013206Y020037D02*
X014869Y020037D01*
X014672Y019840D02*
X013209Y019840D01*
X013209Y019742D02*
X014573Y019742D01*
X015243Y020136D02*
X013135Y020136D01*
X012754Y020136D02*
X012654Y020136D01*
X012654Y020037D02*
X012754Y020037D01*
X012754Y019939D02*
X012654Y019939D01*
X012654Y019840D02*
X012754Y019840D01*
X012754Y019742D02*
X012654Y019742D01*
X012654Y019446D02*
X012754Y019446D01*
X012754Y019348D02*
X012654Y019348D01*
X012654Y019249D02*
X012754Y019249D01*
X012270Y019249D02*
X011458Y019249D01*
X011526Y019348D02*
X012202Y019348D01*
X012200Y019446D02*
X011529Y019446D01*
X011529Y019545D02*
X012200Y019545D01*
X012200Y019742D02*
X011529Y019742D01*
X011529Y019840D02*
X012200Y019840D01*
X012200Y019939D02*
X011529Y019939D01*
X011526Y020037D02*
X012203Y020037D01*
X012274Y020136D02*
X011455Y020136D01*
X011074Y020136D02*
X010974Y020136D01*
X010974Y020037D02*
X011074Y020037D01*
X011074Y019939D02*
X010974Y019939D01*
X010974Y019840D02*
X011074Y019840D01*
X011074Y019742D02*
X010974Y019742D01*
X010974Y019446D02*
X011074Y019446D01*
X011074Y019348D02*
X010974Y019348D01*
X010974Y019249D02*
X011074Y019249D01*
X011443Y019052D02*
X012286Y019052D01*
X012200Y018954D02*
X011529Y018954D01*
X011529Y018855D02*
X012200Y018855D01*
X012200Y018363D02*
X011529Y018363D01*
X011529Y018264D02*
X012200Y018264D01*
X012246Y018166D02*
X011483Y018166D01*
X010566Y018166D02*
X009743Y018166D01*
X009789Y018264D02*
X010520Y018264D01*
X010520Y018363D02*
X009789Y018363D01*
X009789Y018855D02*
X010520Y018855D01*
X010520Y018954D02*
X009789Y018954D01*
X009703Y019052D02*
X010606Y019052D01*
X010590Y019249D02*
X009718Y019249D01*
X009786Y019348D02*
X010522Y019348D01*
X010520Y019446D02*
X009789Y019446D01*
X009789Y019545D02*
X010520Y019545D01*
X010520Y019742D02*
X009789Y019742D01*
X009789Y019741D02*
X009789Y020026D01*
X009779Y020064D01*
X009759Y020098D01*
X009731Y020126D01*
X009697Y020146D01*
X009658Y020156D01*
X009334Y020156D01*
X009334Y019741D01*
X009789Y019741D01*
X009789Y019840D02*
X010520Y019840D01*
X010520Y019939D02*
X009789Y019939D01*
X009786Y020037D02*
X010523Y020037D01*
X010594Y020136D02*
X009715Y020136D01*
X009334Y020136D02*
X009234Y020136D01*
X009234Y020037D02*
X009334Y020037D01*
X009334Y019939D02*
X009234Y019939D01*
X009234Y019840D02*
X009334Y019840D01*
X009334Y019742D02*
X009234Y019742D01*
X009234Y019446D02*
X009334Y019446D01*
X009334Y019348D02*
X009234Y019348D01*
X009234Y019249D02*
X009334Y019249D01*
X009576Y016590D02*
X009584Y016534D01*
X009606Y016467D01*
X009639Y016404D01*
X009680Y016346D01*
X009730Y016296D01*
X009788Y016254D01*
X009851Y016222D01*
X009919Y016200D01*
X009954Y016194D01*
X009954Y016091D01*
X009935Y016091D01*
X009769Y016022D01*
X009642Y015896D01*
X009573Y015730D01*
X009573Y015550D01*
X009585Y015523D01*
X009477Y015631D01*
X009507Y015704D01*
X009507Y015883D01*
X009438Y016049D01*
X009311Y016176D01*
X009146Y016245D01*
X008966Y016245D01*
X008800Y016176D01*
X008673Y016049D01*
X008605Y015883D01*
X008605Y015704D01*
X008673Y015538D01*
X008800Y015411D01*
X008842Y015394D01*
X008800Y015377D01*
X008673Y015250D01*
X008605Y015084D01*
X008605Y015003D01*
X006942Y013340D01*
X006824Y013223D01*
X006824Y010943D01*
X005692Y010943D01*
X005748Y011150D01*
X005748Y011437D01*
X005674Y011714D01*
X005530Y011963D01*
X005327Y012166D01*
X005079Y012309D01*
X004802Y012383D01*
X004515Y012383D01*
X004238Y012309D01*
X003989Y012166D01*
X003786Y011963D01*
X003643Y011714D01*
X003569Y011437D01*
X003569Y011209D01*
X003550Y011215D01*
X003457Y011230D01*
X003457Y010943D01*
X003357Y010943D01*
X003357Y011230D01*
X003263Y011215D01*
X003171Y011185D01*
X003085Y011141D01*
X003007Y011084D01*
X002939Y011016D01*
X002885Y010943D01*
X002494Y010943D01*
X002494Y016649D01*
X002881Y016649D01*
X002882Y016645D01*
X002939Y016567D01*
X003007Y016499D01*
X003085Y016442D01*
X003172Y016398D01*
X003263Y016368D01*
X003357Y016353D01*
X003357Y016649D01*
X003457Y016649D01*
X003457Y016353D01*
X003551Y016368D01*
X003569Y016374D01*
X003569Y016150D01*
X003643Y015873D01*
X003786Y015624D01*
X003989Y015422D01*
X004238Y015278D01*
X004515Y015204D01*
X004802Y015204D01*
X005079Y015278D01*
X005327Y015422D01*
X005530Y015624D01*
X005674Y015873D01*
X005748Y016150D01*
X005748Y016437D01*
X005691Y016649D01*
X009954Y016649D01*
X009954Y016590D01*
X009576Y016590D01*
X005707Y016590D01*
X005734Y016491D02*
X009598Y016491D01*
X009647Y016393D02*
X005748Y016393D01*
X005748Y016294D02*
X009733Y016294D01*
X009946Y016196D02*
X009264Y016196D01*
X009390Y016097D02*
X009954Y016097D01*
X009745Y015999D02*
X009459Y015999D01*
X009500Y015900D02*
X009646Y015900D01*
X009603Y015802D02*
X009507Y015802D01*
X009507Y015703D02*
X009573Y015703D01*
X009573Y015605D02*
X009503Y015605D01*
X010024Y015640D02*
X010845Y015640D01*
X011153Y015506D02*
X011246Y015506D01*
X011246Y015408D02*
X011153Y015408D01*
X011120Y015309D02*
X011279Y015309D01*
X011829Y015309D02*
X016520Y015309D01*
X016520Y015408D02*
X011861Y015408D01*
X011861Y015900D02*
X016520Y015900D01*
X015332Y015999D02*
X011801Y015999D01*
X013024Y014640D02*
X009410Y014640D01*
X009056Y014994D01*
X008879Y014994D01*
X007024Y013140D01*
X007024Y010140D01*
X006024Y009140D01*
X006024Y007140D01*
X005524Y006640D01*
X005524Y005640D01*
X005114Y005656D02*
X004934Y005656D01*
X004934Y005558D02*
X005114Y005558D01*
X005114Y005459D02*
X004934Y005459D01*
X004934Y005361D02*
X005114Y005361D01*
X005129Y005262D02*
X004919Y005262D01*
X004879Y005164D02*
X005170Y005164D01*
X005260Y005065D02*
X004789Y005065D01*
X004524Y004890D02*
X004644Y004770D01*
X005764Y004770D01*
X006024Y005030D01*
X006024Y006640D01*
X006524Y007140D01*
X006524Y009140D01*
X007524Y010140D01*
X007524Y013140D01*
X008580Y014195D01*
X009056Y014195D01*
X009061Y014190D01*
X012964Y014190D01*
X014114Y013040D01*
X016534Y013040D01*
X016824Y012750D01*
X020544Y012750D01*
X020764Y012970D01*
X020764Y013140D01*
X020464Y013440D01*
X020154Y013440D01*
X019445Y013440D02*
X017729Y013440D01*
X018024Y013736D01*
X018024Y015089D01*
X017024Y015089D01*
X016976Y015040D01*
X009784Y015040D01*
X009056Y015769D01*
X009056Y015794D01*
X008605Y015802D02*
X005633Y015802D01*
X005681Y015900D02*
X008612Y015900D01*
X008652Y015999D02*
X005707Y015999D01*
X005734Y016097D02*
X008721Y016097D01*
X008847Y016196D02*
X005748Y016196D01*
X005576Y015703D02*
X008605Y015703D01*
X008646Y015605D02*
X005510Y015605D01*
X005412Y015506D02*
X008705Y015506D01*
X008809Y015408D02*
X005303Y015408D01*
X005133Y015309D02*
X008733Y015309D01*
X008657Y015211D02*
X004827Y015211D01*
X004490Y015211D02*
X002494Y015211D01*
X002494Y015309D02*
X004184Y015309D01*
X004013Y015408D02*
X002494Y015408D01*
X002494Y015506D02*
X003905Y015506D01*
X003806Y015605D02*
X002494Y015605D01*
X002494Y015703D02*
X003741Y015703D01*
X003684Y015802D02*
X002494Y015802D01*
X002494Y015900D02*
X003635Y015900D01*
X003609Y015999D02*
X002494Y015999D01*
X002494Y016097D02*
X003583Y016097D01*
X003569Y016196D02*
X002494Y016196D01*
X002494Y016294D02*
X003569Y016294D01*
X003457Y016393D02*
X003357Y016393D01*
X003357Y016491D02*
X003457Y016491D01*
X003457Y016590D02*
X003357Y016590D01*
X003189Y016393D02*
X002494Y016393D01*
X002494Y016491D02*
X003018Y016491D01*
X002923Y016590D02*
X002494Y016590D01*
X002494Y015112D02*
X008616Y015112D01*
X008605Y015014D02*
X002494Y015014D01*
X002494Y014915D02*
X008517Y014915D01*
X008418Y014817D02*
X002494Y014817D01*
X002494Y014718D02*
X008320Y014718D01*
X008221Y014620D02*
X002494Y014620D01*
X002494Y014521D02*
X008123Y014521D01*
X008024Y014423D02*
X002494Y014423D01*
X002494Y014324D02*
X007926Y014324D01*
X007827Y014226D02*
X002494Y014226D01*
X002494Y014127D02*
X007729Y014127D01*
X007630Y014029D02*
X002494Y014029D01*
X002494Y013930D02*
X007532Y013930D01*
X007433Y013832D02*
X002494Y013832D01*
X002494Y013733D02*
X007335Y013733D01*
X007236Y013635D02*
X002494Y013635D01*
X002494Y013536D02*
X007138Y013536D01*
X007039Y013438D02*
X002494Y013438D01*
X002494Y013339D02*
X006941Y013339D01*
X006842Y013241D02*
X002494Y013241D01*
X002494Y013142D02*
X006824Y013142D01*
X006824Y013044D02*
X002494Y013044D01*
X002494Y012945D02*
X006824Y012945D01*
X006824Y012847D02*
X002494Y012847D01*
X002494Y012748D02*
X006824Y012748D01*
X006824Y012650D02*
X002494Y012650D01*
X002494Y012551D02*
X006824Y012551D01*
X006824Y012453D02*
X002494Y012453D01*
X002494Y012354D02*
X004406Y012354D01*
X004145Y012256D02*
X002494Y012256D01*
X002494Y012157D02*
X003981Y012157D01*
X003882Y012059D02*
X002494Y012059D01*
X002494Y011960D02*
X003785Y011960D01*
X003728Y011862D02*
X002494Y011862D01*
X002494Y011763D02*
X003671Y011763D01*
X003629Y011665D02*
X002494Y011665D01*
X002494Y011566D02*
X003603Y011566D01*
X003577Y011468D02*
X002494Y011468D01*
X002494Y011369D02*
X003569Y011369D01*
X003569Y011271D02*
X002494Y011271D01*
X002494Y011172D02*
X003146Y011172D01*
X002996Y011074D02*
X002494Y011074D01*
X002494Y010975D02*
X002909Y010975D01*
X003357Y010975D02*
X003457Y010975D01*
X003457Y011074D02*
X003357Y011074D01*
X003357Y011172D02*
X003457Y011172D01*
X003407Y010616D02*
X003407Y009684D01*
X003974Y009116D01*
X003924Y009104D02*
X002494Y009104D01*
X002494Y009202D02*
X003470Y009202D01*
X003470Y009166D02*
X003470Y009451D01*
X003480Y009489D01*
X003500Y009523D01*
X003528Y009551D01*
X003562Y009571D01*
X003600Y009581D01*
X003924Y009581D01*
X003924Y009166D01*
X003924Y009066D01*
X003470Y009066D01*
X003470Y008781D01*
X003480Y008743D01*
X003500Y008709D01*
X003528Y008681D01*
X003562Y008661D01*
X003600Y008651D01*
X003924Y008651D01*
X003924Y009066D01*
X004024Y009066D01*
X004024Y008651D01*
X004348Y008651D01*
X004387Y008661D01*
X004421Y008681D01*
X004449Y008709D01*
X004469Y008743D01*
X004479Y008781D01*
X004479Y009066D01*
X004024Y009066D01*
X004024Y009166D01*
X003924Y009166D01*
X003470Y009166D01*
X003470Y009301D02*
X002494Y009301D01*
X002494Y009399D02*
X003470Y009399D01*
X003485Y009498D02*
X002494Y009498D01*
X002643Y009596D02*
X006198Y009596D01*
X006296Y009695D02*
X002807Y009695D01*
X002729Y009637D02*
X002729Y009637D01*
X002868Y009793D02*
X006395Y009793D01*
X006493Y009892D02*
X002921Y009892D01*
X002925Y009990D02*
X006592Y009990D01*
X006099Y009498D02*
X004464Y009498D01*
X004469Y009489D02*
X004449Y009523D01*
X004421Y009551D01*
X004387Y009571D01*
X004348Y009581D01*
X004024Y009581D01*
X004024Y009166D01*
X004479Y009166D01*
X004479Y009451D01*
X004469Y009489D01*
X004479Y009399D02*
X006001Y009399D01*
X005902Y009301D02*
X004479Y009301D01*
X004479Y009202D02*
X005824Y009202D01*
X005824Y009104D02*
X004024Y009104D01*
X004024Y009202D02*
X003924Y009202D01*
X003924Y009301D02*
X004024Y009301D01*
X004024Y009399D02*
X003924Y009399D01*
X003924Y009498D02*
X004024Y009498D01*
X004024Y009005D02*
X003924Y009005D01*
X003924Y008907D02*
X004024Y008907D01*
X004024Y008808D02*
X003924Y008808D01*
X003924Y008710D02*
X004024Y008710D01*
X004449Y008710D02*
X005824Y008710D01*
X005824Y008808D02*
X004479Y008808D01*
X004479Y008907D02*
X005824Y008907D01*
X005824Y009005D02*
X004479Y009005D01*
X004391Y008479D02*
X003558Y008479D01*
X003470Y008391D01*
X003470Y007792D01*
X003324Y007647D01*
X003324Y006261D01*
X003292Y006248D01*
X003177Y006132D01*
X003114Y005982D01*
X003114Y005298D01*
X003177Y005148D01*
X003292Y005032D01*
X003443Y004970D01*
X003606Y004970D01*
X003757Y005032D01*
X003872Y005148D01*
X003934Y005298D01*
X003934Y005982D01*
X003872Y006132D01*
X003757Y006248D01*
X003724Y006261D01*
X003724Y007481D01*
X003792Y007549D01*
X004391Y007549D01*
X004479Y007637D01*
X004479Y008391D01*
X004391Y008479D01*
X004456Y008414D02*
X005824Y008414D01*
X005824Y008316D02*
X004479Y008316D01*
X004479Y008217D02*
X005824Y008217D01*
X005824Y008119D02*
X004479Y008119D01*
X004479Y008020D02*
X005824Y008020D01*
X005824Y007922D02*
X004479Y007922D01*
X004479Y007823D02*
X005824Y007823D01*
X005824Y007725D02*
X004479Y007725D01*
X004468Y007626D02*
X005824Y007626D01*
X005824Y007528D02*
X003771Y007528D01*
X003724Y007429D02*
X005824Y007429D01*
X005824Y007331D02*
X003724Y007331D01*
X003724Y007232D02*
X005824Y007232D01*
X005735Y007134D02*
X003724Y007134D01*
X003724Y007035D02*
X005637Y007035D01*
X005538Y006937D02*
X003724Y006937D01*
X003724Y006838D02*
X005440Y006838D01*
X005341Y006740D02*
X003724Y006740D01*
X003724Y006641D02*
X005324Y006641D01*
X005324Y006543D02*
X003724Y006543D01*
X003724Y006444D02*
X005324Y006444D01*
X005324Y006346D02*
X003724Y006346D01*
X003757Y006247D02*
X004292Y006247D01*
X004193Y006149D02*
X003856Y006149D01*
X003906Y006050D02*
X004143Y006050D01*
X004114Y005952D02*
X003934Y005952D01*
X003934Y005853D02*
X004114Y005853D01*
X004114Y005755D02*
X003934Y005755D01*
X003934Y005656D02*
X004114Y005656D01*
X004114Y005558D02*
X003934Y005558D01*
X003934Y005459D02*
X004114Y005459D01*
X004114Y005361D02*
X003934Y005361D01*
X003919Y005262D02*
X004129Y005262D01*
X004170Y005164D02*
X003879Y005164D01*
X003789Y005065D02*
X004260Y005065D01*
X004324Y004967D02*
X002494Y004967D01*
X002494Y005065D02*
X003260Y005065D01*
X003170Y005164D02*
X002494Y005164D01*
X002494Y005262D02*
X003129Y005262D01*
X003114Y005361D02*
X002494Y005361D01*
X002494Y005459D02*
X003114Y005459D01*
X003114Y005558D02*
X002494Y005558D01*
X002494Y005656D02*
X003114Y005656D01*
X003114Y005755D02*
X002494Y005755D01*
X002494Y005853D02*
X003114Y005853D01*
X003114Y005952D02*
X002494Y005952D01*
X002494Y006050D02*
X003143Y006050D01*
X003193Y006149D02*
X002494Y006149D01*
X002494Y006247D02*
X003292Y006247D01*
X003324Y006346D02*
X002494Y006346D01*
X002494Y006444D02*
X003324Y006444D01*
X003324Y006543D02*
X002494Y006543D01*
X002494Y006641D02*
X003324Y006641D01*
X003324Y006740D02*
X002494Y006740D01*
X002494Y006838D02*
X003324Y006838D01*
X003324Y006937D02*
X002494Y006937D01*
X002494Y007035D02*
X003324Y007035D01*
X003324Y007134D02*
X002494Y007134D01*
X002494Y007232D02*
X003324Y007232D01*
X003324Y007331D02*
X002494Y007331D01*
X002494Y007429D02*
X003324Y007429D01*
X003324Y007528D02*
X002494Y007528D01*
X002494Y007626D02*
X003324Y007626D01*
X003402Y007725D02*
X002494Y007725D01*
X002494Y007823D02*
X003470Y007823D01*
X003470Y007922D02*
X002494Y007922D01*
X002494Y008020D02*
X003470Y008020D01*
X003470Y008119D02*
X002494Y008119D01*
X002494Y008217D02*
X003470Y008217D01*
X003470Y008316D02*
X002494Y008316D01*
X002494Y008414D02*
X003493Y008414D01*
X003500Y008710D02*
X002494Y008710D01*
X002494Y008808D02*
X003470Y008808D01*
X003470Y008907D02*
X002494Y008907D01*
X002494Y009005D02*
X003470Y009005D01*
X002494Y008611D02*
X005824Y008611D01*
X005824Y008513D02*
X002494Y008513D01*
X003524Y007564D02*
X003974Y008014D01*
X003524Y007564D02*
X003524Y005640D01*
X004524Y005640D02*
X004524Y004890D01*
X004324Y004868D02*
X002494Y004868D01*
X002494Y004770D02*
X004362Y004770D01*
X004461Y004671D02*
X002494Y004671D01*
X002494Y004573D02*
X004559Y004573D01*
X005024Y004140D02*
X004524Y003640D01*
X004524Y002640D01*
X004114Y002603D02*
X003934Y002603D01*
X003934Y002701D02*
X004114Y002701D01*
X004114Y002800D02*
X003934Y002800D01*
X003934Y002898D02*
X004114Y002898D01*
X004121Y002997D02*
X003928Y002997D01*
X003887Y003095D02*
X004161Y003095D01*
X004238Y003194D02*
X003811Y003194D01*
X003524Y002640D02*
X003524Y001494D01*
X003911Y001519D02*
X011503Y001519D01*
X011601Y001421D02*
X003911Y001421D01*
X003911Y001322D02*
X030084Y001322D01*
X030084Y001224D02*
X003859Y001224D01*
X003886Y001027D02*
X030084Y001027D01*
X030084Y001125D02*
X002494Y001125D01*
X003496Y001027D02*
X003553Y001027D01*
X003553Y000928D02*
X003496Y000928D01*
X003496Y000830D02*
X003553Y000830D01*
X003911Y000830D02*
X030084Y000830D01*
X030084Y000928D02*
X003911Y000928D01*
X003911Y000731D02*
X030084Y000731D01*
X030084Y000633D02*
X003911Y000633D01*
X003911Y001618D02*
X008014Y001618D01*
X007916Y001716D02*
X003909Y001716D01*
X003724Y001815D02*
X007824Y001815D01*
X007824Y001913D02*
X003724Y001913D01*
X003724Y002012D02*
X004343Y002012D01*
X004215Y002110D02*
X003834Y002110D01*
X003897Y002209D02*
X004152Y002209D01*
X004114Y002307D02*
X003934Y002307D01*
X003934Y002406D02*
X004114Y002406D01*
X004114Y002504D02*
X003934Y002504D01*
X004706Y002012D02*
X005343Y002012D01*
X005215Y002110D02*
X004834Y002110D01*
X004897Y002209D02*
X005152Y002209D01*
X005114Y002307D02*
X004934Y002307D01*
X004934Y002406D02*
X005114Y002406D01*
X005114Y002504D02*
X004934Y002504D01*
X004934Y002603D02*
X005114Y002603D01*
X005114Y002701D02*
X004934Y002701D01*
X004934Y002800D02*
X005114Y002800D01*
X005114Y002898D02*
X004934Y002898D01*
X004928Y002997D02*
X005121Y002997D01*
X005161Y003095D02*
X004887Y003095D01*
X004811Y003194D02*
X005238Y003194D01*
X005324Y003292D02*
X004724Y003292D01*
X004724Y003391D02*
X005324Y003391D01*
X005401Y003489D02*
X004724Y003489D01*
X004755Y003588D02*
X005499Y003588D01*
X005598Y003686D02*
X004853Y003686D01*
X004952Y003785D02*
X005696Y003785D01*
X005795Y003883D02*
X005050Y003883D01*
X005524Y003330D02*
X006024Y003830D01*
X006694Y003830D01*
X006984Y004120D01*
X007004Y004120D01*
X008024Y005140D01*
X008024Y008690D01*
X008694Y009360D01*
X008694Y010780D01*
X008654Y011468D02*
X008748Y011468D01*
X008663Y011566D02*
X008654Y011566D01*
X009433Y012059D02*
X009581Y012059D01*
X009621Y012157D02*
X009334Y012157D01*
X009353Y012256D02*
X009691Y012256D01*
X009818Y012354D02*
X009444Y012354D01*
X010858Y012847D02*
X012735Y012847D01*
X012679Y012748D02*
X012834Y012748D01*
X012778Y012650D02*
X012932Y012650D01*
X012876Y012551D02*
X013031Y012551D01*
X012975Y012453D02*
X013129Y012453D01*
X013073Y012354D02*
X013228Y012354D01*
X013172Y012256D02*
X013326Y012256D01*
X013270Y012157D02*
X013425Y012157D01*
X013369Y012059D02*
X013523Y012059D01*
X013467Y011960D02*
X013622Y011960D01*
X012637Y012945D02*
X010858Y012945D01*
X010858Y013044D02*
X012538Y013044D01*
X012440Y013142D02*
X010858Y013142D01*
X013024Y014640D02*
X014224Y013440D01*
X017020Y013440D01*
X018036Y011763D02*
X018036Y011665D01*
X019163Y011665D01*
X019163Y011763D01*
X019871Y011763D02*
X019959Y011851D01*
X020398Y011851D01*
X020486Y011763D01*
X020846Y011369D02*
X020924Y011369D01*
X020924Y011271D02*
X020748Y011271D01*
X021424Y010780D02*
X017354Y006710D01*
X017354Y005110D01*
X017104Y004860D01*
X013664Y004860D01*
X013524Y005000D01*
X013524Y005640D01*
X013934Y005656D02*
X014114Y005656D01*
X014114Y005558D02*
X013934Y005558D01*
X013934Y005459D02*
X014114Y005459D01*
X014114Y005361D02*
X013934Y005361D01*
X013919Y005262D02*
X014129Y005262D01*
X014170Y005164D02*
X013879Y005164D01*
X013789Y005065D02*
X014260Y005065D01*
X014114Y005755D02*
X013934Y005755D01*
X013934Y005853D02*
X014114Y005853D01*
X014114Y005952D02*
X013934Y005952D01*
X013906Y006050D02*
X014143Y006050D01*
X014193Y006149D02*
X013856Y006149D01*
X013757Y006247D02*
X014292Y006247D01*
X014324Y006346D02*
X012724Y006346D01*
X012724Y006444D02*
X014324Y006444D01*
X014324Y006543D02*
X012724Y006543D01*
X012724Y006641D02*
X014324Y006641D01*
X014324Y006740D02*
X012724Y006740D01*
X012815Y006838D02*
X014330Y006838D01*
X014428Y006937D02*
X012914Y006937D01*
X013012Y007035D02*
X014527Y007035D01*
X014625Y007134D02*
X013111Y007134D01*
X013209Y007232D02*
X014724Y007232D01*
X014822Y007331D02*
X013308Y007331D01*
X013406Y007429D02*
X014921Y007429D01*
X014974Y007528D02*
X013505Y007528D01*
X012939Y007528D02*
X011110Y007528D01*
X011209Y007626D02*
X012640Y007626D01*
X012562Y007725D02*
X011287Y007725D01*
X011287Y007823D02*
X012562Y007823D01*
X012562Y007922D02*
X011287Y007922D01*
X011287Y008020D02*
X012562Y008020D01*
X012562Y008119D02*
X011287Y008119D01*
X011287Y008217D02*
X012562Y008217D01*
X012562Y008316D02*
X011287Y008316D01*
X011287Y008414D02*
X012562Y008414D01*
X012562Y008513D02*
X011287Y008513D01*
X011287Y008611D02*
X012562Y008611D01*
X012962Y008710D02*
X010627Y008710D01*
X010725Y008808D02*
X012953Y008808D01*
X012953Y008907D02*
X010824Y008907D01*
X010884Y009005D02*
X012953Y009005D01*
X012953Y009104D02*
X010884Y009104D01*
X010684Y009050D02*
X010684Y009699D01*
X010686Y009700D01*
X010221Y009695D02*
X009633Y009695D01*
X009583Y009700D02*
X010024Y010141D01*
X010024Y010951D01*
X010858Y010975D02*
X011184Y010975D01*
X011128Y011074D02*
X010858Y011074D01*
X010858Y011172D02*
X011128Y011172D01*
X010858Y010877D02*
X012895Y010877D01*
X012797Y010975D02*
X011845Y010975D01*
X010858Y010778D02*
X012994Y010778D01*
X013092Y010680D02*
X010858Y010680D01*
X010859Y010581D02*
X013191Y010581D01*
X013289Y010483D02*
X010859Y010483D01*
X010852Y010384D02*
X013388Y010384D01*
X013486Y010286D02*
X010811Y010286D01*
X011080Y010187D02*
X012769Y010187D01*
X012688Y010089D02*
X011151Y010089D01*
X011151Y009990D02*
X012688Y009990D01*
X012688Y009892D02*
X011151Y009892D01*
X011151Y009793D02*
X012688Y009793D01*
X012688Y009695D02*
X011151Y009695D01*
X011151Y009596D02*
X012688Y009596D01*
X012688Y009498D02*
X011151Y009498D01*
X011151Y009399D02*
X012688Y009399D01*
X012688Y009301D02*
X011151Y009301D01*
X011069Y009202D02*
X012760Y009202D01*
X013153Y008801D02*
X013794Y008160D01*
X013794Y008100D01*
X012524Y006830D01*
X012524Y005640D01*
X012114Y005656D02*
X011934Y005656D01*
X011934Y005558D02*
X012114Y005558D01*
X012114Y005459D02*
X011934Y005459D01*
X011934Y005361D02*
X012114Y005361D01*
X012129Y005262D02*
X011919Y005262D01*
X011879Y005164D02*
X012170Y005164D01*
X012260Y005065D02*
X011789Y005065D01*
X011260Y005065D02*
X010788Y005065D01*
X010792Y005067D02*
X010837Y005113D01*
X010875Y005165D01*
X010904Y005223D01*
X010924Y005284D01*
X010934Y005348D01*
X010934Y005610D01*
X010554Y005610D01*
X010554Y004970D01*
X010557Y004970D01*
X010620Y004980D01*
X010682Y005000D01*
X010739Y005029D01*
X010792Y005067D01*
X010874Y005164D02*
X011170Y005164D01*
X011129Y005262D02*
X010917Y005262D01*
X010934Y005361D02*
X011114Y005361D01*
X011114Y005459D02*
X010934Y005459D01*
X010934Y005558D02*
X011114Y005558D01*
X011114Y005656D02*
X010554Y005656D01*
X010554Y005670D02*
X010934Y005670D01*
X010934Y005932D01*
X010924Y005996D01*
X010904Y006057D01*
X010875Y006115D01*
X010837Y006167D01*
X010792Y006213D01*
X010739Y006251D01*
X010682Y006280D01*
X010620Y006300D01*
X010557Y006310D01*
X010554Y006310D01*
X010554Y005670D01*
X010494Y005670D01*
X010494Y005610D01*
X010114Y005610D01*
X010114Y005348D01*
X010125Y005284D01*
X010144Y005223D01*
X010174Y005165D01*
X010212Y005113D01*
X010257Y005067D01*
X010310Y005029D01*
X010367Y005000D01*
X010428Y004980D01*
X010492Y004970D01*
X010494Y004970D01*
X010494Y005610D01*
X010554Y005610D01*
X010554Y005670D01*
X010494Y005670D02*
X010494Y006310D01*
X010492Y006310D01*
X010428Y006300D01*
X010367Y006280D01*
X010310Y006251D01*
X010257Y006213D01*
X010212Y006167D01*
X010174Y006115D01*
X010144Y006057D01*
X010125Y005996D01*
X010114Y005932D01*
X010114Y005670D01*
X010494Y005670D01*
X010494Y005656D02*
X009554Y005656D01*
X009554Y005670D02*
X009934Y005670D01*
X009934Y005932D01*
X009924Y005996D01*
X009904Y006057D01*
X009875Y006115D01*
X009837Y006167D01*
X009792Y006213D01*
X009739Y006251D01*
X009682Y006280D01*
X009620Y006300D01*
X009557Y006310D01*
X009554Y006310D01*
X009554Y005670D01*
X009494Y005670D01*
X009494Y005610D01*
X009114Y005610D01*
X009114Y005348D01*
X009125Y005284D01*
X009144Y005223D01*
X009174Y005165D01*
X009212Y005113D01*
X009257Y005067D01*
X009310Y005029D01*
X009367Y005000D01*
X009428Y004980D01*
X009492Y004970D01*
X009494Y004970D01*
X009494Y005610D01*
X009554Y005610D01*
X009554Y004970D01*
X009557Y004970D01*
X009620Y004980D01*
X009682Y005000D01*
X009739Y005029D01*
X009792Y005067D01*
X009837Y005113D01*
X009875Y005165D01*
X009904Y005223D01*
X009924Y005284D01*
X009934Y005348D01*
X009934Y005610D01*
X009554Y005610D01*
X009554Y005670D01*
X009494Y005670D02*
X009494Y006310D01*
X009492Y006310D01*
X009428Y006300D01*
X009367Y006280D01*
X009310Y006251D01*
X009257Y006213D01*
X009212Y006167D01*
X009174Y006115D01*
X009144Y006057D01*
X009125Y005996D01*
X009114Y005932D01*
X009114Y005670D01*
X009494Y005670D01*
X009494Y005656D02*
X008934Y005656D01*
X008934Y005558D02*
X009114Y005558D01*
X009114Y005459D02*
X008934Y005459D01*
X008934Y005361D02*
X009114Y005361D01*
X009132Y005262D02*
X008919Y005262D01*
X008879Y005164D02*
X009175Y005164D01*
X009260Y005065D02*
X008789Y005065D01*
X008801Y004770D02*
X007937Y004770D01*
X008035Y004868D02*
X013374Y004868D01*
X013324Y004967D02*
X008134Y004967D01*
X008224Y005065D02*
X008260Y005065D01*
X007838Y004671D02*
X008703Y004671D01*
X008604Y004573D02*
X007740Y004573D01*
X007641Y004474D02*
X008506Y004474D01*
X008407Y004376D02*
X007543Y004376D01*
X007444Y004277D02*
X008309Y004277D01*
X008210Y004179D02*
X007346Y004179D01*
X007247Y004080D02*
X008112Y004080D01*
X008013Y003982D02*
X007149Y003982D01*
X007030Y003883D02*
X007915Y003883D01*
X007824Y003785D02*
X006932Y003785D01*
X006833Y003686D02*
X007824Y003686D01*
X007824Y003588D02*
X006065Y003588D01*
X005966Y003489D02*
X007824Y003489D01*
X007824Y003391D02*
X005868Y003391D01*
X005769Y003292D02*
X006404Y003292D01*
X006428Y003300D02*
X006367Y003280D01*
X006310Y003251D01*
X006257Y003213D01*
X006212Y003167D01*
X006174Y003115D01*
X006144Y003057D01*
X006125Y002996D01*
X006114Y002932D01*
X006114Y002670D01*
X006494Y002670D01*
X006494Y002610D01*
X006114Y002610D01*
X006114Y002348D01*
X006125Y002284D01*
X006144Y002223D01*
X006174Y002165D01*
X006212Y002113D01*
X006257Y002067D01*
X006310Y002029D01*
X006367Y002000D01*
X006428Y001980D01*
X006492Y001970D01*
X006494Y001970D01*
X006494Y002610D01*
X006554Y002610D01*
X006554Y001970D01*
X006557Y001970D01*
X006620Y001980D01*
X006682Y002000D01*
X006739Y002029D01*
X006792Y002067D01*
X006837Y002113D01*
X006875Y002165D01*
X006904Y002223D01*
X006924Y002284D01*
X006934Y002348D01*
X006934Y002610D01*
X006554Y002610D01*
X006554Y002670D01*
X006494Y002670D01*
X006494Y003310D01*
X006492Y003310D01*
X006428Y003300D01*
X006494Y003292D02*
X006554Y003292D01*
X006554Y003310D02*
X006554Y002670D01*
X006934Y002670D01*
X006934Y002932D01*
X006924Y002996D01*
X006904Y003057D01*
X006875Y003115D01*
X006837Y003167D01*
X006792Y003213D01*
X006739Y003251D01*
X006682Y003280D01*
X006620Y003300D01*
X006557Y003310D01*
X006554Y003310D01*
X006645Y003292D02*
X007399Y003292D01*
X007238Y003194D02*
X006811Y003194D01*
X006885Y003095D02*
X007161Y003095D01*
X007121Y002997D02*
X006924Y002997D01*
X006934Y002898D02*
X007114Y002898D01*
X007114Y002800D02*
X006934Y002800D01*
X006934Y002701D02*
X007114Y002701D01*
X007114Y002603D02*
X006934Y002603D01*
X006934Y002504D02*
X007114Y002504D01*
X007114Y002406D02*
X006934Y002406D01*
X006928Y002307D02*
X007114Y002307D01*
X007152Y002209D02*
X006897Y002209D01*
X006834Y002110D02*
X007215Y002110D01*
X007343Y002012D02*
X006704Y002012D01*
X006554Y002012D02*
X006494Y002012D01*
X006494Y002110D02*
X006554Y002110D01*
X006554Y002209D02*
X006494Y002209D01*
X006494Y002307D02*
X006554Y002307D01*
X006554Y002406D02*
X006494Y002406D01*
X006494Y002504D02*
X006554Y002504D01*
X006554Y002603D02*
X006494Y002603D01*
X006494Y002701D02*
X006554Y002701D01*
X006554Y002800D02*
X006494Y002800D01*
X006494Y002898D02*
X006554Y002898D01*
X006554Y002997D02*
X006494Y002997D01*
X006494Y003095D02*
X006554Y003095D01*
X006554Y003194D02*
X006494Y003194D01*
X006238Y003194D02*
X005811Y003194D01*
X005887Y003095D02*
X006164Y003095D01*
X006125Y002997D02*
X005928Y002997D01*
X005934Y002898D02*
X006114Y002898D01*
X006114Y002800D02*
X005934Y002800D01*
X005934Y002701D02*
X006114Y002701D01*
X006114Y002603D02*
X005934Y002603D01*
X005934Y002504D02*
X006114Y002504D01*
X006114Y002406D02*
X005934Y002406D01*
X005934Y002307D02*
X006121Y002307D01*
X006152Y002209D02*
X005897Y002209D01*
X005834Y002110D02*
X006215Y002110D01*
X006345Y002012D02*
X005706Y002012D01*
X005524Y002640D02*
X005524Y003330D01*
X006387Y004376D02*
X002494Y004376D01*
X002494Y004474D02*
X006486Y004474D01*
X006584Y004573D02*
X005850Y004573D01*
X005948Y004671D02*
X006683Y004671D01*
X006781Y004770D02*
X006047Y004770D01*
X006145Y004868D02*
X006834Y004868D01*
X006834Y004967D02*
X006224Y004967D01*
X006224Y005065D02*
X006260Y005065D01*
X006494Y005065D02*
X006554Y005065D01*
X006554Y005164D02*
X006494Y005164D01*
X006494Y005262D02*
X006554Y005262D01*
X006554Y005361D02*
X006494Y005361D01*
X006494Y005459D02*
X006554Y005459D01*
X006554Y005558D02*
X006494Y005558D01*
X006494Y005670D02*
X006494Y006310D01*
X006492Y006310D01*
X006428Y006300D01*
X006367Y006280D01*
X006310Y006251D01*
X006257Y006213D01*
X006224Y006180D01*
X006224Y006557D01*
X006724Y007057D01*
X006724Y009057D01*
X007706Y010039D01*
X007834Y010039D01*
X007834Y009873D01*
X006952Y008990D01*
X006834Y008873D01*
X006834Y006170D01*
X006792Y006213D01*
X006739Y006251D01*
X006682Y006280D01*
X006620Y006300D01*
X006557Y006310D01*
X006554Y006310D01*
X006554Y005670D01*
X006494Y005670D01*
X006494Y005755D02*
X006554Y005755D01*
X006554Y005853D02*
X006494Y005853D01*
X006494Y005952D02*
X006554Y005952D01*
X006554Y006050D02*
X006494Y006050D01*
X006494Y006149D02*
X006554Y006149D01*
X006554Y006247D02*
X006494Y006247D01*
X006305Y006247D02*
X006224Y006247D01*
X006224Y006346D02*
X006834Y006346D01*
X006834Y006444D02*
X006224Y006444D01*
X006224Y006543D02*
X006834Y006543D01*
X006834Y006641D02*
X006308Y006641D01*
X006407Y006740D02*
X006834Y006740D01*
X006834Y006838D02*
X006505Y006838D01*
X006604Y006937D02*
X006834Y006937D01*
X006834Y007035D02*
X006702Y007035D01*
X006724Y007134D02*
X006834Y007134D01*
X006834Y007232D02*
X006724Y007232D01*
X006724Y007331D02*
X006834Y007331D01*
X006834Y007429D02*
X006724Y007429D01*
X006724Y007528D02*
X006834Y007528D01*
X006834Y007626D02*
X006724Y007626D01*
X006724Y007725D02*
X006834Y007725D01*
X006834Y007823D02*
X006724Y007823D01*
X006724Y007922D02*
X006834Y007922D01*
X006834Y008020D02*
X006724Y008020D01*
X006724Y008119D02*
X006834Y008119D01*
X006834Y008217D02*
X006724Y008217D01*
X006724Y008316D02*
X006834Y008316D01*
X006834Y008414D02*
X006724Y008414D01*
X006724Y008513D02*
X006834Y008513D01*
X006834Y008611D02*
X006724Y008611D01*
X006724Y008710D02*
X006834Y008710D01*
X006834Y008808D02*
X006724Y008808D01*
X006724Y008907D02*
X006868Y008907D01*
X006967Y009005D02*
X006724Y009005D01*
X006771Y009104D02*
X007065Y009104D01*
X007164Y009202D02*
X006869Y009202D01*
X006968Y009301D02*
X007262Y009301D01*
X007361Y009399D02*
X007066Y009399D01*
X007165Y009498D02*
X007459Y009498D01*
X007558Y009596D02*
X007263Y009596D01*
X007362Y009695D02*
X007656Y009695D01*
X007755Y009793D02*
X007460Y009793D01*
X007559Y009892D02*
X007834Y009892D01*
X007834Y009990D02*
X007657Y009990D01*
X006824Y010975D02*
X005701Y010975D01*
X005728Y011074D02*
X006824Y011074D01*
X006824Y011172D02*
X005748Y011172D01*
X005748Y011271D02*
X006824Y011271D01*
X006824Y011369D02*
X005748Y011369D01*
X005740Y011468D02*
X006824Y011468D01*
X006824Y011566D02*
X005713Y011566D01*
X005687Y011665D02*
X006824Y011665D01*
X006824Y011763D02*
X005646Y011763D01*
X005589Y011862D02*
X006824Y011862D01*
X006824Y011960D02*
X005532Y011960D01*
X005434Y012059D02*
X006824Y012059D01*
X006824Y012157D02*
X005336Y012157D01*
X005172Y012256D02*
X006824Y012256D01*
X006824Y012354D02*
X004911Y012354D01*
X008894Y009990D02*
X009118Y009990D01*
X009118Y009892D02*
X008894Y009892D01*
X008894Y009793D02*
X009118Y009793D01*
X009118Y009596D02*
X008894Y009596D01*
X008894Y009498D02*
X009118Y009498D01*
X009118Y009399D02*
X008894Y009399D01*
X008894Y009301D02*
X009125Y009301D01*
X009225Y009202D02*
X008819Y009202D01*
X008721Y009104D02*
X010455Y009104D01*
X010357Y009005D02*
X008622Y009005D01*
X008524Y008907D02*
X010258Y008907D01*
X010160Y008808D02*
X008425Y008808D01*
X008327Y008710D02*
X010061Y008710D01*
X010054Y008420D02*
X010684Y009050D01*
X010302Y009202D02*
X009942Y009202D01*
X010041Y009301D02*
X010221Y009301D01*
X010221Y009399D02*
X010048Y009399D01*
X010048Y009498D02*
X010221Y009498D01*
X010221Y009596D02*
X010048Y009596D01*
X010048Y009793D02*
X010221Y009793D01*
X010221Y009892D02*
X010048Y009892D01*
X010048Y009990D02*
X010221Y009990D01*
X009633Y009596D02*
X009533Y009596D01*
X009533Y009498D02*
X009633Y009498D01*
X009633Y009399D02*
X009533Y009399D01*
X009533Y009301D02*
X009633Y009301D01*
X009633Y009202D02*
X009533Y009202D01*
X009533Y009695D02*
X008894Y009695D01*
X008822Y008611D02*
X008228Y008611D01*
X008224Y008513D02*
X008822Y008513D01*
X008822Y008414D02*
X008224Y008414D01*
X008224Y008316D02*
X008822Y008316D01*
X008822Y008217D02*
X008224Y008217D01*
X008224Y008119D02*
X008822Y008119D01*
X008822Y008020D02*
X008224Y008020D01*
X008224Y007922D02*
X008822Y007922D01*
X008822Y007823D02*
X008224Y007823D01*
X008224Y007725D02*
X008822Y007725D01*
X008900Y007626D02*
X008224Y007626D01*
X008224Y007528D02*
X010544Y007528D01*
X010643Y007429D02*
X008224Y007429D01*
X008224Y007331D02*
X010741Y007331D01*
X010840Y007232D02*
X008224Y007232D01*
X008224Y007134D02*
X010938Y007134D01*
X011037Y007035D02*
X008224Y007035D01*
X008224Y006937D02*
X011135Y006937D01*
X011234Y006838D02*
X008224Y006838D01*
X008224Y006740D02*
X011324Y006740D01*
X011324Y006641D02*
X008224Y006641D01*
X008224Y006543D02*
X011324Y006543D01*
X011324Y006444D02*
X008224Y006444D01*
X008224Y006346D02*
X011324Y006346D01*
X011292Y006247D02*
X010744Y006247D01*
X010851Y006149D02*
X011193Y006149D01*
X011143Y006050D02*
X010907Y006050D01*
X010931Y005952D02*
X011114Y005952D01*
X011114Y005853D02*
X010934Y005853D01*
X010934Y005755D02*
X011114Y005755D01*
X011524Y005640D02*
X011524Y006830D01*
X010194Y008160D01*
X010054Y008160D01*
X010054Y008420D01*
X011208Y007429D02*
X012841Y007429D01*
X012742Y007331D02*
X011307Y007331D01*
X011405Y007232D02*
X012644Y007232D01*
X012545Y007134D02*
X011504Y007134D01*
X011602Y007035D02*
X012447Y007035D01*
X012348Y006937D02*
X011701Y006937D01*
X011724Y006838D02*
X012324Y006838D01*
X012324Y006740D02*
X011724Y006740D01*
X011724Y006641D02*
X012324Y006641D01*
X012324Y006543D02*
X011724Y006543D01*
X011724Y006444D02*
X012324Y006444D01*
X012324Y006346D02*
X011724Y006346D01*
X011757Y006247D02*
X012292Y006247D01*
X012193Y006149D02*
X011856Y006149D01*
X011906Y006050D02*
X012143Y006050D01*
X012114Y005952D02*
X011934Y005952D01*
X011934Y005853D02*
X012114Y005853D01*
X012114Y005755D02*
X011934Y005755D01*
X012757Y006247D02*
X013292Y006247D01*
X013193Y006149D02*
X012856Y006149D01*
X012906Y006050D02*
X013143Y006050D01*
X013114Y005952D02*
X012934Y005952D01*
X012934Y005853D02*
X013114Y005853D01*
X013114Y005755D02*
X012934Y005755D01*
X012934Y005656D02*
X013114Y005656D01*
X013114Y005558D02*
X012934Y005558D01*
X012934Y005459D02*
X013114Y005459D01*
X013114Y005361D02*
X012934Y005361D01*
X012919Y005262D02*
X013129Y005262D01*
X013170Y005164D02*
X012879Y005164D01*
X012789Y005065D02*
X013260Y005065D01*
X014015Y003883D02*
X011010Y003883D01*
X010912Y003785D02*
X013916Y003785D01*
X013818Y003686D02*
X010813Y003686D01*
X010724Y003588D02*
X013719Y003588D01*
X013621Y003489D02*
X010724Y003489D01*
X010724Y003391D02*
X013522Y003391D01*
X013399Y003292D02*
X012649Y003292D01*
X012606Y003310D02*
X012757Y003248D01*
X012872Y003132D01*
X012934Y002982D01*
X012934Y002298D01*
X012872Y002148D01*
X012757Y002032D01*
X012606Y001970D01*
X012443Y001970D01*
X012292Y002032D01*
X012177Y002148D01*
X012114Y002298D01*
X012114Y002982D01*
X012177Y003132D01*
X012292Y003248D01*
X012443Y003310D01*
X012606Y003310D01*
X012399Y003292D02*
X011649Y003292D01*
X011811Y003194D02*
X012238Y003194D01*
X012161Y003095D02*
X011887Y003095D01*
X011928Y002997D02*
X012121Y002997D01*
X012114Y002898D02*
X011934Y002898D01*
X011934Y002800D02*
X012114Y002800D01*
X012114Y002701D02*
X011934Y002701D01*
X011934Y002603D02*
X012114Y002603D01*
X012114Y002504D02*
X011934Y002504D01*
X011934Y002406D02*
X012114Y002406D01*
X012114Y002307D02*
X011934Y002307D01*
X011897Y002209D02*
X012152Y002209D01*
X012215Y002110D02*
X011834Y002110D01*
X011724Y002012D02*
X012343Y002012D01*
X012706Y002012D02*
X013343Y002012D01*
X013215Y002110D02*
X012834Y002110D01*
X012897Y002209D02*
X013152Y002209D01*
X013114Y002307D02*
X012934Y002307D01*
X012934Y002406D02*
X013114Y002406D01*
X013114Y002504D02*
X012934Y002504D01*
X012934Y002603D02*
X013114Y002603D01*
X013114Y002701D02*
X012934Y002701D01*
X012934Y002800D02*
X013114Y002800D01*
X013114Y002898D02*
X012934Y002898D01*
X012928Y002997D02*
X013121Y002997D01*
X013161Y003095D02*
X012887Y003095D01*
X012811Y003194D02*
X013238Y003194D01*
X013934Y002504D02*
X014114Y002504D01*
X014114Y002406D02*
X013934Y002406D01*
X013934Y002307D02*
X014114Y002307D01*
X014152Y002209D02*
X013897Y002209D01*
X013834Y002110D02*
X014215Y002110D01*
X014343Y002012D02*
X013706Y002012D01*
X014656Y001815D02*
X011773Y001815D01*
X011724Y001913D02*
X014755Y001913D01*
X014706Y002012D02*
X014834Y002012D01*
X015034Y001910D02*
X015034Y003230D01*
X015011Y003489D02*
X014186Y003489D01*
X014285Y003588D02*
X015109Y003588D01*
X015554Y003310D02*
X015554Y002670D01*
X015934Y002670D01*
X015934Y002932D01*
X015924Y002996D01*
X015904Y003057D01*
X015875Y003115D01*
X015837Y003167D01*
X015792Y003213D01*
X015739Y003251D01*
X015682Y003280D01*
X015620Y003300D01*
X015557Y003310D01*
X015554Y003310D01*
X015554Y003292D02*
X015494Y003292D01*
X015404Y003292D02*
X015379Y003292D01*
X015494Y003194D02*
X015554Y003194D01*
X015554Y003095D02*
X015494Y003095D01*
X015494Y002997D02*
X015554Y002997D01*
X015554Y002898D02*
X015494Y002898D01*
X015494Y002800D02*
X015554Y002800D01*
X015554Y002701D02*
X015494Y002701D01*
X015524Y002640D02*
X015524Y002340D01*
X015944Y001920D01*
X017804Y001920D01*
X017934Y002050D01*
X017934Y002634D01*
X017933Y002635D01*
X017883Y002603D02*
X016934Y002603D01*
X016934Y002701D02*
X017468Y002701D01*
X017468Y002800D02*
X016934Y002800D01*
X017025Y002898D02*
X017468Y002898D01*
X017468Y002997D02*
X017124Y002997D01*
X017222Y003095D02*
X017512Y003095D01*
X017144Y003300D02*
X018994Y003300D01*
X019034Y003260D01*
X019034Y002636D01*
X019036Y002635D01*
X019501Y002603D02*
X030084Y002603D01*
X030084Y002701D02*
X019501Y002701D01*
X019501Y002800D02*
X030084Y002800D01*
X030084Y002898D02*
X019501Y002898D01*
X019501Y002997D02*
X030084Y002997D01*
X030084Y003095D02*
X019457Y003095D01*
X019234Y003194D02*
X030084Y003194D01*
X030084Y003292D02*
X019234Y003292D01*
X019187Y003391D02*
X030084Y003391D01*
X030084Y003489D02*
X019088Y003489D01*
X018680Y003883D02*
X030084Y003883D01*
X030084Y003785D02*
X018582Y003785D01*
X018483Y003686D02*
X030084Y003686D01*
X030084Y003588D02*
X018385Y003588D01*
X018355Y003095D02*
X018614Y003095D01*
X018571Y002997D02*
X018398Y002997D01*
X018398Y002898D02*
X018571Y002898D01*
X018571Y002800D02*
X018398Y002800D01*
X018398Y002701D02*
X018571Y002701D01*
X018571Y002603D02*
X017983Y002603D01*
X017983Y002504D02*
X017883Y002504D01*
X017883Y002406D02*
X017983Y002406D01*
X017983Y002307D02*
X017883Y002307D01*
X017883Y002209D02*
X017983Y002209D01*
X018380Y002209D02*
X018581Y002209D01*
X018571Y002307D02*
X018398Y002307D01*
X018398Y002406D02*
X018571Y002406D01*
X018571Y002504D02*
X018398Y002504D01*
X017468Y002504D02*
X016934Y002504D01*
X016934Y002406D02*
X017468Y002406D01*
X017468Y002307D02*
X016934Y002307D01*
X016897Y002209D02*
X017487Y002209D01*
X016834Y002110D02*
X030084Y002110D01*
X030084Y002012D02*
X016706Y002012D01*
X016343Y002012D02*
X015704Y002012D01*
X015554Y002012D02*
X015494Y002012D01*
X015494Y002110D02*
X015554Y002110D01*
X015554Y002209D02*
X015494Y002209D01*
X015494Y002307D02*
X015554Y002307D01*
X015554Y002406D02*
X015494Y002406D01*
X015494Y002504D02*
X015554Y002504D01*
X015554Y002603D02*
X015494Y002603D01*
X015928Y002307D02*
X016114Y002307D01*
X016114Y002406D02*
X015934Y002406D01*
X015934Y002504D02*
X016114Y002504D01*
X016114Y002603D02*
X015934Y002603D01*
X015934Y002701D02*
X016114Y002701D01*
X016114Y002800D02*
X015934Y002800D01*
X015934Y002898D02*
X016114Y002898D01*
X016121Y002997D02*
X015924Y002997D01*
X015885Y003095D02*
X016161Y003095D01*
X016238Y003194D02*
X015811Y003194D01*
X015645Y003292D02*
X016399Y003292D01*
X016649Y003292D02*
X016854Y003292D01*
X017144Y003300D02*
X016524Y002680D01*
X016524Y002640D01*
X016152Y002209D02*
X015897Y002209D01*
X015834Y002110D02*
X016215Y002110D01*
X015345Y002012D02*
X015234Y002012D01*
X015234Y001913D02*
X030084Y001913D01*
X030084Y001815D02*
X015222Y001815D01*
X015123Y001716D02*
X030084Y001716D01*
X030084Y001618D02*
X015025Y001618D01*
X014926Y001519D02*
X030084Y001519D01*
X030084Y001421D02*
X014828Y001421D01*
X014734Y001610D02*
X015034Y001910D01*
X014734Y001610D02*
X011694Y001610D01*
X011524Y001780D01*
X011524Y002640D01*
X011114Y002603D02*
X010934Y002603D01*
X010934Y002701D02*
X011114Y002701D01*
X011114Y002800D02*
X010934Y002800D01*
X010934Y002898D02*
X011114Y002898D01*
X011121Y002997D02*
X010928Y002997D01*
X010887Y003095D02*
X011161Y003095D01*
X011238Y003194D02*
X010811Y003194D01*
X010724Y003292D02*
X011399Y003292D01*
X011114Y002504D02*
X010934Y002504D01*
X010934Y002406D02*
X011114Y002406D01*
X011114Y002307D02*
X010934Y002307D01*
X010897Y002209D02*
X011152Y002209D01*
X011215Y002110D02*
X010834Y002110D01*
X010706Y002012D02*
X011324Y002012D01*
X011324Y001913D02*
X009724Y001913D01*
X009724Y002012D02*
X010343Y002012D01*
X010215Y002110D02*
X009834Y002110D01*
X009897Y002209D02*
X010152Y002209D01*
X010114Y002307D02*
X009934Y002307D01*
X009934Y002406D02*
X010114Y002406D01*
X010114Y002504D02*
X009934Y002504D01*
X009524Y002640D02*
X009524Y001910D01*
X009384Y001770D01*
X008144Y001770D01*
X008024Y001890D01*
X008024Y003710D01*
X008924Y004610D01*
X017254Y004610D01*
X017714Y005070D01*
X017714Y006520D01*
X021834Y010640D01*
X021834Y015550D01*
X020724Y016660D01*
X020724Y019390D01*
X021414Y018965D02*
X021509Y018870D01*
X021674Y018870D01*
X021674Y019340D01*
X021774Y019340D01*
X021774Y018870D01*
X021940Y018870D01*
X022244Y019175D01*
X022244Y019340D01*
X021774Y019340D01*
X021774Y019440D01*
X021674Y019440D01*
X021674Y019910D01*
X021674Y020340D01*
X021774Y020340D01*
X021774Y019440D01*
X022244Y019440D01*
X022244Y019605D01*
X021960Y019890D01*
X022244Y020175D01*
X022244Y020340D01*
X021774Y020340D01*
X021774Y020440D01*
X022244Y020440D01*
X022244Y020605D01*
X022010Y020840D01*
X022392Y020840D01*
X022704Y020527D01*
X022704Y018437D01*
X022822Y018320D01*
X023892Y017250D01*
X029062Y017250D01*
X029164Y017147D01*
X029164Y016685D01*
X028940Y016910D01*
X028774Y016910D01*
X028774Y016440D01*
X028674Y016440D01*
X028674Y016340D01*
X028204Y016340D01*
X027774Y016340D01*
X027774Y016440D01*
X027674Y016440D01*
X027674Y016340D01*
X027204Y016340D01*
X027204Y016175D01*
X027289Y016090D01*
X022467Y016090D01*
X021414Y017143D01*
X021414Y018965D01*
X021414Y018954D02*
X021425Y018954D01*
X021414Y018855D02*
X022704Y018855D01*
X022704Y018757D02*
X021414Y018757D01*
X021414Y018658D02*
X022704Y018658D01*
X022704Y018560D02*
X021414Y018560D01*
X021414Y018461D02*
X022704Y018461D01*
X022779Y018363D02*
X021414Y018363D01*
X021414Y018264D02*
X022878Y018264D01*
X022976Y018166D02*
X021414Y018166D01*
X021414Y018067D02*
X023075Y018067D01*
X023173Y017969D02*
X021414Y017969D01*
X021414Y017870D02*
X023272Y017870D01*
X023370Y017772D02*
X021414Y017772D01*
X021414Y017673D02*
X023469Y017673D01*
X023567Y017575D02*
X021414Y017575D01*
X021414Y017476D02*
X023666Y017476D01*
X023764Y017378D02*
X021414Y017378D01*
X021414Y017279D02*
X023863Y017279D01*
X024034Y017673D02*
X030084Y017673D01*
X030084Y017575D02*
X029303Y017575D01*
X029401Y017476D02*
X030084Y017476D01*
X030084Y017378D02*
X029500Y017378D01*
X029564Y017279D02*
X030084Y017279D01*
X030084Y017181D02*
X029564Y017181D01*
X029564Y017082D02*
X030084Y017082D01*
X030084Y016984D02*
X029564Y016984D01*
X029564Y016885D02*
X030084Y016885D01*
X030084Y016787D02*
X029564Y016787D01*
X029564Y016688D02*
X030084Y016688D01*
X030084Y016590D02*
X029564Y016590D01*
X029564Y016491D02*
X030084Y016491D01*
X030084Y016393D02*
X029564Y016393D01*
X029564Y016294D02*
X030084Y016294D01*
X030084Y016196D02*
X029564Y016196D01*
X029564Y016097D02*
X030084Y016097D01*
X030084Y015999D02*
X029564Y015999D01*
X029564Y015900D02*
X030084Y015900D01*
X030084Y015802D02*
X029564Y015802D01*
X029564Y015703D02*
X030084Y015703D01*
X030084Y015605D02*
X029564Y015605D01*
X029564Y015506D02*
X030084Y015506D01*
X030084Y015408D02*
X029564Y015408D01*
X029564Y015309D02*
X030084Y015309D01*
X030084Y015211D02*
X029564Y015211D01*
X029564Y015112D02*
X030084Y015112D01*
X030084Y015014D02*
X029564Y015014D01*
X029564Y014915D02*
X030084Y014915D01*
X030084Y014817D02*
X029564Y014817D01*
X029564Y014718D02*
X030084Y014718D01*
X030084Y014620D02*
X029564Y014620D01*
X029564Y014521D02*
X030084Y014521D01*
X030084Y014423D02*
X029564Y014423D01*
X029564Y014324D02*
X030084Y014324D01*
X030084Y014226D02*
X029564Y014226D01*
X029564Y014127D02*
X030084Y014127D01*
X030084Y014029D02*
X029564Y014029D01*
X029564Y013930D02*
X030084Y013930D01*
X030084Y013832D02*
X029564Y013832D01*
X029564Y013733D02*
X030084Y013733D01*
X030084Y013635D02*
X029564Y013635D01*
X029564Y013536D02*
X030084Y013536D01*
X030084Y013438D02*
X029564Y013438D01*
X029564Y013339D02*
X030084Y013339D01*
X030084Y013241D02*
X029564Y013241D01*
X029564Y013142D02*
X030084Y013142D01*
X030084Y013044D02*
X029564Y013044D01*
X029562Y012945D02*
X030084Y012945D01*
X030084Y012847D02*
X029464Y012847D01*
X029424Y012807D02*
X029424Y012807D01*
X029365Y012748D02*
X030084Y012748D01*
X030084Y012650D02*
X029200Y012650D01*
X029244Y012551D02*
X030084Y012551D01*
X030084Y012453D02*
X029244Y012453D01*
X029244Y012354D02*
X030084Y012354D01*
X030084Y012256D02*
X029244Y012256D01*
X029227Y012157D02*
X030084Y012157D01*
X030084Y012059D02*
X029128Y012059D01*
X029030Y011960D02*
X030084Y011960D01*
X030084Y011862D02*
X028988Y011862D01*
X029087Y011763D02*
X030084Y011763D01*
X030084Y011665D02*
X029185Y011665D01*
X029244Y011566D02*
X030084Y011566D01*
X030084Y011468D02*
X029244Y011468D01*
X029244Y011369D02*
X030084Y011369D01*
X030084Y011271D02*
X029244Y011271D01*
X029242Y011172D02*
X030084Y011172D01*
X030084Y011074D02*
X029143Y011074D01*
X029045Y010975D02*
X030084Y010975D01*
X030084Y010877D02*
X028973Y010877D01*
X029072Y010778D02*
X030084Y010778D01*
X030084Y010680D02*
X029170Y010680D01*
X029244Y010581D02*
X030084Y010581D01*
X030084Y010483D02*
X029244Y010483D01*
X029244Y010286D02*
X030084Y010286D01*
X030084Y010384D02*
X028774Y010384D01*
X028774Y010286D02*
X028674Y010286D01*
X028674Y010384D02*
X027774Y010384D01*
X027774Y010286D02*
X027674Y010286D01*
X027674Y010384D02*
X023374Y010384D01*
X023374Y010286D02*
X027204Y010286D01*
X027204Y010187D02*
X023374Y010187D01*
X023306Y010089D02*
X027290Y010089D01*
X027389Y009990D02*
X023207Y009990D01*
X023109Y009892D02*
X027487Y009892D01*
X027674Y009892D02*
X027774Y009892D01*
X027774Y009990D02*
X027674Y009990D01*
X027674Y010089D02*
X027774Y010089D01*
X027774Y010187D02*
X027674Y010187D01*
X028060Y009990D02*
X028389Y009990D01*
X028487Y009892D02*
X027961Y009892D01*
X028158Y010089D02*
X028290Y010089D01*
X028674Y010089D02*
X028774Y010089D01*
X028774Y010187D02*
X028674Y010187D01*
X028674Y009990D02*
X028774Y009990D01*
X028774Y009892D02*
X028674Y009892D01*
X028961Y009892D02*
X030084Y009892D01*
X030084Y009990D02*
X029060Y009990D01*
X029158Y010089D02*
X030084Y010089D01*
X030084Y010187D02*
X029244Y010187D01*
X030084Y009793D02*
X023010Y009793D01*
X022912Y009695D02*
X030084Y009695D01*
X030084Y009596D02*
X022813Y009596D01*
X022715Y009498D02*
X030084Y009498D01*
X030084Y009399D02*
X022616Y009399D01*
X022518Y009301D02*
X030084Y009301D01*
X030084Y009202D02*
X022419Y009202D01*
X022321Y009104D02*
X030084Y009104D01*
X030084Y009005D02*
X022222Y009005D01*
X022124Y008907D02*
X030084Y008907D01*
X030084Y008808D02*
X022025Y008808D01*
X021927Y008710D02*
X030084Y008710D01*
X030084Y008611D02*
X021828Y008611D01*
X021730Y008513D02*
X030084Y008513D01*
X030084Y008414D02*
X021631Y008414D01*
X021533Y008316D02*
X030084Y008316D01*
X030084Y008217D02*
X021434Y008217D01*
X021336Y008119D02*
X030084Y008119D01*
X030084Y008020D02*
X021237Y008020D01*
X021139Y007922D02*
X030084Y007922D01*
X030084Y007823D02*
X021040Y007823D01*
X020942Y007725D02*
X030084Y007725D01*
X030084Y007626D02*
X020843Y007626D01*
X020745Y007528D02*
X030084Y007528D01*
X030084Y007429D02*
X020646Y007429D01*
X020548Y007331D02*
X030084Y007331D01*
X030084Y007232D02*
X020449Y007232D01*
X020351Y007134D02*
X030084Y007134D01*
X030084Y007035D02*
X020252Y007035D01*
X020154Y006937D02*
X030084Y006937D01*
X030084Y006838D02*
X020055Y006838D01*
X019957Y006740D02*
X030084Y006740D01*
X030084Y006641D02*
X019858Y006641D01*
X019760Y006543D02*
X030084Y006543D01*
X030084Y006444D02*
X019661Y006444D01*
X019563Y006346D02*
X030084Y006346D01*
X030084Y006247D02*
X019464Y006247D01*
X019366Y006149D02*
X030084Y006149D01*
X030084Y006050D02*
X019267Y006050D01*
X019224Y005952D02*
X030084Y005952D01*
X030084Y005853D02*
X019224Y005853D01*
X019224Y005755D02*
X030084Y005755D01*
X030084Y005656D02*
X019224Y005656D01*
X019224Y005558D02*
X030084Y005558D01*
X030084Y005459D02*
X019224Y005459D01*
X019224Y005361D02*
X030084Y005361D01*
X030084Y005262D02*
X019224Y005262D01*
X019224Y005164D02*
X030084Y005164D01*
X030084Y005065D02*
X019224Y005065D01*
X019224Y004967D02*
X030084Y004967D01*
X030084Y004868D02*
X019224Y004868D01*
X019224Y004770D02*
X030084Y004770D01*
X030084Y004671D02*
X019224Y004671D01*
X019224Y004573D02*
X030084Y004573D01*
X030084Y004474D02*
X019224Y004474D01*
X019173Y004376D02*
X030084Y004376D01*
X030084Y004277D02*
X019074Y004277D01*
X018976Y004179D02*
X030084Y004179D01*
X030084Y004080D02*
X018877Y004080D01*
X018779Y003982D02*
X030084Y003982D01*
X030084Y002504D02*
X019501Y002504D01*
X019501Y002406D02*
X030084Y002406D01*
X030084Y002307D02*
X019501Y002307D01*
X019491Y002209D02*
X030084Y002209D01*
X027204Y010483D02*
X023374Y010483D01*
X023374Y010581D02*
X027204Y010581D01*
X027279Y010680D02*
X023374Y010680D01*
X023374Y010778D02*
X027377Y010778D01*
X027476Y010877D02*
X023374Y010877D01*
X023374Y010975D02*
X027404Y010975D01*
X027305Y011074D02*
X023374Y011074D01*
X023374Y011172D02*
X027207Y011172D01*
X027204Y011271D02*
X023374Y011271D01*
X023374Y011369D02*
X027204Y011369D01*
X027204Y011468D02*
X023374Y011468D01*
X023443Y011566D02*
X027204Y011566D01*
X027264Y011665D02*
X023542Y011665D01*
X023640Y011763D02*
X027362Y011763D01*
X027461Y011862D02*
X023739Y011862D01*
X023837Y011960D02*
X027419Y011960D01*
X027320Y012059D02*
X023936Y012059D01*
X024034Y012157D02*
X027222Y012157D01*
X027204Y012256D02*
X024133Y012256D01*
X024231Y012354D02*
X027204Y012354D01*
X027204Y012453D02*
X024330Y012453D01*
X024428Y012551D02*
X027204Y012551D01*
X027249Y012650D02*
X024527Y012650D01*
X024625Y012748D02*
X027254Y012748D01*
X028224Y014710D02*
X028584Y015070D01*
X028584Y015250D01*
X028724Y015390D01*
X027282Y016097D02*
X022460Y016097D01*
X022362Y016196D02*
X027204Y016196D01*
X027204Y016294D02*
X022263Y016294D01*
X022165Y016393D02*
X027674Y016393D01*
X027674Y016440D02*
X027204Y016440D01*
X027204Y016605D01*
X027509Y016910D01*
X027674Y016910D01*
X027674Y016440D01*
X027674Y016491D02*
X027774Y016491D01*
X027774Y016440D02*
X027774Y016910D01*
X027940Y016910D01*
X028224Y016625D01*
X028509Y016910D01*
X028674Y016910D01*
X028674Y016440D01*
X027774Y016440D01*
X027774Y016393D02*
X028674Y016393D01*
X028674Y016491D02*
X028774Y016491D01*
X028774Y016590D02*
X028674Y016590D01*
X028674Y016688D02*
X028774Y016688D01*
X028774Y016787D02*
X028674Y016787D01*
X028674Y016885D02*
X028774Y016885D01*
X028965Y016885D02*
X029164Y016885D01*
X029164Y016787D02*
X029063Y016787D01*
X029162Y016688D02*
X029164Y016688D01*
X029164Y016984D02*
X021574Y016984D01*
X021475Y017082D02*
X029164Y017082D01*
X029131Y017181D02*
X021414Y017181D01*
X021672Y016885D02*
X027484Y016885D01*
X027386Y016787D02*
X021771Y016787D01*
X021869Y016688D02*
X027287Y016688D01*
X027204Y016590D02*
X021968Y016590D01*
X022066Y016491D02*
X027204Y016491D01*
X027674Y016590D02*
X027774Y016590D01*
X027774Y016688D02*
X027674Y016688D01*
X027674Y016787D02*
X027774Y016787D01*
X027774Y016885D02*
X027674Y016885D01*
X027965Y016885D02*
X028484Y016885D01*
X028386Y016787D02*
X028063Y016787D01*
X028162Y016688D02*
X028287Y016688D01*
X030084Y017772D02*
X023936Y017772D01*
X023837Y017870D02*
X030084Y017870D01*
X030084Y017969D02*
X023739Y017969D01*
X023640Y018067D02*
X030084Y018067D01*
X030084Y018166D02*
X023542Y018166D01*
X023443Y018264D02*
X030084Y018264D01*
X030084Y018363D02*
X023345Y018363D01*
X023246Y018461D02*
X030084Y018461D01*
X030084Y018560D02*
X023148Y018560D01*
X023104Y018658D02*
X030084Y018658D01*
X030084Y018757D02*
X023104Y018757D01*
X023104Y018855D02*
X030084Y018855D01*
X030084Y018954D02*
X023104Y018954D01*
X023104Y019052D02*
X030084Y019052D01*
X030084Y019151D02*
X023104Y019151D01*
X023104Y019249D02*
X030084Y019249D01*
X030084Y019348D02*
X023104Y019348D01*
X023104Y019446D02*
X030084Y019446D01*
X030084Y019545D02*
X023104Y019545D01*
X023104Y019643D02*
X030084Y019643D01*
X030084Y019742D02*
X023104Y019742D01*
X023104Y019840D02*
X030084Y019840D01*
X030084Y019939D02*
X023104Y019939D01*
X023104Y020037D02*
X030084Y020037D01*
X030084Y020136D02*
X023104Y020136D01*
X023104Y020234D02*
X030084Y020234D01*
X030084Y020333D02*
X023104Y020333D01*
X023104Y020431D02*
X030084Y020431D01*
X030084Y020530D02*
X023104Y020530D01*
X023104Y020628D02*
X030084Y020628D01*
X030084Y020727D02*
X023071Y020727D01*
X022972Y020825D02*
X030084Y020825D01*
X030084Y020924D02*
X022874Y020924D01*
X022775Y021022D02*
X030084Y021022D01*
X030084Y021121D02*
X022677Y021121D01*
X022578Y021219D02*
X030084Y021219D01*
X030084Y021318D02*
X002494Y021318D01*
X002494Y021416D02*
X030084Y021416D01*
X022702Y020530D02*
X022244Y020530D01*
X022222Y020628D02*
X022604Y020628D01*
X022505Y020727D02*
X022123Y020727D01*
X022025Y020825D02*
X022407Y020825D01*
X022704Y020431D02*
X021774Y020431D01*
X021774Y020333D02*
X021674Y020333D01*
X021674Y020234D02*
X021774Y020234D01*
X021774Y020136D02*
X021674Y020136D01*
X021674Y020037D02*
X021774Y020037D01*
X021774Y019939D02*
X021674Y019939D01*
X021674Y019840D02*
X021774Y019840D01*
X021774Y019742D02*
X021674Y019742D01*
X021674Y019643D02*
X021774Y019643D01*
X021774Y019545D02*
X021674Y019545D01*
X021674Y019446D02*
X021774Y019446D01*
X021774Y019348D02*
X022704Y019348D01*
X022704Y019446D02*
X022244Y019446D01*
X022244Y019545D02*
X022704Y019545D01*
X022704Y019643D02*
X022207Y019643D01*
X022108Y019742D02*
X022704Y019742D01*
X022704Y019840D02*
X022010Y019840D01*
X022008Y019939D02*
X022704Y019939D01*
X022704Y020037D02*
X022107Y020037D01*
X022205Y020136D02*
X022704Y020136D01*
X022704Y020234D02*
X022244Y020234D01*
X022244Y020333D02*
X022704Y020333D01*
X022704Y019249D02*
X022244Y019249D01*
X022220Y019151D02*
X022704Y019151D01*
X022704Y019052D02*
X022122Y019052D01*
X022023Y018954D02*
X022704Y018954D01*
X021774Y018954D02*
X021674Y018954D01*
X021674Y019052D02*
X021774Y019052D01*
X021774Y019151D02*
X021674Y019151D01*
X021674Y019249D02*
X021774Y019249D01*
X020074Y021022D02*
X002494Y021022D01*
X002494Y020924D02*
X019975Y020924D01*
X020172Y021121D02*
X002494Y021121D01*
X002494Y021219D02*
X020271Y021219D01*
X018024Y018264D02*
X013632Y018264D01*
X013731Y018166D02*
X018024Y018166D01*
X018024Y018067D02*
X013829Y018067D01*
X013928Y017969D02*
X018024Y017969D01*
X018024Y017870D02*
X014026Y017870D01*
X014125Y017772D02*
X018024Y017772D01*
X018024Y017673D02*
X014223Y017673D01*
X014322Y017575D02*
X018024Y017575D01*
X018024Y017476D02*
X014420Y017476D01*
X014519Y017378D02*
X018024Y017378D01*
X018024Y017279D02*
X014617Y017279D01*
X014716Y017181D02*
X018024Y017181D01*
X018024Y017082D02*
X014814Y017082D01*
X014913Y016984D02*
X018108Y016984D01*
X018197Y016885D02*
X015011Y016885D01*
X015110Y016787D02*
X018295Y016787D01*
X018384Y016980D02*
X018394Y016980D01*
X018074Y016590D02*
X017974Y016590D01*
X017974Y016491D02*
X018074Y016491D01*
X018074Y016393D02*
X017974Y016393D01*
X017974Y016294D02*
X018074Y016294D01*
X018074Y016196D02*
X018896Y016196D01*
X019414Y015960D02*
X020874Y015960D01*
X021424Y015410D01*
X021424Y010780D01*
X018519Y009498D02*
X014721Y009498D01*
X014721Y009399D02*
X016701Y009399D01*
X016602Y009301D02*
X014716Y009301D01*
X014639Y009202D02*
X016504Y009202D01*
X016405Y009104D02*
X015054Y009104D01*
X015152Y009005D02*
X016307Y009005D01*
X016208Y008907D02*
X015251Y008907D01*
X015349Y008808D02*
X016110Y008808D01*
X016011Y008710D02*
X015374Y008710D01*
X015374Y008611D02*
X015913Y008611D01*
X015814Y008513D02*
X015374Y008513D01*
X015374Y008414D02*
X015716Y008414D01*
X015617Y008316D02*
X015374Y008316D01*
X015374Y008217D02*
X015519Y008217D01*
X015420Y008119D02*
X015374Y008119D01*
X014974Y007626D02*
X014949Y007626D01*
X013153Y008801D02*
X013153Y009690D01*
X014206Y009596D02*
X014306Y009596D01*
X014306Y009498D02*
X014206Y009498D01*
X014206Y009399D02*
X014306Y009399D01*
X014306Y009301D02*
X014206Y009301D01*
X014206Y009202D02*
X014306Y009202D01*
X010554Y006247D02*
X010494Y006247D01*
X010494Y006149D02*
X010554Y006149D01*
X010554Y006050D02*
X010494Y006050D01*
X010494Y005952D02*
X010554Y005952D01*
X010554Y005853D02*
X010494Y005853D01*
X010494Y005755D02*
X010554Y005755D01*
X010554Y005558D02*
X010494Y005558D01*
X010494Y005459D02*
X010554Y005459D01*
X010554Y005361D02*
X010494Y005361D01*
X010494Y005262D02*
X010554Y005262D01*
X010554Y005164D02*
X010494Y005164D01*
X010494Y005065D02*
X010554Y005065D01*
X010260Y005065D02*
X009788Y005065D01*
X009874Y005164D02*
X010175Y005164D01*
X010132Y005262D02*
X009917Y005262D01*
X009934Y005361D02*
X010114Y005361D01*
X010114Y005459D02*
X009934Y005459D01*
X009934Y005558D02*
X010114Y005558D01*
X010114Y005755D02*
X009934Y005755D01*
X009934Y005853D02*
X010114Y005853D01*
X010117Y005952D02*
X009931Y005952D01*
X009907Y006050D02*
X010142Y006050D01*
X010198Y006149D02*
X009851Y006149D01*
X009744Y006247D02*
X010305Y006247D01*
X009554Y006247D02*
X009494Y006247D01*
X009494Y006149D02*
X009554Y006149D01*
X009554Y006050D02*
X009494Y006050D01*
X009494Y005952D02*
X009554Y005952D01*
X009554Y005853D02*
X009494Y005853D01*
X009494Y005755D02*
X009554Y005755D01*
X009554Y005558D02*
X009494Y005558D01*
X009494Y005459D02*
X009554Y005459D01*
X009554Y005361D02*
X009494Y005361D01*
X009494Y005262D02*
X009554Y005262D01*
X009554Y005164D02*
X009494Y005164D01*
X009494Y005065D02*
X009554Y005065D01*
X009304Y004400D02*
X008524Y003620D01*
X008524Y002640D01*
X008934Y002603D02*
X009114Y002603D01*
X009114Y002701D02*
X008934Y002701D01*
X008934Y002800D02*
X009114Y002800D01*
X009114Y002898D02*
X008934Y002898D01*
X008928Y002997D02*
X009121Y002997D01*
X009161Y003095D02*
X008887Y003095D01*
X008811Y003194D02*
X009238Y003194D01*
X009399Y003292D02*
X008724Y003292D01*
X008934Y002504D02*
X009114Y002504D01*
X009114Y002406D02*
X008934Y002406D01*
X008934Y002307D02*
X009114Y002307D01*
X009152Y002209D02*
X008897Y002209D01*
X008834Y002110D02*
X009215Y002110D01*
X009324Y002012D02*
X008706Y002012D01*
X008343Y002012D02*
X008224Y002012D01*
X007824Y002012D02*
X007706Y002012D01*
X007811Y003194D02*
X007824Y003194D01*
X007824Y003292D02*
X007649Y003292D01*
X009515Y001618D02*
X011404Y001618D01*
X011324Y001716D02*
X009613Y001716D01*
X009712Y001815D02*
X011324Y001815D01*
X006834Y005065D02*
X006788Y005065D01*
X006744Y006247D02*
X006834Y006247D01*
X008224Y006247D02*
X008292Y006247D01*
X008757Y006247D02*
X009305Y006247D01*
X009198Y006149D02*
X008856Y006149D01*
X008906Y006050D02*
X009142Y006050D01*
X009117Y005952D02*
X008934Y005952D01*
X008934Y005853D02*
X009114Y005853D01*
X009114Y005755D02*
X008934Y005755D01*
X005292Y006247D02*
X004757Y006247D01*
X004856Y006149D02*
X005193Y006149D01*
X005143Y006050D02*
X004906Y006050D01*
X004934Y005952D02*
X005114Y005952D01*
X005114Y005853D02*
X004934Y005853D01*
X004934Y005755D02*
X005114Y005755D01*
X017507Y016590D02*
X017545Y016590D01*
X015204Y020530D02*
X002494Y020530D01*
X002494Y020628D02*
X015227Y020628D01*
X015326Y020727D02*
X002494Y020727D01*
X002494Y020825D02*
X015424Y020825D01*
X015674Y020825D02*
X015774Y020825D01*
X015774Y020727D02*
X015674Y020727D01*
M02*
