%
M48
M72
T01C0.0320
T02C0.0400
T03C0.0402
T04C0.0618
T05C0.1280
%
T01
X3524Y2640
X4524Y2640
X5524Y2640
X6524Y2640
X7524Y2640
X8524Y2640
X9524Y2640
X10524Y2640
X11524Y2640
X12524Y2640
X13524Y2640
X14524Y2640
X15524Y2640
X16524Y2640
X16524Y5640
X15524Y5640
X14524Y5640
X13524Y5640
X12524Y5640
X11524Y5640
X10524Y5640
X9524Y5640
X8524Y5640
X7524Y5640
X6524Y5640
X5524Y5640
X4524Y5640
X3524Y5640
T02
X15724Y19390
X16724Y19390
X17724Y19390
X17724Y20390
X16724Y20390
X15724Y20390
X18724Y20390
X19724Y20390
X20724Y20390
X21724Y20390
X21724Y19390
X20724Y19390
X19724Y19390
X18724Y19390
X27724Y16390
X28724Y16390
X28724Y15390
X27724Y15390
X27724Y14390
X28724Y14390
X28724Y13390
X27724Y13390
X27724Y12390
X28724Y12390
X28724Y11390
X27724Y11390
X27724Y10390
X28724Y10390
T03
X10024Y10951
X9056Y11797
X10024Y11951
X9056Y12597
X9056Y13396
X9056Y14195
X9056Y14994
X9056Y15794
X10024Y15640
X10024Y16640
T04
X3407Y16967
X3407Y10616
T05
X4658Y11294
X4658Y16294
M30
