G75*
%MOIN*%
%OFA0B0*%
%FSLAX24Y24*%
%IPPOS*%
%LPD*%
%AMOC8*
5,1,8,0,0,1.08239X$1,22.5*
%
%ADD10C,0.0000*%
D10*
X008201Y000150D02*
X027886Y000150D01*
X027886Y024559D01*
X008201Y024559D01*
X008201Y000150D01*
X009176Y001725D02*
X009178Y001774D01*
X009184Y001822D01*
X009194Y001870D01*
X009208Y001917D01*
X009225Y001963D01*
X009246Y002007D01*
X009271Y002049D01*
X009299Y002089D01*
X009331Y002127D01*
X009365Y002162D01*
X009402Y002194D01*
X009441Y002223D01*
X009483Y002249D01*
X009527Y002271D01*
X009572Y002289D01*
X009619Y002304D01*
X009666Y002315D01*
X009715Y002322D01*
X009764Y002325D01*
X009813Y002324D01*
X009861Y002319D01*
X009910Y002310D01*
X009957Y002297D01*
X010003Y002280D01*
X010047Y002260D01*
X010090Y002236D01*
X010131Y002209D01*
X010169Y002178D01*
X010205Y002145D01*
X010237Y002109D01*
X010267Y002070D01*
X010294Y002029D01*
X010317Y001985D01*
X010336Y001940D01*
X010352Y001894D01*
X010364Y001847D01*
X010372Y001798D01*
X010376Y001749D01*
X010376Y001701D01*
X010372Y001652D01*
X010364Y001603D01*
X010352Y001556D01*
X010336Y001510D01*
X010317Y001465D01*
X010294Y001421D01*
X010267Y001380D01*
X010237Y001341D01*
X010205Y001305D01*
X010169Y001272D01*
X010131Y001241D01*
X010090Y001214D01*
X010047Y001190D01*
X010003Y001170D01*
X009957Y001153D01*
X009910Y001140D01*
X009861Y001131D01*
X009813Y001126D01*
X009764Y001125D01*
X009715Y001128D01*
X009666Y001135D01*
X009619Y001146D01*
X009572Y001161D01*
X009527Y001179D01*
X009483Y001201D01*
X009441Y001227D01*
X009402Y001256D01*
X009365Y001288D01*
X009331Y001323D01*
X009299Y001361D01*
X009271Y001401D01*
X009246Y001443D01*
X009225Y001487D01*
X009208Y001533D01*
X009194Y001580D01*
X009184Y001628D01*
X009178Y001676D01*
X009176Y001725D01*
X010957Y004351D02*
X010959Y004390D01*
X010965Y004429D01*
X010975Y004467D01*
X010988Y004504D01*
X011005Y004539D01*
X011025Y004573D01*
X011049Y004604D01*
X011076Y004633D01*
X011105Y004659D01*
X011137Y004682D01*
X011171Y004702D01*
X011207Y004718D01*
X011244Y004730D01*
X011283Y004739D01*
X011322Y004744D01*
X011361Y004745D01*
X011400Y004742D01*
X011439Y004735D01*
X011476Y004724D01*
X011513Y004710D01*
X011548Y004692D01*
X011581Y004671D01*
X011612Y004646D01*
X011640Y004619D01*
X011665Y004589D01*
X011687Y004556D01*
X011706Y004522D01*
X011721Y004486D01*
X011733Y004448D01*
X011741Y004410D01*
X011745Y004371D01*
X011745Y004331D01*
X011741Y004292D01*
X011733Y004254D01*
X011721Y004216D01*
X011706Y004180D01*
X011687Y004146D01*
X011665Y004113D01*
X011640Y004083D01*
X011612Y004056D01*
X011581Y004031D01*
X011548Y004010D01*
X011513Y003992D01*
X011476Y003978D01*
X011439Y003967D01*
X011400Y003960D01*
X011361Y003957D01*
X011322Y003958D01*
X011283Y003963D01*
X011244Y003972D01*
X011207Y003984D01*
X011171Y004000D01*
X011137Y004020D01*
X011105Y004043D01*
X011076Y004069D01*
X011049Y004098D01*
X011025Y004129D01*
X011005Y004163D01*
X010988Y004198D01*
X010975Y004235D01*
X010965Y004273D01*
X010959Y004312D01*
X010957Y004351D01*
X010957Y008351D02*
X010959Y008390D01*
X010965Y008429D01*
X010975Y008467D01*
X010988Y008504D01*
X011005Y008539D01*
X011025Y008573D01*
X011049Y008604D01*
X011076Y008633D01*
X011105Y008659D01*
X011137Y008682D01*
X011171Y008702D01*
X011207Y008718D01*
X011244Y008730D01*
X011283Y008739D01*
X011322Y008744D01*
X011361Y008745D01*
X011400Y008742D01*
X011439Y008735D01*
X011476Y008724D01*
X011513Y008710D01*
X011548Y008692D01*
X011581Y008671D01*
X011612Y008646D01*
X011640Y008619D01*
X011665Y008589D01*
X011687Y008556D01*
X011706Y008522D01*
X011721Y008486D01*
X011733Y008448D01*
X011741Y008410D01*
X011745Y008371D01*
X011745Y008331D01*
X011741Y008292D01*
X011733Y008254D01*
X011721Y008216D01*
X011706Y008180D01*
X011687Y008146D01*
X011665Y008113D01*
X011640Y008083D01*
X011612Y008056D01*
X011581Y008031D01*
X011548Y008010D01*
X011513Y007992D01*
X011476Y007978D01*
X011439Y007967D01*
X011400Y007960D01*
X011361Y007957D01*
X011322Y007958D01*
X011283Y007963D01*
X011244Y007972D01*
X011207Y007984D01*
X011171Y008000D01*
X011137Y008020D01*
X011105Y008043D01*
X011076Y008069D01*
X011049Y008098D01*
X011025Y008129D01*
X011005Y008163D01*
X010988Y008198D01*
X010975Y008235D01*
X010965Y008273D01*
X010959Y008312D01*
X010957Y008351D01*
X010957Y010394D02*
X010959Y010433D01*
X010965Y010472D01*
X010975Y010510D01*
X010988Y010547D01*
X011005Y010582D01*
X011025Y010616D01*
X011049Y010647D01*
X011076Y010676D01*
X011105Y010702D01*
X011137Y010725D01*
X011171Y010745D01*
X011207Y010761D01*
X011244Y010773D01*
X011283Y010782D01*
X011322Y010787D01*
X011361Y010788D01*
X011400Y010785D01*
X011439Y010778D01*
X011476Y010767D01*
X011513Y010753D01*
X011548Y010735D01*
X011581Y010714D01*
X011612Y010689D01*
X011640Y010662D01*
X011665Y010632D01*
X011687Y010599D01*
X011706Y010565D01*
X011721Y010529D01*
X011733Y010491D01*
X011741Y010453D01*
X011745Y010414D01*
X011745Y010374D01*
X011741Y010335D01*
X011733Y010297D01*
X011721Y010259D01*
X011706Y010223D01*
X011687Y010189D01*
X011665Y010156D01*
X011640Y010126D01*
X011612Y010099D01*
X011581Y010074D01*
X011548Y010053D01*
X011513Y010035D01*
X011476Y010021D01*
X011439Y010010D01*
X011400Y010003D01*
X011361Y010000D01*
X011322Y010001D01*
X011283Y010006D01*
X011244Y010015D01*
X011207Y010027D01*
X011171Y010043D01*
X011137Y010063D01*
X011105Y010086D01*
X011076Y010112D01*
X011049Y010141D01*
X011025Y010172D01*
X011005Y010206D01*
X010988Y010241D01*
X010975Y010278D01*
X010965Y010316D01*
X010959Y010355D01*
X010957Y010394D01*
X010957Y014394D02*
X010959Y014433D01*
X010965Y014472D01*
X010975Y014510D01*
X010988Y014547D01*
X011005Y014582D01*
X011025Y014616D01*
X011049Y014647D01*
X011076Y014676D01*
X011105Y014702D01*
X011137Y014725D01*
X011171Y014745D01*
X011207Y014761D01*
X011244Y014773D01*
X011283Y014782D01*
X011322Y014787D01*
X011361Y014788D01*
X011400Y014785D01*
X011439Y014778D01*
X011476Y014767D01*
X011513Y014753D01*
X011548Y014735D01*
X011581Y014714D01*
X011612Y014689D01*
X011640Y014662D01*
X011665Y014632D01*
X011687Y014599D01*
X011706Y014565D01*
X011721Y014529D01*
X011733Y014491D01*
X011741Y014453D01*
X011745Y014414D01*
X011745Y014374D01*
X011741Y014335D01*
X011733Y014297D01*
X011721Y014259D01*
X011706Y014223D01*
X011687Y014189D01*
X011665Y014156D01*
X011640Y014126D01*
X011612Y014099D01*
X011581Y014074D01*
X011548Y014053D01*
X011513Y014035D01*
X011476Y014021D01*
X011439Y014010D01*
X011400Y014003D01*
X011361Y014000D01*
X011322Y014001D01*
X011283Y014006D01*
X011244Y014015D01*
X011207Y014027D01*
X011171Y014043D01*
X011137Y014063D01*
X011105Y014086D01*
X011076Y014112D01*
X011049Y014141D01*
X011025Y014172D01*
X011005Y014206D01*
X010988Y014241D01*
X010975Y014278D01*
X010965Y014316D01*
X010959Y014355D01*
X010957Y014394D01*
X010957Y016457D02*
X010959Y016496D01*
X010965Y016535D01*
X010975Y016573D01*
X010988Y016610D01*
X011005Y016645D01*
X011025Y016679D01*
X011049Y016710D01*
X011076Y016739D01*
X011105Y016765D01*
X011137Y016788D01*
X011171Y016808D01*
X011207Y016824D01*
X011244Y016836D01*
X011283Y016845D01*
X011322Y016850D01*
X011361Y016851D01*
X011400Y016848D01*
X011439Y016841D01*
X011476Y016830D01*
X011513Y016816D01*
X011548Y016798D01*
X011581Y016777D01*
X011612Y016752D01*
X011640Y016725D01*
X011665Y016695D01*
X011687Y016662D01*
X011706Y016628D01*
X011721Y016592D01*
X011733Y016554D01*
X011741Y016516D01*
X011745Y016477D01*
X011745Y016437D01*
X011741Y016398D01*
X011733Y016360D01*
X011721Y016322D01*
X011706Y016286D01*
X011687Y016252D01*
X011665Y016219D01*
X011640Y016189D01*
X011612Y016162D01*
X011581Y016137D01*
X011548Y016116D01*
X011513Y016098D01*
X011476Y016084D01*
X011439Y016073D01*
X011400Y016066D01*
X011361Y016063D01*
X011322Y016064D01*
X011283Y016069D01*
X011244Y016078D01*
X011207Y016090D01*
X011171Y016106D01*
X011137Y016126D01*
X011105Y016149D01*
X011076Y016175D01*
X011049Y016204D01*
X011025Y016235D01*
X011005Y016269D01*
X010988Y016304D01*
X010975Y016341D01*
X010965Y016379D01*
X010959Y016418D01*
X010957Y016457D01*
X010957Y020457D02*
X010959Y020496D01*
X010965Y020535D01*
X010975Y020573D01*
X010988Y020610D01*
X011005Y020645D01*
X011025Y020679D01*
X011049Y020710D01*
X011076Y020739D01*
X011105Y020765D01*
X011137Y020788D01*
X011171Y020808D01*
X011207Y020824D01*
X011244Y020836D01*
X011283Y020845D01*
X011322Y020850D01*
X011361Y020851D01*
X011400Y020848D01*
X011439Y020841D01*
X011476Y020830D01*
X011513Y020816D01*
X011548Y020798D01*
X011581Y020777D01*
X011612Y020752D01*
X011640Y020725D01*
X011665Y020695D01*
X011687Y020662D01*
X011706Y020628D01*
X011721Y020592D01*
X011733Y020554D01*
X011741Y020516D01*
X011745Y020477D01*
X011745Y020437D01*
X011741Y020398D01*
X011733Y020360D01*
X011721Y020322D01*
X011706Y020286D01*
X011687Y020252D01*
X011665Y020219D01*
X011640Y020189D01*
X011612Y020162D01*
X011581Y020137D01*
X011548Y020116D01*
X011513Y020098D01*
X011476Y020084D01*
X011439Y020073D01*
X011400Y020066D01*
X011361Y020063D01*
X011322Y020064D01*
X011283Y020069D01*
X011244Y020078D01*
X011207Y020090D01*
X011171Y020106D01*
X011137Y020126D01*
X011105Y020149D01*
X011076Y020175D01*
X011049Y020204D01*
X011025Y020235D01*
X011005Y020269D01*
X010988Y020304D01*
X010975Y020341D01*
X010965Y020379D01*
X010959Y020418D01*
X010957Y020457D01*
X009176Y022985D02*
X009178Y023034D01*
X009184Y023082D01*
X009194Y023130D01*
X009208Y023177D01*
X009225Y023223D01*
X009246Y023267D01*
X009271Y023309D01*
X009299Y023349D01*
X009331Y023387D01*
X009365Y023422D01*
X009402Y023454D01*
X009441Y023483D01*
X009483Y023509D01*
X009527Y023531D01*
X009572Y023549D01*
X009619Y023564D01*
X009666Y023575D01*
X009715Y023582D01*
X009764Y023585D01*
X009813Y023584D01*
X009861Y023579D01*
X009910Y023570D01*
X009957Y023557D01*
X010003Y023540D01*
X010047Y023520D01*
X010090Y023496D01*
X010131Y023469D01*
X010169Y023438D01*
X010205Y023405D01*
X010237Y023369D01*
X010267Y023330D01*
X010294Y023289D01*
X010317Y023245D01*
X010336Y023200D01*
X010352Y023154D01*
X010364Y023107D01*
X010372Y023058D01*
X010376Y023009D01*
X010376Y022961D01*
X010372Y022912D01*
X010364Y022863D01*
X010352Y022816D01*
X010336Y022770D01*
X010317Y022725D01*
X010294Y022681D01*
X010267Y022640D01*
X010237Y022601D01*
X010205Y022565D01*
X010169Y022532D01*
X010131Y022501D01*
X010090Y022474D01*
X010047Y022450D01*
X010003Y022430D01*
X009957Y022413D01*
X009910Y022400D01*
X009861Y022391D01*
X009813Y022386D01*
X009764Y022385D01*
X009715Y022388D01*
X009666Y022395D01*
X009619Y022406D01*
X009572Y022421D01*
X009527Y022439D01*
X009483Y022461D01*
X009441Y022487D01*
X009402Y022516D01*
X009365Y022548D01*
X009331Y022583D01*
X009299Y022621D01*
X009271Y022661D01*
X009246Y022703D01*
X009225Y022747D01*
X009208Y022793D01*
X009194Y022840D01*
X009184Y022888D01*
X009178Y022936D01*
X009176Y022985D01*
X024342Y020457D02*
X024344Y020496D01*
X024350Y020535D01*
X024360Y020573D01*
X024373Y020610D01*
X024390Y020645D01*
X024410Y020679D01*
X024434Y020710D01*
X024461Y020739D01*
X024490Y020765D01*
X024522Y020788D01*
X024556Y020808D01*
X024592Y020824D01*
X024629Y020836D01*
X024668Y020845D01*
X024707Y020850D01*
X024746Y020851D01*
X024785Y020848D01*
X024824Y020841D01*
X024861Y020830D01*
X024898Y020816D01*
X024933Y020798D01*
X024966Y020777D01*
X024997Y020752D01*
X025025Y020725D01*
X025050Y020695D01*
X025072Y020662D01*
X025091Y020628D01*
X025106Y020592D01*
X025118Y020554D01*
X025126Y020516D01*
X025130Y020477D01*
X025130Y020437D01*
X025126Y020398D01*
X025118Y020360D01*
X025106Y020322D01*
X025091Y020286D01*
X025072Y020252D01*
X025050Y020219D01*
X025025Y020189D01*
X024997Y020162D01*
X024966Y020137D01*
X024933Y020116D01*
X024898Y020098D01*
X024861Y020084D01*
X024824Y020073D01*
X024785Y020066D01*
X024746Y020063D01*
X024707Y020064D01*
X024668Y020069D01*
X024629Y020078D01*
X024592Y020090D01*
X024556Y020106D01*
X024522Y020126D01*
X024490Y020149D01*
X024461Y020175D01*
X024434Y020204D01*
X024410Y020235D01*
X024390Y020269D01*
X024373Y020304D01*
X024360Y020341D01*
X024350Y020379D01*
X024344Y020418D01*
X024342Y020457D01*
X025711Y022985D02*
X025713Y023034D01*
X025719Y023082D01*
X025729Y023130D01*
X025743Y023177D01*
X025760Y023223D01*
X025781Y023267D01*
X025806Y023309D01*
X025834Y023349D01*
X025866Y023387D01*
X025900Y023422D01*
X025937Y023454D01*
X025976Y023483D01*
X026018Y023509D01*
X026062Y023531D01*
X026107Y023549D01*
X026154Y023564D01*
X026201Y023575D01*
X026250Y023582D01*
X026299Y023585D01*
X026348Y023584D01*
X026396Y023579D01*
X026445Y023570D01*
X026492Y023557D01*
X026538Y023540D01*
X026582Y023520D01*
X026625Y023496D01*
X026666Y023469D01*
X026704Y023438D01*
X026740Y023405D01*
X026772Y023369D01*
X026802Y023330D01*
X026829Y023289D01*
X026852Y023245D01*
X026871Y023200D01*
X026887Y023154D01*
X026899Y023107D01*
X026907Y023058D01*
X026911Y023009D01*
X026911Y022961D01*
X026907Y022912D01*
X026899Y022863D01*
X026887Y022816D01*
X026871Y022770D01*
X026852Y022725D01*
X026829Y022681D01*
X026802Y022640D01*
X026772Y022601D01*
X026740Y022565D01*
X026704Y022532D01*
X026666Y022501D01*
X026625Y022474D01*
X026582Y022450D01*
X026538Y022430D01*
X026492Y022413D01*
X026445Y022400D01*
X026396Y022391D01*
X026348Y022386D01*
X026299Y022385D01*
X026250Y022388D01*
X026201Y022395D01*
X026154Y022406D01*
X026107Y022421D01*
X026062Y022439D01*
X026018Y022461D01*
X025976Y022487D01*
X025937Y022516D01*
X025900Y022548D01*
X025866Y022583D01*
X025834Y022621D01*
X025806Y022661D01*
X025781Y022703D01*
X025760Y022747D01*
X025743Y022793D01*
X025729Y022840D01*
X025719Y022888D01*
X025713Y022936D01*
X025711Y022985D01*
X024342Y016457D02*
X024344Y016496D01*
X024350Y016535D01*
X024360Y016573D01*
X024373Y016610D01*
X024390Y016645D01*
X024410Y016679D01*
X024434Y016710D01*
X024461Y016739D01*
X024490Y016765D01*
X024522Y016788D01*
X024556Y016808D01*
X024592Y016824D01*
X024629Y016836D01*
X024668Y016845D01*
X024707Y016850D01*
X024746Y016851D01*
X024785Y016848D01*
X024824Y016841D01*
X024861Y016830D01*
X024898Y016816D01*
X024933Y016798D01*
X024966Y016777D01*
X024997Y016752D01*
X025025Y016725D01*
X025050Y016695D01*
X025072Y016662D01*
X025091Y016628D01*
X025106Y016592D01*
X025118Y016554D01*
X025126Y016516D01*
X025130Y016477D01*
X025130Y016437D01*
X025126Y016398D01*
X025118Y016360D01*
X025106Y016322D01*
X025091Y016286D01*
X025072Y016252D01*
X025050Y016219D01*
X025025Y016189D01*
X024997Y016162D01*
X024966Y016137D01*
X024933Y016116D01*
X024898Y016098D01*
X024861Y016084D01*
X024824Y016073D01*
X024785Y016066D01*
X024746Y016063D01*
X024707Y016064D01*
X024668Y016069D01*
X024629Y016078D01*
X024592Y016090D01*
X024556Y016106D01*
X024522Y016126D01*
X024490Y016149D01*
X024461Y016175D01*
X024434Y016204D01*
X024410Y016235D01*
X024390Y016269D01*
X024373Y016304D01*
X024360Y016341D01*
X024350Y016379D01*
X024344Y016418D01*
X024342Y016457D01*
X024342Y008351D02*
X024344Y008390D01*
X024350Y008429D01*
X024360Y008467D01*
X024373Y008504D01*
X024390Y008539D01*
X024410Y008573D01*
X024434Y008604D01*
X024461Y008633D01*
X024490Y008659D01*
X024522Y008682D01*
X024556Y008702D01*
X024592Y008718D01*
X024629Y008730D01*
X024668Y008739D01*
X024707Y008744D01*
X024746Y008745D01*
X024785Y008742D01*
X024824Y008735D01*
X024861Y008724D01*
X024898Y008710D01*
X024933Y008692D01*
X024966Y008671D01*
X024997Y008646D01*
X025025Y008619D01*
X025050Y008589D01*
X025072Y008556D01*
X025091Y008522D01*
X025106Y008486D01*
X025118Y008448D01*
X025126Y008410D01*
X025130Y008371D01*
X025130Y008331D01*
X025126Y008292D01*
X025118Y008254D01*
X025106Y008216D01*
X025091Y008180D01*
X025072Y008146D01*
X025050Y008113D01*
X025025Y008083D01*
X024997Y008056D01*
X024966Y008031D01*
X024933Y008010D01*
X024898Y007992D01*
X024861Y007978D01*
X024824Y007967D01*
X024785Y007960D01*
X024746Y007957D01*
X024707Y007958D01*
X024668Y007963D01*
X024629Y007972D01*
X024592Y007984D01*
X024556Y008000D01*
X024522Y008020D01*
X024490Y008043D01*
X024461Y008069D01*
X024434Y008098D01*
X024410Y008129D01*
X024390Y008163D01*
X024373Y008198D01*
X024360Y008235D01*
X024350Y008273D01*
X024344Y008312D01*
X024342Y008351D01*
X024342Y004351D02*
X024344Y004390D01*
X024350Y004429D01*
X024360Y004467D01*
X024373Y004504D01*
X024390Y004539D01*
X024410Y004573D01*
X024434Y004604D01*
X024461Y004633D01*
X024490Y004659D01*
X024522Y004682D01*
X024556Y004702D01*
X024592Y004718D01*
X024629Y004730D01*
X024668Y004739D01*
X024707Y004744D01*
X024746Y004745D01*
X024785Y004742D01*
X024824Y004735D01*
X024861Y004724D01*
X024898Y004710D01*
X024933Y004692D01*
X024966Y004671D01*
X024997Y004646D01*
X025025Y004619D01*
X025050Y004589D01*
X025072Y004556D01*
X025091Y004522D01*
X025106Y004486D01*
X025118Y004448D01*
X025126Y004410D01*
X025130Y004371D01*
X025130Y004331D01*
X025126Y004292D01*
X025118Y004254D01*
X025106Y004216D01*
X025091Y004180D01*
X025072Y004146D01*
X025050Y004113D01*
X025025Y004083D01*
X024997Y004056D01*
X024966Y004031D01*
X024933Y004010D01*
X024898Y003992D01*
X024861Y003978D01*
X024824Y003967D01*
X024785Y003960D01*
X024746Y003957D01*
X024707Y003958D01*
X024668Y003963D01*
X024629Y003972D01*
X024592Y003984D01*
X024556Y004000D01*
X024522Y004020D01*
X024490Y004043D01*
X024461Y004069D01*
X024434Y004098D01*
X024410Y004129D01*
X024390Y004163D01*
X024373Y004198D01*
X024360Y004235D01*
X024350Y004273D01*
X024344Y004312D01*
X024342Y004351D01*
X025711Y001725D02*
X025713Y001774D01*
X025719Y001822D01*
X025729Y001870D01*
X025743Y001917D01*
X025760Y001963D01*
X025781Y002007D01*
X025806Y002049D01*
X025834Y002089D01*
X025866Y002127D01*
X025900Y002162D01*
X025937Y002194D01*
X025976Y002223D01*
X026018Y002249D01*
X026062Y002271D01*
X026107Y002289D01*
X026154Y002304D01*
X026201Y002315D01*
X026250Y002322D01*
X026299Y002325D01*
X026348Y002324D01*
X026396Y002319D01*
X026445Y002310D01*
X026492Y002297D01*
X026538Y002280D01*
X026582Y002260D01*
X026625Y002236D01*
X026666Y002209D01*
X026704Y002178D01*
X026740Y002145D01*
X026772Y002109D01*
X026802Y002070D01*
X026829Y002029D01*
X026852Y001985D01*
X026871Y001940D01*
X026887Y001894D01*
X026899Y001847D01*
X026907Y001798D01*
X026911Y001749D01*
X026911Y001701D01*
X026907Y001652D01*
X026899Y001603D01*
X026887Y001556D01*
X026871Y001510D01*
X026852Y001465D01*
X026829Y001421D01*
X026802Y001380D01*
X026772Y001341D01*
X026740Y001305D01*
X026704Y001272D01*
X026666Y001241D01*
X026625Y001214D01*
X026582Y001190D01*
X026538Y001170D01*
X026492Y001153D01*
X026445Y001140D01*
X026396Y001131D01*
X026348Y001126D01*
X026299Y001125D01*
X026250Y001128D01*
X026201Y001135D01*
X026154Y001146D01*
X026107Y001161D01*
X026062Y001179D01*
X026018Y001201D01*
X025976Y001227D01*
X025937Y001256D01*
X025900Y001288D01*
X025866Y001323D01*
X025834Y001361D01*
X025806Y001401D01*
X025781Y001443D01*
X025760Y001487D01*
X025743Y001533D01*
X025729Y001580D01*
X025719Y001628D01*
X025713Y001676D01*
X025711Y001725D01*
M02*
