G75*
%MOIN*%
%OFA0B0*%
%FSLAX24Y24*%
%IPPOS*%
%LPD*%
%AMOC8*
5,1,8,0,0,1.08239X$1,22.5*
%
%ADD10C,0.0634*%
%ADD11C,0.0867*%
%ADD12C,0.1280*%
%ADD13C,0.0820*%
%ADD14R,0.0397X0.0397*%
%ADD15OC8,0.0397*%
%ADD16R,0.0476X0.0476*%
D10*
X013351Y005351D03*
X013351Y006351D03*
X013351Y011394D03*
X013351Y012394D03*
X013351Y017457D03*
X013351Y018457D03*
X022736Y018457D03*
X022736Y019457D03*
X022736Y007351D03*
X022736Y006351D03*
D11*
X024736Y008351D03*
X024736Y004351D03*
X011351Y004351D03*
X011351Y008351D03*
X011351Y010394D03*
X011351Y014394D03*
X011351Y016457D03*
X011351Y020457D03*
X024736Y020457D03*
X024736Y016457D03*
D12*
X026311Y022985D03*
X009776Y022985D03*
X009776Y001725D03*
X026311Y001725D03*
D13*
X018650Y022985D03*
X017650Y022985D03*
X016650Y022985D03*
D14*
X008792Y003103D03*
X008792Y003890D03*
X008792Y004678D03*
X008792Y005465D03*
X008792Y006252D03*
X008792Y007040D03*
X008792Y007827D03*
X008792Y008615D03*
X008792Y009402D03*
X008792Y010189D03*
X008792Y010977D03*
X008792Y011764D03*
X008792Y012552D03*
X008792Y013339D03*
X008792Y014126D03*
X008792Y014914D03*
X008792Y016095D03*
X008792Y016882D03*
X008792Y017670D03*
X008792Y018457D03*
X008792Y019244D03*
X008792Y020032D03*
X008792Y020819D03*
X008792Y021607D03*
X011154Y023969D03*
X011941Y023969D03*
X012729Y023969D03*
X013516Y023969D03*
X014303Y023969D03*
X015091Y023969D03*
X015878Y023969D03*
X019421Y023969D03*
X020209Y023969D03*
X020996Y023969D03*
X021784Y023969D03*
X022571Y023969D03*
X023359Y023969D03*
X024146Y023969D03*
X024933Y023969D03*
X027296Y021213D03*
X027296Y020426D03*
X027296Y019638D03*
X027296Y018851D03*
X027296Y018063D03*
X027296Y017276D03*
X027296Y016489D03*
X027296Y015701D03*
X027296Y014914D03*
X027296Y014126D03*
X027296Y013339D03*
X027296Y012552D03*
X027296Y011764D03*
X027296Y010977D03*
X027296Y010189D03*
X027296Y009402D03*
X027296Y008615D03*
X027296Y007827D03*
X027296Y007040D03*
X027296Y006252D03*
X027296Y005465D03*
X027296Y004678D03*
X027296Y003890D03*
X027296Y003103D03*
X024540Y000741D03*
X023752Y000741D03*
X022965Y000741D03*
X022177Y000741D03*
X021390Y000741D03*
X020603Y000741D03*
X019815Y000741D03*
X019028Y000741D03*
X018240Y000741D03*
X017453Y000741D03*
X016666Y000741D03*
X015878Y000741D03*
X015878Y000741D03*
X015091Y000741D03*
X014303Y000741D03*
X013516Y000741D03*
X012729Y000741D03*
X011941Y000741D03*
X011154Y000741D03*
X016390Y004402D03*
X016390Y005307D03*
X015484Y005859D03*
X015091Y005859D03*
X014697Y005859D03*
X014303Y005859D03*
X013910Y005859D03*
X013910Y006764D03*
X014303Y006764D03*
X014697Y006764D03*
X015091Y006764D03*
X015484Y006764D03*
X016429Y007276D03*
X017453Y008733D03*
X017453Y009520D03*
X018752Y009835D03*
X019185Y009835D03*
X019618Y010071D03*
X019973Y010426D03*
X020327Y010780D03*
X020327Y011174D03*
X020327Y011567D03*
X020327Y011961D03*
X020327Y012355D03*
X020327Y012748D03*
X020327Y013142D03*
X020327Y013536D03*
X020327Y013930D03*
X020327Y014323D03*
X020327Y014717D03*
X020327Y015111D03*
X020327Y015504D03*
X020327Y015898D03*
X020327Y016292D03*
X020327Y016685D03*
X020327Y017079D03*
X020327Y017473D03*
X020327Y017867D03*
X020721Y018142D03*
X021114Y018142D03*
X021508Y018142D03*
X021902Y018142D03*
X021784Y019048D03*
X022177Y019048D03*
X021390Y019048D03*
X020996Y019048D03*
X020603Y019048D03*
X020209Y019048D03*
X019815Y019048D03*
X019185Y018890D03*
X019540Y018063D03*
X019540Y017670D03*
X019540Y017276D03*
X019540Y016882D03*
X019540Y016489D03*
X019540Y016095D03*
X019540Y015701D03*
X019540Y015307D03*
X019540Y014914D03*
X019540Y014520D03*
X019540Y014126D03*
X019540Y013733D03*
X019540Y013339D03*
X019540Y012945D03*
X019540Y012552D03*
X019540Y012158D03*
X019540Y011725D03*
X019540Y011331D03*
X019185Y010937D03*
X018752Y010583D03*
X016154Y011685D03*
X015484Y011882D03*
X015091Y011882D03*
X014697Y011882D03*
X014303Y011882D03*
X013910Y011882D03*
X013910Y012670D03*
X014303Y012670D03*
X014697Y012670D03*
X015091Y012670D03*
X015484Y012670D03*
X017414Y013969D03*
X017886Y013103D03*
X017414Y016213D03*
X017256Y017748D03*
X015484Y018063D03*
X015091Y018063D03*
X014697Y018063D03*
X014303Y018063D03*
X013910Y018063D03*
X012729Y018063D03*
X012729Y018851D03*
X013910Y019048D03*
X014303Y019048D03*
X014697Y019048D03*
X015091Y019048D03*
X015484Y019048D03*
X017453Y020937D03*
X019500Y006174D03*
X019894Y006174D03*
X020288Y006174D03*
X020681Y006174D03*
X021075Y006174D03*
X021469Y006174D03*
X021862Y006174D03*
X021862Y005268D03*
X021469Y005268D03*
X021075Y005268D03*
X020681Y005268D03*
X020288Y005268D03*
X019894Y005268D03*
X017925Y004796D03*
D15*
X019421Y005111D03*
X017571Y006056D03*
X019343Y007237D03*
X017610Y007985D03*
D16*
X018949Y017591D03*
M02*
