G75*
%MOIN*%
%OFA0B0*%
%FSLAX24Y24*%
%IPPOS*%
%LPD*%
%AMOC8*
5,1,8,0,0,1.08239X$1,22.5*
%
%ADD10C,0.0079*%
%ADD11C,0.0030*%
D10*
X012356Y021503D02*
X012152Y021706D01*
X012394Y022003D01*
X012351Y022082D01*
X012317Y022165D01*
X012292Y022251D01*
X011911Y022290D01*
X011911Y022577D01*
X012292Y022616D01*
X012317Y022702D01*
X012351Y022785D01*
X012394Y022864D01*
X012152Y023161D01*
X012356Y023364D01*
X012653Y023122D01*
X012731Y023165D01*
X012814Y023200D01*
X012900Y023225D01*
X012939Y023606D01*
X013227Y023606D01*
X013266Y023225D01*
X013352Y023200D01*
X013435Y023165D01*
X013513Y023122D01*
X013810Y023364D01*
X014014Y023161D01*
X013772Y022864D01*
X013815Y022785D01*
X013849Y022702D01*
X013874Y022616D01*
X014255Y022577D01*
X014255Y022290D01*
X013874Y022251D01*
X013849Y022165D01*
X013815Y022082D01*
X013772Y022003D01*
X014014Y021706D01*
X013810Y021503D01*
X013513Y021745D01*
X013455Y021712D01*
X013394Y021683D01*
X013224Y022092D01*
X013288Y022127D01*
X013344Y022172D01*
X013390Y022228D01*
X013424Y022292D01*
X013445Y022361D01*
X013452Y022433D01*
X013445Y022505D01*
X013424Y022575D01*
X013390Y022639D01*
X013344Y022694D01*
X013288Y022740D01*
X013224Y022774D01*
X013155Y022795D01*
X013083Y022803D01*
X013011Y022795D01*
X012942Y022774D01*
X012878Y022740D01*
X012822Y022694D01*
X012776Y022639D01*
X012742Y022575D01*
X012721Y022505D01*
X012714Y022433D01*
X012721Y022361D01*
X012742Y022292D01*
X012776Y022228D01*
X012822Y022172D01*
X012878Y022127D01*
X012942Y022092D01*
X012772Y021683D01*
X012711Y021712D01*
X012653Y021745D01*
X012356Y021503D01*
X012313Y021546D02*
X012408Y021546D01*
X012503Y021623D02*
X012236Y021623D01*
X012158Y021700D02*
X012598Y021700D01*
X012736Y021700D02*
X012779Y021700D01*
X012811Y021777D02*
X012210Y021777D01*
X012273Y021855D02*
X012843Y021855D01*
X012875Y021932D02*
X012336Y021932D01*
X012391Y022009D02*
X012907Y022009D01*
X012939Y022086D02*
X012349Y022086D01*
X012317Y022164D02*
X012833Y022164D01*
X012769Y022241D02*
X012295Y022241D01*
X012295Y022627D02*
X012770Y022627D01*
X012734Y022550D02*
X011911Y022550D01*
X011911Y022472D02*
X012718Y022472D01*
X012718Y022395D02*
X011911Y022395D01*
X011911Y022318D02*
X012734Y022318D01*
X012834Y022704D02*
X012317Y022704D01*
X012349Y022781D02*
X012965Y022781D01*
X013201Y022781D02*
X013816Y022781D01*
X013848Y022704D02*
X013332Y022704D01*
X013396Y022627D02*
X013871Y022627D01*
X013774Y022859D02*
X012391Y022859D01*
X012335Y022936D02*
X013830Y022936D01*
X013893Y023013D02*
X012272Y023013D01*
X012209Y023090D02*
X013956Y023090D01*
X014007Y023168D02*
X013569Y023168D01*
X013664Y023245D02*
X013929Y023245D01*
X013852Y023322D02*
X013758Y023322D01*
X013429Y023168D02*
X012737Y023168D01*
X012597Y023168D02*
X012159Y023168D01*
X012236Y023245D02*
X012502Y023245D01*
X012407Y023322D02*
X012314Y023322D01*
X012902Y023245D02*
X013264Y023245D01*
X013256Y023322D02*
X012910Y023322D01*
X012918Y023399D02*
X013248Y023399D01*
X013240Y023477D02*
X012926Y023477D01*
X012934Y023554D02*
X013232Y023554D01*
X013431Y022550D02*
X014255Y022550D01*
X014255Y022472D02*
X013448Y022472D01*
X013448Y022395D02*
X014255Y022395D01*
X014255Y022318D02*
X013432Y022318D01*
X013396Y022241D02*
X013871Y022241D01*
X013849Y022164D02*
X013333Y022164D01*
X013227Y022086D02*
X013817Y022086D01*
X013775Y022009D02*
X013259Y022009D01*
X013291Y021932D02*
X013830Y021932D01*
X013893Y021855D02*
X013323Y021855D01*
X013355Y021777D02*
X013956Y021777D01*
X014007Y021700D02*
X013568Y021700D01*
X013663Y021623D02*
X013930Y021623D01*
X013853Y021546D02*
X013758Y021546D01*
X013430Y021700D02*
X013387Y021700D01*
D11*
X016508Y002131D02*
X016755Y002131D01*
X016570Y002316D01*
X016570Y001946D01*
X016877Y001946D02*
X017124Y001946D01*
X017000Y001946D02*
X017000Y002316D01*
X017124Y002193D01*
X017245Y002255D02*
X017245Y002008D01*
X017307Y001946D01*
X017430Y001946D01*
X017492Y002008D01*
X017245Y002255D01*
X017307Y002316D01*
X017430Y002316D01*
X017492Y002255D01*
X017492Y002008D01*
X017613Y001946D02*
X017860Y001946D01*
X017613Y002193D01*
X017613Y002255D01*
X017675Y002316D01*
X017799Y002316D01*
X017860Y002255D01*
X017676Y002423D02*
X017676Y002793D01*
X017491Y002793D01*
X017429Y002731D01*
X017429Y002608D01*
X017491Y002546D01*
X017676Y002546D01*
X017798Y002546D02*
X017798Y002731D01*
X017859Y002793D01*
X017921Y002731D01*
X017921Y002546D01*
X018044Y002546D02*
X018044Y002793D01*
X017983Y002793D01*
X017921Y002731D01*
X018166Y002731D02*
X018413Y002731D01*
X018413Y002793D02*
X018289Y002916D01*
X018166Y002793D01*
X018166Y002546D01*
X018413Y002546D02*
X018413Y002793D01*
X018903Y002793D02*
X019027Y002793D01*
X018965Y002855D02*
X018965Y002608D01*
X018903Y002546D01*
X018965Y002316D02*
X019088Y002193D01*
X019088Y002070D01*
X018965Y001946D01*
X018842Y002008D02*
X018781Y001946D01*
X018596Y001946D01*
X018474Y001946D02*
X018351Y002070D01*
X018351Y002193D01*
X018474Y002316D01*
X018596Y002193D02*
X018781Y002193D01*
X018842Y002131D01*
X018842Y002008D01*
X019148Y002546D02*
X019148Y002731D01*
X019210Y002793D01*
X019395Y002793D01*
X019395Y002546D01*
X019516Y002670D02*
X019516Y002731D01*
X019578Y002793D01*
X019701Y002793D01*
X019763Y002731D01*
X019763Y002608D01*
X019701Y002546D01*
X019578Y002546D01*
X019516Y002670D02*
X019763Y002670D01*
X019885Y002793D02*
X019947Y002793D01*
X020070Y002670D01*
X020070Y002793D02*
X020070Y002546D01*
X020192Y002793D02*
X020254Y002793D01*
X020377Y002670D01*
X020377Y002793D02*
X020377Y002546D01*
X020498Y002546D02*
X020498Y002793D01*
X020498Y002546D02*
X020684Y002546D01*
X020745Y002608D01*
X020745Y002793D01*
X020867Y002855D02*
X020929Y002916D01*
X021052Y002916D01*
X021114Y002855D01*
X021114Y002608D01*
X021052Y002546D01*
X020929Y002546D01*
X020867Y002608D01*
X020377Y002378D02*
X020377Y002316D01*
X020377Y002193D02*
X020377Y001946D01*
X020438Y001946D02*
X020315Y001946D01*
X020377Y002193D02*
X020438Y002193D01*
X020560Y002193D02*
X020683Y001946D01*
X020807Y002193D01*
X020928Y002131D02*
X020990Y002193D01*
X021113Y002193D01*
X021175Y002131D01*
X021175Y002008D01*
X021113Y001946D01*
X020990Y001946D01*
X020928Y002008D01*
X020928Y002131D01*
X021297Y002131D02*
X021297Y001946D01*
X021297Y002131D02*
X021358Y002193D01*
X021543Y002193D01*
X021543Y001946D01*
X021665Y001946D02*
X021665Y002131D01*
X021727Y002193D01*
X021850Y002193D01*
X021850Y002070D02*
X021665Y002070D01*
X021665Y001946D02*
X021850Y001946D01*
X021912Y002008D01*
X021850Y002070D01*
X022033Y001946D02*
X022033Y002316D01*
X022157Y002193D01*
X022280Y002316D01*
X022280Y001946D01*
X022340Y001716D02*
X022587Y001346D01*
X022955Y001346D02*
X022708Y001716D01*
X022831Y001946D02*
X022770Y002008D01*
X022770Y002131D01*
X022831Y002193D01*
X022955Y002193D01*
X023017Y002131D01*
X023017Y002008D01*
X022955Y001946D01*
X022831Y001946D01*
X023139Y001946D02*
X023262Y001946D01*
X023200Y001946D02*
X023200Y002316D01*
X023262Y002316D01*
X023384Y002193D02*
X023507Y001946D01*
X023630Y002193D01*
X023752Y002131D02*
X023752Y001946D01*
X023937Y001946D01*
X023999Y002008D01*
X023937Y002070D01*
X023752Y002070D01*
X023752Y002131D02*
X023814Y002193D01*
X023937Y002193D01*
X024120Y002255D02*
X024120Y002131D01*
X024182Y002070D01*
X024367Y002070D01*
X024367Y001946D02*
X024367Y002316D01*
X024182Y002316D01*
X024120Y002255D01*
X024120Y002546D02*
X024120Y002916D01*
X023937Y002793D02*
X023814Y002793D01*
X023752Y002731D01*
X023752Y002546D01*
X023937Y002546D01*
X023999Y002608D01*
X023937Y002670D01*
X023752Y002670D01*
X023630Y002546D02*
X023630Y002793D01*
X023445Y002793D01*
X023384Y002731D01*
X023384Y002546D01*
X023262Y002608D02*
X023200Y002546D01*
X023077Y002546D01*
X023015Y002608D01*
X023015Y002731D01*
X023077Y002793D01*
X023200Y002793D01*
X023262Y002731D01*
X023262Y002608D01*
X022894Y002546D02*
X022709Y002546D01*
X022647Y002608D01*
X022647Y002731D01*
X022709Y002793D01*
X022894Y002793D01*
X022894Y002423D01*
X022526Y002608D02*
X022464Y002546D01*
X022340Y002546D01*
X022279Y002608D01*
X022279Y002731D01*
X022340Y002793D01*
X022464Y002793D01*
X022526Y002731D01*
X022526Y002608D01*
X022157Y002670D02*
X022034Y002793D01*
X021972Y002793D01*
X021850Y002731D02*
X021789Y002793D01*
X021665Y002793D01*
X021603Y002731D01*
X021603Y002670D01*
X021850Y002670D01*
X021850Y002731D02*
X021850Y002608D01*
X021789Y002546D01*
X021665Y002546D01*
X022157Y002546D02*
X022157Y002793D01*
X022219Y001593D02*
X022033Y001593D01*
X021972Y001531D01*
X021972Y001408D01*
X022033Y001346D01*
X022219Y001346D01*
X022219Y001223D02*
X022219Y001593D01*
X021850Y001408D02*
X021789Y001470D01*
X021603Y001470D01*
X021603Y001531D02*
X021603Y001346D01*
X021789Y001346D01*
X021850Y001408D01*
X021789Y001593D02*
X021665Y001593D01*
X021603Y001531D01*
X021482Y001593D02*
X021359Y001346D01*
X021235Y001593D01*
X021114Y001716D02*
X021052Y001716D01*
X021052Y001346D01*
X021114Y001346D02*
X020990Y001346D01*
X020868Y001408D02*
X020868Y001531D01*
X020806Y001593D01*
X020683Y001593D01*
X020621Y001531D01*
X020621Y001408D01*
X020683Y001346D01*
X020806Y001346D01*
X020868Y001408D01*
X020500Y001408D02*
X020438Y001408D01*
X020438Y001346D01*
X020500Y001346D01*
X020500Y001408D01*
X020316Y001346D02*
X020316Y001593D01*
X020254Y001593D01*
X020192Y001531D01*
X020131Y001593D01*
X020069Y001531D01*
X020069Y001346D01*
X020192Y001346D02*
X020192Y001531D01*
X019947Y001531D02*
X019886Y001593D01*
X019762Y001593D01*
X019700Y001531D01*
X019700Y001470D01*
X019947Y001470D01*
X019947Y001531D02*
X019947Y001408D01*
X019886Y001346D01*
X019762Y001346D01*
X019825Y002131D02*
X019578Y002131D01*
X023078Y001593D02*
X023078Y001531D01*
X023139Y001531D01*
X023139Y001593D01*
X023078Y001593D01*
X023078Y001408D02*
X023078Y001346D01*
X023139Y001346D01*
X023139Y001408D01*
X023078Y001408D01*
X023261Y001408D02*
X023261Y001531D01*
X023323Y001593D01*
X023508Y001593D01*
X023508Y001223D01*
X023508Y001346D02*
X023323Y001346D01*
X023261Y001408D01*
X023630Y001346D02*
X023692Y001408D01*
X023692Y001655D01*
X023753Y001593D02*
X023630Y001593D01*
X023875Y001593D02*
X023999Y001593D01*
X023937Y001655D02*
X023937Y001408D01*
X023875Y001346D01*
X024120Y001346D02*
X024120Y001531D01*
X024182Y001593D01*
X024305Y001593D01*
X024367Y001531D01*
X024367Y001716D02*
X024367Y001346D01*
X024367Y002546D02*
X024367Y002916D01*
X024120Y002546D01*
X024199Y021740D02*
X024322Y021863D01*
X024261Y021863D02*
X024446Y021863D01*
X024446Y021740D02*
X024446Y022110D01*
X024261Y022110D01*
X024199Y022048D01*
X024199Y021925D01*
X024261Y021863D01*
X024078Y021863D02*
X023831Y021863D01*
X023831Y021925D01*
X023892Y021987D01*
X024016Y021987D01*
X024078Y021925D01*
X024078Y021802D01*
X024016Y021740D01*
X023892Y021740D01*
X023709Y021740D02*
X023586Y021740D01*
X023648Y021740D02*
X023648Y022110D01*
X023709Y022110D01*
X023464Y021925D02*
X023402Y021987D01*
X023279Y021987D01*
X023217Y021925D01*
X023217Y021863D01*
X023464Y021863D01*
X023464Y021802D02*
X023464Y021925D01*
X023464Y021802D02*
X023402Y021740D01*
X023279Y021740D01*
X023095Y021802D02*
X023034Y021863D01*
X022849Y021863D01*
X022849Y021925D02*
X022849Y021740D01*
X023034Y021740D01*
X023095Y021802D01*
X023034Y021987D02*
X022910Y021987D01*
X022849Y021925D01*
X022727Y021925D02*
X022665Y021987D01*
X022480Y021987D01*
X022359Y021925D02*
X022297Y021987D01*
X022174Y021987D01*
X022112Y021925D01*
X022112Y021863D01*
X022359Y021863D01*
X022359Y021802D02*
X022359Y021925D01*
X022359Y021802D02*
X022297Y021740D01*
X022174Y021740D01*
X021990Y021802D02*
X021990Y021925D01*
X021929Y021987D01*
X021744Y021987D01*
X021744Y022110D02*
X021744Y021740D01*
X021929Y021740D01*
X021990Y021802D01*
X022480Y021802D02*
X022542Y021740D01*
X022727Y021740D01*
X022665Y021863D02*
X022727Y021925D01*
X022665Y021863D02*
X022542Y021863D01*
X022480Y021802D01*
X021254Y021802D02*
X021192Y021740D01*
X021007Y021740D01*
X021007Y021987D01*
X020885Y021987D02*
X020885Y021740D01*
X020639Y021740D02*
X020639Y021925D01*
X020700Y021987D01*
X020885Y021987D01*
X021254Y021987D02*
X021254Y021802D01*
X020517Y021802D02*
X020455Y021740D01*
X020270Y021740D01*
X020270Y022110D01*
X020270Y021987D02*
X020455Y021987D01*
X020517Y021925D01*
X020517Y021802D01*
X020149Y021802D02*
X020087Y021740D01*
X019964Y021740D01*
X019902Y021863D02*
X020149Y021863D01*
X020149Y021802D02*
X020149Y021925D01*
X020087Y021987D01*
X019964Y021987D01*
X019902Y021925D01*
X019902Y021863D01*
X019781Y021863D02*
X019657Y021987D01*
X019595Y021987D01*
X019781Y021987D02*
X019781Y021740D01*
X019105Y021987D02*
X018982Y021987D01*
X019044Y022048D02*
X019044Y021802D01*
X018982Y021740D01*
X018860Y021740D02*
X018860Y022110D01*
X018798Y021987D02*
X018675Y021987D01*
X018613Y021925D01*
X018613Y021740D01*
X018491Y021802D02*
X018430Y021740D01*
X018306Y021740D01*
X018245Y021863D02*
X018491Y021863D01*
X018491Y021802D02*
X018491Y021925D01*
X018430Y021987D01*
X018306Y021987D01*
X018245Y021925D01*
X018245Y021863D01*
X017755Y022110D02*
X017508Y022110D01*
X017631Y022110D02*
X017631Y021740D01*
X017387Y021740D02*
X017387Y021987D01*
X017263Y022110D01*
X017140Y021987D01*
X017140Y021740D01*
X017018Y021740D02*
X017018Y022110D01*
X016833Y022110D01*
X016771Y022048D01*
X016771Y021925D01*
X016833Y021863D01*
X017018Y021863D01*
X017140Y021925D02*
X017387Y021925D01*
X016650Y021863D02*
X016465Y021863D01*
X016403Y021925D01*
X016403Y022048D01*
X016465Y022110D01*
X016650Y022110D01*
X016650Y021740D01*
X016526Y021863D02*
X016403Y021740D01*
X015913Y021802D02*
X015852Y021740D01*
X015728Y021740D01*
X015666Y021802D01*
X015666Y022048D01*
X015728Y022110D01*
X015852Y022110D01*
X015913Y022048D01*
X015913Y021802D01*
X015545Y021740D02*
X015545Y022110D01*
X015545Y021925D02*
X015298Y021925D01*
X015298Y022110D02*
X015298Y021740D01*
X015177Y021740D02*
X014930Y021740D01*
X014808Y021740D02*
X014747Y021740D01*
X014747Y021802D01*
X014808Y021802D01*
X014808Y021740D01*
X015177Y021740D02*
X015177Y022110D01*
X018798Y021987D02*
X018860Y021925D01*
M02*
