G75*
%MOIN*%
%OFA0B0*%
%FSLAX24Y24*%
%IPPOS*%
%LPD*%
%AMOC8*
5,1,8,0,0,1.08239X$1,22.5*
%
%ADD10C,0.0554*%
%ADD11C,0.0740*%
%ADD12C,0.0100*%
%ADD13R,0.0317X0.0317*%
%ADD14OC8,0.0317*%
%ADD15C,0.0160*%
%ADD16R,0.0396X0.0396*%
%ADD17C,0.0079*%
D10*
X013351Y005351D03*
X013351Y006351D03*
X013351Y011394D03*
X013351Y012394D03*
X013351Y017457D03*
X013351Y018457D03*
X022736Y018457D03*
X022736Y019457D03*
X022736Y007351D03*
X022736Y006351D03*
D11*
X018650Y022985D03*
X017650Y022985D03*
X016650Y022985D03*
D12*
X008651Y022119D02*
X008651Y002590D01*
X008938Y002878D01*
X008938Y002878D01*
X009335Y003080D01*
X009335Y003080D01*
X009776Y003150D01*
X009776Y003150D01*
X010216Y003080D01*
X010613Y002878D01*
X010929Y002562D01*
X010929Y002562D01*
X011131Y002165D01*
X011131Y002165D01*
X011201Y001725D01*
X011131Y001284D01*
X011131Y001284D01*
X010929Y000887D01*
X010929Y000887D01*
X010641Y000600D01*
X025446Y000600D01*
X025158Y000887D01*
X025158Y000887D01*
X024956Y001284D01*
X024956Y001284D01*
X024886Y001725D01*
X024886Y001725D01*
X024956Y002165D01*
X024956Y002165D01*
X025158Y002562D01*
X025158Y002562D01*
X025474Y002878D01*
X025474Y002878D01*
X025871Y003080D01*
X025871Y003080D01*
X026311Y003150D01*
X026311Y003150D01*
X026752Y003080D01*
X026752Y003080D01*
X027149Y002878D01*
X027149Y002878D01*
X027436Y002590D01*
X027436Y022119D01*
X027149Y021832D01*
X027149Y021832D01*
X026752Y021629D01*
X026752Y021629D01*
X026311Y021560D01*
X026311Y021560D01*
X025871Y021629D01*
X025871Y021629D01*
X025474Y021832D01*
X025474Y021832D01*
X025158Y022147D01*
X025158Y022147D01*
X024956Y022544D01*
X024886Y022985D01*
X024956Y023425D01*
X025158Y023822D01*
X025446Y024109D01*
X010641Y024109D01*
X010929Y023822D01*
X010929Y023822D01*
X011131Y023425D01*
X011131Y023425D01*
X011201Y022985D01*
X011131Y022544D01*
X010929Y022147D01*
X010929Y022147D01*
X010613Y021832D01*
X010613Y021832D01*
X010216Y021629D01*
X010216Y021629D01*
X009776Y021560D01*
X009776Y021560D01*
X009335Y021629D01*
X009335Y021629D01*
X008938Y021832D01*
X008938Y021832D01*
X008651Y022119D01*
X008651Y022116D02*
X008654Y022116D01*
X008651Y022017D02*
X008753Y022017D01*
X008851Y021919D02*
X008651Y021919D01*
X008651Y021820D02*
X008961Y021820D01*
X009155Y021722D02*
X008651Y021722D01*
X008651Y021623D02*
X009375Y021623D01*
X008651Y021525D02*
X012038Y021525D01*
X012012Y021551D02*
X012200Y021362D01*
X012248Y021303D01*
X012260Y021302D01*
X012269Y021293D01*
X012345Y021293D01*
X012421Y021286D01*
X012430Y021293D01*
X012442Y021293D01*
X012496Y021347D01*
X012678Y021496D01*
X012692Y021490D01*
X012739Y021470D01*
X012772Y021457D01*
X012772Y021457D01*
X012844Y021486D01*
X012932Y021523D01*
X012932Y021523D01*
X012932Y021523D01*
X012983Y021644D01*
X013083Y021886D01*
X013190Y021629D01*
X013233Y021523D01*
X013233Y021523D01*
X013334Y021481D01*
X013394Y021457D01*
X013431Y021472D01*
X013474Y021490D01*
X013488Y021496D01*
X013670Y021347D01*
X013723Y021293D01*
X013736Y021293D01*
X013745Y021286D01*
X013821Y021293D01*
X013897Y021293D01*
X013905Y021302D01*
X013918Y021303D01*
X013966Y021362D01*
X014154Y021551D01*
X014213Y021599D01*
X014214Y021611D01*
X014223Y021620D01*
X014223Y021696D01*
X014231Y021771D01*
X014223Y021781D01*
X014223Y021793D01*
X014169Y021847D01*
X014029Y022019D01*
X014040Y022037D01*
X014044Y022058D01*
X014266Y022080D01*
X014342Y022080D01*
X014351Y022089D01*
X014363Y022090D01*
X014411Y022149D01*
X014465Y022203D01*
X014465Y022215D01*
X014472Y022224D01*
X014465Y022300D01*
X014465Y022567D01*
X014472Y022643D01*
X014465Y022652D01*
X014465Y022664D01*
X014411Y022718D01*
X014363Y022777D01*
X014351Y022778D01*
X014342Y022787D01*
X014266Y022787D01*
X014044Y022809D01*
X014040Y022830D01*
X014029Y022848D01*
X014169Y023020D01*
X014223Y023074D01*
X014223Y023086D01*
X014231Y023096D01*
X014223Y023171D01*
X014223Y023247D01*
X014214Y023256D01*
X014213Y023268D01*
X014154Y023316D01*
X013966Y023505D01*
X013918Y023564D01*
X013905Y023565D01*
X013897Y023574D01*
X013821Y023574D01*
X013745Y023581D01*
X013736Y023574D01*
X013723Y023574D01*
X013670Y023520D01*
X013497Y023379D01*
X013479Y023390D01*
X013459Y023395D01*
X013436Y023616D01*
X013436Y023692D01*
X025092Y023692D01*
X025142Y023790D02*
X013339Y023790D01*
X013314Y023815D02*
X013301Y023815D01*
X013292Y023823D01*
X013216Y023815D01*
X012950Y023815D01*
X012874Y023823D01*
X012864Y023815D01*
X012852Y023815D01*
X012798Y023761D01*
X012739Y023713D01*
X012738Y023701D01*
X012730Y023692D01*
X010995Y023692D01*
X010945Y023790D02*
X012827Y023790D01*
X012730Y023692D02*
X012730Y023616D01*
X012707Y023395D01*
X012687Y023390D01*
X012687Y023390D01*
X012669Y023379D01*
X012496Y023520D01*
X012442Y023574D01*
X012430Y023574D01*
X012421Y023581D01*
X012345Y023574D01*
X012269Y023574D01*
X012260Y023565D01*
X012248Y023564D01*
X012200Y023505D01*
X012012Y023316D01*
X011953Y023268D01*
X011951Y023256D01*
X011943Y023247D01*
X011943Y023171D01*
X011935Y023096D01*
X011943Y023086D01*
X011943Y023074D01*
X011997Y023020D01*
X012137Y022848D01*
X012126Y022830D01*
X012126Y022830D01*
X012121Y022809D01*
X011900Y022787D01*
X011824Y022787D01*
X011815Y022778D01*
X011803Y022777D01*
X011755Y022718D01*
X011701Y022664D01*
X011701Y022652D01*
X011694Y022643D01*
X011701Y022567D01*
X011701Y022300D01*
X011694Y022224D01*
X011701Y022215D01*
X011701Y022203D01*
X011755Y022149D01*
X011803Y022090D01*
X011815Y022089D01*
X011824Y022080D01*
X011900Y022080D01*
X012121Y022058D01*
X012126Y022037D01*
X012137Y022019D01*
X011997Y021847D01*
X011943Y021793D01*
X011943Y021781D01*
X011935Y021771D01*
X011943Y021696D01*
X011943Y021620D01*
X011951Y021611D01*
X011953Y021599D01*
X012012Y021551D01*
X011943Y021623D02*
X010176Y021623D01*
X010397Y021722D02*
X011940Y021722D01*
X011970Y021820D02*
X010590Y021820D01*
X010700Y021919D02*
X012055Y021919D01*
X012135Y022017D02*
X010799Y022017D01*
X010897Y022116D02*
X011782Y022116D01*
X011701Y022214D02*
X010963Y022214D01*
X011013Y022313D02*
X011701Y022313D01*
X011701Y022411D02*
X011063Y022411D01*
X011113Y022510D02*
X011701Y022510D01*
X011697Y022608D02*
X011141Y022608D01*
X011131Y022544D02*
X011131Y022544D01*
X011157Y022707D02*
X011744Y022707D01*
X012080Y022805D02*
X011172Y022805D01*
X011188Y022904D02*
X012092Y022904D01*
X012011Y023002D02*
X011198Y023002D01*
X011182Y023101D02*
X011936Y023101D01*
X011943Y023199D02*
X011167Y023199D01*
X011151Y023298D02*
X011989Y023298D01*
X012092Y023396D02*
X011136Y023396D01*
X011096Y023495D02*
X012190Y023495D01*
X012527Y023495D02*
X012717Y023495D01*
X012727Y023593D02*
X011045Y023593D01*
X010862Y023889D02*
X025225Y023889D01*
X025323Y023987D02*
X010764Y023987D01*
X010665Y024086D02*
X025422Y024086D01*
X025042Y023593D02*
X013439Y023593D01*
X013449Y023495D02*
X013639Y023495D01*
X013518Y023396D02*
X013459Y023396D01*
X013479Y023390D02*
X013479Y023390D01*
X013436Y023692D02*
X013428Y023701D01*
X013426Y023713D01*
X013367Y023761D01*
X013314Y023815D01*
X013976Y023495D02*
X016470Y023495D01*
X016542Y023525D02*
X016344Y023442D01*
X016192Y023291D01*
X016110Y023092D01*
X016110Y022877D01*
X016192Y022679D01*
X016219Y022652D01*
X016219Y018486D01*
X016257Y018394D01*
X016927Y017724D01*
X016927Y017519D01*
X017027Y017420D01*
X017485Y017420D01*
X017585Y017519D01*
X017585Y017978D01*
X017485Y018077D01*
X017281Y018077D01*
X016719Y018639D01*
X016719Y022445D01*
X016757Y022445D01*
X016956Y022527D01*
X017108Y022679D01*
X017190Y022877D01*
X017190Y023092D01*
X017108Y023291D01*
X016956Y023442D01*
X016757Y023525D01*
X016542Y023525D01*
X016298Y023396D02*
X014074Y023396D01*
X014177Y023298D02*
X016199Y023298D01*
X016154Y023199D02*
X014223Y023199D01*
X014230Y023101D02*
X016113Y023101D01*
X016110Y023002D02*
X014154Y023002D01*
X014074Y022904D02*
X016110Y022904D01*
X016140Y022805D02*
X014086Y022805D01*
X014040Y022830D02*
X014040Y022830D01*
X014422Y022707D02*
X016181Y022707D01*
X016219Y022608D02*
X014469Y022608D01*
X014465Y022510D02*
X016219Y022510D01*
X016219Y022411D02*
X014465Y022411D01*
X014465Y022313D02*
X016219Y022313D01*
X016219Y022214D02*
X014465Y022214D01*
X014384Y022116D02*
X016219Y022116D01*
X016219Y022017D02*
X014030Y022017D01*
X014040Y022037D02*
X014040Y022037D01*
X014111Y021919D02*
X016219Y021919D01*
X016219Y021820D02*
X014196Y021820D01*
X014226Y021722D02*
X016219Y021722D01*
X016219Y021623D02*
X014223Y021623D01*
X014128Y021525D02*
X016219Y021525D01*
X016219Y021426D02*
X014029Y021426D01*
X013937Y021328D02*
X016219Y021328D01*
X016219Y021229D02*
X011692Y021229D01*
X011829Y021172D02*
X011518Y021301D01*
X011183Y021301D01*
X010873Y021172D01*
X010635Y020935D01*
X010507Y020625D01*
X010507Y020289D01*
X010635Y019979D01*
X010873Y019742D01*
X011183Y019613D01*
X011518Y019613D01*
X011829Y019742D01*
X012066Y019979D01*
X012194Y020289D01*
X012194Y020625D01*
X012066Y020935D01*
X011829Y021172D01*
X011870Y021131D02*
X016219Y021131D01*
X016219Y021032D02*
X011969Y021032D01*
X012066Y020934D02*
X016219Y020934D01*
X016219Y020835D02*
X012107Y020835D01*
X012148Y020737D02*
X016219Y020737D01*
X016219Y020638D02*
X012189Y020638D01*
X012194Y020540D02*
X016219Y020540D01*
X016219Y020441D02*
X012194Y020441D01*
X012194Y020343D02*
X016219Y020343D01*
X016219Y020244D02*
X012176Y020244D01*
X012135Y020146D02*
X016219Y020146D01*
X016219Y020047D02*
X012094Y020047D01*
X012035Y019949D02*
X016219Y019949D01*
X016219Y019850D02*
X011937Y019850D01*
X011838Y019752D02*
X016219Y019752D01*
X016219Y019653D02*
X011614Y019653D01*
X011087Y019653D02*
X008651Y019653D01*
X008651Y019555D02*
X016219Y019555D01*
X016219Y019456D02*
X008651Y019456D01*
X008651Y019358D02*
X016219Y019358D01*
X016219Y019259D02*
X008651Y019259D01*
X008651Y019161D02*
X016219Y019161D01*
X016219Y019062D02*
X008651Y019062D01*
X008651Y018964D02*
X016219Y018964D01*
X016219Y018865D02*
X013534Y018865D01*
X013604Y018836D02*
X013440Y018904D01*
X013262Y018904D01*
X013097Y018836D01*
X012972Y018710D01*
X012903Y018546D01*
X012903Y018368D01*
X012972Y018204D01*
X013097Y018078D01*
X013262Y018010D01*
X013440Y018010D01*
X013604Y018078D01*
X013730Y018204D01*
X013798Y018368D01*
X013798Y018546D01*
X013730Y018710D01*
X013604Y018836D01*
X013674Y018767D02*
X016219Y018767D01*
X016219Y018668D02*
X013747Y018668D01*
X013788Y018570D02*
X016219Y018570D01*
X016225Y018471D02*
X013798Y018471D01*
X013798Y018373D02*
X016278Y018373D01*
X016377Y018274D02*
X013759Y018274D01*
X013701Y018176D02*
X016475Y018176D01*
X016574Y018077D02*
X013602Y018077D01*
X013498Y017880D02*
X016771Y017880D01*
X016869Y017782D02*
X013659Y017782D01*
X013604Y017836D02*
X013440Y017904D01*
X013262Y017904D01*
X013097Y017836D01*
X012972Y017710D01*
X012903Y017546D01*
X012903Y017368D01*
X012972Y017204D01*
X013097Y017078D01*
X013262Y017010D01*
X013440Y017010D01*
X013604Y017078D01*
X013730Y017204D01*
X013798Y017368D01*
X013798Y017546D01*
X013730Y017710D01*
X013604Y017836D01*
X013741Y017683D02*
X016927Y017683D01*
X016927Y017585D02*
X013782Y017585D01*
X013798Y017486D02*
X016961Y017486D01*
X017552Y017486D02*
X018187Y017486D01*
X018187Y017388D02*
X013798Y017388D01*
X013765Y017289D02*
X018187Y017289D01*
X018187Y017191D02*
X013716Y017191D01*
X013618Y017092D02*
X018187Y017092D01*
X018187Y016994D02*
X012007Y016994D01*
X012066Y016935D02*
X011829Y017172D01*
X011518Y017301D01*
X011183Y017301D01*
X010873Y017172D01*
X010635Y016935D01*
X010507Y016625D01*
X010507Y016289D01*
X010635Y015979D01*
X010873Y015742D01*
X011183Y015613D01*
X011518Y015613D01*
X011829Y015742D01*
X012066Y015979D01*
X012194Y016289D01*
X012194Y016625D01*
X012066Y016935D01*
X012082Y016895D02*
X018187Y016895D01*
X018187Y016797D02*
X012123Y016797D01*
X012164Y016698D02*
X018187Y016698D01*
X018187Y016600D02*
X012194Y016600D01*
X012194Y016501D02*
X018187Y016501D01*
X018187Y016403D02*
X012194Y016403D01*
X012194Y016304D02*
X018187Y016304D01*
X018187Y016206D02*
X012160Y016206D01*
X012119Y016107D02*
X018187Y016107D01*
X018187Y016080D02*
X016209Y014102D01*
X016139Y014032D01*
X016101Y013940D01*
X012076Y013940D01*
X012066Y013916D02*
X012194Y014226D01*
X012194Y014562D01*
X012066Y014872D01*
X011829Y015109D01*
X011518Y015238D01*
X011183Y015238D01*
X010873Y015109D01*
X010635Y014872D01*
X010507Y014562D01*
X010507Y014226D01*
X010635Y013916D01*
X010873Y013679D01*
X011183Y013550D01*
X011518Y013550D01*
X011829Y013679D01*
X012066Y013916D01*
X011991Y013842D02*
X016101Y013842D01*
X016101Y013940D02*
X016101Y012014D01*
X015925Y012014D01*
X015825Y011915D01*
X015825Y011696D01*
X015666Y011537D01*
X015628Y011445D01*
X015628Y004943D01*
X015666Y004851D01*
X015737Y004781D01*
X015933Y004584D01*
X016025Y004546D01*
X017618Y004546D01*
X017696Y004467D01*
X018155Y004467D01*
X018254Y004567D01*
X018254Y005025D01*
X018155Y005124D01*
X017696Y005124D01*
X017618Y005046D01*
X016179Y005046D01*
X016128Y005096D01*
X016128Y007019D01*
X016200Y006947D01*
X016659Y006947D01*
X016758Y007047D01*
X016758Y007505D01*
X016719Y007545D01*
X016719Y010558D01*
X018067Y011907D01*
X018137Y011977D01*
X018175Y012069D01*
X018175Y012834D01*
X018215Y012874D01*
X018215Y013078D01*
X019161Y014024D01*
X019199Y014116D01*
X019199Y017223D01*
X019218Y017223D01*
X019317Y017322D01*
X019317Y017859D01*
X019218Y017959D01*
X018687Y017959D01*
X018687Y018561D01*
X019414Y018561D01*
X019514Y018661D01*
X019514Y019119D01*
X019414Y019219D01*
X018956Y019219D01*
X018857Y019119D01*
X018857Y019061D01*
X018687Y019061D01*
X018687Y022445D01*
X018757Y022445D01*
X018956Y022527D01*
X019108Y022679D01*
X019190Y022877D01*
X019190Y023092D01*
X019108Y023291D01*
X018956Y023442D01*
X018757Y023525D01*
X018542Y023525D01*
X018344Y023442D01*
X018192Y023291D01*
X018110Y023092D01*
X018110Y022877D01*
X018187Y022690D01*
X018187Y016080D01*
X018115Y016009D02*
X012078Y016009D01*
X011997Y015910D02*
X018017Y015910D01*
X017918Y015812D02*
X011898Y015812D01*
X011759Y015713D02*
X017820Y015713D01*
X017721Y015615D02*
X011521Y015615D01*
X011180Y015615D02*
X008651Y015615D01*
X008651Y015713D02*
X010942Y015713D01*
X010803Y015812D02*
X008651Y015812D01*
X008651Y015910D02*
X010705Y015910D01*
X010623Y016009D02*
X008651Y016009D01*
X008651Y016107D02*
X010582Y016107D01*
X010542Y016206D02*
X008651Y016206D01*
X008651Y016304D02*
X010507Y016304D01*
X010507Y016403D02*
X008651Y016403D01*
X008651Y016501D02*
X010507Y016501D01*
X010507Y016600D02*
X008651Y016600D01*
X008651Y016698D02*
X010537Y016698D01*
X010578Y016797D02*
X008651Y016797D01*
X008651Y016895D02*
X010619Y016895D01*
X010694Y016994D02*
X008651Y016994D01*
X008651Y017092D02*
X010792Y017092D01*
X010917Y017191D02*
X008651Y017191D01*
X008651Y017289D02*
X011154Y017289D01*
X011547Y017289D02*
X012936Y017289D01*
X012903Y017388D02*
X008651Y017388D01*
X008651Y017486D02*
X012903Y017486D01*
X012919Y017585D02*
X008651Y017585D01*
X008651Y017683D02*
X012960Y017683D01*
X013043Y017782D02*
X008651Y017782D01*
X008651Y017880D02*
X013203Y017880D01*
X013100Y018077D02*
X008651Y018077D01*
X008651Y017979D02*
X016672Y017979D01*
X017084Y018274D02*
X018187Y018274D01*
X018187Y018176D02*
X017183Y018176D01*
X016986Y018373D02*
X018187Y018373D01*
X018187Y018471D02*
X016887Y018471D01*
X016789Y018570D02*
X018187Y018570D01*
X018187Y018668D02*
X016719Y018668D01*
X016719Y018767D02*
X018187Y018767D01*
X018187Y018865D02*
X016719Y018865D01*
X016719Y018964D02*
X018187Y018964D01*
X018187Y019062D02*
X016719Y019062D01*
X016719Y019161D02*
X018187Y019161D01*
X018187Y019259D02*
X016719Y019259D01*
X016719Y019358D02*
X018187Y019358D01*
X018187Y019456D02*
X016719Y019456D01*
X016719Y019555D02*
X018187Y019555D01*
X018187Y019653D02*
X016719Y019653D01*
X016719Y019752D02*
X018187Y019752D01*
X018187Y019850D02*
X016719Y019850D01*
X016719Y019949D02*
X018187Y019949D01*
X018187Y020047D02*
X016719Y020047D01*
X016719Y020146D02*
X018187Y020146D01*
X018187Y020244D02*
X016719Y020244D01*
X016719Y020343D02*
X018187Y020343D01*
X018187Y020441D02*
X016719Y020441D01*
X016719Y020540D02*
X018187Y020540D01*
X018187Y020638D02*
X016719Y020638D01*
X016719Y020737D02*
X018187Y020737D01*
X018187Y020835D02*
X016719Y020835D01*
X016719Y020934D02*
X018187Y020934D01*
X018187Y021032D02*
X016719Y021032D01*
X016719Y021131D02*
X018187Y021131D01*
X018187Y021229D02*
X016719Y021229D01*
X016719Y021328D02*
X018187Y021328D01*
X018187Y021426D02*
X016719Y021426D01*
X016719Y021525D02*
X018187Y021525D01*
X018187Y021623D02*
X016719Y021623D01*
X016719Y021722D02*
X018187Y021722D01*
X018187Y021820D02*
X016719Y021820D01*
X016719Y021919D02*
X018187Y021919D01*
X018187Y022017D02*
X016719Y022017D01*
X016719Y022116D02*
X018187Y022116D01*
X018187Y022214D02*
X016719Y022214D01*
X016719Y022313D02*
X018187Y022313D01*
X018187Y022411D02*
X016719Y022411D01*
X016914Y022510D02*
X018187Y022510D01*
X018187Y022608D02*
X017037Y022608D01*
X017119Y022707D02*
X018181Y022707D01*
X018140Y022805D02*
X017160Y022805D01*
X017190Y022904D02*
X018110Y022904D01*
X018110Y023002D02*
X017190Y023002D01*
X017186Y023101D02*
X018113Y023101D01*
X018154Y023199D02*
X017146Y023199D01*
X017101Y023298D02*
X018199Y023298D01*
X018298Y023396D02*
X017002Y023396D01*
X016830Y023495D02*
X018470Y023495D01*
X018830Y023495D02*
X024991Y023495D01*
X024951Y023396D02*
X019002Y023396D01*
X019101Y023298D02*
X024936Y023298D01*
X024920Y023199D02*
X019146Y023199D01*
X019186Y023101D02*
X024905Y023101D01*
X024889Y023002D02*
X019190Y023002D01*
X019190Y022904D02*
X024899Y022904D01*
X024915Y022805D02*
X019160Y022805D01*
X019119Y022707D02*
X024930Y022707D01*
X024946Y022608D02*
X019037Y022608D01*
X018914Y022510D02*
X024974Y022510D01*
X025024Y022411D02*
X018687Y022411D01*
X018687Y022313D02*
X025074Y022313D01*
X025124Y022214D02*
X018687Y022214D01*
X018687Y022116D02*
X025190Y022116D01*
X025288Y022017D02*
X018687Y022017D01*
X018687Y021919D02*
X025387Y021919D01*
X025497Y021820D02*
X018687Y021820D01*
X018687Y021722D02*
X025690Y021722D01*
X025911Y021623D02*
X018687Y021623D01*
X018687Y021525D02*
X027436Y021525D01*
X027436Y021623D02*
X026712Y021623D01*
X026932Y021722D02*
X027436Y021722D01*
X027436Y021820D02*
X027126Y021820D01*
X027236Y021919D02*
X027436Y021919D01*
X027436Y022017D02*
X027334Y022017D01*
X027433Y022116D02*
X027436Y022116D01*
X027436Y021426D02*
X018687Y021426D01*
X018687Y021328D02*
X027436Y021328D01*
X027436Y021229D02*
X025077Y021229D01*
X025214Y021172D02*
X024904Y021301D01*
X024569Y021301D01*
X024259Y021172D01*
X024021Y020935D01*
X023893Y020625D01*
X023893Y020289D01*
X024021Y019979D01*
X024259Y019742D01*
X024569Y019613D01*
X024904Y019613D01*
X025214Y019742D01*
X025452Y019979D01*
X025580Y020289D01*
X025580Y020625D01*
X025452Y020935D01*
X025214Y021172D01*
X025256Y021131D02*
X027436Y021131D01*
X027436Y021032D02*
X025355Y021032D01*
X025452Y020934D02*
X027436Y020934D01*
X027436Y020835D02*
X025493Y020835D01*
X025534Y020737D02*
X027436Y020737D01*
X027436Y020638D02*
X025575Y020638D01*
X025580Y020540D02*
X027436Y020540D01*
X027436Y020441D02*
X025580Y020441D01*
X025580Y020343D02*
X027436Y020343D01*
X027436Y020244D02*
X025561Y020244D01*
X025521Y020146D02*
X027436Y020146D01*
X027436Y020047D02*
X025480Y020047D01*
X025421Y019949D02*
X027436Y019949D01*
X027436Y019850D02*
X025323Y019850D01*
X025224Y019752D02*
X027436Y019752D01*
X027436Y019653D02*
X025000Y019653D01*
X024473Y019653D02*
X018687Y019653D01*
X018687Y019555D02*
X027436Y019555D01*
X027436Y019456D02*
X018687Y019456D01*
X018687Y019358D02*
X027436Y019358D01*
X027436Y019259D02*
X018687Y019259D01*
X018687Y019161D02*
X018898Y019161D01*
X018857Y019062D02*
X018687Y019062D01*
X018687Y019752D02*
X024249Y019752D01*
X024150Y019850D02*
X018687Y019850D01*
X018687Y019949D02*
X024052Y019949D01*
X023993Y020047D02*
X018687Y020047D01*
X018687Y020146D02*
X023952Y020146D01*
X023911Y020244D02*
X018687Y020244D01*
X018687Y020343D02*
X023893Y020343D01*
X023893Y020441D02*
X018687Y020441D01*
X018687Y020540D02*
X023893Y020540D01*
X023898Y020638D02*
X018687Y020638D01*
X018687Y020737D02*
X023939Y020737D01*
X023980Y020835D02*
X018687Y020835D01*
X018687Y020934D02*
X024021Y020934D01*
X024118Y021032D02*
X018687Y021032D01*
X018687Y021131D02*
X024217Y021131D01*
X024395Y021229D02*
X018687Y021229D01*
X019473Y019161D02*
X027436Y019161D01*
X027436Y019062D02*
X019514Y019062D01*
X019514Y018964D02*
X027436Y018964D01*
X027436Y018865D02*
X022920Y018865D01*
X022990Y018836D02*
X022825Y018904D01*
X022648Y018904D01*
X022483Y018836D01*
X022357Y018710D01*
X022289Y018546D01*
X022289Y018368D01*
X022357Y018204D01*
X022483Y018078D01*
X022648Y018010D01*
X022825Y018010D01*
X022990Y018078D01*
X023116Y018204D01*
X023184Y018368D01*
X023184Y018546D01*
X023116Y018710D01*
X022990Y018836D01*
X023059Y018767D02*
X027436Y018767D01*
X027436Y018668D02*
X023133Y018668D01*
X023174Y018570D02*
X027436Y018570D01*
X027436Y018471D02*
X023184Y018471D01*
X023184Y018373D02*
X027436Y018373D01*
X027436Y018274D02*
X023145Y018274D01*
X023087Y018176D02*
X027436Y018176D01*
X027436Y018077D02*
X022987Y018077D01*
X022485Y018077D02*
X018687Y018077D01*
X018687Y017979D02*
X027436Y017979D01*
X027436Y017880D02*
X019297Y017880D01*
X019317Y017782D02*
X027436Y017782D01*
X027436Y017683D02*
X019317Y017683D01*
X019317Y017585D02*
X027436Y017585D01*
X027436Y017486D02*
X019317Y017486D01*
X019317Y017388D02*
X027436Y017388D01*
X027436Y017289D02*
X024933Y017289D01*
X024904Y017301D02*
X025214Y017172D01*
X025452Y016935D01*
X025580Y016625D01*
X025580Y016289D01*
X025452Y015979D01*
X025214Y015742D01*
X024904Y015613D01*
X024569Y015613D01*
X024259Y015742D01*
X024021Y015979D01*
X023893Y016289D01*
X023893Y016625D01*
X024021Y016935D01*
X024259Y017172D01*
X024569Y017301D01*
X024904Y017301D01*
X025170Y017191D02*
X027436Y017191D01*
X027436Y017092D02*
X025295Y017092D01*
X025393Y016994D02*
X027436Y016994D01*
X027436Y016895D02*
X025468Y016895D01*
X025509Y016797D02*
X027436Y016797D01*
X027436Y016698D02*
X025550Y016698D01*
X025580Y016600D02*
X027436Y016600D01*
X027436Y016501D02*
X025580Y016501D01*
X025580Y016403D02*
X027436Y016403D01*
X027436Y016304D02*
X025580Y016304D01*
X025545Y016206D02*
X027436Y016206D01*
X027436Y016107D02*
X025505Y016107D01*
X025464Y016009D02*
X027436Y016009D01*
X027436Y015910D02*
X025383Y015910D01*
X025284Y015812D02*
X027436Y015812D01*
X027436Y015713D02*
X025145Y015713D01*
X024907Y015615D02*
X027436Y015615D01*
X027436Y015516D02*
X019199Y015516D01*
X019199Y015418D02*
X027436Y015418D01*
X027436Y015319D02*
X019199Y015319D01*
X019199Y015221D02*
X027436Y015221D01*
X027436Y015122D02*
X019199Y015122D01*
X019199Y015024D02*
X027436Y015024D01*
X027436Y014925D02*
X019199Y014925D01*
X019199Y014827D02*
X027436Y014827D01*
X027436Y014728D02*
X019199Y014728D01*
X019199Y014630D02*
X027436Y014630D01*
X027436Y014531D02*
X019199Y014531D01*
X019199Y014433D02*
X027436Y014433D01*
X027436Y014334D02*
X019199Y014334D01*
X019199Y014236D02*
X027436Y014236D01*
X027436Y014137D02*
X019199Y014137D01*
X019167Y014039D02*
X027436Y014039D01*
X027436Y013940D02*
X019077Y013940D01*
X018978Y013842D02*
X027436Y013842D01*
X027436Y013743D02*
X018880Y013743D01*
X018781Y013645D02*
X027436Y013645D01*
X027436Y013546D02*
X018683Y013546D01*
X018584Y013448D02*
X027436Y013448D01*
X027436Y013349D02*
X018486Y013349D01*
X018387Y013251D02*
X027436Y013251D01*
X027436Y013152D02*
X018289Y013152D01*
X018215Y013054D02*
X027436Y013054D01*
X027436Y012955D02*
X018215Y012955D01*
X018198Y012857D02*
X027436Y012857D01*
X027436Y012758D02*
X018175Y012758D01*
X018175Y012660D02*
X027436Y012660D01*
X027436Y012561D02*
X018175Y012561D01*
X018175Y012463D02*
X027436Y012463D01*
X027436Y012364D02*
X018175Y012364D01*
X018175Y012266D02*
X027436Y012266D01*
X027436Y012167D02*
X018175Y012167D01*
X018175Y012069D02*
X027436Y012069D01*
X027436Y011970D02*
X018131Y011970D01*
X018032Y011872D02*
X027436Y011872D01*
X027436Y011773D02*
X017934Y011773D01*
X017835Y011675D02*
X027436Y011675D01*
X027436Y011576D02*
X017737Y011576D01*
X017638Y011478D02*
X027436Y011478D01*
X027436Y011379D02*
X017540Y011379D01*
X017441Y011281D02*
X027436Y011281D01*
X027436Y011182D02*
X017343Y011182D01*
X017244Y011084D02*
X027436Y011084D01*
X027436Y010985D02*
X017146Y010985D01*
X017047Y010887D02*
X027436Y010887D01*
X027436Y010788D02*
X016949Y010788D01*
X016850Y010690D02*
X027436Y010690D01*
X027436Y010591D02*
X016752Y010591D01*
X016719Y010493D02*
X027436Y010493D01*
X027436Y010394D02*
X016719Y010394D01*
X016719Y010296D02*
X027436Y010296D01*
X027436Y010197D02*
X016719Y010197D01*
X016719Y010099D02*
X027436Y010099D01*
X027436Y010000D02*
X016719Y010000D01*
X016719Y009902D02*
X027436Y009902D01*
X027436Y009803D02*
X016719Y009803D01*
X016719Y009705D02*
X027436Y009705D01*
X027436Y009606D02*
X016719Y009606D01*
X016719Y009508D02*
X027436Y009508D01*
X027436Y009409D02*
X016719Y009409D01*
X016719Y009311D02*
X027436Y009311D01*
X027436Y009212D02*
X016719Y009212D01*
X016719Y009114D02*
X024373Y009114D01*
X024259Y009066D02*
X024021Y008829D01*
X023893Y008519D01*
X023893Y008183D01*
X024021Y007873D01*
X024259Y007636D01*
X024569Y007507D01*
X024904Y007507D01*
X025214Y007636D01*
X025452Y007873D01*
X025580Y008183D01*
X025580Y008519D01*
X025452Y008829D01*
X025214Y009066D01*
X024904Y009194D01*
X024569Y009194D01*
X024259Y009066D01*
X024208Y009015D02*
X016719Y009015D01*
X016719Y008917D02*
X024109Y008917D01*
X024017Y008818D02*
X016719Y008818D01*
X016719Y008720D02*
X023976Y008720D01*
X023935Y008621D02*
X016719Y008621D01*
X016719Y008523D02*
X023894Y008523D01*
X023893Y008424D02*
X016719Y008424D01*
X016719Y008326D02*
X023893Y008326D01*
X023893Y008227D02*
X016719Y008227D01*
X016719Y008129D02*
X023915Y008129D01*
X023956Y008030D02*
X016719Y008030D01*
X016719Y007932D02*
X023997Y007932D01*
X024061Y007833D02*
X016719Y007833D01*
X016719Y007735D02*
X024160Y007735D01*
X024258Y007636D02*
X016719Y007636D01*
X016726Y007538D02*
X024495Y007538D01*
X024978Y007538D02*
X027436Y007538D01*
X027436Y007636D02*
X025215Y007636D01*
X025313Y007735D02*
X027436Y007735D01*
X027436Y007833D02*
X025412Y007833D01*
X025476Y007932D02*
X027436Y007932D01*
X027436Y008030D02*
X025517Y008030D01*
X025558Y008129D02*
X027436Y008129D01*
X027436Y008227D02*
X025580Y008227D01*
X025580Y008326D02*
X027436Y008326D01*
X027436Y008424D02*
X025580Y008424D01*
X025579Y008523D02*
X027436Y008523D01*
X027436Y008621D02*
X025538Y008621D01*
X025497Y008720D02*
X027436Y008720D01*
X027436Y008818D02*
X025456Y008818D01*
X025364Y008917D02*
X027436Y008917D01*
X027436Y009015D02*
X025265Y009015D01*
X025100Y009114D02*
X027436Y009114D01*
X027436Y007439D02*
X016758Y007439D01*
X016758Y007341D02*
X027436Y007341D01*
X027436Y007242D02*
X016758Y007242D01*
X016758Y007144D02*
X027436Y007144D01*
X027436Y007045D02*
X016756Y007045D01*
X016128Y006947D02*
X027436Y006947D01*
X027436Y006848D02*
X016128Y006848D01*
X016128Y006750D02*
X022531Y006750D01*
X022483Y006730D02*
X022357Y006604D01*
X022289Y006440D01*
X022289Y006262D01*
X022357Y006097D01*
X022483Y005972D01*
X022648Y005904D01*
X022825Y005904D01*
X022990Y005972D01*
X023116Y006097D01*
X023184Y006262D01*
X023184Y006440D01*
X023116Y006604D01*
X022990Y006730D01*
X022825Y006798D01*
X022648Y006798D01*
X022483Y006730D01*
X022404Y006651D02*
X016128Y006651D01*
X016128Y006553D02*
X022336Y006553D01*
X022295Y006454D02*
X016128Y006454D01*
X016128Y006356D02*
X022289Y006356D01*
X022291Y006257D02*
X016128Y006257D01*
X016128Y006159D02*
X022332Y006159D01*
X022395Y006060D02*
X016128Y006060D01*
X016128Y005962D02*
X022508Y005962D01*
X022965Y005962D02*
X027436Y005962D01*
X027436Y006060D02*
X023078Y006060D01*
X023141Y006159D02*
X027436Y006159D01*
X027436Y006257D02*
X023182Y006257D01*
X023184Y006356D02*
X027436Y006356D01*
X027436Y006454D02*
X023178Y006454D01*
X023137Y006553D02*
X027436Y006553D01*
X027436Y006651D02*
X023069Y006651D01*
X022942Y006750D02*
X027436Y006750D01*
X027436Y005863D02*
X016128Y005863D01*
X016128Y005765D02*
X027436Y005765D01*
X027436Y005666D02*
X016128Y005666D01*
X016128Y005568D02*
X027436Y005568D01*
X027436Y005469D02*
X016128Y005469D01*
X016128Y005371D02*
X027436Y005371D01*
X027436Y005272D02*
X016128Y005272D01*
X016128Y005174D02*
X024518Y005174D01*
X024569Y005194D02*
X024259Y005066D01*
X024021Y004829D01*
X023893Y004519D01*
X023893Y004183D01*
X024021Y003873D01*
X024259Y003636D01*
X024569Y003507D01*
X024904Y003507D01*
X025214Y003636D01*
X025452Y003873D01*
X025580Y004183D01*
X025580Y004519D01*
X025452Y004829D01*
X025214Y005066D01*
X024904Y005194D01*
X024569Y005194D01*
X024280Y005075D02*
X018204Y005075D01*
X018254Y004977D02*
X024169Y004977D01*
X024071Y004878D02*
X018254Y004878D01*
X018254Y004780D02*
X024001Y004780D01*
X023960Y004681D02*
X018254Y004681D01*
X018254Y004583D02*
X023919Y004583D01*
X023893Y004484D02*
X018172Y004484D01*
X017679Y004484D02*
X012194Y004484D01*
X012194Y004519D02*
X012066Y004829D01*
X011829Y005066D01*
X011518Y005194D01*
X011183Y005194D01*
X010873Y005066D01*
X010635Y004829D01*
X010507Y004519D01*
X010507Y004183D01*
X010635Y003873D01*
X010873Y003636D01*
X011183Y003507D01*
X011518Y003507D01*
X011829Y003636D01*
X012066Y003873D01*
X012194Y004183D01*
X012194Y004519D01*
X012168Y004583D02*
X015936Y004583D01*
X015836Y004681D02*
X012127Y004681D01*
X012086Y004780D02*
X015738Y004780D01*
X015655Y004878D02*
X012017Y004878D01*
X011918Y004977D02*
X013093Y004977D01*
X013097Y004972D02*
X013262Y004904D01*
X013440Y004904D01*
X013604Y004972D01*
X013730Y005097D01*
X013798Y005262D01*
X013798Y005440D01*
X013730Y005604D01*
X013604Y005730D01*
X013440Y005798D01*
X013262Y005798D01*
X013097Y005730D01*
X012972Y005604D01*
X012903Y005440D01*
X012903Y005262D01*
X012972Y005097D01*
X013097Y004972D01*
X012994Y005075D02*
X011807Y005075D01*
X011569Y005174D02*
X012940Y005174D01*
X012903Y005272D02*
X008651Y005272D01*
X008651Y005174D02*
X011132Y005174D01*
X010894Y005075D02*
X008651Y005075D01*
X008651Y004977D02*
X010783Y004977D01*
X010685Y004878D02*
X008651Y004878D01*
X008651Y004780D02*
X010615Y004780D01*
X010574Y004681D02*
X008651Y004681D01*
X008651Y004583D02*
X010533Y004583D01*
X010507Y004484D02*
X008651Y004484D01*
X008651Y004386D02*
X010507Y004386D01*
X010507Y004287D02*
X008651Y004287D01*
X008651Y004189D02*
X010507Y004189D01*
X010545Y004090D02*
X008651Y004090D01*
X008651Y003992D02*
X010586Y003992D01*
X010627Y003893D02*
X008651Y003893D01*
X008651Y003795D02*
X010714Y003795D01*
X010812Y003696D02*
X008651Y003696D01*
X008651Y003598D02*
X010965Y003598D01*
X011737Y003598D02*
X024350Y003598D01*
X024198Y003696D02*
X011889Y003696D01*
X011988Y003795D02*
X024100Y003795D01*
X024013Y003893D02*
X012074Y003893D01*
X012115Y003992D02*
X023972Y003992D01*
X023931Y004090D02*
X012156Y004090D01*
X012194Y004189D02*
X023893Y004189D01*
X023893Y004287D02*
X012194Y004287D01*
X012194Y004386D02*
X023893Y004386D01*
X024955Y005174D02*
X027436Y005174D01*
X027436Y005075D02*
X025193Y005075D01*
X025304Y004977D02*
X027436Y004977D01*
X027436Y004878D02*
X025402Y004878D01*
X025472Y004780D02*
X027436Y004780D01*
X027436Y004681D02*
X025513Y004681D01*
X025554Y004583D02*
X027436Y004583D01*
X027436Y004484D02*
X025580Y004484D01*
X025580Y004386D02*
X027436Y004386D01*
X027436Y004287D02*
X025580Y004287D01*
X025580Y004189D02*
X027436Y004189D01*
X027436Y004090D02*
X025542Y004090D01*
X025501Y003992D02*
X027436Y003992D01*
X027436Y003893D02*
X025460Y003893D01*
X025373Y003795D02*
X027436Y003795D01*
X027436Y003696D02*
X025275Y003696D01*
X025123Y003598D02*
X027436Y003598D01*
X027436Y003499D02*
X008651Y003499D01*
X008651Y003401D02*
X027436Y003401D01*
X027436Y003302D02*
X008651Y003302D01*
X008651Y003204D02*
X027436Y003204D01*
X027436Y003105D02*
X026594Y003105D01*
X026896Y003007D02*
X027436Y003007D01*
X027436Y002908D02*
X027089Y002908D01*
X027217Y002810D02*
X027436Y002810D01*
X027436Y002711D02*
X027315Y002711D01*
X027414Y002613D02*
X027436Y002613D01*
X026028Y003105D02*
X010059Y003105D01*
X010361Y003007D02*
X025727Y003007D01*
X025533Y002908D02*
X010554Y002908D01*
X010682Y002810D02*
X025406Y002810D01*
X025307Y002711D02*
X010780Y002711D01*
X010879Y002613D02*
X025209Y002613D01*
X025134Y002514D02*
X010953Y002514D01*
X011004Y002416D02*
X025084Y002416D01*
X025033Y002317D02*
X011054Y002317D01*
X011104Y002219D02*
X024983Y002219D01*
X024949Y002120D02*
X011138Y002120D01*
X011154Y002022D02*
X024933Y002022D01*
X024918Y001923D02*
X011169Y001923D01*
X011185Y001825D02*
X024902Y001825D01*
X024886Y001726D02*
X011201Y001726D01*
X011185Y001628D02*
X024902Y001628D01*
X024917Y001529D02*
X011170Y001529D01*
X011154Y001431D02*
X024933Y001431D01*
X024948Y001332D02*
X011139Y001332D01*
X011105Y001234D02*
X024982Y001234D01*
X025032Y001135D02*
X011055Y001135D01*
X011005Y001037D02*
X025082Y001037D01*
X025133Y000938D02*
X010955Y000938D01*
X010881Y000840D02*
X025206Y000840D01*
X025305Y000741D02*
X010782Y000741D01*
X010684Y000643D02*
X025403Y000643D01*
X017647Y005075D02*
X016149Y005075D01*
X015628Y005075D02*
X013707Y005075D01*
X013761Y005174D02*
X015628Y005174D01*
X015628Y005272D02*
X013798Y005272D01*
X013798Y005371D02*
X015628Y005371D01*
X015628Y005469D02*
X013786Y005469D01*
X013745Y005568D02*
X015628Y005568D01*
X015628Y005666D02*
X013668Y005666D01*
X013520Y005765D02*
X015628Y005765D01*
X015628Y005863D02*
X008651Y005863D01*
X008651Y005765D02*
X013181Y005765D01*
X013262Y005904D02*
X013440Y005904D01*
X013604Y005972D01*
X013730Y006097D01*
X013798Y006262D01*
X013798Y006440D01*
X013730Y006604D01*
X013604Y006730D01*
X013440Y006798D01*
X013262Y006798D01*
X013097Y006730D01*
X012972Y006604D01*
X012903Y006440D01*
X012903Y006262D01*
X012972Y006097D01*
X013097Y005972D01*
X013262Y005904D01*
X013122Y005962D02*
X008651Y005962D01*
X008651Y006060D02*
X013009Y006060D01*
X012946Y006159D02*
X008651Y006159D01*
X008651Y006257D02*
X012905Y006257D01*
X012903Y006356D02*
X008651Y006356D01*
X008651Y006454D02*
X012909Y006454D01*
X012950Y006553D02*
X008651Y006553D01*
X008651Y006651D02*
X013018Y006651D01*
X013145Y006750D02*
X008651Y006750D01*
X008651Y006848D02*
X015628Y006848D01*
X015628Y006750D02*
X013557Y006750D01*
X013683Y006651D02*
X015628Y006651D01*
X015628Y006553D02*
X013751Y006553D01*
X013792Y006454D02*
X015628Y006454D01*
X015628Y006356D02*
X013798Y006356D01*
X013796Y006257D02*
X015628Y006257D01*
X015628Y006159D02*
X013755Y006159D01*
X013692Y006060D02*
X015628Y006060D01*
X015628Y005962D02*
X013579Y005962D01*
X013033Y005666D02*
X008651Y005666D01*
X008651Y005568D02*
X012956Y005568D01*
X012916Y005469D02*
X008651Y005469D01*
X008651Y005371D02*
X012903Y005371D01*
X013609Y004977D02*
X015628Y004977D01*
X015628Y006947D02*
X008651Y006947D01*
X008651Y007045D02*
X015628Y007045D01*
X015628Y007144D02*
X008651Y007144D01*
X008651Y007242D02*
X015628Y007242D01*
X015628Y007341D02*
X008651Y007341D01*
X008651Y007439D02*
X015628Y007439D01*
X015628Y007538D02*
X011592Y007538D01*
X011518Y007507D02*
X011829Y007636D01*
X015628Y007636D01*
X015628Y007735D02*
X011928Y007735D01*
X012026Y007833D02*
X015628Y007833D01*
X015628Y007932D02*
X012090Y007932D01*
X012066Y007873D02*
X012194Y008183D01*
X012194Y008519D01*
X012066Y008829D01*
X011829Y009066D01*
X011518Y009194D01*
X011183Y009194D01*
X010873Y009066D01*
X010635Y008829D01*
X010507Y008519D01*
X010507Y008183D01*
X010635Y007873D01*
X010873Y007636D01*
X011183Y007507D01*
X011518Y007507D01*
X011829Y007636D02*
X012066Y007873D01*
X012131Y008030D02*
X015628Y008030D01*
X015628Y008129D02*
X012172Y008129D01*
X012194Y008227D02*
X015628Y008227D01*
X015628Y008326D02*
X012194Y008326D01*
X012194Y008424D02*
X015628Y008424D01*
X015628Y008523D02*
X012193Y008523D01*
X012152Y008621D02*
X015628Y008621D01*
X015628Y008720D02*
X012111Y008720D01*
X012070Y008818D02*
X015628Y008818D01*
X015628Y008917D02*
X011978Y008917D01*
X011880Y009015D02*
X015628Y009015D01*
X015628Y009114D02*
X011714Y009114D01*
X011518Y009550D02*
X011183Y009550D01*
X010873Y009679D01*
X010635Y009916D01*
X010507Y010226D01*
X010507Y010562D01*
X010635Y010872D01*
X010873Y011109D01*
X011183Y011238D01*
X011518Y011238D01*
X011829Y011109D01*
X012066Y010872D01*
X012194Y010562D01*
X012194Y010226D01*
X012066Y009916D01*
X011829Y009679D01*
X011518Y009550D01*
X011653Y009606D02*
X015628Y009606D01*
X015628Y009508D02*
X008651Y009508D01*
X008651Y009606D02*
X011049Y009606D01*
X010847Y009705D02*
X008651Y009705D01*
X008651Y009803D02*
X010749Y009803D01*
X010650Y009902D02*
X008651Y009902D01*
X008651Y010000D02*
X010601Y010000D01*
X010560Y010099D02*
X008651Y010099D01*
X008651Y010197D02*
X010519Y010197D01*
X010507Y010296D02*
X008651Y010296D01*
X008651Y010394D02*
X010507Y010394D01*
X010507Y010493D02*
X008651Y010493D01*
X008651Y010591D02*
X010519Y010591D01*
X010560Y010690D02*
X008651Y010690D01*
X008651Y010788D02*
X010601Y010788D01*
X010650Y010887D02*
X008651Y010887D01*
X008651Y010985D02*
X010748Y010985D01*
X010847Y011084D02*
X008651Y011084D01*
X008651Y011182D02*
X011048Y011182D01*
X011653Y011182D02*
X012954Y011182D01*
X012972Y011141D02*
X013097Y011015D01*
X013262Y010947D01*
X013440Y010947D01*
X013604Y011015D01*
X013730Y011141D01*
X013798Y011305D01*
X013798Y011483D01*
X013730Y011647D01*
X013604Y011773D01*
X015825Y011773D01*
X015825Y011872D02*
X008651Y011872D01*
X008651Y011970D02*
X013206Y011970D01*
X013262Y011947D02*
X013440Y011947D01*
X013604Y012015D01*
X013730Y012141D01*
X013798Y012305D01*
X013798Y012483D01*
X013730Y012647D01*
X013604Y012773D01*
X013440Y012841D01*
X013262Y012841D01*
X013097Y012773D01*
X012972Y012647D01*
X012903Y012483D01*
X012903Y012305D01*
X012972Y012141D01*
X013097Y012015D01*
X013262Y011947D01*
X013262Y011841D02*
X013097Y011773D01*
X008651Y011773D01*
X008651Y011675D02*
X012999Y011675D01*
X012972Y011647D02*
X013097Y011773D01*
X012972Y011647D02*
X012903Y011483D01*
X012903Y011305D01*
X012972Y011141D01*
X013029Y011084D02*
X011854Y011084D01*
X011953Y010985D02*
X013170Y010985D01*
X013532Y010985D02*
X015628Y010985D01*
X015628Y010887D02*
X012051Y010887D01*
X012101Y010788D02*
X015628Y010788D01*
X015628Y010690D02*
X012141Y010690D01*
X012182Y010591D02*
X015628Y010591D01*
X015628Y010493D02*
X012194Y010493D01*
X012194Y010394D02*
X015628Y010394D01*
X015628Y010296D02*
X012194Y010296D01*
X012182Y010197D02*
X015628Y010197D01*
X015628Y010099D02*
X012141Y010099D01*
X012101Y010000D02*
X015628Y010000D01*
X015628Y009902D02*
X012051Y009902D01*
X011953Y009803D02*
X015628Y009803D01*
X015628Y009705D02*
X011854Y009705D01*
X010987Y009114D02*
X008651Y009114D01*
X008651Y009212D02*
X015628Y009212D01*
X015628Y009311D02*
X008651Y009311D01*
X008651Y009409D02*
X015628Y009409D01*
X016128Y009409D02*
X016219Y009409D01*
X016219Y009311D02*
X016128Y009311D01*
X016128Y009212D02*
X016219Y009212D01*
X016219Y009114D02*
X016128Y009114D01*
X016128Y009015D02*
X016219Y009015D01*
X016219Y008917D02*
X016128Y008917D01*
X016128Y008818D02*
X016219Y008818D01*
X016219Y008720D02*
X016128Y008720D01*
X016128Y008621D02*
X016219Y008621D01*
X016219Y008523D02*
X016128Y008523D01*
X016128Y008424D02*
X016219Y008424D01*
X016219Y008326D02*
X016128Y008326D01*
X016128Y008227D02*
X016219Y008227D01*
X016219Y008129D02*
X016128Y008129D01*
X016128Y008030D02*
X016219Y008030D01*
X016219Y007932D02*
X016128Y007932D01*
X016128Y007833D02*
X016219Y007833D01*
X016219Y007735D02*
X016128Y007735D01*
X016128Y007636D02*
X016219Y007636D01*
X016219Y007605D02*
X016200Y007605D01*
X016128Y007533D01*
X016128Y011292D01*
X016193Y011357D01*
X016383Y011357D01*
X016483Y011456D01*
X016483Y011661D01*
X016563Y011741D01*
X016601Y011833D01*
X016601Y013787D01*
X018649Y015835D01*
X018687Y015927D01*
X018687Y017223D01*
X018699Y017223D01*
X018699Y014269D01*
X017861Y013431D01*
X017657Y013431D01*
X017557Y013332D01*
X017557Y012874D01*
X017657Y012774D01*
X017675Y012774D01*
X017675Y012222D01*
X016257Y010803D01*
X016219Y010712D01*
X016219Y007605D01*
X016133Y007538D02*
X016128Y007538D01*
X016128Y009508D02*
X016219Y009508D01*
X016219Y009606D02*
X016128Y009606D01*
X016128Y009705D02*
X016219Y009705D01*
X016219Y009803D02*
X016128Y009803D01*
X016128Y009902D02*
X016219Y009902D01*
X016219Y010000D02*
X016128Y010000D01*
X016128Y010099D02*
X016219Y010099D01*
X016219Y010197D02*
X016128Y010197D01*
X016128Y010296D02*
X016219Y010296D01*
X016219Y010394D02*
X016128Y010394D01*
X016128Y010493D02*
X016219Y010493D01*
X016219Y010591D02*
X016128Y010591D01*
X016128Y010690D02*
X016219Y010690D01*
X016250Y010788D02*
X016128Y010788D01*
X016128Y010887D02*
X016340Y010887D01*
X016438Y010985D02*
X016128Y010985D01*
X016128Y011084D02*
X016537Y011084D01*
X016635Y011182D02*
X016128Y011182D01*
X016128Y011281D02*
X016734Y011281D01*
X016832Y011379D02*
X016405Y011379D01*
X016483Y011478D02*
X016931Y011478D01*
X017029Y011576D02*
X016483Y011576D01*
X016496Y011675D02*
X017128Y011675D01*
X017226Y011773D02*
X016576Y011773D01*
X016601Y011872D02*
X017325Y011872D01*
X017423Y011970D02*
X016601Y011970D01*
X016601Y012069D02*
X017522Y012069D01*
X017620Y012167D02*
X016601Y012167D01*
X016601Y012266D02*
X017675Y012266D01*
X017675Y012364D02*
X016601Y012364D01*
X016601Y012463D02*
X017675Y012463D01*
X017675Y012561D02*
X016601Y012561D01*
X016601Y012660D02*
X017675Y012660D01*
X017675Y012758D02*
X016601Y012758D01*
X016601Y012857D02*
X017574Y012857D01*
X017557Y012955D02*
X016601Y012955D01*
X016601Y013054D02*
X017557Y013054D01*
X017557Y013152D02*
X016601Y013152D01*
X016601Y013251D02*
X017557Y013251D01*
X017574Y013349D02*
X016601Y013349D01*
X016601Y013448D02*
X017877Y013448D01*
X017976Y013546D02*
X016601Y013546D01*
X016601Y013645D02*
X018074Y013645D01*
X018173Y013743D02*
X016601Y013743D01*
X016656Y013842D02*
X018271Y013842D01*
X018370Y013940D02*
X016754Y013940D01*
X016853Y014039D02*
X018468Y014039D01*
X018567Y014137D02*
X016951Y014137D01*
X017050Y014236D02*
X018665Y014236D01*
X018699Y014334D02*
X017148Y014334D01*
X017247Y014433D02*
X018699Y014433D01*
X018699Y014531D02*
X017345Y014531D01*
X017444Y014630D02*
X018699Y014630D01*
X018699Y014728D02*
X017542Y014728D01*
X017641Y014827D02*
X018699Y014827D01*
X018699Y014925D02*
X017739Y014925D01*
X017838Y015024D02*
X018699Y015024D01*
X018699Y015122D02*
X017936Y015122D01*
X018035Y015221D02*
X018699Y015221D01*
X018699Y015319D02*
X018133Y015319D01*
X018232Y015418D02*
X018699Y015418D01*
X018699Y015516D02*
X018330Y015516D01*
X018429Y015615D02*
X018699Y015615D01*
X018699Y015713D02*
X018527Y015713D01*
X018626Y015812D02*
X018699Y015812D01*
X018699Y015910D02*
X018680Y015910D01*
X018687Y016009D02*
X018699Y016009D01*
X018687Y016107D02*
X018699Y016107D01*
X018687Y016206D02*
X018699Y016206D01*
X018687Y016304D02*
X018699Y016304D01*
X018687Y016403D02*
X018699Y016403D01*
X018687Y016501D02*
X018699Y016501D01*
X018687Y016600D02*
X018699Y016600D01*
X018687Y016698D02*
X018699Y016698D01*
X018687Y016797D02*
X018699Y016797D01*
X018687Y016895D02*
X018699Y016895D01*
X018687Y016994D02*
X018699Y016994D01*
X018687Y017092D02*
X018699Y017092D01*
X018687Y017191D02*
X018699Y017191D01*
X019199Y017191D02*
X024302Y017191D01*
X024178Y017092D02*
X019199Y017092D01*
X019199Y016994D02*
X024080Y016994D01*
X024005Y016895D02*
X019199Y016895D01*
X019199Y016797D02*
X023964Y016797D01*
X023923Y016698D02*
X019199Y016698D01*
X019199Y016600D02*
X023893Y016600D01*
X023893Y016501D02*
X019199Y016501D01*
X019199Y016403D02*
X023893Y016403D01*
X023893Y016304D02*
X019199Y016304D01*
X019199Y016206D02*
X023927Y016206D01*
X023968Y016107D02*
X019199Y016107D01*
X019199Y016009D02*
X024009Y016009D01*
X024090Y015910D02*
X019199Y015910D01*
X019199Y015812D02*
X024189Y015812D01*
X024328Y015713D02*
X019199Y015713D01*
X019199Y015615D02*
X024566Y015615D01*
X024540Y017289D02*
X019284Y017289D01*
X018187Y017585D02*
X017585Y017585D01*
X017585Y017683D02*
X018187Y017683D01*
X018187Y017782D02*
X017585Y017782D01*
X017585Y017880D02*
X018187Y017880D01*
X018187Y017979D02*
X017584Y017979D01*
X017485Y018077D02*
X018187Y018077D01*
X018687Y018176D02*
X022386Y018176D01*
X022328Y018274D02*
X018687Y018274D01*
X018687Y018373D02*
X022289Y018373D01*
X022289Y018471D02*
X018687Y018471D01*
X019423Y018570D02*
X022299Y018570D01*
X022340Y018668D02*
X019514Y018668D01*
X019514Y018767D02*
X022414Y018767D01*
X022553Y018865D02*
X019514Y018865D01*
X017623Y015516D02*
X008651Y015516D01*
X008651Y015418D02*
X017524Y015418D01*
X017426Y015319D02*
X008651Y015319D01*
X008651Y015221D02*
X011141Y015221D01*
X010903Y015122D02*
X008651Y015122D01*
X008651Y015024D02*
X010787Y015024D01*
X010688Y014925D02*
X008651Y014925D01*
X008651Y014827D02*
X010617Y014827D01*
X010576Y014728D02*
X008651Y014728D01*
X008651Y014630D02*
X010535Y014630D01*
X010507Y014531D02*
X008651Y014531D01*
X008651Y014433D02*
X010507Y014433D01*
X010507Y014334D02*
X008651Y014334D01*
X008651Y014236D02*
X010507Y014236D01*
X010544Y014137D02*
X008651Y014137D01*
X008651Y014039D02*
X010585Y014039D01*
X010625Y013940D02*
X008651Y013940D01*
X008651Y013842D02*
X010710Y013842D01*
X010809Y013743D02*
X008651Y013743D01*
X008651Y013645D02*
X010956Y013645D01*
X011746Y013645D02*
X016101Y013645D01*
X016101Y013743D02*
X011893Y013743D01*
X012117Y014039D02*
X016145Y014039D01*
X016244Y014137D02*
X012157Y014137D01*
X012194Y014236D02*
X016342Y014236D01*
X016441Y014334D02*
X012194Y014334D01*
X012194Y014433D02*
X016539Y014433D01*
X016638Y014531D02*
X012194Y014531D01*
X012166Y014630D02*
X016736Y014630D01*
X016835Y014728D02*
X012126Y014728D01*
X012085Y014827D02*
X016933Y014827D01*
X017032Y014925D02*
X012013Y014925D01*
X011914Y015024D02*
X017130Y015024D01*
X017229Y015122D02*
X011798Y015122D01*
X011560Y015221D02*
X017327Y015221D01*
X016101Y013546D02*
X008651Y013546D01*
X008651Y013448D02*
X016101Y013448D01*
X016101Y013349D02*
X008651Y013349D01*
X008651Y013251D02*
X016101Y013251D01*
X016101Y013152D02*
X008651Y013152D01*
X008651Y013054D02*
X016101Y013054D01*
X016101Y012955D02*
X008651Y012955D01*
X008651Y012857D02*
X016101Y012857D01*
X016101Y012758D02*
X013619Y012758D01*
X013718Y012660D02*
X016101Y012660D01*
X016101Y012561D02*
X013765Y012561D01*
X013798Y012463D02*
X016101Y012463D01*
X016101Y012364D02*
X013798Y012364D01*
X013781Y012266D02*
X016101Y012266D01*
X016101Y012167D02*
X013741Y012167D01*
X013657Y012069D02*
X016101Y012069D01*
X015880Y011970D02*
X013495Y011970D01*
X013440Y011841D02*
X013262Y011841D01*
X013440Y011841D02*
X013604Y011773D01*
X013703Y011675D02*
X015803Y011675D01*
X015705Y011576D02*
X013759Y011576D01*
X013798Y011478D02*
X015641Y011478D01*
X015628Y011379D02*
X013798Y011379D01*
X013788Y011281D02*
X015628Y011281D01*
X015628Y011182D02*
X013747Y011182D01*
X013672Y011084D02*
X015628Y011084D01*
X013044Y012069D02*
X008651Y012069D01*
X008651Y012167D02*
X012961Y012167D01*
X012920Y012266D02*
X008651Y012266D01*
X008651Y012364D02*
X012903Y012364D01*
X012903Y012463D02*
X008651Y012463D01*
X008651Y012561D02*
X012936Y012561D01*
X012984Y012660D02*
X008651Y012660D01*
X008651Y012758D02*
X013082Y012758D01*
X012942Y011576D02*
X008651Y011576D01*
X008651Y011478D02*
X012903Y011478D01*
X012903Y011379D02*
X008651Y011379D01*
X008651Y011281D02*
X012914Y011281D01*
X010822Y009015D02*
X008651Y009015D01*
X008651Y008917D02*
X010723Y008917D01*
X010631Y008818D02*
X008651Y008818D01*
X008651Y008720D02*
X010590Y008720D01*
X010549Y008621D02*
X008651Y008621D01*
X008651Y008523D02*
X010509Y008523D01*
X010507Y008424D02*
X008651Y008424D01*
X008651Y008326D02*
X010507Y008326D01*
X010507Y008227D02*
X008651Y008227D01*
X008651Y008129D02*
X010529Y008129D01*
X010570Y008030D02*
X008651Y008030D01*
X008651Y007932D02*
X010611Y007932D01*
X010675Y007833D02*
X008651Y007833D01*
X008651Y007735D02*
X010774Y007735D01*
X010872Y007636D02*
X008651Y007636D01*
X008651Y007538D02*
X011109Y007538D01*
X009493Y003105D02*
X008651Y003105D01*
X008651Y003007D02*
X009191Y003007D01*
X008998Y002908D02*
X008651Y002908D01*
X008651Y002810D02*
X008870Y002810D01*
X008772Y002711D02*
X008651Y002711D01*
X008651Y002613D02*
X008673Y002613D01*
X011909Y017092D02*
X013083Y017092D01*
X012985Y017191D02*
X011785Y017191D01*
X013000Y018176D02*
X008651Y018176D01*
X008651Y018274D02*
X012942Y018274D01*
X012903Y018373D02*
X008651Y018373D01*
X008651Y018471D02*
X012903Y018471D01*
X012913Y018570D02*
X008651Y018570D01*
X008651Y018668D02*
X012954Y018668D01*
X013028Y018767D02*
X008651Y018767D01*
X008651Y018865D02*
X013167Y018865D01*
X010863Y019752D02*
X008651Y019752D01*
X008651Y019850D02*
X010764Y019850D01*
X010666Y019949D02*
X008651Y019949D01*
X008651Y020047D02*
X010607Y020047D01*
X010566Y020146D02*
X008651Y020146D01*
X008651Y020244D02*
X010526Y020244D01*
X010507Y020343D02*
X008651Y020343D01*
X008651Y020441D02*
X010507Y020441D01*
X010507Y020540D02*
X008651Y020540D01*
X008651Y020638D02*
X010512Y020638D01*
X010553Y020737D02*
X008651Y020737D01*
X008651Y020835D02*
X010594Y020835D01*
X010635Y020934D02*
X008651Y020934D01*
X008651Y021032D02*
X010732Y021032D01*
X010831Y021131D02*
X008651Y021131D01*
X008651Y021229D02*
X011010Y021229D01*
X012136Y021426D02*
X008651Y021426D01*
X008651Y021328D02*
X012228Y021328D01*
X012477Y021328D02*
X013689Y021328D01*
X013573Y021426D02*
X012593Y021426D01*
X012933Y021525D02*
X013233Y021525D01*
X013233Y021523D02*
X013233Y021523D01*
X013192Y021623D02*
X012974Y021623D01*
X013015Y021722D02*
X013151Y021722D01*
X013110Y021820D02*
X013055Y021820D01*
X013394Y021457D02*
X013394Y021457D01*
X013394Y021457D01*
X012707Y023396D02*
X012648Y023396D01*
D13*
X012729Y023969D03*
X013516Y023969D03*
X014303Y023969D03*
X015091Y023969D03*
X015878Y023969D03*
X019421Y023969D03*
X020209Y023969D03*
X020996Y023969D03*
X021784Y023969D03*
X022571Y023969D03*
X023359Y023969D03*
X024146Y023969D03*
X024933Y023969D03*
X027296Y021213D03*
X027296Y020426D03*
X027296Y019638D03*
X027296Y018851D03*
X027296Y018063D03*
X027296Y017276D03*
X027296Y016489D03*
X027296Y015701D03*
X027296Y014914D03*
X027296Y014126D03*
X027296Y013339D03*
X027296Y012552D03*
X027296Y011764D03*
X027296Y010977D03*
X027296Y010189D03*
X027296Y009402D03*
X027296Y008615D03*
X027296Y007827D03*
X027296Y007040D03*
X027296Y006252D03*
X027296Y005465D03*
X027296Y004678D03*
X027296Y003890D03*
X027296Y003103D03*
X024540Y000741D03*
X023752Y000741D03*
X022965Y000741D03*
X022177Y000741D03*
X021390Y000741D03*
X020603Y000741D03*
X019815Y000741D03*
X019028Y000741D03*
X018240Y000741D03*
X017453Y000741D03*
X016666Y000741D03*
X015878Y000741D03*
X015878Y000741D03*
X015091Y000741D03*
X014303Y000741D03*
X013516Y000741D03*
X012729Y000741D03*
X011941Y000741D03*
X011154Y000741D03*
X008792Y003103D03*
X008792Y003890D03*
X008792Y004678D03*
X008792Y005465D03*
X008792Y006252D03*
X008792Y007040D03*
X008792Y007827D03*
X008792Y008615D03*
X008792Y009402D03*
X008792Y010189D03*
X008792Y010977D03*
X008792Y011764D03*
X008792Y012552D03*
X008792Y013339D03*
X008792Y014126D03*
X008792Y014914D03*
X008792Y016095D03*
X008792Y016882D03*
X008792Y017670D03*
X008792Y018457D03*
X008792Y019244D03*
X008792Y020032D03*
X008792Y020819D03*
X008792Y021607D03*
X011154Y023969D03*
X011941Y023969D03*
X017453Y020937D03*
X015484Y019048D03*
X015091Y019048D03*
X014697Y019048D03*
X014303Y019048D03*
X013910Y019048D03*
X012729Y018851D03*
X012729Y018063D03*
X013910Y018063D03*
X014303Y018063D03*
X014697Y018063D03*
X015091Y018063D03*
X015484Y018063D03*
X017256Y017748D03*
X017414Y016213D03*
X019540Y016095D03*
X019540Y016489D03*
X019540Y016882D03*
X019540Y017276D03*
X019540Y017670D03*
X019540Y018063D03*
X020327Y017867D03*
X020721Y018142D03*
X021114Y018142D03*
X021508Y018142D03*
X021902Y018142D03*
X021784Y019048D03*
X022177Y019048D03*
X021390Y019048D03*
X020996Y019048D03*
X020603Y019048D03*
X020209Y019048D03*
X019815Y019048D03*
X019185Y018890D03*
X020327Y017473D03*
X020327Y017079D03*
X020327Y016685D03*
X020327Y016292D03*
X020327Y015898D03*
X020327Y015504D03*
X020327Y015111D03*
X020327Y014717D03*
X020327Y014323D03*
X020327Y013930D03*
X020327Y013536D03*
X020327Y013142D03*
X020327Y012748D03*
X020327Y012355D03*
X020327Y011961D03*
X020327Y011567D03*
X020327Y011174D03*
X020327Y010780D03*
X019973Y010426D03*
X019618Y010071D03*
X019185Y009835D03*
X018752Y009835D03*
X018752Y010583D03*
X019185Y010937D03*
X019540Y011331D03*
X019540Y011725D03*
X019540Y012158D03*
X019540Y012552D03*
X019540Y012945D03*
X019540Y013339D03*
X019540Y013733D03*
X019540Y014126D03*
X019540Y014520D03*
X019540Y014914D03*
X019540Y015307D03*
X019540Y015701D03*
X017414Y013969D03*
X017886Y013103D03*
X016154Y011685D03*
X015484Y011882D03*
X015091Y011882D03*
X014697Y011882D03*
X014303Y011882D03*
X013910Y011882D03*
X013910Y012670D03*
X014303Y012670D03*
X014697Y012670D03*
X015091Y012670D03*
X015484Y012670D03*
X017453Y009520D03*
X017453Y008733D03*
X016429Y007276D03*
X015484Y006764D03*
X015091Y006764D03*
X014697Y006764D03*
X014303Y006764D03*
X013910Y006764D03*
X013910Y005859D03*
X014303Y005859D03*
X014697Y005859D03*
X015091Y005859D03*
X015484Y005859D03*
X016390Y005307D03*
X016390Y004402D03*
X017925Y004796D03*
X019500Y006174D03*
X019894Y006174D03*
X020288Y006174D03*
X020681Y006174D03*
X021075Y006174D03*
X021469Y006174D03*
X021862Y006174D03*
X021862Y005268D03*
X021469Y005268D03*
X021075Y005268D03*
X020681Y005268D03*
X020288Y005268D03*
X019894Y005268D03*
D14*
X019421Y005111D03*
X017571Y006056D03*
X019343Y007237D03*
X017610Y007985D03*
D15*
X016469Y007276D02*
X016469Y010662D01*
X017925Y012119D01*
X017925Y013063D01*
X017886Y013103D01*
X018949Y014166D01*
X018949Y017591D01*
X019146Y018811D02*
X018437Y018811D01*
X018437Y015977D01*
X016351Y013890D01*
X016351Y011882D01*
X016154Y011685D01*
X016157Y011674D02*
X015878Y011396D01*
X015878Y004993D01*
X016075Y004796D01*
X017925Y004796D01*
X016469Y007276D02*
X016429Y007276D01*
X017256Y017748D02*
X016469Y018536D01*
X016469Y022804D01*
X016650Y022985D01*
X018437Y022772D02*
X018650Y022985D01*
X018437Y022772D02*
X018437Y018811D01*
X019146Y018811D02*
X019185Y018851D01*
X019185Y018890D01*
D16*
X018949Y017591D03*
D17*
X014014Y021706D02*
X013810Y021503D01*
X013513Y021745D01*
X013394Y021683D02*
X013224Y022092D01*
X012942Y022092D02*
X012772Y021683D01*
X012653Y021745D02*
X012356Y021503D01*
X012152Y021706D01*
X012394Y022003D01*
X012292Y022251D02*
X011911Y022290D01*
X011911Y022577D01*
X012292Y022616D01*
X012394Y022864D02*
X012152Y023161D01*
X012356Y023364D01*
X012653Y023122D01*
X012900Y023225D02*
X012939Y023606D01*
X013227Y023606D01*
X013266Y023225D01*
X013513Y023122D02*
X013810Y023364D01*
X014014Y023161D01*
X013772Y022864D01*
X013874Y022616D02*
X014255Y022577D01*
X014255Y022290D01*
X013874Y022251D01*
X013772Y022003D02*
X014014Y021706D01*
X013513Y021744D02*
X013475Y021722D01*
X013435Y021701D01*
X013394Y021683D01*
X013772Y022003D02*
X013799Y022049D01*
X013822Y022098D01*
X013843Y022147D01*
X013860Y022198D01*
X013874Y022250D01*
X013513Y023122D02*
X013467Y023149D01*
X013418Y023172D01*
X013369Y023193D01*
X013318Y023210D01*
X013266Y023224D01*
X013772Y022863D02*
X013799Y022817D01*
X013822Y022768D01*
X013843Y022719D01*
X013860Y022668D01*
X013874Y022616D01*
X012394Y022863D02*
X012367Y022817D01*
X012344Y022768D01*
X012323Y022719D01*
X012306Y022668D01*
X012292Y022616D01*
X012653Y021744D02*
X012691Y021722D01*
X012731Y021701D01*
X012772Y021683D01*
X012653Y023122D02*
X012699Y023149D01*
X012748Y023172D01*
X012797Y023193D01*
X012848Y023210D01*
X012900Y023224D01*
X013452Y022433D02*
X013450Y022471D01*
X013444Y022508D01*
X013435Y022545D01*
X013421Y022581D01*
X013404Y022615D01*
X013384Y022647D01*
X013360Y022676D01*
X013334Y022703D01*
X013305Y022728D01*
X013273Y022749D01*
X013240Y022767D01*
X013205Y022781D01*
X013168Y022792D01*
X013131Y022799D01*
X013093Y022802D01*
X013055Y022801D01*
X013018Y022796D01*
X012981Y022788D01*
X012945Y022775D01*
X012911Y022759D01*
X012878Y022740D01*
X012848Y022717D01*
X012820Y022691D01*
X012795Y022663D01*
X012772Y022632D01*
X012754Y022599D01*
X012738Y022565D01*
X012727Y022529D01*
X012719Y022491D01*
X012715Y022454D01*
X012714Y022416D01*
X012718Y022378D01*
X012726Y022341D01*
X012737Y022305D01*
X012752Y022270D01*
X012771Y022237D01*
X012792Y022206D01*
X012817Y022177D01*
X012845Y022151D01*
X012875Y022128D01*
X012908Y022108D01*
X012942Y022092D01*
X013224Y022092D02*
X013257Y022108D01*
X013288Y022126D01*
X013317Y022148D01*
X013344Y022172D01*
X013368Y022199D01*
X013390Y022228D01*
X013408Y022259D01*
X013424Y022292D01*
X013436Y022326D01*
X013445Y022361D01*
X013450Y022397D01*
X013452Y022433D01*
X012394Y022003D02*
X012367Y022049D01*
X012344Y022098D01*
X012323Y022147D01*
X012306Y022198D01*
X012292Y022250D01*
M02*
