%
M48
M72
T01C0.0157
T02C0.0236
T03C0.0354
T04C0.0400
T05C0.0787
T06C0.1200
%
T01
X8792Y3103
X8792Y3890
X8792Y4678
X8792Y5465
X8792Y6252
X8792Y7040
X8792Y7827
X8792Y8615
X8792Y9402
X8792Y10189
X8792Y10977
X8792Y11764
X8792Y12552
X8792Y13339
X8792Y14126
X8792Y14914
X8792Y16095
X8792Y16882
X8792Y17670
X8792Y18457
X8792Y19244
X8792Y20032
X8792Y20819
X8792Y21607
X11154Y23969
X11941Y23969
X12729Y23969
X13516Y23969
X14303Y23969
X15091Y23969
X15878Y23969
X19421Y23969
X20209Y23969
X20996Y23969
X21784Y23969
X22571Y23969
X23359Y23969
X24146Y23969
X24933Y23969
X27296Y21213
X27296Y20426
X27296Y19638
X27296Y18851
X27296Y18063
X27296Y17276
X27296Y16489
X27296Y15701
X27296Y14914
X27296Y14126
X27296Y13339
X27296Y12552
X27296Y11764
X27296Y10977
X27296Y10189
X27296Y9402
X27296Y8615
X27296Y7827
X27296Y7040
X27296Y6252
X27296Y5465
X27296Y4678
X27296Y3890
X27296Y3103
X24540Y741
X23752Y741
X22965Y741
X22177Y741
X21390Y741
X20603Y741
X19815Y741
X19028Y741
X18240Y741
X17453Y741
X16666Y741
X15878Y741
X15878Y741
X15091Y741
X14303Y741
X13516Y741
X12729Y741
X11941Y741
X11154Y741
X16390Y4402
X16390Y5307
X15484Y5859
X15091Y5859
X14697Y5859
X14303Y5859
X13910Y5859
X13910Y6764
X14303Y6764
X14697Y6764
X15091Y6764
X15484Y6764
X16429Y7276
X17610Y7985
X17453Y8733
X17453Y9520
X18752Y9835
X19185Y9835
X19618Y10071
X19973Y10426
X20327Y10780
X20327Y11174
X20327Y11567
X20327Y11961
X20327Y12355
X20327Y12748
X20327Y13142
X20327Y13536
X20327Y13930
X20327Y14323
X20327Y14717
X20327Y15111
X20327Y15504
X20327Y15898
X20327Y16292
X20327Y16685
X20327Y17079
X20327Y17473
X20327Y17867
X20721Y18142
X21114Y18142
X21508Y18142
X21902Y18142
X21784Y19048
X22177Y19048
X21390Y19048
X20996Y19048
X20603Y19048
X20209Y19048
X19815Y19048
X19185Y18890
X19540Y18063
X19540Y17670
X19540Y17276
X19540Y16882
X19540Y16489
X19540Y16095
X19540Y15701
X19540Y15307
X19540Y14914
X19540Y14520
X19540Y14126
X19540Y13733
X19540Y13339
X19540Y12945
X19540Y12552
X19540Y12158
X19540Y11725
X19540Y11331
X19185Y10937
X18752Y10583
X16154Y11685
X15484Y11882
X15091Y11882
X14697Y11882
X14303Y11882
X13910Y11882
X13910Y12670
X14303Y12670
X14697Y12670
X15091Y12670
X15484Y12670
X17414Y13969
X17886Y13103
X17414Y16213
X17256Y17748
X15484Y18063
X15091Y18063
X14697Y18063
X14303Y18063
X13910Y18063
X12729Y18063
X12729Y18851
X13910Y19048
X14303Y19048
X14697Y19048
X15091Y19048
X15484Y19048
X17453Y20937
X19343Y7237
X19815Y6764
X20209Y6764
X20603Y6764
X20996Y6764
X21390Y6764
X21784Y6764
X22177Y6764
X22177Y5859
X21784Y5859
X21390Y5859
X20996Y5859
X20603Y5859
X20209Y5859
X19815Y5859
X19421Y5111
X17925Y4796
X17650Y6056
T02
X18949Y17591
T03
X22736Y18457
X22736Y19457
X13351Y18457
X13351Y17457
X13351Y12394
X13351Y11394
X13351Y6351
X13351Y5351
X22736Y6351
X22736Y7351
T04
X18650Y22985
X17650Y22985
X16650Y22985
T05
X11351Y20457
X11351Y16457
X11351Y14394
X11351Y10394
X11351Y8351
X11351Y4351
X24736Y4351
X24736Y8351
X24736Y16457
X24736Y20457
T06
X26311Y22985
X9776Y22985
X9776Y1725
X26311Y1725
M30
