G75*
G70*
%OFA0B0*%
%FSLAX24Y24*%
%IPPOS*%
%LPD*%
%AMOC8*
5,1,8,0,0,1.08239X$1,22.5*
%
%ADD10C,0.0740*%
%ADD11C,0.0400*%
%ADD12C,0.0500*%
%ADD13C,0.0160*%
D10*
X003084Y001419D03*
X004084Y001419D03*
X005084Y001419D03*
X006084Y001419D03*
X007084Y001419D03*
X008084Y001419D03*
X008084Y002419D03*
X007084Y002419D03*
X006084Y002419D03*
X005084Y002419D03*
X004084Y002419D03*
X003084Y002419D03*
X003084Y003419D03*
X004084Y003419D03*
X005084Y003419D03*
X006084Y003419D03*
X007084Y003419D03*
X008084Y003419D03*
X008084Y004919D03*
X007084Y004919D03*
X006084Y004919D03*
X005084Y004919D03*
X004084Y004919D03*
X003084Y004919D03*
X002069Y004927D03*
X001069Y004927D03*
X001635Y003399D03*
X001635Y002399D03*
D11*
X003084Y002419D02*
X004084Y002419D01*
X005084Y002419D01*
X006084Y002419D01*
X007084Y002419D01*
X008084Y002419D01*
X008084Y003419D02*
X008084Y004919D01*
X007084Y004919D02*
X007084Y003419D01*
X006084Y003419D02*
X006084Y004919D01*
X005084Y004919D02*
X005084Y003419D01*
X004084Y003419D02*
X004084Y004919D01*
X003084Y004919D02*
X003084Y003419D01*
D12*
X003084Y002419D02*
X003084Y002399D01*
X001635Y002399D01*
X001635Y002383D01*
X000769Y002383D01*
X000769Y004927D01*
X001069Y004927D01*
D13*
X000580Y001931D02*
X000580Y000580D01*
X009305Y000580D01*
X009305Y005840D01*
X000580Y005840D01*
X000580Y005379D01*
X000672Y005417D01*
X000696Y005417D01*
X000723Y005444D01*
X000947Y005537D01*
X001190Y005537D01*
X001414Y005444D01*
X001586Y005272D01*
X001679Y005048D01*
X001679Y004805D01*
X001586Y004581D01*
X001414Y004410D01*
X001259Y004346D01*
X001259Y002886D01*
X001290Y002916D01*
X001514Y003009D01*
X001757Y003009D01*
X001981Y002916D01*
X002008Y002889D01*
X002692Y002889D01*
X002722Y002919D01*
X002567Y003073D01*
X002474Y003298D01*
X002474Y003540D01*
X002567Y003764D01*
X002644Y003842D01*
X002644Y004496D01*
X002567Y004573D01*
X002474Y004798D01*
X002474Y005040D01*
X002567Y005264D01*
X002739Y005436D01*
X002963Y005529D01*
X003206Y005529D01*
X003430Y005436D01*
X003584Y005282D01*
X003739Y005436D01*
X003963Y005529D01*
X004206Y005529D01*
X004430Y005436D01*
X004584Y005282D01*
X004739Y005436D01*
X004963Y005529D01*
X005206Y005529D01*
X005430Y005436D01*
X005584Y005282D01*
X005739Y005436D01*
X005963Y005529D01*
X006206Y005529D01*
X006430Y005436D01*
X006584Y005282D01*
X006739Y005436D01*
X006963Y005529D01*
X007206Y005529D01*
X007430Y005436D01*
X007584Y005282D01*
X007739Y005436D01*
X007963Y005529D01*
X008206Y005529D01*
X008430Y005436D01*
X008601Y005264D01*
X008694Y005040D01*
X008694Y004798D01*
X008601Y004573D01*
X008524Y004496D01*
X008524Y003842D01*
X008601Y003764D01*
X008694Y003540D01*
X008694Y003298D01*
X008601Y003073D01*
X008447Y002919D01*
X008601Y002764D01*
X008694Y002540D01*
X008694Y002298D01*
X008601Y002073D01*
X008430Y001902D01*
X008206Y001809D01*
X007963Y001809D01*
X007739Y001902D01*
X007662Y001979D01*
X007507Y001979D01*
X007430Y001902D01*
X007206Y001809D01*
X006963Y001809D01*
X006739Y001902D01*
X006662Y001979D01*
X006507Y001979D01*
X006430Y001902D01*
X006206Y001809D01*
X005963Y001809D01*
X005739Y001902D01*
X005662Y001979D01*
X005507Y001979D01*
X005430Y001902D01*
X005206Y001809D01*
X004963Y001809D01*
X004739Y001902D01*
X004662Y001979D01*
X004507Y001979D01*
X004430Y001902D01*
X004206Y001809D01*
X003963Y001809D01*
X003739Y001902D01*
X003662Y001979D01*
X003507Y001979D01*
X003430Y001902D01*
X003206Y001809D01*
X002963Y001809D01*
X002739Y001902D01*
X002731Y001909D01*
X002008Y001909D01*
X001981Y001882D01*
X001757Y001789D01*
X001514Y001789D01*
X001290Y001882D01*
X001279Y001893D01*
X000672Y001893D01*
X000580Y001931D01*
X000580Y001920D02*
X000607Y001920D01*
X000580Y001762D02*
X009305Y001762D01*
X009305Y001603D02*
X000580Y001603D01*
X000580Y001445D02*
X009305Y001445D01*
X009305Y001286D02*
X000580Y001286D01*
X000580Y001128D02*
X009305Y001128D01*
X009305Y000969D02*
X000580Y000969D01*
X000580Y000811D02*
X009305Y000811D01*
X009305Y000652D02*
X000580Y000652D01*
X003448Y001920D02*
X003720Y001920D01*
X004448Y001920D02*
X004720Y001920D01*
X005448Y001920D02*
X005720Y001920D01*
X006448Y001920D02*
X006720Y001920D01*
X007448Y001920D02*
X007720Y001920D01*
X008448Y001920D02*
X009305Y001920D01*
X009305Y002079D02*
X008604Y002079D01*
X008669Y002237D02*
X009305Y002237D01*
X009305Y002396D02*
X008694Y002396D01*
X008688Y002554D02*
X009305Y002554D01*
X009305Y002713D02*
X008623Y002713D01*
X008495Y002871D02*
X009305Y002871D01*
X009305Y003030D02*
X008558Y003030D01*
X008649Y003188D02*
X009305Y003188D01*
X009305Y003347D02*
X008694Y003347D01*
X008694Y003505D02*
X009305Y003505D01*
X009305Y003664D02*
X008643Y003664D01*
X008544Y003822D02*
X009305Y003822D01*
X009305Y003981D02*
X008524Y003981D01*
X008524Y004139D02*
X009305Y004139D01*
X009305Y004298D02*
X008524Y004298D01*
X008524Y004456D02*
X009305Y004456D01*
X009305Y004615D02*
X008619Y004615D01*
X008684Y004773D02*
X009305Y004773D01*
X009305Y004932D02*
X008694Y004932D01*
X008674Y005090D02*
X009305Y005090D01*
X009305Y005249D02*
X008608Y005249D01*
X008459Y005407D02*
X009305Y005407D01*
X009305Y005566D02*
X000580Y005566D01*
X000580Y005724D02*
X009305Y005724D01*
X007710Y005407D02*
X007459Y005407D01*
X006710Y005407D02*
X006459Y005407D01*
X005710Y005407D02*
X005459Y005407D01*
X004710Y005407D02*
X004459Y005407D01*
X003710Y005407D02*
X003459Y005407D01*
X002710Y005407D02*
X001451Y005407D01*
X001595Y005249D02*
X002561Y005249D01*
X002495Y005090D02*
X001661Y005090D01*
X001679Y004932D02*
X002474Y004932D01*
X002484Y004773D02*
X001665Y004773D01*
X001600Y004615D02*
X002550Y004615D01*
X002644Y004456D02*
X001461Y004456D01*
X001259Y004298D02*
X002644Y004298D01*
X002644Y004139D02*
X001259Y004139D01*
X001259Y003981D02*
X002644Y003981D01*
X002625Y003822D02*
X001259Y003822D01*
X001259Y003664D02*
X002525Y003664D01*
X002474Y003505D02*
X001259Y003505D01*
X001259Y003347D02*
X002474Y003347D01*
X002520Y003188D02*
X001259Y003188D01*
X001259Y003030D02*
X002611Y003030D01*
X000649Y005407D02*
X000580Y005407D01*
M02*
