%
M48
M72
T01C0.0400
%
T01
X3084Y1419
X4084Y1419
X5084Y1419
X6084Y1419
X7084Y1419
X8084Y1419
X8084Y2419
X7084Y2419
X6084Y2419
X5084Y2419
X4084Y2419
X3084Y2419
X3084Y3419
X4084Y3419
X5084Y3419
X6084Y3419
X7084Y3419
X8084Y3419
X8084Y4919
X7084Y4919
X6084Y4919
X5084Y4919
X4084Y4919
X3084Y4919
X2069Y4927
X1069Y4927
X1635Y3399
X1635Y2399
M30
