G75*
G70*
%OFA0B0*%
%FSLAX24Y24*%
%IPPOS*%
%LPD*%
%AMOC8*
5,1,8,0,0,1.08239X$1,22.5*
%
%ADD10C,0.0080*%
D10*
X002584Y001169D02*
X002834Y000919D01*
X003334Y000919D01*
X003584Y001169D01*
X003834Y000919D01*
X004334Y000919D01*
X004584Y001169D01*
X004834Y000919D01*
X005334Y000919D01*
X005584Y001169D01*
X005834Y000919D01*
X006334Y000919D01*
X006584Y001169D01*
X006834Y000919D01*
X007334Y000919D01*
X007584Y001169D01*
X007834Y000919D01*
X008334Y000919D01*
X008584Y001169D01*
X008584Y001669D01*
X008334Y001919D01*
X007834Y001919D01*
X007584Y002169D01*
X007334Y001919D01*
X006834Y001919D01*
X006584Y002169D01*
X006334Y001919D01*
X005834Y001919D01*
X005584Y002169D01*
X005334Y001919D01*
X004834Y001919D01*
X004584Y002169D01*
X004334Y001919D01*
X003834Y001919D01*
X003584Y002169D01*
X003334Y001919D01*
X002834Y001919D01*
X002584Y002169D01*
X002584Y002669D01*
X002834Y002919D01*
X003334Y002919D01*
X003584Y002669D01*
X003834Y002919D01*
X004334Y002919D01*
X004584Y002669D01*
X004834Y002919D01*
X005334Y002919D01*
X005584Y002669D01*
X005834Y002919D01*
X006334Y002919D01*
X006584Y002669D01*
X006834Y002919D01*
X007334Y002919D01*
X007584Y002669D01*
X007834Y002919D01*
X008334Y002919D01*
X008584Y002669D01*
X008584Y002169D01*
X008334Y001919D01*
X007834Y001919D01*
X007584Y001669D01*
X007334Y001919D01*
X006834Y001919D01*
X006584Y001669D01*
X006334Y001919D01*
X005834Y001919D01*
X005584Y001669D01*
X005334Y001919D01*
X004834Y001919D01*
X004584Y001669D01*
X004334Y001919D01*
X003834Y001919D01*
X003584Y001669D01*
X003334Y001919D01*
X002834Y001919D01*
X002584Y001669D01*
X002584Y001169D01*
X001885Y001899D02*
X001385Y001899D01*
X001135Y002149D01*
X001135Y002649D01*
X001385Y002899D01*
X001135Y003149D01*
X001135Y003649D01*
X001385Y003899D01*
X001885Y003899D01*
X002135Y003649D01*
X002135Y003149D01*
X001885Y002899D01*
X002135Y002649D01*
X002135Y002149D01*
X001885Y001899D01*
X002834Y002919D02*
X003334Y002919D01*
X003584Y003169D01*
X003834Y002919D01*
X004334Y002919D01*
X004584Y003169D01*
X004834Y002919D01*
X005334Y002919D01*
X005584Y003169D01*
X005834Y002919D01*
X006334Y002919D01*
X006584Y003169D01*
X006834Y002919D01*
X007334Y002919D01*
X007584Y003169D01*
X007834Y002919D01*
X008334Y002919D01*
X008584Y003169D01*
X008584Y003669D01*
X008334Y003919D01*
X007834Y003919D01*
X007584Y003669D01*
X007334Y003919D01*
X006834Y003919D01*
X006584Y003669D01*
X006334Y003919D01*
X005834Y003919D01*
X005584Y003669D01*
X005334Y003919D01*
X004834Y003919D01*
X004584Y003669D01*
X004334Y003919D01*
X003834Y003919D01*
X003584Y003669D01*
X003334Y003919D01*
X002834Y003919D01*
X002584Y003669D01*
X002584Y003169D01*
X002834Y002919D01*
X002834Y004419D02*
X003334Y004419D01*
X003584Y004669D01*
X003834Y004419D01*
X004334Y004419D01*
X004584Y004669D01*
X004834Y004419D01*
X005334Y004419D01*
X005584Y004669D01*
X005834Y004419D01*
X006334Y004419D01*
X006584Y004669D01*
X006834Y004419D01*
X007334Y004419D01*
X007584Y004669D01*
X007834Y004419D01*
X008334Y004419D01*
X008584Y004669D01*
X008584Y005169D01*
X008334Y005419D01*
X007834Y005419D01*
X007584Y005169D01*
X007334Y005419D01*
X006834Y005419D01*
X006584Y005169D01*
X006334Y005419D01*
X005834Y005419D01*
X005584Y005169D01*
X005334Y005419D01*
X004834Y005419D01*
X004584Y005169D01*
X004334Y005419D01*
X003834Y005419D01*
X003584Y005169D01*
X003334Y005419D01*
X002834Y005419D01*
X002584Y005169D01*
X002584Y004669D01*
X002834Y004419D01*
X002569Y004677D02*
X002319Y004427D01*
X001819Y004427D01*
X001569Y004677D01*
X001319Y004427D01*
X000819Y004427D01*
X000569Y004677D01*
X000569Y005177D01*
X000819Y005427D01*
X001319Y005427D01*
X001569Y005177D01*
X001819Y005427D01*
X002319Y005427D01*
X002569Y005177D01*
X002569Y004677D01*
M02*
