G75*
G70*
%OFA0B0*%
%FSLAX24Y24*%
%IPPOS*%
%LPD*%
%AMOC8*
5,1,8,0,0,1.08239X$1,22.5*
%
%ADD10R,0.0867X0.2245*%
%ADD11OC8,0.0820*%
%ADD12R,0.0789X0.0218*%
%ADD13C,0.0682*%
%ADD14C,0.1007*%
%ADD15C,0.1360*%
%ADD16R,0.0710X0.0789*%
%ADD17R,0.0395X0.0552*%
%ADD18R,0.0552X0.0395*%
%ADD19R,0.0789X0.0710*%
%ADD20C,0.0476*%
D10*
X019824Y007907D03*
X019824Y011647D03*
D11*
X021524Y011327D03*
X022524Y011327D03*
X022524Y010327D03*
X021524Y010327D03*
X021524Y009327D03*
X022524Y009327D03*
X022524Y008327D03*
X021524Y008327D03*
X021524Y007327D03*
X022524Y007327D03*
X022524Y006327D03*
X021524Y006327D03*
X021524Y005327D03*
X022524Y005327D03*
X015524Y014327D03*
X014524Y014327D03*
X013524Y014327D03*
X012524Y014327D03*
X011524Y014327D03*
X010524Y014327D03*
X009524Y014327D03*
X009524Y015327D03*
X010524Y015327D03*
X011524Y015327D03*
X012524Y015327D03*
X013524Y015327D03*
X014524Y015327D03*
X015524Y015327D03*
D12*
X014013Y012270D03*
X014013Y011770D03*
X014013Y011270D03*
X014013Y010770D03*
X014013Y010270D03*
X014013Y009770D03*
X014013Y009270D03*
X014013Y008770D03*
X014013Y008270D03*
X014013Y007770D03*
X014013Y007270D03*
X014013Y006770D03*
X014013Y006270D03*
X014013Y005770D03*
X017714Y005770D03*
X017714Y006270D03*
X017714Y006770D03*
X017714Y007270D03*
X017714Y007770D03*
X017714Y008270D03*
X017714Y008770D03*
X017714Y009270D03*
X017714Y009770D03*
X017714Y010270D03*
X017714Y010770D03*
X017714Y011270D03*
X017714Y011770D03*
X017714Y012270D03*
D13*
X010024Y011966D03*
X009056Y011120D03*
X010024Y010966D03*
X009056Y010320D03*
X009056Y009521D03*
X009056Y008722D03*
X009056Y007923D03*
X010024Y007277D03*
X009056Y007124D03*
X010024Y006277D03*
D14*
X003407Y005950D03*
X003407Y012301D03*
D15*
X004658Y011624D03*
X004658Y006624D03*
D16*
X009073Y004552D03*
X010176Y004552D03*
X011223Y005927D03*
X012326Y005927D03*
X012723Y004702D03*
X013826Y004702D03*
X008201Y013152D03*
X007098Y013152D03*
X005851Y013152D03*
X004748Y013152D03*
X007098Y014502D03*
X008201Y014502D03*
X010948Y013202D03*
X012051Y013202D03*
X018648Y013802D03*
X019751Y013802D03*
D17*
X016254Y013452D03*
X015545Y013452D03*
X012029Y007102D03*
X011320Y007102D03*
X015470Y004577D03*
X016179Y004577D03*
X017170Y004527D03*
X017879Y004527D03*
D18*
X012899Y010798D03*
X012899Y011506D03*
X011874Y011506D03*
X011024Y011506D03*
X011024Y010798D03*
X011874Y010798D03*
D19*
X019949Y005703D03*
X019949Y004601D03*
X020974Y012701D03*
X020974Y013803D03*
D20*
X007549Y004377D03*
X011599Y007927D03*
X012824Y007077D03*
X013149Y005752D03*
X018499Y009502D03*
X018824Y006802D03*
X018824Y005577D03*
X012899Y009752D03*
X013249Y012377D03*
X011024Y012277D03*
X009824Y013077D03*
X017124Y013227D03*
M02*
