G75*
G70*
%OFA0B0*%
%FSLAX24Y24*%
%IPPOS*%
%LPD*%
%AMOC8*
5,1,8,0,0,1.08239X$1,22.5*
%
%ADD10C,0.0000*%
%ADD11C,0.0030*%
%ADD12C,0.0040*%
%ADD13C,0.0080*%
%ADD14C,0.0160*%
%ADD15C,0.0100*%
%ADD16C,0.0004*%
%ADD17C,0.0060*%
D10*
X002689Y003191D02*
X005634Y003191D01*
X005634Y003190D02*
X012304Y003190D01*
X012326Y003195D01*
X012348Y003198D01*
X012371Y003197D01*
X012393Y003193D01*
X012414Y003186D01*
X012435Y003176D01*
X012453Y003163D01*
X012470Y003148D01*
X012484Y003130D01*
X012495Y003111D01*
X012504Y003090D01*
X012504Y003030D01*
X012500Y003001D01*
X012499Y002971D01*
X012502Y002942D01*
X012508Y002913D01*
X012518Y002885D01*
X012531Y002858D01*
X012548Y002834D01*
X012567Y002811D01*
X012588Y002791D01*
X012612Y002773D01*
X012638Y002759D01*
X012665Y002748D01*
X012694Y002740D01*
X016554Y002740D01*
X016583Y002747D01*
X016611Y002757D01*
X016637Y002771D01*
X016662Y002787D01*
X016685Y002806D01*
X016705Y002828D01*
X016723Y002851D01*
X016739Y002877D01*
X016751Y002904D01*
X016760Y002932D01*
X016766Y002961D01*
X016769Y002991D01*
X016768Y003021D01*
X016764Y003050D01*
X016764Y003070D01*
X016766Y003083D01*
X016770Y003096D01*
X016777Y003107D01*
X016787Y003117D01*
X016798Y003124D01*
X016811Y003128D01*
X016824Y003130D01*
X018684Y003130D01*
X018706Y003128D01*
X018727Y003123D01*
X018748Y003115D01*
X018766Y003103D01*
X018783Y003089D01*
X018797Y003072D01*
X018809Y003054D01*
X018817Y003033D01*
X018822Y003012D01*
X018824Y002990D01*
X018824Y002970D01*
X018826Y002944D01*
X018831Y002918D01*
X018839Y002893D01*
X018851Y002870D01*
X018865Y002848D01*
X018883Y002829D01*
X018902Y002811D01*
X018924Y002797D01*
X018947Y002785D01*
X018972Y002777D01*
X018998Y002772D01*
X019024Y002770D01*
X022034Y002770D01*
X022053Y002772D01*
X022072Y002777D01*
X022089Y002785D01*
X022105Y002796D01*
X022118Y002809D01*
X022129Y002825D01*
X022137Y002842D01*
X022142Y002861D01*
X022144Y002880D01*
X022144Y018700D01*
X020094Y018700D02*
X020096Y018749D01*
X020102Y018797D01*
X020112Y018845D01*
X020126Y018892D01*
X020143Y018938D01*
X020164Y018982D01*
X020189Y019024D01*
X020217Y019064D01*
X020249Y019102D01*
X020283Y019137D01*
X020320Y019169D01*
X020359Y019198D01*
X020401Y019224D01*
X020445Y019246D01*
X020490Y019264D01*
X020537Y019279D01*
X020584Y019290D01*
X020633Y019297D01*
X020682Y019300D01*
X020731Y019299D01*
X020779Y019294D01*
X020828Y019285D01*
X020875Y019272D01*
X020921Y019255D01*
X020965Y019235D01*
X021008Y019211D01*
X021049Y019184D01*
X021087Y019153D01*
X021123Y019120D01*
X021155Y019084D01*
X021185Y019045D01*
X021212Y019004D01*
X021235Y018960D01*
X021254Y018915D01*
X021270Y018869D01*
X021282Y018822D01*
X021290Y018773D01*
X021294Y018724D01*
X021294Y018676D01*
X021290Y018627D01*
X021282Y018578D01*
X021270Y018531D01*
X021254Y018485D01*
X021235Y018440D01*
X021212Y018396D01*
X021185Y018355D01*
X021155Y018316D01*
X021123Y018280D01*
X021087Y018247D01*
X021049Y018216D01*
X021008Y018189D01*
X020965Y018165D01*
X020921Y018145D01*
X020875Y018128D01*
X020828Y018115D01*
X020779Y018106D01*
X020731Y018101D01*
X020682Y018100D01*
X020633Y018103D01*
X020584Y018110D01*
X020537Y018121D01*
X020490Y018136D01*
X020445Y018154D01*
X020401Y018176D01*
X020359Y018202D01*
X020320Y018231D01*
X020283Y018263D01*
X020249Y018298D01*
X020217Y018336D01*
X020189Y018376D01*
X020164Y018418D01*
X020143Y018462D01*
X020126Y018508D01*
X020112Y018555D01*
X020102Y018603D01*
X020096Y018651D01*
X020094Y018700D01*
X020694Y020150D02*
X020770Y020148D01*
X020846Y020142D01*
X020921Y020132D01*
X020995Y020118D01*
X021069Y020101D01*
X021142Y020079D01*
X021214Y020054D01*
X021284Y020025D01*
X021352Y019992D01*
X021419Y019956D01*
X021484Y019916D01*
X021546Y019873D01*
X021607Y019827D01*
X021664Y019778D01*
X021719Y019725D01*
X021772Y019670D01*
X021821Y019613D01*
X021867Y019552D01*
X021910Y019490D01*
X021950Y019425D01*
X021986Y019358D01*
X022019Y019290D01*
X022048Y019220D01*
X022073Y019148D01*
X022095Y019075D01*
X022112Y019001D01*
X022126Y018927D01*
X022136Y018852D01*
X022142Y018776D01*
X022144Y018700D01*
X020694Y020150D02*
X003944Y020150D01*
X003344Y018700D02*
X003346Y018749D01*
X003352Y018797D01*
X003362Y018845D01*
X003376Y018892D01*
X003393Y018938D01*
X003414Y018982D01*
X003439Y019024D01*
X003467Y019064D01*
X003499Y019102D01*
X003533Y019137D01*
X003570Y019169D01*
X003609Y019198D01*
X003651Y019224D01*
X003695Y019246D01*
X003740Y019264D01*
X003787Y019279D01*
X003834Y019290D01*
X003883Y019297D01*
X003932Y019300D01*
X003981Y019299D01*
X004029Y019294D01*
X004078Y019285D01*
X004125Y019272D01*
X004171Y019255D01*
X004215Y019235D01*
X004258Y019211D01*
X004299Y019184D01*
X004337Y019153D01*
X004373Y019120D01*
X004405Y019084D01*
X004435Y019045D01*
X004462Y019004D01*
X004485Y018960D01*
X004504Y018915D01*
X004520Y018869D01*
X004532Y018822D01*
X004540Y018773D01*
X004544Y018724D01*
X004544Y018676D01*
X004540Y018627D01*
X004532Y018578D01*
X004520Y018531D01*
X004504Y018485D01*
X004485Y018440D01*
X004462Y018396D01*
X004435Y018355D01*
X004405Y018316D01*
X004373Y018280D01*
X004337Y018247D01*
X004299Y018216D01*
X004258Y018189D01*
X004215Y018165D01*
X004171Y018145D01*
X004125Y018128D01*
X004078Y018115D01*
X004029Y018106D01*
X003981Y018101D01*
X003932Y018100D01*
X003883Y018103D01*
X003834Y018110D01*
X003787Y018121D01*
X003740Y018136D01*
X003695Y018154D01*
X003651Y018176D01*
X003609Y018202D01*
X003570Y018231D01*
X003533Y018263D01*
X003499Y018298D01*
X003467Y018336D01*
X003439Y018376D01*
X003414Y018418D01*
X003393Y018462D01*
X003376Y018508D01*
X003362Y018555D01*
X003352Y018603D01*
X003346Y018651D01*
X003344Y018700D01*
X002494Y018700D02*
X002496Y018776D01*
X002502Y018852D01*
X002512Y018927D01*
X002526Y019001D01*
X002543Y019075D01*
X002565Y019148D01*
X002590Y019220D01*
X002619Y019290D01*
X002652Y019358D01*
X002688Y019425D01*
X002728Y019490D01*
X002771Y019552D01*
X002817Y019613D01*
X002866Y019670D01*
X002919Y019725D01*
X002974Y019778D01*
X003031Y019827D01*
X003092Y019873D01*
X003154Y019916D01*
X003219Y019956D01*
X003286Y019992D01*
X003354Y020025D01*
X003424Y020054D01*
X003496Y020079D01*
X003569Y020101D01*
X003643Y020118D01*
X003717Y020132D01*
X003792Y020142D01*
X003868Y020148D01*
X003944Y020150D01*
X002494Y018700D02*
X002494Y003402D01*
X002494Y003386D01*
X002496Y003358D01*
X002502Y003331D01*
X002512Y003305D01*
X002525Y003281D01*
X002542Y003258D01*
X002561Y003239D01*
X002584Y003222D01*
X002608Y003209D01*
X002634Y003199D01*
X002661Y003193D01*
X002689Y003191D01*
X003954Y000500D02*
X003964Y000500D01*
X018318Y011163D02*
X018318Y011167D01*
X017001Y016566D02*
X017003Y016616D01*
X017009Y016666D01*
X017019Y016715D01*
X017032Y016764D01*
X017050Y016811D01*
X017071Y016857D01*
X017095Y016900D01*
X017123Y016942D01*
X017154Y016982D01*
X017188Y017019D01*
X017225Y017053D01*
X017265Y017084D01*
X017307Y017112D01*
X017350Y017136D01*
X017396Y017157D01*
X017443Y017175D01*
X017492Y017188D01*
X017541Y017198D01*
X017591Y017204D01*
X017641Y017206D01*
X017691Y017204D01*
X017741Y017198D01*
X017790Y017188D01*
X017839Y017175D01*
X017886Y017157D01*
X017932Y017136D01*
X017975Y017112D01*
X018017Y017084D01*
X018057Y017053D01*
X018094Y017019D01*
X018128Y016982D01*
X018159Y016942D01*
X018187Y016900D01*
X018211Y016857D01*
X018232Y016811D01*
X018250Y016764D01*
X018263Y016715D01*
X018273Y016666D01*
X018279Y016616D01*
X018281Y016566D01*
X018279Y016516D01*
X018273Y016466D01*
X018263Y016417D01*
X018250Y016368D01*
X018232Y016321D01*
X018211Y016275D01*
X018187Y016232D01*
X018159Y016190D01*
X018128Y016150D01*
X018094Y016113D01*
X018057Y016079D01*
X018017Y016048D01*
X017975Y016020D01*
X017932Y015996D01*
X017886Y015975D01*
X017839Y015957D01*
X017790Y015944D01*
X017741Y015934D01*
X017691Y015928D01*
X017641Y015926D01*
X017591Y015928D01*
X017541Y015934D01*
X017492Y015944D01*
X017443Y015957D01*
X017396Y015975D01*
X017350Y015996D01*
X017307Y016020D01*
X017265Y016048D01*
X017225Y016079D01*
X017188Y016113D01*
X017154Y016150D01*
X017123Y016190D01*
X017095Y016232D01*
X017071Y016275D01*
X017050Y016321D01*
X017032Y016368D01*
X017019Y016417D01*
X017009Y016466D01*
X017003Y016516D01*
X017001Y016566D01*
X012001Y016566D02*
X012003Y016616D01*
X012009Y016666D01*
X012019Y016715D01*
X012032Y016764D01*
X012050Y016811D01*
X012071Y016857D01*
X012095Y016900D01*
X012123Y016942D01*
X012154Y016982D01*
X012188Y017019D01*
X012225Y017053D01*
X012265Y017084D01*
X012307Y017112D01*
X012350Y017136D01*
X012396Y017157D01*
X012443Y017175D01*
X012492Y017188D01*
X012541Y017198D01*
X012591Y017204D01*
X012641Y017206D01*
X012691Y017204D01*
X012741Y017198D01*
X012790Y017188D01*
X012839Y017175D01*
X012886Y017157D01*
X012932Y017136D01*
X012975Y017112D01*
X013017Y017084D01*
X013057Y017053D01*
X013094Y017019D01*
X013128Y016982D01*
X013159Y016942D01*
X013187Y016900D01*
X013211Y016857D01*
X013232Y016811D01*
X013250Y016764D01*
X013263Y016715D01*
X013273Y016666D01*
X013279Y016616D01*
X013281Y016566D01*
X013279Y016516D01*
X013273Y016466D01*
X013263Y016417D01*
X013250Y016368D01*
X013232Y016321D01*
X013211Y016275D01*
X013187Y016232D01*
X013159Y016190D01*
X013128Y016150D01*
X013094Y016113D01*
X013057Y016079D01*
X013017Y016048D01*
X012975Y016020D01*
X012932Y015996D01*
X012886Y015975D01*
X012839Y015957D01*
X012790Y015944D01*
X012741Y015934D01*
X012691Y015928D01*
X012641Y015926D01*
X012591Y015928D01*
X012541Y015934D01*
X012492Y015944D01*
X012443Y015957D01*
X012396Y015975D01*
X012350Y015996D01*
X012307Y016020D01*
X012265Y016048D01*
X012225Y016079D01*
X012188Y016113D01*
X012154Y016150D01*
X012123Y016190D01*
X012095Y016232D01*
X012071Y016275D01*
X012050Y016321D01*
X012032Y016368D01*
X012019Y016417D01*
X012009Y016466D01*
X012003Y016516D01*
X012001Y016566D01*
X011968Y020878D02*
X011968Y020878D01*
D11*
X021489Y017597D02*
X021634Y017452D01*
X021634Y017645D01*
X021586Y017549D02*
X021586Y017404D01*
X021634Y017355D01*
X021731Y017355D01*
X021779Y017404D01*
X021779Y017549D01*
X021489Y017549D01*
X021489Y017597D02*
X021779Y017597D01*
X021779Y017353D02*
X021779Y017304D01*
X021731Y017304D01*
X021731Y017353D01*
X021779Y017353D01*
X021779Y017256D02*
X021779Y017159D01*
X021779Y017203D02*
X021779Y017010D01*
X021586Y017203D01*
X021537Y017203D01*
X021489Y017155D01*
X021489Y017058D01*
X021537Y017010D01*
X021586Y017009D02*
X021634Y017058D01*
X021683Y017058D01*
X021683Y016864D01*
X021731Y016864D02*
X021634Y016864D01*
X021586Y016913D01*
X021586Y017009D01*
X021586Y016908D02*
X021779Y016812D01*
X021586Y016715D01*
X021586Y016716D02*
X021779Y016716D01*
X021779Y016668D02*
X021779Y016765D01*
X021731Y016864D02*
X021779Y016913D01*
X021779Y017009D01*
X021779Y017207D02*
X021489Y017207D01*
X021489Y017159D01*
X021489Y016716D02*
X021441Y016716D01*
X021586Y016716D02*
X021586Y016668D01*
X021634Y016567D02*
X021779Y016567D01*
X021634Y016567D02*
X021586Y016518D01*
X021586Y016422D01*
X021634Y016373D01*
X021683Y016272D02*
X021634Y016224D01*
X021634Y016127D01*
X021586Y016079D01*
X021537Y016079D01*
X021489Y016127D01*
X021489Y016224D01*
X021537Y016272D01*
X021489Y016373D02*
X021779Y016373D01*
X021731Y016272D02*
X021779Y016224D01*
X021779Y016127D01*
X021731Y016079D01*
X021731Y016272D02*
X021683Y016272D01*
X021779Y015684D02*
X021731Y015636D01*
X021537Y015636D01*
X021586Y015684D02*
X021586Y015587D01*
X021634Y015486D02*
X021683Y015486D01*
X021683Y015293D01*
X021731Y015293D02*
X021634Y015293D01*
X021586Y015341D01*
X021586Y015438D01*
X021634Y015486D01*
X021779Y015438D02*
X021779Y015341D01*
X021731Y015293D01*
X021779Y015192D02*
X021634Y015192D01*
X021586Y015143D01*
X021586Y014998D01*
X021779Y014998D01*
X021586Y014898D02*
X021586Y014849D01*
X021683Y014753D01*
X021779Y014753D02*
X021586Y014753D01*
X021634Y014651D02*
X021683Y014651D01*
X021683Y014458D01*
X021731Y014458D02*
X021634Y014458D01*
X021586Y014506D01*
X021586Y014603D01*
X021634Y014651D01*
X021779Y014603D02*
X021779Y014506D01*
X021731Y014458D01*
X021779Y014357D02*
X021634Y014357D01*
X021586Y014308D01*
X021586Y014212D01*
X021634Y014163D01*
X021586Y014064D02*
X021586Y013967D01*
X021537Y014015D02*
X021731Y014015D01*
X021779Y014064D01*
X021779Y014163D02*
X021489Y014163D01*
X021489Y013866D02*
X021489Y013672D01*
X021779Y013672D01*
X021779Y013866D01*
X021634Y013769D02*
X021634Y013672D01*
X021537Y013276D02*
X021489Y013276D01*
X021537Y013276D02*
X021634Y013180D01*
X021779Y013180D01*
X021634Y013180D02*
X021537Y013083D01*
X021489Y013083D01*
X021489Y012982D02*
X021779Y012982D01*
X021634Y012982D02*
X021634Y012788D01*
X021634Y012687D02*
X021683Y012639D01*
X021683Y012494D01*
X021779Y012494D02*
X021489Y012494D01*
X021489Y012639D01*
X021537Y012687D01*
X021634Y012687D01*
X021779Y012788D02*
X021489Y012788D01*
X021489Y012392D02*
X021779Y012199D01*
X021731Y012098D02*
X021779Y012049D01*
X021779Y011953D01*
X021731Y011904D01*
X021537Y011904D01*
X021489Y011953D01*
X021489Y012049D01*
X021537Y012098D01*
X021586Y011803D02*
X021779Y011803D01*
X021634Y011803D02*
X021634Y011610D01*
X021586Y011610D02*
X021489Y011706D01*
X021586Y011803D01*
X021586Y011610D02*
X021779Y011610D01*
X021779Y011508D02*
X021489Y011508D01*
X021586Y011412D01*
X021489Y011315D01*
X021779Y011315D01*
D12*
X010108Y015782D02*
X009761Y015782D01*
X009593Y015782D02*
X009419Y015956D01*
X009246Y015869D02*
X009333Y015782D01*
X009506Y015782D01*
X009593Y015869D01*
X009593Y016216D01*
X009506Y016303D01*
X009333Y016303D01*
X009246Y016216D01*
X009246Y015869D01*
X009761Y016129D02*
X009935Y016303D01*
X009935Y015782D01*
D13*
X008365Y010788D02*
X008205Y010628D01*
X008009Y010708D02*
X007929Y010788D01*
X007769Y010788D01*
X007689Y010708D01*
X007689Y010388D01*
X007769Y010308D01*
X007929Y010308D01*
X008009Y010388D01*
X008205Y010308D02*
X008525Y010308D01*
X008365Y010308D02*
X008365Y010788D01*
X007505Y010788D02*
X007345Y010788D01*
X007425Y010788D02*
X007425Y010308D01*
X007345Y010308D02*
X007505Y010308D01*
X004744Y010250D02*
X004744Y009750D01*
X004494Y009500D01*
X004744Y009250D01*
X004744Y008750D01*
X004494Y008500D01*
X004744Y008250D01*
X004744Y007750D01*
X004494Y007500D01*
X004744Y007250D01*
X004744Y006750D01*
X004494Y006500D01*
X004744Y006250D01*
X004744Y005750D01*
X004494Y005500D01*
X004744Y005250D01*
X004744Y004750D01*
X004494Y004500D01*
X004744Y004250D01*
X004744Y003750D01*
X004494Y003500D01*
X003994Y003500D01*
X003744Y003750D01*
X003494Y003500D01*
X002994Y003500D01*
X002744Y003750D01*
X002744Y004250D01*
X002994Y004500D01*
X003494Y004500D01*
X003744Y004250D01*
X003994Y004500D01*
X003744Y004750D01*
X003494Y004500D01*
X003744Y004250D02*
X003744Y003750D01*
X003994Y004500D02*
X004494Y004500D01*
X003744Y004750D02*
X003744Y005250D01*
X003494Y005500D01*
X003744Y005750D01*
X003744Y006250D01*
X003494Y006500D01*
X003744Y006750D01*
X003744Y007250D01*
X003494Y007500D01*
X003744Y007750D01*
X003744Y008250D01*
X003494Y008500D01*
X003744Y008750D01*
X003744Y009250D01*
X003494Y009500D01*
X002994Y009500D01*
X002744Y009250D01*
X002744Y008750D01*
X002994Y008500D01*
X002744Y008250D01*
X002744Y007750D01*
X002994Y007500D01*
X002744Y007250D01*
X002744Y006750D01*
X002994Y006500D01*
X002744Y006250D01*
X002744Y005750D01*
X002994Y005500D01*
X002744Y005250D01*
X002744Y004750D01*
X002994Y004500D01*
X003744Y005250D02*
X003994Y005500D01*
X003744Y005750D01*
X003494Y005500D02*
X002994Y005500D01*
X003744Y006250D02*
X003994Y006500D01*
X003744Y006750D01*
X003494Y006500D02*
X002994Y006500D01*
X003744Y007250D02*
X003994Y007500D01*
X003744Y007750D01*
X003494Y007500D02*
X002994Y007500D01*
X003744Y008250D02*
X003994Y008500D01*
X003744Y008750D01*
X003494Y008500D02*
X002994Y008500D01*
X003744Y009250D02*
X003994Y009500D01*
X003744Y009500D01*
X003494Y009500D01*
X003744Y009500D02*
X003744Y010500D01*
X004494Y010500D01*
X004744Y010250D01*
X004494Y009500D02*
X003994Y009500D01*
X002994Y009500D02*
X002744Y009500D01*
X002744Y010500D01*
X003744Y010500D01*
X003994Y008500D02*
X004494Y008500D01*
X004494Y007500D02*
X003994Y007500D01*
X003994Y006500D02*
X004494Y006500D01*
X004494Y005500D02*
X003994Y005500D01*
X007288Y005455D02*
X007288Y004975D01*
X007288Y005135D02*
X007528Y005135D01*
X007608Y005215D01*
X007608Y005375D01*
X007528Y005455D01*
X007288Y005455D01*
X007448Y005135D02*
X007608Y004975D01*
X007804Y004975D02*
X008124Y005295D01*
X008124Y005375D01*
X008044Y005455D01*
X007884Y005455D01*
X007804Y005375D01*
X007804Y004975D02*
X008124Y004975D01*
X012534Y007385D02*
X012534Y007625D01*
X012614Y007705D01*
X012774Y007705D01*
X012854Y007625D01*
X012854Y007385D01*
X012854Y007545D02*
X013014Y007705D01*
X013014Y007901D02*
X012934Y007901D01*
X012614Y008221D01*
X012534Y008221D01*
X012534Y007901D01*
X012534Y007385D02*
X013014Y007385D01*
X014684Y007355D02*
X014684Y007595D01*
X014764Y007675D01*
X014924Y007675D01*
X015004Y007595D01*
X015004Y007355D01*
X015004Y007515D02*
X015164Y007675D01*
X014924Y007871D02*
X014924Y008191D01*
X014684Y008111D02*
X014924Y007871D01*
X015164Y008111D02*
X014684Y008111D01*
X014684Y007355D02*
X015164Y007355D01*
X015204Y005595D02*
X015284Y005515D01*
X015284Y005354D01*
X015204Y005274D01*
X015044Y005274D02*
X014964Y005434D01*
X014964Y005515D01*
X015044Y005595D01*
X015204Y005595D01*
X014804Y005595D02*
X014804Y005274D01*
X015044Y005274D01*
X015044Y005079D02*
X015124Y004999D01*
X015124Y004759D01*
X015124Y004919D02*
X015284Y005079D01*
X015044Y005079D02*
X014884Y005079D01*
X014804Y004999D01*
X014804Y004759D01*
X015284Y004759D01*
X013639Y004900D02*
X013479Y004820D01*
X013319Y004660D01*
X013559Y004660D01*
X013639Y004580D01*
X013639Y004500D01*
X013559Y004420D01*
X013399Y004420D01*
X013319Y004500D01*
X013319Y004660D01*
X013123Y004660D02*
X013123Y004820D01*
X013043Y004900D01*
X012803Y004900D01*
X012803Y004420D01*
X012803Y004580D02*
X013043Y004580D01*
X013123Y004660D01*
X012963Y004580D02*
X013123Y004420D01*
X011824Y009440D02*
X011344Y009440D01*
X011344Y009680D01*
X011424Y009760D01*
X011584Y009760D01*
X011664Y009680D01*
X011664Y009440D01*
X011664Y009600D02*
X011824Y009760D01*
X011744Y009956D02*
X011664Y009956D01*
X011584Y010036D01*
X011584Y010196D01*
X011664Y010276D01*
X011744Y010276D01*
X011824Y010196D01*
X011824Y010036D01*
X011744Y009956D01*
X011584Y010036D02*
X011504Y009956D01*
X011424Y009956D01*
X011344Y010036D01*
X011344Y010196D01*
X011424Y010276D01*
X011504Y010276D01*
X011584Y010196D01*
X019744Y010250D02*
X019744Y009750D01*
X019994Y009500D01*
X020494Y009500D01*
X020744Y009750D01*
X020994Y009500D01*
X020744Y009250D01*
X020744Y008750D01*
X020994Y008500D01*
X020744Y008250D01*
X020744Y007750D01*
X020994Y007500D01*
X020744Y007250D01*
X020744Y006750D01*
X020994Y006500D01*
X020744Y006250D01*
X020744Y005750D01*
X020994Y005500D01*
X020744Y005250D01*
X020744Y004750D01*
X020994Y004500D01*
X021494Y004500D01*
X021744Y004750D01*
X021744Y005250D01*
X021494Y005500D01*
X021744Y005750D01*
X021744Y006250D01*
X021494Y006500D01*
X021744Y006750D01*
X021744Y007250D01*
X021494Y007500D01*
X021744Y007750D01*
X021744Y008250D01*
X021494Y008500D01*
X021744Y008750D01*
X021744Y009250D01*
X021494Y009500D01*
X021744Y009750D01*
X021744Y010250D01*
X021494Y010500D01*
X020994Y010500D01*
X020744Y010250D01*
X020744Y009750D01*
X020494Y009500D02*
X020744Y009250D01*
X020994Y009500D02*
X021494Y009500D01*
X020744Y008750D02*
X020494Y008500D01*
X020744Y008250D01*
X020494Y008500D02*
X019994Y008500D01*
X019744Y008750D01*
X019744Y009250D01*
X019994Y009500D01*
X019744Y010250D02*
X019994Y010500D01*
X020494Y010500D01*
X020744Y010250D01*
X020994Y008500D02*
X021494Y008500D01*
X020744Y007750D02*
X020494Y007500D01*
X020744Y007250D01*
X020494Y007500D02*
X019994Y007500D01*
X019744Y007750D01*
X019744Y008250D01*
X019994Y008500D01*
X019994Y007500D02*
X019744Y007250D01*
X019744Y006750D01*
X019994Y006500D01*
X020494Y006500D01*
X020744Y006750D01*
X020494Y006500D02*
X020744Y006250D01*
X020994Y006500D02*
X021494Y006500D01*
X020744Y005750D02*
X020494Y005500D01*
X020744Y005250D01*
X020494Y005500D02*
X019994Y005500D01*
X019744Y005750D01*
X019744Y006250D01*
X019994Y006500D01*
X019994Y005500D02*
X019744Y005250D01*
X019744Y004750D01*
X019994Y004500D01*
X020494Y004500D01*
X020744Y004750D01*
X020744Y004500D02*
X020494Y004500D01*
X020744Y004500D02*
X020994Y004500D01*
X020744Y004500D02*
X020744Y003500D01*
X019994Y003500D01*
X019744Y003750D01*
X019744Y004250D01*
X019994Y004500D01*
X020744Y003500D02*
X021744Y003500D01*
X021744Y004500D01*
X021494Y004500D01*
X021494Y005500D02*
X020994Y005500D01*
X020994Y007500D02*
X021494Y007500D01*
X020484Y014430D02*
X020324Y014430D01*
X020244Y014510D01*
X020048Y014430D02*
X019888Y014590D01*
X019968Y014590D02*
X019728Y014590D01*
X019728Y014430D02*
X019728Y014910D01*
X019968Y014910D01*
X020048Y014830D01*
X020048Y014670D01*
X019968Y014590D01*
X020244Y014830D02*
X020324Y014910D01*
X020484Y014910D01*
X020564Y014830D01*
X020564Y014750D01*
X020484Y014670D01*
X020564Y014590D01*
X020564Y014510D01*
X020484Y014430D01*
X020484Y014670D02*
X020404Y014670D01*
D14*
X021734Y003250D02*
X021736Y003255D01*
X021740Y003259D01*
X021745Y003260D01*
X021751Y003258D01*
X021754Y003253D01*
X021754Y003247D01*
X021751Y003242D01*
X021745Y003240D01*
X021740Y003241D01*
X021736Y003245D01*
X021734Y003250D01*
X002734Y010750D02*
X002736Y010755D01*
X002740Y010759D01*
X002745Y010760D01*
X002751Y010758D01*
X002754Y010753D01*
X002754Y010747D01*
X002751Y010742D01*
X002745Y010740D01*
X002740Y010741D01*
X002736Y010745D01*
X002734Y010750D01*
D15*
X006305Y013203D02*
X010005Y013203D01*
X008949Y006303D02*
X008951Y006331D01*
X008957Y006359D01*
X008966Y006385D01*
X008979Y006410D01*
X008995Y006433D01*
X009014Y006454D01*
X009036Y006471D01*
X009060Y006486D01*
X009086Y006497D01*
X009113Y006505D01*
X009141Y006509D01*
X009169Y006509D01*
X009197Y006505D01*
X009224Y006497D01*
X009250Y006486D01*
X009274Y006471D01*
X009296Y006454D01*
X009315Y006433D01*
X009331Y006410D01*
X009344Y006385D01*
X009353Y006359D01*
X009359Y006331D01*
X009361Y006303D01*
X009359Y006275D01*
X009353Y006247D01*
X009344Y006221D01*
X009331Y006196D01*
X009315Y006173D01*
X009296Y006152D01*
X009274Y006135D01*
X009250Y006120D01*
X009224Y006109D01*
X009197Y006101D01*
X009169Y006097D01*
X009141Y006097D01*
X009113Y006101D01*
X009086Y006109D01*
X009060Y006120D01*
X009036Y006135D01*
X009014Y006152D01*
X008995Y006173D01*
X008979Y006196D01*
X008966Y006221D01*
X008957Y006247D01*
X008951Y006275D01*
X008949Y006303D01*
X010005Y005703D02*
X006305Y005703D01*
D16*
X011834Y010818D02*
X011834Y020869D01*
X017806Y020869D01*
X018444Y020869D01*
X018444Y021122D01*
X018445Y021121D02*
X017807Y021121D01*
X017538Y021121D01*
X017538Y020869D01*
X017806Y020870D02*
X017807Y020869D01*
X017806Y020869D01*
X017807Y021121D02*
X017806Y021121D01*
X018444Y020869D02*
X018444Y010818D01*
X018443Y010818D02*
X011834Y010818D01*
X011833Y018752D02*
X011363Y018752D01*
X011363Y020655D01*
X011365Y020696D01*
X011370Y020736D01*
X011379Y020776D01*
X011391Y020815D01*
X011407Y020853D01*
X011426Y020889D01*
X011448Y020923D01*
X011472Y020956D01*
X011500Y020986D01*
X011530Y021014D01*
X011563Y021038D01*
X011597Y021060D01*
X011633Y021079D01*
X011671Y021095D01*
X011710Y021107D01*
X011750Y021116D01*
X011790Y021121D01*
X011831Y021123D01*
X011833Y021121D02*
X012687Y021121D01*
X012688Y021121D02*
X012731Y021121D01*
X012731Y020869D01*
X011833Y020869D02*
X011833Y021121D01*
X018445Y021122D02*
X018486Y021120D01*
X018527Y021115D01*
X018567Y021106D01*
X018606Y021094D01*
X018644Y021078D01*
X018680Y021059D01*
X018715Y021037D01*
X018747Y021012D01*
X018777Y020984D01*
X018805Y020954D01*
X018830Y020922D01*
X018852Y020887D01*
X018871Y020851D01*
X018887Y020813D01*
X018899Y020774D01*
X018908Y020734D01*
X018913Y020693D01*
X018915Y020652D01*
X018914Y020652D02*
X018914Y018752D01*
X018914Y018752D01*
X018914Y018752D01*
X018914Y018752D01*
X018913Y020651D01*
X018914Y018751D02*
X018444Y018751D01*
D17*
X020151Y014236D02*
X020387Y014236D01*
X020387Y013764D02*
X020151Y013764D01*
X020088Y012175D02*
X019921Y012175D01*
X019838Y012092D01*
X019838Y011758D01*
X019921Y011675D01*
X020088Y011675D01*
X020172Y011758D01*
X020354Y011758D02*
X020437Y011675D01*
X020604Y011675D01*
X020687Y011758D01*
X020687Y012092D01*
X020604Y012175D01*
X020437Y012175D01*
X020354Y012092D01*
X020354Y012009D01*
X020437Y011925D01*
X020687Y011925D01*
X020172Y012092D02*
X020088Y012175D01*
X018737Y009393D02*
X018654Y009393D01*
X018654Y009059D01*
X018737Y008877D02*
X018654Y008794D01*
X018654Y008627D01*
X018737Y008544D01*
X019071Y008544D01*
X019154Y008627D01*
X019154Y008794D01*
X019071Y008877D01*
X019071Y009059D02*
X019154Y009059D01*
X019071Y009059D02*
X018737Y009393D01*
X017795Y008500D02*
X017879Y008417D01*
X017879Y008334D01*
X017795Y008250D01*
X017879Y008167D01*
X017879Y008083D01*
X017795Y008000D01*
X017628Y008000D01*
X017545Y008083D01*
X017363Y008083D02*
X017280Y008000D01*
X017113Y008000D01*
X017029Y008083D01*
X017029Y008417D01*
X017113Y008500D01*
X017280Y008500D01*
X017363Y008417D01*
X017545Y008417D02*
X017628Y008500D01*
X017795Y008500D01*
X017795Y008250D02*
X017712Y008250D01*
X015741Y007908D02*
X015741Y007672D01*
X015268Y007672D02*
X015268Y007908D01*
X013616Y007913D02*
X013616Y007677D01*
X013143Y007677D02*
X013143Y007913D01*
X012114Y006814D02*
X012114Y006481D01*
X011781Y006814D01*
X011697Y006814D01*
X011614Y006731D01*
X011614Y006564D01*
X011697Y006481D01*
X011697Y006299D02*
X011614Y006215D01*
X011614Y006048D01*
X011697Y005965D01*
X012031Y005965D01*
X012114Y006048D01*
X012114Y006215D01*
X012031Y006299D01*
X013148Y005693D02*
X013148Y005457D01*
X013621Y005457D02*
X013621Y005693D01*
X015278Y005668D02*
X015278Y005432D01*
X015751Y005432D02*
X015751Y005668D01*
X016678Y005580D02*
X016678Y005080D01*
X016678Y005330D02*
X016845Y005330D01*
X016678Y005580D02*
X017012Y005580D01*
X017194Y005414D02*
X017360Y005580D01*
X017360Y005080D01*
X017194Y005080D02*
X017527Y005080D01*
X015115Y009690D02*
X015115Y010190D01*
X014865Y009940D01*
X015199Y009940D01*
X014683Y009773D02*
X014600Y009690D01*
X014433Y009690D01*
X014349Y009773D01*
X014349Y010107D01*
X014433Y010190D01*
X014600Y010190D01*
X014683Y010107D01*
X012536Y010043D02*
X012536Y009807D01*
X012063Y009807D02*
X012063Y010043D01*
X008872Y004831D02*
X008636Y004831D01*
X008427Y004545D02*
X008427Y004045D01*
X008260Y004045D02*
X008594Y004045D01*
X008776Y004128D02*
X008776Y004462D01*
X008859Y004545D01*
X009026Y004545D01*
X009109Y004462D01*
X008776Y004128D01*
X008859Y004045D01*
X009026Y004045D01*
X009109Y004128D01*
X009109Y004462D01*
X008872Y004359D02*
X008636Y004359D01*
X008427Y004545D02*
X008260Y004379D01*
X008078Y004462D02*
X007995Y004545D01*
X007828Y004545D01*
X007744Y004462D01*
X007744Y004128D01*
X007828Y004045D01*
X007995Y004045D01*
X008078Y004128D01*
X003905Y011210D02*
X003738Y011210D01*
X003655Y011293D01*
X003655Y011377D01*
X003738Y011460D01*
X003905Y011460D01*
X003989Y011377D01*
X003989Y011293D01*
X003905Y011210D01*
X003905Y011460D02*
X003989Y011544D01*
X003989Y011627D01*
X003905Y011710D01*
X003738Y011710D01*
X003655Y011627D01*
X003655Y011544D01*
X003738Y011460D01*
X003473Y011293D02*
X003390Y011210D01*
X003223Y011210D01*
X003139Y011293D01*
X003139Y011627D01*
X003223Y011710D01*
X003390Y011710D01*
X003473Y011627D01*
X004791Y013560D02*
X004958Y013560D01*
X005042Y013643D01*
X005224Y013643D02*
X005307Y013560D01*
X005474Y013560D01*
X005557Y013643D01*
X005557Y013727D01*
X005474Y013810D01*
X005224Y013810D01*
X005224Y013643D01*
X005224Y013810D02*
X005390Y013977D01*
X005557Y014060D01*
X005042Y013977D02*
X004958Y014060D01*
X004791Y014060D01*
X004708Y013977D01*
X004708Y013643D01*
X004791Y013560D01*
X003774Y015515D02*
X003607Y015515D01*
X003524Y015598D01*
X003524Y015765D02*
X003690Y015849D01*
X003774Y015849D01*
X003857Y015765D01*
X003857Y015598D01*
X003774Y015515D01*
X003524Y015765D02*
X003524Y016015D01*
X003857Y016015D01*
X003342Y015932D02*
X003258Y016015D01*
X003091Y016015D01*
X003008Y015932D01*
X003008Y015598D01*
X003091Y015515D01*
X003258Y015515D01*
X003342Y015598D01*
M02*
