G75*
G70*
%OFA0B0*%
%FSLAX24Y24*%
%IPPOS*%
%LPD*%
%AMOC8*
5,1,8,0,0,1.08239X$1,22.5*
%
%ADD10C,0.0000*%
%ADD11C,0.0004*%
D10*
X002689Y003191D02*
X005634Y003191D01*
X005634Y003190D02*
X012304Y003190D01*
X012326Y003195D01*
X012348Y003198D01*
X012371Y003197D01*
X012393Y003193D01*
X012414Y003186D01*
X012435Y003176D01*
X012453Y003163D01*
X012470Y003148D01*
X012484Y003130D01*
X012495Y003111D01*
X012504Y003090D01*
X012504Y003030D01*
X012500Y003001D01*
X012499Y002971D01*
X012502Y002942D01*
X012508Y002913D01*
X012518Y002885D01*
X012531Y002858D01*
X012548Y002834D01*
X012567Y002811D01*
X012588Y002791D01*
X012612Y002773D01*
X012638Y002759D01*
X012665Y002748D01*
X012694Y002740D01*
X016554Y002740D01*
X016583Y002747D01*
X016611Y002757D01*
X016637Y002771D01*
X016662Y002787D01*
X016685Y002806D01*
X016705Y002828D01*
X016723Y002851D01*
X016739Y002877D01*
X016751Y002904D01*
X016760Y002932D01*
X016766Y002961D01*
X016769Y002991D01*
X016768Y003021D01*
X016764Y003050D01*
X016764Y003070D01*
X016766Y003083D01*
X016770Y003096D01*
X016777Y003107D01*
X016787Y003117D01*
X016798Y003124D01*
X016811Y003128D01*
X016824Y003130D01*
X018684Y003130D01*
X018706Y003128D01*
X018727Y003123D01*
X018748Y003115D01*
X018766Y003103D01*
X018783Y003089D01*
X018797Y003072D01*
X018809Y003054D01*
X018817Y003033D01*
X018822Y003012D01*
X018824Y002990D01*
X018824Y002970D01*
X018826Y002944D01*
X018831Y002918D01*
X018839Y002893D01*
X018851Y002870D01*
X018865Y002848D01*
X018883Y002829D01*
X018902Y002811D01*
X018924Y002797D01*
X018947Y002785D01*
X018972Y002777D01*
X018998Y002772D01*
X019024Y002770D01*
X022034Y002770D01*
X022053Y002772D01*
X022072Y002777D01*
X022089Y002785D01*
X022105Y002796D01*
X022118Y002809D01*
X022129Y002825D01*
X022137Y002842D01*
X022142Y002861D01*
X022144Y002880D01*
X022144Y018700D01*
X020094Y018700D02*
X020096Y018749D01*
X020102Y018797D01*
X020112Y018845D01*
X020126Y018892D01*
X020143Y018938D01*
X020164Y018982D01*
X020189Y019024D01*
X020217Y019064D01*
X020249Y019102D01*
X020283Y019137D01*
X020320Y019169D01*
X020359Y019198D01*
X020401Y019224D01*
X020445Y019246D01*
X020490Y019264D01*
X020537Y019279D01*
X020584Y019290D01*
X020633Y019297D01*
X020682Y019300D01*
X020731Y019299D01*
X020779Y019294D01*
X020828Y019285D01*
X020875Y019272D01*
X020921Y019255D01*
X020965Y019235D01*
X021008Y019211D01*
X021049Y019184D01*
X021087Y019153D01*
X021123Y019120D01*
X021155Y019084D01*
X021185Y019045D01*
X021212Y019004D01*
X021235Y018960D01*
X021254Y018915D01*
X021270Y018869D01*
X021282Y018822D01*
X021290Y018773D01*
X021294Y018724D01*
X021294Y018676D01*
X021290Y018627D01*
X021282Y018578D01*
X021270Y018531D01*
X021254Y018485D01*
X021235Y018440D01*
X021212Y018396D01*
X021185Y018355D01*
X021155Y018316D01*
X021123Y018280D01*
X021087Y018247D01*
X021049Y018216D01*
X021008Y018189D01*
X020965Y018165D01*
X020921Y018145D01*
X020875Y018128D01*
X020828Y018115D01*
X020779Y018106D01*
X020731Y018101D01*
X020682Y018100D01*
X020633Y018103D01*
X020584Y018110D01*
X020537Y018121D01*
X020490Y018136D01*
X020445Y018154D01*
X020401Y018176D01*
X020359Y018202D01*
X020320Y018231D01*
X020283Y018263D01*
X020249Y018298D01*
X020217Y018336D01*
X020189Y018376D01*
X020164Y018418D01*
X020143Y018462D01*
X020126Y018508D01*
X020112Y018555D01*
X020102Y018603D01*
X020096Y018651D01*
X020094Y018700D01*
X020694Y020150D02*
X020770Y020148D01*
X020846Y020142D01*
X020921Y020132D01*
X020995Y020118D01*
X021069Y020101D01*
X021142Y020079D01*
X021214Y020054D01*
X021284Y020025D01*
X021352Y019992D01*
X021419Y019956D01*
X021484Y019916D01*
X021546Y019873D01*
X021607Y019827D01*
X021664Y019778D01*
X021719Y019725D01*
X021772Y019670D01*
X021821Y019613D01*
X021867Y019552D01*
X021910Y019490D01*
X021950Y019425D01*
X021986Y019358D01*
X022019Y019290D01*
X022048Y019220D01*
X022073Y019148D01*
X022095Y019075D01*
X022112Y019001D01*
X022126Y018927D01*
X022136Y018852D01*
X022142Y018776D01*
X022144Y018700D01*
X020694Y020150D02*
X003944Y020150D01*
X003344Y018700D02*
X003346Y018749D01*
X003352Y018797D01*
X003362Y018845D01*
X003376Y018892D01*
X003393Y018938D01*
X003414Y018982D01*
X003439Y019024D01*
X003467Y019064D01*
X003499Y019102D01*
X003533Y019137D01*
X003570Y019169D01*
X003609Y019198D01*
X003651Y019224D01*
X003695Y019246D01*
X003740Y019264D01*
X003787Y019279D01*
X003834Y019290D01*
X003883Y019297D01*
X003932Y019300D01*
X003981Y019299D01*
X004029Y019294D01*
X004078Y019285D01*
X004125Y019272D01*
X004171Y019255D01*
X004215Y019235D01*
X004258Y019211D01*
X004299Y019184D01*
X004337Y019153D01*
X004373Y019120D01*
X004405Y019084D01*
X004435Y019045D01*
X004462Y019004D01*
X004485Y018960D01*
X004504Y018915D01*
X004520Y018869D01*
X004532Y018822D01*
X004540Y018773D01*
X004544Y018724D01*
X004544Y018676D01*
X004540Y018627D01*
X004532Y018578D01*
X004520Y018531D01*
X004504Y018485D01*
X004485Y018440D01*
X004462Y018396D01*
X004435Y018355D01*
X004405Y018316D01*
X004373Y018280D01*
X004337Y018247D01*
X004299Y018216D01*
X004258Y018189D01*
X004215Y018165D01*
X004171Y018145D01*
X004125Y018128D01*
X004078Y018115D01*
X004029Y018106D01*
X003981Y018101D01*
X003932Y018100D01*
X003883Y018103D01*
X003834Y018110D01*
X003787Y018121D01*
X003740Y018136D01*
X003695Y018154D01*
X003651Y018176D01*
X003609Y018202D01*
X003570Y018231D01*
X003533Y018263D01*
X003499Y018298D01*
X003467Y018336D01*
X003439Y018376D01*
X003414Y018418D01*
X003393Y018462D01*
X003376Y018508D01*
X003362Y018555D01*
X003352Y018603D01*
X003346Y018651D01*
X003344Y018700D01*
X002494Y018700D02*
X002496Y018776D01*
X002502Y018852D01*
X002512Y018927D01*
X002526Y019001D01*
X002543Y019075D01*
X002565Y019148D01*
X002590Y019220D01*
X002619Y019290D01*
X002652Y019358D01*
X002688Y019425D01*
X002728Y019490D01*
X002771Y019552D01*
X002817Y019613D01*
X002866Y019670D01*
X002919Y019725D01*
X002974Y019778D01*
X003031Y019827D01*
X003092Y019873D01*
X003154Y019916D01*
X003219Y019956D01*
X003286Y019992D01*
X003354Y020025D01*
X003424Y020054D01*
X003496Y020079D01*
X003569Y020101D01*
X003643Y020118D01*
X003717Y020132D01*
X003792Y020142D01*
X003868Y020148D01*
X003944Y020150D01*
X002494Y018700D02*
X002494Y003402D01*
X002494Y003386D01*
X002496Y003358D01*
X002502Y003331D01*
X002512Y003305D01*
X002525Y003281D01*
X002542Y003258D01*
X002561Y003239D01*
X002584Y003222D01*
X002608Y003209D01*
X002634Y003199D01*
X002661Y003193D01*
X002689Y003191D01*
X003954Y000500D02*
X003964Y000500D01*
X012001Y016566D02*
X012003Y016616D01*
X012009Y016666D01*
X012019Y016715D01*
X012032Y016764D01*
X012050Y016811D01*
X012071Y016857D01*
X012095Y016900D01*
X012123Y016942D01*
X012154Y016982D01*
X012188Y017019D01*
X012225Y017053D01*
X012265Y017084D01*
X012307Y017112D01*
X012350Y017136D01*
X012396Y017157D01*
X012443Y017175D01*
X012492Y017188D01*
X012541Y017198D01*
X012591Y017204D01*
X012641Y017206D01*
X012691Y017204D01*
X012741Y017198D01*
X012790Y017188D01*
X012839Y017175D01*
X012886Y017157D01*
X012932Y017136D01*
X012975Y017112D01*
X013017Y017084D01*
X013057Y017053D01*
X013094Y017019D01*
X013128Y016982D01*
X013159Y016942D01*
X013187Y016900D01*
X013211Y016857D01*
X013232Y016811D01*
X013250Y016764D01*
X013263Y016715D01*
X013273Y016666D01*
X013279Y016616D01*
X013281Y016566D01*
X013279Y016516D01*
X013273Y016466D01*
X013263Y016417D01*
X013250Y016368D01*
X013232Y016321D01*
X013211Y016275D01*
X013187Y016232D01*
X013159Y016190D01*
X013128Y016150D01*
X013094Y016113D01*
X013057Y016079D01*
X013017Y016048D01*
X012975Y016020D01*
X012932Y015996D01*
X012886Y015975D01*
X012839Y015957D01*
X012790Y015944D01*
X012741Y015934D01*
X012691Y015928D01*
X012641Y015926D01*
X012591Y015928D01*
X012541Y015934D01*
X012492Y015944D01*
X012443Y015957D01*
X012396Y015975D01*
X012350Y015996D01*
X012307Y016020D01*
X012265Y016048D01*
X012225Y016079D01*
X012188Y016113D01*
X012154Y016150D01*
X012123Y016190D01*
X012095Y016232D01*
X012071Y016275D01*
X012050Y016321D01*
X012032Y016368D01*
X012019Y016417D01*
X012009Y016466D01*
X012003Y016516D01*
X012001Y016566D01*
X017001Y016566D02*
X017003Y016616D01*
X017009Y016666D01*
X017019Y016715D01*
X017032Y016764D01*
X017050Y016811D01*
X017071Y016857D01*
X017095Y016900D01*
X017123Y016942D01*
X017154Y016982D01*
X017188Y017019D01*
X017225Y017053D01*
X017265Y017084D01*
X017307Y017112D01*
X017350Y017136D01*
X017396Y017157D01*
X017443Y017175D01*
X017492Y017188D01*
X017541Y017198D01*
X017591Y017204D01*
X017641Y017206D01*
X017691Y017204D01*
X017741Y017198D01*
X017790Y017188D01*
X017839Y017175D01*
X017886Y017157D01*
X017932Y017136D01*
X017975Y017112D01*
X018017Y017084D01*
X018057Y017053D01*
X018094Y017019D01*
X018128Y016982D01*
X018159Y016942D01*
X018187Y016900D01*
X018211Y016857D01*
X018232Y016811D01*
X018250Y016764D01*
X018263Y016715D01*
X018273Y016666D01*
X018279Y016616D01*
X018281Y016566D01*
X018279Y016516D01*
X018273Y016466D01*
X018263Y016417D01*
X018250Y016368D01*
X018232Y016321D01*
X018211Y016275D01*
X018187Y016232D01*
X018159Y016190D01*
X018128Y016150D01*
X018094Y016113D01*
X018057Y016079D01*
X018017Y016048D01*
X017975Y016020D01*
X017932Y015996D01*
X017886Y015975D01*
X017839Y015957D01*
X017790Y015944D01*
X017741Y015934D01*
X017691Y015928D01*
X017641Y015926D01*
X017591Y015928D01*
X017541Y015934D01*
X017492Y015944D01*
X017443Y015957D01*
X017396Y015975D01*
X017350Y015996D01*
X017307Y016020D01*
X017265Y016048D01*
X017225Y016079D01*
X017188Y016113D01*
X017154Y016150D01*
X017123Y016190D01*
X017095Y016232D01*
X017071Y016275D01*
X017050Y016321D01*
X017032Y016368D01*
X017019Y016417D01*
X017009Y016466D01*
X017003Y016516D01*
X017001Y016566D01*
D11*
X018444Y018751D02*
X018914Y018751D01*
X018914Y018752D02*
X018914Y018752D01*
X018914Y018752D01*
X018914Y018752D01*
X018914Y020652D01*
X018913Y020651D02*
X018914Y018752D01*
X018915Y020652D02*
X018913Y020693D01*
X018908Y020734D01*
X018899Y020774D01*
X018887Y020813D01*
X018871Y020851D01*
X018852Y020887D01*
X018830Y020922D01*
X018805Y020954D01*
X018777Y020984D01*
X018747Y021012D01*
X018715Y021037D01*
X018680Y021059D01*
X018644Y021078D01*
X018606Y021094D01*
X018567Y021106D01*
X018527Y021115D01*
X018486Y021120D01*
X018445Y021122D01*
X018445Y021121D02*
X017807Y021121D01*
X017538Y021121D01*
X017538Y020869D01*
X017806Y020869D02*
X018444Y020869D01*
X018444Y021122D01*
X018444Y020869D02*
X018444Y010818D01*
X018443Y010818D02*
X011834Y010818D01*
X011834Y020869D01*
X017806Y020869D01*
X017807Y020869D01*
X017806Y020870D01*
X017807Y021121D02*
X017806Y021121D01*
X012731Y021121D02*
X012731Y020869D01*
X012731Y021121D02*
X012688Y021121D01*
X012687Y021121D02*
X011833Y021121D01*
X011833Y020869D01*
X011831Y021123D02*
X011790Y021121D01*
X011750Y021116D01*
X011710Y021107D01*
X011671Y021095D01*
X011633Y021079D01*
X011597Y021060D01*
X011563Y021038D01*
X011530Y021014D01*
X011500Y020986D01*
X011472Y020956D01*
X011448Y020923D01*
X011426Y020889D01*
X011407Y020853D01*
X011391Y020815D01*
X011379Y020776D01*
X011370Y020736D01*
X011365Y020696D01*
X011363Y020655D01*
X011363Y018752D01*
X011833Y018752D01*
M02*
