G75*
G70*
%OFA0B0*%
%FSLAX24Y24*%
%IPPOS*%
%LPD*%
%AMOC8*
5,1,8,0,0,1.08239X$1,22.5*
%
%ADD10R,0.0787X0.2165*%
%ADD11OC8,0.0740*%
%ADD12R,0.0709X0.0138*%
%ADD13C,0.0602*%
%ADD14C,0.0927*%
%ADD15R,0.0630X0.0709*%
%ADD16R,0.0315X0.0472*%
%ADD17R,0.0472X0.0315*%
%ADD18R,0.0709X0.0630*%
%ADD19C,0.0100*%
%ADD20C,0.0396*%
D10*
X019824Y007907D03*
X019824Y011647D03*
D11*
X021524Y011327D03*
X022524Y011327D03*
X022524Y010327D03*
X021524Y010327D03*
X021524Y009327D03*
X022524Y009327D03*
X022524Y008327D03*
X021524Y008327D03*
X021524Y007327D03*
X022524Y007327D03*
X022524Y006327D03*
X021524Y006327D03*
X021524Y005327D03*
X022524Y005327D03*
X015524Y014327D03*
X014524Y014327D03*
X013524Y014327D03*
X012524Y014327D03*
X011524Y014327D03*
X010524Y014327D03*
X009524Y014327D03*
X009524Y015327D03*
X010524Y015327D03*
X011524Y015327D03*
X012524Y015327D03*
X013524Y015327D03*
X014524Y015327D03*
X015524Y015327D03*
D12*
X014013Y012270D03*
X014013Y011770D03*
X014013Y011270D03*
X014013Y010770D03*
X014013Y010270D03*
X014013Y009770D03*
X014013Y009270D03*
X014013Y008770D03*
X014013Y008270D03*
X014013Y007770D03*
X014013Y007270D03*
X014013Y006770D03*
X014013Y006270D03*
X014013Y005770D03*
X017714Y005770D03*
X017714Y006270D03*
X017714Y006770D03*
X017714Y007270D03*
X017714Y007770D03*
X017714Y008270D03*
X017714Y008770D03*
X017714Y009270D03*
X017714Y009770D03*
X017714Y010270D03*
X017714Y010770D03*
X017714Y011270D03*
X017714Y011770D03*
X017714Y012270D03*
D13*
X010024Y011966D03*
X009056Y011120D03*
X010024Y010966D03*
X009056Y010320D03*
X009056Y009521D03*
X009056Y008722D03*
X009056Y007923D03*
X010024Y007277D03*
X009056Y007124D03*
X010024Y006277D03*
D14*
X003407Y005950D03*
X003407Y012301D03*
D15*
X004748Y013152D03*
X005851Y013152D03*
X007098Y013152D03*
X008201Y013152D03*
X008201Y014502D03*
X007098Y014502D03*
X010948Y013202D03*
X012051Y013202D03*
X018648Y013802D03*
X019751Y013802D03*
X012326Y005927D03*
X011223Y005927D03*
X012723Y004702D03*
X013826Y004702D03*
X010176Y004552D03*
X009073Y004552D03*
D16*
X011320Y007102D03*
X012029Y007102D03*
X015470Y004577D03*
X016179Y004577D03*
X017170Y004527D03*
X017879Y004527D03*
X016254Y013452D03*
X015545Y013452D03*
D17*
X012899Y011506D03*
X012899Y010798D03*
X011874Y010798D03*
X011024Y010798D03*
X011024Y011506D03*
X011874Y011506D03*
D18*
X019949Y005703D03*
X019949Y004601D03*
X020974Y012701D03*
X020974Y013803D03*
D19*
X002974Y005364D02*
X002974Y002803D01*
X022824Y002827D01*
X022824Y004892D01*
X022740Y004807D01*
X022574Y004807D01*
X022574Y005277D01*
X022474Y005277D01*
X022004Y005277D01*
X021574Y005277D01*
X021574Y004807D01*
X021740Y004807D01*
X022024Y005092D01*
X022309Y004807D01*
X022474Y004807D01*
X022474Y005277D01*
X022474Y005377D01*
X021574Y005377D01*
X021574Y005277D01*
X021474Y005277D01*
X021004Y005277D01*
X021004Y005112D01*
X021309Y004807D01*
X021474Y004807D01*
X021474Y005277D01*
X021474Y005377D01*
X021004Y005377D01*
X021004Y005542D01*
X021275Y005813D01*
X020984Y006103D01*
X020984Y006551D01*
X021261Y006827D01*
X020984Y007103D01*
X020984Y007551D01*
X021261Y007827D01*
X020984Y008103D01*
X020984Y008551D01*
X021261Y008827D01*
X020984Y009103D01*
X020984Y009551D01*
X021261Y009827D01*
X020984Y010103D01*
X020984Y010551D01*
X021275Y010841D01*
X021004Y011112D01*
X021004Y011277D01*
X021474Y011277D01*
X021474Y011377D01*
X021004Y011377D01*
X021004Y011542D01*
X021309Y011847D01*
X021474Y011847D01*
X021474Y011377D01*
X021574Y011377D01*
X021574Y011847D01*
X021740Y011847D01*
X021804Y011782D01*
X021804Y013811D01*
X021479Y014137D01*
X021479Y013853D01*
X021024Y013853D01*
X020924Y013853D01*
X020924Y013753D01*
X020470Y013753D01*
X020470Y013469D01*
X020480Y013430D01*
X020500Y013396D01*
X020528Y013368D01*
X020562Y013349D01*
X020600Y013338D01*
X020924Y013338D01*
X020924Y013753D01*
X021024Y013753D01*
X021024Y013338D01*
X021348Y013338D01*
X021387Y013349D01*
X021421Y013368D01*
X021449Y013396D01*
X021469Y013430D01*
X021479Y013469D01*
X021479Y013753D01*
X021024Y013753D01*
X021024Y013853D01*
X021024Y014268D01*
X021347Y014268D01*
X021233Y014382D01*
X018166Y014382D01*
X017894Y014111D01*
X017894Y013011D01*
X017766Y012882D01*
X017392Y012509D01*
X018139Y012509D01*
X018158Y012490D01*
X018423Y012490D01*
X018516Y012397D01*
X018644Y012268D01*
X018644Y010272D01*
X018619Y010247D01*
X018619Y009851D01*
X018708Y009814D01*
X018811Y009711D01*
X018868Y009575D01*
X018868Y009429D01*
X018811Y009294D01*
X018708Y009190D01*
X018573Y009134D01*
X018426Y009134D01*
X018291Y009190D01*
X018219Y009262D01*
X018219Y009181D01*
X018208Y009143D01*
X018189Y009109D01*
X018161Y009081D01*
X018126Y009061D01*
X018088Y009051D01*
X017714Y009051D01*
X017714Y009270D01*
X017714Y009489D01*
X017340Y009489D01*
X017319Y009483D01*
X017319Y009531D01*
X018131Y009531D01*
X018131Y009476D01*
X018126Y009479D01*
X018088Y009489D01*
X017714Y009489D01*
X017714Y009270D01*
X017714Y009270D01*
X017714Y009270D01*
X017714Y009051D01*
X017340Y009051D01*
X017319Y009057D01*
X017319Y008983D01*
X017340Y008989D01*
X017714Y008989D01*
X017714Y008770D01*
X017714Y008770D01*
X017714Y008770D01*
X017714Y008551D01*
X017340Y008551D01*
X017319Y008557D01*
X017319Y008509D01*
X018139Y008509D01*
X018158Y008490D01*
X018876Y008490D01*
X018954Y008568D01*
X018954Y011088D01*
X019083Y011217D01*
X019083Y011217D01*
X019261Y011395D01*
X019261Y012800D01*
X019360Y012900D01*
X019531Y012900D01*
X019531Y013278D01*
X019365Y013278D01*
X019266Y013377D01*
X019266Y014227D01*
X019365Y014326D01*
X020136Y014326D01*
X020236Y014227D01*
X020236Y013377D01*
X020136Y013278D01*
X019971Y013278D01*
X019971Y012900D01*
X020289Y012900D01*
X020388Y012800D01*
X020388Y011827D01*
X020508Y011947D01*
X020754Y012193D01*
X020754Y012216D01*
X020550Y012216D01*
X020450Y012316D01*
X020450Y013086D01*
X020550Y013186D01*
X021399Y013186D01*
X021499Y013086D01*
X021499Y012316D01*
X021399Y012216D01*
X021194Y012216D01*
X021194Y012011D01*
X020819Y011636D01*
X020819Y008591D01*
X020388Y008160D01*
X020388Y006754D01*
X020289Y006654D01*
X019360Y006654D01*
X019261Y006754D01*
X019261Y007550D01*
X018158Y007550D01*
X018139Y007531D01*
X017319Y007531D01*
X017319Y007509D01*
X018139Y007509D01*
X018239Y007409D01*
X018239Y007131D01*
X018139Y007031D01*
X017289Y007031D01*
X017271Y007050D01*
X017115Y007050D01*
X017044Y007121D01*
X017044Y004964D01*
X017075Y004933D01*
X017265Y004933D01*
X017704Y005372D01*
X018511Y005372D01*
X018456Y005504D01*
X018456Y005650D01*
X018512Y005786D01*
X018604Y005878D01*
X018604Y005986D01*
X018540Y006050D01*
X018158Y006050D01*
X018139Y006031D01*
X017289Y006031D01*
X017190Y006131D01*
X017190Y006409D01*
X017289Y006509D01*
X018139Y006509D01*
X018158Y006490D01*
X018616Y006490D01*
X018616Y006490D01*
X018556Y006550D01*
X018158Y006550D01*
X018139Y006531D01*
X017289Y006531D01*
X017190Y006631D01*
X017190Y006909D01*
X017289Y007009D01*
X018139Y007009D01*
X018158Y006990D01*
X018504Y006990D01*
X018512Y007011D01*
X018616Y007114D01*
X018751Y007170D01*
X018898Y007170D01*
X019033Y007114D01*
X019136Y007011D01*
X019193Y006875D01*
X019193Y006729D01*
X019136Y006594D01*
X019033Y006490D01*
X018898Y006434D01*
X018779Y006434D01*
X018851Y006361D01*
X019044Y006168D01*
X019044Y005878D01*
X019136Y005786D01*
X019193Y005650D01*
X019193Y005504D01*
X019138Y005372D01*
X019445Y005372D01*
X019445Y005653D01*
X019899Y005653D01*
X019899Y005753D01*
X019445Y005753D01*
X019445Y006038D01*
X019455Y006076D01*
X019475Y006110D01*
X019503Y006138D01*
X019537Y006158D01*
X019575Y006168D01*
X019899Y006168D01*
X019899Y005753D01*
X019999Y005753D01*
X019999Y006168D01*
X020323Y006168D01*
X020362Y006158D01*
X020396Y006138D01*
X020424Y006110D01*
X020444Y006076D01*
X020454Y006038D01*
X020454Y005753D01*
X019999Y005753D01*
X019999Y005653D01*
X020454Y005653D01*
X020454Y005372D01*
X020666Y005372D01*
X020794Y005243D01*
X021044Y004993D01*
X021044Y003986D01*
X020916Y003857D01*
X020044Y002986D01*
X020044Y002986D01*
X019916Y002857D01*
X008733Y002857D01*
X008604Y002986D01*
X008604Y002986D01*
X008104Y003486D01*
X008104Y005364D01*
X003590Y005364D01*
X003551Y005352D01*
X003457Y005337D01*
X003457Y005364D01*
X003357Y005364D01*
X003357Y005337D01*
X003263Y005352D01*
X003224Y005364D01*
X002974Y005364D01*
X002974Y005275D02*
X008104Y005275D01*
X008104Y005177D02*
X002974Y005177D01*
X002974Y005078D02*
X008104Y005078D01*
X008104Y004980D02*
X002974Y004980D01*
X002974Y004881D02*
X008104Y004881D01*
X008104Y004783D02*
X002974Y004783D01*
X002974Y004684D02*
X008104Y004684D01*
X008104Y004586D02*
X002974Y004586D01*
X002974Y004487D02*
X008104Y004487D01*
X008104Y004389D02*
X002974Y004389D01*
X002974Y004290D02*
X008104Y004290D01*
X008104Y004192D02*
X002974Y004192D01*
X002974Y004093D02*
X008104Y004093D01*
X008104Y003995D02*
X002974Y003995D01*
X002974Y003896D02*
X008104Y003896D01*
X008104Y003798D02*
X002974Y003798D01*
X002974Y003699D02*
X008104Y003699D01*
X008104Y003601D02*
X002974Y003601D01*
X002974Y003502D02*
X008104Y003502D01*
X008187Y003404D02*
X002974Y003404D01*
X002974Y003305D02*
X008285Y003305D01*
X008384Y003207D02*
X002974Y003207D01*
X002974Y003108D02*
X008482Y003108D01*
X008581Y003010D02*
X002974Y003010D01*
X002974Y002911D02*
X008679Y002911D01*
X008824Y003077D02*
X019824Y003077D01*
X020824Y004077D01*
X020824Y004902D01*
X020574Y005152D01*
X017795Y005152D01*
X017170Y004527D01*
X016824Y004873D01*
X016824Y011077D01*
X017017Y011270D01*
X017714Y011270D01*
X017714Y010989D02*
X017340Y010989D01*
X017302Y010979D01*
X017268Y010959D01*
X017240Y010931D01*
X017220Y010897D01*
X017210Y010859D01*
X017210Y010770D01*
X017210Y010681D01*
X017220Y010643D01*
X017240Y010609D01*
X017268Y010581D01*
X017302Y010561D01*
X017340Y010551D01*
X017714Y010551D01*
X017714Y010770D01*
X017210Y010770D01*
X017714Y010770D01*
X017714Y010770D01*
X017714Y010770D01*
X017714Y010989D01*
X017714Y010770D01*
X017714Y010770D01*
X017714Y010551D01*
X018088Y010551D01*
X018126Y010561D01*
X018161Y010581D01*
X018189Y010609D01*
X018204Y010637D01*
X018204Y010490D01*
X018158Y010490D01*
X018139Y010509D01*
X017289Y010509D01*
X017190Y010409D01*
X017190Y010131D01*
X017289Y010031D01*
X018139Y010031D01*
X018158Y010050D01*
X018179Y010050D01*
X018179Y009972D01*
X018176Y009972D01*
X018139Y010009D01*
X017289Y010009D01*
X017253Y009972D01*
X017133Y009972D01*
X017044Y009883D01*
X017044Y010986D01*
X017108Y011050D01*
X017271Y011050D01*
X017289Y011031D01*
X018139Y011031D01*
X018204Y011097D01*
X018204Y010903D01*
X018189Y010931D01*
X018161Y010959D01*
X018126Y010979D01*
X018088Y010989D01*
X017714Y010989D01*
X017714Y010988D02*
X017714Y010988D01*
X017714Y010890D02*
X017714Y010890D01*
X017714Y010791D02*
X017714Y010791D01*
X017714Y010693D02*
X017714Y010693D01*
X017714Y010594D02*
X017714Y010594D01*
X017714Y010270D02*
X018331Y010270D01*
X018424Y010363D01*
X018424Y012177D01*
X018331Y012270D01*
X017714Y012270D01*
X017448Y012564D02*
X019261Y012564D01*
X019261Y012466D02*
X018447Y012466D01*
X018546Y012367D02*
X019261Y012367D01*
X019261Y012269D02*
X018644Y012269D01*
X018644Y012170D02*
X019261Y012170D01*
X019261Y012072D02*
X018644Y012072D01*
X018644Y011973D02*
X019261Y011973D01*
X019261Y011875D02*
X018644Y011875D01*
X018644Y011776D02*
X019261Y011776D01*
X019261Y011678D02*
X018644Y011678D01*
X018644Y011579D02*
X019261Y011579D01*
X019261Y011481D02*
X018644Y011481D01*
X018644Y011382D02*
X019248Y011382D01*
X019150Y011284D02*
X018644Y011284D01*
X018644Y011185D02*
X019051Y011185D01*
X018954Y011087D02*
X018644Y011087D01*
X018644Y010988D02*
X018954Y010988D01*
X018954Y010890D02*
X018644Y010890D01*
X018644Y010791D02*
X018954Y010791D01*
X018954Y010693D02*
X018644Y010693D01*
X018644Y010594D02*
X018954Y010594D01*
X018954Y010496D02*
X018644Y010496D01*
X018644Y010397D02*
X018954Y010397D01*
X018954Y010299D02*
X018644Y010299D01*
X018619Y010200D02*
X018954Y010200D01*
X018954Y010102D02*
X018619Y010102D01*
X018619Y010003D02*
X018954Y010003D01*
X018954Y009905D02*
X018619Y009905D01*
X018716Y009806D02*
X018954Y009806D01*
X018954Y009708D02*
X018813Y009708D01*
X018854Y009609D02*
X018954Y009609D01*
X018954Y009511D02*
X018868Y009511D01*
X018861Y009412D02*
X018954Y009412D01*
X018954Y009314D02*
X018820Y009314D01*
X018733Y009215D02*
X018954Y009215D01*
X018954Y009117D02*
X018193Y009117D01*
X018219Y009215D02*
X018266Y009215D01*
X018126Y008979D02*
X018088Y008989D01*
X017714Y008989D01*
X017714Y008770D01*
X017714Y008551D01*
X018088Y008551D01*
X018126Y008561D01*
X018161Y008581D01*
X018189Y008609D01*
X018208Y008643D01*
X018219Y008681D01*
X018219Y008770D01*
X018219Y008859D01*
X018208Y008897D01*
X018189Y008931D01*
X018161Y008959D01*
X018126Y008979D01*
X018195Y008920D02*
X018954Y008920D01*
X018954Y009018D02*
X017319Y009018D01*
X017714Y008920D02*
X017714Y008920D01*
X017714Y008821D02*
X017714Y008821D01*
X017714Y008770D02*
X018219Y008770D01*
X017714Y008770D01*
X017714Y008770D01*
X017714Y008723D02*
X017714Y008723D01*
X017714Y008624D02*
X017714Y008624D01*
X017319Y008526D02*
X018912Y008526D01*
X018954Y008624D02*
X018197Y008624D01*
X018219Y008723D02*
X018954Y008723D01*
X018954Y008821D02*
X018219Y008821D01*
X017714Y009117D02*
X017714Y009117D01*
X017714Y009215D02*
X017714Y009215D01*
X017714Y009314D02*
X017714Y009314D01*
X017714Y009412D02*
X017714Y009412D01*
X017319Y009511D02*
X018131Y009511D01*
X018399Y009752D02*
X018399Y010202D01*
X018331Y010270D01*
X018204Y010496D02*
X018152Y010496D01*
X018174Y010594D02*
X018204Y010594D01*
X018204Y010988D02*
X018091Y010988D01*
X018194Y011087D02*
X018204Y011087D01*
X017337Y010988D02*
X017047Y010988D01*
X017044Y010890D02*
X017218Y010890D01*
X017210Y010791D02*
X017044Y010791D01*
X017044Y010693D02*
X017210Y010693D01*
X017255Y010594D02*
X017044Y010594D01*
X017044Y010496D02*
X017276Y010496D01*
X017190Y010397D02*
X017044Y010397D01*
X017044Y010299D02*
X017190Y010299D01*
X017190Y010200D02*
X017044Y010200D01*
X017044Y010102D02*
X017219Y010102D01*
X017284Y010003D02*
X017044Y010003D01*
X017044Y009905D02*
X017066Y009905D01*
X017224Y009752D02*
X017696Y009752D01*
X017714Y009770D01*
X017732Y009752D01*
X018399Y009752D01*
X018499Y009652D01*
X018499Y009502D01*
X018179Y010003D02*
X018145Y010003D01*
X017224Y009752D02*
X017099Y009627D01*
X017099Y007377D01*
X017206Y007270D01*
X017714Y007270D01*
X017272Y007048D02*
X017044Y007048D01*
X017044Y006950D02*
X017230Y006950D01*
X017190Y006851D02*
X017044Y006851D01*
X017044Y006753D02*
X017190Y006753D01*
X017190Y006654D02*
X017044Y006654D01*
X017044Y006556D02*
X017265Y006556D01*
X017238Y006457D02*
X017044Y006457D01*
X017044Y006359D02*
X017190Y006359D01*
X017190Y006260D02*
X017044Y006260D01*
X017044Y006162D02*
X017190Y006162D01*
X017257Y006063D02*
X017044Y006063D01*
X017044Y005965D02*
X017245Y005965D01*
X017289Y006009D02*
X017190Y005909D01*
X017190Y005631D01*
X017289Y005531D01*
X018139Y005531D01*
X018239Y005631D01*
X018239Y005909D01*
X018139Y006009D01*
X017289Y006009D01*
X017190Y005866D02*
X017044Y005866D01*
X017044Y005768D02*
X017190Y005768D01*
X017190Y005669D02*
X017044Y005669D01*
X017044Y005571D02*
X017250Y005571D01*
X017044Y005472D02*
X018469Y005472D01*
X018456Y005571D02*
X018178Y005571D01*
X018239Y005669D02*
X018464Y005669D01*
X018505Y005768D02*
X018239Y005768D01*
X018239Y005866D02*
X018593Y005866D01*
X018604Y005965D02*
X018183Y005965D01*
X018631Y006270D02*
X017714Y006270D01*
X017714Y006770D02*
X018792Y006770D01*
X018824Y006802D01*
X019162Y006654D02*
X021088Y006654D01*
X021186Y006753D02*
X020387Y006753D01*
X020388Y006851D02*
X021237Y006851D01*
X021138Y006950D02*
X020388Y006950D01*
X020388Y007048D02*
X021040Y007048D01*
X020984Y007147D02*
X020388Y007147D01*
X020388Y007245D02*
X020984Y007245D01*
X020984Y007344D02*
X020388Y007344D01*
X020388Y007442D02*
X020984Y007442D01*
X020984Y007541D02*
X020388Y007541D01*
X020388Y007639D02*
X021073Y007639D01*
X021171Y007738D02*
X020388Y007738D01*
X020388Y007836D02*
X021252Y007836D01*
X021153Y007935D02*
X020388Y007935D01*
X020388Y008033D02*
X021055Y008033D01*
X020984Y008132D02*
X020388Y008132D01*
X020459Y008230D02*
X020984Y008230D01*
X020984Y008329D02*
X020557Y008329D01*
X020656Y008427D02*
X020984Y008427D01*
X020984Y008526D02*
X020754Y008526D01*
X020819Y008624D02*
X021058Y008624D01*
X021156Y008723D02*
X020819Y008723D01*
X020819Y008821D02*
X021255Y008821D01*
X021168Y008920D02*
X020819Y008920D01*
X020819Y009018D02*
X021070Y009018D01*
X020984Y009117D02*
X020819Y009117D01*
X020819Y009215D02*
X020984Y009215D01*
X020984Y009314D02*
X020819Y009314D01*
X020819Y009412D02*
X020984Y009412D01*
X020984Y009511D02*
X020819Y009511D01*
X020819Y009609D02*
X021043Y009609D01*
X021141Y009708D02*
X020819Y009708D01*
X020819Y009806D02*
X021240Y009806D01*
X021183Y009905D02*
X020819Y009905D01*
X020819Y010003D02*
X021085Y010003D01*
X020986Y010102D02*
X020819Y010102D01*
X020819Y010200D02*
X020984Y010200D01*
X020984Y010299D02*
X020819Y010299D01*
X020819Y010397D02*
X020984Y010397D01*
X020984Y010496D02*
X020819Y010496D01*
X020819Y010594D02*
X021028Y010594D01*
X021126Y010693D02*
X020819Y010693D01*
X020819Y010791D02*
X021225Y010791D01*
X021226Y010890D02*
X020819Y010890D01*
X020819Y010988D02*
X021128Y010988D01*
X021029Y011087D02*
X020819Y011087D01*
X020819Y011185D02*
X021004Y011185D01*
X021004Y011382D02*
X020819Y011382D01*
X020819Y011284D02*
X021474Y011284D01*
X021474Y011382D02*
X021574Y011382D01*
X021574Y011481D02*
X021474Y011481D01*
X021474Y011579D02*
X021574Y011579D01*
X021574Y011678D02*
X021474Y011678D01*
X021474Y011776D02*
X021574Y011776D01*
X021804Y011875D02*
X021058Y011875D01*
X021157Y011973D02*
X021804Y011973D01*
X021804Y012072D02*
X021194Y012072D01*
X021194Y012170D02*
X021804Y012170D01*
X021804Y012269D02*
X021452Y012269D01*
X021499Y012367D02*
X021804Y012367D01*
X021804Y012466D02*
X021499Y012466D01*
X021499Y012564D02*
X021804Y012564D01*
X021804Y012663D02*
X021499Y012663D01*
X021499Y012761D02*
X021804Y012761D01*
X021804Y012860D02*
X021499Y012860D01*
X021499Y012958D02*
X021804Y012958D01*
X021804Y013057D02*
X021499Y013057D01*
X021430Y013155D02*
X021804Y013155D01*
X021804Y013254D02*
X019971Y013254D01*
X019971Y013155D02*
X020519Y013155D01*
X020450Y013057D02*
X019971Y013057D01*
X019971Y012958D02*
X020450Y012958D01*
X020450Y012860D02*
X020329Y012860D01*
X020388Y012761D02*
X020450Y012761D01*
X020450Y012663D02*
X020388Y012663D01*
X020388Y012564D02*
X020450Y012564D01*
X020450Y012466D02*
X020388Y012466D01*
X020388Y012367D02*
X020450Y012367D01*
X020497Y012269D02*
X020388Y012269D01*
X020388Y012170D02*
X020731Y012170D01*
X020633Y012072D02*
X020388Y012072D01*
X020388Y011973D02*
X020534Y011973D01*
X020436Y011875D02*
X020388Y011875D01*
X020599Y011727D02*
X020599Y008682D01*
X019824Y007907D01*
X019687Y007770D01*
X017714Y007770D01*
X018148Y007541D02*
X019261Y007541D01*
X019261Y007442D02*
X018206Y007442D01*
X018239Y007344D02*
X019261Y007344D01*
X019261Y007245D02*
X018239Y007245D01*
X018239Y007147D02*
X018694Y007147D01*
X018550Y007048D02*
X018156Y007048D01*
X018955Y007147D02*
X019261Y007147D01*
X019261Y007048D02*
X019099Y007048D01*
X019162Y006950D02*
X019261Y006950D01*
X019261Y006851D02*
X019193Y006851D01*
X019193Y006753D02*
X019262Y006753D01*
X019099Y006556D02*
X020989Y006556D01*
X020984Y006457D02*
X018953Y006457D01*
X018854Y006359D02*
X020984Y006359D01*
X020984Y006260D02*
X018953Y006260D01*
X019044Y006162D02*
X019551Y006162D01*
X019452Y006063D02*
X019044Y006063D01*
X019044Y005965D02*
X019445Y005965D01*
X019445Y005866D02*
X019056Y005866D01*
X019144Y005768D02*
X019445Y005768D01*
X019445Y005571D02*
X019193Y005571D01*
X019185Y005669D02*
X019899Y005669D01*
X019899Y005768D02*
X019999Y005768D01*
X019999Y005866D02*
X019899Y005866D01*
X019899Y005965D02*
X019999Y005965D01*
X019999Y006063D02*
X019899Y006063D01*
X019899Y006162D02*
X019999Y006162D01*
X020348Y006162D02*
X020984Y006162D01*
X021025Y006063D02*
X020447Y006063D01*
X020454Y005965D02*
X021123Y005965D01*
X021222Y005866D02*
X020454Y005866D01*
X020454Y005768D02*
X021230Y005768D01*
X021131Y005669D02*
X019999Y005669D01*
X020454Y005571D02*
X021033Y005571D01*
X021004Y005472D02*
X020454Y005472D01*
X020454Y005374D02*
X021474Y005374D01*
X021474Y005275D02*
X021574Y005275D01*
X021574Y005177D02*
X021474Y005177D01*
X021474Y005078D02*
X021574Y005078D01*
X021574Y004980D02*
X021474Y004980D01*
X021474Y004881D02*
X021574Y004881D01*
X021814Y004881D02*
X022235Y004881D01*
X022137Y004980D02*
X021912Y004980D01*
X022011Y005078D02*
X022038Y005078D01*
X022474Y005078D02*
X022574Y005078D01*
X022574Y004980D02*
X022474Y004980D01*
X022474Y004881D02*
X022574Y004881D01*
X022814Y004881D02*
X022824Y004881D01*
X022824Y004783D02*
X021044Y004783D01*
X021044Y004881D02*
X021235Y004881D01*
X021137Y004980D02*
X021044Y004980D01*
X021038Y005078D02*
X020960Y005078D01*
X021004Y005177D02*
X020861Y005177D01*
X020763Y005275D02*
X021004Y005275D01*
X021574Y005374D02*
X022474Y005374D01*
X022474Y005275D02*
X022574Y005275D01*
X022574Y005177D02*
X022474Y005177D01*
X022824Y004684D02*
X021044Y004684D01*
X021044Y004586D02*
X022824Y004586D01*
X022824Y004487D02*
X021044Y004487D01*
X021044Y004389D02*
X022824Y004389D01*
X022824Y004290D02*
X021044Y004290D01*
X021044Y004192D02*
X022824Y004192D01*
X022824Y004093D02*
X021044Y004093D01*
X021044Y003995D02*
X022824Y003995D01*
X022824Y003896D02*
X020955Y003896D01*
X020856Y003798D02*
X022824Y003798D01*
X022824Y003699D02*
X020758Y003699D01*
X020659Y003601D02*
X022824Y003601D01*
X022824Y003502D02*
X020561Y003502D01*
X020462Y003404D02*
X022824Y003404D01*
X022824Y003305D02*
X020364Y003305D01*
X020265Y003207D02*
X022824Y003207D01*
X022824Y003108D02*
X020167Y003108D01*
X020068Y003010D02*
X022824Y003010D01*
X022824Y002911D02*
X019970Y002911D01*
X019480Y004131D02*
X019949Y004601D01*
X019480Y004131D02*
X017879Y004131D01*
X017824Y004077D01*
X016399Y004077D01*
X015674Y003352D01*
X009549Y003352D01*
X009073Y003828D01*
X009073Y004552D01*
X009056Y004569D01*
X009056Y007124D01*
X009549Y006727D02*
X009549Y008228D01*
X009056Y008722D01*
X008585Y008723D02*
X002974Y008723D01*
X002974Y008821D02*
X008587Y008821D01*
X008585Y008816D02*
X008585Y008628D01*
X008656Y008455D01*
X008789Y008323D01*
X008789Y008322D01*
X008656Y008190D01*
X008637Y008143D01*
X008579Y008143D01*
X008233Y007797D01*
X008104Y007668D01*
X008104Y006268D01*
X005691Y006268D01*
X005748Y006480D01*
X005748Y006767D01*
X005674Y007044D01*
X005530Y007293D01*
X005327Y007496D01*
X005079Y007639D01*
X004802Y007713D01*
X004515Y007713D01*
X004238Y007639D01*
X002974Y007639D01*
X002974Y007541D02*
X004067Y007541D01*
X003989Y007496D02*
X003786Y007293D01*
X003643Y007044D01*
X003569Y006767D01*
X003569Y006543D01*
X003551Y006549D01*
X003457Y006564D01*
X003457Y006268D01*
X003357Y006268D01*
X003357Y006564D01*
X003263Y006549D01*
X003172Y006519D01*
X003085Y006475D01*
X003007Y006418D01*
X002974Y006385D01*
X002974Y011865D01*
X003007Y011833D01*
X003085Y011776D01*
X003171Y011732D01*
X003263Y011702D01*
X003357Y011687D01*
X003357Y011974D01*
X003457Y011974D01*
X003457Y011687D01*
X003550Y011702D01*
X003569Y011708D01*
X003569Y011480D01*
X003643Y011203D01*
X003786Y010954D01*
X003989Y010752D01*
X004238Y010608D01*
X004515Y010534D01*
X004802Y010534D01*
X005079Y010608D01*
X005327Y010752D01*
X005530Y010954D01*
X005674Y011203D01*
X005748Y011480D01*
X005748Y011767D01*
X005692Y011974D01*
X009954Y011974D01*
X009954Y011916D01*
X009576Y011916D01*
X009584Y011860D01*
X009588Y011850D01*
X009466Y011972D01*
X008408Y011972D01*
X008108Y011672D01*
X007979Y011543D01*
X007979Y010287D01*
X008604Y009662D01*
X008585Y009615D01*
X008585Y009427D01*
X008656Y009254D01*
X008789Y009122D01*
X008789Y009122D01*
X008789Y009121D01*
X008656Y008989D01*
X008585Y008816D01*
X008628Y008920D02*
X002974Y008920D01*
X002974Y009018D02*
X008686Y009018D01*
X008784Y009117D02*
X002974Y009117D01*
X002974Y009215D02*
X008696Y009215D01*
X008632Y009314D02*
X002974Y009314D01*
X002974Y009412D02*
X008591Y009412D01*
X008585Y009511D02*
X002974Y009511D01*
X002974Y009609D02*
X008585Y009609D01*
X008558Y009708D02*
X002974Y009708D01*
X002974Y009806D02*
X008460Y009806D01*
X008361Y009905D02*
X002974Y009905D01*
X002974Y010003D02*
X008263Y010003D01*
X008164Y010102D02*
X002974Y010102D01*
X002974Y010200D02*
X008066Y010200D01*
X007979Y010299D02*
X002974Y010299D01*
X002974Y010397D02*
X007979Y010397D01*
X007979Y010496D02*
X002974Y010496D01*
X002974Y010594D02*
X004290Y010594D01*
X004091Y010693D02*
X002974Y010693D01*
X002974Y010791D02*
X003950Y010791D01*
X003851Y010890D02*
X002974Y010890D01*
X002974Y010988D02*
X003767Y010988D01*
X003710Y011087D02*
X002974Y011087D01*
X002974Y011185D02*
X003653Y011185D01*
X003621Y011284D02*
X002974Y011284D01*
X002974Y011382D02*
X003595Y011382D01*
X003569Y011481D02*
X002974Y011481D01*
X002974Y011579D02*
X003569Y011579D01*
X003569Y011678D02*
X002974Y011678D01*
X002974Y011776D02*
X003085Y011776D01*
X003357Y011776D02*
X003457Y011776D01*
X003457Y011875D02*
X003357Y011875D01*
X003357Y011973D02*
X003457Y011973D01*
X003457Y012878D02*
X003357Y012878D01*
X003357Y012914D01*
X003263Y012899D01*
X003199Y012878D01*
X002974Y012878D01*
X002974Y015577D01*
X009039Y015577D01*
X009004Y015542D01*
X009004Y015377D01*
X009474Y015377D01*
X009474Y015277D01*
X009004Y015277D01*
X009004Y015112D01*
X009289Y014827D01*
X009004Y014542D01*
X009004Y014377D01*
X009474Y014377D01*
X009474Y014277D01*
X009004Y014277D01*
X009004Y014112D01*
X009309Y013807D01*
X009474Y013807D01*
X009474Y014277D01*
X009574Y014277D01*
X009574Y013807D01*
X009740Y013807D01*
X010010Y014078D01*
X010301Y013787D01*
X010748Y013787D01*
X011024Y014063D01*
X011301Y013787D01*
X011748Y013787D01*
X011804Y013843D01*
X011804Y013761D01*
X011839Y013726D01*
X011665Y013726D01*
X011566Y013627D01*
X011566Y013028D01*
X011413Y012876D01*
X011413Y013152D01*
X010998Y013152D01*
X010998Y012698D01*
X011279Y012698D01*
X011279Y012543D01*
X011233Y012589D01*
X011098Y012645D01*
X010951Y012645D01*
X010827Y012594D01*
X010790Y012682D01*
X010774Y012698D01*
X010898Y012698D01*
X010898Y013152D01*
X010483Y013152D01*
X010483Y012878D01*
X010140Y012878D01*
X010193Y013004D01*
X010193Y013150D01*
X010136Y013286D01*
X010033Y013389D01*
X009898Y013445D01*
X009751Y013445D01*
X009616Y013389D01*
X009524Y013297D01*
X008686Y013297D01*
X008686Y013577D01*
X008586Y013676D01*
X007987Y013676D01*
X007583Y014081D01*
X007583Y014927D01*
X007484Y015026D01*
X006713Y015026D01*
X006613Y014927D01*
X006613Y014077D01*
X006713Y013978D01*
X007064Y013978D01*
X007385Y013656D01*
X007148Y013656D01*
X007148Y013202D01*
X007048Y013202D01*
X007048Y013102D01*
X006633Y013102D01*
X006633Y012878D01*
X006316Y012878D01*
X006316Y013102D01*
X005901Y013102D01*
X005901Y013202D01*
X006316Y013202D01*
X006316Y013526D01*
X006305Y013564D01*
X006286Y013599D01*
X006258Y013626D01*
X006223Y013646D01*
X006185Y013656D01*
X005901Y013656D01*
X005901Y013202D01*
X005801Y013202D01*
X005801Y013656D01*
X005516Y013656D01*
X005478Y013646D01*
X005444Y013626D01*
X005416Y013599D01*
X005396Y013564D01*
X005386Y013526D01*
X005386Y013202D01*
X005801Y013202D01*
X005801Y013102D01*
X005386Y013102D01*
X005386Y012878D01*
X005333Y012878D01*
X005233Y012978D01*
X005233Y013577D01*
X005134Y013676D01*
X004363Y013676D01*
X004263Y013577D01*
X004263Y012878D01*
X003615Y012878D01*
X003550Y012899D01*
X003457Y012914D01*
X003457Y012878D01*
X002974Y012958D02*
X004263Y012958D01*
X004263Y013057D02*
X002974Y013057D01*
X002974Y013155D02*
X004263Y013155D01*
X004263Y013254D02*
X002974Y013254D01*
X002974Y013352D02*
X004263Y013352D01*
X004263Y013451D02*
X002974Y013451D01*
X002974Y013549D02*
X004263Y013549D01*
X004334Y013648D02*
X002974Y013648D01*
X002974Y013746D02*
X007295Y013746D01*
X007197Y013845D02*
X002974Y013845D01*
X002974Y013943D02*
X007098Y013943D01*
X007048Y013656D02*
X006764Y013656D01*
X006725Y013646D01*
X006691Y013626D01*
X006663Y013599D01*
X006643Y013564D01*
X006633Y013526D01*
X006633Y013202D01*
X007048Y013202D01*
X007048Y013656D01*
X007048Y013648D02*
X007148Y013648D01*
X007148Y013549D02*
X007048Y013549D01*
X007048Y013451D02*
X007148Y013451D01*
X007148Y013352D02*
X007048Y013352D01*
X007048Y013254D02*
X007148Y013254D01*
X007148Y013202D02*
X007563Y013202D01*
X007563Y013478D01*
X007716Y013326D01*
X007716Y012878D01*
X007563Y012878D01*
X007563Y013102D01*
X007148Y013102D01*
X007148Y013202D01*
X007148Y013155D02*
X007716Y013155D01*
X007716Y013057D02*
X007563Y013057D01*
X007563Y012958D02*
X007716Y012958D01*
X007716Y013254D02*
X007563Y013254D01*
X007563Y013352D02*
X007689Y013352D01*
X007591Y013451D02*
X007563Y013451D01*
X007918Y013746D02*
X011819Y013746D01*
X012024Y013852D02*
X012024Y014802D01*
X012074Y014852D01*
X012774Y014852D01*
X013024Y014602D01*
X013024Y013927D01*
X013124Y013827D01*
X014024Y013827D01*
X014524Y014327D01*
X014899Y014827D02*
X014024Y014827D01*
X013524Y015327D01*
X014899Y014827D02*
X015024Y014702D01*
X015024Y013152D01*
X015274Y012877D01*
X015274Y009002D01*
X014542Y008270D01*
X014013Y008270D01*
X013589Y008031D02*
X014438Y008031D01*
X014457Y008050D01*
X014633Y008050D01*
X015366Y008782D01*
X015494Y008911D01*
X015494Y012872D01*
X015498Y012958D01*
X015728Y012958D01*
X015640Y013046D02*
X015904Y012782D01*
X016218Y012782D01*
X016104Y012668D01*
X015604Y012168D01*
X015604Y008668D01*
X014442Y007505D01*
X014438Y007509D01*
X013589Y007509D01*
X013489Y007409D01*
X013489Y007131D01*
X013589Y007031D01*
X014438Y007031D01*
X014457Y007050D01*
X014608Y007050D01*
X015916Y008357D01*
X016044Y008486D01*
X016044Y011986D01*
X016416Y012357D01*
X017190Y012357D01*
X017190Y012131D01*
X017289Y012031D01*
X018139Y012031D01*
X018158Y012050D01*
X018204Y012050D01*
X018204Y011943D01*
X018139Y012009D01*
X017289Y012009D01*
X017271Y011990D01*
X016426Y011990D01*
X016233Y011797D01*
X016104Y011668D01*
X016104Y007843D01*
X015383Y007122D01*
X015254Y006993D01*
X015254Y004983D01*
X015242Y004983D01*
X015143Y004884D01*
X015143Y004270D01*
X015242Y004171D01*
X015250Y004171D01*
X015250Y003964D01*
X015158Y003872D01*
X010091Y003872D01*
X009935Y004028D01*
X010561Y004028D01*
X010661Y004127D01*
X010661Y004332D01*
X011291Y004332D01*
X011791Y004832D01*
X011919Y004961D01*
X011919Y005210D01*
X012112Y005403D01*
X012711Y005403D01*
X012811Y005502D01*
X012811Y005608D01*
X012837Y005544D01*
X012941Y005440D01*
X013076Y005384D01*
X013223Y005384D01*
X013358Y005440D01*
X013461Y005544D01*
X013495Y005625D01*
X013589Y005531D01*
X013606Y005531D01*
X013606Y005226D01*
X013440Y005226D01*
X013341Y005127D01*
X013341Y004277D01*
X013440Y004178D01*
X014211Y004178D01*
X014311Y004277D01*
X014311Y005127D01*
X014211Y005226D01*
X014046Y005226D01*
X014046Y005491D01*
X014086Y005531D01*
X014438Y005531D01*
X014538Y005631D01*
X014538Y005909D01*
X014438Y006009D01*
X013589Y006009D01*
X013489Y005909D01*
X013489Y005894D01*
X013461Y005961D01*
X013358Y006064D01*
X013223Y006120D01*
X013092Y006120D01*
X013066Y006147D01*
X012811Y006147D01*
X012811Y006352D01*
X012711Y006451D01*
X011940Y006451D01*
X011841Y006352D01*
X011841Y005753D01*
X011688Y005601D01*
X011688Y005877D01*
X011273Y005877D01*
X011273Y005423D01*
X011510Y005423D01*
X011479Y005392D01*
X011479Y005143D01*
X011108Y004772D01*
X010661Y004772D01*
X010661Y004977D01*
X010561Y005076D01*
X009844Y005076D01*
X009844Y005318D01*
X009798Y005364D01*
X010496Y005364D01*
X010662Y005433D01*
X010763Y005534D01*
X010768Y005515D01*
X010788Y005481D01*
X010816Y005453D01*
X010850Y005433D01*
X010889Y005423D01*
X011173Y005423D01*
X011173Y005877D01*
X011273Y005877D01*
X011273Y005977D01*
X011173Y005977D01*
X011173Y006431D01*
X010889Y006431D01*
X010858Y006423D01*
X010858Y006882D01*
X010993Y006882D01*
X010993Y006795D01*
X011092Y006696D01*
X011548Y006696D01*
X011648Y006795D01*
X011648Y007409D01*
X011548Y007508D01*
X011092Y007508D01*
X010993Y007409D01*
X010993Y007322D01*
X010858Y007322D01*
X010858Y009357D01*
X011591Y009357D01*
X012241Y010007D01*
X012420Y010007D01*
X012883Y010470D01*
X013206Y010470D01*
X013306Y010570D01*
X013306Y010633D01*
X013509Y010836D01*
X013509Y010770D01*
X013509Y010681D01*
X013519Y010643D01*
X013539Y010609D01*
X013567Y010581D01*
X013601Y010561D01*
X013639Y010551D01*
X014013Y010551D01*
X014013Y010770D01*
X013509Y010770D01*
X014013Y010770D01*
X014013Y010770D01*
X014013Y010770D01*
X014013Y010989D01*
X013662Y010989D01*
X013704Y011031D01*
X014438Y011031D01*
X014479Y011072D01*
X014479Y010939D01*
X014460Y010959D01*
X014426Y010979D01*
X014387Y010989D01*
X014013Y010989D01*
X014013Y010770D01*
X014013Y010770D01*
X014013Y010551D01*
X014387Y010551D01*
X014426Y010561D01*
X014460Y010581D01*
X014479Y010601D01*
X014479Y010468D01*
X014438Y010509D01*
X013589Y010509D01*
X013489Y010409D01*
X013489Y010131D01*
X013589Y010031D01*
X014438Y010031D01*
X014479Y010072D01*
X014479Y009968D01*
X014438Y010009D01*
X013589Y010009D01*
X013552Y009972D01*
X013200Y009972D01*
X013108Y010064D01*
X012973Y010120D01*
X012826Y010120D01*
X012691Y010064D01*
X012587Y009961D01*
X012531Y009825D01*
X012531Y009679D01*
X012587Y009544D01*
X012691Y009440D01*
X012826Y009384D01*
X012973Y009384D01*
X013108Y009440D01*
X013200Y009532D01*
X013588Y009532D01*
X013589Y009531D01*
X014417Y009531D01*
X014395Y009509D01*
X013589Y009509D01*
X013489Y009409D01*
X013489Y009131D01*
X013589Y009031D01*
X014438Y009031D01*
X014457Y009050D01*
X014558Y009050D01*
X014791Y009282D01*
X014804Y009296D01*
X014804Y009293D01*
X014501Y008990D01*
X014457Y008990D01*
X014438Y009009D01*
X013589Y009009D01*
X013489Y008909D01*
X013489Y008631D01*
X013589Y008531D01*
X014438Y008531D01*
X014457Y008550D01*
X014511Y008550D01*
X014454Y008493D01*
X014438Y008509D01*
X013589Y008509D01*
X013489Y008409D01*
X013489Y008131D01*
X013589Y008031D01*
X013587Y008033D02*
X010858Y008033D01*
X010858Y007935D02*
X013514Y007935D01*
X013489Y007909D02*
X013489Y007631D01*
X013589Y007531D01*
X014438Y007531D01*
X014538Y007631D01*
X014538Y007909D01*
X014438Y008009D01*
X013589Y008009D01*
X013489Y007909D01*
X013489Y007836D02*
X010858Y007836D01*
X010858Y007738D02*
X013489Y007738D01*
X013489Y007639D02*
X010858Y007639D01*
X010858Y007541D02*
X013579Y007541D01*
X013522Y007442D02*
X012905Y007442D01*
X012898Y007445D02*
X012751Y007445D01*
X012616Y007389D01*
X012549Y007322D01*
X012356Y007322D01*
X012356Y007409D01*
X012257Y007508D01*
X011801Y007508D01*
X011701Y007409D01*
X011701Y006795D01*
X011801Y006696D01*
X012257Y006696D01*
X012356Y006795D01*
X012356Y006882D01*
X012507Y006882D01*
X012512Y006869D01*
X012616Y006765D01*
X012751Y006709D01*
X012898Y006709D01*
X013033Y006765D01*
X013136Y006869D01*
X013193Y007004D01*
X013193Y007150D01*
X013136Y007286D01*
X013033Y007389D01*
X012898Y007445D01*
X012744Y007442D02*
X012323Y007442D01*
X012356Y007344D02*
X012570Y007344D01*
X012799Y007102D02*
X012029Y007102D01*
X011701Y007147D02*
X011648Y007147D01*
X011648Y007245D02*
X011701Y007245D01*
X011701Y007344D02*
X011648Y007344D01*
X011614Y007442D02*
X011735Y007442D01*
X011701Y007048D02*
X011648Y007048D01*
X011648Y006950D02*
X011701Y006950D01*
X011701Y006851D02*
X011648Y006851D01*
X011605Y006753D02*
X011744Y006753D01*
X011596Y006421D02*
X011558Y006431D01*
X011273Y006431D01*
X011273Y005977D01*
X011688Y005977D01*
X011688Y006301D01*
X011678Y006339D01*
X011658Y006374D01*
X011630Y006401D01*
X011596Y006421D01*
X011667Y006359D02*
X011847Y006359D01*
X011841Y006260D02*
X011688Y006260D01*
X011688Y006162D02*
X011841Y006162D01*
X011841Y006063D02*
X011688Y006063D01*
X011841Y005965D02*
X011273Y005965D01*
X011223Y005927D02*
X010374Y005927D01*
X010024Y006277D01*
X009549Y006727D02*
X009449Y006627D01*
X009449Y005402D01*
X009624Y005227D01*
X009624Y004027D01*
X009999Y003652D01*
X015249Y003652D01*
X015470Y003873D01*
X015470Y004577D01*
X015474Y004581D01*
X015474Y006902D01*
X016324Y007752D01*
X016324Y011577D01*
X016517Y011770D01*
X017714Y011770D01*
X018175Y011973D02*
X018204Y011973D01*
X017546Y012663D02*
X019261Y012663D01*
X019261Y012761D02*
X017645Y012761D01*
X017743Y012860D02*
X019320Y012860D01*
X019531Y012958D02*
X017842Y012958D01*
X017894Y013057D02*
X019531Y013057D01*
X019531Y013155D02*
X017894Y013155D01*
X017894Y013254D02*
X019531Y013254D01*
X019291Y013352D02*
X019080Y013352D01*
X019083Y013356D02*
X019103Y013390D01*
X019113Y013428D01*
X019113Y013752D01*
X018698Y013752D01*
X018698Y013298D01*
X018983Y013298D01*
X019021Y013308D01*
X019055Y013328D01*
X019083Y013356D01*
X019113Y013451D02*
X019266Y013451D01*
X019266Y013549D02*
X019113Y013549D01*
X019113Y013648D02*
X019266Y013648D01*
X019266Y013746D02*
X019113Y013746D01*
X019113Y013852D02*
X019113Y014176D01*
X019103Y014214D01*
X019083Y014249D01*
X019055Y014276D01*
X019021Y014296D01*
X018983Y014306D01*
X018698Y014306D01*
X018698Y013852D01*
X018598Y013852D01*
X018598Y013752D01*
X018183Y013752D01*
X018183Y013428D01*
X018193Y013390D01*
X018213Y013356D01*
X018241Y013328D01*
X018275Y013308D01*
X018314Y013298D01*
X018598Y013298D01*
X018598Y013752D01*
X018698Y013752D01*
X018698Y013852D01*
X019113Y013852D01*
X019113Y013943D02*
X019266Y013943D01*
X019266Y013845D02*
X018698Y013845D01*
X018698Y013943D02*
X018598Y013943D01*
X018598Y013852D02*
X018598Y014306D01*
X018314Y014306D01*
X018275Y014296D01*
X018241Y014276D01*
X018213Y014249D01*
X018193Y014214D01*
X018183Y014176D01*
X018183Y013852D01*
X018598Y013852D01*
X018598Y013845D02*
X017894Y013845D01*
X017894Y013943D02*
X018183Y013943D01*
X018183Y014042D02*
X017894Y014042D01*
X017924Y014140D02*
X018183Y014140D01*
X018208Y014239D02*
X018022Y014239D01*
X018121Y014337D02*
X021278Y014337D01*
X021024Y014239D02*
X020924Y014239D01*
X020924Y014268D02*
X020600Y014268D01*
X020562Y014258D01*
X020528Y014238D01*
X020500Y014210D01*
X020480Y014176D01*
X020470Y014138D01*
X020470Y013853D01*
X020924Y013853D01*
X020924Y014268D01*
X020924Y014140D02*
X021024Y014140D01*
X021024Y014042D02*
X020924Y014042D01*
X020924Y013943D02*
X021024Y013943D01*
X021024Y013845D02*
X021771Y013845D01*
X021804Y013746D02*
X021479Y013746D01*
X021479Y013648D02*
X021804Y013648D01*
X021804Y013549D02*
X021479Y013549D01*
X021474Y013451D02*
X021804Y013451D01*
X021804Y013352D02*
X021393Y013352D01*
X021024Y013352D02*
X020924Y013352D01*
X020924Y013451D02*
X021024Y013451D01*
X021024Y013549D02*
X020924Y013549D01*
X020924Y013648D02*
X021024Y013648D01*
X021024Y013746D02*
X020924Y013746D01*
X020924Y013845D02*
X020236Y013845D01*
X020236Y013943D02*
X020470Y013943D01*
X020470Y014042D02*
X020236Y014042D01*
X020236Y014140D02*
X020471Y014140D01*
X020529Y014239D02*
X020224Y014239D01*
X020236Y013746D02*
X020470Y013746D01*
X020470Y013648D02*
X020236Y013648D01*
X020236Y013549D02*
X020470Y013549D01*
X020475Y013451D02*
X020236Y013451D01*
X020210Y013352D02*
X020556Y013352D01*
X019751Y013802D02*
X019751Y011721D01*
X019824Y011647D01*
X019174Y010997D01*
X019174Y008477D01*
X018967Y008270D01*
X017714Y008270D01*
X016104Y008230D02*
X015789Y008230D01*
X015887Y008329D02*
X016104Y008329D01*
X016104Y008427D02*
X015986Y008427D01*
X016044Y008526D02*
X016104Y008526D01*
X016104Y008624D02*
X016044Y008624D01*
X016044Y008723D02*
X016104Y008723D01*
X016104Y008821D02*
X016044Y008821D01*
X016044Y008920D02*
X016104Y008920D01*
X016104Y009018D02*
X016044Y009018D01*
X016044Y009117D02*
X016104Y009117D01*
X016104Y009215D02*
X016044Y009215D01*
X016044Y009314D02*
X016104Y009314D01*
X016104Y009412D02*
X016044Y009412D01*
X016044Y009511D02*
X016104Y009511D01*
X016104Y009609D02*
X016044Y009609D01*
X016044Y009708D02*
X016104Y009708D01*
X016104Y009806D02*
X016044Y009806D01*
X016044Y009905D02*
X016104Y009905D01*
X016104Y010003D02*
X016044Y010003D01*
X016044Y010102D02*
X016104Y010102D01*
X016104Y010200D02*
X016044Y010200D01*
X016044Y010299D02*
X016104Y010299D01*
X016104Y010397D02*
X016044Y010397D01*
X016044Y010496D02*
X016104Y010496D01*
X016104Y010594D02*
X016044Y010594D01*
X016044Y010693D02*
X016104Y010693D01*
X016104Y010791D02*
X016044Y010791D01*
X016044Y010890D02*
X016104Y010890D01*
X016104Y010988D02*
X016044Y010988D01*
X016044Y011087D02*
X016104Y011087D01*
X016104Y011185D02*
X016044Y011185D01*
X016044Y011284D02*
X016104Y011284D01*
X016104Y011382D02*
X016044Y011382D01*
X016044Y011481D02*
X016104Y011481D01*
X016104Y011579D02*
X016044Y011579D01*
X016044Y011678D02*
X016114Y011678D01*
X016044Y011776D02*
X016212Y011776D01*
X016311Y011875D02*
X016044Y011875D01*
X016044Y011973D02*
X016409Y011973D01*
X016229Y012170D02*
X017190Y012170D01*
X017190Y012269D02*
X016327Y012269D01*
X016130Y012072D02*
X017249Y012072D01*
X017149Y012577D02*
X017674Y013102D01*
X017674Y014202D01*
X018074Y014602D01*
X021324Y014602D01*
X022024Y013902D01*
X022024Y010827D01*
X022524Y010327D01*
X022474Y011377D02*
X022474Y011847D01*
X022309Y011847D01*
X022244Y011782D01*
X022244Y013993D01*
X021544Y014693D01*
X021416Y014822D01*
X017983Y014822D01*
X017854Y014693D01*
X017454Y014293D01*
X017454Y013392D01*
X017436Y013436D01*
X017333Y013539D01*
X017198Y013595D01*
X017051Y013595D01*
X016916Y013539D01*
X016812Y013436D01*
X016756Y013300D01*
X016756Y013245D01*
X016733Y013222D01*
X016561Y013222D01*
X016561Y013423D01*
X016282Y013423D01*
X016282Y013481D01*
X016225Y013481D01*
X016225Y013838D01*
X016077Y013838D01*
X016038Y013828D01*
X016004Y013808D01*
X015976Y013780D01*
X015956Y013746D01*
X015873Y013746D01*
X015873Y013759D02*
X015782Y013849D01*
X016044Y014112D01*
X016044Y014277D01*
X015574Y014277D01*
X015574Y014377D01*
X015474Y014377D01*
X015474Y014847D01*
X015474Y015277D01*
X015574Y015277D01*
X015574Y014377D01*
X016044Y014377D01*
X016044Y014542D01*
X015760Y014827D01*
X016044Y015112D01*
X016044Y015277D01*
X015574Y015277D01*
X015574Y015377D01*
X016044Y015377D01*
X016044Y015542D01*
X016010Y015577D01*
X022824Y015577D01*
X022824Y011762D01*
X022740Y011847D01*
X022574Y011847D01*
X022574Y011377D01*
X022474Y011377D01*
X022474Y011382D02*
X022574Y011382D01*
X022574Y011481D02*
X022474Y011481D01*
X022474Y011579D02*
X022574Y011579D01*
X022574Y011678D02*
X022474Y011678D01*
X022474Y011776D02*
X022574Y011776D01*
X022811Y011776D02*
X022824Y011776D01*
X022824Y011875D02*
X022244Y011875D01*
X022244Y011973D02*
X022824Y011973D01*
X022824Y012072D02*
X022244Y012072D01*
X022244Y012170D02*
X022824Y012170D01*
X022824Y012269D02*
X022244Y012269D01*
X022244Y012367D02*
X022824Y012367D01*
X022824Y012466D02*
X022244Y012466D01*
X022244Y012564D02*
X022824Y012564D01*
X022824Y012663D02*
X022244Y012663D01*
X022244Y012761D02*
X022824Y012761D01*
X022824Y012860D02*
X022244Y012860D01*
X022244Y012958D02*
X022824Y012958D01*
X022824Y013057D02*
X022244Y013057D01*
X022244Y013155D02*
X022824Y013155D01*
X022824Y013254D02*
X022244Y013254D01*
X022244Y013352D02*
X022824Y013352D01*
X022824Y013451D02*
X022244Y013451D01*
X022244Y013549D02*
X022824Y013549D01*
X022824Y013648D02*
X022244Y013648D01*
X022244Y013746D02*
X022824Y013746D01*
X022824Y013845D02*
X022244Y013845D01*
X022244Y013943D02*
X022824Y013943D01*
X022824Y014042D02*
X022196Y014042D01*
X022097Y014140D02*
X022824Y014140D01*
X022824Y014239D02*
X021999Y014239D01*
X021900Y014337D02*
X022824Y014337D01*
X022824Y014436D02*
X021802Y014436D01*
X021703Y014534D02*
X022824Y014534D01*
X022824Y014633D02*
X021605Y014633D01*
X021506Y014731D02*
X022824Y014731D01*
X022824Y014830D02*
X015762Y014830D01*
X015856Y014731D02*
X017892Y014731D01*
X017794Y014633D02*
X015954Y014633D01*
X016044Y014534D02*
X017695Y014534D01*
X017597Y014436D02*
X016044Y014436D01*
X016044Y014239D02*
X017454Y014239D01*
X017454Y014140D02*
X016044Y014140D01*
X015974Y014042D02*
X017454Y014042D01*
X017454Y013943D02*
X015876Y013943D01*
X015787Y013845D02*
X017454Y013845D01*
X017454Y013746D02*
X016551Y013746D01*
X016531Y013780D01*
X016503Y013808D01*
X016469Y013828D01*
X016431Y013838D01*
X016282Y013838D01*
X016282Y013481D01*
X016561Y013481D01*
X016561Y013708D01*
X016551Y013746D01*
X016561Y013648D02*
X017454Y013648D01*
X017454Y013549D02*
X017309Y013549D01*
X017421Y013451D02*
X017454Y013451D01*
X017124Y013227D02*
X017049Y013227D01*
X016824Y013002D01*
X015995Y013002D01*
X015545Y013452D01*
X015873Y013451D02*
X016225Y013451D01*
X016225Y013423D02*
X015946Y013423D01*
X015946Y013362D01*
X015873Y013436D01*
X015873Y013759D01*
X015956Y013746D02*
X015946Y013708D01*
X015946Y013481D01*
X016225Y013481D01*
X016225Y013423D01*
X016282Y013451D02*
X016827Y013451D01*
X016778Y013352D02*
X016561Y013352D01*
X016561Y013254D02*
X016756Y013254D01*
X016940Y013549D02*
X016561Y013549D01*
X016282Y013549D02*
X016225Y013549D01*
X016225Y013648D02*
X016282Y013648D01*
X016282Y013746D02*
X016225Y013746D01*
X015946Y013648D02*
X015873Y013648D01*
X015873Y013549D02*
X015946Y013549D01*
X015640Y013046D02*
X015418Y013046D01*
X015434Y013029D01*
X015494Y012968D01*
X015494Y012962D01*
X015498Y012958D01*
X015494Y012860D02*
X015826Y012860D01*
X016099Y012663D02*
X015494Y012663D01*
X015494Y012761D02*
X016197Y012761D01*
X016324Y012577D02*
X017149Y012577D01*
X016324Y012577D02*
X015824Y012077D01*
X015824Y008577D01*
X014517Y007270D01*
X014013Y007270D01*
X013572Y007048D02*
X013193Y007048D01*
X013193Y007147D02*
X013489Y007147D01*
X013489Y007245D02*
X013153Y007245D01*
X013078Y007344D02*
X013489Y007344D01*
X013589Y007009D02*
X013489Y006909D01*
X013489Y006631D01*
X013589Y006531D01*
X014438Y006531D01*
X014538Y006631D01*
X014538Y006909D01*
X014438Y007009D01*
X013589Y007009D01*
X013529Y006950D02*
X013170Y006950D01*
X013119Y006851D02*
X013489Y006851D01*
X013489Y006753D02*
X013003Y006753D01*
X012646Y006753D02*
X012313Y006753D01*
X012356Y006851D02*
X012530Y006851D01*
X012799Y007102D02*
X012824Y007077D01*
X013489Y006654D02*
X010858Y006654D01*
X010858Y006556D02*
X013564Y006556D01*
X013601Y006479D02*
X013567Y006459D01*
X013539Y006431D01*
X013519Y006397D01*
X013509Y006359D01*
X013509Y006270D01*
X013509Y006181D01*
X013519Y006143D01*
X013539Y006109D01*
X013567Y006081D01*
X013601Y006061D01*
X013639Y006051D01*
X014013Y006051D01*
X014013Y006270D01*
X013509Y006270D01*
X014013Y006270D01*
X014013Y006270D01*
X014013Y006489D01*
X013639Y006489D01*
X013601Y006479D01*
X013565Y006457D02*
X010858Y006457D01*
X011173Y006359D02*
X011273Y006359D01*
X011273Y006260D02*
X011173Y006260D01*
X011173Y006162D02*
X011273Y006162D01*
X011273Y006063D02*
X011173Y006063D01*
X011173Y005866D02*
X011273Y005866D01*
X011273Y005768D02*
X011173Y005768D01*
X011173Y005669D02*
X011273Y005669D01*
X011273Y005571D02*
X011173Y005571D01*
X011173Y005472D02*
X011273Y005472D01*
X011479Y005374D02*
X010518Y005374D01*
X010701Y005472D02*
X010797Y005472D01*
X011414Y005078D02*
X009844Y005078D01*
X009844Y005177D02*
X011479Y005177D01*
X011479Y005275D02*
X009844Y005275D01*
X010658Y004980D02*
X011316Y004980D01*
X011217Y004881D02*
X010661Y004881D01*
X010661Y004783D02*
X011119Y004783D01*
X011199Y004552D02*
X011699Y005052D01*
X011699Y005301D01*
X012326Y005927D01*
X012974Y005927D01*
X013149Y005752D01*
X013473Y005571D02*
X013549Y005571D01*
X013606Y005472D02*
X013390Y005472D01*
X013606Y005374D02*
X012083Y005374D01*
X011985Y005275D02*
X013606Y005275D01*
X013390Y005177D02*
X013130Y005177D01*
X013130Y005176D02*
X013096Y005196D01*
X013058Y005206D01*
X012773Y005206D01*
X012773Y004752D01*
X012673Y004752D01*
X012673Y004652D01*
X012258Y004652D01*
X012258Y004328D01*
X012268Y004290D01*
X010661Y004290D01*
X010661Y004192D02*
X013426Y004192D01*
X013341Y004290D02*
X013178Y004290D01*
X013188Y004328D01*
X013188Y004652D01*
X012773Y004652D01*
X012773Y004198D01*
X013058Y004198D01*
X013096Y004208D01*
X013130Y004228D01*
X013158Y004256D01*
X013178Y004290D01*
X013188Y004389D02*
X013341Y004389D01*
X013341Y004487D02*
X013188Y004487D01*
X013188Y004586D02*
X013341Y004586D01*
X013341Y004684D02*
X012773Y004684D01*
X012773Y004652D02*
X012773Y004752D01*
X013188Y004752D01*
X013188Y005076D01*
X013178Y005114D01*
X013158Y005149D01*
X013130Y005176D01*
X013188Y005078D02*
X013341Y005078D01*
X013341Y004980D02*
X013188Y004980D01*
X013188Y004881D02*
X013341Y004881D01*
X013341Y004783D02*
X013188Y004783D01*
X012773Y004783D02*
X012673Y004783D01*
X012673Y004752D02*
X012673Y005206D01*
X012389Y005206D01*
X012350Y005196D01*
X012316Y005176D01*
X012288Y005149D01*
X012268Y005114D01*
X012258Y005076D01*
X012258Y004752D01*
X012673Y004752D01*
X012673Y004684D02*
X011643Y004684D01*
X011741Y004783D02*
X012258Y004783D01*
X012258Y004881D02*
X011840Y004881D01*
X011919Y004980D02*
X012258Y004980D01*
X012259Y005078D02*
X011919Y005078D01*
X011919Y005177D02*
X012316Y005177D01*
X012673Y005177D02*
X012773Y005177D01*
X012773Y005078D02*
X012673Y005078D01*
X012673Y004980D02*
X012773Y004980D01*
X012773Y004881D02*
X012673Y004881D01*
X012673Y004652D02*
X012773Y004652D01*
X012773Y004586D02*
X012673Y004586D01*
X012673Y004652D02*
X012673Y004198D01*
X012389Y004198D01*
X012350Y004208D01*
X012316Y004228D01*
X012288Y004256D01*
X012268Y004290D01*
X012258Y004389D02*
X011347Y004389D01*
X011446Y004487D02*
X012258Y004487D01*
X012258Y004586D02*
X011544Y004586D01*
X011199Y004552D02*
X010176Y004552D01*
X010626Y004093D02*
X015250Y004093D01*
X015250Y003995D02*
X009968Y003995D01*
X010067Y003896D02*
X015182Y003896D01*
X015221Y004192D02*
X014225Y004192D01*
X014311Y004290D02*
X015143Y004290D01*
X015143Y004389D02*
X014311Y004389D01*
X014311Y004487D02*
X015143Y004487D01*
X015143Y004586D02*
X014311Y004586D01*
X014311Y004684D02*
X015143Y004684D01*
X015143Y004783D02*
X014311Y004783D01*
X014311Y004881D02*
X015143Y004881D01*
X015238Y004980D02*
X014311Y004980D01*
X014311Y005078D02*
X015254Y005078D01*
X015254Y005177D02*
X014261Y005177D01*
X014046Y005275D02*
X015254Y005275D01*
X015254Y005374D02*
X014046Y005374D01*
X014046Y005472D02*
X015254Y005472D01*
X015254Y005571D02*
X014478Y005571D01*
X014538Y005669D02*
X015254Y005669D01*
X015254Y005768D02*
X014538Y005768D01*
X014538Y005866D02*
X015254Y005866D01*
X015254Y005965D02*
X014482Y005965D01*
X014426Y006061D02*
X014460Y006081D01*
X014488Y006109D01*
X014507Y006143D01*
X014518Y006181D01*
X014518Y006270D01*
X014518Y006359D01*
X014507Y006397D01*
X014488Y006431D01*
X014460Y006459D01*
X014426Y006479D01*
X014387Y006489D01*
X014013Y006489D01*
X014013Y006270D01*
X014013Y006270D01*
X014013Y006270D01*
X014013Y006051D01*
X014387Y006051D01*
X014426Y006061D01*
X014429Y006063D02*
X015254Y006063D01*
X015254Y006162D02*
X014512Y006162D01*
X014518Y006260D02*
X015254Y006260D01*
X015254Y006359D02*
X014518Y006359D01*
X014518Y006270D02*
X014013Y006270D01*
X014013Y006270D01*
X014518Y006270D01*
X014462Y006457D02*
X015254Y006457D01*
X015254Y006556D02*
X014463Y006556D01*
X014538Y006654D02*
X015254Y006654D01*
X015254Y006753D02*
X014538Y006753D01*
X014538Y006851D02*
X015254Y006851D01*
X015254Y006950D02*
X014497Y006950D01*
X014455Y007048D02*
X015309Y007048D01*
X015408Y007147D02*
X014705Y007147D01*
X014804Y007245D02*
X015506Y007245D01*
X015605Y007344D02*
X014902Y007344D01*
X015001Y007442D02*
X015703Y007442D01*
X015802Y007541D02*
X015099Y007541D01*
X015198Y007639D02*
X015900Y007639D01*
X015999Y007738D02*
X015296Y007738D01*
X015395Y007836D02*
X016097Y007836D01*
X016104Y007935D02*
X015493Y007935D01*
X015592Y008033D02*
X016104Y008033D01*
X016104Y008132D02*
X015690Y008132D01*
X015363Y008427D02*
X015011Y008427D01*
X015109Y008526D02*
X015462Y008526D01*
X015560Y008624D02*
X015208Y008624D01*
X015306Y008723D02*
X015604Y008723D01*
X015604Y008821D02*
X015405Y008821D01*
X015494Y008920D02*
X015604Y008920D01*
X015604Y009018D02*
X015494Y009018D01*
X015494Y009117D02*
X015604Y009117D01*
X015604Y009215D02*
X015494Y009215D01*
X015494Y009314D02*
X015604Y009314D01*
X015604Y009412D02*
X015494Y009412D01*
X015494Y009511D02*
X015604Y009511D01*
X015604Y009609D02*
X015494Y009609D01*
X015494Y009708D02*
X015604Y009708D01*
X015604Y009806D02*
X015494Y009806D01*
X015494Y009905D02*
X015604Y009905D01*
X015604Y010003D02*
X015494Y010003D01*
X015494Y010102D02*
X015604Y010102D01*
X015604Y010200D02*
X015494Y010200D01*
X015494Y010299D02*
X015604Y010299D01*
X015604Y010397D02*
X015494Y010397D01*
X015494Y010496D02*
X015604Y010496D01*
X015604Y010594D02*
X015494Y010594D01*
X015494Y010693D02*
X015604Y010693D01*
X015604Y010791D02*
X015494Y010791D01*
X015494Y010890D02*
X015604Y010890D01*
X015604Y010988D02*
X015494Y010988D01*
X015494Y011087D02*
X015604Y011087D01*
X015604Y011185D02*
X015494Y011185D01*
X015494Y011284D02*
X015604Y011284D01*
X015604Y011382D02*
X015494Y011382D01*
X015494Y011481D02*
X015604Y011481D01*
X015604Y011579D02*
X015494Y011579D01*
X015494Y011678D02*
X015604Y011678D01*
X015604Y011776D02*
X015494Y011776D01*
X015494Y011875D02*
X015604Y011875D01*
X015604Y011973D02*
X015494Y011973D01*
X015494Y012072D02*
X015604Y012072D01*
X015606Y012170D02*
X015494Y012170D01*
X015494Y012269D02*
X015705Y012269D01*
X015803Y012367D02*
X015494Y012367D01*
X015494Y012466D02*
X015902Y012466D01*
X016000Y012564D02*
X015494Y012564D01*
X015024Y012802D02*
X014649Y013227D01*
X013024Y013227D01*
X012824Y013377D01*
X012824Y014027D01*
X012524Y014327D01*
X012524Y013702D02*
X012174Y013702D01*
X012024Y013852D01*
X011586Y013648D02*
X011384Y013648D01*
X011383Y013649D02*
X011355Y013676D01*
X011321Y013696D01*
X011283Y013706D01*
X010998Y013706D01*
X010998Y013252D01*
X010898Y013252D01*
X010898Y013152D01*
X010998Y013152D01*
X010998Y013252D01*
X011413Y013252D01*
X011413Y013576D01*
X011403Y013614D01*
X011383Y013649D01*
X011413Y013549D02*
X011566Y013549D01*
X011566Y013451D02*
X011413Y013451D01*
X011413Y013352D02*
X011566Y013352D01*
X011566Y013254D02*
X011413Y013254D01*
X011566Y013155D02*
X010998Y013155D01*
X010948Y013202D02*
X010824Y013078D01*
X010824Y012577D01*
X010213Y011966D01*
X010024Y011966D01*
X009954Y011973D02*
X005693Y011973D01*
X005719Y011875D02*
X008311Y011875D01*
X008212Y011776D02*
X005746Y011776D01*
X005748Y011678D02*
X008114Y011678D01*
X008015Y011579D02*
X005748Y011579D01*
X005748Y011481D02*
X007979Y011481D01*
X007979Y011382D02*
X005722Y011382D01*
X005695Y011284D02*
X007979Y011284D01*
X007979Y011185D02*
X005663Y011185D01*
X005607Y011087D02*
X007979Y011087D01*
X007979Y010988D02*
X005550Y010988D01*
X005466Y010890D02*
X007979Y010890D01*
X007979Y010791D02*
X005367Y010791D01*
X005225Y010693D02*
X007979Y010693D01*
X007979Y010594D02*
X005027Y010594D01*
X005323Y012577D02*
X004748Y013152D01*
X005233Y013155D02*
X005801Y013155D01*
X005801Y013254D02*
X005901Y013254D01*
X005901Y013352D02*
X005801Y013352D01*
X005801Y013451D02*
X005901Y013451D01*
X005901Y013549D02*
X005801Y013549D01*
X005801Y013648D02*
X005901Y013648D01*
X006218Y013648D02*
X006731Y013648D01*
X006639Y013549D02*
X006309Y013549D01*
X006316Y013451D02*
X006633Y013451D01*
X006633Y013352D02*
X006316Y013352D01*
X006316Y013254D02*
X006633Y013254D01*
X006633Y013057D02*
X006316Y013057D01*
X006316Y012958D02*
X006633Y012958D01*
X007048Y013155D02*
X005901Y013155D01*
X005386Y013057D02*
X005233Y013057D01*
X005253Y012958D02*
X005386Y012958D01*
X005386Y013254D02*
X005233Y013254D01*
X005233Y013352D02*
X005386Y013352D01*
X005386Y013451D02*
X005233Y013451D01*
X005233Y013549D02*
X005392Y013549D01*
X005483Y013648D02*
X005162Y013648D01*
X005323Y012577D02*
X007824Y012577D01*
X008201Y012953D01*
X008201Y013152D01*
X007098Y014254D01*
X007098Y014502D01*
X006613Y014534D02*
X002974Y014534D01*
X002974Y014436D02*
X006613Y014436D01*
X006613Y014337D02*
X002974Y014337D01*
X002974Y014239D02*
X006613Y014239D01*
X006613Y014140D02*
X002974Y014140D01*
X002974Y014042D02*
X006649Y014042D01*
X006613Y014633D02*
X002974Y014633D01*
X002974Y014731D02*
X006613Y014731D01*
X006613Y014830D02*
X002974Y014830D01*
X002974Y014928D02*
X006615Y014928D01*
X007582Y014928D02*
X007754Y014928D01*
X007746Y014914D02*
X007736Y014876D01*
X007736Y014552D01*
X008151Y014552D01*
X008151Y015006D01*
X007866Y015006D01*
X007828Y014996D01*
X007794Y014976D01*
X007766Y014949D01*
X007746Y014914D01*
X007736Y014830D02*
X007583Y014830D01*
X007583Y014731D02*
X007736Y014731D01*
X007736Y014633D02*
X007583Y014633D01*
X007583Y014534D02*
X008151Y014534D01*
X008151Y014552D02*
X008151Y014452D01*
X008251Y014452D01*
X008251Y014552D01*
X008666Y014552D01*
X008666Y014876D01*
X008655Y014914D01*
X008636Y014949D01*
X008608Y014976D01*
X008573Y014996D01*
X008535Y015006D01*
X008251Y015006D01*
X008251Y014552D01*
X008151Y014552D01*
X008151Y014633D02*
X008251Y014633D01*
X008251Y014731D02*
X008151Y014731D01*
X008151Y014830D02*
X008251Y014830D01*
X008251Y014928D02*
X008151Y014928D01*
X008251Y014534D02*
X009004Y014534D01*
X009004Y014436D02*
X008666Y014436D01*
X008666Y014452D02*
X008251Y014452D01*
X008251Y013998D01*
X008535Y013998D01*
X008573Y014008D01*
X008608Y014028D01*
X008636Y014056D01*
X008655Y014090D01*
X008666Y014128D01*
X008666Y014452D01*
X008666Y014337D02*
X009474Y014337D01*
X009474Y014377D02*
X009474Y014847D01*
X009474Y015277D01*
X009574Y015277D01*
X009574Y014377D01*
X009474Y014377D01*
X009474Y014436D02*
X009574Y014436D01*
X009574Y014534D02*
X009474Y014534D01*
X009474Y014633D02*
X009574Y014633D01*
X009574Y014731D02*
X009474Y014731D01*
X009474Y014830D02*
X009574Y014830D01*
X009574Y014928D02*
X009474Y014928D01*
X009474Y015027D02*
X009574Y015027D01*
X009574Y015125D02*
X009474Y015125D01*
X009474Y015224D02*
X009574Y015224D01*
X009474Y015322D02*
X002974Y015322D01*
X002974Y015224D02*
X009004Y015224D01*
X009004Y015125D02*
X002974Y015125D01*
X002974Y015027D02*
X009089Y015027D01*
X009188Y014928D02*
X008647Y014928D01*
X008666Y014830D02*
X009286Y014830D01*
X009193Y014731D02*
X008666Y014731D01*
X008666Y014633D02*
X009095Y014633D01*
X009004Y014239D02*
X008666Y014239D01*
X008666Y014140D02*
X009004Y014140D01*
X009074Y014042D02*
X008622Y014042D01*
X008251Y014042D02*
X008151Y014042D01*
X008151Y013998D02*
X007866Y013998D01*
X007828Y014008D01*
X007794Y014028D01*
X007766Y014056D01*
X007746Y014090D01*
X007736Y014128D01*
X007736Y014452D01*
X008151Y014452D01*
X008151Y013998D01*
X008151Y014140D02*
X008251Y014140D01*
X008251Y014239D02*
X008151Y014239D01*
X008151Y014337D02*
X008251Y014337D01*
X008251Y014436D02*
X008151Y014436D01*
X007736Y014436D02*
X007583Y014436D01*
X007583Y014337D02*
X007736Y014337D01*
X007736Y014239D02*
X007583Y014239D01*
X007583Y014140D02*
X007736Y014140D01*
X007780Y014042D02*
X007622Y014042D01*
X007721Y013943D02*
X009173Y013943D01*
X009271Y013845D02*
X007819Y013845D01*
X008615Y013648D02*
X010513Y013648D01*
X010513Y013649D02*
X010493Y013614D01*
X010483Y013576D01*
X010483Y013252D01*
X010898Y013252D01*
X010898Y013706D01*
X010614Y013706D01*
X010575Y013696D01*
X010541Y013676D01*
X010513Y013649D01*
X010483Y013549D02*
X008686Y013549D01*
X008686Y013451D02*
X010483Y013451D01*
X010483Y013352D02*
X010070Y013352D01*
X010150Y013254D02*
X010483Y013254D01*
X010483Y013057D02*
X010193Y013057D01*
X010191Y013155D02*
X010898Y013155D01*
X010898Y013057D02*
X010998Y013057D01*
X010998Y012958D02*
X010898Y012958D01*
X010898Y012860D02*
X010998Y012860D01*
X010998Y012761D02*
X010898Y012761D01*
X010798Y012663D02*
X011279Y012663D01*
X011279Y012564D02*
X011258Y012564D01*
X011499Y012651D02*
X011499Y011881D01*
X011874Y011506D01*
X012899Y011506D01*
X013149Y011152D02*
X012229Y011152D01*
X011874Y010798D01*
X011874Y010498D01*
X011454Y010077D01*
X009824Y010077D01*
X009549Y010352D01*
X009549Y011577D01*
X009374Y011752D01*
X008499Y011752D01*
X008199Y011452D01*
X008199Y010378D01*
X009056Y009521D01*
X009824Y009577D02*
X011499Y009577D01*
X012149Y010227D01*
X012329Y010227D01*
X012899Y010798D01*
X013159Y010798D01*
X013631Y011270D01*
X014013Y011270D01*
X014013Y010988D02*
X014013Y010988D01*
X014013Y010890D02*
X014013Y010890D01*
X014013Y010791D02*
X014013Y010791D01*
X014013Y010693D02*
X014013Y010693D01*
X014013Y010594D02*
X014013Y010594D01*
X013575Y010496D02*
X013231Y010496D01*
X013306Y010594D02*
X013554Y010594D01*
X013509Y010693D02*
X013365Y010693D01*
X013464Y010791D02*
X013509Y010791D01*
X013149Y011152D02*
X013399Y011402D01*
X013399Y011527D01*
X013642Y011770D01*
X014013Y011770D01*
X014013Y012270D02*
X013356Y012270D01*
X013249Y012377D01*
X012799Y013002D02*
X012599Y013202D01*
X012599Y013627D01*
X012524Y013702D01*
X012051Y013202D02*
X011499Y012651D01*
X011496Y012958D02*
X011413Y012958D01*
X011413Y013057D02*
X011566Y013057D01*
X010998Y013254D02*
X010898Y013254D01*
X010898Y013352D02*
X010998Y013352D01*
X010998Y013451D02*
X010898Y013451D01*
X010898Y013549D02*
X010998Y013549D01*
X010998Y013648D02*
X010898Y013648D01*
X010806Y013845D02*
X011243Y013845D01*
X011145Y013943D02*
X010904Y013943D01*
X011003Y014042D02*
X011046Y014042D01*
X010243Y013845D02*
X009777Y013845D01*
X009876Y013943D02*
X010145Y013943D01*
X010046Y014042D02*
X009974Y014042D01*
X009574Y014042D02*
X009474Y014042D01*
X009474Y014140D02*
X009574Y014140D01*
X009574Y014239D02*
X009474Y014239D01*
X009474Y013943D02*
X009574Y013943D01*
X009574Y013845D02*
X009474Y013845D01*
X009579Y013352D02*
X008686Y013352D01*
X008276Y013077D02*
X008201Y013152D01*
X008276Y013077D02*
X009824Y013077D01*
X010174Y012958D02*
X010483Y012958D01*
X011024Y012277D02*
X011024Y011506D01*
X010856Y010966D02*
X010024Y010966D01*
X010856Y010966D02*
X011024Y010798D01*
X012237Y010003D02*
X012630Y010003D01*
X012564Y009905D02*
X012138Y009905D01*
X012040Y009806D02*
X012531Y009806D01*
X012531Y009708D02*
X011941Y009708D01*
X011843Y009609D02*
X012560Y009609D01*
X012620Y009511D02*
X011744Y009511D01*
X011646Y009412D02*
X012758Y009412D01*
X013041Y009412D02*
X013492Y009412D01*
X013489Y009314D02*
X010858Y009314D01*
X010858Y009215D02*
X013489Y009215D01*
X013503Y009117D02*
X010858Y009117D01*
X010858Y009018D02*
X014529Y009018D01*
X014625Y009117D02*
X014628Y009117D01*
X014724Y009215D02*
X014726Y009215D01*
X014467Y009270D02*
X014699Y009502D01*
X014699Y012727D01*
X014424Y013002D01*
X012799Y013002D01*
X015024Y012802D02*
X015024Y009202D01*
X014592Y008770D01*
X014013Y008770D01*
X013489Y008723D02*
X010858Y008723D01*
X010858Y008821D02*
X013489Y008821D01*
X013499Y008920D02*
X010858Y008920D01*
X010858Y008624D02*
X013496Y008624D01*
X013507Y008427D02*
X010858Y008427D01*
X010858Y008329D02*
X013489Y008329D01*
X013489Y008230D02*
X010858Y008230D01*
X010858Y008132D02*
X013489Y008132D01*
X014440Y008033D02*
X014969Y008033D01*
X014871Y007935D02*
X014512Y007935D01*
X014538Y007836D02*
X014772Y007836D01*
X014674Y007738D02*
X014538Y007738D01*
X014538Y007639D02*
X014575Y007639D01*
X014477Y007541D02*
X014448Y007541D01*
X014715Y008132D02*
X015068Y008132D01*
X015166Y008230D02*
X014814Y008230D01*
X014912Y008329D02*
X015265Y008329D01*
X014487Y008526D02*
X010858Y008526D01*
X009824Y009577D02*
X009081Y010320D01*
X009056Y010320D01*
X009563Y011875D02*
X009582Y011875D01*
X012514Y010102D02*
X012781Y010102D01*
X012613Y010200D02*
X013489Y010200D01*
X013489Y010299D02*
X012711Y010299D01*
X012810Y010397D02*
X013489Y010397D01*
X013518Y010102D02*
X013017Y010102D01*
X013169Y010003D02*
X013583Y010003D01*
X013995Y009752D02*
X014013Y009770D01*
X013995Y009752D02*
X012899Y009752D01*
X013179Y009511D02*
X014397Y009511D01*
X014467Y009270D02*
X014013Y009270D01*
X014444Y010003D02*
X014479Y010003D01*
X014451Y010496D02*
X014479Y010496D01*
X014473Y010594D02*
X014479Y010594D01*
X014479Y010988D02*
X014390Y010988D01*
X017894Y013352D02*
X018217Y013352D01*
X018183Y013451D02*
X017894Y013451D01*
X017894Y013549D02*
X018183Y013549D01*
X018183Y013648D02*
X017894Y013648D01*
X017894Y013746D02*
X018183Y013746D01*
X018598Y013746D02*
X018698Y013746D01*
X018698Y013648D02*
X018598Y013648D01*
X018598Y013549D02*
X018698Y013549D01*
X018698Y013451D02*
X018598Y013451D01*
X018598Y013352D02*
X018698Y013352D01*
X018698Y014042D02*
X018598Y014042D01*
X018598Y014140D02*
X018698Y014140D01*
X018698Y014239D02*
X018598Y014239D01*
X019089Y014239D02*
X019277Y014239D01*
X019266Y014140D02*
X019113Y014140D01*
X019113Y014042D02*
X019266Y014042D01*
X017498Y014337D02*
X015574Y014337D01*
X015574Y014436D02*
X015474Y014436D01*
X015474Y014534D02*
X015574Y014534D01*
X015574Y014633D02*
X015474Y014633D01*
X015474Y014731D02*
X015574Y014731D01*
X015574Y014830D02*
X015474Y014830D01*
X015474Y014928D02*
X015574Y014928D01*
X015574Y015027D02*
X015474Y015027D01*
X015474Y015125D02*
X015574Y015125D01*
X015574Y015224D02*
X015474Y015224D01*
X015574Y015322D02*
X022824Y015322D01*
X022824Y015224D02*
X016044Y015224D01*
X016044Y015125D02*
X022824Y015125D01*
X022824Y015027D02*
X015959Y015027D01*
X015861Y014928D02*
X022824Y014928D01*
X022824Y015421D02*
X016044Y015421D01*
X016044Y015519D02*
X022824Y015519D01*
X021574Y014042D02*
X021479Y014042D01*
X021479Y013943D02*
X021672Y013943D01*
X020974Y012701D02*
X020974Y012102D01*
X020599Y011727D01*
X020819Y011579D02*
X021041Y011579D01*
X021004Y011481D02*
X020819Y011481D01*
X020861Y011678D02*
X021140Y011678D01*
X021238Y011776D02*
X020960Y011776D01*
X014013Y006457D02*
X014013Y006457D01*
X014013Y006359D02*
X014013Y006359D01*
X014013Y006260D02*
X014013Y006260D01*
X014013Y006162D02*
X014013Y006162D01*
X014013Y006063D02*
X014013Y006063D01*
X013598Y006063D02*
X013359Y006063D01*
X013457Y005965D02*
X013544Y005965D01*
X013514Y006162D02*
X012811Y006162D01*
X012811Y006260D02*
X013509Y006260D01*
X013509Y006359D02*
X012804Y006359D01*
X011841Y005866D02*
X011688Y005866D01*
X011688Y005768D02*
X011841Y005768D01*
X011756Y005669D02*
X011688Y005669D01*
X012780Y005472D02*
X012909Y005472D01*
X012826Y005571D02*
X012811Y005571D01*
X013826Y005582D02*
X014013Y005770D01*
X013826Y005582D02*
X013826Y004702D01*
X012773Y004487D02*
X012673Y004487D01*
X012673Y004389D02*
X012773Y004389D01*
X012773Y004290D02*
X012673Y004290D01*
X011258Y002813D02*
X002974Y002813D01*
X003357Y006359D02*
X003457Y006359D01*
X003457Y006457D02*
X003357Y006457D01*
X003357Y006556D02*
X003457Y006556D01*
X003508Y006556D02*
X003569Y006556D01*
X003569Y006654D02*
X002974Y006654D01*
X002974Y006556D02*
X003306Y006556D01*
X003061Y006457D02*
X002974Y006457D01*
X002974Y006753D02*
X003569Y006753D01*
X003591Y006851D02*
X002974Y006851D01*
X002974Y006950D02*
X003617Y006950D01*
X003645Y007048D02*
X002974Y007048D01*
X002974Y007147D02*
X003702Y007147D01*
X003759Y007245D02*
X002974Y007245D01*
X002974Y007344D02*
X003837Y007344D01*
X003936Y007442D02*
X002974Y007442D01*
X002974Y007738D02*
X008174Y007738D01*
X008104Y007639D02*
X005079Y007639D01*
X005249Y007541D02*
X008104Y007541D01*
X008104Y007442D02*
X005381Y007442D01*
X005479Y007344D02*
X008104Y007344D01*
X008104Y007245D02*
X005558Y007245D01*
X005615Y007147D02*
X008104Y007147D01*
X008104Y007048D02*
X005671Y007048D01*
X005699Y006950D02*
X008104Y006950D01*
X008104Y006851D02*
X005725Y006851D01*
X005748Y006753D02*
X008104Y006753D01*
X008104Y006654D02*
X005748Y006654D01*
X005748Y006556D02*
X008104Y006556D01*
X008104Y006457D02*
X005742Y006457D01*
X005715Y006359D02*
X008104Y006359D01*
X008324Y007577D02*
X008324Y003577D01*
X008824Y003077D01*
X010858Y006753D02*
X011035Y006753D01*
X010993Y006851D02*
X010858Y006851D01*
X011320Y007102D02*
X010199Y007102D01*
X010024Y007277D01*
X010858Y007344D02*
X010993Y007344D01*
X011026Y007442D02*
X010858Y007442D01*
X009056Y007923D02*
X008670Y007923D01*
X008324Y007577D01*
X008272Y007836D02*
X002974Y007836D01*
X002974Y007935D02*
X008371Y007935D01*
X008469Y008033D02*
X002974Y008033D01*
X002974Y008132D02*
X008568Y008132D01*
X008697Y008230D02*
X002974Y008230D01*
X002974Y008329D02*
X008783Y008329D01*
X008789Y008322D02*
X008789Y008322D01*
X008684Y008427D02*
X002974Y008427D01*
X002974Y008526D02*
X008627Y008526D01*
X008586Y008624D02*
X002974Y008624D01*
X003989Y007496D02*
X004238Y007639D01*
X002974Y015421D02*
X009004Y015421D01*
X009004Y015519D02*
X002974Y015519D01*
X017044Y005374D02*
X018510Y005374D01*
X018824Y005577D02*
X018824Y006077D01*
X018631Y006270D01*
X019179Y005472D02*
X019445Y005472D01*
X019445Y005374D02*
X019139Y005374D01*
X017879Y004527D02*
X017879Y004131D01*
X017311Y004980D02*
X017044Y004980D01*
X017044Y005078D02*
X017410Y005078D01*
X017508Y005177D02*
X017044Y005177D01*
X017044Y005275D02*
X017607Y005275D01*
X016224Y004531D02*
X016224Y004252D01*
X016399Y004077D01*
X016224Y004531D02*
X016179Y004577D01*
D20*
X018824Y005577D03*
X018824Y006802D03*
X018499Y009502D03*
X017124Y013227D03*
X013249Y012377D03*
X011024Y012277D03*
X009824Y013077D03*
X012899Y009752D03*
X011599Y007927D03*
X012824Y007077D03*
X013149Y005752D03*
X007549Y004377D03*
M02*
