G75*
G70*
%OFA0B0*%
%FSLAX24Y24*%
%IPPOS*%
%LPD*%
%AMOC8*
5,1,8,0,0,1.08239X$1,22.5*
%
%ADD10OC8,0.0740*%
%ADD11C,0.0602*%
%ADD12C,0.0927*%
%ADD13C,0.0400*%
%ADD14C,0.0100*%
%ADD15C,0.0160*%
D10*
X009524Y012850D03*
X010524Y012850D03*
X011524Y012850D03*
X012524Y012850D03*
X013524Y012850D03*
X014524Y012850D03*
X015524Y012850D03*
X015524Y013850D03*
X014524Y013850D03*
X013524Y013850D03*
X012524Y013850D03*
X011524Y013850D03*
X010524Y013850D03*
X009524Y013850D03*
X021524Y009850D03*
X022524Y009850D03*
X022524Y008850D03*
X021524Y008850D03*
X021524Y007850D03*
X022524Y007850D03*
X022524Y006850D03*
X021524Y006850D03*
X021524Y005850D03*
X022524Y005850D03*
X022524Y004850D03*
X021524Y004850D03*
X021524Y003850D03*
X022524Y003850D03*
D11*
X010024Y004800D03*
X009056Y005646D03*
X010024Y005800D03*
X009056Y006446D03*
X009056Y007245D03*
X009056Y008044D03*
X009056Y008843D03*
X010024Y009489D03*
X009056Y009643D03*
X010024Y010489D03*
D12*
X003407Y004473D03*
X003407Y010824D03*
D13*
X006364Y009240D03*
X007664Y009240D03*
X007024Y011660D03*
X012064Y009690D03*
X013404Y010900D03*
X016444Y010120D03*
X016484Y008870D03*
X015134Y007950D03*
X015914Y007800D03*
X013314Y007900D03*
X015314Y005910D03*
X016484Y005890D03*
X018514Y004380D03*
X020134Y004550D03*
X019894Y005940D03*
X019124Y005950D03*
X020584Y006630D03*
X016784Y004180D03*
X014834Y004190D03*
X014004Y005050D03*
X020574Y002600D03*
X018954Y011120D03*
D14*
X018514Y010580D02*
X018324Y010770D01*
X017094Y010770D01*
X016444Y010120D01*
X014544Y010890D02*
X014544Y006680D01*
X015314Y005910D01*
X016484Y005890D02*
X016484Y008870D01*
X015764Y007950D02*
X015914Y007800D01*
X015764Y007950D02*
X015764Y011430D01*
X014524Y012670D01*
X014524Y012850D01*
X014024Y012530D02*
X014024Y013340D01*
X013524Y013850D01*
X012584Y012850D02*
X014544Y010890D01*
X014004Y010300D02*
X013404Y010900D01*
X014004Y010300D02*
X014004Y005050D01*
X013754Y004450D02*
X013314Y004890D01*
X013314Y007900D01*
X015134Y007950D02*
X015134Y011430D01*
X014024Y012530D01*
X012584Y012850D02*
X012524Y012850D01*
X009734Y009990D02*
X009534Y010190D01*
X008454Y010190D01*
X007664Y009400D01*
X007664Y009240D01*
X006374Y009230D02*
X006364Y009240D01*
X006374Y009230D02*
X006374Y005240D01*
X008894Y002720D01*
X019494Y002720D01*
X020134Y003360D01*
X020134Y004550D01*
X019124Y003720D02*
X019014Y003610D01*
X017864Y003610D01*
X017604Y003870D01*
X017604Y004680D01*
X017394Y004890D01*
X014864Y004890D01*
X014424Y004450D01*
X013754Y004450D01*
X014834Y004190D02*
X016774Y004190D01*
X016784Y004180D01*
X018514Y004380D02*
X018514Y006380D01*
X018664Y006530D01*
X019424Y006530D01*
X019524Y006430D01*
X019524Y003590D01*
X019134Y003200D01*
X012824Y003200D01*
X011004Y005020D01*
X011004Y006040D01*
X010599Y006446D01*
X009056Y006446D01*
X009056Y005646D02*
X007568Y005646D01*
X006894Y006320D01*
X006894Y011530D01*
X007024Y011660D01*
X009734Y009990D02*
X011764Y009990D01*
X012064Y009690D01*
X018514Y010580D02*
X018514Y006380D01*
X019124Y005950D02*
X019124Y003720D01*
X019894Y005940D02*
X020584Y006630D01*
D15*
X020974Y006450D02*
X020574Y006050D01*
X020574Y002600D01*
X020974Y006450D02*
X020974Y007300D01*
X021524Y007850D01*
M02*
