%
M48
M72
T01C0.0236
T02C0.0400
T03C0.0402
T04C0.0618
T05C0.1280
%
T01
X13314Y7900
X15134Y7950
X15914Y7800
X16484Y8870
X16444Y10120
X18954Y11120
X13404Y10900
X12064Y9690
X7664Y9240
X6364Y9240
X7024Y11660
X15314Y5910
X16484Y5890
X18514Y4380
X20134Y4550
X19894Y5940
X19124Y5950
X20584Y6630
X16784Y4180
X14834Y4190
X14004Y5050
X20574Y2600
T02
X21524Y3850
X22524Y3850
X22524Y4850
X21524Y4850
X21524Y5850
X22524Y5850
X22524Y6850
X21524Y6850
X21524Y7850
X22524Y7850
X22524Y8850
X21524Y8850
X21524Y9850
X22524Y9850
X15524Y12850
X14524Y12850
X13524Y12850
X12524Y12850
X11524Y12850
X10524Y12850
X9524Y12850
X9524Y13850
X10524Y13850
X11524Y13850
X12524Y13850
X13524Y13850
X14524Y13850
X15524Y13850
T03
X10024Y10489
X9056Y9643
X10024Y9489
X9056Y8843
X9056Y8044
X9056Y7245
X9056Y6446
X10024Y5800
X9056Y5646
X10024Y4800
T04
X3407Y4473
X3407Y10824
T05
X4658Y10146
X4658Y5146
M30
