%
M48
M72
T01C0.0236
T02C0.0400
T03C0.0402
T04C0.0618
T05C0.1280
%
T01
X7549Y4377
X11599Y7927
X12824Y7077
X13149Y5752
X18499Y9502
X18824Y6802
X18824Y5577
X12899Y9752
X13249Y12377
X11024Y12277
X9824Y13077
X17124Y13227
T02
X15524Y14327
X14524Y14327
X13524Y14327
X12524Y14327
X11524Y14327
X10524Y14327
X9524Y14327
X9524Y15327
X10524Y15327
X11524Y15327
X12524Y15327
X13524Y15327
X14524Y15327
X15524Y15327
X21524Y11327
X22524Y11327
X22524Y10327
X21524Y10327
X21524Y9327
X22524Y9327
X22524Y8327
X21524Y8327
X21524Y7327
X22524Y7327
X22524Y6327
X21524Y6327
X21524Y5327
X22524Y5327
T03
X10024Y6277
X9056Y7124
X10024Y7277
X9056Y7923
X9056Y8722
X9056Y9521
X9056Y10320
X10024Y10966
X9056Y11120
X10024Y11966
T04
X3407Y12301
X3407Y5950
T05
X4658Y6624
X4658Y11624
M30
