G75*
G70*
%OFA0B0*%
%FSLAX24Y24*%
%IPPOS*%
%LPD*%
%AMOC8*
5,1,8,0,0,1.08239X$1,22.5*
%
%ADD10R,0.2165X0.0787*%
%ADD11OC8,0.0740*%
%ADD12R,0.0709X0.0138*%
%ADD13C,0.0602*%
%ADD14C,0.0927*%
%ADD15R,0.0709X0.0630*%
%ADD16R,0.0315X0.0472*%
%ADD17R,0.0472X0.0315*%
%ADD18R,0.0630X0.0709*%
%ADD19C,0.0100*%
%ADD20C,0.0120*%
%ADD21C,0.0396*%
%ADD22C,0.0320*%
D10*
X006434Y014690D03*
X010174Y014690D03*
D11*
X004244Y010000D03*
X003244Y010000D03*
X003244Y009000D03*
X003244Y008000D03*
X003244Y007000D03*
X003244Y006000D03*
X003244Y005000D03*
X003244Y004000D03*
X004244Y004000D03*
X004244Y005000D03*
X004244Y006000D03*
X004244Y007000D03*
X004244Y008000D03*
X004244Y009000D03*
X020244Y009000D03*
X020244Y008000D03*
X020244Y007000D03*
X020244Y006000D03*
X020244Y005000D03*
X020244Y004000D03*
X021244Y004000D03*
X021244Y005000D03*
X021244Y006000D03*
X021244Y007000D03*
X021244Y008000D03*
X021244Y009000D03*
X021244Y010000D03*
X020244Y010000D03*
D12*
X010005Y010203D03*
X010005Y010703D03*
X010005Y011203D03*
X010005Y011703D03*
X010005Y012203D03*
X010005Y012703D03*
X010005Y009703D03*
X010005Y009203D03*
X010005Y008703D03*
X010005Y008203D03*
X010005Y007703D03*
X010005Y007203D03*
X010005Y006703D03*
X010005Y006203D03*
X006305Y006203D03*
X006305Y006703D03*
X006305Y007203D03*
X006305Y007703D03*
X006305Y008203D03*
X006305Y008703D03*
X006305Y009203D03*
X006305Y009703D03*
X006305Y010203D03*
X006305Y010703D03*
X006305Y011203D03*
X006305Y011703D03*
X006305Y012203D03*
X006305Y012703D03*
D13*
X012294Y011200D03*
X013141Y012169D03*
X013940Y012169D03*
X014739Y012169D03*
X015538Y012169D03*
X016338Y012169D03*
X017137Y012169D03*
X016983Y011200D03*
X017983Y011200D03*
X013294Y011200D03*
D14*
X011968Y017817D03*
X018318Y017818D03*
D15*
X017974Y009921D03*
X017974Y008819D03*
X011119Y006911D03*
X011119Y005809D03*
D16*
X009109Y004595D03*
X008400Y004595D03*
X019915Y014000D03*
X020624Y014000D03*
D17*
X015504Y008144D03*
X015504Y007436D03*
X015514Y005904D03*
X015514Y005196D03*
X013384Y005221D03*
X013384Y005929D03*
X013379Y007441D03*
X013379Y008149D03*
X012299Y009571D03*
X012299Y010279D03*
D18*
X013908Y009235D03*
X015010Y009235D03*
X016798Y007395D03*
X017900Y007395D03*
X017905Y006135D03*
X016803Y006135D03*
X019788Y012755D03*
X020890Y012755D03*
X007040Y004165D03*
X005938Y004165D03*
X004210Y012205D03*
X003108Y012205D03*
X003108Y013840D03*
X003108Y014845D03*
X004210Y014845D03*
X004210Y013840D03*
D19*
X002741Y003768D02*
X002741Y003438D01*
X005683Y003438D01*
X005685Y003437D01*
X006436Y003437D01*
X006403Y003470D01*
X006274Y003599D01*
X006274Y003641D01*
X005553Y003641D01*
X005453Y003740D01*
X005453Y003770D01*
X005285Y003770D01*
X005203Y003688D01*
X005068Y003632D01*
X004921Y003632D01*
X004786Y003688D01*
X004727Y003747D01*
X004460Y003480D01*
X004294Y003480D01*
X004294Y003950D01*
X004194Y003950D01*
X003724Y003950D01*
X003294Y003950D01*
X003294Y003480D01*
X003460Y003480D01*
X003744Y003765D01*
X004029Y003480D01*
X004194Y003480D01*
X004194Y003950D01*
X004194Y004050D01*
X003294Y004050D01*
X003294Y003950D01*
X003194Y003950D01*
X003194Y003480D01*
X003029Y003480D01*
X002741Y003768D01*
X002741Y003698D02*
X002811Y003698D01*
X002741Y003600D02*
X002909Y003600D01*
X003008Y003501D02*
X002741Y003501D01*
X003194Y003501D02*
X003294Y003501D01*
X003294Y003600D02*
X003194Y003600D01*
X003194Y003698D02*
X003294Y003698D01*
X003294Y003797D02*
X003194Y003797D01*
X003194Y003895D02*
X003294Y003895D01*
X003294Y003994D02*
X004194Y003994D01*
X004194Y003895D02*
X004294Y003895D01*
X004294Y003797D02*
X004194Y003797D01*
X004194Y003698D02*
X004294Y003698D01*
X004294Y003600D02*
X004194Y003600D01*
X004194Y003501D02*
X004294Y003501D01*
X004481Y003501D02*
X006372Y003501D01*
X006274Y003600D02*
X004579Y003600D01*
X004678Y003698D02*
X004776Y003698D01*
X005213Y003698D02*
X005495Y003698D01*
X006494Y003690D02*
X006494Y004620D01*
X006154Y004960D01*
X004864Y004960D01*
X004744Y004840D01*
X004744Y004750D01*
X004494Y004500D01*
X002984Y004500D01*
X002734Y004750D01*
X002734Y007500D01*
X003244Y008000D01*
X004244Y007000D02*
X003744Y006500D01*
X003744Y005730D01*
X003974Y005500D01*
X004894Y005500D01*
X005184Y005210D01*
X007334Y005210D01*
X007844Y004700D01*
X007844Y004400D01*
X008094Y004150D01*
X008624Y004150D01*
X008764Y004290D01*
X008764Y005040D01*
X008594Y005210D01*
X008594Y005700D01*
X008794Y005900D01*
X008794Y009000D01*
X008564Y009017D02*
X008524Y009017D01*
X008564Y009095D02*
X008564Y008905D01*
X008574Y008895D01*
X008574Y005991D01*
X008503Y005920D01*
X008374Y005791D01*
X008374Y005431D01*
X007440Y006366D01*
X007521Y006332D01*
X007668Y006332D01*
X007803Y006388D01*
X007906Y006491D01*
X007962Y006627D01*
X007962Y006743D01*
X008524Y007305D01*
X008524Y009405D01*
X008592Y009473D01*
X009572Y009473D01*
X009581Y009464D01*
X010430Y009464D01*
X010530Y009564D01*
X010530Y009842D01*
X010430Y009942D01*
X009581Y009942D01*
X009572Y009933D01*
X009448Y009933D01*
X009495Y009980D01*
X009565Y009980D01*
X009581Y009964D01*
X010430Y009964D01*
X010530Y010064D01*
X010530Y010342D01*
X010430Y010442D01*
X009581Y010442D01*
X009559Y010420D01*
X009495Y010420D01*
X009403Y010512D01*
X009268Y010568D01*
X009121Y010568D01*
X008986Y010512D01*
X008882Y010409D01*
X008826Y010273D01*
X008826Y010127D01*
X008882Y009991D01*
X008941Y009933D01*
X008402Y009933D01*
X008124Y009655D01*
X008124Y012472D01*
X008221Y012432D01*
X008368Y012432D01*
X008503Y012488D01*
X008606Y012591D01*
X008662Y012727D01*
X008662Y012770D01*
X009481Y012770D01*
X009481Y012564D01*
X009581Y012464D01*
X010430Y012464D01*
X010449Y012483D01*
X010500Y012483D01*
X010503Y012480D01*
X011003Y012480D01*
X011274Y012209D01*
X011274Y012051D01*
X011034Y012291D01*
X010905Y012420D01*
X010685Y012420D01*
X010683Y012423D01*
X010449Y012423D01*
X010430Y012442D01*
X009581Y012442D01*
X009481Y012342D01*
X009481Y012064D01*
X009581Y011964D01*
X010430Y011964D01*
X010449Y011983D01*
X010500Y011983D01*
X010503Y011980D01*
X010723Y011980D01*
X011034Y011669D01*
X011034Y011571D01*
X010814Y011791D01*
X010685Y011920D01*
X010452Y011920D01*
X010430Y011942D01*
X009581Y011942D01*
X009481Y011842D01*
X009481Y011564D01*
X009581Y011464D01*
X010430Y011464D01*
X010446Y011480D01*
X010503Y011480D01*
X010774Y011209D01*
X010774Y009109D01*
X010903Y008980D01*
X010903Y008980D01*
X011474Y008409D01*
X011474Y007376D01*
X011169Y007376D01*
X011169Y006961D01*
X011069Y006961D01*
X011069Y006861D01*
X010615Y006861D01*
X010615Y006576D01*
X010625Y006538D01*
X010645Y006504D01*
X010673Y006476D01*
X010707Y006456D01*
X010745Y006446D01*
X011069Y006446D01*
X011069Y006861D01*
X011169Y006861D01*
X011169Y006446D01*
X011474Y006446D01*
X011474Y006294D01*
X011026Y006294D01*
X011024Y006295D01*
X010890Y006430D01*
X010442Y006430D01*
X010430Y006442D01*
X009581Y006442D01*
X009481Y006342D01*
X009481Y006064D01*
X009581Y005964D01*
X010430Y005964D01*
X010436Y005970D01*
X010595Y005970D01*
X010595Y005423D01*
X010695Y005324D01*
X011474Y005324D01*
X011474Y005209D01*
X012403Y004280D01*
X013785Y004280D01*
X013914Y004409D01*
X014064Y004559D01*
X014064Y003491D01*
X013982Y003409D01*
X013926Y003273D01*
X013926Y003127D01*
X013979Y003000D01*
X012894Y003000D01*
X012748Y003146D01*
X012736Y003176D01*
X012704Y003271D01*
X012542Y003415D01*
X012542Y003415D01*
X012329Y003458D01*
X012264Y003437D01*
X007842Y003437D01*
X008085Y003680D01*
X009285Y003680D01*
X009414Y003809D01*
X009784Y004179D01*
X009784Y005621D01*
X009655Y005750D01*
X009314Y006091D01*
X009314Y008483D01*
X009562Y008483D01*
X009581Y008464D01*
X010430Y008464D01*
X010530Y008564D01*
X010530Y008842D01*
X010430Y008942D01*
X009581Y008942D01*
X009562Y008923D01*
X009106Y008923D01*
X009014Y008831D01*
X009014Y008895D01*
X009092Y008973D01*
X009572Y008973D01*
X009581Y008964D01*
X010430Y008964D01*
X010530Y009064D01*
X010530Y009342D01*
X010430Y009442D01*
X009581Y009442D01*
X009572Y009433D01*
X008902Y009433D01*
X008564Y009095D01*
X008585Y009116D02*
X008524Y009116D01*
X008524Y009214D02*
X008683Y009214D01*
X008782Y009313D02*
X008524Y009313D01*
X008531Y009411D02*
X008880Y009411D01*
X009038Y008919D02*
X009102Y008919D01*
X009197Y008703D02*
X009094Y008600D01*
X009094Y006000D01*
X009564Y005530D01*
X009564Y004270D01*
X009194Y003900D01*
X007994Y003900D01*
X007594Y003500D01*
X006684Y003500D01*
X006494Y003690D01*
X006990Y004215D02*
X006990Y004669D01*
X006714Y004669D01*
X006714Y004711D01*
X006435Y004990D01*
X007243Y004990D01*
X007624Y004609D01*
X007624Y004309D01*
X007753Y004180D01*
X007858Y004075D01*
X007503Y003720D01*
X007476Y003720D01*
X007495Y003753D01*
X007505Y003791D01*
X007505Y004115D01*
X007090Y004115D01*
X007090Y004215D01*
X006990Y004215D01*
X006990Y004289D02*
X007090Y004289D01*
X007090Y004215D02*
X007090Y004669D01*
X007375Y004669D01*
X007413Y004659D01*
X007448Y004639D01*
X007475Y004611D01*
X007495Y004577D01*
X007505Y004539D01*
X007505Y004215D01*
X007090Y004215D01*
X007090Y004191D02*
X007743Y004191D01*
X007644Y004289D02*
X007505Y004289D01*
X007505Y004388D02*
X007624Y004388D01*
X007624Y004486D02*
X007505Y004486D01*
X007491Y004585D02*
X007624Y004585D01*
X007550Y004683D02*
X006714Y004683D01*
X006644Y004782D02*
X007452Y004782D01*
X007353Y004880D02*
X006545Y004880D01*
X006447Y004979D02*
X007255Y004979D01*
X007090Y004585D02*
X006990Y004585D01*
X006990Y004486D02*
X007090Y004486D01*
X007090Y004388D02*
X006990Y004388D01*
X007505Y004092D02*
X007841Y004092D01*
X007777Y003994D02*
X007505Y003994D01*
X007505Y003895D02*
X007678Y003895D01*
X007580Y003797D02*
X007505Y003797D01*
X007906Y003501D02*
X014064Y003501D01*
X014064Y003600D02*
X008005Y003600D01*
X008400Y004595D02*
X008400Y005094D01*
X006794Y006700D01*
X006307Y006700D01*
X006305Y006703D01*
X005824Y007386D02*
X005824Y007470D01*
X005874Y007470D01*
X005880Y007464D01*
X006729Y007464D01*
X006829Y007564D01*
X006829Y007842D01*
X006729Y007942D01*
X005880Y007942D01*
X005868Y007930D01*
X005824Y007930D01*
X005824Y008020D01*
X005880Y007964D01*
X006729Y007964D01*
X006738Y007973D01*
X007092Y007973D01*
X007151Y008032D01*
X007268Y008032D01*
X007664Y008032D01*
X007664Y007934D02*
X006738Y007934D01*
X006829Y007835D02*
X007664Y007835D01*
X007664Y007805D02*
X007289Y007430D01*
X006741Y007430D01*
X006729Y007442D01*
X005880Y007442D01*
X005824Y007386D01*
X005824Y007441D02*
X005879Y007441D01*
X005872Y007934D02*
X005824Y007934D01*
X005824Y008886D02*
X005824Y009052D01*
X005830Y009042D01*
X005858Y009014D01*
X005892Y008994D01*
X005930Y008984D01*
X006305Y008984D01*
X006679Y008984D01*
X006717Y008994D01*
X006751Y009014D01*
X006779Y009042D01*
X006799Y009076D01*
X006809Y009114D01*
X006809Y009203D01*
X006809Y009292D01*
X006799Y009330D01*
X006779Y009364D01*
X006751Y009392D01*
X006717Y009412D01*
X006679Y009422D01*
X006305Y009422D01*
X006305Y009203D01*
X006809Y009203D01*
X006305Y009203D01*
X006305Y009203D01*
X006305Y009203D01*
X006305Y008984D01*
X006305Y009203D01*
X006305Y009203D01*
X006305Y009422D01*
X005930Y009422D01*
X005892Y009412D01*
X005858Y009392D01*
X005830Y009364D01*
X005824Y009354D01*
X005824Y009552D01*
X005830Y009542D01*
X005858Y009514D01*
X005892Y009494D01*
X005930Y009484D01*
X006305Y009484D01*
X006679Y009484D01*
X006717Y009494D01*
X006751Y009514D01*
X006779Y009542D01*
X006799Y009576D01*
X006809Y009614D01*
X006809Y009703D01*
X006809Y009792D01*
X006799Y009830D01*
X006779Y009864D01*
X006751Y009892D01*
X006717Y009912D01*
X006679Y009922D01*
X006305Y009922D01*
X006305Y009703D01*
X006809Y009703D01*
X006305Y009703D01*
X006305Y009703D01*
X006305Y009703D01*
X006305Y009484D01*
X006305Y009703D01*
X006305Y009703D01*
X006305Y009922D01*
X005930Y009922D01*
X005892Y009912D01*
X005858Y009892D01*
X005830Y009864D01*
X005824Y009854D01*
X005824Y009905D01*
X005884Y009964D01*
X006729Y009964D01*
X006829Y010064D01*
X006829Y010342D01*
X006729Y010442D01*
X006535Y010442D01*
X006535Y010464D01*
X006729Y010464D01*
X006829Y010564D01*
X006829Y010842D01*
X006729Y010942D01*
X005880Y010942D01*
X005879Y010941D01*
X005824Y010995D01*
X005824Y011052D01*
X005830Y011042D01*
X005858Y011014D01*
X005892Y010994D01*
X005930Y010984D01*
X006305Y010984D01*
X006679Y010984D01*
X006717Y010994D01*
X006751Y011014D01*
X006779Y011042D01*
X006799Y011076D01*
X006809Y011114D01*
X006809Y011203D01*
X006809Y011292D01*
X006799Y011330D01*
X006779Y011364D01*
X006751Y011392D01*
X006717Y011412D01*
X006679Y011422D01*
X006305Y011422D01*
X006305Y011203D01*
X006809Y011203D01*
X006305Y011203D01*
X006305Y011203D01*
X006305Y011203D01*
X006305Y010984D01*
X006305Y011203D01*
X006305Y011203D01*
X006305Y011422D01*
X005930Y011422D01*
X005892Y011412D01*
X005858Y011392D01*
X005830Y011364D01*
X005824Y011354D01*
X005824Y011520D01*
X005880Y011464D01*
X006729Y011464D01*
X006738Y011473D01*
X006949Y011473D01*
X006982Y011391D01*
X007086Y011288D01*
X007221Y011232D01*
X007368Y011232D01*
X007503Y011288D01*
X007606Y011391D01*
X007662Y011527D01*
X007662Y011673D01*
X007606Y011809D01*
X007515Y011900D01*
X007606Y011991D01*
X007662Y012127D01*
X007662Y012273D01*
X007606Y012409D01*
X007503Y012512D01*
X007368Y012568D01*
X007221Y012568D01*
X007086Y012512D01*
X007007Y012433D01*
X006738Y012433D01*
X006729Y012442D01*
X006061Y012442D01*
X006084Y012464D01*
X006729Y012464D01*
X006829Y012564D01*
X006829Y012842D01*
X006729Y012942D01*
X005880Y012942D01*
X005868Y012930D01*
X005219Y012930D01*
X005084Y012795D01*
X004724Y012435D01*
X004695Y012435D01*
X004695Y012630D01*
X004596Y012729D01*
X003825Y012729D01*
X003726Y012630D01*
X003726Y011780D01*
X003825Y011681D01*
X004596Y011681D01*
X004695Y011780D01*
X004695Y011975D01*
X004915Y011975D01*
X005410Y012470D01*
X005439Y012470D01*
X005364Y012395D01*
X005364Y010805D01*
X005499Y010670D01*
X005696Y010473D01*
X005871Y010473D01*
X005880Y010464D01*
X006075Y010464D01*
X006075Y010442D01*
X005880Y010442D01*
X005871Y010433D01*
X005702Y010433D01*
X005499Y010230D01*
X005364Y010095D01*
X005364Y009251D01*
X005303Y009312D01*
X005168Y009368D01*
X005021Y009368D01*
X004886Y009312D01*
X004794Y009220D01*
X004784Y009220D01*
X004784Y009224D01*
X004494Y009514D01*
X004764Y009785D01*
X004764Y009950D01*
X004294Y009950D01*
X004294Y010050D01*
X004194Y010050D01*
X004194Y009950D01*
X003724Y009950D01*
X003294Y009950D01*
X003294Y010050D01*
X003194Y010050D01*
X003194Y010520D01*
X003029Y010520D01*
X002741Y010232D01*
X002741Y011709D01*
X002773Y011701D01*
X003058Y011701D01*
X003058Y012155D01*
X003158Y012155D01*
X003158Y011701D01*
X003443Y011701D01*
X003481Y011711D01*
X003515Y011731D01*
X003543Y011759D01*
X003563Y011793D01*
X003573Y011831D01*
X003573Y012155D01*
X003158Y012155D01*
X003158Y012255D01*
X003058Y012255D01*
X003058Y012709D01*
X002773Y012709D01*
X002741Y012701D01*
X002741Y013344D01*
X002773Y013336D01*
X003058Y013336D01*
X003058Y013790D01*
X003158Y013790D01*
X003158Y013336D01*
X003443Y013336D01*
X003481Y013346D01*
X003515Y013366D01*
X003543Y013394D01*
X003563Y013428D01*
X003573Y013466D01*
X003573Y013790D01*
X003158Y013790D01*
X003158Y013890D01*
X003058Y013890D01*
X003058Y014344D01*
X003058Y014795D01*
X003158Y014795D01*
X003158Y013890D01*
X003573Y013890D01*
X003573Y014214D01*
X003563Y014252D01*
X003543Y014286D01*
X003515Y014314D01*
X003481Y014334D01*
X003450Y014343D01*
X003481Y014351D01*
X003515Y014371D01*
X003543Y014399D01*
X003563Y014433D01*
X003573Y014471D01*
X003573Y014795D01*
X003158Y014795D01*
X003158Y014895D01*
X003058Y014895D01*
X003058Y015349D01*
X002773Y015349D01*
X002741Y015341D01*
X002741Y017961D01*
X002791Y017862D01*
X003107Y017547D01*
X003504Y017345D01*
X003944Y017275D01*
X003944Y017275D01*
X004385Y017345D01*
X004782Y017547D01*
X005097Y017862D01*
X005097Y017862D01*
X005300Y018260D01*
X005369Y018700D01*
X005300Y019140D01*
X005097Y019538D01*
X004782Y019853D01*
X004689Y019900D01*
X011114Y019900D01*
X011114Y018702D01*
X011152Y018611D01*
X011222Y018541D01*
X011314Y018503D01*
X011585Y018503D01*
X011585Y018298D01*
X011568Y018285D01*
X011500Y018217D01*
X011443Y018139D01*
X011399Y018053D01*
X011369Y017961D01*
X011354Y017867D01*
X011585Y017867D01*
X011585Y017767D01*
X011354Y017767D01*
X011369Y017674D01*
X011399Y017582D01*
X011443Y017496D01*
X011500Y017418D01*
X011568Y017349D01*
X011585Y017337D01*
X011585Y014016D01*
X011299Y013730D01*
X008199Y013730D01*
X007799Y013330D01*
X007664Y013195D01*
X007664Y007805D01*
X007596Y007737D02*
X006829Y007737D01*
X006829Y007638D02*
X007497Y007638D01*
X007399Y007540D02*
X006805Y007540D01*
X006730Y007441D02*
X007300Y007441D01*
X007268Y008032D02*
X007403Y008088D01*
X007506Y008191D01*
X007562Y008327D01*
X007562Y008473D01*
X007506Y008609D01*
X007403Y008712D01*
X007311Y008750D01*
X007403Y008788D01*
X007506Y008891D01*
X007562Y009027D01*
X007562Y009173D01*
X007506Y009309D01*
X007403Y009412D01*
X007268Y009468D01*
X007121Y009468D01*
X006986Y009412D01*
X006882Y009309D01*
X006826Y009173D01*
X006826Y009057D01*
X006711Y008942D01*
X005880Y008942D01*
X005824Y008886D01*
X005824Y008919D02*
X005857Y008919D01*
X005855Y009017D02*
X005824Y009017D01*
X005824Y009411D02*
X005891Y009411D01*
X005866Y009510D02*
X005824Y009510D01*
X005824Y009904D02*
X005878Y009904D01*
X005567Y010298D02*
X004682Y010298D01*
X004764Y010215D02*
X004460Y010520D01*
X004294Y010520D01*
X004294Y010050D01*
X004764Y010050D01*
X004764Y010215D01*
X004764Y010199D02*
X005468Y010199D01*
X005370Y010101D02*
X004764Y010101D01*
X004764Y009904D02*
X005364Y009904D01*
X005364Y010002D02*
X004294Y010002D01*
X004294Y010101D02*
X004194Y010101D01*
X004194Y010050D02*
X004194Y010520D01*
X004029Y010520D01*
X003744Y010235D01*
X003460Y010520D01*
X003294Y010520D01*
X003294Y010050D01*
X004194Y010050D01*
X004194Y010002D02*
X003294Y010002D01*
X003294Y010101D02*
X003194Y010101D01*
X003194Y010199D02*
X003294Y010199D01*
X003294Y010298D02*
X003194Y010298D01*
X003194Y010396D02*
X003294Y010396D01*
X003294Y010495D02*
X003194Y010495D01*
X003003Y010495D02*
X002741Y010495D01*
X002741Y010593D02*
X005576Y010593D01*
X005675Y010495D02*
X004485Y010495D01*
X004584Y010396D02*
X005665Y010396D01*
X005478Y010692D02*
X002741Y010692D01*
X002741Y010790D02*
X005379Y010790D01*
X005364Y010889D02*
X002741Y010889D01*
X002741Y010987D02*
X005364Y010987D01*
X005364Y011086D02*
X002741Y011086D01*
X002741Y011184D02*
X005364Y011184D01*
X005364Y011283D02*
X002741Y011283D01*
X002741Y011381D02*
X005364Y011381D01*
X005364Y011480D02*
X002741Y011480D01*
X002741Y011578D02*
X005364Y011578D01*
X005364Y011677D02*
X002741Y011677D01*
X003058Y011775D02*
X003158Y011775D01*
X003158Y011874D02*
X003058Y011874D01*
X003058Y011972D02*
X003158Y011972D01*
X003158Y012071D02*
X003058Y012071D01*
X003158Y012169D02*
X003726Y012169D01*
X003726Y012071D02*
X003573Y012071D01*
X003573Y011972D02*
X003726Y011972D01*
X003726Y011874D02*
X003573Y011874D01*
X003553Y011775D02*
X003731Y011775D01*
X003726Y012268D02*
X003573Y012268D01*
X003573Y012255D02*
X003573Y012579D01*
X003563Y012617D01*
X003543Y012651D01*
X003515Y012679D01*
X003481Y012699D01*
X003443Y012709D01*
X003158Y012709D01*
X003158Y012255D01*
X003573Y012255D01*
X003573Y012366D02*
X003726Y012366D01*
X003726Y012465D02*
X003573Y012465D01*
X003573Y012563D02*
X003726Y012563D01*
X003757Y012662D02*
X003533Y012662D01*
X003158Y012662D02*
X003058Y012662D01*
X003058Y012563D02*
X003158Y012563D01*
X003158Y012465D02*
X003058Y012465D01*
X003058Y012366D02*
X003158Y012366D01*
X003158Y012268D02*
X003058Y012268D01*
X002741Y012760D02*
X005049Y012760D01*
X004951Y012662D02*
X004664Y012662D01*
X004695Y012563D02*
X004852Y012563D01*
X004754Y012465D02*
X004695Y012465D01*
X005109Y012169D02*
X005364Y012169D01*
X005364Y012071D02*
X005010Y012071D01*
X005207Y012268D02*
X005364Y012268D01*
X005364Y012366D02*
X005306Y012366D01*
X005404Y012465D02*
X005434Y012465D01*
X005148Y012859D02*
X002741Y012859D01*
X002741Y012957D02*
X007664Y012957D01*
X007664Y012859D02*
X006813Y012859D01*
X006829Y012760D02*
X007664Y012760D01*
X007664Y012662D02*
X006829Y012662D01*
X006828Y012563D02*
X007209Y012563D01*
X007380Y012563D02*
X007664Y012563D01*
X007664Y012465D02*
X007550Y012465D01*
X007624Y012366D02*
X007664Y012366D01*
X007662Y012268D02*
X007664Y012268D01*
X007662Y012169D02*
X007664Y012169D01*
X007664Y012071D02*
X007639Y012071D01*
X007664Y011972D02*
X007587Y011972D01*
X007541Y011874D02*
X007664Y011874D01*
X007664Y011775D02*
X007620Y011775D01*
X007661Y011677D02*
X007664Y011677D01*
X007662Y011578D02*
X007664Y011578D01*
X007664Y011480D02*
X007643Y011480D01*
X007664Y011381D02*
X007596Y011381D01*
X007664Y011283D02*
X007490Y011283D01*
X007664Y011184D02*
X006809Y011184D01*
X006809Y011283D02*
X007099Y011283D01*
X006993Y011381D02*
X006762Y011381D01*
X006801Y011086D02*
X007664Y011086D01*
X007664Y010987D02*
X006690Y010987D01*
X006783Y010889D02*
X007664Y010889D01*
X007664Y010790D02*
X006829Y010790D01*
X006829Y010692D02*
X007664Y010692D01*
X007664Y010593D02*
X006829Y010593D01*
X006760Y010495D02*
X007664Y010495D01*
X007664Y010396D02*
X006775Y010396D01*
X006829Y010298D02*
X007664Y010298D01*
X007664Y010199D02*
X006829Y010199D01*
X006829Y010101D02*
X007664Y010101D01*
X007664Y010002D02*
X006767Y010002D01*
X006731Y009904D02*
X007664Y009904D01*
X007664Y009805D02*
X006805Y009805D01*
X006809Y009707D02*
X007664Y009707D01*
X007664Y009608D02*
X006807Y009608D01*
X006743Y009510D02*
X007664Y009510D01*
X007664Y009411D02*
X007404Y009411D01*
X007502Y009313D02*
X007664Y009313D01*
X007664Y009214D02*
X007546Y009214D01*
X007562Y009116D02*
X007664Y009116D01*
X007664Y009017D02*
X007558Y009017D01*
X007518Y008919D02*
X007664Y008919D01*
X007664Y008820D02*
X007435Y008820D01*
X007380Y008722D02*
X007664Y008722D01*
X007664Y008623D02*
X007492Y008623D01*
X007541Y008525D02*
X007664Y008525D01*
X007664Y008426D02*
X007562Y008426D01*
X007562Y008328D02*
X007664Y008328D01*
X007664Y008229D02*
X007522Y008229D01*
X007445Y008131D02*
X007664Y008131D01*
X008524Y008131D02*
X008574Y008131D01*
X008574Y008229D02*
X008524Y008229D01*
X008524Y008328D02*
X008574Y008328D01*
X008574Y008426D02*
X008524Y008426D01*
X008524Y008525D02*
X008574Y008525D01*
X008574Y008623D02*
X008524Y008623D01*
X008524Y008722D02*
X008574Y008722D01*
X008574Y008820D02*
X008524Y008820D01*
X008524Y008919D02*
X008564Y008919D01*
X009197Y008703D02*
X010005Y008703D01*
X010453Y008919D02*
X010965Y008919D01*
X010866Y009017D02*
X010483Y009017D01*
X010530Y009116D02*
X010774Y009116D01*
X010774Y009214D02*
X010530Y009214D01*
X010530Y009313D02*
X010774Y009313D01*
X010774Y009411D02*
X010461Y009411D01*
X010476Y009510D02*
X010774Y009510D01*
X010774Y009608D02*
X010530Y009608D01*
X010530Y009707D02*
X010774Y009707D01*
X010774Y009805D02*
X010530Y009805D01*
X010468Y009904D02*
X010774Y009904D01*
X010774Y010002D02*
X010468Y010002D01*
X010530Y010101D02*
X010774Y010101D01*
X010774Y010199D02*
X010530Y010199D01*
X010530Y010298D02*
X010774Y010298D01*
X010774Y010396D02*
X010476Y010396D01*
X010430Y010464D02*
X010530Y010564D01*
X010530Y010842D01*
X010430Y010942D01*
X009581Y010942D01*
X009481Y010842D01*
X009481Y010564D01*
X009581Y010464D01*
X010430Y010464D01*
X010461Y010495D02*
X010774Y010495D01*
X010774Y010593D02*
X010530Y010593D01*
X010530Y010692D02*
X010774Y010692D01*
X010774Y010790D02*
X010530Y010790D01*
X010483Y010889D02*
X010774Y010889D01*
X010774Y010987D02*
X010391Y010987D01*
X010379Y010984D02*
X010418Y010994D01*
X010452Y011014D01*
X010480Y011042D01*
X010499Y011076D01*
X010510Y011114D01*
X010510Y011203D01*
X010510Y011292D01*
X010499Y011330D01*
X010480Y011364D01*
X010452Y011392D01*
X010418Y011412D01*
X010379Y011422D01*
X010005Y011422D01*
X009631Y011422D01*
X009593Y011412D01*
X009559Y011392D01*
X009531Y011364D01*
X009511Y011330D01*
X009501Y011292D01*
X009501Y011203D01*
X010005Y011203D01*
X010005Y011203D01*
X009501Y011203D01*
X009501Y011114D01*
X009511Y011076D01*
X009531Y011042D01*
X009559Y011014D01*
X009593Y010994D01*
X009631Y010984D01*
X010005Y010984D01*
X010005Y011203D01*
X010005Y011422D01*
X010005Y011203D01*
X010005Y011203D01*
X010005Y011203D01*
X010005Y010984D01*
X010379Y010984D01*
X010502Y011086D02*
X010774Y011086D01*
X010774Y011184D02*
X010510Y011184D01*
X010510Y011203D02*
X010005Y011203D01*
X010510Y011203D01*
X010510Y011283D02*
X010701Y011283D01*
X010602Y011381D02*
X010463Y011381D01*
X010446Y011480D02*
X010504Y011480D01*
X010594Y011700D02*
X010008Y011700D01*
X010005Y011703D01*
X010005Y011381D02*
X010005Y011381D01*
X010005Y011283D02*
X010005Y011283D01*
X010005Y011203D02*
X010005Y011203D01*
X010005Y011184D02*
X010005Y011184D01*
X010005Y011086D02*
X010005Y011086D01*
X010005Y010987D02*
X010005Y010987D01*
X009620Y010987D02*
X008124Y010987D01*
X008124Y010889D02*
X009527Y010889D01*
X009481Y010790D02*
X008124Y010790D01*
X008124Y010692D02*
X009481Y010692D01*
X009481Y010593D02*
X008124Y010593D01*
X008124Y010495D02*
X008968Y010495D01*
X008877Y010396D02*
X008124Y010396D01*
X008124Y010298D02*
X008836Y010298D01*
X008826Y010199D02*
X008124Y010199D01*
X008124Y010101D02*
X008837Y010101D01*
X008878Y010002D02*
X008124Y010002D01*
X008124Y009904D02*
X008373Y009904D01*
X008274Y009805D02*
X008124Y009805D01*
X008124Y009707D02*
X008176Y009707D01*
X009194Y010200D02*
X010002Y010200D01*
X010005Y010203D01*
X009550Y010495D02*
X009420Y010495D01*
X009509Y011086D02*
X008124Y011086D01*
X008124Y011184D02*
X009501Y011184D01*
X009501Y011283D02*
X008124Y011283D01*
X008124Y011381D02*
X009548Y011381D01*
X009565Y011480D02*
X008124Y011480D01*
X008124Y011578D02*
X009481Y011578D01*
X009481Y011677D02*
X008124Y011677D01*
X008124Y011775D02*
X009481Y011775D01*
X009512Y011874D02*
X008124Y011874D01*
X008124Y011972D02*
X009573Y011972D01*
X009481Y012071D02*
X008124Y012071D01*
X008124Y012169D02*
X009481Y012169D01*
X009481Y012268D02*
X008124Y012268D01*
X008124Y012366D02*
X009505Y012366D01*
X009580Y012465D02*
X008446Y012465D01*
X008578Y012563D02*
X009482Y012563D01*
X009481Y012662D02*
X008635Y012662D01*
X008662Y012760D02*
X009481Y012760D01*
X010005Y012703D02*
X010591Y012703D01*
X010594Y012700D01*
X011094Y012700D01*
X011494Y012300D01*
X011494Y010000D01*
X011894Y009600D01*
X012270Y009600D01*
X012299Y009571D01*
X012706Y009608D02*
X012864Y009608D01*
X012864Y009695D02*
X012864Y008895D01*
X012214Y008245D01*
X012214Y008891D01*
X011474Y009631D01*
X011474Y009709D01*
X011674Y009509D01*
X011803Y009380D01*
X011893Y009380D01*
X011893Y009343D01*
X011993Y009243D01*
X012606Y009243D01*
X012706Y009343D01*
X012706Y009799D01*
X012606Y009898D01*
X011993Y009898D01*
X011950Y009855D01*
X011714Y010091D01*
X011714Y010598D01*
X011784Y010569D01*
X011993Y010569D01*
X011971Y010557D01*
X011943Y010529D01*
X011923Y010495D01*
X011913Y010457D01*
X011913Y010308D01*
X012271Y010308D01*
X012271Y010251D01*
X012328Y010251D01*
X012328Y010308D01*
X012686Y010308D01*
X012686Y010457D01*
X012675Y010495D01*
X012656Y010529D01*
X012628Y010557D01*
X012606Y010569D01*
X013626Y010569D01*
X013626Y010427D01*
X013682Y010291D01*
X013786Y010188D01*
X013921Y010132D01*
X014068Y010132D01*
X014203Y010188D01*
X014306Y010291D01*
X014362Y010427D01*
X014362Y010569D01*
X015308Y010569D01*
X015308Y010339D01*
X015099Y010130D01*
X013299Y010130D01*
X012864Y009695D01*
X012876Y009707D02*
X012706Y009707D01*
X012699Y009805D02*
X012974Y009805D01*
X013073Y009904D02*
X011902Y009904D01*
X011971Y010002D02*
X012005Y009982D01*
X012043Y009972D01*
X012271Y009972D01*
X012271Y010251D01*
X011913Y010251D01*
X011913Y010102D01*
X011923Y010064D01*
X011943Y010030D01*
X011971Y010002D01*
X011803Y010002D01*
X011714Y010101D02*
X011914Y010101D01*
X011913Y010199D02*
X011714Y010199D01*
X011714Y010298D02*
X012271Y010298D01*
X012294Y010284D02*
X012299Y010279D01*
X012294Y010284D02*
X012294Y011200D01*
X012344Y011184D02*
X012823Y011184D01*
X012823Y011260D02*
X012823Y011106D01*
X012839Y011067D01*
X012725Y011067D01*
X012734Y011094D01*
X012743Y011150D01*
X012344Y011150D01*
X012344Y011250D01*
X012244Y011250D01*
X012244Y011649D01*
X012189Y011640D01*
X012121Y011618D01*
X012083Y011598D01*
X012083Y012001D01*
X012103Y011980D01*
X012464Y011619D01*
X012400Y011640D01*
X012344Y011649D01*
X012344Y011250D01*
X012743Y011250D01*
X012734Y011306D01*
X012714Y011370D01*
X012823Y011260D01*
X012801Y011283D02*
X012738Y011283D01*
X012732Y011086D02*
X012832Y011086D01*
X013194Y011200D02*
X012194Y012200D01*
X012194Y012500D01*
X011694Y013000D01*
X012083Y012957D02*
X018195Y012957D01*
X018195Y012859D02*
X012147Y012859D01*
X012083Y012923D02*
X012083Y013863D01*
X012690Y014470D01*
X018195Y014470D01*
X018195Y012605D01*
X017820Y012230D01*
X017799Y012230D01*
X017664Y012095D01*
X017583Y012014D01*
X017608Y012075D01*
X017608Y012262D01*
X017536Y012435D01*
X017404Y012568D01*
X017231Y012640D01*
X017043Y012640D01*
X016870Y012568D01*
X016737Y012435D01*
X016737Y012435D01*
X016737Y012435D01*
X016605Y012568D01*
X016431Y012640D01*
X016244Y012640D01*
X016071Y012568D01*
X015938Y012435D01*
X015938Y012435D01*
X015938Y012435D01*
X015805Y012568D01*
X015632Y012640D01*
X015445Y012640D01*
X015272Y012568D01*
X015139Y012435D01*
X015139Y012435D01*
X015139Y012435D01*
X015006Y012568D01*
X014833Y012640D01*
X014645Y012640D01*
X014472Y012568D01*
X014340Y012435D01*
X014339Y012435D01*
X014340Y012435D02*
X014340Y012435D01*
X014339Y012435D02*
X014207Y012568D01*
X014034Y012640D01*
X013846Y012640D01*
X013673Y012568D01*
X013541Y012435D01*
X013540Y012435D01*
X013540Y012435D01*
X013408Y012568D01*
X013234Y012640D01*
X013047Y012640D01*
X012874Y012568D01*
X012741Y012435D01*
X012670Y012262D01*
X012670Y012075D01*
X012697Y012008D01*
X012414Y012291D01*
X012414Y012591D01*
X012083Y012923D01*
X012083Y013056D02*
X018195Y013056D01*
X018195Y013154D02*
X012083Y013154D01*
X012083Y013253D02*
X018195Y013253D01*
X018195Y013351D02*
X012083Y013351D01*
X012083Y013450D02*
X018195Y013450D01*
X018195Y013548D02*
X012083Y013548D01*
X012083Y013647D02*
X018195Y013647D01*
X018195Y013745D02*
X012083Y013745D01*
X012083Y013844D02*
X018195Y013844D01*
X018195Y013942D02*
X012162Y013942D01*
X012260Y014041D02*
X018195Y014041D01*
X018195Y014139D02*
X012359Y014139D01*
X012457Y014238D02*
X018195Y014238D01*
X018195Y014336D02*
X012556Y014336D01*
X012654Y014435D02*
X018195Y014435D01*
X018195Y014930D02*
X012499Y014930D01*
X012083Y014513D01*
X012083Y015871D01*
X012139Y015815D01*
X012464Y015680D01*
X012817Y015680D01*
X013143Y015815D01*
X013392Y016064D01*
X013527Y016390D01*
X013527Y016743D01*
X013392Y017068D01*
X013143Y017318D01*
X012817Y017453D01*
X012464Y017453D01*
X012460Y017451D01*
X012492Y017496D01*
X012536Y017582D01*
X012566Y017674D01*
X012581Y017767D01*
X012083Y017767D01*
X012083Y017867D01*
X012581Y017867D01*
X012566Y017961D01*
X012536Y018053D01*
X012492Y018139D01*
X012436Y018217D01*
X012367Y018285D01*
X012289Y018342D01*
X012203Y018386D01*
X012111Y018416D01*
X012083Y018420D01*
X012083Y019900D01*
X018195Y019900D01*
X018195Y018419D01*
X018174Y018416D01*
X018082Y018386D01*
X017996Y018342D01*
X017918Y018286D01*
X017850Y018217D01*
X017793Y018139D01*
X017749Y018053D01*
X017719Y017961D01*
X017705Y017868D01*
X018195Y017868D01*
X018195Y017768D01*
X017705Y017768D01*
X017719Y017674D01*
X017749Y017582D01*
X017793Y017496D01*
X017828Y017448D01*
X017817Y017453D01*
X017464Y017453D01*
X017139Y017318D01*
X016889Y017068D01*
X016754Y016743D01*
X016754Y016390D01*
X016889Y016064D01*
X017139Y015815D01*
X017464Y015680D01*
X017817Y015680D01*
X018143Y015815D01*
X018195Y015866D01*
X018195Y014930D01*
X018195Y015026D02*
X012083Y015026D01*
X012083Y015124D02*
X018195Y015124D01*
X018195Y015223D02*
X012083Y015223D01*
X012083Y015321D02*
X018195Y015321D01*
X018195Y015420D02*
X012083Y015420D01*
X012083Y015518D02*
X018195Y015518D01*
X018195Y015617D02*
X012083Y015617D01*
X012083Y015715D02*
X012379Y015715D01*
X012141Y015814D02*
X012083Y015814D01*
X011585Y015814D02*
X009376Y015814D01*
X009360Y015830D02*
X004899Y015830D01*
X004764Y015695D01*
X004438Y015369D01*
X003825Y015369D01*
X003726Y015270D01*
X003726Y014420D01*
X003803Y014343D01*
X003726Y014265D01*
X003726Y013415D01*
X003825Y013316D01*
X004596Y013316D01*
X004695Y013415D01*
X004695Y013610D01*
X005680Y013610D01*
X006064Y013995D01*
X006064Y013791D01*
X005982Y013709D01*
X005926Y013573D01*
X005926Y013427D01*
X005982Y013291D01*
X006086Y013188D01*
X006221Y013132D01*
X006368Y013132D01*
X006503Y013188D01*
X006606Y013291D01*
X006662Y013427D01*
X006662Y013573D01*
X006606Y013709D01*
X006524Y013791D01*
X006524Y014126D01*
X007587Y014126D01*
X007687Y014226D01*
X007687Y015154D01*
X007587Y015254D01*
X005281Y015254D01*
X005182Y015154D01*
X005182Y014226D01*
X005281Y014126D01*
X005545Y014126D01*
X005489Y014070D01*
X004695Y014070D01*
X004695Y014265D01*
X004618Y014343D01*
X004695Y014420D01*
X004695Y014976D01*
X005090Y015370D01*
X009169Y015370D01*
X009285Y015254D01*
X009021Y015254D01*
X008922Y015154D01*
X008922Y014930D01*
X008785Y014930D01*
X008703Y015012D01*
X008568Y015068D01*
X008421Y015068D01*
X008286Y015012D01*
X008182Y014909D01*
X008126Y014773D01*
X008126Y014627D01*
X008182Y014491D01*
X008286Y014388D01*
X008421Y014332D01*
X008568Y014332D01*
X008703Y014388D01*
X008785Y014470D01*
X008922Y014470D01*
X008922Y014226D01*
X009021Y014126D01*
X011327Y014126D01*
X011427Y014226D01*
X011427Y015154D01*
X011327Y015254D01*
X009936Y015254D01*
X009360Y015830D01*
X009475Y015715D02*
X011585Y015715D01*
X011585Y015617D02*
X009573Y015617D01*
X009672Y015518D02*
X011585Y015518D01*
X011585Y015420D02*
X009770Y015420D01*
X009869Y015321D02*
X011585Y015321D01*
X011585Y015223D02*
X011359Y015223D01*
X011427Y015124D02*
X011585Y015124D01*
X011585Y015026D02*
X011427Y015026D01*
X011427Y014927D02*
X011585Y014927D01*
X011585Y014829D02*
X011427Y014829D01*
X011427Y014730D02*
X011585Y014730D01*
X011585Y014632D02*
X011427Y014632D01*
X011427Y014533D02*
X011585Y014533D01*
X011585Y014435D02*
X011427Y014435D01*
X011427Y014336D02*
X011585Y014336D01*
X011585Y014238D02*
X011427Y014238D01*
X011340Y014139D02*
X011585Y014139D01*
X011585Y014041D02*
X006524Y014041D01*
X006524Y013942D02*
X011511Y013942D01*
X011413Y013844D02*
X006524Y013844D01*
X006570Y013745D02*
X011314Y013745D01*
X012083Y014533D02*
X012102Y014533D01*
X012083Y014632D02*
X012201Y014632D01*
X012299Y014730D02*
X012083Y014730D01*
X012083Y014829D02*
X012398Y014829D01*
X012496Y014927D02*
X012083Y014927D01*
X012903Y015715D02*
X017379Y015715D01*
X017141Y015814D02*
X013141Y015814D01*
X013241Y015912D02*
X017041Y015912D01*
X016943Y016011D02*
X013339Y016011D01*
X013411Y016109D02*
X016870Y016109D01*
X016830Y016208D02*
X013452Y016208D01*
X013493Y016306D02*
X016789Y016306D01*
X016754Y016405D02*
X013527Y016405D01*
X013527Y016503D02*
X016754Y016503D01*
X016754Y016602D02*
X013527Y016602D01*
X013527Y016700D02*
X016754Y016700D01*
X016777Y016799D02*
X013504Y016799D01*
X013463Y016897D02*
X016818Y016897D01*
X016859Y016996D02*
X013423Y016996D01*
X013367Y017094D02*
X016915Y017094D01*
X017013Y017193D02*
X013268Y017193D01*
X013170Y017291D02*
X017112Y017291D01*
X017312Y017390D02*
X012970Y017390D01*
X012538Y017587D02*
X017748Y017587D01*
X017718Y017685D02*
X012568Y017685D01*
X012579Y017882D02*
X017707Y017882D01*
X017726Y017981D02*
X012560Y017981D01*
X012523Y018079D02*
X017762Y018079D01*
X017821Y018178D02*
X012464Y018178D01*
X012377Y018276D02*
X017909Y018276D01*
X018059Y018375D02*
X012225Y018375D01*
X012083Y018473D02*
X018195Y018473D01*
X018195Y018572D02*
X012083Y018572D01*
X012083Y018670D02*
X018195Y018670D01*
X018195Y018769D02*
X012083Y018769D01*
X012083Y018867D02*
X018195Y018867D01*
X018195Y018966D02*
X012083Y018966D01*
X012083Y019064D02*
X018195Y019064D01*
X018195Y019163D02*
X012083Y019163D01*
X012083Y019261D02*
X018195Y019261D01*
X018195Y019360D02*
X012083Y019360D01*
X012083Y019458D02*
X018195Y019458D01*
X018195Y019557D02*
X012083Y019557D01*
X012083Y019655D02*
X018195Y019655D01*
X018195Y019754D02*
X012083Y019754D01*
X012083Y019852D02*
X018195Y019852D01*
X019163Y019852D02*
X019671Y019852D01*
X019594Y019900D02*
X019785Y019781D01*
X019541Y019538D01*
X019541Y019538D01*
X019339Y019140D01*
X019269Y018700D01*
X019339Y018260D01*
X019339Y018260D01*
X019541Y017862D01*
X019857Y017547D01*
X020254Y017345D01*
X020694Y017275D01*
X021135Y017345D01*
X021532Y017547D01*
X021847Y017862D01*
X021847Y017862D01*
X021897Y017961D01*
X021897Y010608D01*
X021855Y010650D01*
X020825Y011680D01*
X020643Y011680D01*
X020435Y011680D01*
X020004Y012111D01*
X020004Y012231D01*
X020174Y012231D01*
X020273Y012330D01*
X020273Y013180D01*
X020174Y013279D01*
X019520Y013279D01*
X019834Y013594D01*
X020143Y013594D01*
X020242Y013693D01*
X020242Y014307D01*
X020143Y014406D01*
X019687Y014406D01*
X019588Y014307D01*
X019588Y013998D01*
X018692Y013103D01*
X018692Y014470D01*
X020299Y014470D01*
X020379Y014390D01*
X020296Y014307D01*
X020296Y013693D01*
X020396Y013594D01*
X020852Y013594D01*
X020951Y013693D01*
X020951Y014307D01*
X020854Y014404D01*
X020854Y014566D01*
X020624Y014795D01*
X020490Y014930D01*
X018692Y014930D01*
X018692Y017331D01*
X018718Y017350D01*
X018786Y017418D01*
X018843Y017496D01*
X018887Y017582D01*
X018916Y017674D01*
X018931Y017768D01*
X018692Y017768D01*
X018692Y017868D01*
X018931Y017868D01*
X018916Y017961D01*
X018887Y018053D01*
X018843Y018139D01*
X018786Y018217D01*
X018718Y018286D01*
X018692Y018304D01*
X018692Y018502D01*
X018981Y018502D01*
X019025Y018528D01*
X019055Y018540D01*
X019055Y018541D01*
X019055Y018541D01*
X019055Y018541D01*
X019056Y018541D01*
X019067Y018552D01*
X019096Y018569D01*
X019096Y018569D01*
X019114Y018599D01*
X019125Y018611D01*
X019125Y018611D01*
X019125Y018611D01*
X019138Y018641D01*
X019163Y018685D01*
X019163Y018702D01*
X019163Y018702D01*
X019163Y018751D01*
X019163Y019900D01*
X019594Y019900D01*
X019757Y019754D02*
X019163Y019754D01*
X019163Y019655D02*
X019659Y019655D01*
X019560Y019557D02*
X019163Y019557D01*
X019163Y019458D02*
X019501Y019458D01*
X019451Y019360D02*
X019163Y019360D01*
X019163Y019261D02*
X019401Y019261D01*
X019350Y019163D02*
X019163Y019163D01*
X019163Y019064D02*
X019327Y019064D01*
X019339Y019140D02*
X019339Y019140D01*
X019311Y018966D02*
X019163Y018966D01*
X019163Y018867D02*
X019296Y018867D01*
X019280Y018769D02*
X019163Y018769D01*
X019155Y018670D02*
X019274Y018670D01*
X019269Y018700D02*
X019269Y018700D01*
X019290Y018572D02*
X019098Y018572D01*
X019305Y018473D02*
X018692Y018473D01*
X018692Y018375D02*
X019321Y018375D01*
X019336Y018276D02*
X018727Y018276D01*
X018815Y018178D02*
X019381Y018178D01*
X019431Y018079D02*
X018873Y018079D01*
X018910Y017981D02*
X019481Y017981D01*
X019531Y017882D02*
X018929Y017882D01*
X018918Y017685D02*
X019719Y017685D01*
X019817Y017587D02*
X018888Y017587D01*
X018837Y017488D02*
X019973Y017488D01*
X020166Y017390D02*
X018758Y017390D01*
X018692Y017291D02*
X020593Y017291D01*
X020694Y017275D02*
X020694Y017275D01*
X020796Y017291D02*
X021897Y017291D01*
X021897Y017193D02*
X018692Y017193D01*
X018692Y017094D02*
X021897Y017094D01*
X021897Y016996D02*
X018692Y016996D01*
X018692Y016897D02*
X021897Y016897D01*
X021897Y016799D02*
X018692Y016799D01*
X018692Y016700D02*
X021897Y016700D01*
X021897Y016602D02*
X018692Y016602D01*
X018692Y016503D02*
X021897Y016503D01*
X021897Y016405D02*
X018692Y016405D01*
X018692Y016306D02*
X021897Y016306D01*
X021897Y016208D02*
X018692Y016208D01*
X018692Y016109D02*
X021897Y016109D01*
X021897Y016011D02*
X018692Y016011D01*
X018692Y015912D02*
X021897Y015912D01*
X021897Y015814D02*
X018692Y015814D01*
X018692Y015715D02*
X021897Y015715D01*
X021897Y015617D02*
X018692Y015617D01*
X018692Y015518D02*
X021897Y015518D01*
X021897Y015420D02*
X018692Y015420D01*
X018692Y015321D02*
X021897Y015321D01*
X021897Y015223D02*
X018692Y015223D01*
X018692Y015124D02*
X021897Y015124D01*
X021897Y015026D02*
X018692Y015026D01*
X018692Y014435D02*
X020335Y014435D01*
X020326Y014336D02*
X020213Y014336D01*
X020242Y014238D02*
X020296Y014238D01*
X020296Y014139D02*
X020242Y014139D01*
X020242Y014041D02*
X020296Y014041D01*
X020296Y013942D02*
X020242Y013942D01*
X020242Y013844D02*
X020296Y013844D01*
X020296Y013745D02*
X020242Y013745D01*
X020196Y013647D02*
X020343Y013647D01*
X020200Y013253D02*
X020530Y013253D01*
X020518Y013249D02*
X020483Y013229D01*
X020456Y013201D01*
X020436Y013167D01*
X020426Y013129D01*
X020426Y012805D01*
X020840Y012805D01*
X020840Y012705D01*
X020426Y012705D01*
X020426Y012381D01*
X020436Y012343D01*
X020456Y012309D01*
X020483Y012281D01*
X020518Y012261D01*
X020556Y012251D01*
X020840Y012251D01*
X020840Y012705D01*
X020940Y012705D01*
X020940Y012251D01*
X021225Y012251D01*
X021263Y012261D01*
X021298Y012281D01*
X021325Y012309D01*
X021345Y012343D01*
X021355Y012381D01*
X021355Y012705D01*
X020940Y012705D01*
X020940Y012805D01*
X020840Y012805D01*
X020840Y013259D01*
X020556Y013259D01*
X020518Y013249D01*
X020432Y013154D02*
X020273Y013154D01*
X020273Y013056D02*
X020426Y013056D01*
X020426Y012957D02*
X020273Y012957D01*
X020273Y012859D02*
X020426Y012859D01*
X020273Y012760D02*
X020840Y012760D01*
X020890Y012755D02*
X021194Y013059D01*
X021194Y014900D01*
X019277Y016818D01*
X019277Y016918D01*
X019620Y017784D02*
X018692Y017784D01*
X018195Y017784D02*
X012083Y017784D01*
X012487Y017488D02*
X017799Y017488D01*
X018141Y015814D02*
X018195Y015814D01*
X018195Y015715D02*
X017903Y015715D01*
X018692Y014336D02*
X019617Y014336D01*
X019588Y014238D02*
X018692Y014238D01*
X018692Y014139D02*
X019588Y014139D01*
X019588Y014041D02*
X018692Y014041D01*
X018692Y013942D02*
X019532Y013942D01*
X019433Y013844D02*
X018692Y013844D01*
X018692Y013745D02*
X019335Y013745D01*
X019236Y013647D02*
X018692Y013647D01*
X018692Y013548D02*
X019138Y013548D01*
X019039Y013450D02*
X018692Y013450D01*
X018692Y013351D02*
X018941Y013351D01*
X018842Y013253D02*
X018692Y013253D01*
X018692Y013154D02*
X018744Y013154D01*
X019099Y012859D02*
X019303Y012859D01*
X019303Y012957D02*
X019197Y012957D01*
X019296Y013056D02*
X019303Y013056D01*
X019303Y013063D02*
X019303Y012330D01*
X019403Y012231D01*
X019564Y012231D01*
X019564Y011929D01*
X019693Y011800D01*
X020124Y011369D01*
X020124Y011369D01*
X020253Y011240D01*
X020643Y011240D01*
X021363Y010520D01*
X021294Y010520D01*
X021294Y010050D01*
X021194Y010050D01*
X021194Y009950D01*
X020724Y009950D01*
X020294Y009950D01*
X020294Y010050D01*
X020194Y010050D01*
X020194Y009950D01*
X019724Y009950D01*
X019724Y009831D01*
X019135Y010420D01*
X019095Y010420D01*
X019003Y010512D01*
X018868Y010568D01*
X018721Y010568D01*
X018586Y010512D01*
X018482Y010409D01*
X018449Y010328D01*
X018449Y010328D01*
X018421Y010356D01*
X018387Y010376D01*
X018348Y010386D01*
X018024Y010386D01*
X018024Y009971D01*
X017924Y009971D01*
X017924Y009871D01*
X017470Y009871D01*
X017470Y009586D01*
X017480Y009548D01*
X017500Y009514D01*
X017528Y009486D01*
X017562Y009466D01*
X017600Y009456D01*
X017924Y009456D01*
X017924Y009871D01*
X018024Y009871D01*
X018024Y009456D01*
X018348Y009456D01*
X018387Y009466D01*
X018421Y009486D01*
X018449Y009514D01*
X018468Y009548D01*
X018479Y009586D01*
X018479Y009871D01*
X018024Y009871D01*
X018024Y009971D01*
X018479Y009971D01*
X018479Y010000D01*
X018482Y009991D01*
X018586Y009888D01*
X018721Y009832D01*
X018868Y009832D01*
X019003Y009888D01*
X019024Y009909D01*
X019707Y009226D01*
X019704Y009224D01*
X019704Y009101D01*
X019685Y009120D01*
X018499Y009120D01*
X018499Y009204D01*
X018399Y009304D01*
X017550Y009304D01*
X017450Y009204D01*
X017450Y008433D01*
X017550Y008334D01*
X018399Y008334D01*
X018499Y008433D01*
X018499Y008680D01*
X019063Y008680D01*
X018674Y008291D01*
X018674Y006491D01*
X018538Y006355D01*
X018390Y006355D01*
X018390Y006560D01*
X018291Y006659D01*
X017520Y006659D01*
X017421Y006560D01*
X017421Y005710D01*
X017520Y005611D01*
X018291Y005611D01*
X018390Y005710D01*
X018390Y005915D01*
X018720Y005915D01*
X018985Y006180D01*
X019114Y006309D01*
X019114Y008109D01*
X019594Y008589D01*
X019832Y008351D01*
X019704Y008224D01*
X019704Y007776D01*
X019981Y007500D01*
X019704Y007224D01*
X019704Y006776D01*
X019981Y006500D01*
X019704Y006224D01*
X019704Y005776D01*
X019981Y005500D01*
X019704Y005224D01*
X019704Y004776D01*
X019995Y004486D01*
X019724Y004215D01*
X019724Y004050D01*
X020194Y004050D01*
X020194Y003950D01*
X019724Y003950D01*
X019724Y003785D01*
X020029Y003480D01*
X020194Y003480D01*
X020194Y003950D01*
X020294Y003950D01*
X020294Y003480D01*
X020460Y003480D01*
X020744Y003765D01*
X021029Y003480D01*
X021194Y003480D01*
X021194Y003950D01*
X020724Y003950D01*
X020294Y003950D01*
X020294Y004050D01*
X021194Y004050D01*
X021194Y003950D01*
X021294Y003950D01*
X021294Y003480D01*
X021460Y003480D01*
X021764Y003785D01*
X021764Y003950D01*
X021294Y003950D01*
X021294Y004050D01*
X021764Y004050D01*
X021764Y004215D01*
X021494Y004486D01*
X021897Y004486D01*
X021897Y004388D02*
X021592Y004388D01*
X021494Y004486D02*
X021784Y004776D01*
X021784Y005224D01*
X021508Y005500D01*
X021784Y005776D01*
X021784Y006224D01*
X021508Y006500D01*
X021784Y006776D01*
X021784Y007224D01*
X021508Y007500D01*
X021784Y007776D01*
X021784Y008224D01*
X021707Y008301D01*
X021814Y008409D01*
X021897Y008492D01*
X021897Y003017D01*
X019077Y003017D01*
X019071Y003023D01*
X019071Y003094D01*
X018968Y003273D01*
X018968Y003273D01*
X018968Y003273D01*
X018788Y003377D01*
X016742Y003377D01*
X016600Y003295D01*
X016600Y003295D01*
X016600Y003295D01*
X016517Y003152D01*
X016517Y003075D01*
X016513Y003052D01*
X016517Y003026D01*
X016517Y003023D01*
X016494Y003000D01*
X014610Y003000D01*
X014662Y003127D01*
X014662Y003273D01*
X014621Y003373D01*
X014721Y003332D01*
X014868Y003332D01*
X015003Y003388D01*
X015106Y003491D01*
X015162Y003627D01*
X015162Y003773D01*
X015106Y003909D01*
X015024Y003991D01*
X015024Y004909D01*
X015085Y004970D01*
X015108Y004970D01*
X015108Y004968D01*
X015208Y004868D01*
X015821Y004868D01*
X015921Y004968D01*
X015921Y005424D01*
X015821Y005523D01*
X015208Y005523D01*
X015115Y005430D01*
X015085Y005430D01*
X015003Y005512D01*
X014868Y005568D01*
X014721Y005568D01*
X014624Y005528D01*
X014624Y006395D01*
X014550Y006470D01*
X015390Y006470D01*
X015524Y006605D01*
X015590Y006670D01*
X015724Y006805D01*
X015724Y007108D01*
X015811Y007108D01*
X015911Y007208D01*
X015911Y007664D01*
X015811Y007763D01*
X015198Y007763D01*
X015098Y007664D01*
X015098Y007208D01*
X015198Y007108D01*
X015264Y007108D01*
X015264Y006995D01*
X015199Y006930D01*
X014285Y006930D01*
X014203Y007012D01*
X014068Y007068D01*
X013921Y007068D01*
X013786Y007012D01*
X013682Y006909D01*
X013628Y006777D01*
X013599Y006806D01*
X013599Y007113D01*
X013686Y007113D01*
X013786Y007213D01*
X013786Y007220D01*
X013900Y007220D01*
X014034Y007355D01*
X014224Y007545D01*
X014224Y008305D01*
X014290Y008370D01*
X015098Y008370D01*
X015098Y007916D01*
X015198Y007817D01*
X015811Y007817D01*
X015904Y007910D01*
X016403Y007910D01*
X016313Y007820D01*
X016313Y006970D01*
X016413Y006871D01*
X016568Y006871D01*
X016568Y006659D01*
X016418Y006659D01*
X016318Y006560D01*
X016318Y006365D01*
X015650Y006365D01*
X015517Y006232D01*
X015208Y006232D01*
X015108Y006132D01*
X015108Y005676D01*
X015208Y005577D01*
X015821Y005577D01*
X015921Y005676D01*
X015921Y005905D01*
X016318Y005905D01*
X016318Y005710D01*
X016418Y005611D01*
X016564Y005611D01*
X016564Y005451D01*
X016482Y005369D01*
X016426Y005233D01*
X016426Y005087D01*
X016482Y004951D01*
X016586Y004848D01*
X016721Y004792D01*
X016868Y004792D01*
X017003Y004848D01*
X017106Y004951D01*
X017162Y005087D01*
X017162Y005233D01*
X017106Y005369D01*
X017024Y005451D01*
X017024Y005611D01*
X017189Y005611D01*
X017288Y005710D01*
X017288Y006560D01*
X017189Y006659D01*
X017028Y006659D01*
X017028Y006871D01*
X017184Y006871D01*
X017283Y006970D01*
X017283Y007820D01*
X017184Y007919D01*
X017028Y007919D01*
X017028Y007951D01*
X016744Y008235D01*
X016610Y008370D01*
X015911Y008370D01*
X015911Y008372D01*
X015811Y008472D01*
X015691Y008472D01*
X015724Y008505D01*
X016568Y009348D01*
X016568Y010569D01*
X018393Y010569D01*
X018394Y010569D01*
X018493Y010569D01*
X018584Y010607D01*
X018654Y010677D01*
X018692Y010768D01*
X018692Y012452D01*
X019303Y013063D01*
X019303Y012760D02*
X019000Y012760D01*
X018902Y012662D02*
X019303Y012662D01*
X019303Y012563D02*
X018803Y012563D01*
X018705Y012465D02*
X019303Y012465D01*
X019303Y012366D02*
X018692Y012366D01*
X018692Y012268D02*
X019366Y012268D01*
X019564Y012169D02*
X018692Y012169D01*
X018692Y012071D02*
X019564Y012071D01*
X019564Y011972D02*
X018692Y011972D01*
X018692Y011874D02*
X019620Y011874D01*
X019718Y011775D02*
X018692Y011775D01*
X018692Y011677D02*
X019817Y011677D01*
X019915Y011578D02*
X018692Y011578D01*
X018692Y011480D02*
X020014Y011480D01*
X020112Y011381D02*
X018692Y011381D01*
X018692Y011283D02*
X020211Y011283D01*
X020344Y011460D02*
X020734Y011460D01*
X021764Y010430D01*
X021764Y008670D01*
X021594Y008500D01*
X020744Y008500D01*
X020244Y008000D01*
X020244Y008250D01*
X019594Y008900D01*
X018894Y008200D01*
X018894Y006400D01*
X018629Y006135D01*
X017905Y006135D01*
X017421Y006161D02*
X017288Y006161D01*
X017288Y006259D02*
X017421Y006259D01*
X017421Y006358D02*
X017288Y006358D01*
X017288Y006456D02*
X017421Y006456D01*
X017421Y006555D02*
X017288Y006555D01*
X017195Y006653D02*
X017514Y006653D01*
X017566Y006891D02*
X017850Y006891D01*
X017850Y007345D01*
X017436Y007345D01*
X017436Y007021D01*
X017446Y006983D01*
X017466Y006949D01*
X017261Y006949D01*
X017283Y007047D02*
X017436Y007047D01*
X017436Y007146D02*
X017283Y007146D01*
X017283Y007244D02*
X017436Y007244D01*
X017436Y007343D02*
X017283Y007343D01*
X017283Y007441D02*
X017850Y007441D01*
X017850Y007445D02*
X017850Y007345D01*
X017950Y007345D01*
X017950Y006891D01*
X018235Y006891D01*
X018273Y006901D01*
X018308Y006921D01*
X018335Y006949D01*
X018674Y006949D01*
X018674Y007047D02*
X018365Y007047D01*
X018365Y007021D02*
X018365Y007345D01*
X017950Y007345D01*
X017950Y007445D01*
X017850Y007445D01*
X017436Y007445D01*
X017436Y007769D01*
X017446Y007807D01*
X017466Y007841D01*
X017493Y007869D01*
X017528Y007889D01*
X017566Y007899D01*
X017850Y007899D01*
X017850Y007445D01*
X017850Y007540D02*
X017950Y007540D01*
X017950Y007445D02*
X017950Y007899D01*
X018235Y007899D01*
X018273Y007889D01*
X018308Y007869D01*
X018335Y007841D01*
X018355Y007807D01*
X018365Y007769D01*
X018365Y007445D01*
X017950Y007445D01*
X017950Y007441D02*
X018674Y007441D01*
X018674Y007343D02*
X018365Y007343D01*
X018365Y007244D02*
X018674Y007244D01*
X018674Y007146D02*
X018365Y007146D01*
X018365Y007021D02*
X018355Y006983D01*
X018335Y006949D01*
X018297Y006653D02*
X018674Y006653D01*
X018674Y006555D02*
X018390Y006555D01*
X018390Y006456D02*
X018639Y006456D01*
X018541Y006358D02*
X018390Y006358D01*
X018674Y006752D02*
X017028Y006752D01*
X017028Y006850D02*
X018674Y006850D01*
X019114Y006850D02*
X019704Y006850D01*
X019704Y006949D02*
X019114Y006949D01*
X019114Y007047D02*
X019704Y007047D01*
X019704Y007146D02*
X019114Y007146D01*
X019114Y007244D02*
X019725Y007244D01*
X019823Y007343D02*
X019114Y007343D01*
X019114Y007441D02*
X019922Y007441D01*
X019941Y007540D02*
X019114Y007540D01*
X019114Y007638D02*
X019843Y007638D01*
X019744Y007737D02*
X019114Y007737D01*
X019114Y007835D02*
X019704Y007835D01*
X019704Y007934D02*
X019114Y007934D01*
X019114Y008032D02*
X019704Y008032D01*
X019704Y008131D02*
X019136Y008131D01*
X019234Y008229D02*
X019710Y008229D01*
X019808Y008328D02*
X019333Y008328D01*
X019431Y008426D02*
X019757Y008426D01*
X019659Y008525D02*
X019530Y008525D01*
X019594Y008900D02*
X018055Y008900D01*
X017974Y008819D01*
X018499Y008623D02*
X019006Y008623D01*
X018908Y008525D02*
X018499Y008525D01*
X018491Y008426D02*
X018809Y008426D01*
X018711Y008328D02*
X016652Y008328D01*
X016751Y008229D02*
X018674Y008229D01*
X018674Y008131D02*
X016849Y008131D01*
X016948Y008032D02*
X018674Y008032D01*
X018674Y007934D02*
X017028Y007934D01*
X017268Y007835D02*
X017462Y007835D01*
X017436Y007737D02*
X017283Y007737D01*
X017283Y007638D02*
X017436Y007638D01*
X017436Y007540D02*
X017283Y007540D01*
X017850Y007638D02*
X017950Y007638D01*
X017950Y007737D02*
X017850Y007737D01*
X017850Y007835D02*
X017950Y007835D01*
X018339Y007835D02*
X018674Y007835D01*
X018674Y007737D02*
X018365Y007737D01*
X018365Y007638D02*
X018674Y007638D01*
X018674Y007540D02*
X018365Y007540D01*
X017950Y007343D02*
X017850Y007343D01*
X017850Y007244D02*
X017950Y007244D01*
X017950Y007146D02*
X017850Y007146D01*
X017850Y007047D02*
X017950Y007047D01*
X017950Y006949D02*
X017850Y006949D01*
X017566Y006891D02*
X017528Y006901D01*
X017493Y006921D01*
X017466Y006949D01*
X017421Y006062D02*
X017288Y006062D01*
X017288Y005964D02*
X017421Y005964D01*
X017421Y005865D02*
X017288Y005865D01*
X017288Y005767D02*
X017421Y005767D01*
X017463Y005668D02*
X017246Y005668D01*
X017024Y005570D02*
X019911Y005570D01*
X019952Y005471D02*
X017024Y005471D01*
X017102Y005373D02*
X019853Y005373D01*
X019755Y005274D02*
X017146Y005274D01*
X017162Y005176D02*
X019704Y005176D01*
X019704Y005077D02*
X017158Y005077D01*
X017118Y004979D02*
X019704Y004979D01*
X019704Y004880D02*
X017035Y004880D01*
X016554Y004880D02*
X015833Y004880D01*
X015921Y004979D02*
X016471Y004979D01*
X016430Y005077D02*
X015921Y005077D01*
X015921Y005176D02*
X016426Y005176D01*
X016443Y005274D02*
X015921Y005274D01*
X015921Y005373D02*
X016486Y005373D01*
X016564Y005471D02*
X015873Y005471D01*
X015912Y005668D02*
X016360Y005668D01*
X016318Y005767D02*
X015921Y005767D01*
X015921Y005865D02*
X016318Y005865D01*
X016564Y005570D02*
X014624Y005570D01*
X014624Y005668D02*
X015117Y005668D01*
X015108Y005767D02*
X014624Y005767D01*
X014624Y005865D02*
X015108Y005865D01*
X015108Y005964D02*
X014624Y005964D01*
X014624Y006062D02*
X015108Y006062D01*
X015136Y006161D02*
X014624Y006161D01*
X014624Y006259D02*
X015544Y006259D01*
X015642Y006358D02*
X014624Y006358D01*
X014564Y006456D02*
X016318Y006456D01*
X016318Y006555D02*
X015474Y006555D01*
X015524Y006605D02*
X015524Y006605D01*
X015573Y006653D02*
X016411Y006653D01*
X016568Y006752D02*
X015671Y006752D01*
X015724Y006850D02*
X016568Y006850D01*
X016335Y006949D02*
X015724Y006949D01*
X015724Y007047D02*
X016313Y007047D01*
X016313Y007146D02*
X015848Y007146D01*
X015911Y007244D02*
X016313Y007244D01*
X016313Y007343D02*
X015911Y007343D01*
X015911Y007441D02*
X016313Y007441D01*
X016313Y007540D02*
X015911Y007540D01*
X015911Y007638D02*
X016313Y007638D01*
X016313Y007737D02*
X015838Y007737D01*
X015829Y007835D02*
X016328Y007835D01*
X015857Y008426D02*
X017457Y008426D01*
X017450Y008525D02*
X015744Y008525D01*
X015843Y008623D02*
X017450Y008623D01*
X017450Y008722D02*
X015941Y008722D01*
X016040Y008820D02*
X017450Y008820D01*
X017450Y008919D02*
X016138Y008919D01*
X016237Y009017D02*
X017450Y009017D01*
X017450Y009116D02*
X016335Y009116D01*
X016434Y009214D02*
X017460Y009214D01*
X017505Y009510D02*
X016568Y009510D01*
X016568Y009608D02*
X017470Y009608D01*
X017470Y009707D02*
X016568Y009707D01*
X016568Y009805D02*
X017470Y009805D01*
X017470Y009971D02*
X017924Y009971D01*
X017924Y010386D01*
X017600Y010386D01*
X017562Y010376D01*
X017528Y010356D01*
X017500Y010328D01*
X017480Y010294D01*
X017470Y010256D01*
X017470Y009971D01*
X017470Y010002D02*
X016568Y010002D01*
X016568Y009904D02*
X017924Y009904D01*
X017974Y009921D02*
X017983Y009930D01*
X017983Y011200D01*
X017933Y011184D02*
X017454Y011184D01*
X017454Y011235D02*
X017552Y011332D01*
X017543Y011306D01*
X017534Y011250D01*
X017933Y011250D01*
X017933Y011150D01*
X017534Y011150D01*
X017543Y011094D01*
X017552Y011067D01*
X017438Y011067D01*
X017454Y011106D01*
X017454Y011235D01*
X017502Y011283D02*
X017540Y011283D01*
X017546Y011086D02*
X017446Y011086D01*
X017933Y011250D02*
X017933Y011649D01*
X017878Y011640D01*
X017851Y011631D01*
X017990Y011770D01*
X018010Y011770D01*
X018195Y011954D01*
X018195Y011599D01*
X018156Y011618D01*
X018089Y011640D01*
X018033Y011649D01*
X018033Y011250D01*
X017933Y011250D01*
X017933Y011283D02*
X018033Y011283D01*
X018033Y011381D02*
X017933Y011381D01*
X017933Y011480D02*
X018033Y011480D01*
X018033Y011578D02*
X017933Y011578D01*
X017896Y011677D02*
X018195Y011677D01*
X018195Y011775D02*
X018015Y011775D01*
X018114Y011874D02*
X018195Y011874D01*
X017857Y012268D02*
X017606Y012268D01*
X017608Y012169D02*
X017738Y012169D01*
X017640Y012071D02*
X017606Y012071D01*
X017565Y012366D02*
X017956Y012366D01*
X018054Y012465D02*
X017507Y012465D01*
X017409Y012563D02*
X018153Y012563D01*
X018195Y012662D02*
X012344Y012662D01*
X012414Y012563D02*
X012869Y012563D01*
X012770Y012465D02*
X012414Y012465D01*
X012414Y012366D02*
X012713Y012366D01*
X012672Y012268D02*
X012438Y012268D01*
X012536Y012169D02*
X012670Y012169D01*
X012671Y012071D02*
X012635Y012071D01*
X012308Y011775D02*
X012083Y011775D01*
X012083Y011677D02*
X012407Y011677D01*
X012344Y011578D02*
X012244Y011578D01*
X012244Y011480D02*
X012344Y011480D01*
X012344Y011381D02*
X012244Y011381D01*
X012244Y011283D02*
X012344Y011283D01*
X012210Y011874D02*
X012083Y011874D01*
X012083Y011972D02*
X012111Y011972D01*
X012245Y012760D02*
X018195Y012760D01*
X016865Y012563D02*
X016609Y012563D01*
X016708Y012465D02*
X016767Y012465D01*
X016066Y012563D02*
X015810Y012563D01*
X015909Y012465D02*
X015967Y012465D01*
X015267Y012563D02*
X015011Y012563D01*
X015110Y012465D02*
X015168Y012465D01*
X014467Y012563D02*
X014212Y012563D01*
X014310Y012465D02*
X014369Y012465D01*
X013668Y012563D02*
X013413Y012563D01*
X013511Y012465D02*
X013570Y012465D01*
X013294Y011200D02*
X013194Y011200D01*
X013626Y010495D02*
X012675Y010495D01*
X012686Y010396D02*
X013639Y010396D01*
X013680Y010298D02*
X012328Y010298D01*
X012328Y010251D02*
X012686Y010251D01*
X012686Y010102D01*
X012675Y010064D01*
X012656Y010030D01*
X012628Y010002D01*
X013171Y010002D01*
X013270Y010101D02*
X012685Y010101D01*
X012686Y010199D02*
X013775Y010199D01*
X014214Y010199D02*
X015168Y010199D01*
X015267Y010298D02*
X014309Y010298D01*
X014350Y010396D02*
X015308Y010396D01*
X015308Y010495D02*
X014362Y010495D01*
X014383Y009670D02*
X014569Y009670D01*
X014556Y009647D01*
X014546Y009609D01*
X014546Y009285D01*
X014960Y009285D01*
X014960Y009185D01*
X014546Y009185D01*
X014546Y008861D01*
X014554Y008830D01*
X014393Y008830D01*
X014393Y009660D01*
X014383Y009670D01*
X014393Y009608D02*
X014546Y009608D01*
X014546Y009510D02*
X014393Y009510D01*
X014393Y009411D02*
X014546Y009411D01*
X014546Y009313D02*
X014393Y009313D01*
X014393Y009214D02*
X014960Y009214D01*
X015060Y009214D02*
X015783Y009214D01*
X015685Y009116D02*
X015475Y009116D01*
X015475Y009185D02*
X015475Y008906D01*
X016108Y009539D01*
X016108Y010569D01*
X015768Y010569D01*
X015768Y010149D01*
X015424Y009805D01*
X015356Y009736D01*
X015383Y009729D01*
X015418Y009709D01*
X015445Y009681D01*
X015465Y009647D01*
X015475Y009609D01*
X015475Y009285D01*
X015060Y009285D01*
X015060Y009185D01*
X015475Y009185D01*
X015475Y009313D02*
X015882Y009313D01*
X015980Y009411D02*
X015475Y009411D01*
X015475Y009510D02*
X016079Y009510D01*
X016108Y009608D02*
X015475Y009608D01*
X015420Y009707D02*
X016108Y009707D01*
X016108Y009805D02*
X015425Y009805D01*
X015523Y009904D02*
X016108Y009904D01*
X016108Y010002D02*
X015622Y010002D01*
X015720Y010101D02*
X016108Y010101D01*
X016108Y010199D02*
X015768Y010199D01*
X015768Y010298D02*
X016108Y010298D01*
X016108Y010396D02*
X015768Y010396D01*
X015768Y010495D02*
X016108Y010495D01*
X016568Y010495D02*
X018568Y010495D01*
X018551Y010593D02*
X021290Y010593D01*
X021294Y010495D02*
X021194Y010495D01*
X021194Y010520D02*
X021029Y010520D01*
X020744Y010235D01*
X020460Y010520D01*
X020294Y010520D01*
X020294Y010050D01*
X021194Y010050D01*
X021194Y010520D01*
X021194Y010396D02*
X021294Y010396D01*
X021294Y010298D02*
X021194Y010298D01*
X021194Y010199D02*
X021294Y010199D01*
X021294Y010101D02*
X021194Y010101D01*
X021194Y010002D02*
X020294Y010002D01*
X020294Y010101D02*
X020194Y010101D01*
X020194Y010050D02*
X020194Y010520D01*
X020029Y010520D01*
X019724Y010215D01*
X019724Y010050D01*
X020194Y010050D01*
X020194Y010002D02*
X019553Y010002D01*
X019455Y010101D02*
X019724Y010101D01*
X019724Y010199D02*
X019356Y010199D01*
X019258Y010298D02*
X019806Y010298D01*
X019905Y010396D02*
X019159Y010396D01*
X019020Y010495D02*
X020003Y010495D01*
X020194Y010495D02*
X020294Y010495D01*
X020294Y010396D02*
X020194Y010396D01*
X020194Y010298D02*
X020294Y010298D01*
X020294Y010199D02*
X020194Y010199D01*
X020485Y010495D02*
X021003Y010495D01*
X020905Y010396D02*
X020584Y010396D01*
X020682Y010298D02*
X020806Y010298D01*
X021192Y010692D02*
X018661Y010692D01*
X018692Y010790D02*
X021093Y010790D01*
X020995Y010889D02*
X018692Y010889D01*
X018692Y010987D02*
X020896Y010987D01*
X020798Y011086D02*
X018692Y011086D01*
X018692Y011184D02*
X020699Y011184D01*
X021026Y011480D02*
X021897Y011480D01*
X021897Y011578D02*
X020927Y011578D01*
X020829Y011677D02*
X021897Y011677D01*
X021897Y011775D02*
X020340Y011775D01*
X020242Y011874D02*
X021897Y011874D01*
X021897Y011972D02*
X020143Y011972D01*
X020045Y012071D02*
X021897Y012071D01*
X021897Y012169D02*
X020004Y012169D01*
X020210Y012268D02*
X020506Y012268D01*
X020430Y012366D02*
X020273Y012366D01*
X020273Y012465D02*
X020426Y012465D01*
X020426Y012563D02*
X020273Y012563D01*
X020273Y012662D02*
X020426Y012662D01*
X020840Y012662D02*
X020940Y012662D01*
X020940Y012760D02*
X021897Y012760D01*
X021897Y012662D02*
X021355Y012662D01*
X021355Y012563D02*
X021897Y012563D01*
X021897Y012465D02*
X021355Y012465D01*
X021351Y012366D02*
X021897Y012366D01*
X021897Y012268D02*
X021275Y012268D01*
X020940Y012268D02*
X020840Y012268D01*
X020840Y012366D02*
X020940Y012366D01*
X020940Y012465D02*
X020840Y012465D01*
X020840Y012563D02*
X020940Y012563D01*
X020940Y012805D02*
X021355Y012805D01*
X021355Y013129D01*
X021345Y013167D01*
X021325Y013201D01*
X021298Y013229D01*
X021263Y013249D01*
X021225Y013259D01*
X020940Y013259D01*
X020940Y012805D01*
X020940Y012859D02*
X020840Y012859D01*
X020840Y012957D02*
X020940Y012957D01*
X020940Y013056D02*
X020840Y013056D01*
X020840Y013154D02*
X020940Y013154D01*
X020940Y013253D02*
X020840Y013253D01*
X020904Y013647D02*
X021897Y013647D01*
X021897Y013745D02*
X020951Y013745D01*
X020951Y013844D02*
X021897Y013844D01*
X021897Y013942D02*
X020951Y013942D01*
X020951Y014041D02*
X021897Y014041D01*
X021897Y014139D02*
X020951Y014139D01*
X020951Y014238D02*
X021897Y014238D01*
X021897Y014336D02*
X020922Y014336D01*
X020854Y014435D02*
X021897Y014435D01*
X021897Y014533D02*
X020854Y014533D01*
X020788Y014632D02*
X021897Y014632D01*
X021897Y014730D02*
X020690Y014730D01*
X020591Y014829D02*
X021897Y014829D01*
X021897Y014927D02*
X020493Y014927D01*
X019788Y013548D02*
X021897Y013548D01*
X021897Y013450D02*
X019690Y013450D01*
X019591Y013351D02*
X021897Y013351D01*
X021897Y013253D02*
X021251Y013253D01*
X021349Y013154D02*
X021897Y013154D01*
X021897Y013056D02*
X021355Y013056D01*
X021355Y012957D02*
X021897Y012957D01*
X021897Y012859D02*
X021355Y012859D01*
X021124Y011381D02*
X021897Y011381D01*
X021897Y011283D02*
X021223Y011283D01*
X021321Y011184D02*
X021897Y011184D01*
X021897Y011086D02*
X021420Y011086D01*
X021518Y010987D02*
X021897Y010987D01*
X021897Y010889D02*
X021617Y010889D01*
X021715Y010790D02*
X021897Y010790D01*
X021897Y010692D02*
X021814Y010692D01*
X020344Y011460D02*
X019784Y012020D01*
X019784Y012751D01*
X019788Y012755D01*
X018477Y010396D02*
X016568Y010396D01*
X016568Y010298D02*
X017482Y010298D01*
X017470Y010199D02*
X016568Y010199D01*
X016568Y010101D02*
X017470Y010101D01*
X017924Y010101D02*
X018024Y010101D01*
X018024Y010199D02*
X017924Y010199D01*
X017924Y010298D02*
X018024Y010298D01*
X018024Y010002D02*
X017924Y010002D01*
X018024Y009904D02*
X018570Y009904D01*
X018479Y009805D02*
X019128Y009805D01*
X019030Y009904D02*
X019018Y009904D01*
X019227Y009707D02*
X018479Y009707D01*
X018479Y009608D02*
X019325Y009608D01*
X019424Y009510D02*
X018444Y009510D01*
X018489Y009214D02*
X019704Y009214D01*
X019690Y009116D02*
X019704Y009116D01*
X019621Y009313D02*
X016532Y009313D01*
X016568Y009411D02*
X019522Y009411D01*
X019652Y009904D02*
X019724Y009904D01*
X019044Y010200D02*
X020244Y009000D01*
X019044Y010200D02*
X018794Y010200D01*
X018024Y009805D02*
X017924Y009805D01*
X017924Y009707D02*
X018024Y009707D01*
X018024Y009608D02*
X017924Y009608D01*
X017924Y009510D02*
X018024Y009510D01*
X015586Y009017D02*
X015475Y009017D01*
X015475Y008919D02*
X015488Y008919D01*
X015098Y008328D02*
X014247Y008328D01*
X014224Y008229D02*
X015098Y008229D01*
X015098Y008131D02*
X014224Y008131D01*
X014224Y008032D02*
X015098Y008032D01*
X015098Y007934D02*
X014224Y007934D01*
X014224Y007835D02*
X015180Y007835D01*
X015171Y007737D02*
X014224Y007737D01*
X014224Y007638D02*
X015098Y007638D01*
X015098Y007540D02*
X014219Y007540D01*
X014121Y007441D02*
X015098Y007441D01*
X015098Y007343D02*
X014022Y007343D01*
X013924Y007244D02*
X015098Y007244D01*
X015160Y007146D02*
X013718Y007146D01*
X013599Y007047D02*
X013870Y007047D01*
X013722Y006949D02*
X013599Y006949D01*
X013599Y006850D02*
X013658Y006850D01*
X013379Y006715D02*
X014094Y006000D01*
X014094Y004900D01*
X013694Y004500D01*
X012494Y004500D01*
X011694Y005300D01*
X011694Y008500D01*
X010994Y009200D01*
X010994Y011300D01*
X010594Y011700D01*
X010732Y011874D02*
X010830Y011874D01*
X010830Y011775D02*
X010928Y011775D01*
X010929Y011677D02*
X011027Y011677D01*
X011027Y011578D02*
X011034Y011578D01*
X011254Y011760D02*
X010814Y012200D01*
X010594Y012200D01*
X010591Y012203D01*
X010005Y012203D01*
X010438Y011972D02*
X010731Y011972D01*
X011058Y012268D02*
X011216Y012268D01*
X011274Y012169D02*
X011156Y012169D01*
X011255Y012071D02*
X011274Y012071D01*
X011254Y011760D02*
X011254Y009540D01*
X011994Y008800D01*
X011994Y005500D01*
X012694Y004800D01*
X013294Y004800D01*
X013394Y004900D01*
X013394Y005211D01*
X013384Y005221D01*
X013991Y004486D02*
X014064Y004486D01*
X014064Y004388D02*
X013893Y004388D01*
X013794Y004289D02*
X014064Y004289D01*
X014064Y004191D02*
X009784Y004191D01*
X009784Y004289D02*
X012394Y004289D01*
X012296Y004388D02*
X009784Y004388D01*
X009784Y004486D02*
X012197Y004486D01*
X012099Y004585D02*
X009784Y004585D01*
X009784Y004683D02*
X012000Y004683D01*
X011902Y004782D02*
X009784Y004782D01*
X009784Y004880D02*
X011803Y004880D01*
X011705Y004979D02*
X009784Y004979D01*
X009784Y005077D02*
X011606Y005077D01*
X011508Y005176D02*
X009784Y005176D01*
X009784Y005274D02*
X011474Y005274D01*
X010646Y005373D02*
X009784Y005373D01*
X009784Y005471D02*
X010595Y005471D01*
X010595Y005570D02*
X009784Y005570D01*
X009737Y005668D02*
X010595Y005668D01*
X010595Y005767D02*
X009639Y005767D01*
X009540Y005865D02*
X010595Y005865D01*
X010595Y005964D02*
X009442Y005964D01*
X009483Y006062D02*
X009343Y006062D01*
X009314Y006161D02*
X009481Y006161D01*
X009481Y006259D02*
X009314Y006259D01*
X009314Y006358D02*
X009496Y006358D01*
X009593Y006494D02*
X009559Y006514D01*
X009531Y006542D01*
X009511Y006576D01*
X009501Y006614D01*
X009501Y006703D01*
X009501Y006792D01*
X009511Y006830D01*
X009531Y006864D01*
X009559Y006892D01*
X009593Y006912D01*
X009631Y006922D01*
X010005Y006922D01*
X010005Y006703D01*
X010005Y006703D01*
X009501Y006703D01*
X010005Y006703D01*
X010005Y006703D01*
X010005Y006703D01*
X010005Y006484D01*
X009631Y006484D01*
X009593Y006494D01*
X009524Y006555D02*
X009314Y006555D01*
X009314Y006653D02*
X009501Y006653D01*
X009501Y006752D02*
X009314Y006752D01*
X009314Y006850D02*
X009523Y006850D01*
X009581Y006964D02*
X010430Y006964D01*
X010530Y007064D01*
X010530Y007342D01*
X010430Y007442D01*
X009581Y007442D01*
X009481Y007342D01*
X009481Y007064D01*
X009581Y006964D01*
X009498Y007047D02*
X009314Y007047D01*
X009314Y006949D02*
X011069Y006949D01*
X011069Y006961D02*
X010615Y006961D01*
X010615Y007246D01*
X010625Y007284D01*
X010645Y007318D01*
X010673Y007346D01*
X010707Y007366D01*
X010745Y007376D01*
X011069Y007376D01*
X011069Y006961D01*
X011069Y007047D02*
X011169Y007047D01*
X011169Y007146D02*
X011069Y007146D01*
X011069Y007244D02*
X011169Y007244D01*
X011169Y007343D02*
X011069Y007343D01*
X010859Y007540D02*
X011474Y007540D01*
X011474Y007638D02*
X010958Y007638D01*
X011051Y007732D02*
X011168Y007732D01*
X011303Y007788D01*
X011406Y007891D01*
X011462Y008027D01*
X011462Y008173D01*
X011406Y008309D01*
X011303Y008412D01*
X011168Y008468D01*
X011021Y008468D01*
X010886Y008412D01*
X010782Y008309D01*
X010726Y008173D01*
X010726Y008057D01*
X010602Y007933D01*
X010439Y007933D01*
X010430Y007942D01*
X009581Y007942D01*
X009481Y007842D01*
X009481Y007564D01*
X009581Y007464D01*
X010430Y007464D01*
X010439Y007473D01*
X010792Y007473D01*
X011051Y007732D01*
X011179Y007737D02*
X011474Y007737D01*
X011474Y007835D02*
X011350Y007835D01*
X011424Y007934D02*
X011474Y007934D01*
X011462Y008032D02*
X011474Y008032D01*
X011462Y008131D02*
X011474Y008131D01*
X011474Y008229D02*
X011439Y008229D01*
X011474Y008328D02*
X011387Y008328D01*
X011457Y008426D02*
X011269Y008426D01*
X011359Y008525D02*
X010491Y008525D01*
X010430Y008442D02*
X010530Y008342D01*
X010530Y008064D01*
X010430Y007964D01*
X009581Y007964D01*
X009481Y008064D01*
X009481Y008342D01*
X009581Y008442D01*
X010430Y008442D01*
X010446Y008426D02*
X010920Y008426D01*
X010801Y008328D02*
X010530Y008328D01*
X010530Y008229D02*
X010749Y008229D01*
X010726Y008131D02*
X010530Y008131D01*
X010498Y008032D02*
X010701Y008032D01*
X010603Y007934D02*
X010438Y007934D01*
X010431Y007441D02*
X011474Y007441D01*
X011169Y006850D02*
X011069Y006850D01*
X011069Y006752D02*
X011169Y006752D01*
X011169Y006653D02*
X011069Y006653D01*
X011069Y006555D02*
X011169Y006555D01*
X011169Y006456D02*
X011069Y006456D01*
X010962Y006358D02*
X011474Y006358D01*
X010709Y006456D02*
X009314Y006456D01*
X009314Y007146D02*
X009481Y007146D01*
X009481Y007244D02*
X009314Y007244D01*
X009314Y007343D02*
X009481Y007343D01*
X009580Y007441D02*
X009314Y007441D01*
X009314Y007540D02*
X009505Y007540D01*
X009481Y007638D02*
X009314Y007638D01*
X009314Y007737D02*
X009481Y007737D01*
X009481Y007835D02*
X009314Y007835D01*
X009314Y007934D02*
X009572Y007934D01*
X009513Y008032D02*
X009314Y008032D01*
X009314Y008131D02*
X009481Y008131D01*
X009481Y008229D02*
X009314Y008229D01*
X009314Y008328D02*
X009481Y008328D01*
X009565Y008426D02*
X009314Y008426D01*
X008574Y008032D02*
X008524Y008032D01*
X008524Y007934D02*
X008574Y007934D01*
X008574Y007835D02*
X008524Y007835D01*
X008524Y007737D02*
X008574Y007737D01*
X008574Y007638D02*
X008524Y007638D01*
X008524Y007540D02*
X008574Y007540D01*
X008574Y007441D02*
X008524Y007441D01*
X008524Y007343D02*
X008574Y007343D01*
X008574Y007244D02*
X008464Y007244D01*
X008365Y007146D02*
X008574Y007146D01*
X008574Y007047D02*
X008267Y007047D01*
X008168Y006949D02*
X008574Y006949D01*
X008574Y006850D02*
X008070Y006850D01*
X007971Y006752D02*
X008574Y006752D01*
X008574Y006653D02*
X007962Y006653D01*
X007932Y006555D02*
X008574Y006555D01*
X008574Y006456D02*
X007871Y006456D01*
X007729Y006358D02*
X008574Y006358D01*
X008574Y006259D02*
X007546Y006259D01*
X007459Y006358D02*
X007448Y006358D01*
X007645Y006161D02*
X008574Y006161D01*
X008574Y006062D02*
X007743Y006062D01*
X007842Y005964D02*
X008547Y005964D01*
X008448Y005865D02*
X007940Y005865D01*
X008039Y005767D02*
X008374Y005767D01*
X008374Y005668D02*
X008137Y005668D01*
X008236Y005570D02*
X008374Y005570D01*
X008374Y005471D02*
X008334Y005471D01*
X009094Y005400D02*
X009094Y004609D01*
X009109Y004595D01*
X009697Y004092D02*
X014064Y004092D01*
X014064Y003994D02*
X009599Y003994D01*
X009500Y003895D02*
X014064Y003895D01*
X014064Y003797D02*
X009402Y003797D01*
X009303Y003698D02*
X014064Y003698D01*
X013980Y003403D02*
X012556Y003403D01*
X012667Y003304D02*
X013939Y003304D01*
X013926Y003206D02*
X012726Y003206D01*
X012704Y003271D02*
X012704Y003271D01*
X012787Y003107D02*
X013934Y003107D01*
X013975Y003009D02*
X012886Y003009D01*
X012329Y003458D02*
X012329Y003458D01*
X014650Y003304D02*
X016616Y003304D01*
X016548Y003206D02*
X014662Y003206D01*
X014654Y003107D02*
X016517Y003107D01*
X016503Y003009D02*
X014613Y003009D01*
X015017Y003403D02*
X021897Y003403D01*
X021897Y003501D02*
X021481Y003501D01*
X021579Y003600D02*
X021897Y003600D01*
X021897Y003698D02*
X021678Y003698D01*
X021764Y003797D02*
X021897Y003797D01*
X021897Y003895D02*
X021764Y003895D01*
X021897Y003994D02*
X021294Y003994D01*
X021294Y003895D02*
X021194Y003895D01*
X021194Y003797D02*
X021294Y003797D01*
X021294Y003698D02*
X021194Y003698D01*
X021194Y003600D02*
X021294Y003600D01*
X021294Y003501D02*
X021194Y003501D01*
X021008Y003501D02*
X020481Y003501D01*
X020579Y003600D02*
X020909Y003600D01*
X020811Y003698D02*
X020678Y003698D01*
X020294Y003698D02*
X020194Y003698D01*
X020194Y003600D02*
X020294Y003600D01*
X020294Y003501D02*
X020194Y003501D01*
X020008Y003501D02*
X015110Y003501D01*
X015151Y003600D02*
X019909Y003600D01*
X019811Y003698D02*
X015162Y003698D01*
X015153Y003797D02*
X019724Y003797D01*
X019724Y003895D02*
X015112Y003895D01*
X015024Y003994D02*
X020194Y003994D01*
X020194Y003895D02*
X020294Y003895D01*
X020294Y003797D02*
X020194Y003797D01*
X020294Y003994D02*
X021194Y003994D01*
X021691Y004289D02*
X021897Y004289D01*
X021897Y004191D02*
X021764Y004191D01*
X021764Y004092D02*
X021897Y004092D01*
X021897Y004585D02*
X021593Y004585D01*
X021691Y004683D02*
X021897Y004683D01*
X021897Y004782D02*
X021784Y004782D01*
X021784Y004880D02*
X021897Y004880D01*
X021897Y004979D02*
X021784Y004979D01*
X021784Y005077D02*
X021897Y005077D01*
X021897Y005176D02*
X021784Y005176D01*
X021734Y005274D02*
X021897Y005274D01*
X021897Y005373D02*
X021635Y005373D01*
X021537Y005471D02*
X021897Y005471D01*
X021897Y005570D02*
X021578Y005570D01*
X021676Y005668D02*
X021897Y005668D01*
X021897Y005767D02*
X021775Y005767D01*
X021784Y005865D02*
X021897Y005865D01*
X021897Y005964D02*
X021784Y005964D01*
X021784Y006062D02*
X021897Y006062D01*
X021897Y006161D02*
X021784Y006161D01*
X021749Y006259D02*
X021897Y006259D01*
X021897Y006358D02*
X021650Y006358D01*
X021552Y006456D02*
X021897Y006456D01*
X021897Y006555D02*
X021563Y006555D01*
X021661Y006653D02*
X021897Y006653D01*
X021897Y006752D02*
X021760Y006752D01*
X021784Y006850D02*
X021897Y006850D01*
X021897Y006949D02*
X021784Y006949D01*
X021784Y007047D02*
X021897Y007047D01*
X021897Y007146D02*
X021784Y007146D01*
X021764Y007244D02*
X021897Y007244D01*
X021897Y007343D02*
X021665Y007343D01*
X021567Y007441D02*
X021897Y007441D01*
X021897Y007540D02*
X021548Y007540D01*
X021646Y007638D02*
X021897Y007638D01*
X021897Y007737D02*
X021745Y007737D01*
X021784Y007835D02*
X021897Y007835D01*
X021897Y007934D02*
X021784Y007934D01*
X021784Y008032D02*
X021897Y008032D01*
X021897Y008131D02*
X021784Y008131D01*
X021779Y008229D02*
X021897Y008229D01*
X021897Y008328D02*
X021733Y008328D01*
X021831Y008426D02*
X021897Y008426D01*
X019926Y006555D02*
X019114Y006555D01*
X019114Y006653D02*
X019828Y006653D01*
X019729Y006752D02*
X019114Y006752D01*
X019114Y006456D02*
X019937Y006456D01*
X019838Y006358D02*
X019114Y006358D01*
X019064Y006259D02*
X019740Y006259D01*
X019704Y006161D02*
X018966Y006161D01*
X018867Y006062D02*
X019704Y006062D01*
X019704Y005964D02*
X018769Y005964D01*
X018390Y005865D02*
X019704Y005865D01*
X019714Y005767D02*
X018390Y005767D01*
X018348Y005668D02*
X019813Y005668D01*
X019704Y004782D02*
X015024Y004782D01*
X015024Y004880D02*
X015196Y004880D01*
X015024Y004683D02*
X019798Y004683D01*
X019896Y004585D02*
X015024Y004585D01*
X015024Y004486D02*
X019995Y004486D01*
X019896Y004388D02*
X015024Y004388D01*
X015024Y004289D02*
X019798Y004289D01*
X019724Y004191D02*
X015024Y004191D01*
X015024Y004092D02*
X019724Y004092D01*
X018914Y003304D02*
X021897Y003304D01*
X021897Y003206D02*
X019007Y003206D01*
X019063Y003107D02*
X021897Y003107D01*
X015590Y006670D02*
X015590Y006670D01*
X015264Y007047D02*
X014118Y007047D01*
X014266Y006949D02*
X015218Y006949D01*
X015156Y005471D02*
X015044Y005471D01*
X013379Y006715D02*
X013379Y007441D01*
X012395Y008426D02*
X012214Y008426D01*
X012214Y008328D02*
X012297Y008328D01*
X012214Y008525D02*
X012494Y008525D01*
X012592Y008623D02*
X012214Y008623D01*
X012214Y008722D02*
X012691Y008722D01*
X012789Y008820D02*
X012214Y008820D01*
X012187Y008919D02*
X012864Y008919D01*
X012864Y009017D02*
X012088Y009017D01*
X011990Y009116D02*
X012864Y009116D01*
X012864Y009214D02*
X011891Y009214D01*
X011923Y009313D02*
X011793Y009313D01*
X011772Y009411D02*
X011694Y009411D01*
X011674Y009510D02*
X011596Y009510D01*
X011575Y009608D02*
X011497Y009608D01*
X011474Y009707D02*
X011477Y009707D01*
X011714Y010396D02*
X011913Y010396D01*
X011923Y010495D02*
X011714Y010495D01*
X011714Y010593D02*
X011727Y010593D01*
X012271Y010199D02*
X012328Y010199D01*
X012328Y010251D02*
X012328Y009972D01*
X012555Y009972D01*
X012593Y009982D01*
X012628Y010002D01*
X012328Y010002D02*
X012271Y010002D01*
X012271Y010101D02*
X012328Y010101D01*
X012706Y009510D02*
X012864Y009510D01*
X012864Y009411D02*
X012706Y009411D01*
X012675Y009313D02*
X012864Y009313D01*
X014393Y009116D02*
X014546Y009116D01*
X014546Y009017D02*
X014393Y009017D01*
X014393Y008919D02*
X014546Y008919D01*
X011260Y008623D02*
X010530Y008623D01*
X010530Y008722D02*
X011162Y008722D01*
X011063Y008820D02*
X010530Y008820D01*
X010529Y007343D02*
X010669Y007343D01*
X010615Y007244D02*
X010530Y007244D01*
X010530Y007146D02*
X010615Y007146D01*
X010615Y007047D02*
X010513Y007047D01*
X010418Y006912D02*
X010379Y006922D01*
X010005Y006922D01*
X010005Y006703D01*
X010005Y006484D01*
X010379Y006484D01*
X010418Y006494D01*
X010452Y006514D01*
X010480Y006542D01*
X010499Y006576D01*
X010510Y006614D01*
X010510Y006703D01*
X010510Y006792D01*
X010499Y006830D01*
X010480Y006864D01*
X010452Y006892D01*
X010418Y006912D01*
X010488Y006850D02*
X010615Y006850D01*
X010615Y006752D02*
X010510Y006752D01*
X010510Y006703D02*
X010005Y006703D01*
X010005Y006703D01*
X010510Y006703D01*
X010510Y006653D02*
X010615Y006653D01*
X010621Y006555D02*
X010487Y006555D01*
X010005Y006555D02*
X010005Y006555D01*
X010005Y006653D02*
X010005Y006653D01*
X010005Y006752D02*
X010005Y006752D01*
X010005Y006850D02*
X010005Y006850D01*
X006985Y009411D02*
X006718Y009411D01*
X006803Y009313D02*
X006886Y009313D01*
X006843Y009214D02*
X006809Y009214D01*
X006809Y009116D02*
X006826Y009116D01*
X006786Y009017D02*
X006754Y009017D01*
X006305Y009017D02*
X006305Y009017D01*
X006305Y009116D02*
X006305Y009116D01*
X006305Y009214D02*
X006305Y009214D01*
X006305Y009313D02*
X006305Y009313D01*
X006305Y009411D02*
X006305Y009411D01*
X006305Y009510D02*
X006305Y009510D01*
X006305Y009608D02*
X006305Y009608D01*
X006305Y009707D02*
X006305Y009707D01*
X006305Y009805D02*
X006305Y009805D01*
X006305Y009904D02*
X006305Y009904D01*
X005364Y009805D02*
X004764Y009805D01*
X004686Y009707D02*
X005364Y009707D01*
X005364Y009608D02*
X004588Y009608D01*
X004498Y009510D02*
X005364Y009510D01*
X005364Y009411D02*
X004597Y009411D01*
X004695Y009313D02*
X004887Y009313D01*
X005094Y009000D02*
X004244Y009000D01*
X005302Y009313D02*
X005364Y009313D01*
X004294Y010199D02*
X004194Y010199D01*
X004194Y010298D02*
X004294Y010298D01*
X004294Y010396D02*
X004194Y010396D01*
X004194Y010495D02*
X004294Y010495D01*
X004003Y010495D02*
X003485Y010495D01*
X003584Y010396D02*
X003905Y010396D01*
X003806Y010298D02*
X003682Y010298D01*
X002905Y010396D02*
X002741Y010396D01*
X002741Y010298D02*
X002806Y010298D01*
X004690Y011775D02*
X005364Y011775D01*
X005364Y011874D02*
X004695Y011874D01*
X004695Y011972D02*
X005364Y011972D01*
X005824Y011480D02*
X005864Y011480D01*
X005847Y011381D02*
X005824Y011381D01*
X005833Y010987D02*
X005919Y010987D01*
X006305Y010987D02*
X006305Y010987D01*
X006305Y011086D02*
X006305Y011086D01*
X006305Y011184D02*
X006305Y011184D01*
X006305Y011283D02*
X006305Y011283D01*
X006305Y011381D02*
X006305Y011381D01*
X006730Y012465D02*
X007038Y012465D01*
X007664Y013056D02*
X002741Y013056D01*
X002741Y013154D02*
X006168Y013154D01*
X006021Y013253D02*
X002741Y013253D01*
X003058Y013351D02*
X003158Y013351D01*
X003158Y013450D02*
X003058Y013450D01*
X003058Y013548D02*
X003158Y013548D01*
X003158Y013647D02*
X003058Y013647D01*
X003058Y013745D02*
X003158Y013745D01*
X003158Y013844D02*
X003726Y013844D01*
X003726Y013942D02*
X003573Y013942D01*
X003573Y014041D02*
X003726Y014041D01*
X003726Y014139D02*
X003573Y014139D01*
X003567Y014238D02*
X003726Y014238D01*
X003797Y014336D02*
X003474Y014336D01*
X003563Y014435D02*
X003726Y014435D01*
X003726Y014533D02*
X003573Y014533D01*
X003573Y014632D02*
X003726Y014632D01*
X003726Y014730D02*
X003573Y014730D01*
X003573Y014895D02*
X003573Y015219D01*
X003563Y015257D01*
X003543Y015291D01*
X003515Y015319D01*
X003481Y015339D01*
X003443Y015349D01*
X003158Y015349D01*
X003158Y014895D01*
X003573Y014895D01*
X003573Y014927D02*
X003726Y014927D01*
X003726Y014829D02*
X003158Y014829D01*
X003158Y014927D02*
X003058Y014927D01*
X003058Y015026D02*
X003158Y015026D01*
X003158Y015124D02*
X003058Y015124D01*
X003058Y015223D02*
X003158Y015223D01*
X003158Y015321D02*
X003058Y015321D01*
X002741Y015420D02*
X004489Y015420D01*
X004587Y015518D02*
X002741Y015518D01*
X002741Y015617D02*
X004686Y015617D01*
X004784Y015715D02*
X002741Y015715D01*
X002741Y015814D02*
X004883Y015814D01*
X005041Y015321D02*
X009218Y015321D01*
X008990Y015223D02*
X007618Y015223D01*
X007687Y015124D02*
X008922Y015124D01*
X008922Y015026D02*
X008670Y015026D01*
X008318Y015026D02*
X007687Y015026D01*
X007687Y014927D02*
X008201Y014927D01*
X008149Y014829D02*
X007687Y014829D01*
X007687Y014730D02*
X008126Y014730D01*
X008126Y014632D02*
X007687Y014632D01*
X007687Y014533D02*
X008165Y014533D01*
X008239Y014435D02*
X007687Y014435D01*
X007687Y014336D02*
X008411Y014336D01*
X008578Y014336D02*
X008922Y014336D01*
X008922Y014238D02*
X007687Y014238D01*
X007600Y014139D02*
X009009Y014139D01*
X008922Y014435D02*
X008749Y014435D01*
X008116Y013647D02*
X006632Y013647D01*
X006662Y013548D02*
X008017Y013548D01*
X007919Y013450D02*
X006662Y013450D01*
X006631Y013351D02*
X007820Y013351D01*
X007722Y013253D02*
X006567Y013253D01*
X006421Y013154D02*
X007664Y013154D01*
X008294Y012800D02*
X008494Y013000D01*
X008142Y012465D02*
X008124Y012465D01*
X010431Y012465D02*
X011019Y012465D01*
X010959Y012366D02*
X011117Y012366D01*
X011585Y015912D02*
X002741Y015912D01*
X002741Y016011D02*
X011585Y016011D01*
X011585Y016109D02*
X002741Y016109D01*
X002741Y016208D02*
X011585Y016208D01*
X011585Y016306D02*
X002741Y016306D01*
X002741Y016405D02*
X011585Y016405D01*
X011585Y016503D02*
X002741Y016503D01*
X002741Y016602D02*
X011585Y016602D01*
X011585Y016700D02*
X002741Y016700D01*
X002741Y016799D02*
X011585Y016799D01*
X011585Y016897D02*
X002741Y016897D01*
X002741Y016996D02*
X011585Y016996D01*
X011585Y017094D02*
X002741Y017094D01*
X002741Y017193D02*
X011585Y017193D01*
X011585Y017291D02*
X004046Y017291D01*
X003843Y017291D02*
X002741Y017291D01*
X002741Y017390D02*
X003416Y017390D01*
X003504Y017345D02*
X003504Y017345D01*
X003223Y017488D02*
X002741Y017488D01*
X002741Y017587D02*
X003067Y017587D01*
X003107Y017547D02*
X003107Y017547D01*
X002969Y017685D02*
X002741Y017685D01*
X002741Y017784D02*
X002870Y017784D01*
X002791Y017862D02*
X002791Y017862D01*
X002781Y017882D02*
X002741Y017882D01*
X004385Y017345D02*
X004385Y017345D01*
X004473Y017390D02*
X011528Y017390D01*
X011448Y017488D02*
X004666Y017488D01*
X004782Y017547D02*
X004782Y017547D01*
X004821Y017587D02*
X011397Y017587D01*
X011367Y017685D02*
X004920Y017685D01*
X005018Y017784D02*
X011585Y017784D01*
X011357Y017882D02*
X005107Y017882D01*
X005157Y017981D02*
X011375Y017981D01*
X011412Y018079D02*
X005208Y018079D01*
X005258Y018178D02*
X011471Y018178D01*
X011559Y018276D02*
X005302Y018276D01*
X005300Y018260D02*
X005300Y018260D01*
X005318Y018375D02*
X011585Y018375D01*
X011585Y018473D02*
X005333Y018473D01*
X005349Y018572D02*
X011191Y018572D01*
X011128Y018670D02*
X005365Y018670D01*
X005358Y018769D02*
X011114Y018769D01*
X011114Y018867D02*
X005343Y018867D01*
X005327Y018966D02*
X011114Y018966D01*
X011114Y019064D02*
X005312Y019064D01*
X005300Y019140D02*
X005300Y019140D01*
X005288Y019163D02*
X011114Y019163D01*
X011114Y019261D02*
X005238Y019261D01*
X005188Y019360D02*
X011114Y019360D01*
X011114Y019458D02*
X005138Y019458D01*
X005097Y019538D02*
X005097Y019538D01*
X005078Y019557D02*
X011114Y019557D01*
X011114Y019655D02*
X004980Y019655D01*
X004881Y019754D02*
X011114Y019754D01*
X011114Y019852D02*
X004783Y019852D01*
X004782Y019853D02*
X004782Y019853D01*
X004942Y015223D02*
X005250Y015223D01*
X005182Y015124D02*
X004844Y015124D01*
X004745Y015026D02*
X005182Y015026D01*
X005182Y014927D02*
X004695Y014927D01*
X004695Y014829D02*
X005182Y014829D01*
X005182Y014730D02*
X004695Y014730D01*
X004695Y014632D02*
X005182Y014632D01*
X005182Y014533D02*
X004695Y014533D01*
X004695Y014435D02*
X005182Y014435D01*
X005182Y014336D02*
X004624Y014336D01*
X004695Y014238D02*
X005182Y014238D01*
X005268Y014139D02*
X004695Y014139D01*
X004695Y013548D02*
X005926Y013548D01*
X005926Y013450D02*
X004695Y013450D01*
X004631Y013351D02*
X005958Y013351D01*
X005957Y013647D02*
X005716Y013647D01*
X005815Y013745D02*
X006019Y013745D01*
X006064Y013844D02*
X005913Y013844D01*
X006012Y013942D02*
X006064Y013942D01*
X003726Y013745D02*
X003573Y013745D01*
X003573Y013647D02*
X003726Y013647D01*
X003726Y013548D02*
X003573Y013548D01*
X003569Y013450D02*
X003726Y013450D01*
X003790Y013351D02*
X003490Y013351D01*
X003158Y013942D02*
X003058Y013942D01*
X003058Y014041D02*
X003158Y014041D01*
X003158Y014139D02*
X003058Y014139D01*
X003058Y014238D02*
X003158Y014238D01*
X003158Y014336D02*
X003058Y014336D01*
X003058Y014435D02*
X003158Y014435D01*
X003158Y014533D02*
X003058Y014533D01*
X003058Y014632D02*
X003158Y014632D01*
X003158Y014730D02*
X003058Y014730D01*
X003573Y015026D02*
X003726Y015026D01*
X003726Y015124D02*
X003573Y015124D01*
X003572Y015223D02*
X003726Y015223D01*
X003777Y015321D02*
X003512Y015321D01*
X003678Y003698D02*
X003811Y003698D01*
X003909Y003600D02*
X003579Y003600D01*
X003481Y003501D02*
X004008Y003501D01*
X019541Y017862D02*
X019541Y017862D01*
X021135Y017345D02*
X021135Y017345D01*
X021223Y017390D02*
X021897Y017390D01*
X021897Y017488D02*
X021416Y017488D01*
X021532Y017547D02*
X021532Y017547D01*
X021571Y017587D02*
X021897Y017587D01*
X021897Y017685D02*
X021670Y017685D01*
X021768Y017784D02*
X021897Y017784D01*
X021897Y017882D02*
X021857Y017882D01*
D20*
X020394Y014700D02*
X012594Y014700D01*
X011394Y013500D01*
X008294Y013500D01*
X007894Y013100D01*
X007894Y007710D01*
X007384Y007200D01*
X006307Y007200D01*
X006305Y007203D01*
X006302Y007700D02*
X006305Y007703D01*
X006197Y007703D01*
X006194Y007700D01*
X005694Y007700D01*
X005594Y007600D01*
X005594Y006300D01*
X005294Y006000D01*
X004244Y006000D01*
X005594Y006300D02*
X005694Y006200D01*
X006302Y006200D01*
X006305Y006203D01*
X006305Y005610D01*
X006294Y005600D01*
X007594Y006700D02*
X008294Y007400D01*
X008294Y009500D01*
X008497Y009703D01*
X010005Y009703D01*
X010005Y009203D02*
X008997Y009203D01*
X008794Y009000D01*
X010005Y007703D02*
X010697Y007703D01*
X011094Y008100D01*
X011119Y006911D02*
X010908Y006700D01*
X010002Y006700D01*
X010005Y006703D01*
X010005Y006203D02*
X010008Y006200D01*
X010794Y006200D01*
X011119Y005875D01*
X011119Y005809D01*
X012294Y005700D02*
X012794Y005200D01*
X013364Y005200D01*
X013384Y005221D01*
X013384Y005929D02*
X013314Y006000D01*
X012994Y006000D01*
X012694Y006300D01*
X012694Y007800D01*
X013044Y008149D01*
X013379Y008149D01*
X013379Y008706D01*
X013908Y009235D01*
X014194Y008600D02*
X013994Y008400D01*
X013994Y007640D01*
X013804Y007450D01*
X013389Y007450D01*
X013379Y007441D01*
X013994Y006700D02*
X014394Y006300D01*
X014394Y004700D01*
X014294Y004600D01*
X014294Y003200D01*
X014794Y003700D02*
X014794Y005200D01*
X015510Y005200D01*
X015514Y005196D01*
X015514Y005904D02*
X015745Y006135D01*
X016803Y006135D01*
X016794Y006126D01*
X016794Y005160D01*
X016803Y006135D02*
X016798Y006140D01*
X016798Y007395D01*
X016798Y007856D01*
X016514Y008140D01*
X015509Y008140D01*
X015504Y008144D01*
X015494Y008600D02*
X014194Y008600D01*
X015010Y009235D02*
X015329Y009235D01*
X015794Y009700D01*
X015538Y010244D02*
X015194Y009900D01*
X013394Y009900D01*
X013094Y009600D01*
X013094Y008800D01*
X012294Y008000D01*
X012294Y005700D01*
X013994Y006700D02*
X015294Y006700D01*
X015494Y006900D01*
X015494Y007426D01*
X015504Y007436D01*
X015494Y008600D02*
X016338Y009443D01*
X016338Y012169D01*
X015538Y012169D02*
X015538Y010244D01*
X016983Y011200D02*
X017094Y011200D01*
X017894Y012000D01*
X017915Y012000D01*
X019915Y014000D01*
X020624Y014000D02*
X020624Y014471D01*
X020394Y014700D01*
X013940Y012169D02*
X013940Y010554D01*
X013994Y010500D01*
X011694Y013000D02*
X008494Y013000D01*
X007294Y012200D02*
X007291Y012203D01*
X006305Y012203D01*
X006302Y012700D02*
X005994Y012700D01*
X005594Y012300D01*
X005594Y010900D01*
X005791Y010703D01*
X006305Y010703D01*
X006305Y010203D01*
X005797Y010203D01*
X005594Y010000D01*
X005594Y007800D01*
X005694Y007700D01*
X006194Y007700D02*
X006302Y007700D01*
X006305Y008203D02*
X006997Y008203D01*
X007194Y008400D01*
X006797Y008703D02*
X007194Y009100D01*
X006797Y008703D02*
X006305Y008703D01*
X006305Y009203D02*
X006305Y009703D01*
X006697Y009703D01*
X006894Y009900D01*
X006894Y011000D01*
X006694Y011200D01*
X006307Y011200D01*
X006305Y011203D01*
X006305Y011703D02*
X007191Y011703D01*
X007294Y011600D01*
X006302Y012700D02*
X006305Y012703D01*
X005994Y012700D02*
X005314Y012700D01*
X004819Y012205D01*
X004210Y012205D01*
X004210Y013840D02*
X005584Y013840D01*
X006434Y014690D01*
X006294Y014550D01*
X006294Y013500D01*
X004239Y014845D02*
X004994Y015600D01*
X009264Y015600D01*
X010174Y014690D01*
X010164Y014700D01*
X008494Y014700D01*
X004239Y014845D02*
X004210Y014845D01*
X005938Y004165D02*
X005773Y004000D01*
X004994Y004000D01*
D21*
X004994Y004000D03*
X006294Y005600D03*
X007014Y004880D03*
X007594Y006700D03*
X009094Y005400D03*
X011094Y008100D03*
X009194Y010200D03*
X007194Y009100D03*
X007194Y008400D03*
X005094Y009000D03*
X007294Y011600D03*
X007294Y012200D03*
X008294Y012800D03*
X008494Y014700D03*
X006294Y013500D03*
X012494Y012700D03*
X013994Y010500D03*
X015794Y009700D03*
X016994Y009700D03*
X018794Y010200D03*
X017894Y012700D03*
X015194Y013900D03*
X013294Y017900D03*
X017594Y017800D03*
X019594Y015700D03*
X021094Y015700D03*
X013994Y006700D03*
X014794Y005200D03*
X014794Y003700D03*
X014294Y003200D03*
X016794Y005160D03*
D22*
X017594Y017800D02*
X019194Y017800D01*
X013294Y017900D02*
X010694Y017900D01*
M02*
