%
M48
M72
T01C0.0236
T02C0.0400
T03C0.0402
T04C0.0618
T05C0.1200
T06C0.1280
%
T01
X4994Y4000
X6294Y5600
X7014Y4880
X7594Y6700
X9094Y5400
X11094Y8100
X9194Y10200
X7194Y9100
X7194Y8400
X5094Y9000
X7294Y11600
X7294Y12200
X8294Y12800
X8494Y14700
X6294Y13500
X12494Y12700
X13994Y10500
X15794Y9700
X16994Y9700
X18794Y10200
X17894Y12700
X15194Y13900
X13294Y17900
X17594Y17800
X19594Y15700
X21094Y15700
X13994Y6700
X14794Y5200
X14794Y3700
X14294Y3200
X16794Y5160
T02
X3244Y4000
X3244Y5000
X3244Y6000
X3244Y7000
X3244Y8000
X3244Y9000
X3244Y10000
X4244Y10000
X4244Y9000
X4244Y8000
X4244Y7000
X4244Y6000
X4244Y5000
X4244Y4000
X20244Y4000
X20244Y5000
X20244Y6000
X20244Y7000
X20244Y8000
X20244Y9000
X20244Y10000
X21244Y10000
X21244Y9000
X21244Y8000
X21244Y7000
X21244Y6000
X21244Y5000
X21244Y4000
T03
X17983Y11200
X16983Y11200
X17137Y12169
X16338Y12169
X15538Y12169
X14739Y12169
X13940Y12169
X13141Y12169
X13294Y11200
X12294Y11200
T04
X11968Y17817
X18318Y17818
T05
X20694Y18700
X3944Y18700
T06
X12641Y16566
X17641Y16566
M30
