G75*
G70*
%OFA0B0*%
%FSLAX24Y24*%
%IPPOS*%
%LPD*%
%AMOC8*
5,1,8,0,0,1.08239X$1,22.5*
%
%ADD10C,0.0100*%
%ADD11C,0.0060*%
D10*
X014013Y005270D02*
X017713Y005270D01*
X014657Y005870D02*
X014659Y005898D01*
X014665Y005926D01*
X014674Y005952D01*
X014687Y005977D01*
X014703Y006000D01*
X014722Y006021D01*
X014744Y006038D01*
X014768Y006053D01*
X014794Y006064D01*
X014821Y006072D01*
X014849Y006076D01*
X014877Y006076D01*
X014905Y006072D01*
X014932Y006064D01*
X014958Y006053D01*
X014982Y006038D01*
X015004Y006021D01*
X015023Y006000D01*
X015039Y005977D01*
X015052Y005952D01*
X015061Y005926D01*
X015067Y005898D01*
X015069Y005870D01*
X015067Y005842D01*
X015061Y005814D01*
X015052Y005788D01*
X015039Y005763D01*
X015023Y005740D01*
X015004Y005719D01*
X014982Y005702D01*
X014958Y005687D01*
X014932Y005676D01*
X014905Y005668D01*
X014877Y005664D01*
X014849Y005664D01*
X014821Y005668D01*
X014794Y005676D01*
X014768Y005687D01*
X014744Y005702D01*
X014722Y005719D01*
X014703Y005740D01*
X014687Y005763D01*
X014674Y005788D01*
X014665Y005814D01*
X014659Y005842D01*
X014657Y005870D01*
X014013Y012770D02*
X017713Y012770D01*
D11*
X011793Y006866D02*
X011556Y006866D01*
X011556Y007338D02*
X011793Y007338D01*
X015706Y004813D02*
X015943Y004813D01*
X015943Y004341D02*
X015706Y004341D01*
X017406Y004291D02*
X017643Y004291D01*
X017643Y004763D02*
X017406Y004763D01*
X013136Y011034D02*
X013136Y011270D01*
X012663Y011270D02*
X012663Y011034D01*
X012111Y011034D02*
X012111Y011270D01*
X011638Y011270D02*
X011638Y011034D01*
X011261Y011034D02*
X011261Y011270D01*
X010788Y011270D02*
X010788Y011034D01*
X015781Y013216D02*
X016018Y013216D01*
X016018Y013688D02*
X015781Y013688D01*
M02*
