G75*
G70*
%OFA0B0*%
%FSLAX24Y24*%
%IPPOS*%
%LPD*%
%AMOC8*
5,1,8,0,0,1.08239X$1,22.5*
%
%ADD10OC8,0.0740*%
%ADD11C,0.0602*%
%ADD12C,0.0927*%
%ADD13C,0.0396*%
%ADD14C,0.0120*%
%ADD15C,0.0100*%
%ADD16R,0.0396X0.0396*%
%ADD17C,0.0160*%
D10*
X003244Y004000D03*
X003244Y005000D03*
X003244Y006000D03*
X003244Y007000D03*
X003244Y008000D03*
X003244Y009000D03*
X003244Y010000D03*
X004244Y010000D03*
X004244Y009000D03*
X004244Y008000D03*
X004244Y007000D03*
X004244Y006000D03*
X004244Y005000D03*
X004244Y004000D03*
X020244Y004000D03*
X020244Y005000D03*
X020244Y006000D03*
X020244Y007000D03*
X020244Y008000D03*
X020244Y009000D03*
X020244Y010000D03*
X021244Y010000D03*
X021244Y009000D03*
X021244Y008000D03*
X021244Y007000D03*
X021244Y006000D03*
X021244Y005000D03*
X021244Y004000D03*
D11*
X017983Y011200D03*
X016983Y011200D03*
X017137Y012169D03*
X016338Y012169D03*
X015538Y012169D03*
X014739Y012169D03*
X013940Y012169D03*
X013141Y012169D03*
X013294Y011200D03*
X012294Y011200D03*
D12*
X011968Y017817D03*
X018318Y017818D03*
D13*
X017057Y017780D03*
X019594Y015700D03*
X021094Y015700D03*
X017894Y012700D03*
X018794Y010200D03*
X016994Y009700D03*
X015794Y009700D03*
X013994Y010500D03*
X012494Y012700D03*
X015194Y013900D03*
X013294Y017900D03*
X008494Y014700D03*
X008294Y012800D03*
X007294Y012200D03*
X007294Y011600D03*
X006294Y013500D03*
X009194Y010200D03*
X007194Y009100D03*
X007194Y008400D03*
X007594Y006700D03*
X006294Y005600D03*
X007014Y004880D03*
X009094Y005400D03*
X011094Y008100D03*
X013994Y006700D03*
X014794Y005200D03*
X014794Y003700D03*
X014294Y003200D03*
X016794Y005160D03*
X004994Y004000D03*
X005094Y009000D03*
D14*
X005094Y007400D01*
X005794Y006700D01*
X007594Y006700D01*
X006294Y005600D02*
X005894Y005600D01*
X005094Y004800D01*
X005094Y004100D01*
X004994Y004000D01*
X008194Y004800D02*
X008594Y004400D01*
X012094Y004400D01*
X013294Y003200D01*
X014294Y003200D01*
X014794Y003700D02*
X013494Y003700D01*
X012294Y004900D01*
X008794Y004900D01*
X008594Y005100D01*
X008594Y009700D01*
X007894Y010400D01*
X008294Y010500D02*
X008994Y009800D01*
X008994Y005500D01*
X009094Y005400D01*
X008194Y004800D02*
X008194Y009600D01*
X007294Y010500D01*
X007294Y011600D01*
X007294Y012200D02*
X007594Y012200D01*
X007894Y011900D01*
X008294Y012800D02*
X008294Y010500D01*
X009194Y010200D02*
X009194Y012800D01*
X009594Y013200D01*
X018494Y013200D01*
X018794Y012900D01*
X018794Y010200D01*
X017894Y008600D02*
X017894Y005400D01*
X016694Y004200D01*
X013794Y004200D01*
X012594Y005400D01*
X012594Y007900D01*
X012394Y008100D01*
X011094Y008100D01*
X013194Y010300D02*
X013194Y005500D01*
X014094Y004600D01*
X016234Y004600D01*
X016794Y005160D01*
X014794Y005200D02*
X014739Y005255D01*
X014739Y012169D01*
X013141Y012169D02*
X013141Y011846D01*
X012794Y011500D01*
X012794Y010700D01*
X013194Y010300D01*
X013994Y010500D02*
X013994Y006700D01*
X007194Y008400D02*
X006694Y008900D01*
X006694Y009300D01*
X006294Y009700D01*
X006294Y013500D01*
X006694Y012900D02*
X008494Y014700D01*
X006694Y012900D02*
X006694Y010100D01*
X007194Y009600D01*
X007194Y009100D01*
D15*
X002741Y003768D02*
X002741Y003438D01*
X005683Y003438D01*
X005685Y003437D01*
X012264Y003437D01*
X012329Y003458D01*
X012329Y003458D01*
X012542Y003415D01*
X012542Y003415D01*
X012704Y003271D01*
X012704Y003271D01*
X012736Y003176D01*
X012748Y003146D01*
X012894Y003000D01*
X013169Y003000D01*
X013064Y003105D01*
X011999Y004170D01*
X008499Y004170D01*
X007964Y004705D01*
X007964Y009505D01*
X007064Y010405D01*
X007064Y011309D01*
X006982Y011391D01*
X006926Y011527D01*
X006926Y011673D01*
X006982Y011809D01*
X007074Y011900D01*
X006982Y011991D01*
X006926Y012127D01*
X006926Y012273D01*
X006982Y012409D01*
X007086Y012512D01*
X007221Y012568D01*
X007368Y012568D01*
X007503Y012512D01*
X007585Y012430D01*
X007690Y012430D01*
X008064Y012055D01*
X008064Y012509D01*
X007982Y012591D01*
X007926Y012727D01*
X007926Y012873D01*
X007982Y013009D01*
X008086Y013112D01*
X008221Y013168D01*
X008368Y013168D01*
X008503Y013112D01*
X008606Y013009D01*
X008662Y012873D01*
X008662Y012727D01*
X008606Y012591D01*
X008524Y012509D01*
X008524Y010595D01*
X008832Y010287D01*
X008882Y010409D01*
X008964Y010491D01*
X008964Y012895D01*
X009099Y013030D01*
X009499Y013430D01*
X011585Y013430D01*
X011585Y017337D01*
X011568Y017349D01*
X011500Y017418D01*
X011443Y017496D01*
X011399Y017582D01*
X011369Y017674D01*
X011354Y017767D01*
X011585Y017767D01*
X011585Y017867D01*
X011354Y017867D01*
X011369Y017961D01*
X011399Y018053D01*
X011443Y018139D01*
X011500Y018217D01*
X011568Y018285D01*
X011585Y018298D01*
X011585Y018503D01*
X011314Y018503D01*
X011222Y018541D01*
X011152Y018611D01*
X011114Y018702D01*
X011114Y019900D01*
X004689Y019900D01*
X004782Y019853D01*
X004782Y019853D01*
X005097Y019538D01*
X005097Y019538D01*
X005300Y019140D01*
X005300Y019140D01*
X005369Y018700D01*
X005300Y018260D01*
X005300Y018260D01*
X005097Y017862D01*
X005097Y017862D01*
X004782Y017547D01*
X004782Y017547D01*
X004385Y017345D01*
X004385Y017345D01*
X003944Y017275D01*
X003944Y017275D01*
X003504Y017345D01*
X003504Y017345D01*
X003107Y017547D01*
X003107Y017547D01*
X002791Y017862D01*
X002791Y017862D01*
X002741Y017961D01*
X002741Y010232D01*
X003029Y010520D01*
X003194Y010520D01*
X003194Y010050D01*
X003294Y010050D01*
X003294Y010520D01*
X003460Y010520D01*
X003744Y010235D01*
X004029Y010520D01*
X004194Y010520D01*
X004194Y010050D01*
X004194Y009950D01*
X003764Y009950D01*
X003294Y009950D01*
X003294Y010050D01*
X004194Y010050D01*
X004294Y010050D01*
X004294Y010520D01*
X004460Y010520D01*
X004764Y010215D01*
X004764Y010050D01*
X004294Y010050D01*
X004294Y009950D01*
X004764Y009950D01*
X004764Y009785D01*
X004494Y009514D01*
X004784Y009224D01*
X004784Y009211D01*
X004886Y009312D01*
X005021Y009368D01*
X005168Y009368D01*
X005303Y009312D01*
X005406Y009209D01*
X005462Y009073D01*
X005462Y008927D01*
X005406Y008791D01*
X005324Y008709D01*
X005324Y007495D01*
X005890Y006930D01*
X007304Y006930D01*
X007386Y007012D01*
X007521Y007068D01*
X007668Y007068D01*
X007803Y007012D01*
X007906Y006909D01*
X007962Y006773D01*
X007962Y006627D01*
X007906Y006491D01*
X007803Y006388D01*
X007668Y006332D01*
X007521Y006332D01*
X007386Y006388D01*
X007304Y006470D01*
X005699Y006470D01*
X004999Y007170D01*
X004864Y007305D01*
X004864Y008709D01*
X004784Y008789D01*
X004784Y008776D01*
X004508Y008500D01*
X004784Y008224D01*
X004784Y007776D01*
X004508Y007500D01*
X004784Y007224D01*
X004784Y006776D01*
X004508Y006500D01*
X004784Y006224D01*
X004784Y005776D01*
X004508Y005500D01*
X004784Y005224D01*
X004784Y004776D01*
X004494Y004486D01*
X004864Y004486D01*
X004864Y004388D02*
X004592Y004388D01*
X004494Y004486D02*
X004727Y004253D01*
X004786Y004312D01*
X004864Y004345D01*
X004864Y004895D01*
X004999Y005030D01*
X005799Y005830D01*
X006004Y005830D01*
X006086Y005912D01*
X006221Y005968D01*
X006368Y005968D01*
X006503Y005912D01*
X006606Y005809D01*
X006662Y005673D01*
X006662Y005527D01*
X006606Y005391D01*
X006503Y005288D01*
X006368Y005232D01*
X006221Y005232D01*
X006086Y005288D01*
X006004Y005370D01*
X005990Y005370D01*
X005324Y004705D01*
X005324Y004165D01*
X005362Y004073D01*
X005362Y003927D01*
X005306Y003791D01*
X005203Y003688D01*
X005068Y003632D01*
X004921Y003632D01*
X004786Y003688D01*
X004727Y003747D01*
X004460Y003480D01*
X004294Y003480D01*
X004294Y003950D01*
X004194Y003950D01*
X003724Y003950D01*
X003294Y003950D01*
X003294Y003480D01*
X003460Y003480D01*
X003744Y003765D01*
X004029Y003480D01*
X004194Y003480D01*
X004194Y003950D01*
X004194Y004050D01*
X003294Y004050D01*
X003294Y003950D01*
X003194Y003950D01*
X003194Y003480D01*
X003029Y003480D01*
X002741Y003768D01*
X002741Y003698D02*
X002811Y003698D01*
X002741Y003600D02*
X002909Y003600D01*
X003008Y003501D02*
X002741Y003501D01*
X003194Y003501D02*
X003294Y003501D01*
X003294Y003600D02*
X003194Y003600D01*
X003194Y003698D02*
X003294Y003698D01*
X003294Y003797D02*
X003194Y003797D01*
X003194Y003895D02*
X003294Y003895D01*
X003294Y003994D02*
X004194Y003994D01*
X004194Y003895D02*
X004294Y003895D01*
X004294Y003797D02*
X004194Y003797D01*
X004194Y003698D02*
X004294Y003698D01*
X004294Y003600D02*
X004194Y003600D01*
X004194Y003501D02*
X004294Y003501D01*
X004481Y003501D02*
X012668Y003501D01*
X012570Y003600D02*
X004579Y003600D01*
X004678Y003698D02*
X004776Y003698D01*
X005213Y003698D02*
X012471Y003698D01*
X012373Y003797D02*
X005308Y003797D01*
X005349Y003895D02*
X012274Y003895D01*
X012176Y003994D02*
X005362Y003994D01*
X005355Y004092D02*
X012077Y004092D01*
X012556Y003403D02*
X012767Y003403D01*
X012865Y003304D02*
X012667Y003304D01*
X012726Y003206D02*
X012964Y003206D01*
X013062Y003107D02*
X012787Y003107D01*
X012886Y003009D02*
X013161Y003009D01*
X014610Y003000D02*
X014662Y003127D01*
X014662Y003273D01*
X014621Y003373D01*
X014721Y003332D01*
X014868Y003332D01*
X015003Y003388D01*
X015106Y003491D01*
X015162Y003627D01*
X015162Y003773D01*
X015106Y003909D01*
X015045Y003970D01*
X016790Y003970D01*
X017990Y005170D01*
X018124Y005305D01*
X018124Y008519D01*
X018785Y009180D01*
X019685Y009180D01*
X019704Y009199D01*
X019704Y008776D01*
X019981Y008500D01*
X019704Y008224D01*
X019704Y007776D01*
X019981Y007500D01*
X019704Y007224D01*
X019704Y006776D01*
X019981Y006500D01*
X019704Y006224D01*
X019704Y005776D01*
X019981Y005500D01*
X019704Y005224D01*
X019704Y004776D01*
X019995Y004486D01*
X019724Y004215D01*
X019724Y004050D01*
X020194Y004050D01*
X020194Y003950D01*
X019724Y003950D01*
X019724Y003785D01*
X020029Y003480D01*
X020194Y003480D01*
X020194Y003950D01*
X020294Y003950D01*
X020294Y003480D01*
X020460Y003480D01*
X020744Y003765D01*
X021029Y003480D01*
X021194Y003480D01*
X021194Y003950D01*
X020724Y003950D01*
X020294Y003950D01*
X020294Y004050D01*
X021194Y004050D01*
X021194Y003950D01*
X021294Y003950D01*
X021294Y003480D01*
X021460Y003480D01*
X021764Y003785D01*
X021764Y003950D01*
X021294Y003950D01*
X021294Y004050D01*
X021764Y004050D01*
X021764Y004215D01*
X021494Y004486D01*
X021897Y004486D01*
X021897Y004388D02*
X021592Y004388D01*
X021494Y004486D02*
X021784Y004776D01*
X021784Y005224D01*
X021508Y005500D01*
X021784Y005776D01*
X021784Y006224D01*
X021508Y006500D01*
X021784Y006776D01*
X021784Y007224D01*
X021508Y007500D01*
X021784Y007776D01*
X021784Y008224D01*
X021508Y008500D01*
X021784Y008776D01*
X021784Y009224D01*
X021494Y009514D01*
X021764Y009785D01*
X021764Y009950D01*
X021294Y009950D01*
X021294Y010050D01*
X021194Y010050D01*
X021194Y009950D01*
X020724Y009950D01*
X020294Y009950D01*
X020294Y010050D01*
X020194Y010050D01*
X020194Y009950D01*
X019724Y009950D01*
X019724Y009785D01*
X019789Y009720D01*
X019603Y009720D01*
X019503Y009620D01*
X018603Y009620D01*
X018474Y009491D01*
X017813Y008830D01*
X017799Y008830D01*
X017664Y008695D01*
X017664Y005495D01*
X016599Y004430D01*
X016390Y004430D01*
X016751Y004792D01*
X016868Y004792D01*
X017003Y004848D01*
X017106Y004951D01*
X017162Y005087D01*
X017162Y005233D01*
X017106Y005369D01*
X017003Y005472D01*
X016868Y005528D01*
X016721Y005528D01*
X016586Y005472D01*
X016482Y005369D01*
X016426Y005233D01*
X016426Y005117D01*
X016139Y004830D01*
X014190Y004830D01*
X013424Y005595D01*
X013424Y010395D01*
X013290Y010530D01*
X013250Y010569D01*
X013626Y010569D01*
X013626Y010427D01*
X013682Y010291D01*
X013764Y010209D01*
X013764Y006991D01*
X013682Y006909D01*
X013626Y006773D01*
X013626Y006627D01*
X013682Y006491D01*
X013786Y006388D01*
X013921Y006332D01*
X014068Y006332D01*
X014203Y006388D01*
X014306Y006491D01*
X014362Y006627D01*
X014362Y006773D01*
X014306Y006909D01*
X014224Y006991D01*
X014224Y010209D01*
X014306Y010291D01*
X014362Y010427D01*
X014362Y010569D01*
X014509Y010569D01*
X014509Y005435D01*
X014482Y005409D01*
X014426Y005273D01*
X014426Y005127D01*
X014482Y004991D01*
X014586Y004888D01*
X014721Y004832D01*
X014868Y004832D01*
X015003Y004888D01*
X015106Y004991D01*
X015162Y005127D01*
X015162Y005273D01*
X015106Y005409D01*
X015003Y005512D01*
X014969Y005526D01*
X014969Y010569D01*
X018393Y010569D01*
X018394Y010569D01*
X018493Y010569D01*
X018564Y010598D01*
X018564Y010491D01*
X018482Y010409D01*
X018426Y010273D01*
X018426Y010127D01*
X018482Y009991D01*
X018586Y009888D01*
X018721Y009832D01*
X018868Y009832D01*
X019003Y009888D01*
X019106Y009991D01*
X019162Y010127D01*
X019162Y010273D01*
X019106Y010409D01*
X019024Y010491D01*
X019024Y012995D01*
X018724Y013295D01*
X018692Y013327D01*
X018692Y017331D01*
X018718Y017350D01*
X018786Y017418D01*
X018843Y017496D01*
X018887Y017582D01*
X018916Y017674D01*
X018931Y017768D01*
X018692Y017768D01*
X018692Y017868D01*
X018931Y017868D01*
X018916Y017961D01*
X018887Y018053D01*
X018843Y018139D01*
X018786Y018217D01*
X018718Y018286D01*
X018692Y018304D01*
X018692Y018502D01*
X018981Y018502D01*
X019025Y018528D01*
X019055Y018540D01*
X019055Y018541D01*
X019056Y018541D01*
X019067Y018552D01*
X019096Y018569D01*
X019096Y018569D01*
X019114Y018599D01*
X019125Y018610D01*
X019125Y018610D01*
X019125Y018611D01*
X019125Y018611D01*
X019125Y018611D01*
X019138Y018641D01*
X019163Y018685D01*
X019163Y018702D01*
X019163Y018702D01*
X019163Y018751D01*
X019163Y019900D01*
X019594Y019900D01*
X019785Y019781D01*
X019541Y019538D01*
X019541Y019538D01*
X019339Y019140D01*
X019269Y018700D01*
X019339Y018260D01*
X019339Y018260D01*
X019541Y017862D01*
X019857Y017547D01*
X020254Y017345D01*
X020694Y017275D01*
X020694Y017275D01*
X021135Y017345D01*
X021532Y017547D01*
X021847Y017862D01*
X021847Y017862D01*
X021897Y017961D01*
X021897Y003017D01*
X019077Y003017D01*
X019071Y003023D01*
X019071Y003094D01*
X018968Y003273D01*
X018968Y003273D01*
X018968Y003273D01*
X018788Y003377D01*
X016742Y003377D01*
X016600Y003295D01*
X016600Y003295D01*
X016600Y003295D01*
X016517Y003152D01*
X016517Y003075D01*
X016513Y003052D01*
X016517Y003026D01*
X016517Y003023D01*
X016494Y003000D01*
X014610Y003000D01*
X014613Y003009D02*
X016503Y003009D01*
X016517Y003107D02*
X014654Y003107D01*
X014662Y003206D02*
X016548Y003206D01*
X016616Y003304D02*
X014650Y003304D01*
X015017Y003403D02*
X021897Y003403D01*
X021897Y003501D02*
X021481Y003501D01*
X021579Y003600D02*
X021897Y003600D01*
X021897Y003698D02*
X021678Y003698D01*
X021764Y003797D02*
X021897Y003797D01*
X021897Y003895D02*
X021764Y003895D01*
X021897Y003994D02*
X021294Y003994D01*
X021294Y003895D02*
X021194Y003895D01*
X021194Y003797D02*
X021294Y003797D01*
X021294Y003698D02*
X021194Y003698D01*
X021194Y003600D02*
X021294Y003600D01*
X021294Y003501D02*
X021194Y003501D01*
X021008Y003501D02*
X020481Y003501D01*
X020579Y003600D02*
X020909Y003600D01*
X020811Y003698D02*
X020678Y003698D01*
X020294Y003698D02*
X020194Y003698D01*
X020194Y003600D02*
X020294Y003600D01*
X020294Y003501D02*
X020194Y003501D01*
X020008Y003501D02*
X015110Y003501D01*
X015151Y003600D02*
X019909Y003600D01*
X019811Y003698D02*
X015162Y003698D01*
X015153Y003797D02*
X019724Y003797D01*
X019724Y003895D02*
X015112Y003895D01*
X014984Y004880D02*
X016189Y004880D01*
X016288Y004979D02*
X015093Y004979D01*
X015142Y005077D02*
X016386Y005077D01*
X016426Y005176D02*
X015162Y005176D01*
X015162Y005274D02*
X016443Y005274D01*
X016486Y005373D02*
X015121Y005373D01*
X015044Y005471D02*
X016585Y005471D01*
X017004Y005471D02*
X017640Y005471D01*
X017664Y005570D02*
X014969Y005570D01*
X014969Y005668D02*
X017664Y005668D01*
X017664Y005767D02*
X014969Y005767D01*
X014969Y005865D02*
X017664Y005865D01*
X017664Y005964D02*
X014969Y005964D01*
X014969Y006062D02*
X017664Y006062D01*
X017664Y006161D02*
X014969Y006161D01*
X014969Y006259D02*
X017664Y006259D01*
X017664Y006358D02*
X014969Y006358D01*
X014969Y006456D02*
X017664Y006456D01*
X017664Y006555D02*
X014969Y006555D01*
X014969Y006653D02*
X017664Y006653D01*
X017664Y006752D02*
X014969Y006752D01*
X014969Y006850D02*
X017664Y006850D01*
X017664Y006949D02*
X014969Y006949D01*
X014969Y007047D02*
X017664Y007047D01*
X017664Y007146D02*
X014969Y007146D01*
X014969Y007244D02*
X017664Y007244D01*
X017664Y007343D02*
X014969Y007343D01*
X014969Y007441D02*
X017664Y007441D01*
X017664Y007540D02*
X014969Y007540D01*
X014969Y007638D02*
X017664Y007638D01*
X017664Y007737D02*
X014969Y007737D01*
X014969Y007835D02*
X017664Y007835D01*
X017664Y007934D02*
X014969Y007934D01*
X014969Y008032D02*
X017664Y008032D01*
X017664Y008131D02*
X014969Y008131D01*
X014969Y008229D02*
X017664Y008229D01*
X017664Y008328D02*
X014969Y008328D01*
X014969Y008426D02*
X017664Y008426D01*
X017664Y008525D02*
X014969Y008525D01*
X014969Y008623D02*
X017664Y008623D01*
X017691Y008722D02*
X014969Y008722D01*
X014969Y008820D02*
X017789Y008820D01*
X017902Y008919D02*
X014969Y008919D01*
X014969Y009017D02*
X018000Y009017D01*
X018099Y009116D02*
X014969Y009116D01*
X014969Y009214D02*
X018197Y009214D01*
X018296Y009313D02*
X014969Y009313D01*
X014969Y009411D02*
X018394Y009411D01*
X018493Y009510D02*
X014969Y009510D01*
X014969Y009608D02*
X018591Y009608D01*
X018694Y009400D02*
X019594Y009400D01*
X019694Y009500D01*
X020694Y009500D01*
X021194Y009000D01*
X021631Y008623D02*
X021897Y008623D01*
X021897Y008525D02*
X021533Y008525D01*
X021582Y008426D02*
X021897Y008426D01*
X021897Y008328D02*
X021680Y008328D01*
X021779Y008229D02*
X021897Y008229D01*
X021897Y008131D02*
X021784Y008131D01*
X021784Y008032D02*
X021897Y008032D01*
X021897Y007934D02*
X021784Y007934D01*
X021784Y007835D02*
X021897Y007835D01*
X021897Y007737D02*
X021745Y007737D01*
X021646Y007638D02*
X021897Y007638D01*
X021897Y007540D02*
X021548Y007540D01*
X021567Y007441D02*
X021897Y007441D01*
X021897Y007343D02*
X021665Y007343D01*
X021764Y007244D02*
X021897Y007244D01*
X021897Y007146D02*
X021784Y007146D01*
X021784Y007047D02*
X021897Y007047D01*
X021897Y006949D02*
X021784Y006949D01*
X021784Y006850D02*
X021897Y006850D01*
X021897Y006752D02*
X021760Y006752D01*
X021661Y006653D02*
X021897Y006653D01*
X021897Y006555D02*
X021563Y006555D01*
X021552Y006456D02*
X021897Y006456D01*
X021897Y006358D02*
X021650Y006358D01*
X021749Y006259D02*
X021897Y006259D01*
X021897Y006161D02*
X021784Y006161D01*
X021784Y006062D02*
X021897Y006062D01*
X021897Y005964D02*
X021784Y005964D01*
X021784Y005865D02*
X021897Y005865D01*
X021897Y005767D02*
X021775Y005767D01*
X021676Y005668D02*
X021897Y005668D01*
X021897Y005570D02*
X021578Y005570D01*
X021537Y005471D02*
X021897Y005471D01*
X021897Y005373D02*
X021635Y005373D01*
X021734Y005274D02*
X021897Y005274D01*
X021897Y005176D02*
X021784Y005176D01*
X021784Y005077D02*
X021897Y005077D01*
X021897Y004979D02*
X021784Y004979D01*
X021784Y004880D02*
X021897Y004880D01*
X021897Y004782D02*
X021784Y004782D01*
X021691Y004683D02*
X021897Y004683D01*
X021897Y004585D02*
X021593Y004585D01*
X021691Y004289D02*
X021897Y004289D01*
X021897Y004191D02*
X021764Y004191D01*
X021764Y004092D02*
X021897Y004092D01*
X021194Y003994D02*
X020294Y003994D01*
X020294Y003895D02*
X020194Y003895D01*
X020194Y003797D02*
X020294Y003797D01*
X020194Y003994D02*
X016813Y003994D01*
X016912Y004092D02*
X019724Y004092D01*
X019724Y004191D02*
X017010Y004191D01*
X017109Y004289D02*
X019798Y004289D01*
X019896Y004388D02*
X017207Y004388D01*
X017306Y004486D02*
X019995Y004486D01*
X019896Y004585D02*
X017404Y004585D01*
X017503Y004683D02*
X019798Y004683D01*
X019704Y004782D02*
X017601Y004782D01*
X017700Y004880D02*
X019704Y004880D01*
X019704Y004979D02*
X017798Y004979D01*
X017897Y005077D02*
X019704Y005077D01*
X019704Y005176D02*
X017995Y005176D01*
X018094Y005274D02*
X019755Y005274D01*
X019853Y005373D02*
X018124Y005373D01*
X018124Y005471D02*
X019952Y005471D01*
X019911Y005570D02*
X018124Y005570D01*
X018124Y005668D02*
X019813Y005668D01*
X019714Y005767D02*
X018124Y005767D01*
X018124Y005865D02*
X019704Y005865D01*
X019704Y005964D02*
X018124Y005964D01*
X018124Y006062D02*
X019704Y006062D01*
X019704Y006161D02*
X018124Y006161D01*
X018124Y006259D02*
X019740Y006259D01*
X019838Y006358D02*
X018124Y006358D01*
X018124Y006456D02*
X019937Y006456D01*
X019926Y006555D02*
X018124Y006555D01*
X018124Y006653D02*
X019828Y006653D01*
X019729Y006752D02*
X018124Y006752D01*
X018124Y006850D02*
X019704Y006850D01*
X019704Y006949D02*
X018124Y006949D01*
X018124Y007047D02*
X019704Y007047D01*
X019704Y007146D02*
X018124Y007146D01*
X018124Y007244D02*
X019725Y007244D01*
X019823Y007343D02*
X018124Y007343D01*
X018124Y007441D02*
X019922Y007441D01*
X019941Y007540D02*
X018124Y007540D01*
X018124Y007638D02*
X019843Y007638D01*
X019744Y007737D02*
X018124Y007737D01*
X018124Y007835D02*
X019704Y007835D01*
X019704Y007934D02*
X018124Y007934D01*
X018124Y008032D02*
X019704Y008032D01*
X019704Y008131D02*
X018124Y008131D01*
X018124Y008229D02*
X019710Y008229D01*
X019808Y008328D02*
X018124Y008328D01*
X018124Y008426D02*
X019907Y008426D01*
X019956Y008525D02*
X018130Y008525D01*
X018228Y008623D02*
X019858Y008623D01*
X019759Y008722D02*
X018327Y008722D01*
X018425Y008820D02*
X019704Y008820D01*
X019704Y008919D02*
X018524Y008919D01*
X018622Y009017D02*
X019704Y009017D01*
X019704Y009116D02*
X018721Y009116D01*
X018694Y009400D02*
X017894Y008600D01*
X018570Y009904D02*
X014969Y009904D01*
X014969Y010002D02*
X018478Y010002D01*
X018437Y010101D02*
X014969Y010101D01*
X014969Y010199D02*
X018426Y010199D01*
X018436Y010298D02*
X014969Y010298D01*
X014969Y010396D02*
X018477Y010396D01*
X018564Y010495D02*
X014969Y010495D01*
X014509Y010495D02*
X014362Y010495D01*
X014350Y010396D02*
X014509Y010396D01*
X014509Y010298D02*
X014309Y010298D01*
X014224Y010199D02*
X014509Y010199D01*
X014509Y010101D02*
X014224Y010101D01*
X014224Y010002D02*
X014509Y010002D01*
X014509Y009904D02*
X014224Y009904D01*
X014224Y009805D02*
X014509Y009805D01*
X014509Y009707D02*
X014224Y009707D01*
X014224Y009608D02*
X014509Y009608D01*
X014509Y009510D02*
X014224Y009510D01*
X014224Y009411D02*
X014509Y009411D01*
X014509Y009313D02*
X014224Y009313D01*
X014224Y009214D02*
X014509Y009214D01*
X014509Y009116D02*
X014224Y009116D01*
X014224Y009017D02*
X014509Y009017D01*
X014509Y008919D02*
X014224Y008919D01*
X014224Y008820D02*
X014509Y008820D01*
X014509Y008722D02*
X014224Y008722D01*
X014224Y008623D02*
X014509Y008623D01*
X014509Y008525D02*
X014224Y008525D01*
X014224Y008426D02*
X014509Y008426D01*
X014509Y008328D02*
X014224Y008328D01*
X014224Y008229D02*
X014509Y008229D01*
X014509Y008131D02*
X014224Y008131D01*
X014224Y008032D02*
X014509Y008032D01*
X014509Y007934D02*
X014224Y007934D01*
X014224Y007835D02*
X014509Y007835D01*
X014509Y007737D02*
X014224Y007737D01*
X014224Y007638D02*
X014509Y007638D01*
X014509Y007540D02*
X014224Y007540D01*
X014224Y007441D02*
X014509Y007441D01*
X014509Y007343D02*
X014224Y007343D01*
X014224Y007244D02*
X014509Y007244D01*
X014509Y007146D02*
X014224Y007146D01*
X014224Y007047D02*
X014509Y007047D01*
X014509Y006949D02*
X014266Y006949D01*
X014331Y006850D02*
X014509Y006850D01*
X014509Y006752D02*
X014362Y006752D01*
X014362Y006653D02*
X014509Y006653D01*
X014509Y006555D02*
X014332Y006555D01*
X014271Y006456D02*
X014509Y006456D01*
X014509Y006358D02*
X014129Y006358D01*
X013859Y006358D02*
X013424Y006358D01*
X013424Y006456D02*
X013718Y006456D01*
X013656Y006555D02*
X013424Y006555D01*
X013424Y006653D02*
X013626Y006653D01*
X013626Y006752D02*
X013424Y006752D01*
X013424Y006850D02*
X013658Y006850D01*
X013722Y006949D02*
X013424Y006949D01*
X013424Y007047D02*
X013764Y007047D01*
X013764Y007146D02*
X013424Y007146D01*
X013424Y007244D02*
X013764Y007244D01*
X013764Y007343D02*
X013424Y007343D01*
X013424Y007441D02*
X013764Y007441D01*
X013764Y007540D02*
X013424Y007540D01*
X013424Y007638D02*
X013764Y007638D01*
X013764Y007737D02*
X013424Y007737D01*
X013424Y007835D02*
X013764Y007835D01*
X013764Y007934D02*
X013424Y007934D01*
X013424Y008032D02*
X013764Y008032D01*
X013764Y008131D02*
X013424Y008131D01*
X013424Y008229D02*
X013764Y008229D01*
X013764Y008328D02*
X013424Y008328D01*
X013424Y008426D02*
X013764Y008426D01*
X013764Y008525D02*
X013424Y008525D01*
X013424Y008623D02*
X013764Y008623D01*
X013764Y008722D02*
X013424Y008722D01*
X013424Y008820D02*
X013764Y008820D01*
X013764Y008919D02*
X013424Y008919D01*
X013424Y009017D02*
X013764Y009017D01*
X013764Y009116D02*
X013424Y009116D01*
X013424Y009214D02*
X013764Y009214D01*
X013764Y009313D02*
X013424Y009313D01*
X013424Y009411D02*
X013764Y009411D01*
X013764Y009510D02*
X013424Y009510D01*
X013424Y009608D02*
X013764Y009608D01*
X013764Y009707D02*
X013424Y009707D01*
X013424Y009805D02*
X013764Y009805D01*
X013764Y009904D02*
X013424Y009904D01*
X013424Y010002D02*
X013764Y010002D01*
X013764Y010101D02*
X013424Y010101D01*
X013424Y010199D02*
X013764Y010199D01*
X013680Y010298D02*
X013424Y010298D01*
X013424Y010396D02*
X013639Y010396D01*
X013626Y010495D02*
X013325Y010495D01*
X012344Y011250D02*
X012244Y011250D01*
X012244Y011649D01*
X012189Y011640D01*
X012121Y011618D01*
X012083Y011598D01*
X012083Y012970D01*
X018195Y012970D01*
X018195Y011599D01*
X018156Y011618D01*
X018089Y011640D01*
X018033Y011649D01*
X018033Y011250D01*
X017933Y011250D01*
X017933Y011150D01*
X017534Y011150D01*
X017543Y011094D01*
X017552Y011067D01*
X017438Y011067D01*
X017454Y011106D01*
X017454Y011294D01*
X017383Y011467D01*
X017250Y011599D01*
X017077Y011671D01*
X016890Y011671D01*
X016716Y011599D01*
X016584Y011467D01*
X016512Y011294D01*
X016512Y011106D01*
X016528Y011067D01*
X014969Y011067D01*
X014969Y011754D01*
X015006Y011769D01*
X015139Y011902D01*
X015139Y011902D01*
X015139Y011902D01*
X015272Y011769D01*
X015445Y011697D01*
X015632Y011697D01*
X015805Y011769D01*
X015938Y011902D01*
X015938Y011902D01*
X015938Y011902D01*
X016071Y011769D01*
X016244Y011697D01*
X016431Y011697D01*
X016605Y011769D01*
X016737Y011902D01*
X016737Y011902D01*
X016737Y011902D01*
X016870Y011769D01*
X017043Y011697D01*
X017231Y011697D01*
X017404Y011769D01*
X017536Y011902D01*
X017608Y012075D01*
X017608Y012262D01*
X017536Y012435D01*
X017404Y012568D01*
X017231Y012640D01*
X017043Y012640D01*
X016870Y012568D01*
X016737Y012435D01*
X016737Y012435D01*
X016737Y012435D01*
X016605Y012568D01*
X016431Y012640D01*
X016244Y012640D01*
X016071Y012568D01*
X015938Y012435D01*
X015938Y012435D01*
X015938Y012435D01*
X015805Y012568D01*
X015632Y012640D01*
X015445Y012640D01*
X015272Y012568D01*
X015139Y012435D01*
X015139Y012435D01*
X015139Y012435D01*
X015006Y012568D01*
X014833Y012640D01*
X014645Y012640D01*
X014472Y012568D01*
X014340Y012435D01*
X014339Y012435D01*
X014340Y012435D02*
X014340Y012435D01*
X014339Y012435D02*
X014207Y012568D01*
X014034Y012640D01*
X013846Y012640D01*
X013673Y012568D01*
X013541Y012435D01*
X013540Y012435D01*
X013540Y012435D01*
X013408Y012568D01*
X013234Y012640D01*
X013047Y012640D01*
X012874Y012568D01*
X012741Y012435D01*
X012670Y012262D01*
X012670Y012075D01*
X012741Y011902D01*
X012806Y011837D01*
X012699Y011730D01*
X012564Y011595D01*
X012564Y011562D01*
X012531Y011586D01*
X012468Y011618D01*
X012400Y011640D01*
X012344Y011649D01*
X012344Y011250D01*
X012344Y011283D02*
X012244Y011283D01*
X012294Y011200D02*
X012294Y012300D01*
X012594Y012600D01*
X012770Y012465D02*
X012083Y012465D01*
X012083Y012563D02*
X012869Y012563D01*
X012713Y012366D02*
X012083Y012366D01*
X012083Y012268D02*
X012672Y012268D01*
X012670Y012169D02*
X012083Y012169D01*
X012083Y012071D02*
X012671Y012071D01*
X012712Y011972D02*
X012083Y011972D01*
X012083Y011874D02*
X012769Y011874D01*
X012744Y011775D02*
X012083Y011775D01*
X012083Y011677D02*
X012646Y011677D01*
X012564Y011578D02*
X012542Y011578D01*
X012344Y011578D02*
X012244Y011578D01*
X012244Y011480D02*
X012344Y011480D01*
X012344Y011381D02*
X012244Y011381D01*
X012083Y012662D02*
X018195Y012662D01*
X018195Y012760D02*
X012083Y012760D01*
X012083Y012859D02*
X018195Y012859D01*
X018195Y012957D02*
X012083Y012957D01*
X012083Y013430D02*
X012083Y015871D01*
X012139Y015815D01*
X012464Y015680D01*
X012817Y015680D01*
X013143Y015815D01*
X013392Y016064D01*
X013527Y016390D01*
X013527Y016743D01*
X013392Y017068D01*
X013143Y017318D01*
X012817Y017453D01*
X012464Y017453D01*
X012460Y017451D01*
X012492Y017496D01*
X012536Y017582D01*
X012566Y017674D01*
X012581Y017767D01*
X012083Y017767D01*
X012083Y017867D01*
X012581Y017867D01*
X012566Y017961D01*
X012536Y018053D01*
X012492Y018139D01*
X012436Y018217D01*
X012367Y018285D01*
X012289Y018342D01*
X012203Y018386D01*
X012111Y018416D01*
X012083Y018420D01*
X012083Y019900D01*
X018195Y019900D01*
X018195Y018419D01*
X018174Y018416D01*
X018082Y018386D01*
X017996Y018342D01*
X017918Y018286D01*
X017850Y018217D01*
X017793Y018139D01*
X017749Y018053D01*
X017719Y017961D01*
X017705Y017868D01*
X018195Y017868D01*
X018195Y017768D01*
X017705Y017768D01*
X017719Y017674D01*
X017749Y017582D01*
X017793Y017496D01*
X017828Y017448D01*
X017817Y017453D01*
X017464Y017453D01*
X017139Y017318D01*
X016889Y017068D01*
X016754Y016743D01*
X016754Y016390D01*
X016889Y016064D01*
X017139Y015815D01*
X017464Y015680D01*
X017817Y015680D01*
X018143Y015815D01*
X018195Y015866D01*
X018195Y013430D01*
X012083Y013430D01*
X012083Y013450D02*
X018195Y013450D01*
X018195Y013548D02*
X012083Y013548D01*
X012083Y013647D02*
X018195Y013647D01*
X018195Y013745D02*
X012083Y013745D01*
X012083Y013844D02*
X018195Y013844D01*
X018195Y013942D02*
X012083Y013942D01*
X012083Y014041D02*
X018195Y014041D01*
X018195Y014139D02*
X012083Y014139D01*
X012083Y014238D02*
X018195Y014238D01*
X018195Y014336D02*
X012083Y014336D01*
X012083Y014435D02*
X018195Y014435D01*
X018195Y014533D02*
X012083Y014533D01*
X012083Y014632D02*
X018195Y014632D01*
X018195Y014730D02*
X012083Y014730D01*
X012083Y014829D02*
X018195Y014829D01*
X018195Y014927D02*
X012083Y014927D01*
X012083Y015026D02*
X018195Y015026D01*
X018195Y015124D02*
X012083Y015124D01*
X012083Y015223D02*
X018195Y015223D01*
X018195Y015321D02*
X012083Y015321D01*
X012083Y015420D02*
X018195Y015420D01*
X018195Y015518D02*
X012083Y015518D01*
X012083Y015617D02*
X018195Y015617D01*
X018195Y015715D02*
X017903Y015715D01*
X018141Y015814D02*
X018195Y015814D01*
X018692Y015814D02*
X021897Y015814D01*
X021897Y015912D02*
X018692Y015912D01*
X018692Y016011D02*
X021897Y016011D01*
X021897Y016109D02*
X018692Y016109D01*
X018692Y016208D02*
X021897Y016208D01*
X021897Y016306D02*
X018692Y016306D01*
X018692Y016405D02*
X021897Y016405D01*
X021897Y016503D02*
X018692Y016503D01*
X018692Y016602D02*
X021897Y016602D01*
X021897Y016700D02*
X018692Y016700D01*
X018692Y016799D02*
X021897Y016799D01*
X021897Y016897D02*
X018692Y016897D01*
X018692Y016996D02*
X021897Y016996D01*
X021897Y017094D02*
X018692Y017094D01*
X018692Y017193D02*
X021897Y017193D01*
X021897Y017291D02*
X020796Y017291D01*
X020593Y017291D02*
X018692Y017291D01*
X018758Y017390D02*
X020166Y017390D01*
X020254Y017345D02*
X020254Y017345D01*
X019973Y017488D02*
X018837Y017488D01*
X018888Y017587D02*
X019817Y017587D01*
X019857Y017547D02*
X019857Y017547D01*
X019719Y017685D02*
X018918Y017685D01*
X018929Y017882D02*
X019531Y017882D01*
X019541Y017862D02*
X019541Y017862D01*
X019620Y017784D02*
X018692Y017784D01*
X018910Y017981D02*
X019481Y017981D01*
X019431Y018079D02*
X018873Y018079D01*
X018815Y018178D02*
X019381Y018178D01*
X019336Y018276D02*
X018727Y018276D01*
X018692Y018375D02*
X019321Y018375D01*
X019305Y018473D02*
X018692Y018473D01*
X019096Y018569D02*
X019096Y018569D01*
X019098Y018572D02*
X019290Y018572D01*
X019274Y018670D02*
X019155Y018670D01*
X019163Y018769D02*
X019280Y018769D01*
X019269Y018700D02*
X019269Y018700D01*
X019296Y018867D02*
X019163Y018867D01*
X019163Y018966D02*
X019311Y018966D01*
X019327Y019064D02*
X019163Y019064D01*
X019163Y019163D02*
X019350Y019163D01*
X019339Y019140D02*
X019339Y019140D01*
X019401Y019261D02*
X019163Y019261D01*
X019163Y019360D02*
X019451Y019360D01*
X019501Y019458D02*
X019163Y019458D01*
X019163Y019557D02*
X019560Y019557D01*
X019659Y019655D02*
X019163Y019655D01*
X019163Y019754D02*
X019757Y019754D01*
X019671Y019852D02*
X019163Y019852D01*
X018195Y019852D02*
X012083Y019852D01*
X012083Y019754D02*
X018195Y019754D01*
X018195Y019655D02*
X012083Y019655D01*
X012083Y019557D02*
X018195Y019557D01*
X018195Y019458D02*
X012083Y019458D01*
X012083Y019360D02*
X018195Y019360D01*
X018195Y019261D02*
X012083Y019261D01*
X012083Y019163D02*
X018195Y019163D01*
X018195Y019064D02*
X012083Y019064D01*
X012083Y018966D02*
X018195Y018966D01*
X018195Y018867D02*
X012083Y018867D01*
X012083Y018769D02*
X018195Y018769D01*
X018195Y018670D02*
X012083Y018670D01*
X012083Y018572D02*
X018195Y018572D01*
X018195Y018473D02*
X012083Y018473D01*
X012225Y018375D02*
X018059Y018375D01*
X017909Y018276D02*
X012377Y018276D01*
X012464Y018178D02*
X017821Y018178D01*
X017762Y018079D02*
X012523Y018079D01*
X012560Y017981D02*
X017726Y017981D01*
X017707Y017882D02*
X012579Y017882D01*
X012568Y017685D02*
X017718Y017685D01*
X017748Y017587D02*
X012538Y017587D01*
X012487Y017488D02*
X017799Y017488D01*
X018195Y017784D02*
X012083Y017784D01*
X011585Y017784D02*
X005018Y017784D01*
X005107Y017882D02*
X011357Y017882D01*
X011375Y017981D02*
X005157Y017981D01*
X005208Y018079D02*
X011412Y018079D01*
X011471Y018178D02*
X005258Y018178D01*
X005302Y018276D02*
X011559Y018276D01*
X011585Y018375D02*
X005318Y018375D01*
X005333Y018473D02*
X011585Y018473D01*
X011191Y018572D02*
X005349Y018572D01*
X005365Y018670D02*
X011128Y018670D01*
X011114Y018769D02*
X005358Y018769D01*
X005343Y018867D02*
X011114Y018867D01*
X011114Y018966D02*
X005327Y018966D01*
X005312Y019064D02*
X011114Y019064D01*
X011114Y019163D02*
X005288Y019163D01*
X005238Y019261D02*
X011114Y019261D01*
X011114Y019360D02*
X005188Y019360D01*
X005138Y019458D02*
X011114Y019458D01*
X011114Y019557D02*
X005078Y019557D01*
X004980Y019655D02*
X011114Y019655D01*
X011114Y019754D02*
X004881Y019754D01*
X004783Y019852D02*
X011114Y019852D01*
X011367Y017685D02*
X004920Y017685D01*
X004821Y017587D02*
X011397Y017587D01*
X011448Y017488D02*
X004666Y017488D01*
X004473Y017390D02*
X011528Y017390D01*
X011585Y017291D02*
X004046Y017291D01*
X003843Y017291D02*
X002741Y017291D01*
X002741Y017193D02*
X011585Y017193D01*
X011585Y017094D02*
X002741Y017094D01*
X002741Y016996D02*
X011585Y016996D01*
X011585Y016897D02*
X002741Y016897D01*
X002741Y016799D02*
X011585Y016799D01*
X011585Y016700D02*
X002741Y016700D01*
X002741Y016602D02*
X011585Y016602D01*
X011585Y016503D02*
X002741Y016503D01*
X002741Y016405D02*
X011585Y016405D01*
X011585Y016306D02*
X002741Y016306D01*
X002741Y016208D02*
X011585Y016208D01*
X011585Y016109D02*
X002741Y016109D01*
X002741Y016011D02*
X011585Y016011D01*
X011585Y015912D02*
X002741Y015912D01*
X002741Y015814D02*
X011585Y015814D01*
X011585Y015715D02*
X002741Y015715D01*
X002741Y015617D02*
X011585Y015617D01*
X011585Y015518D02*
X002741Y015518D01*
X002741Y015420D02*
X011585Y015420D01*
X011585Y015321D02*
X002741Y015321D01*
X002741Y015223D02*
X011585Y015223D01*
X011585Y015124D02*
X002741Y015124D01*
X002741Y015026D02*
X008318Y015026D01*
X008286Y015012D02*
X008182Y014909D01*
X008126Y014773D01*
X008126Y014657D01*
X006524Y013055D01*
X006524Y013209D01*
X006606Y013291D01*
X006662Y013427D01*
X006662Y013573D01*
X006606Y013709D01*
X006503Y013812D01*
X006368Y013868D01*
X006221Y013868D01*
X006086Y013812D01*
X005982Y013709D01*
X005926Y013573D01*
X005926Y013427D01*
X005982Y013291D01*
X006064Y013209D01*
X006064Y009605D01*
X006199Y009470D01*
X006464Y009205D01*
X006464Y008805D01*
X006599Y008670D01*
X006826Y008443D01*
X006826Y008327D01*
X006882Y008191D01*
X006986Y008088D01*
X007121Y008032D01*
X007268Y008032D01*
X007964Y008032D01*
X007964Y007934D02*
X005324Y007934D01*
X005324Y008032D02*
X007121Y008032D01*
X007268Y008032D02*
X007403Y008088D01*
X007506Y008191D01*
X007562Y008327D01*
X007562Y008473D01*
X007506Y008609D01*
X007403Y008712D01*
X007311Y008750D01*
X007403Y008788D01*
X007506Y008891D01*
X007562Y009027D01*
X007562Y009173D01*
X007506Y009309D01*
X007424Y009391D01*
X007424Y009695D01*
X006924Y010195D01*
X006924Y012805D01*
X008451Y014332D01*
X008568Y014332D01*
X008703Y014388D01*
X008806Y014491D01*
X008862Y014627D01*
X008862Y014773D01*
X008806Y014909D01*
X008703Y015012D01*
X008568Y015068D01*
X008421Y015068D01*
X008286Y015012D01*
X008201Y014927D02*
X002741Y014927D01*
X002741Y014829D02*
X008149Y014829D01*
X008126Y014730D02*
X002741Y014730D01*
X002741Y014632D02*
X008101Y014632D01*
X008002Y014533D02*
X002741Y014533D01*
X002741Y014435D02*
X007904Y014435D01*
X007805Y014336D02*
X002741Y014336D01*
X002741Y014238D02*
X007707Y014238D01*
X007608Y014139D02*
X002741Y014139D01*
X002741Y014041D02*
X007510Y014041D01*
X007411Y013942D02*
X002741Y013942D01*
X002741Y013844D02*
X006162Y013844D01*
X006019Y013745D02*
X002741Y013745D01*
X002741Y013647D02*
X005957Y013647D01*
X005926Y013548D02*
X002741Y013548D01*
X002741Y013450D02*
X005926Y013450D01*
X005958Y013351D02*
X002741Y013351D01*
X002741Y013253D02*
X006021Y013253D01*
X006064Y013154D02*
X002741Y013154D01*
X002741Y013056D02*
X006064Y013056D01*
X006064Y012957D02*
X002741Y012957D01*
X002741Y012859D02*
X006064Y012859D01*
X006064Y012760D02*
X002741Y012760D01*
X002741Y012662D02*
X006064Y012662D01*
X006064Y012563D02*
X002741Y012563D01*
X002741Y012465D02*
X006064Y012465D01*
X006064Y012366D02*
X002741Y012366D01*
X002741Y012268D02*
X006064Y012268D01*
X006064Y012169D02*
X002741Y012169D01*
X002741Y012071D02*
X006064Y012071D01*
X006064Y011972D02*
X002741Y011972D01*
X002741Y011874D02*
X006064Y011874D01*
X006064Y011775D02*
X002741Y011775D01*
X002741Y011677D02*
X006064Y011677D01*
X006064Y011578D02*
X002741Y011578D01*
X002741Y011480D02*
X006064Y011480D01*
X006064Y011381D02*
X002741Y011381D01*
X002741Y011283D02*
X006064Y011283D01*
X006064Y011184D02*
X002741Y011184D01*
X002741Y011086D02*
X006064Y011086D01*
X006064Y010987D02*
X002741Y010987D01*
X002741Y010889D02*
X006064Y010889D01*
X006064Y010790D02*
X002741Y010790D01*
X002741Y010692D02*
X006064Y010692D01*
X006064Y010593D02*
X002741Y010593D01*
X002741Y010495D02*
X003003Y010495D01*
X002905Y010396D02*
X002741Y010396D01*
X002741Y010298D02*
X002806Y010298D01*
X003194Y010298D02*
X003294Y010298D01*
X003294Y010396D02*
X003194Y010396D01*
X003194Y010495D02*
X003294Y010495D01*
X003485Y010495D02*
X004003Y010495D01*
X003905Y010396D02*
X003584Y010396D01*
X003682Y010298D02*
X003806Y010298D01*
X004194Y010298D02*
X004294Y010298D01*
X004294Y010396D02*
X004194Y010396D01*
X004194Y010495D02*
X004294Y010495D01*
X004485Y010495D02*
X006064Y010495D01*
X006064Y010396D02*
X004584Y010396D01*
X004682Y010298D02*
X006064Y010298D01*
X006064Y010199D02*
X004764Y010199D01*
X004764Y010101D02*
X006064Y010101D01*
X006064Y010002D02*
X004294Y010002D01*
X004294Y010101D02*
X004194Y010101D01*
X004194Y010199D02*
X004294Y010199D01*
X004194Y010002D02*
X003294Y010002D01*
X003294Y010101D02*
X003194Y010101D01*
X003194Y010199D02*
X003294Y010199D01*
X004498Y009510D02*
X006160Y009510D01*
X006064Y009608D02*
X004588Y009608D01*
X004686Y009707D02*
X006064Y009707D01*
X006064Y009805D02*
X004764Y009805D01*
X004764Y009904D02*
X006064Y009904D01*
X006258Y009411D02*
X004597Y009411D01*
X004695Y009313D02*
X004887Y009313D01*
X004788Y009214D02*
X004784Y009214D01*
X004730Y008722D02*
X004852Y008722D01*
X004864Y008623D02*
X004631Y008623D01*
X004533Y008525D02*
X004864Y008525D01*
X004864Y008426D02*
X004582Y008426D01*
X004680Y008328D02*
X004864Y008328D01*
X004864Y008229D02*
X004779Y008229D01*
X004784Y008131D02*
X004864Y008131D01*
X004864Y008032D02*
X004784Y008032D01*
X004784Y007934D02*
X004864Y007934D01*
X004864Y007835D02*
X004784Y007835D01*
X004745Y007737D02*
X004864Y007737D01*
X004864Y007638D02*
X004646Y007638D01*
X004548Y007540D02*
X004864Y007540D01*
X004864Y007441D02*
X004567Y007441D01*
X004665Y007343D02*
X004864Y007343D01*
X004925Y007244D02*
X004764Y007244D01*
X004784Y007146D02*
X005024Y007146D01*
X005122Y007047D02*
X004784Y007047D01*
X004784Y006949D02*
X005221Y006949D01*
X005319Y006850D02*
X004784Y006850D01*
X004760Y006752D02*
X005418Y006752D01*
X005516Y006653D02*
X004661Y006653D01*
X004563Y006555D02*
X005615Y006555D01*
X005871Y006949D02*
X007322Y006949D01*
X007470Y007047D02*
X005773Y007047D01*
X005674Y007146D02*
X007964Y007146D01*
X007964Y007244D02*
X005576Y007244D01*
X005477Y007343D02*
X007964Y007343D01*
X007964Y007441D02*
X005379Y007441D01*
X005324Y007540D02*
X007964Y007540D01*
X007964Y007638D02*
X005324Y007638D01*
X005324Y007737D02*
X007964Y007737D01*
X007964Y007835D02*
X005324Y007835D01*
X005324Y008131D02*
X006943Y008131D01*
X006867Y008229D02*
X005324Y008229D01*
X005324Y008328D02*
X006826Y008328D01*
X006826Y008426D02*
X005324Y008426D01*
X005324Y008525D02*
X006745Y008525D01*
X006646Y008623D02*
X005324Y008623D01*
X005336Y008722D02*
X006548Y008722D01*
X006464Y008820D02*
X005418Y008820D01*
X005459Y008919D02*
X006464Y008919D01*
X006464Y009017D02*
X005462Y009017D01*
X005445Y009116D02*
X006464Y009116D01*
X006455Y009214D02*
X005401Y009214D01*
X005302Y009313D02*
X006357Y009313D01*
X007118Y010002D02*
X007467Y010002D01*
X007566Y009904D02*
X007216Y009904D01*
X007315Y009805D02*
X007664Y009805D01*
X007763Y009707D02*
X007413Y009707D01*
X007424Y009608D02*
X007861Y009608D01*
X007960Y009510D02*
X007424Y009510D01*
X007424Y009411D02*
X007964Y009411D01*
X007964Y009313D02*
X007502Y009313D01*
X007546Y009214D02*
X007964Y009214D01*
X007964Y009116D02*
X007562Y009116D01*
X007558Y009017D02*
X007964Y009017D01*
X007964Y008919D02*
X007518Y008919D01*
X007435Y008820D02*
X007964Y008820D01*
X007964Y008722D02*
X007380Y008722D01*
X007492Y008623D02*
X007964Y008623D01*
X007964Y008525D02*
X007541Y008525D01*
X007562Y008426D02*
X007964Y008426D01*
X007964Y008328D02*
X007562Y008328D01*
X007522Y008229D02*
X007964Y008229D01*
X007964Y008131D02*
X007445Y008131D01*
X007718Y007047D02*
X007964Y007047D01*
X007964Y006949D02*
X007866Y006949D01*
X007931Y006850D02*
X007964Y006850D01*
X007962Y006752D02*
X007964Y006752D01*
X007962Y006653D02*
X007964Y006653D01*
X007964Y006555D02*
X007932Y006555D01*
X007964Y006456D02*
X007871Y006456D01*
X007964Y006358D02*
X007729Y006358D01*
X007964Y006259D02*
X004749Y006259D01*
X004784Y006161D02*
X007964Y006161D01*
X007964Y006062D02*
X004784Y006062D01*
X004784Y005964D02*
X006210Y005964D01*
X006379Y005964D02*
X007964Y005964D01*
X007964Y005865D02*
X006550Y005865D01*
X006624Y005767D02*
X007964Y005767D01*
X007964Y005668D02*
X006662Y005668D01*
X006662Y005570D02*
X007964Y005570D01*
X007964Y005471D02*
X006639Y005471D01*
X006587Y005373D02*
X007964Y005373D01*
X007964Y005274D02*
X006469Y005274D01*
X006119Y005274D02*
X005894Y005274D01*
X005795Y005176D02*
X007964Y005176D01*
X007964Y005077D02*
X005697Y005077D01*
X005598Y004979D02*
X007964Y004979D01*
X007964Y004880D02*
X005500Y004880D01*
X005401Y004782D02*
X007964Y004782D01*
X007986Y004683D02*
X005324Y004683D01*
X005324Y004585D02*
X008085Y004585D01*
X008183Y004486D02*
X005324Y004486D01*
X005324Y004388D02*
X008282Y004388D01*
X008380Y004289D02*
X005324Y004289D01*
X005324Y004191D02*
X008479Y004191D01*
X007459Y006358D02*
X004650Y006358D01*
X004552Y006456D02*
X007318Y006456D01*
X006039Y005865D02*
X004784Y005865D01*
X004775Y005767D02*
X005736Y005767D01*
X005637Y005668D02*
X004676Y005668D01*
X004578Y005570D02*
X005539Y005570D01*
X005440Y005471D02*
X004537Y005471D01*
X004635Y005373D02*
X005342Y005373D01*
X005243Y005274D02*
X004734Y005274D01*
X004784Y005176D02*
X005145Y005176D01*
X005046Y005077D02*
X004784Y005077D01*
X004784Y004979D02*
X004948Y004979D01*
X004864Y004880D02*
X004784Y004880D01*
X004784Y004782D02*
X004864Y004782D01*
X004864Y004683D02*
X004691Y004683D01*
X004593Y004585D02*
X004864Y004585D01*
X004763Y004289D02*
X004691Y004289D01*
X004008Y003501D02*
X003481Y003501D01*
X003579Y003600D02*
X003909Y003600D01*
X003811Y003698D02*
X003678Y003698D01*
X007019Y010101D02*
X007369Y010101D01*
X007270Y010199D02*
X006924Y010199D01*
X006924Y010298D02*
X007172Y010298D01*
X007073Y010396D02*
X006924Y010396D01*
X006924Y010495D02*
X007064Y010495D01*
X007064Y010593D02*
X006924Y010593D01*
X006924Y010692D02*
X007064Y010692D01*
X007064Y010790D02*
X006924Y010790D01*
X006924Y010889D02*
X007064Y010889D01*
X007064Y010987D02*
X006924Y010987D01*
X006924Y011086D02*
X007064Y011086D01*
X007064Y011184D02*
X006924Y011184D01*
X006924Y011283D02*
X007064Y011283D01*
X006993Y011381D02*
X006924Y011381D01*
X006924Y011480D02*
X006946Y011480D01*
X006924Y011578D02*
X006926Y011578D01*
X006924Y011677D02*
X006928Y011677D01*
X006924Y011775D02*
X006968Y011775D01*
X006924Y011874D02*
X007047Y011874D01*
X007002Y011972D02*
X006924Y011972D01*
X006924Y012071D02*
X006949Y012071D01*
X006926Y012169D02*
X006924Y012169D01*
X006924Y012268D02*
X006926Y012268D01*
X006924Y012366D02*
X006965Y012366D01*
X006924Y012465D02*
X007038Y012465D01*
X006924Y012563D02*
X007209Y012563D01*
X007380Y012563D02*
X008011Y012563D01*
X008064Y012465D02*
X007550Y012465D01*
X007754Y012366D02*
X008064Y012366D01*
X008064Y012268D02*
X007852Y012268D01*
X007951Y012169D02*
X008064Y012169D01*
X008064Y012071D02*
X008049Y012071D01*
X007894Y011900D02*
X007894Y010400D01*
X008527Y010593D02*
X008964Y010593D01*
X008964Y010495D02*
X008625Y010495D01*
X008724Y010396D02*
X008877Y010396D01*
X008836Y010298D02*
X008822Y010298D01*
X008964Y010692D02*
X008524Y010692D01*
X008524Y010790D02*
X008964Y010790D01*
X008964Y010889D02*
X008524Y010889D01*
X008524Y010987D02*
X008964Y010987D01*
X008964Y011086D02*
X008524Y011086D01*
X008524Y011184D02*
X008964Y011184D01*
X008964Y011283D02*
X008524Y011283D01*
X008524Y011381D02*
X008964Y011381D01*
X008964Y011480D02*
X008524Y011480D01*
X008524Y011578D02*
X008964Y011578D01*
X008964Y011677D02*
X008524Y011677D01*
X008524Y011775D02*
X008964Y011775D01*
X008964Y011874D02*
X008524Y011874D01*
X008524Y011972D02*
X008964Y011972D01*
X008964Y012071D02*
X008524Y012071D01*
X008524Y012169D02*
X008964Y012169D01*
X008964Y012268D02*
X008524Y012268D01*
X008524Y012366D02*
X008964Y012366D01*
X008964Y012465D02*
X008524Y012465D01*
X008578Y012563D02*
X008964Y012563D01*
X008964Y012662D02*
X008635Y012662D01*
X008662Y012760D02*
X008964Y012760D01*
X008964Y012859D02*
X008662Y012859D01*
X008628Y012957D02*
X009026Y012957D01*
X009125Y013056D02*
X008559Y013056D01*
X008402Y013154D02*
X009223Y013154D01*
X009322Y013253D02*
X007372Y013253D01*
X007471Y013351D02*
X009420Y013351D01*
X008578Y014336D02*
X011585Y014336D01*
X011585Y014238D02*
X008357Y014238D01*
X008259Y014139D02*
X011585Y014139D01*
X011585Y014041D02*
X008160Y014041D01*
X008062Y013942D02*
X011585Y013942D01*
X011585Y013844D02*
X007963Y013844D01*
X007865Y013745D02*
X011585Y013745D01*
X011585Y013647D02*
X007766Y013647D01*
X007668Y013548D02*
X011585Y013548D01*
X011585Y013450D02*
X007569Y013450D01*
X007274Y013154D02*
X008187Y013154D01*
X008029Y013056D02*
X007175Y013056D01*
X007077Y012957D02*
X007961Y012957D01*
X007926Y012859D02*
X006978Y012859D01*
X006924Y012760D02*
X007926Y012760D01*
X007953Y012662D02*
X006924Y012662D01*
X006525Y013056D02*
X006524Y013056D01*
X006524Y013154D02*
X006623Y013154D01*
X006567Y013253D02*
X006722Y013253D01*
X006631Y013351D02*
X006820Y013351D01*
X006919Y013450D02*
X006662Y013450D01*
X006662Y013548D02*
X007017Y013548D01*
X007116Y013647D02*
X006632Y013647D01*
X006570Y013745D02*
X007214Y013745D01*
X007313Y013844D02*
X006427Y013844D01*
X008749Y014435D02*
X011585Y014435D01*
X011585Y014533D02*
X008824Y014533D01*
X008862Y014632D02*
X011585Y014632D01*
X011585Y014730D02*
X008862Y014730D01*
X008840Y014829D02*
X011585Y014829D01*
X011585Y014927D02*
X008788Y014927D01*
X008670Y015026D02*
X011585Y015026D01*
X012083Y015715D02*
X012379Y015715D01*
X012141Y015814D02*
X012083Y015814D01*
X012903Y015715D02*
X017379Y015715D01*
X017141Y015814D02*
X013141Y015814D01*
X013241Y015912D02*
X017041Y015912D01*
X016943Y016011D02*
X013339Y016011D01*
X013411Y016109D02*
X016870Y016109D01*
X016830Y016208D02*
X013452Y016208D01*
X013493Y016306D02*
X016789Y016306D01*
X016754Y016405D02*
X013527Y016405D01*
X013527Y016503D02*
X016754Y016503D01*
X016754Y016602D02*
X013527Y016602D01*
X013527Y016700D02*
X016754Y016700D01*
X016777Y016799D02*
X013504Y016799D01*
X013463Y016897D02*
X016818Y016897D01*
X016859Y016996D02*
X013423Y016996D01*
X013367Y017094D02*
X016915Y017094D01*
X017013Y017193D02*
X013268Y017193D01*
X013170Y017291D02*
X017112Y017291D01*
X017312Y017390D02*
X012970Y017390D01*
X013413Y012563D02*
X013668Y012563D01*
X013570Y012465D02*
X013511Y012465D01*
X014212Y012563D02*
X014467Y012563D01*
X014369Y012465D02*
X014310Y012465D01*
X015011Y012563D02*
X015267Y012563D01*
X015168Y012465D02*
X015110Y012465D01*
X015111Y011874D02*
X015167Y011874D01*
X015266Y011775D02*
X015012Y011775D01*
X014969Y011677D02*
X018195Y011677D01*
X018195Y011775D02*
X017410Y011775D01*
X017508Y011874D02*
X018195Y011874D01*
X018195Y011972D02*
X017565Y011972D01*
X017606Y012071D02*
X018195Y012071D01*
X018195Y012169D02*
X017608Y012169D01*
X017606Y012268D02*
X018195Y012268D01*
X018195Y012366D02*
X017565Y012366D01*
X017507Y012465D02*
X018195Y012465D01*
X018195Y012563D02*
X017409Y012563D01*
X016865Y012563D02*
X016609Y012563D01*
X016708Y012465D02*
X016767Y012465D01*
X016765Y011874D02*
X016709Y011874D01*
X016611Y011775D02*
X016864Y011775D01*
X016695Y011578D02*
X014969Y011578D01*
X014969Y011480D02*
X016596Y011480D01*
X016548Y011381D02*
X014969Y011381D01*
X014969Y011283D02*
X016512Y011283D01*
X016512Y011184D02*
X014969Y011184D01*
X014969Y011086D02*
X016521Y011086D01*
X016065Y011775D02*
X015811Y011775D01*
X015910Y011874D02*
X015966Y011874D01*
X015967Y012465D02*
X015909Y012465D01*
X015810Y012563D02*
X016066Y012563D01*
X017272Y011578D02*
X017736Y011578D01*
X017747Y011586D02*
X017689Y011544D01*
X017639Y011494D01*
X017597Y011436D01*
X017565Y011373D01*
X017543Y011306D01*
X017534Y011250D01*
X017933Y011250D01*
X017933Y011649D01*
X017878Y011640D01*
X017810Y011618D01*
X017747Y011586D01*
X017629Y011480D02*
X017370Y011480D01*
X017418Y011381D02*
X017569Y011381D01*
X017540Y011283D02*
X017454Y011283D01*
X017454Y011184D02*
X017933Y011184D01*
X017933Y011283D02*
X018033Y011283D01*
X018033Y011381D02*
X017933Y011381D01*
X017933Y011480D02*
X018033Y011480D01*
X018033Y011578D02*
X017933Y011578D01*
X017546Y011086D02*
X017446Y011086D01*
X018551Y010593D02*
X018564Y010593D01*
X019024Y010593D02*
X021897Y010593D01*
X021897Y010495D02*
X021485Y010495D01*
X021460Y010520D02*
X021294Y010520D01*
X021294Y010050D01*
X021764Y010050D01*
X021764Y010215D01*
X021460Y010520D01*
X021294Y010495D02*
X021194Y010495D01*
X021194Y010520D02*
X021029Y010520D01*
X020744Y010235D01*
X020460Y010520D01*
X020294Y010520D01*
X020294Y010050D01*
X021194Y010050D01*
X021194Y010520D01*
X021194Y010396D02*
X021294Y010396D01*
X021294Y010298D02*
X021194Y010298D01*
X021194Y010199D02*
X021294Y010199D01*
X021294Y010101D02*
X021194Y010101D01*
X021194Y010002D02*
X020294Y010002D01*
X020294Y010101D02*
X020194Y010101D01*
X020194Y010050D02*
X020194Y010520D01*
X020029Y010520D01*
X019724Y010215D01*
X019724Y010050D01*
X020194Y010050D01*
X020194Y010002D02*
X019111Y010002D01*
X019152Y010101D02*
X019724Y010101D01*
X019724Y010199D02*
X019162Y010199D01*
X019152Y010298D02*
X019806Y010298D01*
X019905Y010396D02*
X019112Y010396D01*
X019024Y010495D02*
X020003Y010495D01*
X020194Y010495D02*
X020294Y010495D01*
X020294Y010396D02*
X020194Y010396D01*
X020194Y010298D02*
X020294Y010298D01*
X020294Y010199D02*
X020194Y010199D01*
X020485Y010495D02*
X021003Y010495D01*
X020905Y010396D02*
X020584Y010396D01*
X020682Y010298D02*
X020806Y010298D01*
X021294Y010002D02*
X021897Y010002D01*
X021897Y009904D02*
X021764Y009904D01*
X021764Y009805D02*
X021897Y009805D01*
X021897Y009707D02*
X021686Y009707D01*
X021588Y009608D02*
X021897Y009608D01*
X021897Y009510D02*
X021498Y009510D01*
X021597Y009411D02*
X021897Y009411D01*
X021897Y009313D02*
X021695Y009313D01*
X021784Y009214D02*
X021897Y009214D01*
X021897Y009116D02*
X021784Y009116D01*
X021784Y009017D02*
X021897Y009017D01*
X021897Y008919D02*
X021784Y008919D01*
X021784Y008820D02*
X021897Y008820D01*
X021897Y008722D02*
X021730Y008722D01*
X021764Y010101D02*
X021897Y010101D01*
X021897Y010199D02*
X021764Y010199D01*
X021682Y010298D02*
X021897Y010298D01*
X021897Y010396D02*
X021584Y010396D01*
X021897Y010692D02*
X019024Y010692D01*
X019024Y010790D02*
X021897Y010790D01*
X021897Y010889D02*
X019024Y010889D01*
X019024Y010987D02*
X021897Y010987D01*
X021897Y011086D02*
X019024Y011086D01*
X019024Y011184D02*
X021897Y011184D01*
X021897Y011283D02*
X019024Y011283D01*
X019024Y011381D02*
X021897Y011381D01*
X021897Y011480D02*
X019024Y011480D01*
X019024Y011578D02*
X021897Y011578D01*
X021897Y011677D02*
X019024Y011677D01*
X019024Y011775D02*
X021897Y011775D01*
X021897Y011874D02*
X019024Y011874D01*
X019024Y011972D02*
X021897Y011972D01*
X021897Y012071D02*
X019024Y012071D01*
X019024Y012169D02*
X021897Y012169D01*
X021897Y012268D02*
X019024Y012268D01*
X019024Y012366D02*
X021897Y012366D01*
X021897Y012465D02*
X019024Y012465D01*
X019024Y012563D02*
X021897Y012563D01*
X021897Y012662D02*
X019024Y012662D01*
X019024Y012760D02*
X021897Y012760D01*
X021897Y012859D02*
X019024Y012859D01*
X019024Y012957D02*
X021897Y012957D01*
X021897Y013056D02*
X018964Y013056D01*
X018866Y013154D02*
X021897Y013154D01*
X021897Y013253D02*
X018767Y013253D01*
X018692Y013351D02*
X021897Y013351D01*
X021897Y013450D02*
X018692Y013450D01*
X018692Y013548D02*
X021897Y013548D01*
X021897Y013647D02*
X018692Y013647D01*
X018692Y013745D02*
X021897Y013745D01*
X021897Y013844D02*
X018692Y013844D01*
X018692Y013942D02*
X021897Y013942D01*
X021897Y014041D02*
X018692Y014041D01*
X018692Y014139D02*
X021897Y014139D01*
X021897Y014238D02*
X018692Y014238D01*
X018692Y014336D02*
X021897Y014336D01*
X021897Y014435D02*
X018692Y014435D01*
X018692Y014533D02*
X021897Y014533D01*
X021897Y014632D02*
X018692Y014632D01*
X018692Y014730D02*
X021897Y014730D01*
X021897Y014829D02*
X018692Y014829D01*
X018692Y014927D02*
X021897Y014927D01*
X021897Y015026D02*
X018692Y015026D01*
X018692Y015124D02*
X021897Y015124D01*
X021897Y015223D02*
X018692Y015223D01*
X018692Y015321D02*
X021897Y015321D01*
X021897Y015420D02*
X018692Y015420D01*
X018692Y015518D02*
X021897Y015518D01*
X021897Y015617D02*
X018692Y015617D01*
X018692Y015715D02*
X021897Y015715D01*
X021897Y017390D02*
X021223Y017390D01*
X021135Y017345D02*
X021135Y017345D01*
X021416Y017488D02*
X021897Y017488D01*
X021897Y017587D02*
X021571Y017587D01*
X021532Y017547D02*
X021532Y017547D01*
X021670Y017685D02*
X021897Y017685D01*
X021897Y017784D02*
X021768Y017784D01*
X021857Y017882D02*
X021897Y017882D01*
X019724Y009904D02*
X019018Y009904D01*
X019590Y009707D02*
X014969Y009707D01*
X014969Y009805D02*
X019724Y009805D01*
X017542Y005373D02*
X017102Y005373D01*
X017146Y005274D02*
X017443Y005274D01*
X017345Y005176D02*
X017162Y005176D01*
X017158Y005077D02*
X017246Y005077D01*
X017148Y004979D02*
X017118Y004979D01*
X017049Y004880D02*
X017035Y004880D01*
X016951Y004782D02*
X016741Y004782D01*
X016643Y004683D02*
X016852Y004683D01*
X016754Y004585D02*
X016544Y004585D01*
X016446Y004486D02*
X016655Y004486D01*
X014605Y004880D02*
X014140Y004880D01*
X014041Y004979D02*
X014495Y004979D01*
X014447Y005077D02*
X013943Y005077D01*
X013844Y005176D02*
X014426Y005176D01*
X014427Y005274D02*
X013746Y005274D01*
X013647Y005373D02*
X014467Y005373D01*
X014509Y005471D02*
X013549Y005471D01*
X013450Y005570D02*
X014509Y005570D01*
X014509Y005668D02*
X013424Y005668D01*
X013424Y005767D02*
X014509Y005767D01*
X014509Y005865D02*
X013424Y005865D01*
X013424Y005964D02*
X014509Y005964D01*
X014509Y006062D02*
X013424Y006062D01*
X013424Y006161D02*
X014509Y006161D01*
X014509Y006259D02*
X013424Y006259D01*
X018914Y003304D02*
X021897Y003304D01*
X021897Y003206D02*
X019007Y003206D01*
X019063Y003107D02*
X021897Y003107D01*
X003416Y017390D02*
X002741Y017390D01*
X002741Y017488D02*
X003223Y017488D01*
X003067Y017587D02*
X002741Y017587D01*
X002741Y017685D02*
X002969Y017685D01*
X002870Y017784D02*
X002741Y017784D01*
X002741Y017882D02*
X002781Y017882D01*
D16*
X010963Y015831D03*
X011026Y003807D03*
D17*
X012294Y011200D02*
X012297Y011200D01*
X012297Y011882D01*
M02*
