G75*
G70*
%OFA0B0*%
%FSLAX24Y24*%
%IPPOS*%
%LPD*%
%AMOC8*
5,1,8,0,0,1.08239X$1,22.5*
%
%ADD10C,0.0595*%
%ADD11R,0.0631X0.0552*%
%ADD12R,0.0552X0.0631*%
%ADD13R,0.0552X0.0395*%
%ADD14C,0.1280*%
%ADD15C,0.1080*%
%ADD16R,0.1080X0.1080*%
%ADD17R,0.0749X0.1064*%
%ADD18R,0.0710X0.0789*%
%ADD19R,0.0474X0.1458*%
%ADD20R,0.0395X0.0552*%
%ADD21R,0.0330X0.0580*%
%ADD22R,0.1458X0.0867*%
%ADD23R,0.0789X0.0710*%
%ADD24R,0.0300X0.0860*%
%ADD25C,0.0820*%
%ADD26R,0.0880X0.0880*%
%ADD27C,0.0880*%
%ADD28C,0.0476*%
D10*
X008220Y005014D03*
X008220Y005801D03*
X008220Y006589D03*
X008220Y007376D03*
X008220Y008164D03*
X008220Y008951D03*
X008220Y009738D03*
X008220Y010526D03*
X008220Y011313D03*
X008220Y012101D03*
X016881Y012101D03*
X016881Y011313D03*
X016881Y010526D03*
X016881Y009738D03*
X016881Y008951D03*
X016881Y008164D03*
X016881Y007376D03*
X016881Y006589D03*
X016881Y005801D03*
X016881Y005014D03*
D11*
X018250Y005367D03*
X018250Y006548D03*
D12*
X014641Y013157D03*
X013460Y013157D03*
D13*
X014650Y012312D03*
X014650Y011603D03*
X018250Y008312D03*
X018250Y007603D03*
D14*
X001600Y001857D03*
X001600Y014307D03*
X018550Y014257D03*
X018800Y001857D03*
D15*
X015600Y004307D03*
X015600Y008057D03*
X009350Y005557D03*
X009350Y004307D03*
D16*
X009350Y008057D03*
D17*
X010675Y005557D03*
X012250Y005557D03*
D18*
X010701Y006857D03*
X009599Y006857D03*
X011149Y008807D03*
X012251Y008807D03*
X006301Y010957D03*
X005199Y010957D03*
X004201Y010957D03*
X003099Y010957D03*
X004699Y012157D03*
X005801Y012157D03*
D19*
X010150Y011271D03*
X010150Y013043D03*
D20*
X015196Y003057D03*
X015905Y003057D03*
D21*
X014250Y009624D03*
X013750Y009624D03*
X013250Y009624D03*
X012750Y009624D03*
X012250Y009624D03*
D22*
X013250Y011917D03*
D23*
X015550Y010609D03*
X015550Y009506D03*
X001850Y008509D03*
X001850Y007406D03*
D24*
X002700Y009197D03*
X003200Y009197D03*
X003700Y009197D03*
X004200Y009197D03*
X004700Y009197D03*
X005200Y009197D03*
X005700Y009197D03*
X006200Y009197D03*
X006200Y005517D03*
X005700Y005517D03*
X005200Y005517D03*
X004700Y005517D03*
X004200Y005517D03*
X003700Y005517D03*
X003200Y005517D03*
X002700Y005517D03*
D25*
X003650Y003107D03*
X004650Y003007D03*
X005650Y003107D03*
D26*
X011250Y001557D03*
X013250Y001557D03*
D27*
X014628Y001557D03*
X009872Y001557D03*
D28*
X008150Y001557D03*
X006950Y006457D03*
X001650Y003957D03*
X012150Y013257D03*
X018250Y009457D03*
X016250Y001557D03*
M02*
