G75*
G70*
%OFA0B0*%
%FSLAX24Y24*%
%IPPOS*%
%LPD*%
%AMOC8*
5,1,8,0,0,1.08239X$1,22.5*
%
%ADD10C,0.0595*%
%ADD11C,0.0820*%
%ADD12R,0.0330X0.0580*%
%ADD13R,0.1458X0.0867*%
%ADD14R,0.0710X0.0789*%
%ADD15R,0.0789X0.0710*%
%ADD16R,0.0631X0.0552*%
%ADD17R,0.0552X0.0395*%
%ADD18R,0.1084X0.1084*%
%ADD19C,0.1084*%
%ADD20C,0.1280*%
%ADD21C,0.0476*%
D10*
X003769Y004557D03*
X003769Y005344D03*
X003769Y006131D03*
X003769Y006919D03*
X003769Y007706D03*
X003769Y008494D03*
X003769Y009281D03*
X003769Y010069D03*
X003769Y010856D03*
X003769Y011643D03*
X012431Y011643D03*
X012431Y010856D03*
X012431Y010069D03*
X012431Y009281D03*
X012431Y008494D03*
X012431Y007706D03*
X012431Y006919D03*
X012431Y006131D03*
X012431Y005344D03*
X012431Y004557D03*
D11*
X015100Y009730D03*
X015100Y010870D03*
X001100Y011300D03*
X001100Y010300D03*
X001100Y009300D03*
X001100Y008300D03*
X001100Y007300D03*
X001100Y006300D03*
D12*
X007600Y008767D03*
X008100Y008767D03*
X008600Y008767D03*
X009100Y008767D03*
X009600Y008767D03*
D13*
X008600Y011060D03*
D14*
X008651Y007100D03*
X007549Y007100D03*
D15*
X006200Y009949D03*
X006200Y011051D03*
D16*
X002000Y004891D03*
X000900Y004891D03*
X000900Y003709D03*
X002000Y003709D03*
D17*
X005000Y006946D03*
X005000Y007654D03*
X006100Y007654D03*
X006100Y006946D03*
D18*
X015300Y007380D03*
D19*
X015300Y005820D03*
D20*
X001600Y001600D03*
X014900Y001600D03*
X014800Y013700D03*
X001700Y013700D03*
D21*
X005200Y010100D03*
M02*
