G75*
G70*
%OFA0B0*%
%FSLAX24Y24*%
%IPPOS*%
%LPD*%
%AMOC8*
5,1,8,0,0,1.08239X$1,22.5*
%
%ADD10C,0.0000*%
%ADD11C,0.0060*%
%ADD12C,0.0515*%
%ADD13R,0.0551X0.0472*%
%ADD14R,0.0472X0.0551*%
%ADD15R,0.0472X0.0315*%
%ADD16C,0.1000*%
%ADD17R,0.1000X0.1000*%
%ADD18R,0.0669X0.0984*%
%ADD19R,0.0630X0.0709*%
%ADD20R,0.0394X0.1378*%
%ADD21R,0.0315X0.0472*%
%ADD22R,0.0250X0.0500*%
%ADD23R,0.1378X0.0787*%
%ADD24R,0.0709X0.0630*%
%ADD25R,0.0220X0.0780*%
%ADD26C,0.0740*%
%ADD27R,0.0800X0.0800*%
%ADD28C,0.0800*%
%ADD29C,0.0240*%
%ADD30C,0.0120*%
%ADD31C,0.0160*%
%ADD32C,0.0396*%
D10*
X001947Y000407D02*
X018912Y000407D01*
X018200Y001857D02*
X018202Y001906D01*
X018208Y001954D01*
X018218Y002002D01*
X018232Y002049D01*
X018249Y002095D01*
X018270Y002139D01*
X018295Y002181D01*
X018323Y002221D01*
X018355Y002259D01*
X018389Y002294D01*
X018426Y002326D01*
X018465Y002355D01*
X018507Y002381D01*
X018551Y002403D01*
X018596Y002421D01*
X018643Y002436D01*
X018690Y002447D01*
X018739Y002454D01*
X018788Y002457D01*
X018837Y002456D01*
X018885Y002451D01*
X018934Y002442D01*
X018981Y002429D01*
X019027Y002412D01*
X019071Y002392D01*
X019114Y002368D01*
X019155Y002341D01*
X019193Y002310D01*
X019229Y002277D01*
X019261Y002241D01*
X019291Y002202D01*
X019318Y002161D01*
X019341Y002117D01*
X019360Y002072D01*
X019376Y002026D01*
X019388Y001979D01*
X019396Y001930D01*
X019400Y001881D01*
X019400Y001833D01*
X019396Y001784D01*
X019388Y001735D01*
X019376Y001688D01*
X019360Y001642D01*
X019341Y001597D01*
X019318Y001553D01*
X019291Y001512D01*
X019261Y001473D01*
X019229Y001437D01*
X019193Y001404D01*
X019155Y001373D01*
X019114Y001346D01*
X019071Y001322D01*
X019027Y001302D01*
X018981Y001285D01*
X018934Y001272D01*
X018885Y001263D01*
X018837Y001258D01*
X018788Y001257D01*
X018739Y001260D01*
X018690Y001267D01*
X018643Y001278D01*
X018596Y001293D01*
X018551Y001311D01*
X018507Y001333D01*
X018465Y001359D01*
X018426Y001388D01*
X018389Y001420D01*
X018355Y001455D01*
X018323Y001493D01*
X018295Y001533D01*
X018270Y001575D01*
X018249Y001619D01*
X018232Y001665D01*
X018218Y001712D01*
X018208Y001760D01*
X018202Y001808D01*
X018200Y001857D01*
X018912Y000407D02*
X018987Y000418D01*
X019061Y000433D01*
X019134Y000451D01*
X019207Y000473D01*
X019278Y000498D01*
X019348Y000528D01*
X019416Y000560D01*
X019483Y000596D01*
X019547Y000636D01*
X019610Y000679D01*
X019670Y000724D01*
X019728Y000773D01*
X019783Y000825D01*
X019836Y000879D01*
X019885Y000936D01*
X019932Y000995D01*
X019976Y001057D01*
X020017Y001121D01*
X020054Y001187D01*
X020088Y001254D01*
X020118Y001323D01*
X020145Y001394D01*
X020169Y001466D01*
X020188Y001539D01*
X020204Y001613D01*
X020216Y001688D01*
X020225Y001763D01*
X020229Y001838D01*
X020230Y001914D01*
X020227Y001990D01*
X020220Y002065D01*
X020220Y014273D01*
X020221Y014273D02*
X020209Y014350D01*
X020194Y014427D01*
X020176Y014503D01*
X020153Y014578D01*
X020128Y014652D01*
X020098Y014724D01*
X020066Y014795D01*
X020030Y014865D01*
X019990Y014932D01*
X019948Y014998D01*
X019902Y015062D01*
X019854Y015123D01*
X019802Y015182D01*
X019748Y015238D01*
X019691Y015292D01*
X019632Y015343D01*
X019571Y015391D01*
X019507Y015436D01*
X019441Y015479D01*
X019373Y015517D01*
X019303Y015553D01*
X019232Y015585D01*
X019159Y015614D01*
X019086Y015639D01*
X019010Y015661D01*
X018934Y015680D01*
X018858Y015694D01*
X018780Y015705D01*
X018702Y015712D01*
X018624Y015716D01*
X018546Y015715D01*
X018468Y015711D01*
X018390Y015704D01*
X018390Y015703D02*
X001566Y015703D01*
X001000Y014307D02*
X001002Y014356D01*
X001008Y014404D01*
X001018Y014452D01*
X001032Y014499D01*
X001049Y014545D01*
X001070Y014589D01*
X001095Y014631D01*
X001123Y014671D01*
X001155Y014709D01*
X001189Y014744D01*
X001226Y014776D01*
X001265Y014805D01*
X001307Y014831D01*
X001351Y014853D01*
X001396Y014871D01*
X001443Y014886D01*
X001490Y014897D01*
X001539Y014904D01*
X001588Y014907D01*
X001637Y014906D01*
X001685Y014901D01*
X001734Y014892D01*
X001781Y014879D01*
X001827Y014862D01*
X001871Y014842D01*
X001914Y014818D01*
X001955Y014791D01*
X001993Y014760D01*
X002029Y014727D01*
X002061Y014691D01*
X002091Y014652D01*
X002118Y014611D01*
X002141Y014567D01*
X002160Y014522D01*
X002176Y014476D01*
X002188Y014429D01*
X002196Y014380D01*
X002200Y014331D01*
X002200Y014283D01*
X002196Y014234D01*
X002188Y014185D01*
X002176Y014138D01*
X002160Y014092D01*
X002141Y014047D01*
X002118Y014003D01*
X002091Y013962D01*
X002061Y013923D01*
X002029Y013887D01*
X001993Y013854D01*
X001955Y013823D01*
X001914Y013796D01*
X001871Y013772D01*
X001827Y013752D01*
X001781Y013735D01*
X001734Y013722D01*
X001685Y013713D01*
X001637Y013708D01*
X001588Y013707D01*
X001539Y013710D01*
X001490Y013717D01*
X001443Y013728D01*
X001396Y013743D01*
X001351Y013761D01*
X001307Y013783D01*
X001265Y013809D01*
X001226Y013838D01*
X001189Y013870D01*
X001155Y013905D01*
X001123Y013943D01*
X001095Y013983D01*
X001070Y014025D01*
X001049Y014069D01*
X001032Y014115D01*
X001018Y014162D01*
X001008Y014210D01*
X001002Y014258D01*
X001000Y014307D01*
X000100Y014187D02*
X000101Y014263D01*
X000105Y014338D01*
X000114Y014413D01*
X000126Y014488D01*
X000142Y014561D01*
X000161Y014634D01*
X000184Y014706D01*
X000211Y014777D01*
X000242Y014846D01*
X000275Y014914D01*
X000313Y014979D01*
X000353Y015043D01*
X000397Y015105D01*
X000444Y015164D01*
X000493Y015221D01*
X000546Y015275D01*
X000601Y015327D01*
X000659Y015376D01*
X000719Y015421D01*
X000781Y015464D01*
X000846Y015503D01*
X000912Y015539D01*
X000980Y015572D01*
X001050Y015601D01*
X001121Y015627D01*
X001193Y015649D01*
X001266Y015667D01*
X001341Y015682D01*
X001415Y015693D01*
X001491Y015700D01*
X001566Y015703D01*
X000100Y014187D02*
X000100Y002154D01*
X001000Y001857D02*
X001002Y001906D01*
X001008Y001954D01*
X001018Y002002D01*
X001032Y002049D01*
X001049Y002095D01*
X001070Y002139D01*
X001095Y002181D01*
X001123Y002221D01*
X001155Y002259D01*
X001189Y002294D01*
X001226Y002326D01*
X001265Y002355D01*
X001307Y002381D01*
X001351Y002403D01*
X001396Y002421D01*
X001443Y002436D01*
X001490Y002447D01*
X001539Y002454D01*
X001588Y002457D01*
X001637Y002456D01*
X001685Y002451D01*
X001734Y002442D01*
X001781Y002429D01*
X001827Y002412D01*
X001871Y002392D01*
X001914Y002368D01*
X001955Y002341D01*
X001993Y002310D01*
X002029Y002277D01*
X002061Y002241D01*
X002091Y002202D01*
X002118Y002161D01*
X002141Y002117D01*
X002160Y002072D01*
X002176Y002026D01*
X002188Y001979D01*
X002196Y001930D01*
X002200Y001881D01*
X002200Y001833D01*
X002196Y001784D01*
X002188Y001735D01*
X002176Y001688D01*
X002160Y001642D01*
X002141Y001597D01*
X002118Y001553D01*
X002091Y001512D01*
X002061Y001473D01*
X002029Y001437D01*
X001993Y001404D01*
X001955Y001373D01*
X001914Y001346D01*
X001871Y001322D01*
X001827Y001302D01*
X001781Y001285D01*
X001734Y001272D01*
X001685Y001263D01*
X001637Y001258D01*
X001588Y001257D01*
X001539Y001260D01*
X001490Y001267D01*
X001443Y001278D01*
X001396Y001293D01*
X001351Y001311D01*
X001307Y001333D01*
X001265Y001359D01*
X001226Y001388D01*
X001189Y001420D01*
X001155Y001455D01*
X001123Y001493D01*
X001095Y001533D01*
X001070Y001575D01*
X001049Y001619D01*
X001032Y001665D01*
X001018Y001712D01*
X001008Y001760D01*
X001002Y001808D01*
X001000Y001857D01*
X000100Y002154D02*
X000104Y002069D01*
X000113Y001983D01*
X000125Y001899D01*
X000142Y001815D01*
X000162Y001732D01*
X000187Y001650D01*
X000215Y001569D01*
X000247Y001490D01*
X000283Y001412D01*
X000322Y001336D01*
X000365Y001262D01*
X000412Y001190D01*
X000462Y001121D01*
X000515Y001054D01*
X000571Y000989D01*
X000631Y000928D01*
X000693Y000869D01*
X000758Y000813D01*
X000825Y000760D01*
X000895Y000711D01*
X000967Y000665D01*
X001042Y000622D01*
X001118Y000584D01*
X001196Y000548D01*
X001275Y000517D01*
X001356Y000489D01*
X001439Y000465D01*
X001522Y000446D01*
X001606Y000430D01*
X001691Y000418D01*
X001776Y000410D01*
X001861Y000406D01*
X001947Y000407D01*
X017950Y014257D02*
X017952Y014306D01*
X017958Y014354D01*
X017968Y014402D01*
X017982Y014449D01*
X017999Y014495D01*
X018020Y014539D01*
X018045Y014581D01*
X018073Y014621D01*
X018105Y014659D01*
X018139Y014694D01*
X018176Y014726D01*
X018215Y014755D01*
X018257Y014781D01*
X018301Y014803D01*
X018346Y014821D01*
X018393Y014836D01*
X018440Y014847D01*
X018489Y014854D01*
X018538Y014857D01*
X018587Y014856D01*
X018635Y014851D01*
X018684Y014842D01*
X018731Y014829D01*
X018777Y014812D01*
X018821Y014792D01*
X018864Y014768D01*
X018905Y014741D01*
X018943Y014710D01*
X018979Y014677D01*
X019011Y014641D01*
X019041Y014602D01*
X019068Y014561D01*
X019091Y014517D01*
X019110Y014472D01*
X019126Y014426D01*
X019138Y014379D01*
X019146Y014330D01*
X019150Y014281D01*
X019150Y014233D01*
X019146Y014184D01*
X019138Y014135D01*
X019126Y014088D01*
X019110Y014042D01*
X019091Y013997D01*
X019068Y013953D01*
X019041Y013912D01*
X019011Y013873D01*
X018979Y013837D01*
X018943Y013804D01*
X018905Y013773D01*
X018864Y013746D01*
X018821Y013722D01*
X018777Y013702D01*
X018731Y013685D01*
X018684Y013672D01*
X018635Y013663D01*
X018587Y013658D01*
X018538Y013657D01*
X018489Y013660D01*
X018440Y013667D01*
X018393Y013678D01*
X018346Y013693D01*
X018301Y013711D01*
X018257Y013733D01*
X018215Y013759D01*
X018176Y013788D01*
X018139Y013820D01*
X018105Y013855D01*
X018073Y013893D01*
X018045Y013933D01*
X018020Y013975D01*
X017999Y014019D01*
X017982Y014065D01*
X017968Y014112D01*
X017958Y014160D01*
X017952Y014208D01*
X017950Y014257D01*
D11*
X007452Y003428D02*
X007025Y002787D01*
X007452Y002787D02*
X007025Y003428D01*
X006807Y003428D02*
X006380Y003428D01*
X006594Y003428D02*
X006594Y002787D01*
D12*
X008220Y005014D03*
X008220Y005801D03*
X008220Y006589D03*
X008220Y007376D03*
X008220Y008164D03*
X008220Y008951D03*
X008220Y009738D03*
X008220Y010526D03*
X008220Y011313D03*
X008220Y012101D03*
X016881Y012101D03*
X016881Y011313D03*
X016881Y010526D03*
X016881Y009738D03*
X016881Y008951D03*
X016881Y008164D03*
X016881Y007376D03*
X016881Y006589D03*
X016881Y005801D03*
X016881Y005014D03*
D13*
X018250Y005367D03*
X018250Y006548D03*
D14*
X014641Y013157D03*
X013460Y013157D03*
D15*
X014650Y012312D03*
X014650Y011603D03*
X018250Y008312D03*
X018250Y007603D03*
D16*
X015600Y008057D03*
X015600Y004307D03*
X009350Y004307D03*
X009350Y005557D03*
D17*
X009350Y008057D03*
D18*
X010675Y005557D03*
X012250Y005557D03*
D19*
X010701Y006857D03*
X009599Y006857D03*
X011149Y008807D03*
X012251Y008807D03*
X006301Y010957D03*
X005199Y010957D03*
X004201Y010957D03*
X003099Y010957D03*
X004699Y012157D03*
X005801Y012157D03*
D20*
X010150Y011271D03*
X010150Y013043D03*
D21*
X015196Y003057D03*
X015905Y003057D03*
D22*
X014250Y009624D03*
X013750Y009624D03*
X013250Y009624D03*
X012750Y009624D03*
X012250Y009624D03*
D23*
X013250Y011917D03*
D24*
X015550Y010609D03*
X015550Y009506D03*
X001850Y008509D03*
X001850Y007406D03*
D25*
X002700Y009197D03*
X003200Y009197D03*
X003700Y009197D03*
X004200Y009197D03*
X004700Y009197D03*
X005200Y009197D03*
X005700Y009197D03*
X006200Y009197D03*
X006200Y005517D03*
X005700Y005517D03*
X005200Y005517D03*
X004700Y005517D03*
X004200Y005517D03*
X003700Y005517D03*
X003200Y005517D03*
X002700Y005517D03*
D26*
X003650Y003107D03*
X004650Y003007D03*
X005650Y003107D03*
D27*
X011250Y001557D03*
X013250Y001557D03*
D28*
X014628Y001557D03*
X009872Y001557D03*
D29*
X011250Y001557D02*
X011250Y001778D01*
X012250Y002778D01*
X012250Y005557D01*
X013250Y004557D02*
X013250Y001557D01*
X013250Y004557D02*
X015250Y006557D01*
X015250Y007707D01*
X015600Y008057D01*
X015500Y007957D02*
X012450Y007957D01*
X012251Y008156D01*
X012251Y008807D01*
X012250Y008809D02*
X012250Y009624D01*
X012750Y009624D01*
X012234Y009607D02*
X010300Y009607D01*
X010150Y009757D01*
X010150Y011271D01*
X010136Y011257D02*
X009650Y011257D01*
X009450Y011457D01*
X009450Y012557D01*
X008650Y013357D01*
X007550Y013357D01*
X007550Y005607D01*
X007350Y005407D01*
X006310Y005407D01*
X005200Y005517D02*
X005200Y003557D01*
X005650Y003107D01*
X004700Y003057D02*
X004700Y005517D01*
X004200Y005517D02*
X004200Y004907D01*
X004050Y004757D01*
X001850Y004757D01*
X001650Y004757D01*
X000650Y005757D01*
X000650Y010957D01*
X004350Y014657D01*
X004650Y014657D01*
X015750Y014657D01*
X016150Y014657D01*
X018050Y012757D01*
X018050Y010757D01*
X017850Y010557D01*
X016912Y010557D01*
X016881Y011313D02*
X017206Y011313D01*
X017650Y011757D01*
X017650Y012157D01*
X015650Y014157D01*
X015550Y014157D02*
X004850Y014157D01*
X004650Y014157D01*
X001150Y010657D01*
X001150Y006957D01*
X001550Y006557D01*
X003300Y006557D01*
X003400Y006557D02*
X003700Y006257D01*
X003700Y005517D01*
X005850Y008457D02*
X006850Y008457D01*
X007050Y008657D01*
X007050Y011757D01*
X006650Y012157D01*
X005801Y012157D01*
X004699Y012157D02*
X004699Y013006D01*
X005050Y013357D01*
X007550Y013357D01*
X005700Y009197D02*
X005700Y008607D01*
X005850Y008457D01*
X009350Y005557D02*
X010675Y005557D01*
X013750Y009624D02*
X013750Y010703D01*
X014650Y011603D01*
X015550Y011603D01*
X016383Y011603D01*
X016881Y012101D01*
X014650Y012312D02*
X014650Y013148D01*
D30*
X014641Y013157D01*
X012250Y009624D02*
X012234Y009607D01*
X012250Y008809D02*
X012251Y008807D01*
X010701Y006857D02*
X010701Y005583D01*
X010675Y005557D01*
X006310Y005407D02*
X006200Y005517D01*
X004700Y003057D02*
X004650Y003007D01*
X004250Y010909D02*
X004201Y010957D01*
X005199Y010957D02*
X005200Y010956D01*
X006200Y010856D02*
X006301Y010957D01*
X003150Y010906D02*
X003099Y010957D01*
X010136Y011257D02*
X010150Y011271D01*
X015500Y007957D02*
X015600Y008057D01*
X015600Y004307D02*
X015600Y004207D01*
X015050Y003657D01*
X015050Y003203D01*
X015196Y003057D01*
D31*
X014758Y003019D02*
X014758Y002765D01*
X014801Y002662D01*
X014880Y002584D01*
X014983Y002541D01*
X015409Y002541D01*
X015512Y002584D01*
X015591Y002662D01*
X015608Y002705D01*
X015637Y002677D01*
X015678Y002653D01*
X015723Y002641D01*
X015905Y002641D01*
X016086Y002641D01*
X016131Y002653D01*
X016173Y002677D01*
X016206Y002711D01*
X016230Y002752D01*
X016242Y002797D01*
X016242Y003057D01*
X015905Y003057D01*
X015905Y003057D01*
X015905Y002641D01*
X015905Y003057D01*
X015905Y003057D01*
X016242Y003057D01*
X016242Y003317D01*
X016230Y003363D01*
X016206Y003404D01*
X016173Y003438D01*
X016131Y003461D01*
X016086Y003474D01*
X015905Y003474D01*
X015905Y003057D01*
X015905Y003057D01*
X015905Y003474D01*
X015723Y003474D01*
X015678Y003461D01*
X015637Y003438D01*
X015608Y003409D01*
X015591Y003452D01*
X015516Y003527D01*
X015755Y003527D01*
X016042Y003646D01*
X016261Y003865D01*
X016380Y004152D01*
X016380Y004462D01*
X016261Y004749D01*
X016042Y004969D01*
X015755Y005087D01*
X015445Y005087D01*
X015158Y004969D01*
X014939Y004749D01*
X014820Y004462D01*
X014820Y004152D01*
X014892Y003980D01*
X014858Y003946D01*
X014762Y003850D01*
X014710Y003725D01*
X014710Y003135D01*
X014758Y003019D01*
X014728Y003093D02*
X013610Y003093D01*
X013610Y002935D02*
X014758Y002935D01*
X014758Y002776D02*
X013610Y002776D01*
X013610Y002618D02*
X014846Y002618D01*
X014764Y002123D02*
X014674Y002137D01*
X014666Y002137D01*
X014666Y001595D01*
X015208Y001595D01*
X015208Y001603D01*
X015194Y001693D01*
X015166Y001780D01*
X015124Y001861D01*
X015071Y001935D01*
X015006Y002000D01*
X014932Y002053D01*
X014851Y002095D01*
X014764Y002123D01*
X014666Y001984D02*
X014590Y001984D01*
X014590Y002137D02*
X014583Y002137D01*
X014492Y002123D01*
X014406Y002095D01*
X014324Y002053D01*
X014250Y002000D01*
X014186Y001935D01*
X014132Y001861D01*
X014091Y001780D01*
X014062Y001693D01*
X014048Y001603D01*
X014048Y001595D01*
X014590Y001595D01*
X014590Y001519D01*
X014666Y001519D01*
X014666Y000977D01*
X014674Y000977D01*
X014764Y000992D01*
X014851Y001020D01*
X014932Y001061D01*
X015006Y001115D01*
X015071Y001179D01*
X015124Y001253D01*
X015166Y001335D01*
X015194Y001422D01*
X015208Y001512D01*
X015208Y001519D01*
X014666Y001519D01*
X014666Y001595D01*
X014590Y001595D01*
X014590Y002137D01*
X014590Y001825D02*
X014666Y001825D01*
X014666Y001667D02*
X014590Y001667D01*
X014590Y001519D02*
X014048Y001519D01*
X014048Y001512D01*
X014062Y001422D01*
X014091Y001335D01*
X014132Y001253D01*
X014186Y001179D01*
X014250Y001115D01*
X014324Y001061D01*
X014406Y001020D01*
X014492Y000992D01*
X014583Y000977D01*
X014590Y000977D01*
X014590Y001519D01*
X014590Y001508D02*
X014666Y001508D01*
X014666Y001350D02*
X014590Y001350D01*
X014590Y001191D02*
X014666Y001191D01*
X014666Y001033D02*
X014590Y001033D01*
X014380Y001033D02*
X013858Y001033D01*
X013854Y001021D02*
X013890Y001110D01*
X013890Y002005D01*
X013854Y002093D01*
X013786Y002161D01*
X013698Y002197D01*
X013610Y002197D01*
X013610Y004408D01*
X015454Y006252D01*
X015555Y006353D01*
X015610Y006486D01*
X015610Y007317D01*
X015747Y007317D01*
X016019Y007430D01*
X016228Y007638D01*
X016340Y007910D01*
X016340Y008205D01*
X016228Y008476D01*
X016019Y008685D01*
X015747Y008797D01*
X015453Y008797D01*
X015181Y008685D01*
X014973Y008476D01*
X014907Y008317D01*
X012770Y008317D01*
X012806Y008405D01*
X012806Y009134D01*
X012923Y009134D01*
X013011Y009170D01*
X013050Y009209D01*
X013056Y009206D01*
X013102Y009194D01*
X013250Y009194D01*
X013250Y009624D01*
X013250Y010054D01*
X013102Y010054D01*
X013056Y010042D01*
X013050Y010038D01*
X013011Y010077D01*
X012923Y010114D01*
X012577Y010114D01*
X012500Y010082D01*
X012423Y010114D01*
X012077Y010114D01*
X011989Y010077D01*
X011922Y010010D01*
X011904Y009967D01*
X010510Y009967D01*
X010510Y010406D01*
X010551Y010447D01*
X010587Y010535D01*
X010587Y012008D01*
X010551Y012096D01*
X010483Y012164D01*
X010422Y012189D01*
X010458Y012210D01*
X010491Y012244D01*
X010515Y012285D01*
X010527Y012330D01*
X010527Y013025D01*
X010169Y013025D01*
X010169Y013062D01*
X010527Y013062D01*
X010527Y013756D01*
X010516Y013797D01*
X015501Y013797D01*
X016724Y012574D01*
X016599Y012522D01*
X016459Y012382D01*
X016383Y012200D01*
X016383Y012112D01*
X016234Y011963D01*
X015035Y011963D01*
X015090Y012018D01*
X015126Y012106D01*
X015126Y012517D01*
X015090Y012605D01*
X015022Y012673D01*
X015011Y012677D01*
X015013Y012678D01*
X015080Y012746D01*
X015117Y012834D01*
X015117Y013481D01*
X015080Y013569D01*
X015013Y013636D01*
X014925Y013673D01*
X014357Y013673D01*
X014269Y013636D01*
X014201Y013569D01*
X014165Y013481D01*
X014165Y012834D01*
X014201Y012746D01*
X014269Y012678D01*
X014280Y012673D01*
X014278Y012673D01*
X014211Y012605D01*
X014174Y012517D01*
X014174Y012106D01*
X014211Y012018D01*
X014271Y011957D01*
X014211Y011896D01*
X014174Y011808D01*
X014174Y011636D01*
X014119Y011581D01*
X014119Y011837D01*
X013330Y011837D01*
X013330Y011343D01*
X013882Y011343D01*
X013445Y010907D01*
X013390Y010775D01*
X013390Y010054D01*
X013250Y010054D01*
X013250Y009624D01*
X013250Y009624D01*
X013250Y009624D01*
X013250Y009194D01*
X013399Y009194D01*
X013445Y009206D01*
X013450Y009209D01*
X013489Y009170D01*
X013577Y009134D01*
X013923Y009134D01*
X014000Y009166D01*
X014077Y009134D01*
X014423Y009134D01*
X014511Y009170D01*
X014579Y009238D01*
X014615Y009326D01*
X014615Y009922D01*
X014579Y010010D01*
X014511Y010077D01*
X014423Y010114D01*
X014110Y010114D01*
X014110Y010554D01*
X014762Y011206D01*
X014934Y011206D01*
X015022Y011242D01*
X015023Y011243D01*
X015230Y011243D01*
X015230Y011163D01*
X015148Y011163D01*
X015060Y011127D01*
X014992Y011059D01*
X014956Y010971D01*
X014956Y010246D01*
X014992Y010158D01*
X015060Y010090D01*
X015148Y010054D01*
X015952Y010054D01*
X016040Y010090D01*
X016108Y010158D01*
X016145Y010246D01*
X016145Y010971D01*
X016108Y011059D01*
X016040Y011127D01*
X015952Y011163D01*
X015870Y011163D01*
X015870Y011243D01*
X016383Y011243D01*
X016383Y011214D01*
X016459Y011031D01*
X016571Y010920D01*
X016459Y010808D01*
X016383Y010625D01*
X016383Y010427D01*
X016459Y010244D01*
X016571Y010132D01*
X016459Y010020D01*
X016383Y009837D01*
X016383Y009639D01*
X016459Y009457D01*
X016571Y009345D01*
X016459Y009233D01*
X016383Y009050D01*
X016383Y008852D01*
X016459Y008669D01*
X016571Y008557D01*
X016459Y008445D01*
X016383Y008263D01*
X016383Y008065D01*
X016459Y007882D01*
X016571Y007770D01*
X016459Y007658D01*
X016383Y007475D01*
X016383Y007277D01*
X016459Y007094D01*
X016571Y006983D01*
X016459Y006871D01*
X016383Y006688D01*
X016383Y006490D01*
X016459Y006307D01*
X016571Y006195D01*
X016459Y006083D01*
X016383Y005900D01*
X016383Y005702D01*
X016459Y005520D01*
X016599Y005380D01*
X016625Y005369D01*
X016596Y005348D01*
X016547Y005299D01*
X016507Y005243D01*
X016475Y005182D01*
X016454Y005116D01*
X016443Y005048D01*
X016443Y005014D01*
X016443Y004980D01*
X016454Y004912D01*
X016475Y004846D01*
X016507Y004785D01*
X016547Y004729D01*
X016596Y004680D01*
X016652Y004640D01*
X016713Y004609D01*
X016778Y004587D01*
X016846Y004577D01*
X016881Y004577D01*
X016915Y004577D01*
X016983Y004587D01*
X017049Y004609D01*
X017110Y004640D01*
X017166Y004680D01*
X017215Y004729D01*
X017255Y004785D01*
X017286Y004846D01*
X017308Y004912D01*
X017318Y004980D01*
X017318Y005014D01*
X016881Y005014D01*
X016881Y005014D01*
X017318Y005014D01*
X017318Y005048D01*
X017308Y005116D01*
X017286Y005182D01*
X017255Y005243D01*
X017215Y005299D01*
X017166Y005348D01*
X017137Y005369D01*
X017163Y005380D01*
X017303Y005520D01*
X017378Y005702D01*
X017378Y005900D01*
X017303Y006083D01*
X017191Y006195D01*
X017303Y006307D01*
X017378Y006490D01*
X017378Y006688D01*
X017303Y006871D01*
X017191Y006983D01*
X017303Y007094D01*
X017378Y007277D01*
X017378Y007475D01*
X017303Y007658D01*
X017191Y007770D01*
X017264Y007844D01*
X017520Y007844D01*
X017638Y007892D01*
X017783Y008037D01*
X017803Y008037D01*
X017811Y008018D01*
X017871Y007957D01*
X017811Y007896D01*
X017774Y007808D01*
X017774Y007398D01*
X017811Y007310D01*
X017878Y007242D01*
X017930Y007220D01*
X017930Y007024D01*
X017927Y007024D01*
X017839Y006988D01*
X017771Y006920D01*
X017735Y006832D01*
X017735Y006264D01*
X017771Y006176D01*
X017839Y006108D01*
X017927Y006072D01*
X018574Y006072D01*
X018662Y006108D01*
X018729Y006176D01*
X018766Y006264D01*
X018766Y006832D01*
X018729Y006920D01*
X018662Y006988D01*
X018574Y007024D01*
X018570Y007024D01*
X018570Y007220D01*
X018622Y007242D01*
X018690Y007310D01*
X018726Y007398D01*
X018726Y007808D01*
X018690Y007896D01*
X018629Y007957D01*
X018690Y008018D01*
X018726Y008106D01*
X018726Y008517D01*
X018690Y008605D01*
X018622Y008673D01*
X018534Y008709D01*
X017966Y008709D01*
X017889Y008677D01*
X017587Y008677D01*
X017469Y008629D01*
X017379Y008539D01*
X017324Y008484D01*
X017264Y008484D01*
X017191Y008557D01*
X017303Y008669D01*
X017378Y008852D01*
X017378Y009050D01*
X017303Y009233D01*
X017191Y009345D01*
X017303Y009457D01*
X017378Y009639D01*
X017378Y009837D01*
X017303Y010020D01*
X017191Y010132D01*
X017256Y010197D01*
X017922Y010197D01*
X018054Y010252D01*
X018155Y010353D01*
X018355Y010553D01*
X018410Y010686D01*
X018410Y012784D01*
X018550Y012762D01*
X018550Y012762D01*
X019012Y012835D01*
X019012Y012835D01*
X019429Y013048D01*
X019740Y013359D01*
X019740Y003005D01*
X019679Y003067D01*
X019262Y003279D01*
X018800Y003352D01*
X018338Y003279D01*
X017921Y003067D01*
X017591Y002736D01*
X017378Y002319D01*
X017305Y001857D01*
X017378Y001395D01*
X017591Y000979D01*
X017682Y000887D01*
X011730Y000887D01*
X011809Y000920D01*
X011888Y000999D01*
X011930Y001102D01*
X011930Y001892D01*
X012589Y002551D01*
X012650Y002698D01*
X012650Y004789D01*
X012743Y004828D01*
X012822Y004907D01*
X012865Y005010D01*
X012865Y006105D01*
X012822Y006208D01*
X012743Y006287D01*
X012641Y006329D01*
X011860Y006329D01*
X011757Y006287D01*
X011678Y006208D01*
X011636Y006105D01*
X011636Y005010D01*
X011678Y004907D01*
X011757Y004828D01*
X011850Y004789D01*
X011850Y002943D01*
X011144Y002237D01*
X010795Y002237D01*
X010692Y002195D01*
X010613Y002116D01*
X010570Y002013D01*
X010570Y001102D01*
X010613Y000999D01*
X010692Y000920D01*
X010770Y000887D01*
X002718Y000887D01*
X002810Y000979D01*
X003022Y001395D01*
X003022Y001395D01*
X003095Y001857D01*
X003022Y002319D01*
X003022Y002319D01*
X002810Y002736D01*
X002479Y003067D01*
X002062Y003279D01*
X001600Y003352D01*
X001138Y003279D01*
X000750Y003081D01*
X000750Y005148D01*
X001446Y004452D01*
X001579Y004397D01*
X004122Y004397D01*
X004254Y004452D01*
X004340Y004538D01*
X004340Y003539D01*
X004305Y003524D01*
X004139Y003359D01*
X004121Y003396D01*
X004070Y003466D01*
X004009Y003527D01*
X003938Y003578D01*
X003861Y003617D01*
X003779Y003644D01*
X003693Y003657D01*
X003670Y003657D01*
X003670Y003127D01*
X003630Y003127D01*
X003630Y003087D01*
X003670Y003087D01*
X003670Y002557D01*
X003693Y002557D01*
X003779Y002571D01*
X003861Y002598D01*
X003938Y002637D01*
X004009Y002688D01*
X004070Y002749D01*
X004087Y002773D01*
X004133Y002662D01*
X004305Y002490D01*
X004529Y002397D01*
X004772Y002397D01*
X004996Y002490D01*
X005167Y002662D01*
X005187Y002708D01*
X005305Y002590D01*
X005529Y002497D01*
X005772Y002497D01*
X005877Y002541D01*
X005877Y002511D01*
X005880Y002484D01*
X005886Y002457D01*
X005895Y002432D01*
X005906Y002408D01*
X005921Y002385D01*
X005938Y002364D01*
X005957Y002345D01*
X005978Y002328D01*
X006001Y002314D01*
X006025Y002302D01*
X006050Y002293D01*
X006077Y002287D01*
X006103Y002284D01*
X007876Y002284D01*
X007903Y002287D01*
X007929Y002293D01*
X007955Y002302D01*
X007979Y002314D01*
X008002Y002328D01*
X008023Y002345D01*
X008042Y002364D01*
X008059Y002385D01*
X008073Y002408D01*
X008085Y002432D01*
X008094Y002457D01*
X008100Y002484D01*
X008103Y002511D01*
X008103Y003704D01*
X008100Y003731D01*
X008094Y003757D01*
X008085Y003783D01*
X008073Y003807D01*
X008059Y003830D01*
X008042Y003851D01*
X008023Y003870D01*
X008002Y003887D01*
X007979Y003901D01*
X007955Y003913D01*
X007929Y003922D01*
X007903Y003928D01*
X007876Y003931D01*
X006103Y003931D01*
X006077Y003928D01*
X006050Y003922D01*
X006025Y003913D01*
X006001Y003901D01*
X005978Y003887D01*
X005957Y003870D01*
X005938Y003851D01*
X005921Y003830D01*
X005906Y003807D01*
X005895Y003783D01*
X005886Y003757D01*
X005880Y003731D01*
X005877Y003704D01*
X005877Y003674D01*
X005772Y003717D01*
X005560Y003717D01*
X005560Y004949D01*
X005567Y004947D01*
X005700Y004947D01*
X005700Y005517D01*
X005700Y005517D01*
X005700Y004947D01*
X005834Y004947D01*
X005880Y004960D01*
X005904Y004974D01*
X005954Y004924D01*
X006042Y004887D01*
X006358Y004887D01*
X006446Y004924D01*
X006514Y004991D01*
X006537Y005047D01*
X007422Y005047D01*
X007554Y005102D01*
X007655Y005203D01*
X007855Y005403D01*
X007873Y005445D01*
X007910Y005408D01*
X007798Y005296D01*
X007722Y005113D01*
X007722Y004915D01*
X007798Y004732D01*
X007938Y004592D01*
X008121Y004517D01*
X008318Y004517D01*
X008501Y004592D01*
X008641Y004732D01*
X008717Y004915D01*
X008717Y005087D01*
X008900Y004904D01*
X008723Y004726D01*
X008610Y004455D01*
X008610Y004160D01*
X008723Y003888D01*
X008931Y003680D01*
X009203Y003567D01*
X009497Y003567D01*
X009769Y003680D01*
X009978Y003888D01*
X010090Y004160D01*
X010090Y004455D01*
X009978Y004726D01*
X009800Y004904D01*
X010011Y005115D01*
X010029Y005157D01*
X010061Y005157D01*
X010061Y005010D01*
X010103Y004907D01*
X010182Y004828D01*
X010285Y004785D01*
X011066Y004785D01*
X011169Y004828D01*
X011247Y004907D01*
X011290Y005010D01*
X011290Y006105D01*
X011247Y006208D01*
X011182Y006273D01*
X011254Y006344D01*
X011296Y006447D01*
X011296Y007267D01*
X011254Y007370D01*
X011175Y007449D01*
X011072Y007492D01*
X010331Y007492D01*
X010228Y007449D01*
X010149Y007370D01*
X010106Y007267D01*
X010106Y006447D01*
X010149Y006344D01*
X010199Y006294D01*
X010182Y006287D01*
X010103Y006208D01*
X010061Y006105D01*
X010061Y005957D01*
X010029Y005957D01*
X010011Y005999D01*
X009792Y006219D01*
X009522Y006331D01*
X009522Y006780D01*
X009677Y006780D01*
X009677Y006935D01*
X010094Y006935D01*
X010094Y007235D01*
X010082Y007281D01*
X010058Y007322D01*
X010025Y007356D01*
X009983Y007379D01*
X009938Y007392D01*
X009923Y007392D01*
X009961Y007413D01*
X009994Y007447D01*
X010018Y007488D01*
X010030Y007534D01*
X010030Y008000D01*
X009408Y008000D01*
X009408Y008115D01*
X010030Y008115D01*
X010030Y008581D01*
X010018Y008627D01*
X009994Y008668D01*
X009961Y008701D01*
X009920Y008725D01*
X009874Y008737D01*
X009408Y008737D01*
X009408Y008115D01*
X009293Y008115D01*
X009293Y008737D01*
X008827Y008737D01*
X008781Y008725D01*
X008740Y008701D01*
X008706Y008668D01*
X008682Y008627D01*
X008670Y008581D01*
X008670Y008375D01*
X008641Y008445D01*
X008529Y008557D01*
X008641Y008669D01*
X008717Y008852D01*
X008717Y009050D01*
X008641Y009233D01*
X008529Y009345D01*
X008641Y009457D01*
X008717Y009639D01*
X008717Y009837D01*
X008641Y010020D01*
X008529Y010132D01*
X008641Y010244D01*
X008717Y010427D01*
X008717Y010625D01*
X008641Y010808D01*
X008529Y010920D01*
X008641Y011031D01*
X008717Y011214D01*
X008717Y011412D01*
X008641Y011595D01*
X008529Y011707D01*
X008641Y011819D01*
X008717Y012002D01*
X008717Y012200D01*
X008641Y012382D01*
X008501Y012522D01*
X008318Y012598D01*
X008121Y012598D01*
X007938Y012522D01*
X007910Y012495D01*
X007910Y012997D01*
X008501Y012997D01*
X009090Y012408D01*
X009090Y011386D01*
X009145Y011253D01*
X009345Y011053D01*
X009446Y010952D01*
X009579Y010897D01*
X009713Y010897D01*
X009713Y010535D01*
X009750Y010447D01*
X009790Y010406D01*
X009790Y009686D01*
X009845Y009553D01*
X009995Y009403D01*
X010096Y009302D01*
X010229Y009247D01*
X010676Y009247D01*
X010666Y009231D01*
X010654Y009185D01*
X010654Y008885D01*
X011072Y008885D01*
X011072Y008730D01*
X011227Y008730D01*
X011227Y008885D01*
X011644Y008885D01*
X011644Y009185D01*
X011632Y009231D01*
X011622Y009247D01*
X011712Y009247D01*
X011696Y009209D01*
X011696Y008405D01*
X011733Y008317D01*
X011800Y008250D01*
X011889Y008213D01*
X011891Y008213D01*
X011891Y008085D01*
X011946Y007952D01*
X012145Y007753D01*
X012246Y007652D01*
X012379Y007597D01*
X014890Y007597D01*
X014890Y006706D01*
X013046Y004863D01*
X012945Y004761D01*
X012890Y004629D01*
X012890Y002197D01*
X012802Y002197D01*
X012714Y002161D01*
X012647Y002093D01*
X012610Y002005D01*
X012610Y001110D01*
X012647Y001021D01*
X012714Y000954D01*
X012802Y000917D01*
X013698Y000917D01*
X013786Y000954D01*
X013854Y001021D01*
X013890Y001191D02*
X014177Y001191D01*
X014086Y001350D02*
X013890Y001350D01*
X013890Y001508D02*
X014049Y001508D01*
X014058Y001667D02*
X013890Y001667D01*
X013890Y001825D02*
X014114Y001825D01*
X014234Y001984D02*
X013890Y001984D01*
X013805Y002142D02*
X017350Y002142D01*
X017325Y001984D02*
X015022Y001984D01*
X015143Y001825D02*
X017310Y001825D01*
X017305Y001857D02*
X017305Y001857D01*
X017335Y001667D02*
X015198Y001667D01*
X015208Y001508D02*
X017360Y001508D01*
X017378Y001395D02*
X017378Y001395D01*
X017402Y001350D02*
X015171Y001350D01*
X015079Y001191D02*
X017482Y001191D01*
X017563Y001033D02*
X014876Y001033D01*
X013610Y002301D02*
X017375Y002301D01*
X017378Y002319D02*
X017378Y002319D01*
X017450Y002459D02*
X013610Y002459D01*
X012890Y002459D02*
X012497Y002459D01*
X012617Y002618D02*
X012890Y002618D01*
X012890Y002776D02*
X012650Y002776D01*
X012650Y002935D02*
X012890Y002935D01*
X012890Y003093D02*
X012650Y003093D01*
X012650Y003252D02*
X012890Y003252D01*
X012890Y003410D02*
X012650Y003410D01*
X012650Y003569D02*
X012890Y003569D01*
X012890Y003727D02*
X012650Y003727D01*
X012650Y003886D02*
X012890Y003886D01*
X012890Y004044D02*
X012650Y004044D01*
X012650Y004203D02*
X012890Y004203D01*
X012890Y004361D02*
X012650Y004361D01*
X012650Y004520D02*
X012890Y004520D01*
X012911Y004678D02*
X012650Y004678D01*
X012752Y004837D02*
X013021Y004837D01*
X013046Y004863D02*
X013046Y004863D01*
X013179Y004995D02*
X012859Y004995D01*
X012865Y005154D02*
X013338Y005154D01*
X013496Y005312D02*
X012865Y005312D01*
X012865Y005471D02*
X013655Y005471D01*
X013813Y005629D02*
X012865Y005629D01*
X012865Y005788D02*
X013972Y005788D01*
X014130Y005946D02*
X012865Y005946D01*
X012865Y006105D02*
X014289Y006105D01*
X014447Y006263D02*
X012767Y006263D01*
X011733Y006263D02*
X011192Y006263D01*
X011286Y006422D02*
X014606Y006422D01*
X014764Y006580D02*
X011296Y006580D01*
X011296Y006739D02*
X014890Y006739D01*
X014890Y006897D02*
X011296Y006897D01*
X011296Y007056D02*
X014890Y007056D01*
X014890Y007214D02*
X011296Y007214D01*
X011251Y007373D02*
X014890Y007373D01*
X014890Y007531D02*
X010030Y007531D01*
X010030Y007690D02*
X012209Y007690D01*
X012050Y007848D02*
X010030Y007848D01*
X010030Y008165D02*
X011891Y008165D01*
X011924Y008007D02*
X009408Y008007D01*
X009408Y008165D02*
X009293Y008165D01*
X009293Y008324D02*
X009408Y008324D01*
X009408Y008482D02*
X009293Y008482D01*
X009293Y008641D02*
X009408Y008641D01*
X010010Y008641D02*
X010654Y008641D01*
X010654Y008730D02*
X010654Y008429D01*
X010666Y008384D01*
X010690Y008342D01*
X010724Y008309D01*
X010765Y008285D01*
X010810Y008273D01*
X011072Y008273D01*
X011072Y008730D01*
X010654Y008730D01*
X010654Y008958D02*
X008717Y008958D01*
X008695Y008799D02*
X011072Y008799D01*
X011227Y008799D02*
X011696Y008799D01*
X011644Y008730D02*
X011227Y008730D01*
X011227Y008273D01*
X011488Y008273D01*
X011533Y008285D01*
X011575Y008309D01*
X011608Y008342D01*
X011632Y008384D01*
X011644Y008429D01*
X011644Y008730D01*
X011644Y008641D02*
X011696Y008641D01*
X011696Y008482D02*
X011644Y008482D01*
X011589Y008324D02*
X011730Y008324D01*
X011227Y008324D02*
X011072Y008324D01*
X011072Y008482D02*
X011227Y008482D01*
X011227Y008641D02*
X011072Y008641D01*
X010654Y008482D02*
X010030Y008482D01*
X010030Y008324D02*
X010709Y008324D01*
X010654Y009116D02*
X008689Y009116D01*
X008599Y009275D02*
X010162Y009275D01*
X009965Y009433D02*
X008618Y009433D01*
X008697Y009592D02*
X009829Y009592D01*
X009790Y009750D02*
X008717Y009750D01*
X008687Y009909D02*
X009790Y009909D01*
X009790Y010067D02*
X008594Y010067D01*
X008623Y010226D02*
X009790Y010226D01*
X009790Y010384D02*
X008699Y010384D01*
X008717Y010543D02*
X009713Y010543D01*
X009713Y010701D02*
X008685Y010701D01*
X008589Y010860D02*
X009713Y010860D01*
X009380Y011018D02*
X008628Y011018D01*
X008701Y011177D02*
X009222Y011177D01*
X009345Y011053D02*
X009345Y011053D01*
X009111Y011335D02*
X008717Y011335D01*
X008683Y011494D02*
X009090Y011494D01*
X009090Y011652D02*
X008584Y011652D01*
X008633Y011811D02*
X009090Y011811D01*
X009090Y011969D02*
X008704Y011969D01*
X008717Y012128D02*
X009090Y012128D01*
X009090Y012286D02*
X008681Y012286D01*
X008579Y012445D02*
X009054Y012445D01*
X008895Y012603D02*
X007910Y012603D01*
X007910Y012762D02*
X008737Y012762D01*
X008578Y012920D02*
X007910Y012920D01*
X008722Y013717D02*
X004979Y013717D01*
X004846Y013663D01*
X004745Y013561D01*
X004394Y013210D01*
X004339Y013078D01*
X004339Y012752D01*
X004336Y012752D01*
X004248Y012715D01*
X004181Y012648D01*
X004144Y012559D01*
X004144Y011755D01*
X004181Y011667D01*
X004248Y011600D01*
X004336Y011563D01*
X005062Y011563D01*
X005150Y011600D01*
X005217Y011667D01*
X005250Y011746D01*
X005283Y011667D01*
X005350Y011600D01*
X005439Y011563D01*
X006164Y011563D01*
X006252Y011600D01*
X006320Y011667D01*
X006356Y011755D01*
X006356Y011797D01*
X006501Y011797D01*
X006690Y011608D01*
X006690Y011541D01*
X006664Y011552D01*
X005939Y011552D01*
X005850Y011515D01*
X005783Y011448D01*
X005750Y011369D01*
X005717Y011448D01*
X005650Y011515D01*
X005562Y011552D01*
X004836Y011552D01*
X004748Y011515D01*
X004700Y011467D01*
X004652Y011515D01*
X004564Y011552D01*
X003839Y011552D01*
X003750Y011515D01*
X003683Y011448D01*
X003650Y011369D01*
X003617Y011448D01*
X003550Y011515D01*
X003462Y011552D01*
X002736Y011552D01*
X002648Y011515D01*
X002581Y011448D01*
X002544Y011359D01*
X002544Y010555D01*
X002581Y010467D01*
X002648Y010400D01*
X002736Y010363D01*
X002830Y010363D01*
X002830Y010294D01*
X002878Y010177D01*
X001987Y010177D01*
X001869Y010129D01*
X001669Y009929D01*
X001579Y009839D01*
X001530Y009721D01*
X001530Y009063D01*
X001510Y009063D01*
X001510Y010508D01*
X004799Y013797D01*
X009784Y013797D01*
X009773Y013756D01*
X009773Y013062D01*
X010132Y013062D01*
X010132Y013025D01*
X009773Y013025D01*
X009773Y012718D01*
X009755Y012761D01*
X008854Y013663D01*
X008722Y013717D01*
X008733Y013713D02*
X009773Y013713D01*
X009773Y013554D02*
X008962Y013554D01*
X009121Y013396D02*
X009773Y013396D01*
X009773Y013237D02*
X009279Y013237D01*
X009438Y013079D02*
X009773Y013079D01*
X009773Y012920D02*
X009596Y012920D01*
X009755Y012762D02*
X009773Y012762D01*
X010527Y012762D02*
X013089Y012762D01*
X013079Y012771D02*
X013113Y012738D01*
X013154Y012714D01*
X013200Y012702D01*
X013422Y012702D01*
X013422Y013119D01*
X013498Y013119D01*
X013498Y013195D01*
X013876Y013195D01*
X013876Y013457D01*
X013864Y013502D01*
X013840Y013543D01*
X013806Y013577D01*
X013765Y013601D01*
X013720Y013613D01*
X013498Y013613D01*
X013498Y013195D01*
X013422Y013195D01*
X013422Y013119D01*
X013043Y013119D01*
X013043Y012858D01*
X013056Y012812D01*
X013079Y012771D01*
X013043Y012920D02*
X010527Y012920D01*
X010527Y013079D02*
X013043Y013079D01*
X013043Y013195D02*
X013422Y013195D01*
X013422Y013613D01*
X013200Y013613D01*
X013154Y013601D01*
X013113Y013577D01*
X013079Y013543D01*
X013056Y013502D01*
X013043Y013457D01*
X013043Y013195D01*
X013043Y013237D02*
X010527Y013237D01*
X010527Y013396D02*
X013043Y013396D01*
X013090Y013554D02*
X010527Y013554D01*
X010527Y013713D02*
X015586Y013713D01*
X015744Y013554D02*
X015086Y013554D01*
X015117Y013396D02*
X015903Y013396D01*
X016061Y013237D02*
X015117Y013237D01*
X015117Y013079D02*
X016220Y013079D01*
X016378Y012920D02*
X015117Y012920D01*
X015087Y012762D02*
X016537Y012762D01*
X016695Y012603D02*
X015091Y012603D01*
X015126Y012445D02*
X016522Y012445D01*
X016419Y012286D02*
X015126Y012286D01*
X015126Y012128D02*
X016383Y012128D01*
X016241Y011969D02*
X015041Y011969D01*
X015550Y011603D02*
X015550Y010609D01*
X014956Y010543D02*
X014110Y010543D01*
X014110Y010384D02*
X014956Y010384D01*
X014964Y010226D02*
X014110Y010226D01*
X014521Y010067D02*
X015115Y010067D01*
X015126Y009989D02*
X015172Y010001D01*
X015473Y010001D01*
X015473Y009584D01*
X015628Y009584D01*
X015628Y010001D01*
X015928Y010001D01*
X015974Y009989D01*
X016015Y009965D01*
X016049Y009932D01*
X016072Y009891D01*
X016085Y009845D01*
X016085Y009584D01*
X015628Y009584D01*
X015628Y009429D01*
X016085Y009429D01*
X016085Y009167D01*
X016072Y009122D01*
X016049Y009081D01*
X016015Y009047D01*
X015974Y009023D01*
X015928Y009011D01*
X015628Y009011D01*
X015628Y009429D01*
X015473Y009429D01*
X015473Y009011D01*
X015172Y009011D01*
X015126Y009023D01*
X015085Y009047D01*
X015052Y009081D01*
X015028Y009122D01*
X015016Y009167D01*
X015016Y009429D01*
X015473Y009429D01*
X015473Y009584D01*
X015016Y009584D01*
X015016Y009845D01*
X015028Y009891D01*
X015052Y009932D01*
X015085Y009965D01*
X015126Y009989D01*
X015039Y009909D02*
X014615Y009909D01*
X014615Y009750D02*
X015016Y009750D01*
X015016Y009592D02*
X014615Y009592D01*
X014615Y009433D02*
X015473Y009433D01*
X015628Y009433D02*
X016482Y009433D01*
X016501Y009275D02*
X016085Y009275D01*
X016069Y009116D02*
X016411Y009116D01*
X016383Y008958D02*
X012806Y008958D01*
X012806Y009116D02*
X015031Y009116D01*
X015016Y009275D02*
X014594Y009275D01*
X015137Y008641D02*
X012806Y008641D01*
X012806Y008799D02*
X016405Y008799D01*
X016488Y008641D02*
X016063Y008641D01*
X016222Y008482D02*
X016496Y008482D01*
X016409Y008324D02*
X016291Y008324D01*
X016340Y008165D02*
X016383Y008165D01*
X016407Y008007D02*
X016340Y008007D01*
X016315Y007848D02*
X016493Y007848D01*
X016491Y007690D02*
X016249Y007690D01*
X016121Y007531D02*
X016407Y007531D01*
X016383Y007373D02*
X015881Y007373D01*
X015610Y007214D02*
X016410Y007214D01*
X016498Y007056D02*
X015610Y007056D01*
X015610Y006897D02*
X016486Y006897D01*
X016405Y006739D02*
X015610Y006739D01*
X015610Y006580D02*
X016383Y006580D01*
X016412Y006422D02*
X015584Y006422D01*
X015465Y006263D02*
X016503Y006263D01*
X016481Y006105D02*
X015307Y006105D01*
X015148Y005946D02*
X016402Y005946D01*
X016383Y005788D02*
X014990Y005788D01*
X014831Y005629D02*
X016414Y005629D01*
X016508Y005471D02*
X014673Y005471D01*
X014514Y005312D02*
X016561Y005312D01*
X016466Y005154D02*
X014356Y005154D01*
X014197Y004995D02*
X015223Y004995D01*
X015027Y004837D02*
X014039Y004837D01*
X013880Y004678D02*
X014910Y004678D01*
X014844Y004520D02*
X013722Y004520D01*
X013610Y004361D02*
X014820Y004361D01*
X014820Y004203D02*
X013610Y004203D01*
X013610Y004044D02*
X014865Y004044D01*
X014798Y003886D02*
X013610Y003886D01*
X013610Y003727D02*
X014711Y003727D01*
X014710Y003569D02*
X013610Y003569D01*
X013610Y003410D02*
X014710Y003410D01*
X014710Y003252D02*
X013610Y003252D01*
X012890Y002301D02*
X012339Y002301D01*
X012180Y002142D02*
X012696Y002142D01*
X012610Y001984D02*
X012022Y001984D01*
X011930Y001825D02*
X012610Y001825D01*
X012610Y001667D02*
X011930Y001667D01*
X011930Y001508D02*
X012610Y001508D01*
X012610Y001350D02*
X011930Y001350D01*
X011930Y001191D02*
X012610Y001191D01*
X012642Y001033D02*
X011902Y001033D01*
X010599Y001033D02*
X010120Y001033D01*
X010095Y001020D02*
X010176Y001061D01*
X010250Y001115D01*
X010315Y001179D01*
X010368Y001253D01*
X010410Y001335D01*
X010438Y001422D01*
X010452Y001512D01*
X010452Y001519D01*
X009910Y001519D01*
X009910Y000977D01*
X009918Y000977D01*
X010008Y000992D01*
X010095Y001020D01*
X009910Y001033D02*
X009834Y001033D01*
X009834Y000977D02*
X009834Y001519D01*
X009910Y001519D01*
X009910Y001595D01*
X010452Y001595D01*
X010452Y001603D01*
X010438Y001693D01*
X010410Y001780D01*
X010368Y001861D01*
X010315Y001935D01*
X010250Y002000D01*
X010176Y002053D01*
X010095Y002095D01*
X010008Y002123D01*
X009918Y002137D01*
X009910Y002137D01*
X009910Y001595D01*
X009834Y001595D01*
X009834Y001519D01*
X009292Y001519D01*
X009292Y001512D01*
X009307Y001422D01*
X009335Y001335D01*
X009376Y001253D01*
X009430Y001179D01*
X009494Y001115D01*
X009568Y001061D01*
X009650Y001020D01*
X009736Y000992D01*
X009827Y000977D01*
X009834Y000977D01*
X009834Y001191D02*
X009910Y001191D01*
X009910Y001350D02*
X009834Y001350D01*
X009834Y001508D02*
X009910Y001508D01*
X009834Y001595D02*
X009292Y001595D01*
X009292Y001603D01*
X009307Y001693D01*
X009335Y001780D01*
X009376Y001861D01*
X009430Y001935D01*
X009494Y002000D01*
X009568Y002053D01*
X009650Y002095D01*
X009736Y002123D01*
X009827Y002137D01*
X009834Y002137D01*
X009834Y001595D01*
X009834Y001667D02*
X009910Y001667D01*
X009910Y001825D02*
X009834Y001825D01*
X009834Y001984D02*
X009910Y001984D01*
X010266Y001984D02*
X010570Y001984D01*
X010570Y001825D02*
X010387Y001825D01*
X010442Y001667D02*
X010570Y001667D01*
X010570Y001508D02*
X010452Y001508D01*
X010415Y001350D02*
X010570Y001350D01*
X010570Y001191D02*
X010323Y001191D01*
X009624Y001033D02*
X002837Y001033D01*
X002810Y000979D02*
X002810Y000979D01*
X002918Y001191D02*
X009421Y001191D01*
X009330Y001350D02*
X002999Y001350D01*
X003040Y001508D02*
X009293Y001508D01*
X009302Y001667D02*
X003065Y001667D01*
X003090Y001825D02*
X009358Y001825D01*
X009479Y001984D02*
X003075Y001984D01*
X003050Y002142D02*
X010639Y002142D01*
X011208Y002301D02*
X007952Y002301D01*
X008094Y002459D02*
X011366Y002459D01*
X011525Y002618D02*
X008103Y002618D01*
X008103Y002776D02*
X011683Y002776D01*
X011842Y002935D02*
X008103Y002935D01*
X008103Y003093D02*
X011850Y003093D01*
X011850Y003252D02*
X008103Y003252D01*
X008103Y003410D02*
X011850Y003410D01*
X011850Y003569D02*
X009501Y003569D01*
X009199Y003569D02*
X008103Y003569D01*
X008100Y003727D02*
X008884Y003727D01*
X008725Y003886D02*
X008003Y003886D01*
X008658Y004044D02*
X005560Y004044D01*
X005560Y003886D02*
X005977Y003886D01*
X005879Y003727D02*
X005560Y003727D01*
X005560Y004203D02*
X008610Y004203D01*
X008610Y004361D02*
X005560Y004361D01*
X005560Y004520D02*
X008113Y004520D01*
X008326Y004520D02*
X008637Y004520D01*
X008587Y004678D02*
X008703Y004678D01*
X008685Y004837D02*
X008833Y004837D01*
X008809Y004995D02*
X008717Y004995D01*
X007852Y004678D02*
X005560Y004678D01*
X005560Y004837D02*
X007754Y004837D01*
X007722Y004995D02*
X006515Y004995D01*
X005700Y004995D02*
X005700Y004995D01*
X005700Y005154D02*
X005700Y005154D01*
X005700Y005312D02*
X005700Y005312D01*
X005700Y005471D02*
X005700Y005471D01*
X005700Y005517D02*
X005700Y006087D01*
X005567Y006087D01*
X005521Y006075D01*
X005496Y006061D01*
X005446Y006111D01*
X005358Y006147D01*
X005042Y006147D01*
X004954Y006111D01*
X004950Y006107D01*
X004946Y006111D01*
X004858Y006147D01*
X004542Y006147D01*
X004454Y006111D01*
X004450Y006107D01*
X004446Y006111D01*
X004358Y006147D01*
X004060Y006147D01*
X004060Y006329D01*
X004005Y006461D01*
X003604Y006863D01*
X003472Y006917D01*
X002251Y006917D01*
X002274Y006923D01*
X002315Y006947D01*
X002349Y006981D01*
X002372Y007022D01*
X002385Y007067D01*
X002385Y007329D01*
X001928Y007329D01*
X001928Y007484D01*
X001773Y007484D01*
X001773Y007901D01*
X001510Y007901D01*
X001510Y007954D01*
X002252Y007954D01*
X002340Y007990D01*
X002408Y008058D01*
X002445Y008146D01*
X002445Y008614D01*
X002454Y008604D01*
X002542Y008567D01*
X002858Y008567D01*
X002946Y008604D01*
X002950Y008608D01*
X002954Y008604D01*
X003042Y008567D01*
X003358Y008567D01*
X003446Y008604D01*
X003450Y008608D01*
X003454Y008604D01*
X003542Y008567D01*
X003858Y008567D01*
X003946Y008604D01*
X003950Y008608D01*
X003954Y008604D01*
X004042Y008567D01*
X004358Y008567D01*
X004446Y008604D01*
X004450Y008608D01*
X004454Y008604D01*
X004542Y008567D01*
X004858Y008567D01*
X004946Y008604D01*
X004950Y008608D01*
X004954Y008604D01*
X005042Y008567D01*
X005340Y008567D01*
X005340Y008536D01*
X005395Y008403D01*
X005545Y008253D01*
X005646Y008152D01*
X005779Y008097D01*
X006922Y008097D01*
X007054Y008152D01*
X007190Y008288D01*
X007190Y005767D01*
X006550Y005767D01*
X006550Y005955D01*
X006514Y006043D01*
X006446Y006111D01*
X006358Y006147D01*
X006042Y006147D01*
X005954Y006111D01*
X005904Y006061D01*
X005880Y006075D01*
X005834Y006087D01*
X005700Y006087D01*
X005700Y005517D01*
X005700Y005517D01*
X005700Y005629D02*
X005700Y005629D01*
X005700Y005788D02*
X005700Y005788D01*
X005700Y005946D02*
X005700Y005946D01*
X005452Y006105D02*
X005948Y006105D01*
X006452Y006105D02*
X007190Y006105D01*
X007190Y006263D02*
X004060Y006263D01*
X004022Y006422D02*
X007190Y006422D01*
X007190Y006580D02*
X003886Y006580D01*
X003728Y006739D02*
X007190Y006739D01*
X007190Y006897D02*
X003520Y006897D01*
X003400Y006557D02*
X003300Y006557D01*
X002381Y007056D02*
X007190Y007056D01*
X007190Y007214D02*
X002385Y007214D01*
X002385Y007484D02*
X001928Y007484D01*
X001928Y007901D01*
X002228Y007901D01*
X002274Y007889D01*
X002315Y007865D01*
X002349Y007832D01*
X002372Y007791D01*
X002385Y007745D01*
X002385Y007484D01*
X002385Y007531D02*
X007190Y007531D01*
X007190Y007373D02*
X001928Y007373D01*
X001928Y007531D02*
X001773Y007531D01*
X001773Y007690D02*
X001928Y007690D01*
X001928Y007848D02*
X001773Y007848D01*
X002332Y007848D02*
X007190Y007848D01*
X007190Y007690D02*
X002385Y007690D01*
X002357Y008007D02*
X007190Y008007D01*
X007190Y008165D02*
X007067Y008165D01*
X006200Y009197D02*
X006200Y010856D01*
X005829Y011494D02*
X005671Y011494D01*
X005298Y011652D02*
X005203Y011652D01*
X004727Y011494D02*
X004674Y011494D01*
X004195Y011652D02*
X002654Y011652D01*
X002627Y011494D02*
X002496Y011494D01*
X002544Y011335D02*
X002337Y011335D01*
X002179Y011177D02*
X002544Y011177D01*
X002544Y011018D02*
X002020Y011018D01*
X001862Y010860D02*
X002544Y010860D01*
X002544Y010701D02*
X001703Y010701D01*
X001545Y010543D02*
X002549Y010543D01*
X002685Y010384D02*
X001510Y010384D01*
X001510Y010226D02*
X002858Y010226D01*
X003150Y010357D02*
X003150Y010906D01*
X003150Y010357D02*
X003350Y010157D01*
X003850Y010157D01*
X004200Y009807D01*
X004200Y009197D01*
X003700Y009197D02*
X003700Y009707D01*
X003550Y009857D01*
X002050Y009857D01*
X001850Y009657D01*
X001850Y008509D01*
X002445Y008482D02*
X005362Y008482D01*
X005475Y008324D02*
X002445Y008324D01*
X002445Y008165D02*
X005633Y008165D01*
X005200Y009197D02*
X005200Y010956D01*
X004250Y010909D02*
X004250Y010257D01*
X004700Y009807D01*
X004700Y009197D01*
X003729Y011494D02*
X003571Y011494D01*
X004144Y011811D02*
X002813Y011811D01*
X002971Y011969D02*
X004144Y011969D01*
X004144Y012128D02*
X003130Y012128D01*
X003288Y012286D02*
X004144Y012286D01*
X004144Y012445D02*
X003447Y012445D01*
X003605Y012603D02*
X004162Y012603D01*
X004339Y012762D02*
X003764Y012762D01*
X003922Y012920D02*
X004339Y012920D01*
X004339Y013079D02*
X004081Y013079D01*
X004239Y013237D02*
X004421Y013237D01*
X004398Y013396D02*
X004580Y013396D01*
X004556Y013554D02*
X004738Y013554D01*
X004715Y013713D02*
X004968Y013713D01*
X006305Y011652D02*
X006646Y011652D01*
X008613Y008641D02*
X008691Y008641D01*
X008670Y008482D02*
X008604Y008482D01*
X008717Y007436D02*
X008740Y007413D01*
X008781Y007390D01*
X008827Y007377D01*
X009211Y007377D01*
X009174Y007356D01*
X009140Y007322D01*
X009116Y007281D01*
X009104Y007235D01*
X009104Y006935D01*
X009522Y006935D01*
X009522Y006780D01*
X009104Y006780D01*
X009104Y006479D01*
X009116Y006434D01*
X009140Y006392D01*
X009174Y006359D01*
X009211Y006337D01*
X009195Y006337D01*
X008908Y006219D01*
X008689Y005999D01*
X008683Y005984D01*
X008641Y006083D01*
X008529Y006195D01*
X008641Y006307D01*
X008717Y006490D01*
X008717Y006688D01*
X008641Y006871D01*
X008529Y006983D01*
X008641Y007094D01*
X008717Y007277D01*
X008717Y007436D01*
X008717Y007373D02*
X009203Y007373D01*
X009104Y007214D02*
X008691Y007214D01*
X008603Y007056D02*
X009104Y007056D01*
X009104Y006739D02*
X008696Y006739D01*
X008717Y006580D02*
X009104Y006580D01*
X009123Y006422D02*
X008689Y006422D01*
X008598Y006263D02*
X009016Y006263D01*
X008795Y006105D02*
X008620Y006105D01*
X009522Y006422D02*
X009677Y006422D01*
X009677Y006323D02*
X009938Y006323D01*
X009983Y006335D01*
X010025Y006359D01*
X010058Y006392D01*
X010082Y006434D01*
X010094Y006479D01*
X010094Y006780D01*
X009677Y006780D01*
X009677Y006323D01*
X009684Y006263D02*
X010159Y006263D01*
X010117Y006422D02*
X010075Y006422D01*
X010094Y006580D02*
X010106Y006580D01*
X010094Y006739D02*
X010106Y006739D01*
X010106Y006897D02*
X009677Y006897D01*
X009522Y006897D02*
X008615Y006897D01*
X009522Y006739D02*
X009677Y006739D01*
X009677Y006580D02*
X009522Y006580D01*
X009906Y006105D02*
X010061Y006105D01*
X010027Y005154D02*
X010061Y005154D01*
X010067Y004995D02*
X009891Y004995D01*
X009867Y004837D02*
X010173Y004837D01*
X009998Y004678D02*
X011850Y004678D01*
X011850Y004520D02*
X010063Y004520D01*
X010090Y004361D02*
X011850Y004361D01*
X011850Y004203D02*
X010090Y004203D01*
X010042Y004044D02*
X011850Y004044D01*
X011850Y003886D02*
X009975Y003886D01*
X009817Y003727D02*
X011850Y003727D01*
X011748Y004837D02*
X011178Y004837D01*
X011284Y004995D02*
X011641Y004995D01*
X011636Y005154D02*
X011290Y005154D01*
X011290Y005312D02*
X011636Y005312D01*
X011636Y005471D02*
X011290Y005471D01*
X011290Y005629D02*
X011636Y005629D01*
X011636Y005788D02*
X011290Y005788D01*
X011290Y005946D02*
X011636Y005946D01*
X011636Y006105D02*
X011290Y006105D01*
X010106Y007056D02*
X010094Y007056D01*
X010094Y007214D02*
X010106Y007214D01*
X010152Y007373D02*
X009995Y007373D01*
X011644Y008958D02*
X011696Y008958D01*
X011696Y009116D02*
X011644Y009116D01*
X012806Y008482D02*
X014979Y008482D01*
X014910Y008324D02*
X012773Y008324D01*
X013250Y009275D02*
X013250Y009275D01*
X013250Y009433D02*
X013250Y009433D01*
X013250Y009592D02*
X013250Y009592D01*
X013250Y009750D02*
X013250Y009750D01*
X013250Y009909D02*
X013250Y009909D01*
X013390Y010067D02*
X013021Y010067D01*
X013390Y010226D02*
X010510Y010226D01*
X010510Y010384D02*
X013390Y010384D01*
X013390Y010543D02*
X010587Y010543D01*
X010587Y010701D02*
X013390Y010701D01*
X013426Y010860D02*
X010587Y010860D01*
X010587Y011018D02*
X013556Y011018D01*
X013715Y011177D02*
X010587Y011177D01*
X010587Y011335D02*
X013873Y011335D01*
X014119Y011652D02*
X014174Y011652D01*
X014175Y011811D02*
X014119Y011811D01*
X014119Y011997D02*
X014119Y012335D01*
X014107Y012380D01*
X014083Y012421D01*
X014050Y012455D01*
X014009Y012479D01*
X013963Y012491D01*
X013330Y012491D01*
X013330Y011997D01*
X013170Y011997D01*
X013170Y011837D01*
X012381Y011837D01*
X012381Y011500D01*
X012393Y011454D01*
X012417Y011413D01*
X012451Y011379D01*
X012492Y011356D01*
X012538Y011343D01*
X013170Y011343D01*
X013170Y011837D01*
X013330Y011837D01*
X013330Y011997D01*
X014119Y011997D01*
X014119Y012128D02*
X014174Y012128D01*
X014174Y012286D02*
X014119Y012286D01*
X014174Y012445D02*
X014060Y012445D01*
X014210Y012603D02*
X010527Y012603D01*
X010527Y012445D02*
X012441Y012445D01*
X012451Y012455D02*
X012417Y012421D01*
X012393Y012380D01*
X012381Y012335D01*
X012381Y011997D01*
X013170Y011997D01*
X013170Y012491D01*
X012538Y012491D01*
X012492Y012479D01*
X012451Y012455D01*
X012381Y012286D02*
X010515Y012286D01*
X010519Y012128D02*
X012381Y012128D01*
X012381Y011811D02*
X010587Y011811D01*
X010587Y011969D02*
X013170Y011969D01*
X013170Y011811D02*
X013330Y011811D01*
X013330Y011969D02*
X014259Y011969D01*
X014194Y012762D02*
X013831Y012762D01*
X013840Y012771D02*
X013806Y012738D01*
X013765Y012714D01*
X013720Y012702D01*
X013498Y012702D01*
X013498Y013119D01*
X013876Y013119D01*
X013876Y012858D01*
X013864Y012812D01*
X013840Y012771D01*
X013876Y012920D02*
X014165Y012920D01*
X014165Y013079D02*
X013876Y013079D01*
X013876Y013237D02*
X014165Y013237D01*
X014165Y013396D02*
X013876Y013396D01*
X013829Y013554D02*
X014195Y013554D01*
X013498Y013554D02*
X013422Y013554D01*
X013422Y013396D02*
X013498Y013396D01*
X013498Y013237D02*
X013422Y013237D01*
X013422Y013079D02*
X013498Y013079D01*
X013498Y012920D02*
X013422Y012920D01*
X013422Y012762D02*
X013498Y012762D01*
X013330Y012445D02*
X013170Y012445D01*
X013170Y012286D02*
X013330Y012286D01*
X013330Y012128D02*
X013170Y012128D01*
X013170Y011652D02*
X013330Y011652D01*
X013330Y011494D02*
X013170Y011494D01*
X012383Y011494D02*
X010587Y011494D01*
X010587Y011652D02*
X012381Y011652D01*
X011979Y010067D02*
X010510Y010067D01*
X014258Y010701D02*
X014956Y010701D01*
X014956Y010860D02*
X014416Y010860D01*
X014575Y011018D02*
X014975Y011018D01*
X014733Y011177D02*
X015230Y011177D01*
X015870Y011177D02*
X016399Y011177D01*
X016472Y011018D02*
X016125Y011018D01*
X016145Y010860D02*
X016511Y010860D01*
X016415Y010701D02*
X016145Y010701D01*
X016145Y010543D02*
X016383Y010543D01*
X016401Y010384D02*
X016145Y010384D01*
X016136Y010226D02*
X016477Y010226D01*
X016506Y010067D02*
X015986Y010067D01*
X016062Y009909D02*
X016413Y009909D01*
X016383Y009750D02*
X016085Y009750D01*
X016085Y009592D02*
X016403Y009592D01*
X015628Y009592D02*
X015473Y009592D01*
X015473Y009750D02*
X015628Y009750D01*
X015628Y009909D02*
X015473Y009909D01*
X015473Y009275D02*
X015628Y009275D01*
X015628Y009116D02*
X015473Y009116D01*
X016881Y008164D02*
X017457Y008164D01*
X017650Y008357D01*
X018205Y008357D01*
X018250Y008312D01*
X018654Y008641D02*
X019740Y008641D01*
X019740Y008799D02*
X017357Y008799D01*
X017378Y008958D02*
X019740Y008958D01*
X019740Y009116D02*
X017351Y009116D01*
X017261Y009275D02*
X019740Y009275D01*
X019740Y009433D02*
X017279Y009433D01*
X017359Y009592D02*
X019740Y009592D01*
X019740Y009750D02*
X017378Y009750D01*
X017349Y009909D02*
X019740Y009909D01*
X019740Y010067D02*
X017256Y010067D01*
X016881Y010526D02*
X016912Y010557D01*
X017991Y010226D02*
X019740Y010226D01*
X019740Y010384D02*
X018186Y010384D01*
X018345Y010543D02*
X019740Y010543D01*
X019740Y010701D02*
X018410Y010701D01*
X018410Y010860D02*
X019740Y010860D01*
X019740Y011018D02*
X018410Y011018D01*
X018410Y011177D02*
X019740Y011177D01*
X019740Y011335D02*
X018410Y011335D01*
X018410Y011494D02*
X019740Y011494D01*
X019740Y011652D02*
X018410Y011652D01*
X018410Y011811D02*
X019740Y011811D01*
X019740Y011969D02*
X018410Y011969D01*
X018410Y012128D02*
X019740Y012128D01*
X019740Y012286D02*
X018410Y012286D01*
X018410Y012445D02*
X019740Y012445D01*
X019740Y012603D02*
X018410Y012603D01*
X018410Y012762D02*
X019740Y012762D01*
X019740Y012920D02*
X019179Y012920D01*
X019429Y013048D02*
X019429Y013048D01*
X019460Y013079D02*
X019740Y013079D01*
X019740Y013237D02*
X019618Y013237D01*
X015650Y014157D02*
X015550Y014157D01*
X017274Y008641D02*
X017498Y008641D01*
X017752Y008007D02*
X017822Y008007D01*
X017791Y007848D02*
X017532Y007848D01*
X017774Y007690D02*
X017271Y007690D01*
X017355Y007531D02*
X017774Y007531D01*
X017784Y007373D02*
X017378Y007373D01*
X017352Y007214D02*
X017930Y007214D01*
X017930Y007056D02*
X017264Y007056D01*
X017276Y006897D02*
X017762Y006897D01*
X017735Y006739D02*
X017357Y006739D01*
X017378Y006580D02*
X017735Y006580D01*
X017735Y006422D02*
X017350Y006422D01*
X017259Y006263D02*
X017735Y006263D01*
X017847Y006105D02*
X017281Y006105D01*
X017359Y005946D02*
X019740Y005946D01*
X019740Y005788D02*
X017378Y005788D01*
X017348Y005629D02*
X017795Y005629D01*
X017795Y005627D02*
X017795Y005405D01*
X018212Y005405D01*
X018212Y005783D01*
X017951Y005783D01*
X017905Y005771D01*
X017864Y005747D01*
X017831Y005714D01*
X017807Y005672D01*
X017795Y005627D01*
X017795Y005471D02*
X017254Y005471D01*
X017201Y005312D02*
X017795Y005312D01*
X017795Y005329D02*
X017795Y005107D01*
X017807Y005061D01*
X017831Y005020D01*
X017864Y004987D01*
X017905Y004963D01*
X017951Y004951D01*
X018212Y004951D01*
X018212Y005329D01*
X017795Y005329D01*
X017795Y005154D02*
X017295Y005154D01*
X017318Y004995D02*
X017855Y004995D01*
X018212Y004995D02*
X018288Y004995D01*
X018288Y004951D02*
X018549Y004951D01*
X018595Y004963D01*
X018636Y004987D01*
X018670Y005020D01*
X018694Y005061D01*
X018706Y005107D01*
X018706Y005329D01*
X018288Y005329D01*
X018288Y004951D01*
X018288Y005154D02*
X018212Y005154D01*
X018212Y005312D02*
X018288Y005312D01*
X018288Y005329D02*
X018212Y005329D01*
X018212Y005405D01*
X018288Y005405D01*
X018288Y005783D01*
X018549Y005783D01*
X018595Y005771D01*
X018636Y005747D01*
X018670Y005714D01*
X018694Y005672D01*
X018706Y005627D01*
X018706Y005405D01*
X018288Y005405D01*
X018288Y005329D01*
X018288Y005471D02*
X018212Y005471D01*
X018212Y005629D02*
X018288Y005629D01*
X018705Y005629D02*
X019740Y005629D01*
X019740Y005471D02*
X018706Y005471D01*
X018706Y005312D02*
X019740Y005312D01*
X019740Y005154D02*
X018706Y005154D01*
X018645Y004995D02*
X019740Y004995D01*
X019740Y004837D02*
X017282Y004837D01*
X017163Y004678D02*
X019740Y004678D01*
X019740Y004520D02*
X016356Y004520D01*
X016380Y004361D02*
X019740Y004361D01*
X019740Y004203D02*
X016380Y004203D01*
X016336Y004044D02*
X019740Y004044D01*
X019740Y003886D02*
X016270Y003886D01*
X016123Y003727D02*
X019740Y003727D01*
X019740Y003569D02*
X015856Y003569D01*
X015905Y003410D02*
X015905Y003410D01*
X015905Y003252D02*
X015905Y003252D01*
X015905Y003093D02*
X015905Y003093D01*
X015905Y002935D02*
X015905Y002935D01*
X015905Y002776D02*
X015905Y002776D01*
X016236Y002776D02*
X017631Y002776D01*
X017591Y002736D02*
X017591Y002736D01*
X017530Y002618D02*
X015546Y002618D01*
X016242Y002935D02*
X017789Y002935D01*
X017921Y003067D02*
X017921Y003067D01*
X017974Y003093D02*
X016242Y003093D01*
X016242Y003252D02*
X018285Y003252D01*
X018338Y003279D02*
X018338Y003279D01*
X018800Y003352D02*
X018800Y003352D01*
X019262Y003279D02*
X019262Y003279D01*
X019316Y003252D02*
X019740Y003252D01*
X019740Y003410D02*
X016200Y003410D01*
X015609Y003410D02*
X015608Y003410D01*
X016881Y004577D02*
X016881Y005014D01*
X016881Y004577D01*
X016881Y004678D02*
X016881Y004678D01*
X016881Y004837D02*
X016881Y004837D01*
X016881Y004995D02*
X016881Y004995D01*
X016881Y005014D02*
X016881Y005014D01*
X016443Y005014D01*
X016881Y005014D01*
X016881Y005014D01*
X016443Y004995D02*
X015977Y004995D01*
X016174Y004837D02*
X016480Y004837D01*
X016599Y004678D02*
X016291Y004678D01*
X018654Y006105D02*
X019740Y006105D01*
X019740Y006263D02*
X018766Y006263D01*
X018766Y006422D02*
X019740Y006422D01*
X019740Y006580D02*
X018766Y006580D01*
X018766Y006739D02*
X019740Y006739D01*
X019740Y006897D02*
X018739Y006897D01*
X018570Y007056D02*
X019740Y007056D01*
X019740Y007214D02*
X018570Y007214D01*
X018716Y007373D02*
X019740Y007373D01*
X019740Y007531D02*
X018726Y007531D01*
X018726Y007690D02*
X019740Y007690D01*
X019740Y007848D02*
X018710Y007848D01*
X018679Y008007D02*
X019740Y008007D01*
X019740Y008165D02*
X018726Y008165D01*
X018726Y008324D02*
X019740Y008324D01*
X019740Y008482D02*
X018726Y008482D01*
X018250Y007603D02*
X018250Y006548D01*
X019627Y003093D02*
X019740Y003093D01*
X019679Y003067D02*
X019679Y003067D01*
X017591Y000979D02*
X017591Y000979D01*
X007814Y005312D02*
X007764Y005312D01*
X007739Y005154D02*
X007606Y005154D01*
X007190Y005788D02*
X006550Y005788D01*
X006550Y005946D02*
X007190Y005946D01*
X004340Y004520D02*
X004322Y004520D01*
X004340Y004361D02*
X000750Y004361D01*
X000750Y004203D02*
X004340Y004203D01*
X004340Y004044D02*
X000750Y004044D01*
X000750Y003886D02*
X004340Y003886D01*
X004340Y003727D02*
X000750Y003727D01*
X000750Y003569D02*
X003350Y003569D01*
X003362Y003578D02*
X003292Y003527D01*
X003231Y003466D01*
X003180Y003396D01*
X003141Y003318D01*
X003114Y003236D01*
X003100Y003151D01*
X003100Y003127D01*
X003630Y003127D01*
X003630Y003657D01*
X003607Y003657D01*
X003521Y003644D01*
X003439Y003617D01*
X003362Y003578D01*
X003191Y003410D02*
X000750Y003410D01*
X000750Y003252D02*
X001085Y003252D01*
X001138Y003279D02*
X001138Y003279D01*
X000774Y003093D02*
X000750Y003093D01*
X001600Y003352D02*
X001600Y003352D01*
X002062Y003279D02*
X002062Y003279D01*
X002116Y003252D02*
X003119Y003252D01*
X003100Y003087D02*
X003100Y003064D01*
X003114Y002979D01*
X003141Y002896D01*
X003180Y002819D01*
X003231Y002749D01*
X003292Y002688D01*
X003362Y002637D01*
X003439Y002598D01*
X003521Y002571D01*
X003607Y002557D01*
X003630Y002557D01*
X003630Y003087D01*
X003100Y003087D01*
X003128Y002935D02*
X002611Y002935D01*
X002479Y003067D02*
X002479Y003067D01*
X002427Y003093D02*
X003630Y003093D01*
X003630Y002935D02*
X003670Y002935D01*
X003670Y002776D02*
X003630Y002776D01*
X003630Y002618D02*
X003670Y002618D01*
X003901Y002618D02*
X004177Y002618D01*
X004379Y002459D02*
X002951Y002459D01*
X003025Y002301D02*
X006028Y002301D01*
X005885Y002459D02*
X004921Y002459D01*
X005123Y002618D02*
X005277Y002618D01*
X004191Y003410D02*
X004110Y003410D01*
X003951Y003569D02*
X004340Y003569D01*
X003670Y003569D02*
X003630Y003569D01*
X003630Y003410D02*
X003670Y003410D01*
X003670Y003252D02*
X003630Y003252D01*
X003211Y002776D02*
X002769Y002776D01*
X002810Y002736D02*
X002810Y002736D01*
X002870Y002618D02*
X003399Y002618D01*
X001379Y004520D02*
X000750Y004520D01*
X000750Y004678D02*
X001220Y004678D01*
X001062Y004837D02*
X000750Y004837D01*
X000750Y004995D02*
X000903Y004995D01*
X001510Y009116D02*
X001530Y009116D01*
X001530Y009275D02*
X001510Y009275D01*
X001510Y009433D02*
X001530Y009433D01*
X001530Y009592D02*
X001510Y009592D01*
X001510Y009750D02*
X001542Y009750D01*
X001510Y009909D02*
X001649Y009909D01*
X001510Y010067D02*
X001808Y010067D01*
D32*
X006950Y006457D03*
X001650Y003957D03*
X008150Y001557D03*
X016250Y001557D03*
X018250Y009457D03*
X012150Y013257D03*
M02*
