G75*
G70*
%OFA0B0*%
%FSLAX24Y24*%
%IPPOS*%
%LPD*%
%AMOC8*
5,1,8,0,0,1.08239X$1,22.5*
%
%ADD10C,0.0515*%
%ADD11C,0.0740*%
%ADD12R,0.0250X0.0500*%
%ADD13R,0.1378X0.0787*%
%ADD14R,0.0630X0.0709*%
%ADD15R,0.0709X0.0630*%
%ADD16R,0.0551X0.0472*%
%ADD17R,0.0472X0.0315*%
%ADD18R,0.1004X0.1004*%
%ADD19C,0.1004*%
%ADD20C,0.0120*%
%ADD21C,0.0396*%
%ADD22C,0.0100*%
%ADD23C,0.0160*%
D10*
X003769Y004557D03*
X003769Y005344D03*
X003769Y006131D03*
X003769Y006919D03*
X003769Y007706D03*
X003769Y008494D03*
X003769Y009281D03*
X003769Y010069D03*
X003769Y010856D03*
X003769Y011643D03*
X012431Y011643D03*
X012431Y010856D03*
X012431Y010069D03*
X012431Y009281D03*
X012431Y008494D03*
X012431Y007706D03*
X012431Y006919D03*
X012431Y006131D03*
X012431Y005344D03*
X012431Y004557D03*
D11*
X015100Y009730D03*
X015100Y010870D03*
X001100Y011300D03*
X001100Y010300D03*
X001100Y009300D03*
X001100Y008300D03*
X001100Y007300D03*
X001100Y006300D03*
D12*
X007600Y008767D03*
X008100Y008767D03*
X008600Y008767D03*
X009100Y008767D03*
X009600Y008767D03*
D13*
X008600Y011060D03*
D14*
X008651Y007100D03*
X007549Y007100D03*
D15*
X006200Y009949D03*
X006200Y011051D03*
D16*
X002000Y004891D03*
X000900Y004891D03*
X000900Y003709D03*
X002000Y003709D03*
D17*
X005000Y006946D03*
X005000Y007654D03*
X006100Y007654D03*
X006100Y006946D03*
D18*
X015300Y007380D03*
D19*
X015300Y005820D03*
D20*
X012431Y005344D02*
X011556Y005344D01*
X011300Y005600D01*
X011300Y011800D01*
X010800Y012300D01*
X003500Y012300D01*
X002500Y011300D01*
X001100Y011300D01*
X000400Y011900D02*
X000600Y012100D01*
X002900Y012100D01*
X003400Y012600D01*
X011000Y012600D01*
X011700Y011900D01*
X011700Y008700D01*
X011906Y008494D01*
X012431Y008494D01*
X009100Y008767D02*
X009100Y009200D01*
X008900Y009400D01*
X008200Y009400D01*
X008100Y009300D01*
X008100Y008767D01*
X007600Y008767D02*
X007600Y007151D01*
X007549Y007100D01*
X006994Y007654D01*
X006100Y007654D01*
X006100Y006946D02*
X006100Y004000D01*
X005700Y003600D01*
X003300Y003600D01*
X003000Y003900D01*
X003000Y005200D01*
X002900Y005300D01*
X002400Y005300D01*
X002000Y004900D01*
X002000Y004891D01*
X001400Y005500D02*
X003000Y005500D01*
X003200Y005300D01*
X003200Y004000D01*
X003400Y003800D01*
X004800Y003800D01*
X005000Y004000D01*
X005000Y006946D01*
X005000Y007654D02*
X004948Y007706D01*
X003769Y007706D01*
X002100Y009300D02*
X001100Y009300D01*
X002100Y009300D02*
X002300Y009500D01*
X002300Y010000D01*
X003156Y010856D01*
X003769Y010856D01*
X005200Y010100D02*
X005351Y009949D01*
X006200Y009949D01*
X006200Y009400D01*
X006800Y008800D01*
X007567Y008800D01*
X007600Y008767D01*
X001400Y005500D02*
X000900Y005000D01*
X000900Y004891D01*
X001100Y007300D02*
X000600Y007300D01*
X000400Y007500D01*
X000400Y011900D01*
D21*
X005200Y010100D03*
D22*
X007600Y008767D02*
X008100Y008767D01*
D23*
X002654Y000780D02*
X002436Y000580D01*
X014054Y000580D01*
X013996Y000618D01*
X013996Y000618D01*
X013996Y000618D01*
X013726Y000965D01*
X013726Y000965D01*
X013583Y001380D01*
X013583Y001820D01*
X013726Y002235D01*
X013726Y002235D01*
X013996Y002582D01*
X013996Y002582D01*
X013996Y002582D01*
X014364Y002823D01*
X014364Y002823D01*
X014790Y002930D01*
X014790Y002930D01*
X015228Y002894D01*
X015228Y002894D01*
X015630Y002718D01*
X015630Y002718D01*
X015954Y002420D01*
X015954Y002420D01*
X015990Y002352D01*
X015990Y013132D01*
X015854Y012880D01*
X015854Y012880D01*
X015530Y012582D01*
X015530Y012582D01*
X015128Y012406D01*
X014690Y012370D01*
X014264Y012477D01*
X014264Y012477D01*
X013896Y012718D01*
X013896Y012718D01*
X013626Y013065D01*
X013626Y013065D01*
X013483Y013480D01*
X013483Y013920D01*
X013626Y014335D01*
X013626Y014335D01*
X013896Y014682D01*
X013896Y014682D01*
X013896Y014682D01*
X014101Y014816D01*
X002432Y014816D01*
X002754Y014520D01*
X002754Y014520D01*
X002963Y014133D01*
X002963Y014133D01*
X003035Y013700D01*
X002963Y013267D01*
X002963Y013267D01*
X002754Y012880D01*
X002754Y012880D01*
X002430Y012582D01*
X002430Y012582D01*
X002028Y012406D01*
X002028Y012406D01*
X001590Y012370D01*
X001590Y012370D01*
X001164Y012477D01*
X001164Y012477D01*
X000796Y012718D01*
X000796Y012718D01*
X000796Y012718D01*
X000580Y012995D01*
X000580Y012320D01*
X002809Y012320D01*
X003309Y012820D01*
X011091Y012820D01*
X011220Y012691D01*
X011920Y011991D01*
X011920Y008791D01*
X011997Y008714D01*
X012070Y008714D01*
X012077Y008730D01*
X012194Y008848D01*
X012290Y008887D01*
X012194Y008927D01*
X012077Y009045D01*
X012013Y009198D01*
X012013Y009364D01*
X012077Y009518D01*
X012194Y009635D01*
X012290Y009675D01*
X012194Y009715D01*
X012077Y009832D01*
X012013Y009985D01*
X012013Y010152D01*
X012077Y010305D01*
X012194Y010422D01*
X012290Y010462D01*
X012194Y010502D01*
X012077Y010619D01*
X012013Y010773D01*
X012013Y010939D01*
X012077Y011092D01*
X012194Y011210D01*
X012290Y011250D01*
X012194Y011289D01*
X012077Y011407D01*
X012013Y011560D01*
X012013Y011726D01*
X012077Y011880D01*
X012194Y011997D01*
X012348Y012061D01*
X012514Y012061D01*
X012667Y011997D01*
X012785Y011880D01*
X012848Y011726D01*
X012848Y011560D01*
X012785Y011407D01*
X012667Y011289D01*
X012571Y011250D01*
X012667Y011210D01*
X012785Y011092D01*
X012848Y010939D01*
X012848Y010773D01*
X012785Y010619D01*
X012667Y010502D01*
X012571Y010462D01*
X012667Y010422D01*
X012785Y010305D01*
X012848Y010152D01*
X012848Y009985D01*
X012785Y009832D01*
X012667Y009715D01*
X012571Y009675D01*
X012667Y009635D01*
X012785Y009518D01*
X012848Y009364D01*
X012848Y009198D01*
X012785Y009045D01*
X012667Y008927D01*
X012571Y008887D01*
X012667Y008848D01*
X012785Y008730D01*
X012848Y008577D01*
X012848Y008411D01*
X012785Y008257D01*
X012667Y008140D01*
X012571Y008100D01*
X012667Y008060D01*
X012785Y007943D01*
X012848Y007789D01*
X012848Y007623D01*
X012785Y007470D01*
X012667Y007352D01*
X012571Y007313D01*
X012667Y007273D01*
X012785Y007155D01*
X012848Y007002D01*
X012848Y006836D01*
X012785Y006682D01*
X012667Y006565D01*
X012571Y006525D01*
X012667Y006485D01*
X012785Y006368D01*
X012848Y006215D01*
X012848Y006048D01*
X012785Y005895D01*
X012667Y005778D01*
X012571Y005738D01*
X012667Y005698D01*
X012785Y005581D01*
X012848Y005427D01*
X012848Y005261D01*
X012785Y005108D01*
X012667Y004990D01*
X012571Y004950D01*
X012667Y004911D01*
X012785Y004793D01*
X012848Y004640D01*
X012848Y004474D01*
X012785Y004320D01*
X012667Y004203D01*
X012514Y004139D01*
X012348Y004139D01*
X012194Y004203D01*
X012077Y004320D01*
X012013Y004474D01*
X012013Y004640D01*
X012077Y004793D01*
X012194Y004911D01*
X012290Y004950D01*
X012194Y004990D01*
X012077Y005108D01*
X012070Y005124D01*
X011465Y005124D01*
X011209Y005380D01*
X011080Y005509D01*
X011080Y011709D01*
X010709Y012080D01*
X003591Y012080D01*
X002720Y011209D01*
X002591Y011080D01*
X001583Y011080D01*
X001549Y011000D01*
X001400Y010851D01*
X001278Y010800D01*
X001400Y010749D01*
X001549Y010600D01*
X001630Y010405D01*
X001630Y010195D01*
X001549Y010000D01*
X001400Y009851D01*
X001278Y009800D01*
X001400Y009749D01*
X001549Y009600D01*
X001583Y009520D01*
X002009Y009520D01*
X002080Y009591D01*
X002080Y010091D01*
X002209Y010220D01*
X002209Y010220D01*
X002936Y010947D01*
X002936Y010947D01*
X003065Y011076D01*
X003409Y011076D01*
X003415Y011092D01*
X003533Y011210D01*
X003629Y011250D01*
X003533Y011289D01*
X003415Y011407D01*
X003352Y011560D01*
X003352Y011726D01*
X003415Y011880D01*
X003533Y011997D01*
X003686Y012061D01*
X003852Y012061D01*
X004006Y011997D01*
X004123Y011880D01*
X004187Y011726D01*
X004187Y011560D01*
X004123Y011407D01*
X004006Y011289D01*
X003910Y011250D01*
X004006Y011210D01*
X004123Y011092D01*
X004187Y010939D01*
X004187Y010773D01*
X004123Y010619D01*
X004006Y010502D01*
X003910Y010462D01*
X004006Y010422D01*
X004123Y010305D01*
X004187Y010152D01*
X004187Y009985D01*
X004123Y009832D01*
X004006Y009715D01*
X003910Y009675D01*
X004006Y009635D01*
X004123Y009518D01*
X004187Y009364D01*
X004187Y009198D01*
X004123Y009045D01*
X004006Y008927D01*
X003910Y008887D01*
X004006Y008848D01*
X004123Y008730D01*
X004187Y008577D01*
X004187Y008411D01*
X004123Y008257D01*
X004006Y008140D01*
X003910Y008100D01*
X004006Y008060D01*
X004123Y007943D01*
X004130Y007926D01*
X004652Y007926D01*
X004698Y007972D01*
X005302Y007972D01*
X005396Y007878D01*
X005396Y007431D01*
X005302Y007337D01*
X004698Y007337D01*
X004604Y007431D01*
X004604Y007486D01*
X004130Y007486D01*
X004123Y007470D01*
X004006Y007352D01*
X003910Y007313D01*
X004006Y007273D01*
X004123Y007155D01*
X004187Y007002D01*
X004187Y006836D01*
X004123Y006682D01*
X004006Y006565D01*
X003910Y006525D01*
X004006Y006485D01*
X004123Y006368D01*
X004187Y006215D01*
X004187Y006048D01*
X004123Y005895D01*
X004006Y005778D01*
X003910Y005738D01*
X004006Y005698D01*
X004123Y005581D01*
X004187Y005427D01*
X004187Y005261D01*
X004123Y005108D01*
X004006Y004990D01*
X003938Y004962D01*
X003999Y004931D01*
X004054Y004890D01*
X004103Y004842D01*
X004143Y004786D01*
X004175Y004725D01*
X004196Y004659D01*
X004207Y004591D01*
X004207Y004557D01*
X003769Y004557D01*
X003769Y004557D01*
X003769Y004557D01*
X003769Y004119D01*
X003735Y004119D01*
X003667Y004130D01*
X003601Y004151D01*
X003540Y004183D01*
X003484Y004223D01*
X003436Y004272D01*
X003420Y004293D01*
X003420Y004091D01*
X003491Y004020D01*
X004709Y004020D01*
X004780Y004091D01*
X004780Y006628D01*
X004698Y006628D01*
X004604Y006722D01*
X004604Y007169D01*
X004698Y007263D01*
X005302Y007263D01*
X005396Y007169D01*
X005396Y006722D01*
X005302Y006628D01*
X005220Y006628D01*
X005220Y003909D01*
X005131Y003820D01*
X005609Y003820D01*
X005880Y004091D01*
X005880Y006628D01*
X005798Y006628D01*
X005704Y006722D01*
X005704Y007169D01*
X005798Y007263D01*
X006402Y007263D01*
X006496Y007169D01*
X006496Y006722D01*
X006402Y006628D01*
X006320Y006628D01*
X006320Y003909D01*
X006191Y003780D01*
X005791Y003380D01*
X003209Y003380D01*
X003080Y003509D01*
X002780Y003809D01*
X002780Y005080D01*
X002491Y005080D01*
X002436Y005024D01*
X002436Y004588D01*
X002342Y004494D01*
X001658Y004494D01*
X001564Y004588D01*
X001564Y005193D01*
X001651Y005280D01*
X001491Y005280D01*
X001336Y005124D01*
X001336Y004588D01*
X001242Y004494D01*
X000580Y004494D01*
X000580Y004120D01*
X000601Y004126D01*
X000862Y004126D01*
X000862Y003748D01*
X000938Y003748D01*
X000938Y004126D01*
X001199Y004126D01*
X001245Y004113D01*
X001286Y004090D01*
X001320Y004056D01*
X001343Y004015D01*
X001356Y003969D01*
X001356Y003748D01*
X000938Y003748D01*
X000938Y003671D01*
X000938Y003293D01*
X001199Y003293D01*
X001245Y003305D01*
X001286Y003329D01*
X001320Y003363D01*
X001343Y003404D01*
X001356Y003450D01*
X001356Y003671D01*
X000938Y003671D01*
X000862Y003671D01*
X000862Y003293D01*
X000601Y003293D01*
X000580Y003299D01*
X000580Y002433D01*
X000696Y002582D01*
X000696Y002582D01*
X000696Y002582D01*
X001064Y002823D01*
X001064Y002823D01*
X001490Y002930D01*
X001490Y002930D01*
X001928Y002894D01*
X001928Y002894D01*
X002330Y002718D01*
X002330Y002718D01*
X002654Y002420D01*
X002654Y002420D01*
X002654Y002420D01*
X002863Y002033D01*
X002863Y002033D01*
X002935Y001600D01*
X002863Y001167D01*
X002863Y001167D01*
X002654Y000780D01*
X002654Y000780D01*
X002604Y000734D02*
X013905Y000734D01*
X013782Y000893D02*
X002714Y000893D01*
X002800Y001051D02*
X013696Y001051D01*
X013642Y001210D02*
X002870Y001210D01*
X002896Y001368D02*
X013587Y001368D01*
X013583Y001527D02*
X002923Y001527D01*
X002921Y001685D02*
X013583Y001685D01*
X013591Y001844D02*
X002894Y001844D01*
X002868Y002002D02*
X013646Y002002D01*
X013700Y002161D02*
X002794Y002161D01*
X002708Y002319D02*
X013791Y002319D01*
X013914Y002478D02*
X002591Y002478D01*
X002419Y002636D02*
X014078Y002636D01*
X014321Y002795D02*
X002155Y002795D01*
X002038Y003293D02*
X002299Y003293D01*
X002345Y003305D01*
X002386Y003329D01*
X002420Y003363D01*
X002443Y003404D01*
X002456Y003450D01*
X002456Y003671D01*
X002038Y003671D01*
X002038Y003293D01*
X001962Y003293D02*
X001962Y003671D01*
X002038Y003671D01*
X002038Y003748D01*
X001962Y003748D01*
X001962Y004126D01*
X001701Y004126D01*
X001655Y004113D01*
X001614Y004090D01*
X001580Y004056D01*
X001557Y004015D01*
X001544Y003969D01*
X001544Y003748D01*
X001962Y003748D01*
X001962Y003671D01*
X001544Y003671D01*
X001544Y003450D01*
X001557Y003404D01*
X001580Y003363D01*
X001614Y003329D01*
X001655Y003305D01*
X001701Y003293D01*
X001962Y003293D01*
X001962Y003429D02*
X002038Y003429D01*
X002038Y003587D02*
X001962Y003587D01*
X001962Y003746D02*
X000938Y003746D01*
X000938Y003904D02*
X000862Y003904D01*
X000862Y004063D02*
X000938Y004063D01*
X001313Y004063D02*
X001587Y004063D01*
X001544Y003904D02*
X001356Y003904D01*
X001356Y003587D02*
X001544Y003587D01*
X001550Y003429D02*
X001350Y003429D01*
X000938Y003429D02*
X000862Y003429D01*
X000862Y003587D02*
X000938Y003587D01*
X000580Y003270D02*
X015990Y003270D01*
X015990Y003112D02*
X000580Y003112D01*
X000580Y002953D02*
X015990Y002953D01*
X015990Y002795D02*
X015455Y002795D01*
X015719Y002636D02*
X015990Y002636D01*
X015990Y002478D02*
X015891Y002478D01*
X015990Y003429D02*
X005840Y003429D01*
X005998Y003587D02*
X015990Y003587D01*
X015990Y003746D02*
X006157Y003746D01*
X006315Y003904D02*
X015990Y003904D01*
X015990Y004063D02*
X006320Y004063D01*
X006320Y004221D02*
X012176Y004221D01*
X012052Y004380D02*
X006320Y004380D01*
X006320Y004538D02*
X012013Y004538D01*
X012037Y004697D02*
X006320Y004697D01*
X006320Y004855D02*
X012139Y004855D01*
X012171Y005014D02*
X006320Y005014D01*
X006320Y005172D02*
X011417Y005172D01*
X011258Y005331D02*
X006320Y005331D01*
X006320Y005489D02*
X011100Y005489D01*
X011080Y005648D02*
X006320Y005648D01*
X006320Y005806D02*
X011080Y005806D01*
X011080Y005965D02*
X006320Y005965D01*
X006320Y006123D02*
X011080Y006123D01*
X011080Y006282D02*
X006320Y006282D01*
X006320Y006440D02*
X011080Y006440D01*
X011080Y006599D02*
X009071Y006599D01*
X009077Y006602D02*
X009110Y006635D01*
X009134Y006676D01*
X009146Y006722D01*
X009146Y007023D01*
X008729Y007023D01*
X008729Y007177D01*
X009146Y007177D01*
X009146Y007478D01*
X009134Y007524D01*
X009110Y007565D01*
X009077Y007598D01*
X009036Y007622D01*
X008990Y007634D01*
X008729Y007634D01*
X008729Y007177D01*
X008574Y007177D01*
X008574Y007023D01*
X008156Y007023D01*
X008156Y006722D01*
X008168Y006676D01*
X008192Y006635D01*
X008226Y006602D01*
X008267Y006578D01*
X008313Y006566D01*
X008574Y006566D01*
X008574Y007023D01*
X008729Y007023D01*
X008729Y006566D01*
X008990Y006566D01*
X009036Y006578D01*
X009077Y006602D01*
X009146Y006757D02*
X011080Y006757D01*
X011080Y006916D02*
X009146Y006916D01*
X009146Y007233D02*
X011080Y007233D01*
X011080Y007074D02*
X008729Y007074D01*
X008574Y007074D02*
X008024Y007074D01*
X008024Y006916D02*
X008156Y006916D01*
X008156Y006757D02*
X008024Y006757D01*
X008024Y006679D02*
X008024Y007521D01*
X007930Y007614D01*
X007820Y007614D01*
X007820Y008385D01*
X007850Y008415D01*
X007909Y008357D01*
X008291Y008357D01*
X008336Y008401D01*
X008364Y008372D01*
X008406Y008349D01*
X008451Y008337D01*
X008600Y008337D01*
X008749Y008337D01*
X008794Y008349D01*
X008836Y008372D01*
X008864Y008401D01*
X008909Y008357D01*
X009291Y008357D01*
X009350Y008415D01*
X009409Y008357D01*
X009791Y008357D01*
X009885Y008450D01*
X009885Y009083D01*
X009791Y009177D01*
X009409Y009177D01*
X009350Y009118D01*
X009320Y009148D01*
X009320Y009291D01*
X009120Y009491D01*
X008991Y009620D01*
X008109Y009620D01*
X008009Y009520D01*
X007880Y009391D01*
X007880Y009148D01*
X007850Y009118D01*
X007791Y009177D01*
X007409Y009177D01*
X007315Y009083D01*
X007315Y009020D01*
X006891Y009020D01*
X006437Y009474D01*
X006621Y009474D01*
X006714Y009568D01*
X006714Y010330D01*
X006621Y010424D01*
X005779Y010424D01*
X005686Y010330D01*
X005686Y010169D01*
X005558Y010169D01*
X005558Y010171D01*
X005504Y010303D01*
X005403Y010404D01*
X005271Y010458D01*
X005129Y010458D01*
X004997Y010404D01*
X004896Y010303D01*
X004842Y010171D01*
X004842Y010029D01*
X004896Y009897D01*
X004997Y009796D01*
X005129Y009742D01*
X005247Y009742D01*
X005260Y009729D01*
X005686Y009729D01*
X005686Y009568D01*
X005779Y009474D01*
X005980Y009474D01*
X005980Y009309D01*
X006580Y008709D01*
X006709Y008580D01*
X007315Y008580D01*
X007315Y008450D01*
X007380Y008385D01*
X007380Y007614D01*
X007346Y007614D01*
X007086Y007874D01*
X006496Y007874D01*
X006496Y007878D01*
X006402Y007972D01*
X005798Y007972D01*
X005704Y007878D01*
X005704Y007431D01*
X005798Y007337D01*
X006402Y007337D01*
X006496Y007431D01*
X006496Y007434D01*
X006903Y007434D01*
X007074Y007264D01*
X007074Y006679D01*
X007168Y006586D01*
X007930Y006586D01*
X008024Y006679D01*
X007943Y006599D02*
X008231Y006599D01*
X008574Y006599D02*
X008729Y006599D01*
X008729Y006757D02*
X008574Y006757D01*
X008574Y006916D02*
X008729Y006916D01*
X008574Y007177D02*
X008156Y007177D01*
X008156Y007478D01*
X008168Y007524D01*
X008192Y007565D01*
X008226Y007598D01*
X008267Y007622D01*
X008313Y007634D01*
X008574Y007634D01*
X008574Y007177D01*
X008574Y007233D02*
X008729Y007233D01*
X008729Y007391D02*
X008574Y007391D01*
X008574Y007550D02*
X008729Y007550D01*
X009119Y007550D02*
X011080Y007550D01*
X011080Y007708D02*
X007820Y007708D01*
X007820Y007867D02*
X011080Y007867D01*
X011080Y008025D02*
X007820Y008025D01*
X007820Y008184D02*
X011080Y008184D01*
X011080Y008342D02*
X008769Y008342D01*
X008600Y008342D02*
X008600Y008342D01*
X008600Y008337D02*
X008600Y008767D01*
X008600Y008767D01*
X008600Y008337D01*
X008600Y008501D02*
X008600Y008501D01*
X008600Y008659D02*
X008600Y008659D01*
X008431Y008342D02*
X007820Y008342D01*
X007380Y008342D02*
X004158Y008342D01*
X004187Y008501D02*
X007315Y008501D01*
X007380Y008184D02*
X004050Y008184D01*
X004041Y008025D02*
X007380Y008025D01*
X007380Y007867D02*
X007093Y007867D01*
X007252Y007708D02*
X007380Y007708D01*
X006947Y007391D02*
X006457Y007391D01*
X006433Y007233D02*
X007074Y007233D01*
X007074Y007074D02*
X006496Y007074D01*
X006496Y006916D02*
X007074Y006916D01*
X007074Y006757D02*
X006496Y006757D01*
X006320Y006599D02*
X007155Y006599D01*
X008024Y007233D02*
X008156Y007233D01*
X008156Y007391D02*
X008024Y007391D01*
X007995Y007550D02*
X008183Y007550D01*
X009146Y007391D02*
X011080Y007391D01*
X011080Y008501D02*
X009885Y008501D01*
X009885Y008659D02*
X011080Y008659D01*
X011080Y008818D02*
X009885Y008818D01*
X009885Y008976D02*
X011080Y008976D01*
X011080Y009135D02*
X009833Y009135D01*
X009367Y009135D02*
X009333Y009135D01*
X009318Y009293D02*
X011080Y009293D01*
X011080Y009452D02*
X009160Y009452D01*
X009001Y009610D02*
X011080Y009610D01*
X011080Y009769D02*
X006714Y009769D01*
X006714Y009927D02*
X011080Y009927D01*
X011080Y010086D02*
X006714Y010086D01*
X006714Y010244D02*
X011080Y010244D01*
X011080Y010403D02*
X006642Y010403D01*
X006596Y010561D02*
X007764Y010561D01*
X007767Y010556D02*
X007801Y010522D01*
X007842Y010498D01*
X007887Y010486D01*
X008520Y010486D01*
X008520Y010980D01*
X007731Y010980D01*
X007731Y010642D01*
X007743Y010597D01*
X007767Y010556D01*
X007731Y010720D02*
X006734Y010720D01*
X006734Y010713D02*
X006734Y010974D01*
X006277Y010974D01*
X006277Y010556D01*
X006578Y010556D01*
X006624Y010568D01*
X006665Y010592D01*
X006698Y010626D01*
X006722Y010667D01*
X006734Y010713D01*
X006734Y010878D02*
X007731Y010878D01*
X007731Y011140D02*
X008520Y011140D01*
X008520Y011634D01*
X007887Y011634D01*
X007842Y011621D01*
X007801Y011598D01*
X007767Y011564D01*
X007743Y011523D01*
X007731Y011477D01*
X007731Y011140D01*
X007731Y011195D02*
X006734Y011195D01*
X006734Y011129D02*
X006734Y011390D01*
X006722Y011436D01*
X006698Y011477D01*
X006665Y011510D01*
X006624Y011534D01*
X006578Y011546D01*
X006277Y011546D01*
X006277Y011129D01*
X006123Y011129D01*
X006123Y011546D01*
X005822Y011546D01*
X005776Y011534D01*
X005735Y011510D01*
X005702Y011477D01*
X005678Y011436D01*
X005666Y011390D01*
X005666Y011129D01*
X006123Y011129D01*
X006123Y010974D01*
X006277Y010974D01*
X006277Y011129D01*
X006734Y011129D01*
X006734Y011354D02*
X007731Y011354D01*
X007740Y011512D02*
X006662Y011512D01*
X006277Y011512D02*
X006123Y011512D01*
X006123Y011354D02*
X006277Y011354D01*
X006277Y011195D02*
X006123Y011195D01*
X006123Y011037D02*
X004146Y011037D01*
X004187Y010878D02*
X005666Y010878D01*
X005666Y010974D02*
X005666Y010713D01*
X005678Y010667D01*
X005702Y010626D01*
X005735Y010592D01*
X005776Y010568D01*
X005822Y010556D01*
X006123Y010556D01*
X006123Y010974D01*
X005666Y010974D01*
X005666Y011195D02*
X004021Y011195D01*
X004070Y011354D02*
X005666Y011354D01*
X005738Y011512D02*
X004167Y011512D01*
X004187Y011671D02*
X011080Y011671D01*
X011080Y011512D02*
X009460Y011512D01*
X009457Y011523D02*
X009433Y011564D01*
X009399Y011598D01*
X009358Y011621D01*
X009313Y011634D01*
X008680Y011634D01*
X008680Y011140D01*
X008520Y011140D01*
X008520Y010980D01*
X008680Y010980D01*
X008680Y011140D01*
X009469Y011140D01*
X009469Y011477D01*
X009457Y011523D01*
X009469Y011354D02*
X011080Y011354D01*
X011080Y011195D02*
X009469Y011195D01*
X009469Y010980D02*
X008680Y010980D01*
X008680Y010486D01*
X009313Y010486D01*
X009358Y010498D01*
X009399Y010522D01*
X009433Y010556D01*
X009457Y010597D01*
X009469Y010642D01*
X009469Y010980D01*
X009469Y010878D02*
X011080Y010878D01*
X011080Y010720D02*
X009469Y010720D01*
X009436Y010561D02*
X011080Y010561D01*
X011080Y011037D02*
X008680Y011037D01*
X008680Y011195D02*
X008520Y011195D01*
X008520Y011037D02*
X006277Y011037D01*
X006277Y010878D02*
X006123Y010878D01*
X006123Y010720D02*
X006277Y010720D01*
X006277Y010561D02*
X006123Y010561D01*
X005804Y010561D02*
X004065Y010561D01*
X004026Y010403D02*
X004996Y010403D01*
X004872Y010244D02*
X004148Y010244D01*
X004187Y010086D02*
X004842Y010086D01*
X004884Y009927D02*
X004163Y009927D01*
X004060Y009769D02*
X005064Y009769D01*
X005686Y009610D02*
X004031Y009610D01*
X004151Y009452D02*
X005980Y009452D01*
X005996Y009293D02*
X004187Y009293D01*
X004160Y009135D02*
X006154Y009135D01*
X006313Y008976D02*
X004055Y008976D01*
X004036Y008818D02*
X006471Y008818D01*
X006630Y008659D02*
X004153Y008659D01*
X003629Y008887D02*
X003533Y008848D01*
X003415Y008730D01*
X003352Y008577D01*
X003352Y008411D01*
X003415Y008257D01*
X003533Y008140D01*
X003629Y008100D01*
X003533Y008060D01*
X003415Y007943D01*
X003352Y007789D01*
X003352Y007623D01*
X003415Y007470D01*
X003533Y007352D01*
X003629Y007313D01*
X003533Y007273D01*
X003415Y007155D01*
X003352Y007002D01*
X003352Y006836D01*
X003415Y006682D01*
X003533Y006565D01*
X003629Y006525D01*
X003533Y006485D01*
X003415Y006368D01*
X003352Y006215D01*
X003352Y006048D01*
X003415Y005895D01*
X003533Y005778D01*
X003629Y005738D01*
X003533Y005698D01*
X003415Y005581D01*
X003361Y005450D01*
X003291Y005520D01*
X003091Y005720D01*
X002909Y005720D01*
X001309Y005720D01*
X001180Y005591D01*
X000876Y005287D01*
X000580Y005287D01*
X000580Y006121D01*
X000590Y006089D01*
X000630Y006012D01*
X000680Y005942D01*
X000742Y005880D01*
X000812Y005830D01*
X000889Y005790D01*
X000971Y005764D01*
X001057Y005750D01*
X001080Y005750D01*
X001080Y006280D01*
X001120Y006280D01*
X001120Y006320D01*
X001650Y006320D01*
X001650Y006343D01*
X001636Y006429D01*
X001610Y006511D01*
X001570Y006588D01*
X001520Y006658D01*
X001458Y006720D01*
X001388Y006770D01*
X001311Y006810D01*
X001306Y006811D01*
X001400Y006851D01*
X001549Y007000D01*
X001630Y007195D01*
X001630Y007405D01*
X001549Y007600D01*
X001400Y007749D01*
X001278Y007800D01*
X001400Y007851D01*
X001549Y008000D01*
X001630Y008195D01*
X001630Y008405D01*
X001549Y008600D01*
X001400Y008749D01*
X001278Y008800D01*
X001400Y008851D01*
X001549Y009000D01*
X001583Y009080D01*
X002191Y009080D01*
X002320Y009209D01*
X002520Y009409D01*
X002520Y009909D01*
X003247Y010636D01*
X003409Y010636D01*
X003415Y010619D01*
X003533Y010502D01*
X003629Y010462D01*
X003533Y010422D01*
X003415Y010305D01*
X003352Y010152D01*
X003352Y009985D01*
X003415Y009832D01*
X003533Y009715D01*
X003629Y009675D01*
X003533Y009635D01*
X003415Y009518D01*
X003352Y009364D01*
X003352Y009198D01*
X003415Y009045D01*
X003533Y008927D01*
X003629Y008887D01*
X003503Y008818D02*
X001320Y008818D01*
X001491Y008659D02*
X003386Y008659D01*
X003352Y008501D02*
X001591Y008501D01*
X001630Y008342D02*
X003380Y008342D01*
X003489Y008184D02*
X001625Y008184D01*
X001560Y008025D02*
X003498Y008025D01*
X003384Y007867D02*
X001416Y007867D01*
X001442Y007708D02*
X003352Y007708D01*
X003382Y007550D02*
X001570Y007550D01*
X001630Y007391D02*
X003494Y007391D01*
X003492Y007233D02*
X001630Y007233D01*
X001580Y007074D02*
X003382Y007074D01*
X003352Y006916D02*
X001465Y006916D01*
X001407Y006757D02*
X003384Y006757D01*
X003499Y006599D02*
X001563Y006599D01*
X001633Y006440D02*
X003487Y006440D01*
X003380Y006282D02*
X001120Y006282D01*
X001120Y006280D02*
X001650Y006280D01*
X001650Y006257D01*
X001636Y006171D01*
X001610Y006089D01*
X001570Y006012D01*
X001520Y005942D01*
X001458Y005880D01*
X001388Y005830D01*
X001311Y005790D01*
X001229Y005764D01*
X001143Y005750D01*
X001120Y005750D01*
X001120Y006280D01*
X001120Y006123D02*
X001080Y006123D01*
X001080Y005965D02*
X001120Y005965D01*
X001120Y005806D02*
X001080Y005806D01*
X001236Y005648D02*
X000580Y005648D01*
X000580Y005806D02*
X000858Y005806D01*
X000664Y005965D02*
X000580Y005965D01*
X000580Y005489D02*
X001078Y005489D01*
X000919Y005331D02*
X000580Y005331D01*
X001383Y005172D02*
X001564Y005172D01*
X001564Y005014D02*
X001336Y005014D01*
X001336Y004855D02*
X001564Y004855D01*
X001564Y004697D02*
X001336Y004697D01*
X001286Y004538D02*
X001614Y004538D01*
X001962Y004063D02*
X002038Y004063D01*
X002038Y004126D02*
X002038Y003748D01*
X002456Y003748D01*
X002456Y003969D01*
X002443Y004015D01*
X002420Y004056D01*
X002386Y004090D01*
X002345Y004113D01*
X002299Y004126D01*
X002038Y004126D01*
X002038Y003904D02*
X001962Y003904D01*
X002038Y003746D02*
X002843Y003746D01*
X002780Y003904D02*
X002456Y003904D01*
X002413Y004063D02*
X002780Y004063D01*
X002780Y004221D02*
X000580Y004221D01*
X000580Y004380D02*
X002780Y004380D01*
X002780Y004538D02*
X002386Y004538D01*
X002436Y004697D02*
X002780Y004697D01*
X002780Y004855D02*
X002436Y004855D01*
X002436Y005014D02*
X002780Y005014D01*
X003322Y005489D02*
X003377Y005489D01*
X003482Y005648D02*
X003164Y005648D01*
X003504Y005806D02*
X001342Y005806D01*
X001536Y005965D02*
X003387Y005965D01*
X003352Y006123D02*
X001621Y006123D01*
X003420Y004221D02*
X003487Y004221D01*
X003449Y004063D02*
X004751Y004063D01*
X004780Y004221D02*
X004052Y004221D01*
X004054Y004223D02*
X004103Y004272D01*
X004143Y004327D01*
X004175Y004389D01*
X004196Y004454D01*
X004207Y004522D01*
X004207Y004557D01*
X003769Y004557D01*
X003769Y004119D01*
X003804Y004119D01*
X003872Y004130D01*
X003937Y004151D01*
X003999Y004183D01*
X004054Y004223D01*
X004170Y004380D02*
X004780Y004380D01*
X004780Y004538D02*
X004207Y004538D01*
X004184Y004697D02*
X004780Y004697D01*
X004780Y004855D02*
X004090Y004855D01*
X004029Y005014D02*
X004780Y005014D01*
X004780Y005172D02*
X004150Y005172D01*
X004187Y005331D02*
X004780Y005331D01*
X004780Y005489D02*
X004161Y005489D01*
X004056Y005648D02*
X004780Y005648D01*
X004780Y005806D02*
X004034Y005806D01*
X004152Y005965D02*
X004780Y005965D01*
X004780Y006123D02*
X004187Y006123D01*
X004159Y006282D02*
X004780Y006282D01*
X004780Y006440D02*
X004051Y006440D01*
X004039Y006599D02*
X004780Y006599D01*
X004604Y006757D02*
X004154Y006757D01*
X004187Y006916D02*
X004604Y006916D01*
X004604Y007074D02*
X004157Y007074D01*
X004046Y007233D02*
X004667Y007233D01*
X004643Y007391D02*
X004044Y007391D01*
X005220Y006599D02*
X005880Y006599D01*
X005880Y006440D02*
X005220Y006440D01*
X005220Y006282D02*
X005880Y006282D01*
X005880Y006123D02*
X005220Y006123D01*
X005220Y005965D02*
X005880Y005965D01*
X005880Y005806D02*
X005220Y005806D01*
X005220Y005648D02*
X005880Y005648D01*
X005880Y005489D02*
X005220Y005489D01*
X005220Y005331D02*
X005880Y005331D01*
X005880Y005172D02*
X005220Y005172D01*
X005220Y005014D02*
X005880Y005014D01*
X005880Y004855D02*
X005220Y004855D01*
X005220Y004697D02*
X005880Y004697D01*
X005880Y004538D02*
X005220Y004538D01*
X005220Y004380D02*
X005880Y004380D01*
X005880Y004221D02*
X005220Y004221D01*
X005220Y004063D02*
X005851Y004063D01*
X005693Y003904D02*
X005215Y003904D01*
X003769Y004221D02*
X003769Y004221D01*
X003769Y004380D02*
X003769Y004380D01*
X003769Y004538D02*
X003769Y004538D01*
X003002Y003587D02*
X002456Y003587D01*
X002450Y003429D02*
X003160Y003429D01*
X001021Y002795D02*
X000580Y002795D01*
X000580Y002636D02*
X000778Y002636D01*
X000614Y002478D02*
X000580Y002478D01*
X005396Y006757D02*
X005704Y006757D01*
X005704Y006916D02*
X005396Y006916D01*
X005396Y007074D02*
X005704Y007074D01*
X005767Y007233D02*
X005333Y007233D01*
X005357Y007391D02*
X005743Y007391D01*
X005704Y007550D02*
X005396Y007550D01*
X005396Y007708D02*
X005704Y007708D01*
X005704Y007867D02*
X005396Y007867D01*
X006777Y009135D02*
X007367Y009135D01*
X007833Y009135D02*
X007867Y009135D01*
X007880Y009293D02*
X006618Y009293D01*
X006460Y009452D02*
X007940Y009452D01*
X008099Y009610D02*
X006714Y009610D01*
X005758Y010403D02*
X005404Y010403D01*
X005528Y010244D02*
X005686Y010244D01*
X005666Y010720D02*
X004165Y010720D01*
X003513Y010403D02*
X003014Y010403D01*
X003172Y010561D02*
X003474Y010561D01*
X003390Y010244D02*
X002855Y010244D01*
X002697Y010086D02*
X003352Y010086D01*
X003376Y009927D02*
X002538Y009927D01*
X002520Y009769D02*
X003479Y009769D01*
X003508Y009610D02*
X002520Y009610D01*
X002520Y009452D02*
X003388Y009452D01*
X003352Y009293D02*
X002404Y009293D01*
X002246Y009135D02*
X003378Y009135D01*
X003484Y008976D02*
X001526Y008976D01*
X001540Y009610D02*
X002080Y009610D01*
X002080Y009769D02*
X001354Y009769D01*
X001477Y009927D02*
X002080Y009927D01*
X002080Y010086D02*
X001585Y010086D01*
X001630Y010244D02*
X002233Y010244D01*
X002391Y010403D02*
X001630Y010403D01*
X001566Y010561D02*
X002550Y010561D01*
X002708Y010720D02*
X001430Y010720D01*
X001428Y010878D02*
X002867Y010878D01*
X003025Y011037D02*
X001565Y011037D01*
X002706Y011195D02*
X003518Y011195D01*
X003469Y011354D02*
X002865Y011354D01*
X003023Y011512D02*
X003372Y011512D01*
X003352Y011671D02*
X003182Y011671D01*
X003340Y011829D02*
X003394Y011829D01*
X003499Y011988D02*
X003523Y011988D01*
X004015Y011988D02*
X010801Y011988D01*
X010960Y011829D02*
X004144Y011829D01*
X003110Y012622D02*
X002473Y012622D01*
X002645Y012780D02*
X003269Y012780D01*
X002871Y013097D02*
X013615Y013097D01*
X013560Y013256D02*
X002957Y013256D01*
X002987Y013414D02*
X013506Y013414D01*
X013483Y013573D02*
X003014Y013573D01*
X003030Y013731D02*
X013483Y013731D01*
X013483Y013890D02*
X003003Y013890D01*
X002977Y014048D02*
X013527Y014048D01*
X013582Y014207D02*
X002923Y014207D01*
X002837Y014365D02*
X013649Y014365D01*
X013772Y014524D02*
X002750Y014524D01*
X002577Y014682D02*
X013896Y014682D01*
X013724Y012939D02*
X002785Y012939D01*
X002952Y012463D02*
X002158Y012463D01*
X001221Y012463D02*
X000580Y012463D01*
X000580Y012622D02*
X000943Y012622D01*
X000747Y012780D02*
X000580Y012780D01*
X000580Y012939D02*
X000624Y012939D01*
X008520Y011512D02*
X008680Y011512D01*
X008680Y011354D02*
X008520Y011354D01*
X008520Y010878D02*
X008680Y010878D01*
X008680Y010720D02*
X008520Y010720D01*
X008520Y010561D02*
X008680Y010561D01*
X011131Y012780D02*
X013847Y012780D01*
X014043Y012622D02*
X011290Y012622D01*
X011448Y012463D02*
X014321Y012463D01*
X015258Y012463D02*
X015990Y012463D01*
X015990Y012305D02*
X011607Y012305D01*
X011765Y012146D02*
X015990Y012146D01*
X015990Y011988D02*
X012677Y011988D01*
X012806Y011829D02*
X015990Y011829D01*
X015990Y011671D02*
X012848Y011671D01*
X012828Y011512D02*
X015990Y011512D01*
X015990Y011354D02*
X015318Y011354D01*
X015400Y011319D02*
X015205Y011400D01*
X014995Y011400D01*
X014800Y011319D01*
X014651Y011170D01*
X014570Y010975D01*
X014570Y010765D01*
X014651Y010570D01*
X014800Y010421D01*
X014995Y010340D01*
X015205Y010340D01*
X015400Y010421D01*
X015549Y010570D01*
X015630Y010765D01*
X015630Y010975D01*
X015549Y011170D01*
X015400Y011319D01*
X015525Y011195D02*
X015990Y011195D01*
X015990Y011037D02*
X015605Y011037D01*
X015630Y010878D02*
X015990Y010878D01*
X015990Y010720D02*
X015611Y010720D01*
X015541Y010561D02*
X015990Y010561D01*
X015990Y010403D02*
X015356Y010403D01*
X015244Y010244D02*
X015990Y010244D01*
X015990Y010086D02*
X015494Y010086D01*
X015549Y010030D02*
X015400Y010179D01*
X015205Y010260D01*
X014995Y010260D01*
X014800Y010179D01*
X014651Y010030D01*
X014570Y009835D01*
X014570Y009625D01*
X014651Y009430D01*
X014800Y009281D01*
X014995Y009200D01*
X015205Y009200D01*
X015400Y009281D01*
X015549Y009430D01*
X015630Y009625D01*
X015630Y009835D01*
X015549Y010030D01*
X015592Y009927D02*
X015990Y009927D01*
X015990Y009769D02*
X015630Y009769D01*
X015624Y009610D02*
X015990Y009610D01*
X015990Y009452D02*
X015558Y009452D01*
X015413Y009293D02*
X015990Y009293D01*
X015990Y009135D02*
X012822Y009135D01*
X012848Y009293D02*
X014787Y009293D01*
X014642Y009452D02*
X012812Y009452D01*
X012692Y009610D02*
X014576Y009610D01*
X014570Y009769D02*
X012721Y009769D01*
X012824Y009927D02*
X014608Y009927D01*
X014706Y010086D02*
X012848Y010086D01*
X012810Y010244D02*
X014956Y010244D01*
X014844Y010403D02*
X012687Y010403D01*
X012726Y010561D02*
X014659Y010561D01*
X014589Y010720D02*
X012826Y010720D01*
X012848Y010878D02*
X014570Y010878D01*
X014595Y011037D02*
X012808Y011037D01*
X012682Y011195D02*
X014675Y011195D01*
X014882Y011354D02*
X012731Y011354D01*
X012179Y011195D02*
X011920Y011195D01*
X011920Y011037D02*
X012054Y011037D01*
X012013Y010878D02*
X011920Y010878D01*
X011920Y010720D02*
X012035Y010720D01*
X012135Y010561D02*
X011920Y010561D01*
X011920Y010403D02*
X012174Y010403D01*
X012052Y010244D02*
X011920Y010244D01*
X011920Y010086D02*
X012013Y010086D01*
X012037Y009927D02*
X011920Y009927D01*
X011920Y009769D02*
X012140Y009769D01*
X012169Y009610D02*
X011920Y009610D01*
X011920Y009452D02*
X012049Y009452D01*
X012013Y009293D02*
X011920Y009293D01*
X011920Y009135D02*
X012040Y009135D01*
X012145Y008976D02*
X011920Y008976D01*
X011920Y008818D02*
X012164Y008818D01*
X012697Y008818D02*
X015990Y008818D01*
X015990Y008976D02*
X012716Y008976D01*
X012814Y008659D02*
X015990Y008659D01*
X015990Y008501D02*
X012848Y008501D01*
X012820Y008342D02*
X015990Y008342D01*
X015990Y008184D02*
X012711Y008184D01*
X012702Y008025D02*
X014715Y008025D01*
X014732Y008041D02*
X014638Y007948D01*
X014638Y006811D01*
X014732Y006718D01*
X015868Y006718D01*
X015962Y006811D01*
X015962Y007948D01*
X015868Y008041D01*
X014732Y008041D01*
X014638Y007867D02*
X012816Y007867D01*
X012848Y007708D02*
X014638Y007708D01*
X014638Y007550D02*
X012818Y007550D01*
X012706Y007391D02*
X014638Y007391D01*
X014638Y007233D02*
X012708Y007233D01*
X012818Y007074D02*
X014638Y007074D01*
X014638Y006916D02*
X012848Y006916D01*
X012816Y006757D02*
X014692Y006757D01*
X015908Y006757D02*
X015990Y006757D01*
X015990Y006599D02*
X012701Y006599D01*
X012713Y006440D02*
X015990Y006440D01*
X015990Y006282D02*
X012820Y006282D01*
X012848Y006123D02*
X015990Y006123D01*
X015990Y005965D02*
X012813Y005965D01*
X012696Y005806D02*
X015990Y005806D01*
X015990Y005648D02*
X012718Y005648D01*
X012823Y005489D02*
X015990Y005489D01*
X015990Y005331D02*
X012848Y005331D01*
X012811Y005172D02*
X015990Y005172D01*
X015990Y005014D02*
X012691Y005014D01*
X012723Y004855D02*
X015990Y004855D01*
X015990Y004697D02*
X012825Y004697D01*
X012848Y004538D02*
X015990Y004538D01*
X015990Y004380D02*
X012809Y004380D01*
X012685Y004221D02*
X015990Y004221D01*
X015962Y006916D02*
X015990Y006916D01*
X015990Y007074D02*
X015962Y007074D01*
X015962Y007233D02*
X015990Y007233D01*
X015990Y007391D02*
X015962Y007391D01*
X015962Y007550D02*
X015990Y007550D01*
X015990Y007708D02*
X015962Y007708D01*
X015962Y007867D02*
X015990Y007867D01*
X015990Y008025D02*
X015885Y008025D01*
X012130Y011354D02*
X011920Y011354D01*
X011920Y011512D02*
X012033Y011512D01*
X012013Y011671D02*
X011920Y011671D01*
X011920Y011829D02*
X012056Y011829D01*
X012185Y011988D02*
X011920Y011988D01*
X015573Y012622D02*
X015990Y012622D01*
X015990Y012780D02*
X015745Y012780D01*
X015885Y012939D02*
X015990Y012939D01*
X015990Y013097D02*
X015971Y013097D01*
M02*
