%
M48
M72
T01C0.0236
T02C0.0315
T03C0.0400
T04C0.0472
T05C0.0550
T06C0.1200
%
T01
X1650Y3957
X6950Y6457
X8150Y1557
X16250Y1557
X18250Y9457
X12150Y13257
T02
X8220Y12101
X8220Y11313
X8220Y10526
X8220Y9738
X8220Y8951
X8220Y8164
X8220Y7376
X8220Y6589
X8220Y5801
X8220Y5014
X16881Y5014
X16881Y5801
X16881Y6589
X16881Y7376
X16881Y8164
X16881Y8951
X16881Y9738
X16881Y10526
X16881Y11313
X16881Y12101
T03
X5650Y3107
X4650Y3007
X3650Y3107
T04
X9872Y1557
X11250Y1557
X13250Y1557
X14628Y1557
T05
X15600Y4307
X15600Y8057
X9350Y8057
X9350Y5557
X9350Y4307
T06
X1600Y1857
X1600Y14307
X18550Y14257
X18800Y1857
M30
