G75*
G70*
%OFA0B0*%
%FSLAX24Y24*%
%IPPOS*%
%LPD*%
%AMOC8*
5,1,8,0,0,1.08239X$1,22.5*
%
%ADD10C,0.0080*%
%ADD11C,0.0060*%
%ADD12C,0.0050*%
%ADD13C,0.0040*%
%ADD14C,0.0000*%
%ADD15C,0.0030*%
D10*
X003150Y002557D02*
X004150Y002557D01*
X004150Y003557D01*
X003150Y003557D01*
X003150Y002557D01*
X004150Y002807D02*
X004400Y002557D01*
X004900Y002557D01*
X005150Y002807D01*
X005400Y002557D01*
X005900Y002557D01*
X006150Y002807D01*
X006150Y003307D01*
X005900Y003557D01*
X005400Y003557D01*
X005150Y003307D01*
X004900Y003557D01*
X004400Y003557D01*
X004150Y003307D01*
X010479Y004809D02*
X010479Y004947D01*
X010479Y004809D02*
X012290Y004809D01*
X012290Y004947D01*
X011187Y005144D02*
X011187Y005931D01*
X010479Y006168D02*
X010479Y006305D01*
X012290Y006305D01*
X012290Y006168D01*
X017857Y006351D02*
X017857Y006902D01*
X018644Y006902D01*
X018644Y006351D01*
X018486Y006075D02*
X018014Y006075D01*
X018250Y005839D01*
X018486Y006075D01*
X018526Y005839D02*
X018250Y005839D01*
X017975Y005839D01*
X017857Y005564D02*
X017857Y005012D01*
X018644Y005012D01*
X018644Y005564D01*
X014995Y012764D02*
X014444Y012764D01*
X014168Y012921D02*
X014168Y013394D01*
X013932Y013157D01*
X014168Y012921D01*
X013932Y012882D02*
X013932Y013157D01*
X013932Y013433D01*
X013657Y013551D02*
X013105Y013551D01*
X013105Y012764D01*
X013657Y012764D01*
X014444Y013551D02*
X014995Y013551D01*
X014995Y012764D01*
D11*
X014886Y012075D02*
X014886Y011839D01*
X014414Y011839D02*
X014414Y012075D01*
X018014Y008075D02*
X018014Y007839D01*
X018486Y007839D02*
X018486Y008075D01*
X015668Y003294D02*
X015432Y003294D01*
X015432Y002821D02*
X015668Y002821D01*
X006520Y005857D02*
X006520Y007237D01*
X006520Y007477D01*
X006520Y008857D01*
X006440Y008857D01*
X006440Y005857D02*
X006520Y005857D01*
X003270Y005027D02*
X003130Y005027D01*
X003130Y004927D01*
X003270Y004927D01*
X002460Y005857D02*
X002380Y005857D01*
X002380Y008857D01*
X002460Y008857D01*
D12*
X008750Y008657D02*
X008750Y003707D01*
X016200Y003707D01*
X016200Y008657D01*
X008750Y008657D01*
X009560Y010858D02*
X008851Y011567D01*
X008851Y013457D01*
X009875Y013457D01*
X010426Y013457D02*
X011449Y013457D01*
X011449Y011567D01*
X010741Y010858D01*
X010426Y010858D01*
X009875Y010858D02*
X009560Y010858D01*
X011410Y012157D02*
X011407Y012227D01*
X011401Y012298D01*
X011391Y012367D01*
X011377Y012436D01*
X011359Y012505D01*
X011337Y012572D01*
X011311Y012637D01*
X011282Y012701D01*
X011249Y012764D01*
X011213Y012824D01*
X011174Y012883D01*
X011131Y012939D01*
X011085Y012993D01*
X011036Y013044D01*
X010985Y013092D01*
X010931Y013137D01*
X010874Y013179D01*
X010815Y013218D01*
X010754Y013254D01*
X010692Y013286D01*
X010627Y013314D01*
X010561Y013339D01*
X010494Y013360D01*
X010426Y013377D01*
X008890Y012157D02*
X008893Y012087D01*
X008899Y012016D01*
X008909Y011947D01*
X008923Y011878D01*
X008941Y011809D01*
X008963Y011742D01*
X008989Y011677D01*
X009018Y011613D01*
X009051Y011550D01*
X009087Y011490D01*
X009126Y011431D01*
X009169Y011375D01*
X009215Y011321D01*
X009264Y011270D01*
X009315Y011222D01*
X009369Y011177D01*
X009426Y011135D01*
X009485Y011096D01*
X009546Y011060D01*
X009608Y011028D01*
X009673Y011000D01*
X009739Y010975D01*
X009806Y010954D01*
X009874Y010937D01*
X008890Y012157D02*
X008893Y012227D01*
X008899Y012298D01*
X008909Y012367D01*
X008923Y012436D01*
X008941Y012505D01*
X008963Y012572D01*
X008989Y012637D01*
X009018Y012701D01*
X009051Y012764D01*
X009087Y012824D01*
X009126Y012883D01*
X009169Y012939D01*
X009215Y012993D01*
X009264Y013044D01*
X009315Y013092D01*
X009369Y013137D01*
X009426Y013179D01*
X009485Y013218D01*
X009546Y013254D01*
X009608Y013286D01*
X009673Y013314D01*
X009739Y013339D01*
X009806Y013360D01*
X009874Y013377D01*
X011410Y012157D02*
X011407Y012087D01*
X011401Y012016D01*
X011391Y011947D01*
X011377Y011878D01*
X011359Y011809D01*
X011337Y011742D01*
X011311Y011677D01*
X011282Y011613D01*
X011249Y011550D01*
X011213Y011490D01*
X011174Y011431D01*
X011131Y011375D01*
X011085Y011321D01*
X011036Y011270D01*
X010985Y011222D01*
X010931Y011177D01*
X010874Y011135D01*
X010815Y011096D01*
X010754Y011060D01*
X010692Y011028D01*
X010627Y011000D01*
X010561Y010975D01*
X010494Y010954D01*
X010426Y010937D01*
D13*
X009984Y009538D02*
X009984Y009077D01*
X009831Y009077D02*
X010138Y009077D01*
X009831Y009384D02*
X009984Y009538D01*
X009677Y009538D02*
X009677Y009154D01*
X009600Y009077D01*
X009447Y009077D01*
X009370Y009154D01*
X009370Y009538D01*
D14*
X006520Y007477D02*
X006499Y007475D01*
X006479Y007470D01*
X006460Y007461D01*
X006443Y007449D01*
X006428Y007434D01*
X006416Y007417D01*
X006407Y007398D01*
X006402Y007378D01*
X006400Y007357D01*
X006402Y007336D01*
X006407Y007316D01*
X006416Y007297D01*
X006428Y007280D01*
X006443Y007265D01*
X006460Y007253D01*
X006479Y007244D01*
X006499Y007239D01*
X006520Y007237D01*
D15*
X006464Y009199D02*
X006777Y009512D01*
X006777Y009356D02*
X006464Y009356D01*
X006464Y009512D02*
X006777Y009199D01*
X006620Y009199D02*
X006620Y009512D01*
M02*
