G75*
G70*
%OFA0B0*%
%FSLAX24Y24*%
%IPPOS*%
%LPD*%
%AMOC8*
5,1,8,0,0,1.08239X$1,22.5*
%
%ADD10C,0.0080*%
%ADD11C,0.0060*%
%ADD12C,0.0040*%
%ADD13C,0.0050*%
D10*
X003336Y001287D02*
X012864Y001287D01*
X012864Y011683D01*
X010374Y014173D01*
X005826Y014173D01*
X003336Y011683D01*
X003336Y001287D01*
X002394Y003355D02*
X001606Y003355D01*
X001606Y003906D01*
X001724Y004182D02*
X002000Y004182D01*
X001764Y004418D01*
X002236Y004418D01*
X002000Y004182D01*
X002276Y004182D01*
X002394Y003906D02*
X002394Y003355D01*
X001294Y003355D02*
X000506Y003355D01*
X000506Y003906D01*
X000624Y004182D02*
X000900Y004182D01*
X000664Y004418D01*
X001136Y004418D01*
X000900Y004182D01*
X001176Y004182D01*
X001294Y003906D02*
X001294Y003355D01*
X001294Y004694D02*
X001294Y005245D01*
X000506Y005245D01*
X000506Y004694D01*
X001606Y004694D02*
X001606Y005245D01*
X002394Y005245D01*
X002394Y004694D01*
X001350Y005800D02*
X001600Y006050D01*
X001600Y006550D01*
X001350Y006800D01*
X001600Y007050D01*
X001600Y007550D01*
X001350Y007800D01*
X001600Y008050D01*
X001600Y008550D01*
X001350Y008800D01*
X001600Y009050D01*
X001600Y009550D01*
X001350Y009800D01*
X001600Y010050D01*
X001600Y010550D01*
X001350Y010800D01*
X001600Y011050D01*
X001600Y011550D01*
X001350Y011800D01*
X000850Y011800D01*
X000600Y011550D01*
X000600Y011050D01*
X000850Y010800D01*
X000600Y010550D01*
X000600Y010050D01*
X000850Y009800D01*
X000600Y009550D01*
X000600Y009050D01*
X000850Y008800D01*
X000600Y008550D01*
X000600Y008050D01*
X000850Y007800D01*
X000600Y007550D01*
X000600Y007050D01*
X000850Y006800D01*
X000600Y006550D01*
X000600Y006050D01*
X000850Y005800D01*
X001350Y005800D01*
X014600Y009550D02*
X014850Y009300D01*
X015350Y009300D01*
X015600Y009550D01*
X015600Y010050D01*
X015350Y010300D01*
X015600Y010550D01*
X015600Y011050D01*
X015350Y011300D01*
X014850Y011300D01*
X014600Y011050D01*
X014600Y010550D01*
X014850Y010300D01*
X014600Y010050D01*
X014600Y009550D01*
D11*
X015300Y008587D02*
X015300Y008093D01*
X015053Y008340D02*
X015547Y008340D01*
X015300Y004687D02*
X015300Y004193D01*
X011028Y007141D02*
X004800Y007141D01*
X004764Y007182D02*
X004764Y007418D01*
X005236Y007418D02*
X005236Y007182D01*
X005864Y007182D02*
X005864Y007418D01*
X006336Y007418D02*
X006336Y007182D01*
X004800Y009229D02*
X011028Y009229D01*
D12*
X010885Y008555D02*
X010945Y008533D01*
X011017Y008478D01*
X011038Y008456D01*
X011038Y008264D01*
X010945Y007886D01*
X010046Y007886D01*
X010002Y007700D01*
X009991Y007667D01*
X009997Y007629D01*
X010019Y007612D01*
X010808Y007612D01*
X010879Y007623D01*
X010803Y007437D01*
X009717Y007437D01*
X009673Y007448D01*
X009629Y007480D01*
X009602Y007519D01*
X009586Y007579D01*
X009586Y007634D01*
X009597Y007722D01*
X009706Y008210D01*
X009723Y008270D01*
X009789Y008401D01*
X009838Y008473D01*
X009926Y008528D01*
X009991Y008550D01*
X010024Y008555D01*
X010885Y008555D01*
X010633Y008363D02*
X010633Y008292D01*
X010572Y008056D01*
X010101Y008056D01*
X010096Y008062D01*
X010134Y008286D01*
X010150Y008330D01*
X010172Y008369D01*
X010205Y008385D01*
X010594Y008385D01*
X010616Y008380D01*
X010633Y008363D01*
X009580Y008456D02*
X009580Y008264D01*
X009487Y007886D01*
X008588Y007886D01*
X008544Y007700D01*
X008533Y007667D01*
X008539Y007629D01*
X008560Y007612D01*
X009350Y007612D01*
X009421Y007623D01*
X009344Y007437D01*
X008259Y007437D01*
X008215Y007448D01*
X008171Y007480D01*
X008144Y007519D01*
X008127Y007579D01*
X008127Y007634D01*
X008138Y007722D01*
X008248Y008210D01*
X008264Y008270D01*
X008330Y008401D01*
X008380Y008473D01*
X008467Y008528D01*
X008533Y008550D01*
X008566Y008555D01*
X009427Y008555D01*
X009487Y008533D01*
X009558Y008478D01*
X009580Y008456D01*
X009174Y008363D02*
X009174Y008292D01*
X009114Y008056D01*
X008643Y008056D01*
X008637Y008062D01*
X008676Y008286D01*
X008692Y008330D01*
X008714Y008369D01*
X008747Y008385D01*
X009136Y008385D01*
X009158Y008380D01*
X009174Y008363D01*
X008188Y008703D02*
X008171Y008659D01*
X008105Y008385D01*
X008084Y008330D01*
X008001Y008248D01*
X007936Y008221D01*
X007848Y008199D01*
X007738Y008199D01*
X007897Y008177D01*
X008012Y008122D01*
X008018Y008111D01*
X008018Y007963D01*
X007957Y007722D01*
X007919Y007661D01*
X007908Y007596D01*
X007826Y007502D01*
X007760Y007470D01*
X007656Y007437D01*
X005754Y007437D01*
X005786Y007497D01*
X005786Y007535D01*
X005611Y007968D01*
X005156Y007524D01*
X005107Y007437D01*
X004783Y007437D01*
X004920Y007535D01*
X005556Y008133D01*
X005244Y008895D01*
X005183Y008955D01*
X005786Y008955D01*
X005786Y008922D01*
X005770Y008889D01*
X005786Y008862D01*
X005786Y008835D01*
X005924Y008489D01*
X006313Y008873D01*
X006335Y008900D01*
X006351Y008933D01*
X006357Y008955D01*
X006702Y008955D01*
X006631Y008906D01*
X006576Y008868D01*
X006499Y008802D01*
X005984Y008319D01*
X006291Y007563D01*
X006379Y007442D01*
X006395Y007442D01*
X006428Y007475D01*
X006472Y007607D01*
X006538Y007853D01*
X006614Y008166D01*
X006757Y008747D01*
X006779Y008846D01*
X006779Y008955D01*
X008023Y008955D01*
X008089Y008939D01*
X008133Y008911D01*
X008166Y008851D01*
X008188Y008796D01*
X008188Y008703D01*
X007755Y008654D02*
X007678Y008363D01*
X007661Y008325D01*
X007629Y008303D01*
X007080Y008303D01*
X007195Y008769D01*
X007700Y008769D01*
X007749Y008741D01*
X007755Y008654D01*
X007541Y008105D02*
X007042Y008105D01*
X006916Y007623D01*
X007448Y007623D01*
X007469Y007634D01*
X007508Y007678D01*
X007530Y007711D01*
X007612Y008034D01*
X007612Y008051D01*
X007585Y008089D01*
X007541Y008105D01*
X008352Y006834D02*
X008401Y006806D01*
X008599Y006806D01*
X008758Y006790D01*
X008867Y006724D01*
X008895Y006675D01*
X008895Y006653D01*
X008873Y006603D01*
X008840Y006565D01*
X008774Y006521D01*
X008533Y006400D01*
X008407Y006351D01*
X008308Y006329D01*
X008275Y006324D01*
X008237Y006324D01*
X008221Y006274D01*
X008188Y006176D01*
X008160Y006088D01*
X008138Y006050D01*
X008127Y006028D01*
X008105Y006017D01*
X008078Y006033D01*
X008056Y006066D01*
X008056Y006104D01*
X008067Y006148D01*
X008116Y006252D01*
X008149Y006329D01*
X008160Y006400D01*
X008177Y006466D01*
X008204Y006554D01*
X008232Y006620D01*
X008259Y006664D01*
X008215Y006664D01*
X008215Y006757D01*
X008264Y006757D01*
X008308Y006790D01*
X008352Y006834D01*
X008407Y006697D02*
X008396Y006669D01*
X008297Y006466D01*
X008363Y006466D01*
X008407Y006472D01*
X008478Y006499D01*
X008577Y006527D01*
X008648Y006576D01*
X008736Y006620D01*
X008763Y006642D01*
X008769Y006658D01*
X008752Y006669D01*
X008687Y006697D01*
X008407Y006697D01*
X009087Y006346D02*
X009037Y006170D01*
X009026Y006115D01*
X009032Y006033D01*
X009092Y005978D01*
X009092Y006011D01*
X009114Y006066D01*
X009147Y006165D01*
X009185Y006274D01*
X009196Y006313D01*
X009235Y006313D01*
X009438Y006176D01*
X009651Y006006D01*
X009695Y005973D01*
X009712Y005978D01*
X009728Y006011D01*
X009723Y006044D01*
X009701Y006099D01*
X009657Y006154D01*
X009580Y006214D01*
X009476Y006285D01*
X009394Y006368D01*
X009449Y006400D01*
X009564Y006472D01*
X009684Y006527D01*
X009745Y006565D01*
X009789Y006609D01*
X009789Y006653D01*
X009816Y006702D01*
X009805Y006729D01*
X009767Y006773D01*
X009723Y006801D01*
X009646Y006828D01*
X009580Y006845D01*
X009262Y006845D01*
X009191Y006817D01*
X009131Y006795D01*
X009098Y006762D01*
X009092Y006729D01*
X009103Y006707D01*
X009131Y006691D01*
X009147Y006669D01*
X009147Y006664D01*
X009191Y006697D01*
X009229Y006691D01*
X009213Y006653D01*
X009174Y006581D01*
X009114Y006444D01*
X009087Y006346D01*
X009273Y006472D02*
X009377Y006658D01*
X009383Y006713D01*
X009580Y006713D01*
X009646Y006702D01*
X009662Y006669D01*
X009624Y006658D01*
X009569Y006603D01*
X009492Y006559D01*
X009421Y006521D01*
X009339Y006505D01*
X009273Y006472D01*
X009942Y006285D02*
X009969Y006417D01*
X009986Y006461D01*
X010134Y006609D01*
X010342Y006784D01*
X010457Y006845D01*
X010463Y006845D02*
X010518Y006823D01*
X010556Y006779D01*
X010561Y006751D01*
X010638Y006729D01*
X010748Y006653D01*
X010841Y006576D01*
X010869Y006472D01*
X010858Y006400D01*
X010797Y006291D01*
X010693Y006209D01*
X010616Y006132D01*
X010474Y006099D01*
X010370Y006033D01*
X010211Y006011D01*
X010085Y006011D01*
X009991Y006072D01*
X009937Y006176D01*
X009942Y006285D01*
X010057Y006220D02*
X010106Y006379D01*
X010200Y006505D01*
X010342Y006614D01*
X010403Y006658D01*
X010540Y006658D01*
X010605Y006636D01*
X010726Y006510D01*
X010726Y006379D01*
X010616Y006302D01*
X010501Y006236D01*
X010364Y006192D01*
X010233Y006143D01*
X010101Y006137D01*
X010052Y006165D01*
X010057Y006220D01*
D13*
X013300Y005100D02*
X016200Y005100D01*
X016200Y005800D01*
X016400Y005800D01*
X016400Y007400D01*
X017300Y007400D01*
X017300Y005800D01*
X016400Y005800D01*
X016400Y007400D02*
X016200Y007400D01*
X016200Y008100D01*
X013300Y008100D01*
X013300Y005100D01*
M02*
