G75*
G70*
%OFA0B0*%
%FSLAX24Y24*%
%IPPOS*%
%LPD*%
%AMOC8*
5,1,8,0,0,1.08239X$1,22.5*
%
%ADD10C,0.0595*%
%ADD11C,0.1280*%
%ADD12C,0.1080*%
%ADD13R,0.1080X0.1080*%
%ADD14C,0.0820*%
%ADD15R,0.0880X0.0880*%
%ADD16C,0.0880*%
%ADD17C,0.0476*%
D10*
X008220Y005014D03*
X008220Y005801D03*
X008220Y006589D03*
X008220Y007376D03*
X008220Y008164D03*
X008220Y008951D03*
X008220Y009738D03*
X008220Y010526D03*
X008220Y011313D03*
X008220Y012101D03*
X016881Y012101D03*
X016881Y011313D03*
X016881Y010526D03*
X016881Y009738D03*
X016881Y008951D03*
X016881Y008164D03*
X016881Y007376D03*
X016881Y006589D03*
X016881Y005801D03*
X016881Y005014D03*
D11*
X001600Y001857D03*
X001600Y014307D03*
X018550Y014257D03*
X018800Y001857D03*
D12*
X015600Y004307D03*
X015600Y008057D03*
X009350Y005557D03*
X009350Y004307D03*
D13*
X009350Y008057D03*
D14*
X005650Y003107D03*
X004650Y003007D03*
X003650Y003107D03*
D15*
X011250Y001557D03*
X013250Y001557D03*
D16*
X014628Y001557D03*
X009872Y001557D03*
D17*
X008150Y001557D03*
X006950Y006457D03*
X001650Y003957D03*
X012150Y013257D03*
X018250Y009457D03*
X016250Y001557D03*
M02*
