G75*
G70*
%OFA0B0*%
%FSLAX24Y24*%
%IPPOS*%
%LPD*%
%AMOC8*
5,1,8,0,0,1.08239X$1,22.5*
%
%ADD10C,0.0515*%
%ADD11C,0.1000*%
%ADD12R,0.1000X0.1000*%
%ADD13C,0.0740*%
%ADD14R,0.0800X0.0800*%
%ADD15C,0.0800*%
%ADD16C,0.0396*%
%ADD17C,0.0160*%
D10*
X008220Y005014D03*
X008220Y005801D03*
X008220Y006589D03*
X008220Y007376D03*
X008220Y008164D03*
X008220Y008951D03*
X008220Y009738D03*
X008220Y010526D03*
X008220Y011313D03*
X008220Y012101D03*
X016881Y012101D03*
X016881Y011313D03*
X016881Y010526D03*
X016881Y009738D03*
X016881Y008951D03*
X016881Y008164D03*
X016881Y007376D03*
X016881Y006589D03*
X016881Y005801D03*
X016881Y005014D03*
D11*
X015600Y004307D03*
X015600Y008057D03*
X009350Y005557D03*
X009350Y004307D03*
D12*
X009350Y008057D03*
D13*
X005650Y003107D03*
X004650Y003007D03*
X003650Y003107D03*
D14*
X011250Y001557D03*
X013250Y001557D03*
D15*
X014628Y001557D03*
X009872Y001557D03*
D16*
X008150Y001557D03*
X006950Y006457D03*
X001650Y003957D03*
X012150Y013257D03*
X018250Y009457D03*
X016250Y001557D03*
D17*
X002810Y000979D02*
X002718Y000887D01*
X010770Y000887D01*
X010692Y000920D01*
X010613Y000999D01*
X010570Y001102D01*
X010570Y002013D01*
X010613Y002116D01*
X010692Y002195D01*
X010795Y002237D01*
X011706Y002237D01*
X011809Y002195D01*
X011888Y002116D01*
X011930Y002013D01*
X011930Y001102D01*
X011888Y000999D01*
X011809Y000920D01*
X011730Y000887D01*
X017682Y000887D01*
X017591Y000979D01*
X017591Y000979D01*
X017378Y001395D01*
X017378Y001395D01*
X017305Y001857D01*
X017305Y001857D01*
X017378Y002319D01*
X017378Y002319D01*
X017591Y002736D01*
X017591Y002736D01*
X017921Y003067D01*
X017921Y003067D01*
X018338Y003279D01*
X018338Y003279D01*
X018800Y003352D01*
X018800Y003352D01*
X019262Y003279D01*
X019262Y003279D01*
X019679Y003067D01*
X019740Y003005D01*
X019740Y013359D01*
X019429Y013048D01*
X019429Y013048D01*
X019012Y012835D01*
X018550Y012762D01*
X018550Y012762D01*
X018088Y012835D01*
X018088Y012835D01*
X017671Y013048D01*
X017671Y013048D01*
X017341Y013379D01*
X017341Y013379D01*
X017128Y013795D01*
X017128Y013795D01*
X017055Y014257D01*
X017055Y014257D01*
X017128Y014719D01*
X017128Y014719D01*
X017341Y015136D01*
X017341Y015136D01*
X017428Y015223D01*
X002772Y015223D01*
X002810Y015186D01*
X002810Y015186D01*
X003022Y014769D01*
X003022Y014769D01*
X003095Y014307D01*
X003095Y014307D01*
X003022Y013845D01*
X002810Y013429D01*
X002479Y013098D01*
X002479Y013098D01*
X002062Y012885D01*
X002062Y012885D01*
X001600Y012812D01*
X001600Y012812D01*
X001138Y012885D01*
X001138Y012885D01*
X000750Y013083D01*
X000750Y003081D01*
X001138Y003279D01*
X001138Y003279D01*
X001600Y003352D01*
X001600Y003352D01*
X002062Y003279D01*
X002062Y003279D01*
X002479Y003067D01*
X002479Y003067D01*
X002810Y002736D01*
X002810Y002736D01*
X003022Y002319D01*
X003022Y002319D01*
X003095Y001857D01*
X003022Y001395D01*
X003022Y001395D01*
X002810Y000979D01*
X002810Y000979D01*
X002837Y001033D02*
X009624Y001033D01*
X009650Y001020D02*
X009736Y000992D01*
X009827Y000977D01*
X009834Y000977D01*
X009834Y001519D01*
X009910Y001519D01*
X009910Y000977D01*
X009918Y000977D01*
X010008Y000992D01*
X010095Y001020D01*
X010176Y001061D01*
X010250Y001115D01*
X010315Y001179D01*
X010368Y001253D01*
X010410Y001335D01*
X010438Y001422D01*
X010452Y001512D01*
X010452Y001519D01*
X009910Y001519D01*
X009910Y001595D01*
X010452Y001595D01*
X010452Y001603D01*
X010438Y001693D01*
X010410Y001780D01*
X010368Y001861D01*
X010315Y001935D01*
X010250Y002000D01*
X010176Y002053D01*
X010095Y002095D01*
X010008Y002123D01*
X009918Y002137D01*
X009910Y002137D01*
X009910Y001595D01*
X009834Y001595D01*
X009834Y001519D01*
X009292Y001519D01*
X009292Y001512D01*
X009307Y001422D01*
X009335Y001335D01*
X009376Y001253D01*
X009430Y001179D01*
X009494Y001115D01*
X009568Y001061D01*
X009650Y001020D01*
X009834Y001033D02*
X009910Y001033D01*
X009910Y001191D02*
X009834Y001191D01*
X009834Y001350D02*
X009910Y001350D01*
X009910Y001508D02*
X009834Y001508D01*
X009834Y001595D02*
X009292Y001595D01*
X009292Y001603D01*
X009307Y001693D01*
X009335Y001780D01*
X009376Y001861D01*
X009430Y001935D01*
X009494Y002000D01*
X009568Y002053D01*
X009650Y002095D01*
X009736Y002123D01*
X009827Y002137D01*
X009834Y002137D01*
X009834Y001595D01*
X009834Y001667D02*
X009910Y001667D01*
X009910Y001825D02*
X009834Y001825D01*
X009834Y001984D02*
X009910Y001984D01*
X010266Y001984D02*
X010570Y001984D01*
X010570Y001825D02*
X010387Y001825D01*
X010442Y001667D02*
X010570Y001667D01*
X010570Y001508D02*
X010452Y001508D01*
X010415Y001350D02*
X010570Y001350D01*
X010570Y001191D02*
X010323Y001191D01*
X010120Y001033D02*
X010599Y001033D01*
X009421Y001191D02*
X002918Y001191D01*
X002999Y001350D02*
X009330Y001350D01*
X009293Y001508D02*
X003040Y001508D01*
X003065Y001667D02*
X009302Y001667D01*
X009358Y001825D02*
X003090Y001825D01*
X003075Y001984D02*
X009479Y001984D01*
X010639Y002142D02*
X003050Y002142D01*
X003025Y002301D02*
X017375Y002301D01*
X017350Y002142D02*
X013805Y002142D01*
X013786Y002161D02*
X013698Y002197D01*
X012802Y002197D01*
X012714Y002161D01*
X012647Y002093D01*
X012610Y002005D01*
X012610Y001110D01*
X012647Y001021D01*
X012714Y000954D01*
X012802Y000917D01*
X013698Y000917D01*
X013786Y000954D01*
X013854Y001021D01*
X013890Y001110D01*
X013890Y002005D01*
X013854Y002093D01*
X013786Y002161D01*
X013890Y001984D02*
X014234Y001984D01*
X014250Y002000D02*
X014186Y001935D01*
X014132Y001861D01*
X014091Y001780D01*
X014062Y001693D01*
X014048Y001603D01*
X014048Y001595D01*
X014590Y001595D01*
X014590Y001519D01*
X014666Y001519D01*
X014666Y000977D01*
X014674Y000977D01*
X014764Y000992D01*
X014851Y001020D01*
X014932Y001061D01*
X015006Y001115D01*
X015071Y001179D01*
X015124Y001253D01*
X015166Y001335D01*
X015194Y001422D01*
X015208Y001512D01*
X015208Y001519D01*
X014666Y001519D01*
X014666Y001595D01*
X015208Y001595D01*
X015208Y001603D01*
X015194Y001693D01*
X015166Y001780D01*
X015124Y001861D01*
X015071Y001935D01*
X015006Y002000D01*
X014932Y002053D01*
X014851Y002095D01*
X014764Y002123D01*
X014674Y002137D01*
X014666Y002137D01*
X014666Y001595D01*
X014590Y001595D01*
X014590Y002137D01*
X014583Y002137D01*
X014492Y002123D01*
X014406Y002095D01*
X014324Y002053D01*
X014250Y002000D01*
X014114Y001825D02*
X013890Y001825D01*
X013890Y001667D02*
X014058Y001667D01*
X014048Y001519D02*
X014048Y001512D01*
X014062Y001422D01*
X014091Y001335D01*
X014132Y001253D01*
X014186Y001179D01*
X014250Y001115D01*
X014324Y001061D01*
X014406Y001020D01*
X014492Y000992D01*
X014583Y000977D01*
X014590Y000977D01*
X014590Y001519D01*
X014048Y001519D01*
X014049Y001508D02*
X013890Y001508D01*
X013890Y001350D02*
X014086Y001350D01*
X014177Y001191D02*
X013890Y001191D01*
X013858Y001033D02*
X014380Y001033D01*
X014590Y001033D02*
X014666Y001033D01*
X014666Y001191D02*
X014590Y001191D01*
X014590Y001350D02*
X014666Y001350D01*
X014666Y001508D02*
X014590Y001508D01*
X014590Y001667D02*
X014666Y001667D01*
X014666Y001825D02*
X014590Y001825D01*
X014590Y001984D02*
X014666Y001984D01*
X015022Y001984D02*
X017325Y001984D01*
X017310Y001825D02*
X015143Y001825D01*
X015198Y001667D02*
X017335Y001667D01*
X017360Y001508D02*
X015208Y001508D01*
X015171Y001350D02*
X017402Y001350D01*
X017482Y001191D02*
X015079Y001191D01*
X014876Y001033D02*
X017563Y001033D01*
X017450Y002459D02*
X004921Y002459D01*
X004996Y002490D02*
X005167Y002662D01*
X005187Y002708D01*
X005305Y002590D01*
X005529Y002497D01*
X005772Y002497D01*
X005996Y002590D01*
X006167Y002762D01*
X006260Y002986D01*
X006260Y003229D01*
X006167Y003453D01*
X005996Y003624D01*
X005772Y003717D01*
X005529Y003717D01*
X005305Y003624D01*
X005133Y003453D01*
X005114Y003406D01*
X004996Y003524D01*
X004772Y003617D01*
X004529Y003617D01*
X004305Y003524D01*
X004139Y003359D01*
X004121Y003396D01*
X004070Y003466D01*
X004009Y003527D01*
X003938Y003578D01*
X003861Y003617D01*
X003779Y003644D01*
X003693Y003657D01*
X003670Y003657D01*
X003670Y003127D01*
X003630Y003127D01*
X003630Y003087D01*
X003670Y003087D01*
X003670Y002557D01*
X003693Y002557D01*
X003779Y002571D01*
X003861Y002598D01*
X003938Y002637D01*
X004009Y002688D01*
X004070Y002749D01*
X004087Y002773D01*
X004133Y002662D01*
X004305Y002490D01*
X004529Y002397D01*
X004772Y002397D01*
X004996Y002490D01*
X005123Y002618D02*
X005277Y002618D01*
X006023Y002618D02*
X017530Y002618D01*
X017631Y002776D02*
X006173Y002776D01*
X006239Y002935D02*
X017789Y002935D01*
X017974Y003093D02*
X006260Y003093D01*
X006251Y003252D02*
X018285Y003252D01*
X019316Y003252D02*
X019740Y003252D01*
X019740Y003410D02*
X006185Y003410D01*
X006051Y003569D02*
X009199Y003569D01*
X009203Y003567D02*
X009497Y003567D01*
X009769Y003680D01*
X009978Y003888D01*
X010090Y004160D01*
X010090Y004455D01*
X009978Y004726D01*
X009800Y004904D01*
X010011Y005115D01*
X010130Y005402D01*
X010130Y005712D01*
X010011Y005999D01*
X009792Y006219D01*
X009505Y006337D01*
X009195Y006337D01*
X008908Y006219D01*
X008689Y005999D01*
X008683Y005984D01*
X008641Y006083D01*
X008529Y006195D01*
X008641Y006307D01*
X008717Y006490D01*
X008717Y006688D01*
X008641Y006871D01*
X008529Y006983D01*
X008641Y007094D01*
X008717Y007277D01*
X008717Y007436D01*
X008740Y007413D01*
X008781Y007390D01*
X008827Y007377D01*
X009293Y007377D01*
X009293Y008000D01*
X009408Y008000D01*
X009408Y008115D01*
X010030Y008115D01*
X010030Y008581D01*
X010018Y008627D01*
X009994Y008668D01*
X009961Y008701D01*
X009920Y008725D01*
X009874Y008737D01*
X009408Y008737D01*
X009408Y008115D01*
X009293Y008115D01*
X009293Y008737D01*
X008827Y008737D01*
X008781Y008725D01*
X008740Y008701D01*
X008706Y008668D01*
X008682Y008627D01*
X008670Y008581D01*
X008670Y008375D01*
X008641Y008445D01*
X008529Y008557D01*
X008641Y008669D01*
X008717Y008852D01*
X008717Y009050D01*
X008641Y009233D01*
X008529Y009345D01*
X008641Y009457D01*
X008717Y009639D01*
X008717Y009837D01*
X008641Y010020D01*
X008529Y010132D01*
X008641Y010244D01*
X008717Y010427D01*
X008717Y010625D01*
X008641Y010808D01*
X008529Y010920D01*
X008641Y011031D01*
X008717Y011214D01*
X008717Y011412D01*
X008641Y011595D01*
X008529Y011707D01*
X008641Y011819D01*
X008717Y012002D01*
X008717Y012200D01*
X008641Y012382D01*
X008501Y012522D01*
X008318Y012598D01*
X008121Y012598D01*
X007938Y012522D01*
X007798Y012382D01*
X007722Y012200D01*
X007722Y012002D01*
X007798Y011819D01*
X007910Y011707D01*
X007798Y011595D01*
X007722Y011412D01*
X007722Y011214D01*
X007798Y011031D01*
X007910Y010920D01*
X007798Y010808D01*
X007722Y010625D01*
X007722Y010427D01*
X007798Y010244D01*
X007910Y010132D01*
X007798Y010020D01*
X007722Y009837D01*
X007722Y009639D01*
X007798Y009457D01*
X007910Y009345D01*
X007798Y009233D01*
X007722Y009050D01*
X007722Y008852D01*
X007798Y008669D01*
X007910Y008557D01*
X007798Y008445D01*
X007722Y008263D01*
X007722Y008065D01*
X007798Y007882D01*
X007910Y007770D01*
X007798Y007658D01*
X007722Y007475D01*
X007722Y007277D01*
X007798Y007094D01*
X007910Y006983D01*
X007798Y006871D01*
X007722Y006688D01*
X007722Y006490D01*
X007798Y006307D01*
X007910Y006195D01*
X007798Y006083D01*
X007722Y005900D01*
X007722Y005702D01*
X007798Y005520D01*
X007910Y005408D01*
X007798Y005296D01*
X007722Y005113D01*
X007722Y004915D01*
X007798Y004732D01*
X007938Y004592D01*
X008121Y004517D01*
X008318Y004517D01*
X008501Y004592D01*
X008641Y004732D01*
X008717Y004915D01*
X008717Y005087D01*
X008900Y004904D01*
X008723Y004726D01*
X008610Y004455D01*
X008610Y004160D01*
X008723Y003888D01*
X008931Y003680D01*
X009203Y003567D01*
X009501Y003569D02*
X015345Y003569D01*
X015445Y003527D02*
X015755Y003527D01*
X016042Y003646D01*
X016261Y003865D01*
X016380Y004152D01*
X016380Y004462D01*
X016261Y004749D01*
X016042Y004969D01*
X015755Y005087D01*
X015445Y005087D01*
X015158Y004969D01*
X014939Y004749D01*
X014820Y004462D01*
X014820Y004152D01*
X014939Y003865D01*
X015158Y003646D01*
X015445Y003527D01*
X015077Y003727D02*
X009817Y003727D01*
X009975Y003886D02*
X014931Y003886D01*
X014865Y004044D02*
X010042Y004044D01*
X010090Y004203D02*
X014820Y004203D01*
X014820Y004361D02*
X010090Y004361D01*
X010063Y004520D02*
X014844Y004520D01*
X014910Y004678D02*
X009998Y004678D01*
X009867Y004837D02*
X015027Y004837D01*
X015223Y004995D02*
X009891Y004995D01*
X010027Y005154D02*
X016466Y005154D01*
X016475Y005182D02*
X016454Y005116D01*
X016443Y005048D01*
X016443Y005014D01*
X016443Y004980D01*
X016454Y004912D01*
X016475Y004846D01*
X016507Y004785D01*
X016547Y004729D01*
X016596Y004680D01*
X016652Y004640D01*
X016713Y004609D01*
X016778Y004587D01*
X016846Y004577D01*
X016881Y004577D01*
X016915Y004577D01*
X016983Y004587D01*
X017049Y004609D01*
X017110Y004640D01*
X017166Y004680D01*
X017215Y004729D01*
X017255Y004785D01*
X017286Y004846D01*
X017308Y004912D01*
X017318Y004980D01*
X017318Y005014D01*
X016881Y005014D01*
X016881Y005014D01*
X017318Y005014D01*
X017318Y005048D01*
X017308Y005116D01*
X017286Y005182D01*
X017255Y005243D01*
X017215Y005299D01*
X017166Y005348D01*
X017137Y005369D01*
X017163Y005380D01*
X017303Y005520D01*
X017378Y005702D01*
X017378Y005900D01*
X017303Y006083D01*
X017191Y006195D01*
X017303Y006307D01*
X017378Y006490D01*
X017378Y006688D01*
X017303Y006871D01*
X017191Y006983D01*
X017303Y007094D01*
X017378Y007277D01*
X017378Y007475D01*
X017303Y007658D01*
X017191Y007770D01*
X017303Y007882D01*
X017378Y008065D01*
X017378Y008263D01*
X017303Y008445D01*
X017191Y008557D01*
X017303Y008669D01*
X017378Y008852D01*
X017378Y009050D01*
X017303Y009233D01*
X017191Y009345D01*
X017303Y009457D01*
X017378Y009639D01*
X017378Y009837D01*
X017303Y010020D01*
X017191Y010132D01*
X017303Y010244D01*
X017378Y010427D01*
X017378Y010625D01*
X017303Y010808D01*
X017191Y010920D01*
X017303Y011031D01*
X017378Y011214D01*
X017378Y011412D01*
X017303Y011595D01*
X017191Y011707D01*
X017303Y011819D01*
X017378Y012002D01*
X017378Y012200D01*
X017303Y012382D01*
X017163Y012522D01*
X016980Y012598D01*
X016782Y012598D01*
X016599Y012522D01*
X016459Y012382D01*
X016383Y012200D01*
X016383Y012002D01*
X016459Y011819D01*
X016571Y011707D01*
X016459Y011595D01*
X016383Y011412D01*
X016383Y011214D01*
X016459Y011031D01*
X016571Y010920D01*
X016459Y010808D01*
X016383Y010625D01*
X016383Y010427D01*
X016459Y010244D01*
X016571Y010132D01*
X016459Y010020D01*
X016383Y009837D01*
X016383Y009639D01*
X016459Y009457D01*
X016571Y009345D01*
X016459Y009233D01*
X016383Y009050D01*
X016383Y008852D01*
X016459Y008669D01*
X016571Y008557D01*
X016459Y008445D01*
X016383Y008263D01*
X016383Y008065D01*
X016459Y007882D01*
X016571Y007770D01*
X016459Y007658D01*
X016383Y007475D01*
X016383Y007277D01*
X016459Y007094D01*
X016571Y006983D01*
X016459Y006871D01*
X016383Y006688D01*
X016383Y006490D01*
X016459Y006307D01*
X016571Y006195D01*
X016459Y006083D01*
X016383Y005900D01*
X016383Y005702D01*
X016459Y005520D01*
X016599Y005380D01*
X016625Y005369D01*
X016596Y005348D01*
X016547Y005299D01*
X016507Y005243D01*
X016475Y005182D01*
X016561Y005312D02*
X010093Y005312D01*
X010130Y005471D02*
X016508Y005471D01*
X016414Y005629D02*
X010130Y005629D01*
X010099Y005788D02*
X016383Y005788D01*
X016402Y005946D02*
X010033Y005946D01*
X009906Y006105D02*
X016481Y006105D01*
X016503Y006263D02*
X009684Y006263D01*
X009016Y006263D02*
X008598Y006263D01*
X008620Y006105D02*
X008795Y006105D01*
X008689Y006422D02*
X016412Y006422D01*
X016383Y006580D02*
X008717Y006580D01*
X008696Y006739D02*
X016405Y006739D01*
X016486Y006897D02*
X008615Y006897D01*
X008603Y007056D02*
X016498Y007056D01*
X016410Y007214D02*
X008691Y007214D01*
X008717Y007373D02*
X015319Y007373D01*
X015453Y007317D02*
X015747Y007317D01*
X016019Y007430D01*
X016228Y007638D01*
X016340Y007910D01*
X016340Y008205D01*
X016228Y008476D01*
X016019Y008685D01*
X015747Y008797D01*
X015453Y008797D01*
X015181Y008685D01*
X014973Y008476D01*
X014860Y008205D01*
X014860Y007910D01*
X014973Y007638D01*
X015181Y007430D01*
X015453Y007317D01*
X015080Y007531D02*
X010030Y007531D01*
X010030Y007534D02*
X010030Y008000D01*
X009408Y008000D01*
X009408Y007377D01*
X009874Y007377D01*
X009920Y007390D01*
X009961Y007413D01*
X009994Y007447D01*
X010018Y007488D01*
X010030Y007534D01*
X010030Y007690D02*
X014951Y007690D01*
X014886Y007848D02*
X010030Y007848D01*
X010030Y008165D02*
X014860Y008165D01*
X014860Y008007D02*
X009408Y008007D01*
X009408Y008165D02*
X009293Y008165D01*
X009293Y008324D02*
X009408Y008324D01*
X009408Y008482D02*
X009293Y008482D01*
X009293Y008641D02*
X009408Y008641D01*
X010010Y008641D02*
X015137Y008641D01*
X014979Y008482D02*
X010030Y008482D01*
X010030Y008324D02*
X014910Y008324D01*
X016063Y008641D02*
X016488Y008641D01*
X016496Y008482D02*
X016222Y008482D01*
X016291Y008324D02*
X016409Y008324D01*
X016383Y008165D02*
X016340Y008165D01*
X016340Y008007D02*
X016407Y008007D01*
X016493Y007848D02*
X016315Y007848D01*
X016249Y007690D02*
X016491Y007690D01*
X016407Y007531D02*
X016121Y007531D01*
X015881Y007373D02*
X016383Y007373D01*
X017264Y007056D02*
X019740Y007056D01*
X019740Y007214D02*
X017352Y007214D01*
X017378Y007373D02*
X019740Y007373D01*
X019740Y007531D02*
X017355Y007531D01*
X017271Y007690D02*
X019740Y007690D01*
X019740Y007848D02*
X017269Y007848D01*
X017354Y008007D02*
X019740Y008007D01*
X019740Y008165D02*
X017378Y008165D01*
X017353Y008324D02*
X019740Y008324D01*
X019740Y008482D02*
X017266Y008482D01*
X017274Y008641D02*
X019740Y008641D01*
X019740Y008799D02*
X017357Y008799D01*
X017378Y008958D02*
X019740Y008958D01*
X019740Y009116D02*
X017351Y009116D01*
X017261Y009275D02*
X019740Y009275D01*
X019740Y009433D02*
X017279Y009433D01*
X017359Y009592D02*
X019740Y009592D01*
X019740Y009750D02*
X017378Y009750D01*
X017349Y009909D02*
X019740Y009909D01*
X019740Y010067D02*
X017256Y010067D01*
X017284Y010226D02*
X019740Y010226D01*
X019740Y010384D02*
X017361Y010384D01*
X017378Y010543D02*
X019740Y010543D01*
X019740Y010701D02*
X017347Y010701D01*
X017250Y010860D02*
X019740Y010860D01*
X019740Y011018D02*
X017290Y011018D01*
X017363Y011177D02*
X019740Y011177D01*
X019740Y011335D02*
X017378Y011335D01*
X017345Y011494D02*
X019740Y011494D01*
X019740Y011652D02*
X017245Y011652D01*
X017295Y011811D02*
X019740Y011811D01*
X019740Y011969D02*
X017365Y011969D01*
X017378Y012128D02*
X019740Y012128D01*
X019740Y012286D02*
X017342Y012286D01*
X017240Y012445D02*
X019740Y012445D01*
X019740Y012603D02*
X000750Y012603D01*
X000750Y012445D02*
X007860Y012445D01*
X007758Y012286D02*
X000750Y012286D01*
X000750Y012128D02*
X007722Y012128D01*
X007735Y011969D02*
X000750Y011969D01*
X000750Y011811D02*
X007806Y011811D01*
X007855Y011652D02*
X000750Y011652D01*
X000750Y011494D02*
X007756Y011494D01*
X007722Y011335D02*
X000750Y011335D01*
X000750Y011177D02*
X007738Y011177D01*
X007811Y011018D02*
X000750Y011018D01*
X000750Y010860D02*
X007850Y010860D01*
X007754Y010701D02*
X000750Y010701D01*
X000750Y010543D02*
X007722Y010543D01*
X007740Y010384D02*
X000750Y010384D01*
X000750Y010226D02*
X007816Y010226D01*
X007845Y010067D02*
X000750Y010067D01*
X000750Y009909D02*
X007752Y009909D01*
X007722Y009750D02*
X000750Y009750D01*
X000750Y009592D02*
X007742Y009592D01*
X007821Y009433D02*
X000750Y009433D01*
X000750Y009275D02*
X007840Y009275D01*
X007750Y009116D02*
X000750Y009116D01*
X000750Y008958D02*
X007722Y008958D01*
X007744Y008799D02*
X000750Y008799D01*
X000750Y008641D02*
X007826Y008641D01*
X007835Y008482D02*
X000750Y008482D01*
X000750Y008324D02*
X007747Y008324D01*
X007722Y008165D02*
X000750Y008165D01*
X000750Y008007D02*
X007746Y008007D01*
X007831Y007848D02*
X000750Y007848D01*
X000750Y007690D02*
X007830Y007690D01*
X007745Y007531D02*
X000750Y007531D01*
X000750Y007373D02*
X007722Y007373D01*
X007748Y007214D02*
X000750Y007214D01*
X000750Y007056D02*
X007836Y007056D01*
X007824Y006897D02*
X000750Y006897D01*
X000750Y006739D02*
X007743Y006739D01*
X007722Y006580D02*
X000750Y006580D01*
X000750Y006422D02*
X007750Y006422D01*
X007841Y006263D02*
X000750Y006263D01*
X000750Y006105D02*
X007819Y006105D01*
X007741Y005946D02*
X000750Y005946D01*
X000750Y005788D02*
X007722Y005788D01*
X007752Y005629D02*
X000750Y005629D01*
X000750Y005471D02*
X007847Y005471D01*
X007814Y005312D02*
X000750Y005312D01*
X000750Y005154D02*
X007739Y005154D01*
X007722Y004995D02*
X000750Y004995D01*
X000750Y004837D02*
X007754Y004837D01*
X007852Y004678D02*
X000750Y004678D01*
X000750Y004520D02*
X008113Y004520D01*
X008326Y004520D02*
X008637Y004520D01*
X008610Y004361D02*
X000750Y004361D01*
X000750Y004203D02*
X008610Y004203D01*
X008658Y004044D02*
X000750Y004044D01*
X000750Y003886D02*
X008725Y003886D01*
X008884Y003727D02*
X000750Y003727D01*
X000750Y003569D02*
X003350Y003569D01*
X003362Y003578D02*
X003292Y003527D01*
X003231Y003466D01*
X003180Y003396D01*
X003141Y003318D01*
X003114Y003236D01*
X003100Y003151D01*
X003100Y003127D01*
X003630Y003127D01*
X003630Y003657D01*
X003607Y003657D01*
X003521Y003644D01*
X003439Y003617D01*
X003362Y003578D01*
X003191Y003410D02*
X000750Y003410D01*
X000750Y003252D02*
X001085Y003252D01*
X000774Y003093D02*
X000750Y003093D01*
X002116Y003252D02*
X003119Y003252D01*
X003100Y003087D02*
X003100Y003064D01*
X003114Y002979D01*
X003141Y002896D01*
X003180Y002819D01*
X003231Y002749D01*
X003292Y002688D01*
X003362Y002637D01*
X003439Y002598D01*
X003521Y002571D01*
X003607Y002557D01*
X003630Y002557D01*
X003630Y003087D01*
X003100Y003087D01*
X003128Y002935D02*
X002611Y002935D01*
X002769Y002776D02*
X003211Y002776D01*
X003399Y002618D02*
X002870Y002618D01*
X002951Y002459D02*
X004379Y002459D01*
X004177Y002618D02*
X003901Y002618D01*
X003670Y002618D02*
X003630Y002618D01*
X003630Y002776D02*
X003670Y002776D01*
X003670Y002935D02*
X003630Y002935D01*
X003630Y003093D02*
X002427Y003093D01*
X003630Y003252D02*
X003670Y003252D01*
X003670Y003410D02*
X003630Y003410D01*
X003630Y003569D02*
X003670Y003569D01*
X003951Y003569D02*
X004412Y003569D01*
X004191Y003410D02*
X004110Y003410D01*
X004889Y003569D02*
X005249Y003569D01*
X005115Y003410D02*
X005110Y003410D01*
X008587Y004678D02*
X008703Y004678D01*
X008685Y004837D02*
X008833Y004837D01*
X008809Y004995D02*
X008717Y004995D01*
X009293Y007531D02*
X009408Y007531D01*
X009408Y007690D02*
X009293Y007690D01*
X009293Y007848D02*
X009408Y007848D01*
X008670Y008482D02*
X008604Y008482D01*
X008613Y008641D02*
X008691Y008641D01*
X008695Y008799D02*
X016405Y008799D01*
X016383Y008958D02*
X008717Y008958D01*
X008689Y009116D02*
X016411Y009116D01*
X016501Y009275D02*
X008599Y009275D01*
X008618Y009433D02*
X016482Y009433D01*
X016403Y009592D02*
X008697Y009592D01*
X008717Y009750D02*
X016383Y009750D01*
X016413Y009909D02*
X008687Y009909D01*
X008594Y010067D02*
X016506Y010067D01*
X016477Y010226D02*
X008623Y010226D01*
X008699Y010384D02*
X016401Y010384D01*
X016383Y010543D02*
X008717Y010543D01*
X008685Y010701D02*
X016415Y010701D01*
X016511Y010860D02*
X008589Y010860D01*
X008628Y011018D02*
X016472Y011018D01*
X016399Y011177D02*
X008701Y011177D01*
X008717Y011335D02*
X016383Y011335D01*
X016417Y011494D02*
X008683Y011494D01*
X008584Y011652D02*
X016516Y011652D01*
X016467Y011811D02*
X008633Y011811D01*
X008704Y011969D02*
X016397Y011969D01*
X016383Y012128D02*
X008717Y012128D01*
X008681Y012286D02*
X016419Y012286D01*
X016522Y012445D02*
X008579Y012445D01*
X003076Y014188D02*
X017066Y014188D01*
X017069Y014347D02*
X003089Y014347D01*
X003064Y014505D02*
X017094Y014505D01*
X017120Y014664D02*
X003039Y014664D01*
X002995Y014822D02*
X017181Y014822D01*
X017262Y014981D02*
X002914Y014981D01*
X002833Y015139D02*
X017344Y015139D01*
X017091Y014030D02*
X003051Y014030D01*
X003026Y013871D02*
X017116Y013871D01*
X017170Y013713D02*
X002955Y013713D01*
X002874Y013554D02*
X017251Y013554D01*
X017332Y013396D02*
X002777Y013396D01*
X002618Y013237D02*
X017482Y013237D01*
X017640Y013079D02*
X002442Y013079D01*
X002131Y012920D02*
X017922Y012920D01*
X019179Y012920D02*
X019740Y012920D01*
X019740Y012762D02*
X000750Y012762D01*
X000750Y012920D02*
X001070Y012920D01*
X000759Y013079D02*
X000750Y013079D01*
X011861Y002142D02*
X012696Y002142D01*
X012610Y001984D02*
X011930Y001984D01*
X011930Y001825D02*
X012610Y001825D01*
X012610Y001667D02*
X011930Y001667D01*
X011930Y001508D02*
X012610Y001508D01*
X012610Y001350D02*
X011930Y001350D01*
X011930Y001191D02*
X012610Y001191D01*
X012642Y001033D02*
X011902Y001033D01*
X015856Y003569D02*
X019740Y003569D01*
X019740Y003727D02*
X016123Y003727D01*
X016270Y003886D02*
X019740Y003886D01*
X019740Y004044D02*
X016336Y004044D01*
X016380Y004203D02*
X019740Y004203D01*
X019740Y004361D02*
X016380Y004361D01*
X016356Y004520D02*
X019740Y004520D01*
X019740Y004678D02*
X017163Y004678D01*
X017282Y004837D02*
X019740Y004837D01*
X019740Y004995D02*
X017318Y004995D01*
X017295Y005154D02*
X019740Y005154D01*
X019740Y005312D02*
X017201Y005312D01*
X017254Y005471D02*
X019740Y005471D01*
X019740Y005629D02*
X017348Y005629D01*
X017378Y005788D02*
X019740Y005788D01*
X019740Y005946D02*
X017359Y005946D01*
X017281Y006105D02*
X019740Y006105D01*
X019740Y006263D02*
X017259Y006263D01*
X017350Y006422D02*
X019740Y006422D01*
X019740Y006580D02*
X017378Y006580D01*
X017357Y006739D02*
X019740Y006739D01*
X019740Y006897D02*
X017276Y006897D01*
X016881Y005014D02*
X016443Y005014D01*
X016881Y005014D01*
X016881Y004577D01*
X016881Y005014D01*
X016881Y005014D01*
X016881Y005014D01*
X016881Y004995D02*
X016881Y004995D01*
X016881Y004837D02*
X016881Y004837D01*
X016881Y004678D02*
X016881Y004678D01*
X016599Y004678D02*
X016291Y004678D01*
X016174Y004837D02*
X016480Y004837D01*
X016443Y004995D02*
X015977Y004995D01*
X019627Y003093D02*
X019740Y003093D01*
X019679Y003067D02*
X019679Y003067D01*
X019740Y013079D02*
X019460Y013079D01*
X019618Y013237D02*
X019740Y013237D01*
M02*
