%
M48
M72
T01C0.0315
T02C0.0400
%
T01
X3769Y4557
X3769Y5344
X3769Y6131
X3769Y6919
X3769Y7706
X3769Y8494
X3769Y9281
X3769Y10069
X3769Y10856
X3769Y11643
X12431Y11643
X12431Y10856
X12431Y10069
X12431Y9281
X12431Y8494
X12431Y7706
X12431Y6919
X12431Y6131
X12431Y5344
X12431Y4557
T02
X2050Y3100
X2150Y4100
X2050Y5100
X2150Y6100
X2050Y7100
X2150Y8100
X2050Y9100
X2150Y10100
X2050Y11100
X2150Y12100
X14050Y11100
X14150Y10100
X14050Y9100
X14150Y8100
X14050Y7100
X14150Y6100
X14050Y5100
X14150Y4100
X14050Y3100
X14150Y12100
M30
