G75*
G70*
%OFA0B0*%
%FSLAX24Y24*%
%IPPOS*%
%LPD*%
%AMOC8*
5,1,8,0,0,1.08239X$1,22.5*
%
%ADD10C,0.0515*%
%ADD11C,0.0740*%
%ADD12C,0.0250*%
D10*
X003769Y004557D03*
X003769Y005344D03*
X003769Y006131D03*
X003769Y006919D03*
X003769Y007706D03*
X003769Y008494D03*
X003769Y009281D03*
X003769Y010069D03*
X003769Y010856D03*
X003769Y011643D03*
X012431Y011643D03*
X012431Y010856D03*
X012431Y010069D03*
X012431Y009281D03*
X012431Y008494D03*
X012431Y007706D03*
X012431Y006919D03*
X012431Y006131D03*
X012431Y005344D03*
X012431Y004557D03*
D11*
X002050Y003100D03*
X002150Y004100D03*
X002050Y005100D03*
X002150Y006100D03*
X002050Y007100D03*
X002150Y008100D03*
X002050Y009100D03*
X002150Y010100D03*
X002050Y011100D03*
X002150Y012100D03*
X014050Y011100D03*
X014150Y010100D03*
X014050Y009100D03*
X014150Y008100D03*
X014050Y007100D03*
X014150Y006100D03*
X014050Y005100D03*
X014150Y004100D03*
X014050Y003100D03*
X014150Y012100D03*
D12*
X012887Y012100D01*
X012431Y011643D01*
X012675Y011100D02*
X012431Y010856D01*
X012675Y011100D02*
X014050Y011100D01*
X014150Y010100D02*
X012462Y010100D01*
X012431Y010069D01*
X012431Y009281D02*
X013869Y009281D01*
X014050Y009100D01*
X013706Y008494D02*
X014100Y008100D01*
X014150Y008100D01*
X013706Y008494D02*
X012431Y008494D01*
X012431Y006919D02*
X013331Y006919D01*
X014150Y006100D01*
X014100Y005100D02*
X014050Y005100D01*
X014100Y005100D02*
X013069Y006131D01*
X012431Y006131D01*
X012431Y005344D02*
X012906Y005344D01*
X014150Y004100D01*
X014050Y003100D02*
X012593Y004557D01*
X012431Y004557D01*
X003769Y004557D02*
X002313Y003100D01*
X002050Y003100D01*
X002150Y004100D02*
X002525Y004100D01*
X003769Y005344D01*
X003163Y007100D02*
X002050Y007100D01*
X002150Y008100D02*
X003376Y008100D01*
X003769Y008494D01*
X003588Y009100D02*
X003769Y009281D01*
X003588Y009100D02*
X002050Y009100D01*
X002150Y010100D02*
X003738Y010100D01*
X003769Y010069D01*
X003769Y010856D02*
X003525Y011100D01*
X002050Y011100D01*
X002150Y012100D02*
X003313Y012100D01*
X003769Y011643D01*
X003769Y007706D02*
X003163Y007100D01*
M02*
