%
M48
M72
T01C0.0236
T02C0.0315
T03C0.0400
T04C0.0669
T05C0.1200
%
T01
X5200Y10100
T02
X3769Y10069
X3769Y10856
X3769Y11643
X3769Y9281
X3769Y8494
X3769Y7706
X3769Y6919
X3769Y6131
X3769Y5344
X3769Y4557
X12431Y4557
X12431Y5344
X12431Y6131
X12431Y6919
X12431Y7706
X12431Y8494
X12431Y9281
X12431Y10069
X12431Y10856
X12431Y11643
T03
X15100Y10870
X15100Y9730
X1100Y9300
X1100Y10300
X1100Y11300
X1100Y8300
X1100Y7300
X1100Y6300
T04
X15300Y5820
X15300Y7380
T05
X1600Y1600
X14900Y1600
X14800Y13700
X1700Y13700
M30
