G75*
G70*
%OFA0B0*%
%FSLAX24Y24*%
%IPPOS*%
%LPD*%
%AMOC8*
5,1,8,0,0,1.08239X$1,22.5*
%
%ADD10C,0.1340*%
%ADD11R,0.0740X0.0250*%
%ADD12C,0.0600*%
%ADD13R,0.0880X0.0340*%
%ADD14R,0.0890X0.0890*%
%ADD15C,0.0890*%
%ADD16C,0.1120*%
%ADD17R,0.0680X0.0380*%
%ADD18R,0.0395X0.0552*%
%ADD19C,0.0820*%
%ADD20R,0.0710X0.0789*%
%ADD21R,0.0552X0.0395*%
%ADD22R,0.2521X0.2206*%
%ADD23R,0.0710X0.0474*%
%ADD24C,0.0595*%
%ADD25C,0.0552*%
%ADD26C,0.0476*%
D10*
X011124Y020486D03*
D11*
X012154Y016404D03*
X012154Y016154D03*
X012154Y015894D03*
X012154Y015634D03*
X012154Y015384D03*
X012154Y015124D03*
X012154Y014874D03*
X012154Y014614D03*
X012154Y014354D03*
X012154Y014104D03*
X009314Y014104D03*
X009314Y014354D03*
X009314Y014614D03*
X009314Y014874D03*
X009314Y015124D03*
X009314Y015384D03*
X009314Y015634D03*
X009314Y015894D03*
X009314Y016154D03*
X009314Y016404D03*
D12*
X004380Y016478D03*
X004380Y015478D03*
X004380Y014478D03*
X004380Y013478D03*
X001380Y013478D03*
X001380Y014478D03*
X001380Y015478D03*
X001380Y016478D03*
X001380Y017478D03*
X001380Y018478D03*
X004380Y018478D03*
X004380Y017478D03*
D13*
X010481Y008846D03*
X010481Y008346D03*
X010481Y007846D03*
X010481Y007346D03*
X010481Y006846D03*
X010481Y006346D03*
X010481Y005846D03*
X010481Y005346D03*
X012901Y005346D03*
X012901Y005846D03*
X012901Y006346D03*
X012901Y006846D03*
X012901Y007346D03*
X012901Y007846D03*
X012901Y008346D03*
X012901Y008846D03*
D14*
X021071Y003754D03*
D15*
X021071Y008754D03*
D16*
X016504Y010620D03*
X011194Y001820D03*
X005884Y010620D03*
D17*
X015763Y009102D03*
X015763Y008602D03*
X015763Y008102D03*
X015763Y007602D03*
X015763Y007102D03*
X015763Y006602D03*
X015763Y006102D03*
X015763Y005602D03*
X018027Y005602D03*
X018027Y006102D03*
X018027Y006602D03*
X018027Y007102D03*
X018027Y007602D03*
X018027Y008102D03*
X018027Y008602D03*
X018027Y009102D03*
D18*
X006458Y012372D03*
X005750Y012372D03*
X005754Y013159D03*
X006462Y013159D03*
X006454Y013868D03*
X005746Y013868D03*
X005742Y014576D03*
X006450Y014576D03*
X006450Y015277D03*
X006446Y015954D03*
X005738Y015954D03*
X005742Y015277D03*
X005734Y016702D03*
X006443Y016702D03*
D19*
X007616Y018845D03*
X008616Y018945D03*
X009616Y018845D03*
X010616Y018945D03*
X011616Y018845D03*
X013116Y018945D03*
X014116Y018845D03*
X015116Y018945D03*
X016116Y018845D03*
X017116Y018945D03*
X018116Y018845D03*
X021360Y014187D03*
X021360Y013187D03*
X006616Y018945D03*
D20*
X011939Y012915D03*
X012037Y011828D03*
X013139Y011828D03*
X013041Y012915D03*
X015931Y004041D03*
X017033Y004041D03*
D21*
X007537Y016628D03*
X007537Y017336D03*
X012143Y017183D03*
X012143Y017891D03*
D22*
X004358Y004313D03*
D23*
X007232Y005210D03*
X007232Y003415D03*
D24*
X020179Y016549D03*
X020966Y016549D03*
X020966Y017336D03*
X020179Y017336D03*
X020179Y018124D03*
X020966Y018124D03*
D25*
X020572Y019029D03*
X020572Y015643D03*
D26*
X001900Y004302D03*
X007800Y007402D03*
X008353Y007354D03*
X008900Y006802D03*
X011700Y007102D03*
X011700Y007902D03*
X011800Y005802D03*
X013092Y004738D03*
X015061Y003950D03*
X016800Y006902D03*
X018998Y005525D03*
X019200Y007102D03*
X019200Y007702D03*
X019000Y010202D03*
X015000Y009102D03*
X014470Y008596D03*
X014155Y008124D03*
X014600Y007502D03*
X015061Y011824D03*
X013446Y015250D03*
X014234Y015958D03*
X013092Y017730D03*
X011517Y017730D03*
X010294Y015744D03*
X011242Y015131D03*
X009300Y013602D03*
X009300Y013002D03*
X009300Y012302D03*
X010730Y013006D03*
X008250Y013950D03*
X007000Y015002D03*
X007100Y015702D03*
X007700Y015886D03*
X007913Y017782D03*
X005100Y014029D03*
X005100Y012902D03*
X003400Y014802D03*
X007777Y012376D03*
M02*
