G75*
G70*
%OFA0B0*%
%FSLAX24Y24*%
%IPPOS*%
%LPD*%
%AMOC8*
5,1,8,0,0,1.08239X$1,22.5*
%
%ADD10C,0.0000*%
%ADD11C,0.0520*%
%ADD12R,0.0810X0.0810*%
%ADD13C,0.0810*%
%ADD14C,0.0740*%
%ADD15C,0.0515*%
%ADD16C,0.0100*%
%ADD17C,0.0396*%
%ADD18C,0.0160*%
%ADD19C,0.0240*%
D10*
X000100Y000100D02*
X000100Y019698D01*
X006006Y019698D01*
X007974Y021667D01*
X014273Y021667D01*
X016242Y019698D01*
X022269Y019698D01*
X022269Y000100D01*
X000100Y000100D01*
X005364Y010620D02*
X005366Y010665D01*
X005372Y010710D01*
X005382Y010755D01*
X005395Y010798D01*
X005413Y010840D01*
X005434Y010880D01*
X005458Y010918D01*
X005486Y010954D01*
X005516Y010988D01*
X005550Y011018D01*
X005586Y011046D01*
X005624Y011070D01*
X005664Y011091D01*
X005706Y011109D01*
X005749Y011122D01*
X005794Y011132D01*
X005839Y011138D01*
X005884Y011140D01*
X005929Y011138D01*
X005974Y011132D01*
X006019Y011122D01*
X006062Y011109D01*
X006104Y011091D01*
X006144Y011070D01*
X006182Y011046D01*
X006218Y011018D01*
X006252Y010988D01*
X006282Y010954D01*
X006310Y010918D01*
X006334Y010880D01*
X006355Y010840D01*
X006373Y010798D01*
X006386Y010755D01*
X006396Y010710D01*
X006402Y010665D01*
X006404Y010620D01*
X006402Y010575D01*
X006396Y010530D01*
X006386Y010485D01*
X006373Y010442D01*
X006355Y010400D01*
X006334Y010360D01*
X006310Y010322D01*
X006282Y010286D01*
X006252Y010252D01*
X006218Y010222D01*
X006182Y010194D01*
X006144Y010170D01*
X006104Y010149D01*
X006062Y010131D01*
X006019Y010118D01*
X005974Y010108D01*
X005929Y010102D01*
X005884Y010100D01*
X005839Y010102D01*
X005794Y010108D01*
X005749Y010118D01*
X005706Y010131D01*
X005664Y010149D01*
X005624Y010170D01*
X005586Y010194D01*
X005550Y010222D01*
X005516Y010252D01*
X005486Y010286D01*
X005458Y010322D01*
X005434Y010360D01*
X005413Y010400D01*
X005395Y010442D01*
X005382Y010485D01*
X005372Y010530D01*
X005366Y010575D01*
X005364Y010620D01*
X010674Y001820D02*
X010676Y001865D01*
X010682Y001910D01*
X010692Y001955D01*
X010705Y001998D01*
X010723Y002040D01*
X010744Y002080D01*
X010768Y002118D01*
X010796Y002154D01*
X010826Y002188D01*
X010860Y002218D01*
X010896Y002246D01*
X010934Y002270D01*
X010974Y002291D01*
X011016Y002309D01*
X011059Y002322D01*
X011104Y002332D01*
X011149Y002338D01*
X011194Y002340D01*
X011239Y002338D01*
X011284Y002332D01*
X011329Y002322D01*
X011372Y002309D01*
X011414Y002291D01*
X011454Y002270D01*
X011492Y002246D01*
X011528Y002218D01*
X011562Y002188D01*
X011592Y002154D01*
X011620Y002118D01*
X011644Y002080D01*
X011665Y002040D01*
X011683Y001998D01*
X011696Y001955D01*
X011706Y001910D01*
X011712Y001865D01*
X011714Y001820D01*
X011712Y001775D01*
X011706Y001730D01*
X011696Y001685D01*
X011683Y001642D01*
X011665Y001600D01*
X011644Y001560D01*
X011620Y001522D01*
X011592Y001486D01*
X011562Y001452D01*
X011528Y001422D01*
X011492Y001394D01*
X011454Y001370D01*
X011414Y001349D01*
X011372Y001331D01*
X011329Y001318D01*
X011284Y001308D01*
X011239Y001302D01*
X011194Y001300D01*
X011149Y001302D01*
X011104Y001308D01*
X011059Y001318D01*
X011016Y001331D01*
X010974Y001349D01*
X010934Y001370D01*
X010896Y001394D01*
X010860Y001422D01*
X010826Y001452D01*
X010796Y001486D01*
X010768Y001522D01*
X010744Y001560D01*
X010723Y001600D01*
X010705Y001642D01*
X010692Y001685D01*
X010682Y001730D01*
X010676Y001775D01*
X010674Y001820D01*
X015984Y010620D02*
X015986Y010665D01*
X015992Y010710D01*
X016002Y010755D01*
X016015Y010798D01*
X016033Y010840D01*
X016054Y010880D01*
X016078Y010918D01*
X016106Y010954D01*
X016136Y010988D01*
X016170Y011018D01*
X016206Y011046D01*
X016244Y011070D01*
X016284Y011091D01*
X016326Y011109D01*
X016369Y011122D01*
X016414Y011132D01*
X016459Y011138D01*
X016504Y011140D01*
X016549Y011138D01*
X016594Y011132D01*
X016639Y011122D01*
X016682Y011109D01*
X016724Y011091D01*
X016764Y011070D01*
X016802Y011046D01*
X016838Y011018D01*
X016872Y010988D01*
X016902Y010954D01*
X016930Y010918D01*
X016954Y010880D01*
X016975Y010840D01*
X016993Y010798D01*
X017006Y010755D01*
X017016Y010710D01*
X017022Y010665D01*
X017024Y010620D01*
X017022Y010575D01*
X017016Y010530D01*
X017006Y010485D01*
X016993Y010442D01*
X016975Y010400D01*
X016954Y010360D01*
X016930Y010322D01*
X016902Y010286D01*
X016872Y010252D01*
X016838Y010222D01*
X016802Y010194D01*
X016764Y010170D01*
X016724Y010149D01*
X016682Y010131D01*
X016639Y010118D01*
X016594Y010108D01*
X016549Y010102D01*
X016504Y010100D01*
X016459Y010102D01*
X016414Y010108D01*
X016369Y010118D01*
X016326Y010131D01*
X016284Y010149D01*
X016244Y010170D01*
X016206Y010194D01*
X016170Y010222D01*
X016136Y010252D01*
X016106Y010286D01*
X016078Y010322D01*
X016054Y010360D01*
X016033Y010400D01*
X016015Y010442D01*
X016002Y010485D01*
X015992Y010530D01*
X015986Y010575D01*
X015984Y010620D01*
X020336Y015643D02*
X020338Y015673D01*
X020344Y015703D01*
X020353Y015732D01*
X020366Y015759D01*
X020383Y015784D01*
X020402Y015807D01*
X020425Y015828D01*
X020450Y015845D01*
X020476Y015859D01*
X020505Y015869D01*
X020534Y015876D01*
X020564Y015879D01*
X020595Y015878D01*
X020625Y015873D01*
X020654Y015864D01*
X020681Y015852D01*
X020707Y015837D01*
X020731Y015818D01*
X020752Y015796D01*
X020770Y015772D01*
X020785Y015745D01*
X020796Y015717D01*
X020804Y015688D01*
X020808Y015658D01*
X020808Y015628D01*
X020804Y015598D01*
X020796Y015569D01*
X020785Y015541D01*
X020770Y015514D01*
X020752Y015490D01*
X020731Y015468D01*
X020707Y015449D01*
X020681Y015434D01*
X020654Y015422D01*
X020625Y015413D01*
X020595Y015408D01*
X020564Y015407D01*
X020534Y015410D01*
X020505Y015417D01*
X020476Y015427D01*
X020450Y015441D01*
X020425Y015458D01*
X020402Y015479D01*
X020383Y015502D01*
X020366Y015527D01*
X020353Y015554D01*
X020344Y015583D01*
X020338Y015613D01*
X020336Y015643D01*
X020336Y019029D02*
X020338Y019059D01*
X020344Y019089D01*
X020353Y019118D01*
X020366Y019145D01*
X020383Y019170D01*
X020402Y019193D01*
X020425Y019214D01*
X020450Y019231D01*
X020476Y019245D01*
X020505Y019255D01*
X020534Y019262D01*
X020564Y019265D01*
X020595Y019264D01*
X020625Y019259D01*
X020654Y019250D01*
X020681Y019238D01*
X020707Y019223D01*
X020731Y019204D01*
X020752Y019182D01*
X020770Y019158D01*
X020785Y019131D01*
X020796Y019103D01*
X020804Y019074D01*
X020808Y019044D01*
X020808Y019014D01*
X020804Y018984D01*
X020796Y018955D01*
X020785Y018927D01*
X020770Y018900D01*
X020752Y018876D01*
X020731Y018854D01*
X020707Y018835D01*
X020681Y018820D01*
X020654Y018808D01*
X020625Y018799D01*
X020595Y018794D01*
X020564Y018793D01*
X020534Y018796D01*
X020505Y018803D01*
X020476Y018813D01*
X020450Y018827D01*
X020425Y018844D01*
X020402Y018865D01*
X020383Y018888D01*
X020366Y018913D01*
X020353Y018940D01*
X020344Y018969D01*
X020338Y018999D01*
X020336Y019029D01*
X010494Y020486D02*
X010496Y020536D01*
X010502Y020586D01*
X010512Y020635D01*
X010526Y020683D01*
X010543Y020730D01*
X010564Y020775D01*
X010589Y020819D01*
X010617Y020860D01*
X010649Y020899D01*
X010683Y020936D01*
X010720Y020970D01*
X010760Y021000D01*
X010802Y021027D01*
X010846Y021051D01*
X010892Y021072D01*
X010939Y021088D01*
X010987Y021101D01*
X011037Y021110D01*
X011086Y021115D01*
X011137Y021116D01*
X011187Y021113D01*
X011236Y021106D01*
X011285Y021095D01*
X011333Y021080D01*
X011379Y021062D01*
X011424Y021040D01*
X011467Y021014D01*
X011508Y020985D01*
X011547Y020953D01*
X011583Y020918D01*
X011615Y020880D01*
X011645Y020840D01*
X011672Y020797D01*
X011695Y020753D01*
X011714Y020707D01*
X011730Y020659D01*
X011742Y020610D01*
X011750Y020561D01*
X011754Y020511D01*
X011754Y020461D01*
X011750Y020411D01*
X011742Y020362D01*
X011730Y020313D01*
X011714Y020265D01*
X011695Y020219D01*
X011672Y020175D01*
X011645Y020132D01*
X011615Y020092D01*
X011583Y020054D01*
X011547Y020019D01*
X011508Y019987D01*
X011467Y019958D01*
X011424Y019932D01*
X011379Y019910D01*
X011333Y019892D01*
X011285Y019877D01*
X011236Y019866D01*
X011187Y019859D01*
X011137Y019856D01*
X011086Y019857D01*
X011037Y019862D01*
X010987Y019871D01*
X010939Y019884D01*
X010892Y019900D01*
X010846Y019921D01*
X010802Y019945D01*
X010760Y019972D01*
X010720Y020002D01*
X010683Y020036D01*
X010649Y020073D01*
X010617Y020112D01*
X010589Y020153D01*
X010564Y020197D01*
X010543Y020242D01*
X010526Y020289D01*
X010512Y020337D01*
X010502Y020386D01*
X010496Y020436D01*
X010494Y020486D01*
D11*
X004380Y018478D03*
X004380Y017478D03*
X004380Y016478D03*
X004380Y015478D03*
X004380Y014478D03*
X004380Y013478D03*
X001380Y013478D03*
X001380Y014478D03*
X001380Y015478D03*
X001380Y016478D03*
X001380Y017478D03*
X001380Y018478D03*
D12*
X021071Y003754D03*
D13*
X021071Y008754D03*
D14*
X021360Y013187D03*
X021360Y014187D03*
X018116Y018845D03*
X017116Y018945D03*
X016116Y018845D03*
X015116Y018945D03*
X014116Y018845D03*
X013116Y018945D03*
X011616Y018845D03*
X010616Y018945D03*
X009616Y018845D03*
X008616Y018945D03*
X007616Y018845D03*
X006616Y018945D03*
D15*
X020179Y018124D03*
X020966Y018124D03*
X020966Y017336D03*
X020966Y016549D03*
X020179Y016549D03*
X020179Y017336D03*
D16*
X020064Y016943D02*
X019948Y016991D01*
X019833Y017105D01*
X019771Y017255D01*
X019771Y017417D01*
X019833Y017567D01*
X019948Y017682D01*
X020068Y017731D01*
X020022Y017746D01*
X019965Y017775D01*
X019913Y017813D01*
X019868Y017858D01*
X019830Y017910D01*
X019801Y017967D01*
X019781Y018028D01*
X019771Y018092D01*
X019771Y018095D01*
X020150Y018095D01*
X020150Y018152D01*
X019771Y018152D01*
X019771Y018156D01*
X019781Y018219D01*
X019801Y018280D01*
X019830Y018337D01*
X019868Y018389D01*
X019913Y018434D01*
X019965Y018472D01*
X020022Y018501D01*
X020083Y018521D01*
X020106Y018525D01*
X019991Y018640D01*
X019886Y018893D01*
X019886Y019166D01*
X019921Y019248D01*
X018448Y019248D01*
X018557Y019140D01*
X018636Y018949D01*
X018636Y018742D01*
X018557Y018551D01*
X018410Y018404D01*
X018219Y018325D01*
X018012Y018325D01*
X017821Y018404D01*
X017675Y018551D01*
X017596Y018742D01*
X017596Y018745D01*
X017557Y018651D01*
X017410Y018504D01*
X017219Y018425D01*
X017012Y018425D01*
X016821Y018504D01*
X016675Y018651D01*
X016636Y018745D01*
X016636Y018742D01*
X016557Y018551D01*
X016410Y018404D01*
X016219Y018325D01*
X016012Y018325D01*
X015821Y018404D01*
X015675Y018551D01*
X015596Y018742D01*
X015596Y018745D01*
X015557Y018651D01*
X015410Y018504D01*
X015219Y018425D01*
X015012Y018425D01*
X014821Y018504D01*
X014675Y018651D01*
X014636Y018745D01*
X014636Y018742D01*
X014557Y018551D01*
X014410Y018404D01*
X014219Y018325D01*
X014012Y018325D01*
X013821Y018404D01*
X013675Y018551D01*
X013596Y018742D01*
X013596Y018745D01*
X013557Y018651D01*
X013410Y018504D01*
X013219Y018425D01*
X013012Y018425D01*
X012821Y018504D01*
X012675Y018651D01*
X012596Y018842D01*
X012596Y019049D01*
X012675Y019240D01*
X012821Y019386D01*
X013012Y019465D01*
X013219Y019465D01*
X013410Y019386D01*
X013557Y019240D01*
X013636Y019049D01*
X013636Y019045D01*
X013675Y019140D01*
X013821Y019286D01*
X014012Y019365D01*
X014219Y019365D01*
X014410Y019286D01*
X014557Y019140D01*
X014596Y019045D01*
X014596Y019049D01*
X014675Y019240D01*
X014821Y019386D01*
X015012Y019465D01*
X015219Y019465D01*
X015410Y019386D01*
X015557Y019240D01*
X015636Y019049D01*
X015636Y019045D01*
X015675Y019140D01*
X015821Y019286D01*
X015960Y019344D01*
X015860Y019444D01*
X015860Y019444D01*
X015683Y019620D01*
X011784Y019620D01*
X011540Y019480D01*
X011266Y019406D01*
X010981Y019406D01*
X010707Y019480D01*
X010463Y019620D01*
X006564Y019620D01*
X006387Y019444D01*
X006387Y019444D01*
X006336Y019392D01*
X006512Y019465D01*
X006719Y019465D01*
X006910Y019386D01*
X007057Y019240D01*
X007136Y019049D01*
X007136Y019045D01*
X007175Y019140D01*
X007321Y019286D01*
X007512Y019365D01*
X007719Y019365D01*
X007910Y019286D01*
X008057Y019140D01*
X008103Y019029D01*
X008109Y019067D01*
X008134Y019145D01*
X008171Y019218D01*
X008219Y019284D01*
X008277Y019342D01*
X008343Y019390D01*
X008416Y019427D01*
X008494Y019452D01*
X008566Y019464D01*
X008566Y018995D01*
X008666Y018995D01*
X008666Y019464D01*
X008738Y019452D01*
X008815Y019427D01*
X008888Y019390D01*
X008955Y019342D01*
X009012Y019284D01*
X009060Y019218D01*
X009098Y019145D01*
X009123Y019067D01*
X009129Y019029D01*
X009175Y019140D01*
X009321Y019286D01*
X009512Y019365D01*
X009719Y019365D01*
X009910Y019286D01*
X010057Y019140D01*
X010096Y019045D01*
X010096Y019049D01*
X010175Y019240D01*
X010321Y019386D01*
X010512Y019465D01*
X010719Y019465D01*
X010910Y019386D01*
X011057Y019240D01*
X011136Y019049D01*
X011136Y019045D01*
X011175Y019140D01*
X011321Y019286D01*
X011512Y019365D01*
X011719Y019365D01*
X011910Y019286D01*
X012057Y019140D01*
X012136Y018949D01*
X012136Y018742D01*
X012057Y018551D01*
X011910Y018404D01*
X011719Y018325D01*
X011512Y018325D01*
X011321Y018404D01*
X011175Y018551D01*
X011096Y018742D01*
X011096Y018745D01*
X011057Y018651D01*
X010910Y018504D01*
X010719Y018425D01*
X010512Y018425D01*
X010321Y018504D01*
X010175Y018651D01*
X010136Y018745D01*
X010136Y018742D01*
X010057Y018551D01*
X009910Y018404D01*
X009719Y018325D01*
X009512Y018325D01*
X009321Y018404D01*
X009175Y018551D01*
X009096Y018742D01*
X009096Y018742D01*
X009060Y018673D01*
X009012Y018607D01*
X008955Y018549D01*
X008888Y018501D01*
X008815Y018463D01*
X008738Y018438D01*
X008666Y018427D01*
X008666Y018895D01*
X008566Y018895D01*
X008566Y018427D01*
X008494Y018438D01*
X008416Y018463D01*
X008343Y018501D01*
X008277Y018549D01*
X008219Y018607D01*
X008171Y018673D01*
X008136Y018742D01*
X008136Y018742D01*
X008057Y018551D01*
X007910Y018404D01*
X007719Y018325D01*
X007512Y018325D01*
X007321Y018404D01*
X007175Y018551D01*
X007096Y018742D01*
X007096Y018745D01*
X007057Y018651D01*
X006999Y018594D01*
X007269Y018324D01*
X012781Y018324D01*
X012898Y018206D01*
X013027Y018078D01*
X013161Y018078D01*
X013289Y018025D01*
X013387Y017927D01*
X013440Y017799D01*
X013440Y017661D01*
X013387Y017533D01*
X013289Y017435D01*
X013161Y017382D01*
X013023Y017382D01*
X012895Y017435D01*
X012797Y017533D01*
X012744Y017661D01*
X012744Y017795D01*
X012616Y017924D01*
X011814Y017924D01*
X011865Y017799D01*
X011865Y017661D01*
X011812Y017533D01*
X011717Y017438D01*
X011717Y017253D01*
X010930Y016466D01*
X010930Y013298D01*
X011025Y013203D01*
X011078Y013075D01*
X011078Y012936D01*
X011025Y012808D01*
X010927Y012710D01*
X010799Y012657D01*
X010661Y012657D01*
X010533Y012710D01*
X010435Y012808D01*
X010382Y012936D01*
X010382Y013075D01*
X010435Y013203D01*
X010530Y013298D01*
X010530Y016632D01*
X011317Y017419D01*
X011317Y017438D01*
X011222Y017533D01*
X011202Y017582D01*
X008206Y017582D01*
X008110Y017487D01*
X007982Y017434D01*
X007844Y017434D01*
X007716Y017487D01*
X007618Y017585D01*
X007565Y017712D01*
X007565Y017851D01*
X007595Y017924D01*
X007104Y017924D01*
X006710Y018317D01*
X006602Y018425D01*
X006512Y018425D01*
X006321Y018504D01*
X006175Y018651D01*
X006096Y018842D01*
X006096Y019049D01*
X006175Y019240D01*
X006246Y019311D01*
X006095Y019248D01*
X000550Y019248D01*
X000550Y000550D01*
X021819Y000550D01*
X021819Y012943D01*
X021805Y012914D01*
X021756Y012848D01*
X021699Y012790D01*
X021632Y012742D01*
X021559Y012705D01*
X021482Y012679D01*
X021410Y012668D01*
X021410Y013137D01*
X021310Y013137D01*
X020841Y013137D01*
X020853Y013065D01*
X020878Y012987D01*
X020915Y012914D01*
X020963Y012848D01*
X021021Y012790D01*
X021087Y012742D01*
X021160Y012705D01*
X021238Y012679D01*
X021310Y012668D01*
X021310Y013137D01*
X021310Y013237D01*
X020841Y013237D01*
X020851Y013296D01*
X020270Y012715D01*
X020270Y008814D01*
X021300Y007784D01*
X021341Y007685D01*
X021341Y004309D01*
X021538Y004309D01*
X021626Y004221D01*
X021626Y003286D01*
X021538Y003199D01*
X020604Y003199D01*
X020516Y003286D01*
X020516Y004221D01*
X020604Y004309D01*
X020801Y004309D01*
X020801Y007520D01*
X019847Y008473D01*
X019771Y008549D01*
X019730Y008649D01*
X019730Y012880D01*
X019771Y012980D01*
X020850Y014059D01*
X020840Y014083D01*
X020840Y014290D01*
X020919Y014481D01*
X021065Y014627D01*
X021130Y014654D01*
X021130Y015230D01*
X020961Y015062D01*
X020709Y014957D01*
X020436Y014957D01*
X020184Y015062D01*
X019991Y015255D01*
X019886Y015507D01*
X019886Y015780D01*
X019991Y016032D01*
X020100Y016141D01*
X020098Y016141D01*
X019948Y016203D01*
X019833Y016318D01*
X019771Y016468D01*
X019771Y016630D01*
X019833Y016780D01*
X019948Y016894D01*
X020064Y016943D01*
X020012Y016964D02*
X011428Y016964D01*
X011330Y016866D02*
X019920Y016866D01*
X019828Y016767D02*
X011231Y016767D01*
X011133Y016669D02*
X019787Y016669D01*
X019771Y016570D02*
X011034Y016570D01*
X010936Y016472D02*
X019771Y016472D01*
X019810Y016373D02*
X010930Y016373D01*
X010930Y016275D02*
X014089Y016275D01*
X014037Y016253D02*
X013939Y016155D01*
X013886Y016028D01*
X013886Y015889D01*
X013939Y015761D01*
X014034Y015666D01*
X014034Y008749D01*
X014122Y008661D01*
X014122Y008527D01*
X014145Y008472D01*
X014090Y008472D01*
X013922Y008640D01*
X013922Y015057D01*
X013795Y015184D01*
X013795Y015319D01*
X013742Y015447D01*
X013644Y015545D01*
X013516Y015598D01*
X013377Y015598D01*
X013249Y015545D01*
X013151Y015447D01*
X013098Y015319D01*
X013098Y015180D01*
X013151Y015052D01*
X013249Y014954D01*
X013377Y014901D01*
X013512Y014901D01*
X013522Y014891D01*
X013522Y008474D01*
X013807Y008189D01*
X013807Y008102D01*
X011992Y008102D01*
X011897Y008197D01*
X011769Y008250D01*
X011631Y008250D01*
X011503Y008197D01*
X011405Y008100D01*
X011352Y007972D01*
X011352Y007833D01*
X011405Y007705D01*
X011503Y007607D01*
X011631Y007554D01*
X011769Y007554D01*
X011897Y007607D01*
X011992Y007702D01*
X018852Y007702D01*
X018852Y007633D01*
X018905Y007505D01*
X019003Y007407D01*
X019015Y007402D01*
X019003Y007397D01*
X018905Y007300D01*
X018852Y007172D01*
X018852Y007037D01*
X017817Y006002D01*
X012092Y006002D01*
X011997Y006097D01*
X011869Y006150D01*
X011731Y006150D01*
X011603Y006097D01*
X011505Y006000D01*
X011452Y005872D01*
X011452Y005733D01*
X011505Y005605D01*
X011603Y005507D01*
X011731Y005454D01*
X011869Y005454D01*
X011997Y005507D01*
X012092Y005602D01*
X017983Y005602D01*
X019135Y006754D01*
X019269Y006754D01*
X019397Y006807D01*
X019495Y006905D01*
X019548Y007033D01*
X019548Y007172D01*
X019495Y007300D01*
X019397Y007397D01*
X019385Y007402D01*
X019397Y007407D01*
X019495Y007505D01*
X019548Y007633D01*
X019548Y007772D01*
X019495Y007900D01*
X019397Y007997D01*
X019269Y008050D01*
X019135Y008050D01*
X019083Y008102D01*
X014503Y008102D01*
X014503Y008193D01*
X014480Y008248D01*
X014539Y008248D01*
X014667Y008301D01*
X014765Y008399D01*
X014818Y008527D01*
X014818Y008665D01*
X014765Y008793D01*
X014667Y008891D01*
X014539Y008944D01*
X014434Y008944D01*
X014434Y015666D01*
X014529Y015761D01*
X014582Y015889D01*
X014582Y016028D01*
X014529Y016155D01*
X014431Y016253D01*
X014303Y016306D01*
X014165Y016306D01*
X014037Y016253D01*
X013960Y016176D02*
X010930Y016176D01*
X010930Y016078D02*
X013907Y016078D01*
X013886Y015979D02*
X010930Y015979D01*
X010930Y015881D02*
X013889Y015881D01*
X013930Y015782D02*
X010930Y015782D01*
X010930Y015684D02*
X014016Y015684D01*
X014034Y015585D02*
X013545Y015585D01*
X013701Y015487D02*
X014034Y015487D01*
X014034Y015388D02*
X013766Y015388D01*
X013795Y015290D02*
X014034Y015290D01*
X014034Y015191D02*
X013795Y015191D01*
X013886Y015093D02*
X014034Y015093D01*
X014034Y014994D02*
X013922Y014994D01*
X013922Y014896D02*
X014034Y014896D01*
X014034Y014797D02*
X013922Y014797D01*
X013922Y014699D02*
X014034Y014699D01*
X014034Y014600D02*
X013922Y014600D01*
X013922Y014502D02*
X014034Y014502D01*
X014034Y014403D02*
X013922Y014403D01*
X013922Y014305D02*
X014034Y014305D01*
X014034Y014206D02*
X013922Y014206D01*
X013922Y014108D02*
X014034Y014108D01*
X014034Y014009D02*
X013922Y014009D01*
X013922Y013911D02*
X014034Y013911D01*
X014034Y013812D02*
X013922Y013812D01*
X013922Y013714D02*
X014034Y013714D01*
X014034Y013615D02*
X013922Y013615D01*
X013922Y013517D02*
X014034Y013517D01*
X014034Y013418D02*
X013922Y013418D01*
X013922Y013320D02*
X014034Y013320D01*
X014034Y013221D02*
X013922Y013221D01*
X013922Y013123D02*
X014034Y013123D01*
X014034Y013024D02*
X013922Y013024D01*
X013922Y012926D02*
X014034Y012926D01*
X014034Y012827D02*
X013922Y012827D01*
X013922Y012729D02*
X014034Y012729D01*
X014034Y012630D02*
X013922Y012630D01*
X013922Y012532D02*
X014034Y012532D01*
X014034Y012433D02*
X013922Y012433D01*
X013922Y012335D02*
X014034Y012335D01*
X014034Y012236D02*
X013922Y012236D01*
X013922Y012138D02*
X014034Y012138D01*
X014034Y012039D02*
X013922Y012039D01*
X013922Y011941D02*
X014034Y011941D01*
X014034Y011842D02*
X013922Y011842D01*
X013922Y011744D02*
X014034Y011744D01*
X014034Y011645D02*
X013922Y011645D01*
X013922Y011547D02*
X014034Y011547D01*
X014034Y011448D02*
X013922Y011448D01*
X013922Y011350D02*
X014034Y011350D01*
X014034Y011251D02*
X013922Y011251D01*
X013922Y011153D02*
X014034Y011153D01*
X014034Y011054D02*
X013922Y011054D01*
X013922Y010956D02*
X014034Y010956D01*
X014034Y010857D02*
X013922Y010857D01*
X013922Y010759D02*
X014034Y010759D01*
X014034Y010660D02*
X013922Y010660D01*
X013922Y010562D02*
X014034Y010562D01*
X014034Y010463D02*
X013922Y010463D01*
X013922Y010365D02*
X014034Y010365D01*
X014034Y010266D02*
X013922Y010266D01*
X013922Y010168D02*
X014034Y010168D01*
X014034Y010069D02*
X013922Y010069D01*
X013922Y009971D02*
X014034Y009971D01*
X014034Y009872D02*
X013922Y009872D01*
X013922Y009774D02*
X014034Y009774D01*
X014034Y009675D02*
X013922Y009675D01*
X013922Y009577D02*
X014034Y009577D01*
X014034Y009478D02*
X013922Y009478D01*
X013922Y009380D02*
X014034Y009380D01*
X014034Y009281D02*
X013922Y009281D01*
X013922Y009183D02*
X014034Y009183D01*
X014034Y009084D02*
X013922Y009084D01*
X013922Y008986D02*
X014034Y008986D01*
X014034Y008887D02*
X013922Y008887D01*
X013922Y008789D02*
X014034Y008789D01*
X014093Y008690D02*
X013922Y008690D01*
X013970Y008592D02*
X014122Y008592D01*
X014136Y008493D02*
X014068Y008493D01*
X013722Y008557D02*
X014155Y008124D01*
X014501Y008198D02*
X020123Y008198D01*
X020221Y008099D02*
X019086Y008099D01*
X019000Y007902D02*
X019200Y007702D01*
X019000Y007902D02*
X018800Y007902D01*
X011700Y007902D01*
X011504Y008198D02*
X008687Y008198D01*
X008589Y008296D02*
X013699Y008296D01*
X013601Y008395D02*
X008490Y008395D01*
X008392Y008493D02*
X013522Y008493D01*
X013522Y008592D02*
X008293Y008592D01*
X008195Y008690D02*
X013522Y008690D01*
X013522Y008789D02*
X008096Y008789D01*
X007998Y008887D02*
X013522Y008887D01*
X013522Y008986D02*
X007899Y008986D01*
X007801Y009084D02*
X013522Y009084D01*
X013522Y009183D02*
X007702Y009183D01*
X007604Y009281D02*
X013522Y009281D01*
X013522Y009380D02*
X007505Y009380D01*
X007407Y009478D02*
X013522Y009478D01*
X013522Y009577D02*
X007400Y009577D01*
X007400Y009485D02*
X007400Y010985D01*
X007283Y011102D01*
X006100Y012285D01*
X006100Y012885D01*
X005983Y013002D01*
X005307Y013678D01*
X004740Y013678D01*
X004727Y013710D01*
X004612Y013826D01*
X004461Y013888D01*
X004298Y013888D01*
X004147Y013826D01*
X004032Y013710D01*
X003970Y013560D01*
X003970Y013396D01*
X004032Y013246D01*
X004147Y013130D01*
X004215Y013102D01*
X003883Y013102D01*
X003600Y013385D01*
X003600Y014510D01*
X003695Y014605D01*
X003748Y014733D01*
X003748Y014872D01*
X003695Y015000D01*
X003597Y015097D01*
X003469Y015150D01*
X003331Y015150D01*
X003203Y015097D01*
X003105Y015000D01*
X003052Y014872D01*
X003052Y014733D01*
X003105Y014605D01*
X003200Y014510D01*
X003200Y013220D01*
X003317Y013102D01*
X003717Y012702D01*
X004808Y012702D01*
X004903Y012607D01*
X005031Y012554D01*
X005169Y012554D01*
X005297Y012607D01*
X005395Y012705D01*
X005448Y012833D01*
X005448Y012971D01*
X005700Y012720D01*
X005700Y012120D01*
X006338Y011482D01*
X006077Y011590D01*
X005691Y011590D01*
X005334Y011442D01*
X005062Y011169D01*
X004914Y010813D01*
X004914Y010427D01*
X005062Y010070D01*
X005334Y009797D01*
X005691Y009650D01*
X006077Y009650D01*
X006433Y009797D01*
X006706Y010070D01*
X006854Y010427D01*
X006854Y010813D01*
X006746Y011074D01*
X007000Y010820D01*
X007000Y009320D01*
X008700Y007620D01*
X008700Y007426D01*
X008648Y007552D01*
X008553Y007647D01*
X008553Y007680D01*
X007954Y008279D01*
X007837Y008396D01*
X006618Y008396D01*
X002811Y012203D01*
X002811Y015111D01*
X002977Y015277D01*
X004019Y015277D01*
X004032Y015246D01*
X004147Y015130D01*
X004298Y015068D01*
X004461Y015068D01*
X004612Y015130D01*
X004727Y015246D01*
X004790Y015396D01*
X004790Y015560D01*
X004766Y015615D01*
X004900Y015482D01*
X004900Y014321D01*
X004805Y014226D01*
X004752Y014098D01*
X004752Y013960D01*
X004805Y013832D01*
X004903Y013734D01*
X005031Y013681D01*
X005169Y013681D01*
X005297Y013734D01*
X005395Y013832D01*
X005448Y013960D01*
X005448Y014098D01*
X005395Y014226D01*
X005300Y014321D01*
X005300Y015647D01*
X004946Y016002D01*
X004829Y016119D01*
X004584Y016119D01*
X004612Y016130D01*
X004727Y016246D01*
X004790Y016396D01*
X004790Y016560D01*
X004727Y016710D01*
X004612Y016826D01*
X004461Y016888D01*
X004298Y016888D01*
X004147Y016826D01*
X004032Y016710D01*
X003970Y016560D01*
X003970Y016396D01*
X004032Y016246D01*
X004147Y016130D01*
X004175Y016119D01*
X003021Y016119D01*
X001776Y017364D01*
X001790Y017396D01*
X001790Y017560D01*
X001727Y017710D01*
X001612Y017826D01*
X001461Y017888D01*
X001298Y017888D01*
X001147Y017826D01*
X001032Y017710D01*
X000970Y017560D01*
X000970Y017396D01*
X001032Y017246D01*
X001147Y017130D01*
X001298Y017068D01*
X001461Y017068D01*
X001493Y017081D01*
X002856Y015719D01*
X004041Y015719D01*
X004032Y015710D01*
X004018Y015677D01*
X002812Y015677D01*
X002695Y015560D01*
X002411Y015276D01*
X002411Y012037D01*
X002528Y011920D01*
X006452Y007996D01*
X007672Y007996D01*
X007951Y007717D01*
X007869Y007750D01*
X007731Y007750D01*
X007603Y007697D01*
X007508Y007602D01*
X004983Y007602D01*
X002100Y010485D01*
X002100Y011585D01*
X001983Y011702D01*
X001983Y011702D01*
X001000Y012685D01*
X001000Y013323D01*
X001032Y013246D01*
X001147Y013130D01*
X001298Y013068D01*
X001461Y013068D01*
X001612Y013130D01*
X001727Y013246D01*
X001790Y013396D01*
X001790Y013560D01*
X001727Y013710D01*
X001612Y013826D01*
X001461Y013888D01*
X001298Y013888D01*
X001147Y013826D01*
X001032Y013710D01*
X001000Y013633D01*
X001000Y014323D01*
X001032Y014246D01*
X001147Y014130D01*
X001298Y014068D01*
X001461Y014068D01*
X001612Y014130D01*
X001727Y014246D01*
X001790Y014396D01*
X001790Y014560D01*
X001727Y014710D01*
X001612Y014826D01*
X001461Y014888D01*
X001298Y014888D01*
X001147Y014826D01*
X001032Y014710D01*
X001000Y014633D01*
X001000Y015323D01*
X001032Y015246D01*
X001147Y015130D01*
X001298Y015068D01*
X001461Y015068D01*
X001612Y015130D01*
X001727Y015246D01*
X001790Y015396D01*
X001790Y015560D01*
X001727Y015710D01*
X001612Y015826D01*
X001461Y015888D01*
X001298Y015888D01*
X001147Y015826D01*
X001032Y015710D01*
X001000Y015633D01*
X001000Y015816D01*
X001266Y016081D01*
X001298Y016068D01*
X001461Y016068D01*
X001612Y016130D01*
X001727Y016246D01*
X001790Y016396D01*
X001790Y016560D01*
X001727Y016710D01*
X001612Y016826D01*
X001461Y016888D01*
X001298Y016888D01*
X001147Y016826D01*
X001032Y016710D01*
X000970Y016560D01*
X000970Y016396D01*
X000983Y016364D01*
X000600Y015981D01*
X000600Y012520D01*
X000717Y012402D01*
X001700Y011420D01*
X001700Y010320D01*
X004817Y007202D01*
X007508Y007202D01*
X007603Y007107D01*
X007731Y007054D01*
X007869Y007054D01*
X007997Y007107D01*
X008055Y007165D01*
X008058Y007157D01*
X008156Y007059D01*
X008284Y007006D01*
X008422Y007006D01*
X008550Y007059D01*
X008648Y007157D01*
X008700Y007282D01*
X008700Y007095D01*
X008605Y007000D01*
X008552Y006872D01*
X008552Y006733D01*
X008605Y006605D01*
X008703Y006507D01*
X008831Y006454D01*
X008969Y006454D01*
X009097Y006507D01*
X009195Y006605D01*
X009248Y006733D01*
X009248Y006872D01*
X009195Y007000D01*
X009100Y007095D01*
X009100Y007785D01*
X008983Y007902D01*
X007400Y009485D01*
X007400Y009675D02*
X013522Y009675D01*
X013522Y009774D02*
X007400Y009774D01*
X007400Y009872D02*
X013522Y009872D01*
X013522Y009971D02*
X007400Y009971D01*
X007400Y010069D02*
X013522Y010069D01*
X013522Y010168D02*
X007400Y010168D01*
X007400Y010266D02*
X013522Y010266D01*
X013522Y010365D02*
X007400Y010365D01*
X007400Y010463D02*
X013522Y010463D01*
X013522Y010562D02*
X007400Y010562D01*
X007400Y010660D02*
X013522Y010660D01*
X013522Y010759D02*
X007400Y010759D01*
X007400Y010857D02*
X013522Y010857D01*
X013522Y010956D02*
X007400Y010956D01*
X007331Y011054D02*
X013522Y011054D01*
X013522Y011153D02*
X007232Y011153D01*
X007134Y011251D02*
X013522Y011251D01*
X013522Y011350D02*
X007035Y011350D01*
X006937Y011448D02*
X013522Y011448D01*
X013522Y011547D02*
X006838Y011547D01*
X006740Y011645D02*
X007374Y011645D01*
X007417Y011602D02*
X008283Y011602D01*
X008400Y011720D01*
X008783Y012102D01*
X009008Y012102D01*
X009103Y012007D01*
X009231Y011954D01*
X009369Y011954D01*
X009497Y012007D01*
X009595Y012105D01*
X009648Y012233D01*
X009648Y012372D01*
X009595Y012500D01*
X009497Y012597D01*
X009369Y012650D01*
X009231Y012650D01*
X009103Y012597D01*
X009008Y012502D01*
X008617Y012502D01*
X008117Y012002D01*
X007583Y012002D01*
X007300Y012285D01*
X007300Y014817D01*
X007348Y014933D01*
X007348Y015072D01*
X007295Y015200D01*
X007197Y015297D01*
X007069Y015350D01*
X006931Y015350D01*
X006803Y015297D01*
X006705Y015200D01*
X006652Y015072D01*
X006652Y014933D01*
X006705Y014805D01*
X006803Y014707D01*
X006900Y014667D01*
X006900Y012120D01*
X007017Y012002D01*
X007417Y011602D01*
X007276Y011744D02*
X006641Y011744D01*
X006543Y011842D02*
X007177Y011842D01*
X007079Y011941D02*
X006444Y011941D01*
X006346Y012039D02*
X006980Y012039D01*
X006900Y012138D02*
X006247Y012138D01*
X006149Y012236D02*
X006900Y012236D01*
X006900Y012335D02*
X006100Y012335D01*
X006100Y012433D02*
X006900Y012433D01*
X006900Y012532D02*
X006100Y012532D01*
X006100Y012630D02*
X006900Y012630D01*
X006900Y012729D02*
X006100Y012729D01*
X006100Y012827D02*
X006900Y012827D01*
X006900Y012926D02*
X006059Y012926D01*
X005961Y013024D02*
X006900Y013024D01*
X006900Y013123D02*
X005862Y013123D01*
X005764Y013221D02*
X006900Y013221D01*
X006900Y013320D02*
X005665Y013320D01*
X005567Y013418D02*
X006900Y013418D01*
X006900Y013517D02*
X005468Y013517D01*
X005370Y013615D02*
X006900Y013615D01*
X006900Y013714D02*
X005249Y013714D01*
X005376Y013812D02*
X006900Y013812D01*
X006900Y013911D02*
X005428Y013911D01*
X005448Y014009D02*
X006900Y014009D01*
X006900Y014108D02*
X005444Y014108D01*
X005403Y014206D02*
X006900Y014206D01*
X006900Y014305D02*
X005317Y014305D01*
X005300Y014403D02*
X006900Y014403D01*
X006900Y014502D02*
X005300Y014502D01*
X005300Y014600D02*
X006900Y014600D01*
X006823Y014699D02*
X005300Y014699D01*
X005300Y014797D02*
X006713Y014797D01*
X006667Y014896D02*
X005300Y014896D01*
X005300Y014994D02*
X006652Y014994D01*
X006661Y015093D02*
X005300Y015093D01*
X005300Y015191D02*
X006702Y015191D01*
X006795Y015290D02*
X005300Y015290D01*
X005300Y015388D02*
X006948Y015388D01*
X006903Y015407D02*
X007031Y015354D01*
X007169Y015354D01*
X007222Y015376D01*
X007789Y014809D01*
X008027Y014809D01*
X008603Y014233D01*
X008603Y013488D01*
X008600Y013485D01*
X008600Y013320D01*
X008450Y013320D01*
X008450Y013418D02*
X008600Y013418D01*
X008600Y013320D02*
X008952Y012968D01*
X008952Y012933D01*
X009005Y012805D01*
X009103Y012707D01*
X009231Y012654D01*
X009369Y012654D01*
X009497Y012707D01*
X009595Y012805D01*
X009648Y012933D01*
X009648Y013072D01*
X009595Y013200D01*
X009497Y013297D01*
X009485Y013302D01*
X009497Y013307D01*
X009595Y013405D01*
X009648Y013533D01*
X009648Y013672D01*
X009595Y013800D01*
X009500Y013895D01*
X009500Y016685D01*
X009400Y016785D01*
X009283Y016902D01*
X008417Y016902D01*
X008300Y016785D01*
X008300Y016769D01*
X007765Y016234D01*
X007631Y016234D01*
X007503Y016181D01*
X007405Y016084D01*
X007352Y015956D01*
X007352Y015943D01*
X007297Y015997D01*
X007169Y016050D01*
X007031Y016050D01*
X006903Y015997D01*
X006805Y015900D01*
X006752Y015772D01*
X006752Y015633D01*
X006805Y015505D01*
X006903Y015407D01*
X006823Y015487D02*
X005300Y015487D01*
X005300Y015585D02*
X006772Y015585D01*
X006752Y015684D02*
X005263Y015684D01*
X005165Y015782D02*
X006756Y015782D01*
X006797Y015881D02*
X005066Y015881D01*
X004968Y015979D02*
X006885Y015979D01*
X007100Y015702D02*
X007178Y015702D01*
X007871Y015009D01*
X008110Y015009D01*
X008803Y014316D01*
X008803Y013405D01*
X008800Y013402D01*
X009200Y013002D01*
X009300Y013002D01*
X009081Y012729D02*
X008450Y012729D01*
X008450Y012827D02*
X008996Y012827D01*
X008955Y012926D02*
X008450Y012926D01*
X008450Y013024D02*
X008895Y013024D01*
X008797Y013123D02*
X008450Y013123D01*
X008450Y013221D02*
X008698Y013221D01*
X008603Y013517D02*
X008450Y013517D01*
X008450Y013615D02*
X008603Y013615D01*
X008603Y013714D02*
X008505Y013714D01*
X008545Y013753D02*
X008598Y013881D01*
X008598Y014020D01*
X008545Y014148D01*
X008447Y014246D01*
X008319Y014299D01*
X008180Y014299D01*
X008052Y014246D01*
X007954Y014148D01*
X007901Y014020D01*
X007901Y013881D01*
X007954Y013753D01*
X008050Y013658D01*
X008050Y012616D01*
X008039Y012606D01*
X007974Y012671D01*
X007846Y012724D01*
X007708Y012724D01*
X007580Y012671D01*
X007482Y012573D01*
X007429Y012445D01*
X007429Y012306D01*
X007482Y012178D01*
X007580Y012080D01*
X007708Y012027D01*
X007846Y012027D01*
X007974Y012080D01*
X008069Y012176D01*
X008175Y012176D01*
X008292Y012293D01*
X008450Y012450D01*
X008450Y013658D01*
X008545Y013753D01*
X008569Y013812D02*
X008603Y013812D01*
X008598Y013911D02*
X008603Y013911D01*
X008598Y014009D02*
X008603Y014009D01*
X008603Y014108D02*
X008561Y014108D01*
X008603Y014206D02*
X008486Y014206D01*
X008531Y014305D02*
X007300Y014305D01*
X007300Y014403D02*
X008433Y014403D01*
X008334Y014502D02*
X007300Y014502D01*
X007300Y014600D02*
X008236Y014600D01*
X008137Y014699D02*
X007300Y014699D01*
X007300Y014797D02*
X008039Y014797D01*
X007702Y014896D02*
X007333Y014896D01*
X007348Y014994D02*
X007603Y014994D01*
X007505Y015093D02*
X007339Y015093D01*
X007298Y015191D02*
X007406Y015191D01*
X007308Y015290D02*
X007205Y015290D01*
X007000Y015002D02*
X007100Y014902D01*
X007100Y012202D01*
X007500Y011802D01*
X008200Y011802D01*
X008700Y012302D01*
X009300Y012302D01*
X009071Y012039D02*
X008720Y012039D01*
X008621Y011941D02*
X013522Y011941D01*
X013522Y012039D02*
X009529Y012039D01*
X009609Y012138D02*
X013522Y012138D01*
X013522Y012236D02*
X009648Y012236D01*
X009648Y012335D02*
X013522Y012335D01*
X013522Y012433D02*
X009623Y012433D01*
X009563Y012532D02*
X013522Y012532D01*
X013522Y012630D02*
X009418Y012630D01*
X009519Y012729D02*
X010514Y012729D01*
X010427Y012827D02*
X009604Y012827D01*
X009645Y012926D02*
X010386Y012926D01*
X010382Y013024D02*
X009648Y013024D01*
X009627Y013123D02*
X010402Y013123D01*
X010454Y013221D02*
X009573Y013221D01*
X009510Y013320D02*
X010530Y013320D01*
X010530Y013418D02*
X009601Y013418D01*
X009641Y013517D02*
X010530Y013517D01*
X010530Y013615D02*
X009648Y013615D01*
X009631Y013714D02*
X010530Y013714D01*
X010530Y013812D02*
X009582Y013812D01*
X009500Y013911D02*
X010530Y013911D01*
X010530Y014009D02*
X009500Y014009D01*
X009500Y014108D02*
X010530Y014108D01*
X010530Y014206D02*
X009500Y014206D01*
X009500Y014305D02*
X010530Y014305D01*
X010530Y014403D02*
X009500Y014403D01*
X009500Y014502D02*
X010530Y014502D01*
X010530Y014600D02*
X009500Y014600D01*
X009500Y014699D02*
X010530Y014699D01*
X010530Y014797D02*
X009500Y014797D01*
X009500Y014896D02*
X010530Y014896D01*
X010530Y014994D02*
X009500Y014994D01*
X009500Y015093D02*
X010530Y015093D01*
X010530Y015191D02*
X009500Y015191D01*
X009500Y015290D02*
X010530Y015290D01*
X010530Y015388D02*
X009500Y015388D01*
X009500Y015487D02*
X010530Y015487D01*
X010530Y015585D02*
X009500Y015585D01*
X009500Y015684D02*
X010530Y015684D01*
X010530Y015782D02*
X009500Y015782D01*
X009500Y015881D02*
X010530Y015881D01*
X010530Y015979D02*
X009500Y015979D01*
X009500Y016078D02*
X010530Y016078D01*
X010530Y016176D02*
X009500Y016176D01*
X009500Y016275D02*
X010530Y016275D01*
X010530Y016373D02*
X009500Y016373D01*
X009500Y016472D02*
X010530Y016472D01*
X010530Y016570D02*
X009500Y016570D01*
X009500Y016669D02*
X010567Y016669D01*
X010666Y016767D02*
X009418Y016767D01*
X009319Y016866D02*
X010764Y016866D01*
X010863Y016964D02*
X002176Y016964D01*
X002274Y016866D02*
X004245Y016866D01*
X004089Y016767D02*
X002373Y016767D01*
X002471Y016669D02*
X004015Y016669D01*
X003974Y016570D02*
X002570Y016570D01*
X002668Y016472D02*
X003970Y016472D01*
X003979Y016373D02*
X002767Y016373D01*
X002865Y016275D02*
X004020Y016275D01*
X004101Y016176D02*
X002964Y016176D01*
X002939Y015919D02*
X001380Y017478D01*
X001790Y017457D02*
X003970Y017457D01*
X003970Y017396D02*
X003970Y017560D01*
X004032Y017710D01*
X004147Y017826D01*
X004298Y017888D01*
X004461Y017888D01*
X004612Y017826D01*
X004727Y017710D01*
X004790Y017560D01*
X004790Y017396D01*
X004727Y017246D01*
X004612Y017130D01*
X004461Y017068D01*
X004298Y017068D01*
X004147Y017130D01*
X004032Y017246D01*
X003970Y017396D01*
X003985Y017358D02*
X001782Y017358D01*
X001880Y017260D02*
X004026Y017260D01*
X004116Y017161D02*
X001979Y017161D01*
X002077Y017063D02*
X010961Y017063D01*
X011060Y017161D02*
X004643Y017161D01*
X004733Y017260D02*
X011158Y017260D01*
X011257Y017358D02*
X004774Y017358D01*
X004790Y017457D02*
X007788Y017457D01*
X007647Y017555D02*
X004790Y017555D01*
X004750Y017654D02*
X007589Y017654D01*
X007565Y017752D02*
X004685Y017752D01*
X004550Y017851D02*
X007565Y017851D01*
X007187Y018124D02*
X006793Y018517D01*
X006793Y018768D01*
X006616Y018945D01*
X007093Y018737D02*
X007098Y018737D01*
X007138Y018639D02*
X007045Y018639D01*
X007053Y018540D02*
X007185Y018540D01*
X007151Y018442D02*
X007284Y018442D01*
X007250Y018343D02*
X007468Y018343D01*
X007763Y018343D02*
X009468Y018343D01*
X009284Y018442D02*
X008749Y018442D01*
X008666Y018442D02*
X008566Y018442D01*
X008482Y018442D02*
X007948Y018442D01*
X008046Y018540D02*
X008288Y018540D01*
X008196Y018639D02*
X008093Y018639D01*
X008134Y018737D02*
X008138Y018737D01*
X008101Y019033D02*
X008103Y019033D01*
X008129Y019131D02*
X008060Y019131D01*
X007966Y019230D02*
X008180Y019230D01*
X008264Y019328D02*
X007808Y019328D01*
X007423Y019328D02*
X006968Y019328D01*
X007061Y019230D02*
X007265Y019230D01*
X007171Y019131D02*
X007101Y019131D01*
X006812Y019427D02*
X008416Y019427D01*
X008566Y019427D02*
X008666Y019427D01*
X008666Y019328D02*
X008566Y019328D01*
X008566Y019230D02*
X008666Y019230D01*
X008666Y019131D02*
X008566Y019131D01*
X008616Y019135D02*
X008250Y019502D01*
X005966Y019502D01*
X005651Y019187D01*
X005651Y018360D01*
X005966Y018045D01*
X006472Y018442D02*
X004790Y018442D01*
X004790Y018396D02*
X004727Y018246D01*
X004612Y018130D01*
X004461Y018068D01*
X004298Y018068D01*
X004147Y018130D01*
X004032Y018246D01*
X003970Y018396D01*
X003970Y018560D01*
X004032Y018710D01*
X004147Y018826D01*
X004298Y018888D01*
X004461Y018888D01*
X004612Y018826D01*
X004727Y018710D01*
X004790Y018560D01*
X004790Y018396D01*
X004768Y018343D02*
X006684Y018343D01*
X006782Y018245D02*
X004726Y018245D01*
X004628Y018146D02*
X006881Y018146D01*
X006979Y018048D02*
X000550Y018048D01*
X000550Y018146D02*
X001131Y018146D01*
X001147Y018130D02*
X001298Y018068D01*
X001461Y018068D01*
X001612Y018130D01*
X001727Y018246D01*
X001790Y018396D01*
X001790Y018560D01*
X001727Y018710D01*
X001612Y018826D01*
X001461Y018888D01*
X001298Y018888D01*
X001147Y018826D01*
X001032Y018710D01*
X000970Y018560D01*
X000970Y018396D01*
X001032Y018246D01*
X001147Y018130D01*
X001033Y018245D02*
X000550Y018245D01*
X000550Y018343D02*
X000991Y018343D01*
X000970Y018442D02*
X000550Y018442D01*
X000550Y018540D02*
X000970Y018540D01*
X001002Y018639D02*
X000550Y018639D01*
X000550Y018737D02*
X001059Y018737D01*
X001172Y018836D02*
X000550Y018836D01*
X000550Y018934D02*
X006096Y018934D01*
X006098Y018836D02*
X004587Y018836D01*
X004700Y018737D02*
X006139Y018737D01*
X006187Y018639D02*
X004757Y018639D01*
X004790Y018540D02*
X006285Y018540D01*
X006096Y019033D02*
X000550Y019033D01*
X000550Y019131D02*
X006130Y019131D01*
X006171Y019230D02*
X000550Y019230D01*
X001587Y018836D02*
X004172Y018836D01*
X004059Y018737D02*
X001700Y018737D01*
X001757Y018639D02*
X004002Y018639D01*
X003970Y018540D02*
X001790Y018540D01*
X001790Y018442D02*
X003970Y018442D01*
X003991Y018343D02*
X001768Y018343D01*
X001726Y018245D02*
X004033Y018245D01*
X004131Y018146D02*
X001628Y018146D01*
X001550Y017851D02*
X004209Y017851D01*
X004074Y017752D02*
X001685Y017752D01*
X001750Y017654D02*
X004009Y017654D01*
X003970Y017555D02*
X001790Y017555D01*
X001512Y017063D02*
X000550Y017063D01*
X000550Y017161D02*
X001116Y017161D01*
X001026Y017260D02*
X000550Y017260D01*
X000550Y017358D02*
X000985Y017358D01*
X000970Y017457D02*
X000550Y017457D01*
X000550Y017555D02*
X000970Y017555D01*
X001009Y017654D02*
X000550Y017654D01*
X000550Y017752D02*
X001074Y017752D01*
X001209Y017851D02*
X000550Y017851D01*
X000550Y017949D02*
X007078Y017949D01*
X007187Y018124D02*
X012698Y018124D01*
X013092Y017730D01*
X013234Y018048D02*
X019778Y018048D01*
X019810Y017949D02*
X013365Y017949D01*
X013419Y017851D02*
X019875Y017851D01*
X020010Y017752D02*
X013440Y017752D01*
X013437Y017654D02*
X019920Y017654D01*
X019828Y017555D02*
X013397Y017555D01*
X013311Y017457D02*
X019788Y017457D01*
X019771Y017358D02*
X011717Y017358D01*
X011717Y017260D02*
X019771Y017260D01*
X019810Y017161D02*
X011625Y017161D01*
X011527Y017063D02*
X019876Y017063D01*
X019876Y016275D02*
X014379Y016275D01*
X014508Y016176D02*
X020013Y016176D01*
X020037Y016078D02*
X014561Y016078D01*
X014582Y015979D02*
X019969Y015979D01*
X019928Y015881D02*
X014579Y015881D01*
X014538Y015782D02*
X019887Y015782D01*
X019886Y015684D02*
X014452Y015684D01*
X014434Y015585D02*
X019886Y015585D01*
X019894Y015487D02*
X014434Y015487D01*
X014434Y015388D02*
X019935Y015388D01*
X019976Y015290D02*
X014434Y015290D01*
X014434Y015191D02*
X020054Y015191D01*
X020152Y015093D02*
X014434Y015093D01*
X014434Y014994D02*
X020346Y014994D01*
X020799Y014994D02*
X021130Y014994D01*
X021130Y014896D02*
X014434Y014896D01*
X014434Y014797D02*
X021130Y014797D01*
X021130Y014699D02*
X014434Y014699D01*
X014434Y014600D02*
X021038Y014600D01*
X020940Y014502D02*
X014434Y014502D01*
X014434Y014403D02*
X020887Y014403D01*
X020846Y014305D02*
X014434Y014305D01*
X014434Y014206D02*
X020840Y014206D01*
X020840Y014108D02*
X014434Y014108D01*
X014434Y014009D02*
X020801Y014009D01*
X020702Y013911D02*
X014434Y013911D01*
X014434Y013812D02*
X020604Y013812D01*
X020505Y013714D02*
X014434Y013714D01*
X014434Y013615D02*
X020407Y013615D01*
X020308Y013517D02*
X014434Y013517D01*
X014434Y013418D02*
X020210Y013418D01*
X020111Y013320D02*
X014434Y013320D01*
X014434Y013221D02*
X020013Y013221D01*
X019914Y013123D02*
X014434Y013123D01*
X014434Y013024D02*
X019816Y013024D01*
X019749Y012926D02*
X014434Y012926D01*
X014434Y012827D02*
X019730Y012827D01*
X019730Y012729D02*
X014434Y012729D01*
X014434Y012630D02*
X019730Y012630D01*
X019730Y012532D02*
X014434Y012532D01*
X014434Y012433D02*
X019730Y012433D01*
X019730Y012335D02*
X014434Y012335D01*
X014434Y012236D02*
X019730Y012236D01*
X019730Y012138D02*
X014434Y012138D01*
X014434Y012039D02*
X019730Y012039D01*
X019730Y011941D02*
X014434Y011941D01*
X014434Y011842D02*
X019730Y011842D01*
X019730Y011744D02*
X014434Y011744D01*
X014434Y011645D02*
X019730Y011645D01*
X019730Y011547D02*
X016800Y011547D01*
X016697Y011590D02*
X017053Y011442D01*
X017326Y011169D01*
X017474Y010813D01*
X017474Y010427D01*
X017326Y010070D01*
X017058Y009802D01*
X017717Y009802D01*
X018317Y010402D01*
X018708Y010402D01*
X018803Y010497D01*
X018931Y010550D01*
X019069Y010550D01*
X019197Y010497D01*
X019295Y010400D01*
X019348Y010272D01*
X019348Y010133D01*
X019295Y010005D01*
X019197Y009907D01*
X019069Y009854D01*
X018931Y009854D01*
X018803Y009907D01*
X018708Y010002D01*
X018483Y010002D01*
X018000Y009520D01*
X017883Y009402D01*
X015583Y009402D01*
X015348Y009168D01*
X015348Y009033D01*
X015295Y008905D01*
X015197Y008807D01*
X015069Y008754D01*
X014931Y008754D01*
X014803Y008807D01*
X014705Y008905D01*
X014652Y009033D01*
X014652Y009172D01*
X014705Y009300D01*
X014803Y009397D01*
X014931Y009450D01*
X015065Y009450D01*
X015417Y009802D01*
X015949Y009802D01*
X015682Y010070D01*
X015534Y010427D01*
X015534Y010813D01*
X015682Y011169D01*
X015954Y011442D01*
X016311Y011590D01*
X016697Y011590D01*
X017038Y011448D02*
X019730Y011448D01*
X019730Y011350D02*
X017145Y011350D01*
X017244Y011251D02*
X019730Y011251D01*
X019730Y011153D02*
X017333Y011153D01*
X017374Y011054D02*
X019730Y011054D01*
X019730Y010956D02*
X017415Y010956D01*
X017455Y010857D02*
X019730Y010857D01*
X019730Y010759D02*
X017474Y010759D01*
X017474Y010660D02*
X019730Y010660D01*
X019730Y010562D02*
X017474Y010562D01*
X017474Y010463D02*
X018769Y010463D01*
X019000Y010202D02*
X018400Y010202D01*
X017800Y009602D01*
X015500Y009602D01*
X015000Y009102D01*
X015153Y008789D02*
X019730Y008789D01*
X019730Y008887D02*
X015277Y008887D01*
X015329Y008986D02*
X019730Y008986D01*
X019730Y009084D02*
X015348Y009084D01*
X015363Y009183D02*
X019730Y009183D01*
X019730Y009281D02*
X015462Y009281D01*
X015560Y009380D02*
X019730Y009380D01*
X019730Y009478D02*
X017959Y009478D01*
X018057Y009577D02*
X019730Y009577D01*
X019730Y009675D02*
X018156Y009675D01*
X018254Y009774D02*
X019730Y009774D01*
X019730Y009872D02*
X019113Y009872D01*
X019261Y009971D02*
X019730Y009971D01*
X019730Y010069D02*
X019322Y010069D01*
X019348Y010168D02*
X019730Y010168D01*
X019730Y010266D02*
X019348Y010266D01*
X019309Y010365D02*
X019730Y010365D01*
X019730Y010463D02*
X019231Y010463D01*
X018887Y009872D02*
X018353Y009872D01*
X018451Y009971D02*
X018739Y009971D01*
X018280Y010365D02*
X017448Y010365D01*
X017408Y010266D02*
X018181Y010266D01*
X018083Y010168D02*
X017367Y010168D01*
X017325Y010069D02*
X017984Y010069D01*
X017886Y009971D02*
X017227Y009971D01*
X017128Y009872D02*
X017787Y009872D01*
X016208Y011547D02*
X014434Y011547D01*
X014434Y011448D02*
X015970Y011448D01*
X015862Y011350D02*
X014434Y011350D01*
X014434Y011251D02*
X015764Y011251D01*
X015675Y011153D02*
X014434Y011153D01*
X014434Y011054D02*
X015634Y011054D01*
X015593Y010956D02*
X014434Y010956D01*
X014434Y010857D02*
X015552Y010857D01*
X015534Y010759D02*
X014434Y010759D01*
X014434Y010660D02*
X015534Y010660D01*
X015534Y010562D02*
X014434Y010562D01*
X014434Y010463D02*
X015534Y010463D01*
X015560Y010365D02*
X014434Y010365D01*
X014434Y010266D02*
X015600Y010266D01*
X015641Y010168D02*
X014434Y010168D01*
X014434Y010069D02*
X015682Y010069D01*
X015781Y009971D02*
X014434Y009971D01*
X014434Y009872D02*
X015879Y009872D01*
X015389Y009774D02*
X014434Y009774D01*
X014434Y009675D02*
X015290Y009675D01*
X015192Y009577D02*
X014434Y009577D01*
X014434Y009478D02*
X015093Y009478D01*
X014785Y009380D02*
X014434Y009380D01*
X014434Y009281D02*
X014697Y009281D01*
X014657Y009183D02*
X014434Y009183D01*
X014434Y009084D02*
X014652Y009084D01*
X014671Y008986D02*
X014434Y008986D01*
X014234Y008832D02*
X014470Y008596D01*
X014234Y008832D02*
X014234Y015958D01*
X013446Y015250D02*
X013722Y014974D01*
X013722Y008557D01*
X013798Y008198D02*
X011896Y008198D01*
X011405Y008099D02*
X008786Y008099D01*
X008884Y008001D02*
X011364Y008001D01*
X011352Y007902D02*
X008983Y007902D01*
X009081Y007804D02*
X011364Y007804D01*
X011405Y007705D02*
X009100Y007705D01*
X009100Y007607D02*
X011504Y007607D01*
X011533Y007410D02*
X009100Y007410D01*
X009100Y007508D02*
X018904Y007508D01*
X018863Y007607D02*
X011896Y007607D01*
X011867Y007410D02*
X019000Y007410D01*
X018917Y007311D02*
X011983Y007311D01*
X011992Y007302D02*
X011897Y007397D01*
X011769Y007450D01*
X011631Y007450D01*
X011503Y007397D01*
X011405Y007300D01*
X011352Y007172D01*
X011352Y007033D01*
X011405Y006905D01*
X011503Y006807D01*
X011631Y006754D01*
X011769Y006754D01*
X011897Y006807D01*
X011992Y006902D01*
X016452Y006902D01*
X016452Y006833D01*
X016505Y006705D01*
X016603Y006607D01*
X016731Y006554D01*
X016869Y006554D01*
X016997Y006607D01*
X017095Y006705D01*
X017148Y006833D01*
X017148Y006972D01*
X017095Y007100D01*
X016997Y007197D01*
X016869Y007250D01*
X016735Y007250D01*
X016683Y007302D01*
X011992Y007302D01*
X011700Y007102D02*
X016600Y007102D01*
X016800Y006902D01*
X017148Y006917D02*
X018732Y006917D01*
X018634Y006819D02*
X017142Y006819D01*
X017101Y006720D02*
X018535Y006720D01*
X018437Y006622D02*
X017012Y006622D01*
X017130Y007016D02*
X018831Y007016D01*
X018852Y007114D02*
X017080Y007114D01*
X016960Y007213D02*
X018869Y007213D01*
X019200Y007102D02*
X017900Y005802D01*
X011800Y005802D01*
X011477Y005932D02*
X000550Y005932D01*
X000550Y005834D02*
X011452Y005834D01*
X011452Y005735D02*
X000550Y005735D01*
X000550Y005637D02*
X011492Y005637D01*
X011572Y005538D02*
X000550Y005538D01*
X000550Y005440D02*
X020801Y005440D01*
X020801Y005538D02*
X012028Y005538D01*
X012064Y006031D02*
X017846Y006031D01*
X017944Y006129D02*
X011920Y006129D01*
X011680Y006129D02*
X000550Y006129D01*
X000550Y006031D02*
X011536Y006031D01*
X011491Y006819D02*
X009248Y006819D01*
X009243Y006720D02*
X016499Y006720D01*
X016458Y006819D02*
X011909Y006819D01*
X011417Y007311D02*
X009100Y007311D01*
X009100Y007213D02*
X011369Y007213D01*
X011352Y007114D02*
X009100Y007114D01*
X009179Y007016D02*
X011359Y007016D01*
X011400Y006917D02*
X009229Y006917D01*
X009202Y006622D02*
X016588Y006622D01*
X018043Y006228D02*
X000550Y006228D01*
X000550Y006326D02*
X018141Y006326D01*
X018240Y006425D02*
X000550Y006425D01*
X000550Y006523D02*
X008687Y006523D01*
X008598Y006622D02*
X000550Y006622D01*
X000550Y006720D02*
X008557Y006720D01*
X008552Y006819D02*
X000550Y006819D01*
X000550Y006917D02*
X008571Y006917D01*
X008621Y007016D02*
X008446Y007016D01*
X008260Y007016D02*
X000550Y007016D01*
X000550Y007114D02*
X007596Y007114D01*
X007800Y007402D02*
X004900Y007402D01*
X001900Y010402D01*
X001900Y011502D01*
X000800Y012602D01*
X000800Y015898D01*
X001380Y016478D01*
X001790Y016472D02*
X002103Y016472D01*
X002201Y016373D02*
X001780Y016373D01*
X001739Y016275D02*
X002300Y016275D01*
X002398Y016176D02*
X001658Y016176D01*
X001485Y016078D02*
X002497Y016078D01*
X002595Y015979D02*
X001164Y015979D01*
X001065Y015881D02*
X001281Y015881D01*
X001478Y015881D02*
X002694Y015881D01*
X002792Y015782D02*
X001655Y015782D01*
X001738Y015684D02*
X004021Y015684D01*
X004378Y015477D02*
X004380Y015478D01*
X004378Y015477D02*
X002895Y015477D01*
X002611Y015193D01*
X002611Y012120D01*
X006535Y008196D01*
X007755Y008196D01*
X008353Y007597D01*
X008353Y007354D01*
X008605Y007114D02*
X008700Y007114D01*
X008700Y007213D02*
X008671Y007213D01*
X008666Y007508D02*
X008700Y007508D01*
X008700Y007607D02*
X008593Y007607D01*
X008614Y007705D02*
X008528Y007705D01*
X008516Y007804D02*
X008429Y007804D01*
X008417Y007902D02*
X008331Y007902D01*
X008319Y008001D02*
X008232Y008001D01*
X008220Y008099D02*
X008134Y008099D01*
X008122Y008198D02*
X008035Y008198D01*
X008023Y008296D02*
X007937Y008296D01*
X007925Y008395D02*
X007838Y008395D01*
X007826Y008493D02*
X006520Y008493D01*
X006422Y008592D02*
X007728Y008592D01*
X007629Y008690D02*
X006323Y008690D01*
X006225Y008789D02*
X007531Y008789D01*
X007432Y008887D02*
X006126Y008887D01*
X006028Y008986D02*
X007334Y008986D01*
X007235Y009084D02*
X005929Y009084D01*
X005831Y009183D02*
X007137Y009183D01*
X007038Y009281D02*
X005732Y009281D01*
X005634Y009380D02*
X007000Y009380D01*
X007000Y009478D02*
X005535Y009478D01*
X005437Y009577D02*
X007000Y009577D01*
X007000Y009675D02*
X006139Y009675D01*
X006377Y009774D02*
X007000Y009774D01*
X007000Y009872D02*
X006508Y009872D01*
X006607Y009971D02*
X007000Y009971D01*
X007000Y010069D02*
X006705Y010069D01*
X006747Y010168D02*
X007000Y010168D01*
X007000Y010266D02*
X006788Y010266D01*
X006828Y010365D02*
X007000Y010365D01*
X007000Y010463D02*
X006854Y010463D01*
X006854Y010562D02*
X007000Y010562D01*
X007000Y010660D02*
X006854Y010660D01*
X006854Y010759D02*
X007000Y010759D01*
X006962Y010857D02*
X006835Y010857D01*
X006864Y010956D02*
X006795Y010956D01*
X006765Y011054D02*
X006754Y011054D01*
X007200Y010902D02*
X007200Y009402D01*
X008900Y007702D01*
X008900Y006802D01*
X009113Y006523D02*
X018338Y006523D01*
X018510Y006129D02*
X020801Y006129D01*
X020801Y006031D02*
X018411Y006031D01*
X018313Y005932D02*
X020801Y005932D01*
X020801Y005834D02*
X018214Y005834D01*
X018116Y005735D02*
X020801Y005735D01*
X020801Y005637D02*
X018017Y005637D01*
X018608Y006228D02*
X020801Y006228D01*
X020801Y006326D02*
X018707Y006326D01*
X018805Y006425D02*
X020801Y006425D01*
X020801Y006523D02*
X018904Y006523D01*
X019002Y006622D02*
X020801Y006622D01*
X020801Y006720D02*
X019101Y006720D01*
X019409Y006819D02*
X020801Y006819D01*
X020801Y006917D02*
X019500Y006917D01*
X019541Y007016D02*
X020801Y007016D01*
X020801Y007114D02*
X019548Y007114D01*
X019531Y007213D02*
X020801Y007213D01*
X020801Y007311D02*
X019483Y007311D01*
X019400Y007410D02*
X020801Y007410D01*
X020801Y007508D02*
X019496Y007508D01*
X019537Y007607D02*
X020714Y007607D01*
X020615Y007705D02*
X019548Y007705D01*
X019535Y007804D02*
X020517Y007804D01*
X020418Y007902D02*
X019492Y007902D01*
X019389Y008001D02*
X020320Y008001D01*
X020024Y008296D02*
X014656Y008296D01*
X014761Y008395D02*
X019926Y008395D01*
X019827Y008493D02*
X014804Y008493D01*
X014818Y008592D02*
X019754Y008592D01*
X019730Y008690D02*
X014808Y008690D01*
X014847Y008789D02*
X014767Y008789D01*
X014723Y008887D02*
X014671Y008887D01*
X013522Y011645D02*
X008326Y011645D01*
X008424Y011744D02*
X013522Y011744D01*
X013522Y011842D02*
X008523Y011842D01*
X008253Y012138D02*
X008032Y012138D01*
X008154Y012039D02*
X007875Y012039D01*
X007679Y012039D02*
X007546Y012039D01*
X007523Y012138D02*
X007447Y012138D01*
X007458Y012236D02*
X007349Y012236D01*
X007300Y012335D02*
X007429Y012335D01*
X007429Y012433D02*
X007300Y012433D01*
X007300Y012532D02*
X007465Y012532D01*
X007540Y012630D02*
X007300Y012630D01*
X007300Y012729D02*
X008050Y012729D01*
X008050Y012827D02*
X007300Y012827D01*
X007300Y012926D02*
X008050Y012926D01*
X008050Y013024D02*
X007300Y013024D01*
X007300Y013123D02*
X008050Y013123D01*
X008050Y013221D02*
X007300Y013221D01*
X007300Y013320D02*
X008050Y013320D01*
X008050Y013418D02*
X007300Y013418D01*
X007300Y013517D02*
X008050Y013517D01*
X008050Y013615D02*
X007300Y013615D01*
X007300Y013714D02*
X007994Y013714D01*
X007930Y013812D02*
X007300Y013812D01*
X007300Y013911D02*
X007901Y013911D01*
X007901Y014009D02*
X007300Y014009D01*
X007300Y014108D02*
X007938Y014108D01*
X008013Y014206D02*
X007300Y014206D01*
X008250Y013950D02*
X008250Y012533D01*
X008092Y012376D01*
X007777Y012376D01*
X008015Y012630D02*
X008050Y012630D01*
X008450Y012630D02*
X009182Y012630D01*
X009037Y012532D02*
X008450Y012532D01*
X008433Y012433D02*
X008548Y012433D01*
X008450Y012335D02*
X008334Y012335D01*
X008351Y012236D02*
X008236Y012236D01*
X007200Y010902D02*
X005900Y012202D01*
X005900Y012802D01*
X005224Y013478D01*
X004380Y013478D01*
X004056Y013221D02*
X003764Y013221D01*
X003862Y013123D02*
X004165Y013123D01*
X004001Y013320D02*
X003665Y013320D01*
X003600Y013418D02*
X003970Y013418D01*
X003970Y013517D02*
X003600Y013517D01*
X003600Y013615D02*
X003993Y013615D01*
X004036Y013714D02*
X003600Y013714D01*
X003600Y013812D02*
X004134Y013812D01*
X004201Y014108D02*
X003600Y014108D01*
X003600Y014206D02*
X004071Y014206D01*
X004032Y014246D02*
X004147Y014130D01*
X004298Y014068D01*
X004461Y014068D01*
X004612Y014130D01*
X004727Y014246D01*
X004790Y014396D01*
X004790Y014560D01*
X004727Y014710D01*
X004612Y014826D01*
X004461Y014888D01*
X004298Y014888D01*
X004147Y014826D01*
X004032Y014710D01*
X003970Y014560D01*
X003970Y014396D01*
X004032Y014246D01*
X004007Y014305D02*
X003600Y014305D01*
X003600Y014403D02*
X003970Y014403D01*
X003970Y014502D02*
X003600Y014502D01*
X003690Y014600D02*
X003986Y014600D01*
X004027Y014699D02*
X003734Y014699D01*
X003748Y014797D02*
X004119Y014797D01*
X004238Y015093D02*
X003602Y015093D01*
X003697Y014994D02*
X004900Y014994D01*
X004900Y014896D02*
X003738Y014896D01*
X003400Y014802D02*
X003400Y013302D01*
X003800Y012902D01*
X005100Y012902D01*
X004880Y012630D02*
X002811Y012630D01*
X002811Y012532D02*
X005700Y012532D01*
X005700Y012630D02*
X005320Y012630D01*
X005405Y012729D02*
X005691Y012729D01*
X005592Y012827D02*
X005446Y012827D01*
X005448Y012926D02*
X005494Y012926D01*
X005700Y012433D02*
X002811Y012433D01*
X002811Y012335D02*
X005700Y012335D01*
X005700Y012236D02*
X002811Y012236D01*
X002876Y012138D02*
X005700Y012138D01*
X005780Y012039D02*
X002974Y012039D01*
X003073Y011941D02*
X005879Y011941D01*
X005977Y011842D02*
X003171Y011842D01*
X003270Y011744D02*
X006076Y011744D01*
X006174Y011645D02*
X003368Y011645D01*
X003467Y011547D02*
X005588Y011547D01*
X005350Y011448D02*
X003565Y011448D01*
X003664Y011350D02*
X005242Y011350D01*
X005144Y011251D02*
X003762Y011251D01*
X003861Y011153D02*
X005055Y011153D01*
X005014Y011054D02*
X003959Y011054D01*
X004058Y010956D02*
X004973Y010956D01*
X004932Y010857D02*
X004156Y010857D01*
X004255Y010759D02*
X004914Y010759D01*
X004914Y010660D02*
X004353Y010660D01*
X004452Y010562D02*
X004914Y010562D01*
X004914Y010463D02*
X004550Y010463D01*
X004649Y010365D02*
X004940Y010365D01*
X004980Y010266D02*
X004747Y010266D01*
X004846Y010168D02*
X005021Y010168D01*
X005062Y010069D02*
X004944Y010069D01*
X005043Y009971D02*
X005161Y009971D01*
X005141Y009872D02*
X005259Y009872D01*
X005240Y009774D02*
X005391Y009774D01*
X005338Y009675D02*
X005629Y009675D01*
X005167Y009281D02*
X003304Y009281D01*
X003402Y009183D02*
X005265Y009183D01*
X005364Y009084D02*
X003501Y009084D01*
X003599Y008986D02*
X005462Y008986D01*
X005561Y008887D02*
X003698Y008887D01*
X003796Y008789D02*
X005659Y008789D01*
X005758Y008690D02*
X003895Y008690D01*
X003993Y008592D02*
X005856Y008592D01*
X005955Y008493D02*
X004092Y008493D01*
X004190Y008395D02*
X006053Y008395D01*
X006152Y008296D02*
X004289Y008296D01*
X004387Y008198D02*
X006250Y008198D01*
X006349Y008099D02*
X004486Y008099D01*
X004584Y008001D02*
X006447Y008001D01*
X007512Y007607D02*
X004978Y007607D01*
X004880Y007705D02*
X007622Y007705D01*
X007765Y007902D02*
X004683Y007902D01*
X004781Y007804D02*
X007864Y007804D01*
X008004Y007114D02*
X008101Y007114D01*
X005068Y009380D02*
X003205Y009380D01*
X003107Y009478D02*
X004970Y009478D01*
X004871Y009577D02*
X003008Y009577D01*
X002910Y009675D02*
X004773Y009675D01*
X004674Y009774D02*
X002811Y009774D01*
X002713Y009872D02*
X004576Y009872D01*
X004477Y009971D02*
X002614Y009971D01*
X002516Y010069D02*
X004379Y010069D01*
X004280Y010168D02*
X002417Y010168D01*
X002319Y010266D02*
X004182Y010266D01*
X004083Y010365D02*
X002220Y010365D01*
X002122Y010463D02*
X003985Y010463D01*
X003886Y010562D02*
X002100Y010562D01*
X002100Y010660D02*
X003788Y010660D01*
X003689Y010759D02*
X002100Y010759D01*
X002100Y010857D02*
X003591Y010857D01*
X003492Y010956D02*
X002100Y010956D01*
X002100Y011054D02*
X003394Y011054D01*
X003295Y011153D02*
X002100Y011153D01*
X002100Y011251D02*
X003197Y011251D01*
X003098Y011350D02*
X002100Y011350D01*
X002100Y011448D02*
X003000Y011448D01*
X002901Y011547D02*
X002100Y011547D01*
X002040Y011645D02*
X002803Y011645D01*
X002704Y011744D02*
X001941Y011744D01*
X001843Y011842D02*
X002606Y011842D01*
X002507Y011941D02*
X001744Y011941D01*
X001646Y012039D02*
X002411Y012039D01*
X002411Y012138D02*
X001547Y012138D01*
X001449Y012236D02*
X002411Y012236D01*
X002411Y012335D02*
X001350Y012335D01*
X001252Y012433D02*
X002411Y012433D01*
X002411Y012532D02*
X001153Y012532D01*
X001055Y012630D02*
X002411Y012630D01*
X002411Y012729D02*
X001000Y012729D01*
X001000Y012827D02*
X002411Y012827D01*
X002411Y012926D02*
X001000Y012926D01*
X001000Y013024D02*
X002411Y013024D01*
X002411Y013123D02*
X001594Y013123D01*
X001703Y013221D02*
X002411Y013221D01*
X002411Y013320D02*
X001758Y013320D01*
X001790Y013418D02*
X002411Y013418D01*
X002411Y013517D02*
X001790Y013517D01*
X001766Y013615D02*
X002411Y013615D01*
X002411Y013714D02*
X001723Y013714D01*
X001625Y013812D02*
X002411Y013812D01*
X002411Y013911D02*
X001000Y013911D01*
X001000Y014009D02*
X002411Y014009D01*
X002411Y014108D02*
X001558Y014108D01*
X001688Y014206D02*
X002411Y014206D01*
X002411Y014305D02*
X001752Y014305D01*
X001790Y014403D02*
X002411Y014403D01*
X002411Y014502D02*
X001790Y014502D01*
X001773Y014600D02*
X002411Y014600D01*
X002411Y014699D02*
X001732Y014699D01*
X001640Y014797D02*
X002411Y014797D01*
X002411Y014896D02*
X001000Y014896D01*
X001000Y014994D02*
X002411Y014994D01*
X002411Y015093D02*
X001521Y015093D01*
X001673Y015191D02*
X002411Y015191D01*
X002425Y015290D02*
X001745Y015290D01*
X001786Y015388D02*
X002523Y015388D01*
X002622Y015487D02*
X001790Y015487D01*
X001779Y015585D02*
X002720Y015585D01*
X002939Y015919D02*
X004746Y015919D01*
X005100Y015565D01*
X005100Y014029D01*
X004951Y013714D02*
X004723Y013714D01*
X004625Y013812D02*
X004824Y013812D01*
X004772Y013911D02*
X003600Y013911D01*
X003600Y014009D02*
X004752Y014009D01*
X004756Y014108D02*
X004558Y014108D01*
X004688Y014206D02*
X004797Y014206D01*
X004752Y014305D02*
X004883Y014305D01*
X004900Y014403D02*
X004790Y014403D01*
X004790Y014502D02*
X004900Y014502D01*
X004900Y014600D02*
X004773Y014600D01*
X004732Y014699D02*
X004900Y014699D01*
X004900Y014797D02*
X004640Y014797D01*
X004521Y015093D02*
X004900Y015093D01*
X004900Y015191D02*
X004673Y015191D01*
X004745Y015290D02*
X004900Y015290D01*
X004900Y015388D02*
X004786Y015388D01*
X004790Y015487D02*
X004895Y015487D01*
X004796Y015585D02*
X004779Y015585D01*
X004869Y016078D02*
X007403Y016078D01*
X007362Y015979D02*
X007315Y015979D01*
X007498Y016176D02*
X004658Y016176D01*
X004739Y016275D02*
X007806Y016275D01*
X007904Y016373D02*
X004780Y016373D01*
X004790Y016472D02*
X008003Y016472D01*
X008101Y016570D02*
X004785Y016570D01*
X004744Y016669D02*
X008200Y016669D01*
X008298Y016767D02*
X004670Y016767D01*
X004514Y016866D02*
X008381Y016866D01*
X008500Y016702D02*
X008500Y016686D01*
X007700Y015886D01*
X008500Y016702D02*
X009200Y016702D01*
X009300Y016602D01*
X009300Y013602D01*
X010730Y013006D02*
X010730Y016549D01*
X011517Y017336D01*
X011517Y017730D01*
X011466Y017782D01*
X007913Y017782D01*
X008039Y017457D02*
X011298Y017457D01*
X011213Y017555D02*
X008179Y017555D01*
X008566Y018540D02*
X008666Y018540D01*
X008666Y018639D02*
X008566Y018639D01*
X008566Y018737D02*
X008666Y018737D01*
X008666Y018836D02*
X008566Y018836D01*
X008616Y018945D02*
X008616Y019135D01*
X008566Y019033D02*
X008666Y019033D01*
X008816Y019427D02*
X010420Y019427D01*
X010264Y019328D02*
X009808Y019328D01*
X009966Y019230D02*
X010171Y019230D01*
X010130Y019131D02*
X010060Y019131D01*
X010134Y018737D02*
X010139Y018737D01*
X010093Y018639D02*
X010187Y018639D01*
X010285Y018540D02*
X010046Y018540D01*
X009948Y018442D02*
X010472Y018442D01*
X010759Y018442D02*
X011284Y018442D01*
X011185Y018540D02*
X010946Y018540D01*
X011045Y018639D02*
X011138Y018639D01*
X011098Y018737D02*
X011093Y018737D01*
X011101Y019131D02*
X011171Y019131D01*
X011265Y019230D02*
X011061Y019230D01*
X010968Y019328D02*
X011423Y019328D01*
X011344Y019427D02*
X012920Y019427D01*
X012764Y019328D02*
X011808Y019328D01*
X011966Y019230D02*
X012671Y019230D01*
X012630Y019131D02*
X012060Y019131D01*
X012101Y019033D02*
X012596Y019033D01*
X012596Y018934D02*
X012136Y018934D01*
X012136Y018836D02*
X012598Y018836D01*
X012639Y018737D02*
X012134Y018737D01*
X012093Y018639D02*
X012687Y018639D01*
X012785Y018540D02*
X012046Y018540D01*
X011948Y018442D02*
X012972Y018442D01*
X012860Y018245D02*
X019790Y018245D01*
X019835Y018343D02*
X018263Y018343D01*
X018448Y018442D02*
X019924Y018442D01*
X020091Y018540D02*
X018546Y018540D01*
X018593Y018639D02*
X019992Y018639D01*
X019951Y018737D02*
X018634Y018737D01*
X018636Y018836D02*
X019910Y018836D01*
X019886Y018934D02*
X018636Y018934D01*
X018601Y019033D02*
X019886Y019033D01*
X019886Y019131D02*
X018560Y019131D01*
X018466Y019230D02*
X019913Y019230D01*
X020150Y018146D02*
X012958Y018146D01*
X012688Y017851D02*
X011844Y017851D01*
X011865Y017752D02*
X012744Y017752D01*
X012747Y017654D02*
X011863Y017654D01*
X011822Y017555D02*
X012788Y017555D01*
X012873Y017457D02*
X011737Y017457D01*
X011763Y018343D02*
X013968Y018343D01*
X013784Y018442D02*
X013259Y018442D01*
X013446Y018540D02*
X013685Y018540D01*
X013638Y018639D02*
X013545Y018639D01*
X013593Y018737D02*
X013598Y018737D01*
X013601Y019131D02*
X013671Y019131D01*
X013765Y019230D02*
X013561Y019230D01*
X013468Y019328D02*
X013923Y019328D01*
X014308Y019328D02*
X014764Y019328D01*
X014671Y019230D02*
X014466Y019230D01*
X014560Y019131D02*
X014630Y019131D01*
X014634Y018737D02*
X014639Y018737D01*
X014593Y018639D02*
X014687Y018639D01*
X014785Y018540D02*
X014546Y018540D01*
X014448Y018442D02*
X014972Y018442D01*
X015259Y018442D02*
X015784Y018442D01*
X015685Y018540D02*
X015446Y018540D01*
X015545Y018639D02*
X015638Y018639D01*
X015598Y018737D02*
X015593Y018737D01*
X015601Y019131D02*
X015671Y019131D01*
X015765Y019230D02*
X015561Y019230D01*
X015468Y019328D02*
X015923Y019328D01*
X015877Y019427D02*
X015312Y019427D01*
X014920Y019427D02*
X013312Y019427D01*
X014263Y018343D02*
X015968Y018343D01*
X016263Y018343D02*
X017968Y018343D01*
X017784Y018442D02*
X017259Y018442D01*
X017446Y018540D02*
X017685Y018540D01*
X017638Y018639D02*
X017545Y018639D01*
X017593Y018737D02*
X017598Y018737D01*
X016972Y018442D02*
X016448Y018442D01*
X016546Y018540D02*
X016785Y018540D01*
X016687Y018639D02*
X016593Y018639D01*
X016634Y018737D02*
X016639Y018737D01*
X015778Y019525D02*
X011620Y019525D01*
X010903Y019427D02*
X010812Y019427D01*
X010627Y019525D02*
X006469Y019525D01*
X006420Y019427D02*
X006370Y019427D01*
X008943Y018540D02*
X009185Y018540D01*
X009138Y018639D02*
X009036Y018639D01*
X009093Y018737D02*
X009098Y018737D01*
X009128Y019033D02*
X009131Y019033D01*
X009102Y019131D02*
X009171Y019131D01*
X009265Y019230D02*
X009052Y019230D01*
X008968Y019328D02*
X009423Y019328D01*
X009763Y018343D02*
X011468Y018343D01*
X010930Y015585D02*
X013348Y015585D01*
X013191Y015487D02*
X010930Y015487D01*
X010930Y015388D02*
X013127Y015388D01*
X013098Y015290D02*
X010930Y015290D01*
X010930Y015191D02*
X013098Y015191D01*
X013135Y015093D02*
X010930Y015093D01*
X010930Y014994D02*
X013209Y014994D01*
X013517Y014896D02*
X010930Y014896D01*
X010930Y014797D02*
X013522Y014797D01*
X013522Y014699D02*
X010930Y014699D01*
X010930Y014600D02*
X013522Y014600D01*
X013522Y014502D02*
X010930Y014502D01*
X010930Y014403D02*
X013522Y014403D01*
X013522Y014305D02*
X010930Y014305D01*
X010930Y014206D02*
X013522Y014206D01*
X013522Y014108D02*
X010930Y014108D01*
X010930Y014009D02*
X013522Y014009D01*
X013522Y013911D02*
X010930Y013911D01*
X010930Y013812D02*
X013522Y013812D01*
X013522Y013714D02*
X010930Y013714D01*
X010930Y013615D02*
X013522Y013615D01*
X013522Y013517D02*
X010930Y013517D01*
X010930Y013418D02*
X013522Y013418D01*
X013522Y013320D02*
X010930Y013320D01*
X011006Y013221D02*
X013522Y013221D01*
X013522Y013123D02*
X011058Y013123D01*
X011078Y013024D02*
X013522Y013024D01*
X013522Y012926D02*
X011074Y012926D01*
X011033Y012827D02*
X013522Y012827D01*
X013522Y012729D02*
X010946Y012729D01*
X006273Y011547D02*
X006180Y011547D01*
X003691Y012729D02*
X002811Y012729D01*
X002811Y012827D02*
X003592Y012827D01*
X003494Y012926D02*
X002811Y012926D01*
X002811Y013024D02*
X003395Y013024D01*
X003297Y013123D02*
X002811Y013123D01*
X002811Y013221D02*
X003200Y013221D01*
X003200Y013320D02*
X002811Y013320D01*
X002811Y013418D02*
X003200Y013418D01*
X003200Y013517D02*
X002811Y013517D01*
X002811Y013615D02*
X003200Y013615D01*
X003200Y013714D02*
X002811Y013714D01*
X002811Y013812D02*
X003200Y013812D01*
X003200Y013911D02*
X002811Y013911D01*
X002811Y014009D02*
X003200Y014009D01*
X003200Y014108D02*
X002811Y014108D01*
X002811Y014206D02*
X003200Y014206D01*
X003200Y014305D02*
X002811Y014305D01*
X002811Y014403D02*
X003200Y014403D01*
X003200Y014502D02*
X002811Y014502D01*
X002811Y014600D02*
X003110Y014600D01*
X003066Y014699D02*
X002811Y014699D01*
X002811Y014797D02*
X003052Y014797D01*
X003062Y014896D02*
X002811Y014896D01*
X002811Y014994D02*
X003103Y014994D01*
X003198Y015093D02*
X002811Y015093D01*
X002892Y015191D02*
X004086Y015191D01*
X002004Y016570D02*
X001785Y016570D01*
X001744Y016669D02*
X001906Y016669D01*
X001807Y016767D02*
X001670Y016767D01*
X001709Y016866D02*
X001514Y016866D01*
X001610Y016964D02*
X000550Y016964D01*
X000550Y016866D02*
X001245Y016866D01*
X001089Y016767D02*
X000550Y016767D01*
X000550Y016669D02*
X001015Y016669D01*
X000974Y016570D02*
X000550Y016570D01*
X000550Y016472D02*
X000970Y016472D01*
X000979Y016373D02*
X000550Y016373D01*
X000550Y016275D02*
X000894Y016275D01*
X000795Y016176D02*
X000550Y016176D01*
X000550Y016078D02*
X000697Y016078D01*
X000600Y015979D02*
X000550Y015979D01*
X000550Y015881D02*
X000600Y015881D01*
X000600Y015782D02*
X000550Y015782D01*
X000550Y015684D02*
X000600Y015684D01*
X000600Y015585D02*
X000550Y015585D01*
X000550Y015487D02*
X000600Y015487D01*
X000600Y015388D02*
X000550Y015388D01*
X000550Y015290D02*
X000600Y015290D01*
X000600Y015191D02*
X000550Y015191D01*
X000550Y015093D02*
X000600Y015093D01*
X000600Y014994D02*
X000550Y014994D01*
X000550Y014896D02*
X000600Y014896D01*
X000600Y014797D02*
X000550Y014797D01*
X000550Y014699D02*
X000600Y014699D01*
X000600Y014600D02*
X000550Y014600D01*
X000550Y014502D02*
X000600Y014502D01*
X000600Y014403D02*
X000550Y014403D01*
X000550Y014305D02*
X000600Y014305D01*
X000600Y014206D02*
X000550Y014206D01*
X000550Y014108D02*
X000600Y014108D01*
X000600Y014009D02*
X000550Y014009D01*
X000550Y013911D02*
X000600Y013911D01*
X000600Y013812D02*
X000550Y013812D01*
X000550Y013714D02*
X000600Y013714D01*
X000600Y013615D02*
X000550Y013615D01*
X000550Y013517D02*
X000600Y013517D01*
X000600Y013418D02*
X000550Y013418D01*
X000550Y013320D02*
X000600Y013320D01*
X000600Y013221D02*
X000550Y013221D01*
X000550Y013123D02*
X000600Y013123D01*
X000600Y013024D02*
X000550Y013024D01*
X000550Y012926D02*
X000600Y012926D01*
X000600Y012827D02*
X000550Y012827D01*
X000550Y012729D02*
X000600Y012729D01*
X000600Y012630D02*
X000550Y012630D01*
X000550Y012532D02*
X000600Y012532D01*
X000550Y012433D02*
X000686Y012433D01*
X000717Y012402D02*
X000717Y012402D01*
X000785Y012335D02*
X000550Y012335D01*
X000550Y012236D02*
X000883Y012236D01*
X000982Y012138D02*
X000550Y012138D01*
X000550Y012039D02*
X001080Y012039D01*
X001179Y011941D02*
X000550Y011941D01*
X000550Y011842D02*
X001277Y011842D01*
X001376Y011744D02*
X000550Y011744D01*
X000550Y011645D02*
X001474Y011645D01*
X001573Y011547D02*
X000550Y011547D01*
X000550Y011448D02*
X001671Y011448D01*
X001700Y011350D02*
X000550Y011350D01*
X000550Y011251D02*
X001700Y011251D01*
X001700Y011153D02*
X000550Y011153D01*
X000550Y011054D02*
X001700Y011054D01*
X001700Y010956D02*
X000550Y010956D01*
X000550Y010857D02*
X001700Y010857D01*
X001700Y010759D02*
X000550Y010759D01*
X000550Y010660D02*
X001700Y010660D01*
X001700Y010562D02*
X000550Y010562D01*
X000550Y010463D02*
X001700Y010463D01*
X001700Y010365D02*
X000550Y010365D01*
X000550Y010266D02*
X001753Y010266D01*
X001852Y010168D02*
X000550Y010168D01*
X000550Y010069D02*
X001950Y010069D01*
X002049Y009971D02*
X000550Y009971D01*
X000550Y009872D02*
X002147Y009872D01*
X002246Y009774D02*
X000550Y009774D01*
X000550Y009675D02*
X002344Y009675D01*
X002443Y009577D02*
X000550Y009577D01*
X000550Y009478D02*
X002541Y009478D01*
X002640Y009380D02*
X000550Y009380D01*
X000550Y009281D02*
X002738Y009281D01*
X002837Y009183D02*
X000550Y009183D01*
X000550Y009084D02*
X002935Y009084D01*
X003034Y008986D02*
X000550Y008986D01*
X000550Y008887D02*
X003132Y008887D01*
X003231Y008789D02*
X000550Y008789D01*
X000550Y008690D02*
X003329Y008690D01*
X003428Y008592D02*
X000550Y008592D01*
X000550Y008493D02*
X003526Y008493D01*
X003625Y008395D02*
X000550Y008395D01*
X000550Y008296D02*
X003723Y008296D01*
X003822Y008198D02*
X000550Y008198D01*
X000550Y008099D02*
X003920Y008099D01*
X004019Y008001D02*
X000550Y008001D01*
X000550Y007902D02*
X004117Y007902D01*
X004216Y007804D02*
X000550Y007804D01*
X000550Y007705D02*
X004314Y007705D01*
X004413Y007607D02*
X000550Y007607D01*
X000550Y007508D02*
X004511Y007508D01*
X004610Y007410D02*
X000550Y007410D01*
X000550Y007311D02*
X004708Y007311D01*
X004807Y007213D02*
X000550Y007213D01*
X000550Y005341D02*
X020801Y005341D01*
X020801Y005243D02*
X000550Y005243D01*
X000550Y005144D02*
X020801Y005144D01*
X020801Y005046D02*
X000550Y005046D01*
X000550Y004947D02*
X020801Y004947D01*
X020801Y004849D02*
X000550Y004849D01*
X000550Y004750D02*
X020801Y004750D01*
X020801Y004652D02*
X000550Y004652D01*
X000550Y004553D02*
X020801Y004553D01*
X020801Y004455D02*
X000550Y004455D01*
X000550Y004356D02*
X020801Y004356D01*
X020553Y004258D02*
X000550Y004258D01*
X000550Y004159D02*
X020516Y004159D01*
X020516Y004061D02*
X000550Y004061D01*
X000550Y003962D02*
X020516Y003962D01*
X020516Y003864D02*
X000550Y003864D01*
X000550Y003765D02*
X020516Y003765D01*
X020516Y003667D02*
X000550Y003667D01*
X000550Y003568D02*
X020516Y003568D01*
X020516Y003470D02*
X000550Y003470D01*
X000550Y003371D02*
X020516Y003371D01*
X020529Y003273D02*
X000550Y003273D01*
X000550Y003174D02*
X021819Y003174D01*
X021819Y003076D02*
X000550Y003076D01*
X000550Y002977D02*
X021819Y002977D01*
X021819Y002879D02*
X000550Y002879D01*
X000550Y002780D02*
X010979Y002780D01*
X011001Y002790D02*
X010644Y002642D01*
X010372Y002369D01*
X010224Y002013D01*
X010224Y001627D01*
X010372Y001270D01*
X010644Y000997D01*
X011001Y000850D01*
X011387Y000850D01*
X011743Y000997D01*
X012016Y001270D01*
X012164Y001627D01*
X012164Y002013D01*
X012016Y002369D01*
X011743Y002642D01*
X011387Y002790D01*
X011001Y002790D01*
X010741Y002682D02*
X000550Y002682D01*
X000550Y002583D02*
X010586Y002583D01*
X010487Y002485D02*
X000550Y002485D01*
X000550Y002386D02*
X010389Y002386D01*
X010338Y002288D02*
X000550Y002288D01*
X000550Y002189D02*
X010297Y002189D01*
X010256Y002091D02*
X000550Y002091D01*
X000550Y001992D02*
X010224Y001992D01*
X010224Y001894D02*
X000550Y001894D01*
X000550Y001795D02*
X010224Y001795D01*
X010224Y001697D02*
X000550Y001697D01*
X000550Y001598D02*
X010236Y001598D01*
X010276Y001500D02*
X000550Y001500D01*
X000550Y001401D02*
X010317Y001401D01*
X010358Y001303D02*
X000550Y001303D01*
X000550Y001204D02*
X010437Y001204D01*
X010536Y001106D02*
X000550Y001106D01*
X000550Y001007D02*
X010634Y001007D01*
X010858Y000909D02*
X000550Y000909D01*
X000550Y000810D02*
X021819Y000810D01*
X021819Y000712D02*
X000550Y000712D01*
X000550Y000613D02*
X021819Y000613D01*
X021819Y000909D02*
X011530Y000909D01*
X011753Y001007D02*
X021819Y001007D01*
X021819Y001106D02*
X011852Y001106D01*
X011950Y001204D02*
X021819Y001204D01*
X021819Y001303D02*
X012030Y001303D01*
X012071Y001401D02*
X021819Y001401D01*
X021819Y001500D02*
X012111Y001500D01*
X012152Y001598D02*
X021819Y001598D01*
X021819Y001697D02*
X012164Y001697D01*
X012164Y001795D02*
X021819Y001795D01*
X021819Y001894D02*
X012164Y001894D01*
X012164Y001992D02*
X021819Y001992D01*
X021819Y002091D02*
X012132Y002091D01*
X012091Y002189D02*
X021819Y002189D01*
X021819Y002288D02*
X012050Y002288D01*
X011999Y002386D02*
X021819Y002386D01*
X021819Y002485D02*
X011901Y002485D01*
X011802Y002583D02*
X021819Y002583D01*
X021819Y002682D02*
X011647Y002682D01*
X011409Y002780D02*
X021819Y002780D01*
X021819Y003273D02*
X021612Y003273D01*
X021626Y003371D02*
X021819Y003371D01*
X021819Y003470D02*
X021626Y003470D01*
X021626Y003568D02*
X021819Y003568D01*
X021819Y003667D02*
X021626Y003667D01*
X021626Y003765D02*
X021819Y003765D01*
X021819Y003864D02*
X021626Y003864D01*
X021626Y003962D02*
X021819Y003962D01*
X021819Y004061D02*
X021626Y004061D01*
X021626Y004159D02*
X021819Y004159D01*
X021819Y004258D02*
X021589Y004258D01*
X021819Y004356D02*
X021341Y004356D01*
X021341Y004455D02*
X021819Y004455D01*
X021819Y004553D02*
X021341Y004553D01*
X021341Y004652D02*
X021819Y004652D01*
X021819Y004750D02*
X021341Y004750D01*
X021341Y004849D02*
X021819Y004849D01*
X021819Y004947D02*
X021341Y004947D01*
X021341Y005046D02*
X021819Y005046D01*
X021819Y005144D02*
X021341Y005144D01*
X021341Y005243D02*
X021819Y005243D01*
X021819Y005341D02*
X021341Y005341D01*
X021341Y005440D02*
X021819Y005440D01*
X021819Y005538D02*
X021341Y005538D01*
X021341Y005637D02*
X021819Y005637D01*
X021819Y005735D02*
X021341Y005735D01*
X021341Y005834D02*
X021819Y005834D01*
X021819Y005932D02*
X021341Y005932D01*
X021341Y006031D02*
X021819Y006031D01*
X021819Y006129D02*
X021341Y006129D01*
X021341Y006228D02*
X021819Y006228D01*
X021819Y006326D02*
X021341Y006326D01*
X021341Y006425D02*
X021819Y006425D01*
X021819Y006523D02*
X021341Y006523D01*
X021341Y006622D02*
X021819Y006622D01*
X021819Y006720D02*
X021341Y006720D01*
X021341Y006819D02*
X021819Y006819D01*
X021819Y006917D02*
X021341Y006917D01*
X021341Y007016D02*
X021819Y007016D01*
X021819Y007114D02*
X021341Y007114D01*
X021341Y007213D02*
X021819Y007213D01*
X021819Y007311D02*
X021341Y007311D01*
X021341Y007410D02*
X021819Y007410D01*
X021819Y007508D02*
X021341Y007508D01*
X021341Y007607D02*
X021819Y007607D01*
X021819Y007705D02*
X021332Y007705D01*
X021280Y007804D02*
X021819Y007804D01*
X021819Y007902D02*
X021182Y007902D01*
X021083Y008001D02*
X021819Y008001D01*
X021819Y008099D02*
X020985Y008099D01*
X020886Y008198D02*
X021819Y008198D01*
X021819Y008296D02*
X020788Y008296D01*
X020689Y008395D02*
X021819Y008395D01*
X021819Y008493D02*
X020591Y008493D01*
X020492Y008592D02*
X021819Y008592D01*
X021819Y008690D02*
X020394Y008690D01*
X020295Y008789D02*
X021819Y008789D01*
X021819Y008887D02*
X020270Y008887D01*
X020270Y008986D02*
X021819Y008986D01*
X021819Y009084D02*
X020270Y009084D01*
X020270Y009183D02*
X021819Y009183D01*
X021819Y009281D02*
X020270Y009281D01*
X020270Y009380D02*
X021819Y009380D01*
X021819Y009478D02*
X020270Y009478D01*
X020270Y009577D02*
X021819Y009577D01*
X021819Y009675D02*
X020270Y009675D01*
X020270Y009774D02*
X021819Y009774D01*
X021819Y009872D02*
X020270Y009872D01*
X020270Y009971D02*
X021819Y009971D01*
X021819Y010069D02*
X020270Y010069D01*
X020270Y010168D02*
X021819Y010168D01*
X021819Y010266D02*
X020270Y010266D01*
X020270Y010365D02*
X021819Y010365D01*
X021819Y010463D02*
X020270Y010463D01*
X020270Y010562D02*
X021819Y010562D01*
X021819Y010660D02*
X020270Y010660D01*
X020270Y010759D02*
X021819Y010759D01*
X021819Y010857D02*
X020270Y010857D01*
X020270Y010956D02*
X021819Y010956D01*
X021819Y011054D02*
X020270Y011054D01*
X020270Y011153D02*
X021819Y011153D01*
X021819Y011251D02*
X020270Y011251D01*
X020270Y011350D02*
X021819Y011350D01*
X021819Y011448D02*
X020270Y011448D01*
X020270Y011547D02*
X021819Y011547D01*
X021819Y011645D02*
X020270Y011645D01*
X020270Y011744D02*
X021819Y011744D01*
X021819Y011842D02*
X020270Y011842D01*
X020270Y011941D02*
X021819Y011941D01*
X021819Y012039D02*
X020270Y012039D01*
X020270Y012138D02*
X021819Y012138D01*
X021819Y012236D02*
X020270Y012236D01*
X020270Y012335D02*
X021819Y012335D01*
X021819Y012433D02*
X020270Y012433D01*
X020270Y012532D02*
X021819Y012532D01*
X021819Y012630D02*
X020270Y012630D01*
X020284Y012729D02*
X021113Y012729D01*
X020984Y012827D02*
X020382Y012827D01*
X020481Y012926D02*
X020909Y012926D01*
X020866Y013024D02*
X020579Y013024D01*
X020678Y013123D02*
X020843Y013123D01*
X020776Y013221D02*
X021310Y013221D01*
X021310Y013123D02*
X021410Y013123D01*
X021410Y013024D02*
X021310Y013024D01*
X021310Y012926D02*
X021410Y012926D01*
X021410Y012827D02*
X021310Y012827D01*
X021310Y012729D02*
X021410Y012729D01*
X021607Y012729D02*
X021819Y012729D01*
X021819Y012827D02*
X021736Y012827D01*
X021811Y012926D02*
X021819Y012926D01*
X021819Y014436D02*
X021801Y014481D01*
X021654Y014627D01*
X021590Y014654D01*
X021590Y016250D01*
X021373Y016467D01*
X021374Y016468D01*
X021374Y016630D01*
X021312Y016780D01*
X021197Y016894D01*
X021080Y016943D01*
X021197Y016991D01*
X021312Y017105D01*
X021374Y017255D01*
X021374Y017417D01*
X021312Y017567D01*
X021197Y017682D01*
X021077Y017731D01*
X021123Y017746D01*
X021180Y017775D01*
X021232Y017813D01*
X021277Y017858D01*
X021315Y017910D01*
X021344Y017967D01*
X021364Y018028D01*
X021374Y018092D01*
X021374Y018095D01*
X020995Y018095D01*
X020995Y018152D01*
X021374Y018152D01*
X021374Y018156D01*
X021364Y018219D01*
X021344Y018280D01*
X021315Y018337D01*
X021277Y018389D01*
X021232Y018434D01*
X021180Y018472D01*
X021123Y018501D01*
X021062Y018521D01*
X021038Y018525D01*
X021154Y018640D01*
X021259Y018893D01*
X021259Y019166D01*
X021224Y019248D01*
X021819Y019248D01*
X021819Y014436D01*
X021819Y014502D02*
X021780Y014502D01*
X021819Y014600D02*
X021681Y014600D01*
X021590Y014699D02*
X021819Y014699D01*
X021819Y014797D02*
X021590Y014797D01*
X021590Y014896D02*
X021819Y014896D01*
X021819Y014994D02*
X021590Y014994D01*
X021590Y015093D02*
X021819Y015093D01*
X021819Y015191D02*
X021590Y015191D01*
X021590Y015290D02*
X021819Y015290D01*
X021819Y015388D02*
X021590Y015388D01*
X021590Y015487D02*
X021819Y015487D01*
X021819Y015585D02*
X021590Y015585D01*
X021590Y015684D02*
X021819Y015684D01*
X021819Y015782D02*
X021590Y015782D01*
X021590Y015881D02*
X021819Y015881D01*
X021819Y015979D02*
X021590Y015979D01*
X021590Y016078D02*
X021819Y016078D01*
X021819Y016176D02*
X021590Y016176D01*
X021565Y016275D02*
X021819Y016275D01*
X021819Y016373D02*
X021467Y016373D01*
X021374Y016472D02*
X021819Y016472D01*
X021819Y016570D02*
X021374Y016570D01*
X021357Y016669D02*
X021819Y016669D01*
X021819Y016767D02*
X021317Y016767D01*
X021225Y016866D02*
X021819Y016866D01*
X021819Y016964D02*
X021133Y016964D01*
X021269Y017063D02*
X021819Y017063D01*
X021819Y017161D02*
X021335Y017161D01*
X021374Y017260D02*
X021819Y017260D01*
X021819Y017358D02*
X021374Y017358D01*
X021357Y017457D02*
X021819Y017457D01*
X021819Y017555D02*
X021316Y017555D01*
X021225Y017654D02*
X021819Y017654D01*
X021819Y017752D02*
X021135Y017752D01*
X021270Y017851D02*
X021819Y017851D01*
X021819Y017949D02*
X021335Y017949D01*
X021367Y018048D02*
X021819Y018048D01*
X021819Y018146D02*
X020995Y018146D01*
X020937Y018146D02*
X020207Y018146D01*
X020207Y018152D02*
X020937Y018152D01*
X020937Y018095D01*
X020559Y018095D01*
X020207Y018095D01*
X020207Y018152D01*
X021054Y018540D02*
X021819Y018540D01*
X021819Y018442D02*
X021221Y018442D01*
X021310Y018343D02*
X021819Y018343D01*
X021819Y018245D02*
X021355Y018245D01*
X021153Y018639D02*
X021819Y018639D01*
X021819Y018737D02*
X021194Y018737D01*
X021235Y018836D02*
X021819Y018836D01*
X021819Y018934D02*
X021259Y018934D01*
X021259Y019033D02*
X021819Y019033D01*
X021819Y019131D02*
X021259Y019131D01*
X021232Y019230D02*
X021819Y019230D01*
X021130Y015191D02*
X021091Y015191D01*
X021130Y015093D02*
X020993Y015093D01*
X018998Y005525D02*
X018998Y005131D01*
X001165Y013123D02*
X001000Y013123D01*
X001000Y013221D02*
X001056Y013221D01*
X001000Y013320D02*
X001001Y013320D01*
X001000Y013714D02*
X001036Y013714D01*
X001000Y013812D02*
X001134Y013812D01*
X001201Y014108D02*
X001000Y014108D01*
X001000Y014206D02*
X001071Y014206D01*
X001007Y014305D02*
X001000Y014305D01*
X001000Y014699D02*
X001027Y014699D01*
X001000Y014797D02*
X001119Y014797D01*
X001000Y015093D02*
X001238Y015093D01*
X001086Y015191D02*
X001000Y015191D01*
X001000Y015290D02*
X001014Y015290D01*
X001000Y015684D02*
X001021Y015684D01*
X001000Y015782D02*
X001104Y015782D01*
X001262Y016078D02*
X001274Y016078D01*
D17*
X003400Y014802D03*
X005100Y014029D03*
X005100Y012902D03*
X007000Y015002D03*
X007100Y015702D03*
X007700Y015886D03*
X008250Y013950D03*
X009300Y013602D03*
X009300Y013002D03*
X009300Y012302D03*
X010730Y013006D03*
X011242Y015131D03*
X010294Y015744D03*
X011517Y017730D03*
X013092Y017730D03*
X014234Y015958D03*
X013446Y015250D03*
X015061Y011824D03*
X015000Y009102D03*
X014470Y008596D03*
X014155Y008124D03*
X014600Y007502D03*
X016800Y006902D03*
X018998Y005525D03*
X019200Y007102D03*
X019200Y007702D03*
X019000Y010202D03*
X013092Y004738D03*
X011800Y005802D03*
X011700Y007102D03*
X011700Y007902D03*
X008900Y006802D03*
X008353Y007354D03*
X007800Y007402D03*
X007777Y012376D03*
X007913Y017782D03*
X001900Y004302D03*
X015061Y003950D03*
D18*
X021360Y014187D02*
X021360Y016155D01*
X020966Y016549D01*
X020179Y016549D01*
X020179Y017336D02*
X020966Y017336D01*
D19*
X021360Y014187D02*
X020000Y012827D01*
X020000Y008702D01*
X021071Y007631D01*
X021071Y003754D01*
M02*
