G75*
G70*
%OFA0B0*%
%FSLAX24Y24*%
%IPPOS*%
%LPD*%
%AMOC8*
5,1,8,0,0,1.08239X$1,22.5*
%
%ADD10C,0.1340*%
%ADD11C,0.0600*%
%ADD12R,0.0890X0.0890*%
%ADD13C,0.0890*%
%ADD14C,0.1120*%
%ADD15C,0.0820*%
%ADD16C,0.0595*%
%ADD17C,0.0552*%
%ADD18C,0.0476*%
D10*
X011124Y020486D03*
D11*
X004380Y018478D03*
X004380Y017478D03*
X004380Y016478D03*
X004380Y015478D03*
X004380Y014478D03*
X004380Y013478D03*
X001380Y013478D03*
X001380Y014478D03*
X001380Y015478D03*
X001380Y016478D03*
X001380Y017478D03*
X001380Y018478D03*
D12*
X021071Y003754D03*
D13*
X021071Y008754D03*
D14*
X016504Y010620D03*
X011194Y001820D03*
X005884Y010620D03*
D15*
X007616Y018845D03*
X008616Y018945D03*
X009616Y018845D03*
X010616Y018945D03*
X011616Y018845D03*
X013116Y018945D03*
X014116Y018845D03*
X015116Y018945D03*
X016116Y018845D03*
X017116Y018945D03*
X018116Y018845D03*
X021360Y014187D03*
X021360Y013187D03*
X006616Y018945D03*
D16*
X020179Y018124D03*
X020966Y018124D03*
X020966Y017336D03*
X020966Y016549D03*
X020179Y016549D03*
X020179Y017336D03*
D17*
X020572Y015643D03*
X020572Y019029D03*
D18*
X001900Y004302D03*
X007800Y007402D03*
X008353Y007354D03*
X008900Y006802D03*
X011700Y007102D03*
X011700Y007902D03*
X011800Y005802D03*
X013092Y004738D03*
X015061Y003950D03*
X016800Y006902D03*
X018998Y005525D03*
X019200Y007102D03*
X019200Y007702D03*
X019000Y010202D03*
X015000Y009102D03*
X014470Y008596D03*
X014155Y008124D03*
X014600Y007502D03*
X015061Y011824D03*
X013446Y015250D03*
X014234Y015958D03*
X013092Y017730D03*
X011517Y017730D03*
X010294Y015744D03*
X011242Y015131D03*
X009300Y013602D03*
X009300Y013002D03*
X009300Y012302D03*
X010730Y013006D03*
X008250Y013950D03*
X007000Y015002D03*
X007100Y015702D03*
X007700Y015886D03*
X007913Y017782D03*
X005100Y014029D03*
X005100Y012902D03*
X003400Y014802D03*
X007777Y012376D03*
M02*
