%
M48
M72
T01C0.0236
T02C0.0315
T03C0.0320
T04C0.0400
T05C0.0472
T06C0.0540
T07C0.1040
T08C0.1260
%
T01
X1900Y4302
X7800Y7402
X8353Y7354
X8900Y6802
X11700Y7102
X11700Y7902
X11800Y5802
X13092Y4738
X15061Y3950
X16800Y6902
X18998Y5525
X19200Y7102
X19200Y7702
X19000Y10202
X15000Y9102
X14470Y8596
X14155Y8124
X14600Y7502
X15061Y11824
X13446Y15250
X14234Y15958
X13092Y17730
X11517Y17730
X10294Y15744
X11242Y15131
X9300Y13602
X9300Y13002
X9300Y12302
X10730Y13006
X8250Y13950
X7000Y15002
X7100Y15702
X7700Y15886
X7913Y17782
X5100Y14029
X5100Y12902
X3400Y14802
X7777Y12376
T02
X20179Y16549
X20966Y16549
X20966Y17336
X20179Y17336
X20179Y18124
X20966Y18124
T03
X4380Y18478
X4380Y17478
X4380Y16478
X4380Y15478
X4380Y14478
X4380Y13478
X1380Y13478
X1380Y14478
X1380Y15478
X1380Y16478
X1380Y17478
X1380Y18478
T04
X6616Y18945
X7616Y18845
X8616Y18945
X9616Y18845
X10616Y18945
X11616Y18845
X13116Y18945
X14116Y18845
X15116Y18945
X16116Y18845
X17116Y18945
X18116Y18845
X21360Y14187
X21360Y13187
T05
X20572Y15643
X20572Y19029
T06
X21071Y8754
X21071Y3754
T07
X16504Y10620
X11194Y1820
X5884Y10620
T08
X11124Y20486
M30
