%
M48
M72
T01C0.0236
T02C0.0315
T03C0.0320
T04C0.0360
T05C0.0400
T06C0.0470
T07C0.0512
%
T01
X2000Y4050
X2000Y5100
X4950Y4600
X6690Y3260
X7660Y4230
X8640Y5210
X15600Y2100
X16100Y2600
X16600Y2100
X17100Y2600
X16600Y3100
X17600Y3100
X18100Y2600
X17600Y2100
X18600Y2100
X19100Y2600
X18600Y3100
X19600Y3100
X20100Y2600
X19600Y2100
X21930Y860
X10300Y12360
X5060Y16940
X6250Y17500
X6650Y18390
X7300Y18500
X6900Y18970
X5750Y19200
X5600Y18500
X4400Y19050
X3320Y20590
X3310Y21170
X3770Y22810
X4210Y23960
X5340Y23690
X5240Y22450
X7100Y20600
X8290Y20600
X9690Y21660
X10740Y21930
X10920Y23620
X10980Y24310
X10300Y25090
X9780Y25040
X9120Y25140
X8970Y24370
X8270Y23970
X9820Y25800
X8000Y25970
X13610Y21640
X15300Y21800
X15330Y22810
X14500Y23200
X14500Y24100
X17410Y22980
X17390Y21800
X18560Y19140
X16100Y19140
X13100Y18450
X12000Y19140
X11460Y18730
X19280Y13610
X19400Y12750
X24830Y12730
X25100Y16100
X2840Y16940
X1600Y21600
X1780Y24850
T02
X6850Y21600
X7600Y21600
X8350Y21600
X10600Y16600
X11600Y16600
X12600Y16600
X12600Y15600
X11600Y15600
X10600Y15600
X10600Y14600
X11600Y14600
X12600Y14600
X12600Y13600
X11600Y13600
X10600Y13600
X14600Y14600
X15600Y14600
X16600Y14600
X17600Y14600
X17600Y15600
X16600Y15600
X15600Y15600
X14600Y15600
X14600Y16600
X15600Y16600
X16600Y16600
X17600Y16600
X20600Y16600
X20600Y15600
X20600Y14600
X21600Y14600
X22600Y14600
X23600Y14600
X23600Y15600
X22600Y15600
X21600Y15600
X21600Y16600
X22600Y16600
X23600Y16600
X19100Y8100
X18100Y8100
X17100Y8100
X17100Y7100
X18100Y7100
X19100Y7100
X19100Y6100
X19100Y5100
X18100Y5100
X18100Y6100
X17100Y6100
X17100Y5100
X21600Y5100
X22600Y5100
X23600Y5100
X24600Y5100
X24600Y4100
X23600Y4100
X22600Y4100
X21600Y4100
X21600Y3100
X22600Y3100
X23600Y3100
X24600Y3100
X11600Y6600
X10600Y6600
X9600Y6600
X9600Y7600
X10600Y7600
X11600Y7600
X11600Y8600
X11600Y9600
X10600Y9600
X10600Y8600
X9600Y8600
X9600Y9600
T03
X850Y3260
X4850Y3260
X4850Y9100
X850Y9100
T04
X25100Y23600
X25100Y24600
X26590Y17510
X27590Y17510
T05
X29090Y17090
X29090Y18090
X29090Y19090
X29090Y20090
X29090Y21090
X30090Y21090
X30090Y20090
X30090Y19090
X30090Y18090
X30090Y17090
X30090Y16090
X30090Y15090
X29090Y15090
X29090Y16090
X28890Y23040
X27890Y23140
X26890Y23040
X26890Y24440
X27890Y24540
X28890Y24440
X23090Y24090
X23090Y25090
X22090Y25090
X22090Y24090
X21090Y24090
X21090Y25090
X20090Y25090
X20090Y24090
X19090Y24090
X19090Y25090
X18090Y25090
X18090Y24090
X17090Y24090
X17090Y25090
X29100Y5100
X29100Y2100
T06
X28592Y8131
X28592Y10100
X28592Y12069
T07
X3140Y11810
X3140Y13810
M30
