G75*
G70*
%OFA0B0*%
%FSLAX24Y24*%
%IPPOS*%
%LPD*%
%AMOC8*
5,1,8,0,0,1.08239X$1,22.5*
%
%ADD10R,0.0315X0.0472*%
%ADD11R,0.0709X0.0630*%
%ADD12R,0.0630X0.0709*%
%ADD13R,0.0472X0.0315*%
%ADD14R,0.0354X0.0098*%
%ADD15R,0.0800X0.2362*%
%ADD16R,0.1797X0.1969*%
%ADD17R,0.0276X0.0315*%
%ADD18R,0.1969X0.1797*%
%ADD19R,0.0315X0.0276*%
%ADD20R,0.2000X0.1380*%
D10*
X003563Y001255D03*
X004272Y001255D03*
X011510Y010980D03*
X012219Y010980D03*
D11*
X012605Y009513D03*
X012605Y008411D03*
X010034Y009899D03*
X009094Y009899D03*
X009094Y011001D03*
X010034Y011001D03*
X005494Y006751D03*
X005494Y005649D03*
X006194Y004901D03*
X006194Y003799D03*
X005394Y008649D03*
X005394Y009751D03*
D12*
X003353Y002300D03*
X004455Y002300D03*
G36*
X013085Y005781D02*
X012680Y006262D01*
X013221Y006717D01*
X013626Y006236D01*
X013085Y005781D01*
G37*
G36*
X013794Y004936D02*
X013389Y005417D01*
X013930Y005872D01*
X014335Y005391D01*
X013794Y004936D01*
G37*
X015715Y004595D03*
X016817Y004595D03*
G36*
X018520Y004870D02*
X018005Y004509D01*
X017598Y005088D01*
X018113Y005449D01*
X018520Y004870D01*
G37*
G36*
X019423Y005503D02*
X018908Y005142D01*
X018501Y005721D01*
X019016Y006082D01*
X019423Y005503D01*
G37*
X019993Y011300D03*
X019993Y012200D03*
X019993Y013250D03*
X021095Y013250D03*
X021095Y012200D03*
X021095Y011300D03*
X011595Y012550D03*
X010493Y012550D03*
D13*
X010914Y011734D03*
X010914Y011026D03*
X006394Y008904D03*
X006394Y008196D03*
X005394Y008054D03*
X005394Y007346D03*
X005184Y004974D03*
X005184Y004266D03*
X019994Y002304D03*
X020644Y002304D03*
X021294Y002304D03*
X021294Y001596D03*
X020644Y001596D03*
X019994Y001596D03*
D14*
X010539Y003793D03*
X010539Y003989D03*
X010539Y004186D03*
X010539Y004383D03*
X010539Y004580D03*
X010539Y004777D03*
X010539Y004974D03*
X010539Y005170D03*
X010539Y005367D03*
X010539Y005564D03*
X010539Y005761D03*
X010539Y005958D03*
X010539Y006155D03*
X010539Y006352D03*
X010539Y006548D03*
X010539Y006745D03*
X010539Y006942D03*
X010539Y007139D03*
X010539Y007336D03*
X010539Y007533D03*
X010539Y007730D03*
X010539Y007926D03*
X010539Y008123D03*
X010539Y008320D03*
X010539Y008517D03*
X010539Y008714D03*
X010539Y008911D03*
X010539Y009107D03*
X007350Y009107D03*
X007350Y008911D03*
X007350Y008714D03*
X007350Y008517D03*
X007350Y008320D03*
X007350Y008123D03*
X007350Y007926D03*
X007350Y007730D03*
X007350Y007533D03*
X007350Y007336D03*
X007350Y007139D03*
X007350Y006942D03*
X007350Y006745D03*
X007350Y006548D03*
X007350Y006352D03*
X007350Y006155D03*
X007350Y005958D03*
X007350Y005761D03*
X007350Y005564D03*
X007350Y005367D03*
X007350Y005170D03*
X007350Y004974D03*
X007350Y004777D03*
X007350Y004580D03*
X007350Y004383D03*
X007350Y004186D03*
X007350Y003989D03*
X007350Y003793D03*
D15*
X008944Y006450D03*
D16*
X013944Y012176D03*
X017344Y013326D03*
X008144Y015426D03*
D17*
X007875Y016822D03*
X008414Y016822D03*
X008953Y016822D03*
X007335Y016822D03*
X013135Y013572D03*
X013675Y013572D03*
X014214Y013572D03*
X014753Y013572D03*
X016535Y014722D03*
X017075Y014722D03*
X017614Y014722D03*
X018153Y014722D03*
D18*
X017371Y016350D03*
X013818Y015050D03*
X008718Y018400D03*
D19*
X007322Y018130D03*
X007322Y017591D03*
X007322Y018670D03*
X007322Y019209D03*
X012422Y015859D03*
X012422Y015320D03*
X012422Y014780D03*
X012422Y014241D03*
X018766Y015541D03*
X018766Y016080D03*
X018766Y016620D03*
X018766Y017159D03*
D20*
X020494Y016140D03*
X020494Y014510D03*
X010994Y013710D03*
X010994Y015340D03*
M02*
