%
M48
M72
T01C0.0236
T02C0.0360
T03C0.0400
T04C0.0472
T05C0.0512
%
T01
X5050Y2150
X5900Y2150
X5900Y2850
X5900Y3500
X5050Y3550
X5050Y2850
X6800Y2850
X6800Y3550
X6800Y2150
X8850Y2850
X9760Y3210
X9760Y3910
X9760Y4510
X10900Y4150
X11600Y4150
X12250Y4150
X12300Y5000
X11600Y5000
X10900Y5000
X9850Y5600
X9050Y6600
X9050Y7300
X9050Y8000
X8200Y8000
X8200Y7300
X8200Y6650
X7300Y6600
X7300Y7300
X7300Y8000
X7100Y9500
X7850Y10400
X9400Y11100
X10900Y9850
X11600Y9850
X12300Y9850
X12250Y9000
X11600Y9000
X10900Y9000
X10900Y8100
X11600Y8100
X12300Y8100
X14800Y9850
X13850Y10600
X15250Y11500
X15850Y12100
X15250Y12750
X17350Y12100
X18200Y12850
X19500Y12900
X19500Y11250
X18200Y11300
X17000Y10850
X15850Y10600
X16650Y8450
X16650Y7750
X16650Y7050
X17550Y7100
X18400Y7050
X18400Y7750
X17550Y7750
X17550Y8450
X18400Y8450
X21650Y6390
X19060Y2910
X18360Y2910
X16250Y2850
X16250Y3550
X15350Y3500
X15350Y2850
X14500Y2850
X14500Y3550
X13460Y3310
X13460Y2510
X14500Y2150
X15350Y2150
X16250Y2150
X12300Y3250
X11600Y3250
X10900Y3250
X4600Y9800
X3350Y9800
X1600Y11300
X750Y11450
X2600Y12100
X3300Y13350
X2600Y13500
X4100Y13350
X5550Y13350
X5550Y12650
X4400Y11600
X7960Y14110
X7760Y15410
X6100Y15400
X6150Y17600
X7400Y17600
X11350Y15600
X12900Y15800
X11850Y13600
X2000Y17880
T02
X14850Y15100
X14850Y14100
X17150Y14100
X17150Y15100
X19500Y15100
X19500Y14100
T03
X21050Y13600
X21050Y12600
X21050Y11600
X22050Y11600
X22050Y12600
X22050Y13600
X22050Y10600
X22050Y9600
X21050Y9600
X21050Y10600
X21050Y8600
X21050Y7600
X22050Y7600
X22050Y8600
X15050Y16600
X14050Y16600
X13050Y16600
X12050Y16600
X11050Y16600
X10050Y16600
X9050Y16600
X9050Y17600
X10050Y17600
X11050Y17600
X12050Y17600
X13050Y17600
X14050Y17600
X15050Y17600
X16350Y16950
X17350Y17050
X18350Y16950
X19850Y17050
X20850Y17150
X21850Y17050
T04
X21600Y5526
X21600Y4078
X21600Y2630
T05
X2100Y4600
X2100Y6600
M30
