G75*
G70*
%OFA0B0*%
%FSLAX24Y24*%
%IPPOS*%
%LPD*%
%AMOC8*
5,1,8,0,0,1.08239X$1,22.5*
%
%ADD10C,0.0680*%
%ADD11R,0.0710X0.0789*%
%ADD12R,0.1080X0.1080*%
%ADD13C,0.1080*%
%ADD14OC8,0.0820*%
%ADD15C,0.0820*%
%ADD16R,0.0178X0.0434*%
%ADD17R,0.2442X0.0880*%
%ADD18R,0.0635X0.0635*%
%ADD19R,0.0552X0.0395*%
%ADD20R,0.0789X0.0710*%
%ADD21R,0.0631X0.1576*%
%ADD22R,0.1460X0.2080*%
%ADD23R,0.1580X0.0900*%
%ADD24R,0.3580X0.4580*%
%ADD25R,0.0900X0.1580*%
%ADD26R,0.4580X0.3580*%
%ADD27C,0.0790*%
%ADD28OC8,0.0710*%
%ADD29C,0.0740*%
%ADD30R,0.0730X0.0730*%
%ADD31R,0.0395X0.0552*%
%ADD32R,0.0552X0.0631*%
%ADD33C,0.0516*%
D10*
X026590Y017210D02*
X026590Y017810D01*
X027590Y017810D02*
X027590Y017210D01*
X025400Y023600D02*
X024800Y023600D01*
X024800Y024600D02*
X025400Y024600D01*
D11*
X026539Y020410D03*
X026539Y019560D03*
X027641Y019560D03*
X027641Y020410D03*
X027641Y018660D03*
X026539Y018660D03*
X011851Y005200D03*
X010749Y005200D03*
X004951Y005400D03*
X003849Y005400D03*
X022679Y000850D03*
X023781Y000850D03*
X024669Y000860D03*
X025771Y000860D03*
X008151Y025000D03*
X007049Y025000D03*
X006151Y025000D03*
X005049Y025000D03*
X004201Y025000D03*
X003099Y025000D03*
D12*
X003140Y013810D03*
D13*
X003140Y011810D03*
D14*
X017090Y024090D03*
X017090Y025090D03*
X018090Y025090D03*
X018090Y024090D03*
X019090Y024090D03*
X019090Y025090D03*
X020090Y025090D03*
X020090Y024090D03*
X021090Y024090D03*
X021090Y025090D03*
X022090Y025090D03*
X022090Y024090D03*
X023090Y024090D03*
X023090Y025090D03*
X029090Y021090D03*
X029090Y020090D03*
X029090Y019090D03*
X029090Y018090D03*
X029090Y017090D03*
X029090Y016090D03*
X029090Y015090D03*
X030090Y015090D03*
X030090Y016090D03*
X030090Y017090D03*
X030090Y018090D03*
X030090Y019090D03*
X030090Y020090D03*
X030090Y021090D03*
D15*
X028890Y023040D03*
X027890Y023140D03*
X026890Y023040D03*
X026890Y024440D03*
X027890Y024540D03*
X028890Y024440D03*
D16*
X010257Y023194D03*
X010061Y023194D03*
X009864Y023194D03*
X009667Y023194D03*
X009470Y023194D03*
X009273Y023194D03*
X009076Y023194D03*
X008880Y023194D03*
X008683Y023194D03*
X008486Y023194D03*
X008289Y023194D03*
X008092Y023194D03*
X007895Y023194D03*
X007698Y023194D03*
X007502Y023194D03*
X007305Y023194D03*
X007108Y023194D03*
X006911Y023194D03*
X006714Y023194D03*
X006517Y023194D03*
X006320Y023194D03*
X006124Y023194D03*
X005927Y023194D03*
X005730Y023194D03*
X005533Y023194D03*
X005336Y023194D03*
X005139Y023194D03*
X004943Y023194D03*
X004943Y020006D03*
X005139Y020006D03*
X005336Y020006D03*
X005533Y020006D03*
X005730Y020006D03*
X005927Y020006D03*
X006124Y020006D03*
X006320Y020006D03*
X006517Y020006D03*
X006714Y020006D03*
X006911Y020006D03*
X007108Y020006D03*
X007305Y020006D03*
X007502Y020006D03*
X007698Y020006D03*
X007895Y020006D03*
X008092Y020006D03*
X008289Y020006D03*
X008486Y020006D03*
X008683Y020006D03*
X008880Y020006D03*
X009076Y020006D03*
X009273Y020006D03*
X009470Y020006D03*
X009667Y020006D03*
X009864Y020006D03*
X010061Y020006D03*
X010257Y020006D03*
D17*
X007600Y021600D03*
D18*
X007600Y021600D03*
X008350Y021600D03*
X006850Y021600D03*
X010600Y016600D03*
X011600Y016600D03*
X012600Y016600D03*
X012600Y015600D03*
X011600Y015600D03*
X010600Y015600D03*
X010600Y014600D03*
X011600Y014600D03*
X012600Y014600D03*
X012600Y013600D03*
X011600Y013600D03*
X010600Y013600D03*
X014600Y014600D03*
X015600Y014600D03*
X016600Y014600D03*
X017600Y014600D03*
X017600Y015600D03*
X016600Y015600D03*
X015600Y015600D03*
X014600Y015600D03*
X014600Y016600D03*
X015600Y016600D03*
X016600Y016600D03*
X017600Y016600D03*
X020600Y016600D03*
X020600Y015600D03*
X020600Y014600D03*
X021600Y014600D03*
X022600Y014600D03*
X023600Y014600D03*
X023600Y015600D03*
X022600Y015600D03*
X021600Y015600D03*
X021600Y016600D03*
X022600Y016600D03*
X023600Y016600D03*
X019100Y008100D03*
X018100Y008100D03*
X017100Y008100D03*
X017100Y007100D03*
X018100Y007100D03*
X019100Y007100D03*
X019100Y006100D03*
X019100Y005100D03*
X018100Y005100D03*
X018100Y006100D03*
X017100Y006100D03*
X017100Y005100D03*
X021600Y005100D03*
X022600Y005100D03*
X023600Y005100D03*
X024600Y005100D03*
X024600Y004100D03*
X023600Y004100D03*
X022600Y004100D03*
X021600Y004100D03*
X021600Y003100D03*
X022600Y003100D03*
X023600Y003100D03*
X024600Y003100D03*
X011600Y006600D03*
X010600Y006600D03*
X009600Y006600D03*
X009600Y007600D03*
X010600Y007600D03*
X011600Y007600D03*
X011600Y008600D03*
X011600Y009600D03*
X010600Y009600D03*
X010600Y008600D03*
X009600Y008600D03*
X009600Y009600D03*
D19*
X010250Y018496D03*
X010250Y019204D03*
X012900Y022046D03*
X012900Y022754D03*
X014460Y024886D03*
X014460Y025594D03*
X003100Y023954D03*
X002450Y023954D03*
X002450Y023246D03*
X003100Y023246D03*
X001770Y023244D03*
X001770Y022536D03*
D20*
X012000Y021051D03*
X013100Y021051D03*
X013100Y019949D03*
X012000Y019949D03*
X015300Y019949D03*
X015300Y021051D03*
X016450Y021051D03*
X016450Y019949D03*
X015300Y023549D03*
X015300Y024651D03*
X013600Y024651D03*
X013600Y023549D03*
X012200Y023549D03*
X012200Y024651D03*
D21*
X020100Y022281D03*
X020100Y019919D03*
X023600Y019919D03*
X023600Y022281D03*
D22*
X004390Y007100D03*
X002760Y007100D03*
X011260Y003600D03*
X012890Y003600D03*
D23*
X013600Y005600D03*
X013600Y007600D03*
X006100Y007100D03*
X006100Y009100D03*
X007100Y014100D03*
X007100Y016100D03*
D24*
X011600Y015100D03*
X010600Y008100D03*
X018100Y006600D03*
D25*
X022100Y008600D03*
X024100Y008600D03*
X023100Y011100D03*
X021100Y011100D03*
X017100Y011100D03*
X015100Y011100D03*
D26*
X016100Y015600D03*
X022100Y015600D03*
X023100Y004100D03*
D27*
X028237Y008131D02*
X028947Y008131D01*
X028947Y010100D02*
X028237Y010100D01*
X028237Y012069D02*
X028947Y012069D01*
D28*
X000850Y003260D03*
X004850Y003260D03*
X004850Y009100D03*
X000850Y009100D03*
D29*
X029100Y002100D03*
D30*
X029100Y005100D03*
D31*
X011314Y025600D03*
X010606Y025600D03*
D32*
X012009Y025600D03*
X013191Y025600D03*
D33*
X014500Y024100D03*
X014500Y023200D03*
X015330Y022810D03*
X015300Y021800D03*
X013610Y021640D03*
X010920Y023620D03*
X010980Y024310D03*
X010300Y025090D03*
X009780Y025040D03*
X009120Y025140D03*
X008970Y024370D03*
X008270Y023970D03*
X009820Y025800D03*
X008000Y025970D03*
X005340Y023690D03*
X004210Y023960D03*
X003770Y022810D03*
X005240Y022450D03*
X003310Y021170D03*
X003320Y020590D03*
X004400Y019050D03*
X005600Y018500D03*
X005750Y019200D03*
X006650Y018390D03*
X007300Y018500D03*
X006900Y018970D03*
X006250Y017500D03*
X005060Y016940D03*
X002840Y016940D03*
X007100Y020600D03*
X008290Y020600D03*
X009690Y021660D03*
X010740Y021930D03*
X012000Y019140D03*
X011460Y018730D03*
X013100Y018450D03*
X016100Y019140D03*
X018560Y019140D03*
X017390Y021800D03*
X017410Y022980D03*
X025100Y016100D03*
X024830Y012730D03*
X019400Y012750D03*
X019280Y013610D03*
X010300Y012360D03*
X008640Y005210D03*
X007660Y004230D03*
X006690Y003260D03*
X004950Y004600D03*
X002000Y005100D03*
X002000Y004050D03*
X015600Y002100D03*
X016100Y002600D03*
X016600Y002100D03*
X017100Y002600D03*
X016600Y003100D03*
X017600Y003100D03*
X018100Y002600D03*
X017600Y002100D03*
X018600Y002100D03*
X019100Y002600D03*
X018600Y003100D03*
X019600Y003100D03*
X020100Y002600D03*
X019600Y002100D03*
X021930Y000860D03*
X001600Y021600D03*
X001780Y024850D03*
M02*
