G75*
G70*
%OFA0B0*%
%FSLAX24Y24*%
%IPPOS*%
%LPD*%
%AMOC8*
5,1,8,0,0,1.08239X$1,22.5*
%
%ADD10C,0.0600*%
%ADD11R,0.1000X0.1000*%
%ADD12C,0.1000*%
%ADD13R,0.0315X0.0472*%
%ADD14R,0.0709X0.0630*%
%ADD15R,0.0630X0.0709*%
%ADD16R,0.0472X0.0315*%
%ADD17C,0.0660*%
%ADD18R,0.0650X0.0650*%
%ADD19OC8,0.0740*%
%ADD20C,0.0634*%
%ADD21R,0.0354X0.0098*%
%ADD22R,0.0800X0.2362*%
%ADD23R,0.0555X0.0555*%
%ADD24R,0.1797X0.1969*%
%ADD25R,0.0276X0.0315*%
%ADD26C,0.0437*%
%ADD27R,0.1969X0.1797*%
%ADD28R,0.0315X0.0276*%
%ADD29C,0.0650*%
%ADD30R,0.2000X0.1380*%
%ADD31C,0.0555*%
%ADD32C,0.0740*%
%ADD33R,0.0800X0.0800*%
%ADD34C,0.0800*%
%ADD35C,0.0160*%
%ADD36C,0.0100*%
%ADD37C,0.0397*%
%ADD38C,0.0120*%
%ADD39C,0.0436*%
D10*
X005404Y015920D02*
X006004Y015920D01*
X006004Y016920D02*
X005404Y016920D01*
D11*
X003894Y013970D03*
D12*
X003894Y011970D03*
D13*
X011510Y010980D03*
X012219Y010980D03*
X004272Y001255D03*
X003563Y001255D03*
D14*
X006194Y003799D03*
X006194Y004901D03*
X005494Y005649D03*
X005494Y006751D03*
X005394Y008649D03*
X005394Y009751D03*
X009094Y009899D03*
X010034Y009899D03*
X010034Y011001D03*
X009094Y011001D03*
X012605Y009513D03*
X012605Y008411D03*
D15*
G36*
X013085Y005781D02*
X012680Y006262D01*
X013221Y006717D01*
X013626Y006236D01*
X013085Y005781D01*
G37*
G36*
X013794Y004936D02*
X013389Y005417D01*
X013930Y005872D01*
X014335Y005391D01*
X013794Y004936D01*
G37*
X015715Y004595D03*
X016817Y004595D03*
G36*
X018520Y004870D02*
X018005Y004509D01*
X017598Y005088D01*
X018113Y005449D01*
X018520Y004870D01*
G37*
G36*
X019423Y005503D02*
X018908Y005142D01*
X018501Y005721D01*
X019016Y006082D01*
X019423Y005503D01*
G37*
X019993Y011300D03*
X019993Y012200D03*
X019993Y013250D03*
X021095Y013250D03*
X021095Y012200D03*
X021095Y011300D03*
X011595Y012550D03*
X010493Y012550D03*
X004455Y002300D03*
X003353Y002300D03*
D16*
X005184Y004266D03*
X005184Y004974D03*
X005394Y007346D03*
X005394Y008054D03*
X006394Y008196D03*
X006394Y008904D03*
X010914Y011026D03*
X010914Y011734D03*
X019994Y002304D03*
X020644Y002304D03*
X021294Y002304D03*
X021294Y001596D03*
X020644Y001596D03*
X019994Y001596D03*
D17*
X017744Y008200D03*
D18*
X014744Y008200D03*
X007894Y010500D03*
X007894Y012961D03*
D19*
X004244Y010000D03*
X003244Y010000D03*
X003244Y009000D03*
X003244Y008000D03*
X003244Y007000D03*
X003244Y006000D03*
X003244Y005000D03*
X003244Y004000D03*
X004244Y004000D03*
X004244Y005000D03*
X004244Y006000D03*
X004244Y007000D03*
X004244Y008000D03*
X004244Y009000D03*
X020244Y009000D03*
X020244Y008000D03*
X020244Y007000D03*
X020244Y006000D03*
X020244Y005000D03*
X020244Y004000D03*
X021244Y004000D03*
X021244Y005000D03*
X021244Y006000D03*
X021244Y007000D03*
X021244Y008000D03*
X021244Y009000D03*
X021244Y010000D03*
X020244Y010000D03*
D20*
X004061Y015800D02*
X003427Y015800D01*
X003427Y016800D02*
X004061Y016800D01*
D21*
X007350Y009107D03*
X007350Y008911D03*
X007350Y008714D03*
X007350Y008517D03*
X007350Y008320D03*
X007350Y008123D03*
X007350Y007926D03*
X007350Y007730D03*
X007350Y007533D03*
X007350Y007336D03*
X007350Y007139D03*
X007350Y006942D03*
X007350Y006745D03*
X007350Y006548D03*
X007350Y006352D03*
X007350Y006155D03*
X007350Y005958D03*
X007350Y005761D03*
X007350Y005564D03*
X007350Y005367D03*
X007350Y005170D03*
X007350Y004974D03*
X007350Y004777D03*
X007350Y004580D03*
X007350Y004383D03*
X007350Y004186D03*
X007350Y003989D03*
X007350Y003793D03*
X010539Y003793D03*
X010539Y003989D03*
X010539Y004186D03*
X010539Y004383D03*
X010539Y004580D03*
X010539Y004777D03*
X010539Y004974D03*
X010539Y005170D03*
X010539Y005367D03*
X010539Y005564D03*
X010539Y005761D03*
X010539Y005958D03*
X010539Y006155D03*
X010539Y006352D03*
X010539Y006548D03*
X010539Y006745D03*
X010539Y006942D03*
X010539Y007139D03*
X010539Y007336D03*
X010539Y007533D03*
X010539Y007730D03*
X010539Y007926D03*
X010539Y008123D03*
X010539Y008320D03*
X010539Y008517D03*
X010539Y008714D03*
X010539Y008911D03*
X010539Y009107D03*
D22*
X008944Y006450D03*
D23*
X008944Y006450D03*
X008944Y005700D03*
X008944Y007200D03*
D24*
X013944Y012176D03*
X017344Y013326D03*
X008144Y015426D03*
D25*
X007875Y016822D03*
X008414Y016822D03*
X008953Y016822D03*
X007335Y016822D03*
X013135Y013572D03*
X013675Y013572D03*
X014214Y013572D03*
X014753Y013572D03*
X016535Y014722D03*
X017075Y014722D03*
X017614Y014722D03*
X018153Y014722D03*
D26*
X017956Y014031D03*
X017344Y014031D03*
X016733Y014031D03*
X016733Y013359D03*
X017344Y013359D03*
X017344Y012686D03*
X016733Y012686D03*
X017956Y012686D03*
X017956Y013359D03*
X018075Y015738D03*
X018075Y016350D03*
X018075Y016962D03*
X017403Y016962D03*
X016731Y016962D03*
X016731Y016350D03*
X016731Y015738D03*
X017403Y015738D03*
X017403Y016350D03*
X014458Y015662D03*
X013786Y015662D03*
X013786Y015050D03*
X013786Y014438D03*
X014458Y014438D03*
X014458Y015050D03*
X013113Y015050D03*
X013113Y014438D03*
X013113Y015662D03*
X013333Y012881D03*
X013944Y012881D03*
X014556Y012881D03*
X014556Y012209D03*
X013944Y012209D03*
X013333Y012209D03*
X013333Y011536D03*
X013944Y011536D03*
X014556Y011536D03*
X008756Y014786D03*
X008144Y014786D03*
X007533Y014786D03*
X007533Y015459D03*
X007533Y016131D03*
X008144Y016131D03*
X008756Y016131D03*
X008756Y015459D03*
X008144Y015459D03*
X008013Y017788D03*
X008013Y018400D03*
X008013Y019012D03*
X008686Y019012D03*
X008686Y018400D03*
X008686Y017788D03*
X009358Y017788D03*
X009358Y018400D03*
X009358Y019012D03*
D27*
X008718Y018400D03*
X013818Y015050D03*
X017371Y016350D03*
D28*
X018766Y016080D03*
X018766Y015541D03*
X018766Y016620D03*
X018766Y017159D03*
X012422Y015859D03*
X012422Y015320D03*
X012422Y014780D03*
X012422Y014241D03*
X007322Y017591D03*
X007322Y018130D03*
X007322Y018670D03*
X007322Y019209D03*
D29*
X006894Y012961D03*
X006894Y010500D03*
D30*
X010994Y013710D03*
X010994Y015340D03*
X020494Y016140D03*
X020494Y014510D03*
D31*
X020494Y014200D03*
X021124Y014190D03*
X021124Y014850D03*
X020494Y014850D03*
X019844Y014850D03*
X019844Y014200D03*
X019844Y015750D03*
X019844Y016400D03*
X020494Y016400D03*
X020494Y015750D03*
X021144Y015750D03*
X021144Y016400D03*
X011644Y015600D03*
X011644Y014950D03*
X010994Y014950D03*
X010344Y014950D03*
X010344Y015600D03*
X010994Y015600D03*
X010994Y014050D03*
X010344Y014050D03*
X010344Y013400D03*
X010994Y013400D03*
X011624Y013390D03*
X011624Y014050D03*
D32*
X013544Y003200D03*
X014544Y003200D03*
X015544Y003200D03*
X016794Y003200D03*
X017794Y003200D03*
X018794Y003200D03*
D33*
X015044Y018800D03*
D34*
X013076Y018800D03*
X011107Y018800D03*
D35*
X011059Y018848D02*
X011059Y018752D01*
X010528Y018752D01*
X010542Y018664D01*
X010570Y018577D01*
X010611Y018496D01*
X010665Y018422D01*
X010729Y018358D01*
X010803Y018304D01*
X010885Y018262D01*
X010971Y018234D01*
X011059Y018220D01*
X011059Y018752D01*
X011155Y018752D01*
X011155Y018220D01*
X011243Y018234D01*
X011330Y018262D01*
X011411Y018304D01*
X011485Y018358D01*
X011550Y018422D01*
X011603Y018496D01*
X011645Y018577D01*
X011673Y018664D01*
X011687Y018752D01*
X011155Y018752D01*
X011155Y018848D01*
X011059Y018848D01*
X010528Y018848D01*
X010542Y018936D01*
X010570Y019023D01*
X010611Y019104D01*
X010665Y019178D01*
X010729Y019242D01*
X010803Y019296D01*
X010885Y019338D01*
X010971Y019366D01*
X011059Y019380D01*
X011059Y018848D01*
X011059Y018886D02*
X011155Y018886D01*
X011155Y018848D02*
X011155Y019380D01*
X011243Y019366D01*
X011330Y019338D01*
X011411Y019296D01*
X011485Y019242D01*
X011550Y019178D01*
X011603Y019104D01*
X011645Y019023D01*
X011673Y018936D01*
X011687Y018848D01*
X011155Y018848D01*
X011155Y018728D02*
X011059Y018728D01*
X011059Y018569D02*
X011155Y018569D01*
X011155Y018411D02*
X011059Y018411D01*
X011059Y018252D02*
X011155Y018252D01*
X011298Y018252D02*
X012521Y018252D01*
X012415Y018358D02*
X012634Y018139D01*
X012889Y018033D01*
X012884Y016630D01*
X009361Y016630D01*
X009258Y016733D01*
X009119Y016791D01*
X007853Y016791D01*
X007853Y017055D01*
X007795Y017195D01*
X007777Y017213D01*
X007802Y017238D01*
X007860Y017378D01*
X007860Y017804D01*
X007836Y017861D01*
X007860Y017917D01*
X007860Y018344D01*
X007836Y018400D01*
X007860Y018456D01*
X007860Y018883D01*
X007836Y018939D01*
X007860Y018996D01*
X007860Y019422D01*
X007802Y019562D01*
X007743Y019621D01*
X007744Y019770D01*
X012894Y019770D01*
X012893Y019569D01*
X012634Y019461D01*
X012415Y019242D01*
X012296Y018955D01*
X012296Y018645D01*
X012415Y018358D01*
X012393Y018411D02*
X011538Y018411D01*
X011641Y018569D02*
X012327Y018569D01*
X012296Y018728D02*
X011683Y018728D01*
X011681Y018886D02*
X012296Y018886D01*
X012333Y019045D02*
X011634Y019045D01*
X011525Y019203D02*
X012398Y019203D01*
X012534Y019362D02*
X011256Y019362D01*
X011155Y019362D02*
X011059Y019362D01*
X010959Y019362D02*
X007860Y019362D01*
X007860Y019203D02*
X010690Y019203D01*
X010581Y019045D02*
X007860Y019045D01*
X007859Y018886D02*
X010534Y018886D01*
X010532Y018728D02*
X007860Y018728D01*
X007860Y018569D02*
X010574Y018569D01*
X010677Y018411D02*
X007841Y018411D01*
X007860Y018252D02*
X010917Y018252D01*
X011059Y019045D02*
X011155Y019045D01*
X011155Y019203D02*
X011059Y019203D01*
X012776Y019520D02*
X007819Y019520D01*
X007743Y019679D02*
X012893Y019679D01*
X013353Y019570D02*
X018444Y019570D01*
X018444Y017640D01*
X018394Y017619D01*
X018287Y017512D01*
X018229Y017372D01*
X018229Y017185D01*
X018204Y017161D01*
X018134Y016991D01*
X018134Y015258D01*
X018204Y015089D01*
X018334Y014960D01*
X018444Y014914D01*
X018444Y014639D01*
X018319Y014691D01*
X017053Y014691D01*
X017053Y014955D01*
X016995Y015095D01*
X016888Y015202D01*
X016749Y015260D01*
X016322Y015260D01*
X016194Y015207D01*
X016194Y016500D01*
X015081Y016500D01*
X014936Y016560D01*
X013344Y016560D01*
X013344Y016629D01*
X013349Y018069D01*
X013518Y018139D01*
X013737Y018358D01*
X013856Y018645D01*
X013856Y018955D01*
X013737Y019242D01*
X013518Y019461D01*
X013353Y019529D01*
X013353Y019570D01*
X013376Y019520D02*
X018444Y019520D01*
X018444Y019362D02*
X015525Y019362D01*
X015514Y019368D02*
X015468Y019380D01*
X015092Y019380D01*
X015092Y018848D01*
X014996Y018848D01*
X014996Y018752D01*
X014464Y018752D01*
X014464Y018376D01*
X014477Y018331D01*
X014500Y018289D01*
X014534Y018256D01*
X014575Y018232D01*
X014621Y018220D01*
X014996Y018220D01*
X014996Y018752D01*
X015092Y018752D01*
X015092Y018220D01*
X015468Y018220D01*
X015514Y018232D01*
X015555Y018256D01*
X015588Y018289D01*
X015612Y018331D01*
X015624Y018376D01*
X015624Y018752D01*
X015092Y018752D01*
X015092Y018848D01*
X015624Y018848D01*
X015624Y019224D01*
X015612Y019269D01*
X015588Y019311D01*
X015555Y019344D01*
X015514Y019368D01*
X015624Y019203D02*
X018444Y019203D01*
X018444Y019045D02*
X015624Y019045D01*
X015624Y018886D02*
X018444Y018886D01*
X018444Y018728D02*
X015624Y018728D01*
X015624Y018569D02*
X018444Y018569D01*
X018444Y018411D02*
X015624Y018411D01*
X015548Y018252D02*
X018444Y018252D01*
X018444Y018094D02*
X013408Y018094D01*
X013348Y017935D02*
X018444Y017935D01*
X018444Y017777D02*
X013348Y017777D01*
X013347Y017618D02*
X018393Y017618D01*
X018265Y017460D02*
X013347Y017460D01*
X013346Y017301D02*
X018229Y017301D01*
X018197Y017143D02*
X013346Y017143D01*
X013345Y016984D02*
X018134Y016984D01*
X018134Y016826D02*
X013345Y016826D01*
X013344Y016667D02*
X018134Y016667D01*
X018134Y016509D02*
X015060Y016509D01*
X014844Y016100D02*
X013055Y016100D01*
X013149Y014605D01*
X013154Y014591D01*
X013154Y014514D01*
X013159Y014437D01*
X013154Y014423D01*
X013154Y014408D01*
X013125Y014337D01*
X013100Y014264D01*
X013090Y014253D01*
X013084Y014239D01*
X013030Y014185D01*
X012979Y014127D01*
X012965Y014121D01*
X012960Y014115D01*
X012960Y014110D01*
X013349Y014110D01*
X013488Y014052D01*
X013595Y013945D01*
X013653Y013805D01*
X013653Y013541D01*
X014844Y013541D01*
X014844Y016100D01*
X014844Y016033D02*
X013059Y016033D01*
X013069Y015875D02*
X014844Y015875D01*
X014844Y015716D02*
X013079Y015716D01*
X013089Y015558D02*
X014844Y015558D01*
X014844Y015399D02*
X013099Y015399D01*
X013109Y015241D02*
X014844Y015241D01*
X014844Y015082D02*
X013119Y015082D01*
X013129Y014924D02*
X014844Y014924D01*
X014844Y014765D02*
X013139Y014765D01*
X013149Y014607D02*
X014844Y014607D01*
X014844Y014448D02*
X013158Y014448D01*
X013108Y014290D02*
X014844Y014290D01*
X014844Y014131D02*
X012982Y014131D01*
X013567Y013973D02*
X014844Y013973D01*
X014844Y013814D02*
X013649Y013814D01*
X013653Y013656D02*
X014844Y013656D01*
X016194Y015241D02*
X016276Y015241D01*
X016194Y015399D02*
X018134Y015399D01*
X018134Y015558D02*
X016194Y015558D01*
X016194Y015716D02*
X018134Y015716D01*
X018134Y015875D02*
X016194Y015875D01*
X016194Y016033D02*
X018134Y016033D01*
X018134Y016192D02*
X016194Y016192D01*
X016194Y016350D02*
X018134Y016350D01*
X018735Y016350D02*
X021644Y016350D01*
X021644Y016192D02*
X018735Y016192D01*
X018735Y016033D02*
X021644Y016033D01*
X021644Y015875D02*
X018735Y015875D01*
X018735Y015716D02*
X021644Y015716D01*
X021570Y015580D02*
X019419Y015580D01*
X019279Y015522D01*
X019172Y015415D01*
X019145Y015350D01*
X018724Y015350D01*
X018735Y015376D01*
X018735Y016641D01*
X018999Y016641D01*
X019139Y016699D01*
X019246Y016806D01*
X019285Y016900D01*
X021644Y016900D01*
X021644Y015549D01*
X021570Y015580D01*
X021624Y015558D02*
X021644Y015558D01*
X021644Y016509D02*
X018735Y016509D01*
X019062Y016667D02*
X021644Y016667D01*
X021644Y016826D02*
X019254Y016826D01*
X019364Y015558D02*
X018735Y015558D01*
X018735Y015399D02*
X019165Y015399D01*
X018444Y014765D02*
X017053Y014765D01*
X017053Y014924D02*
X018422Y014924D01*
X018212Y015082D02*
X017000Y015082D01*
X016795Y015241D02*
X018142Y015241D01*
X021018Y012123D02*
X021173Y012123D01*
X021173Y012277D01*
X021590Y012277D01*
X021590Y012578D01*
X021578Y012624D01*
X021560Y012655D01*
X021569Y012658D01*
X021648Y012737D01*
X021690Y012840D01*
X021690Y013079D01*
X021844Y013233D01*
X021844Y009319D01*
X021593Y009571D01*
X021794Y009772D01*
X021794Y009980D01*
X021264Y009980D01*
X021264Y010020D01*
X021224Y010020D01*
X021224Y009980D01*
X020694Y009980D01*
X020264Y009980D01*
X020264Y010020D01*
X021224Y010020D01*
X021224Y010550D01*
X021016Y010550D01*
X020744Y010278D01*
X020610Y010412D01*
X020631Y010420D01*
X020731Y010520D01*
X020824Y010613D01*
X020874Y010734D01*
X020874Y010766D01*
X021018Y010766D01*
X021018Y011223D01*
X021173Y011223D01*
X021173Y011377D01*
X021590Y011377D01*
X021590Y011678D01*
X021578Y011724D01*
X021563Y011750D01*
X021578Y011776D01*
X021590Y011822D01*
X021590Y012123D01*
X021173Y012123D01*
X021173Y011834D01*
X021173Y011377D01*
X021018Y011377D01*
X021018Y012123D01*
X021018Y012071D02*
X021173Y012071D01*
X021173Y012229D02*
X021844Y012229D01*
X021844Y012071D02*
X021590Y012071D01*
X021590Y011912D02*
X021844Y011912D01*
X021844Y011754D02*
X021565Y011754D01*
X021590Y011595D02*
X021844Y011595D01*
X021844Y011437D02*
X021590Y011437D01*
X021590Y011223D02*
X021173Y011223D01*
X021173Y010766D01*
X021434Y010766D01*
X021480Y010778D01*
X021521Y010802D01*
X021554Y010835D01*
X021578Y010876D01*
X021590Y010922D01*
X021590Y011223D01*
X021590Y011120D02*
X021844Y011120D01*
X021844Y011278D02*
X021173Y011278D01*
X021173Y011120D02*
X021018Y011120D01*
X021018Y010961D02*
X021173Y010961D01*
X021173Y010803D02*
X021018Y010803D01*
X020837Y010644D02*
X021844Y010644D01*
X021844Y010486D02*
X021537Y010486D01*
X021472Y010550D02*
X021264Y010550D01*
X021264Y010020D01*
X021794Y010020D01*
X021794Y010228D01*
X021472Y010550D01*
X021264Y010486D02*
X021224Y010486D01*
X021224Y010327D02*
X021264Y010327D01*
X021264Y010169D02*
X021224Y010169D01*
X021224Y010010D02*
X020264Y010010D01*
X020224Y010010D02*
X018971Y010010D01*
X018813Y009852D02*
X019694Y009852D01*
X019694Y009772D02*
X019694Y009980D01*
X020224Y009980D01*
X020224Y010020D01*
X019694Y010020D01*
X019694Y010228D01*
X019836Y010370D01*
X019331Y010370D01*
X018431Y009470D01*
X018310Y009420D01*
X017841Y009420D01*
X017765Y009344D01*
X017731Y009330D01*
X019655Y009330D01*
X019896Y009571D01*
X019694Y009772D01*
X019773Y009693D02*
X018654Y009693D01*
X018496Y009535D02*
X019860Y009535D01*
X019701Y009376D02*
X017797Y009376D01*
X017744Y008200D02*
X018444Y008200D01*
X018994Y007650D01*
X018994Y005650D01*
X019044Y005600D01*
X020264Y004020D02*
X021224Y004020D01*
X021224Y003980D01*
X020794Y003980D01*
X020264Y003980D01*
X020264Y004020D01*
X020264Y003987D02*
X021224Y003987D01*
X021788Y009376D02*
X021844Y009376D01*
X021844Y009535D02*
X021629Y009535D01*
X021715Y009693D02*
X021844Y009693D01*
X021844Y009852D02*
X021794Y009852D01*
X021844Y010010D02*
X021264Y010010D01*
X021695Y010327D02*
X021844Y010327D01*
X021844Y010169D02*
X021794Y010169D01*
X021844Y010803D02*
X021522Y010803D01*
X021590Y010961D02*
X021844Y010961D01*
X021173Y011437D02*
X021018Y011437D01*
X021018Y011595D02*
X021173Y011595D01*
X021173Y011754D02*
X021018Y011754D01*
X021018Y011912D02*
X021173Y011912D01*
X021590Y012388D02*
X021844Y012388D01*
X021844Y012546D02*
X021590Y012546D01*
X021615Y012705D02*
X021844Y012705D01*
X021844Y012863D02*
X021690Y012863D01*
X021690Y013022D02*
X021844Y013022D01*
X021844Y013180D02*
X021791Y013180D01*
X020952Y010486D02*
X020697Y010486D01*
X020695Y010327D02*
X020794Y010327D01*
X019794Y010327D02*
X019288Y010327D01*
X019130Y010169D02*
X019694Y010169D01*
X013605Y004120D02*
X013507Y004080D01*
X013415Y003987D01*
X012948Y003987D01*
X013081Y004120D02*
X012731Y003770D01*
X012610Y003720D01*
X011679Y003720D01*
X011642Y003735D01*
X011642Y003701D01*
X011592Y003580D01*
X012810Y003580D01*
X012931Y003530D01*
X012964Y003497D01*
X012993Y003568D01*
X013176Y003751D01*
X013240Y003777D01*
X013265Y003837D01*
X013357Y003930D01*
X013415Y003987D01*
X013261Y003829D02*
X012790Y003829D01*
X013095Y003670D02*
X011630Y003670D01*
X012949Y003512D02*
X012970Y003512D01*
X013081Y004120D02*
X013605Y004120D01*
X009564Y004836D02*
X009176Y004448D01*
X009073Y004406D01*
X008939Y004271D01*
X008866Y004095D01*
X008866Y003905D01*
X008939Y003729D01*
X009073Y003594D01*
X009108Y003580D01*
X008824Y003580D01*
X008824Y004916D01*
X008774Y005037D01*
X008722Y005089D01*
X008864Y005089D01*
X008864Y006370D01*
X008471Y006370D01*
X008450Y006421D01*
X008315Y006556D01*
X008139Y006628D01*
X007949Y006628D01*
X007807Y006570D01*
X007807Y006653D01*
X007807Y006850D01*
X007769Y006942D01*
X007807Y007034D01*
X007807Y007244D01*
X007774Y007324D01*
X007949Y007252D01*
X008139Y007252D01*
X008315Y007324D01*
X008364Y007373D01*
X008364Y006530D01*
X008864Y006530D01*
X008864Y006370D01*
X009024Y006370D01*
X009024Y005089D01*
X009264Y005089D01*
X009289Y005029D01*
X009423Y004894D01*
X009564Y004836D01*
X009507Y004780D02*
X008824Y004780D01*
X008815Y004938D02*
X009380Y004938D01*
X009349Y004621D02*
X008824Y004621D01*
X008824Y004463D02*
X009190Y004463D01*
X008972Y004304D02*
X008824Y004304D01*
X008824Y004146D02*
X008887Y004146D01*
X008866Y003987D02*
X008824Y003987D01*
X008824Y003829D02*
X008898Y003829D01*
X008824Y003670D02*
X008998Y003670D01*
X008164Y003522D02*
X008164Y003284D01*
X008208Y003178D01*
X006960Y003178D01*
X007001Y003240D01*
X007024Y003263D01*
X007037Y003294D01*
X007055Y003322D01*
X007062Y003354D01*
X007074Y003384D01*
X007074Y003418D01*
X007081Y003450D01*
X007074Y003483D01*
X007074Y003563D01*
X007093Y003582D01*
X007103Y003576D01*
X007149Y003563D01*
X007350Y003563D01*
X007551Y003563D01*
X007596Y003576D01*
X007638Y003599D01*
X007671Y003633D01*
X007695Y003674D01*
X007705Y003713D01*
X007823Y003594D01*
X007999Y003522D01*
X008164Y003522D01*
X008164Y003512D02*
X007074Y003512D01*
X007062Y003353D02*
X008164Y003353D01*
X008202Y003195D02*
X006971Y003195D01*
X007350Y003563D02*
X007350Y003659D01*
X007350Y003563D01*
X007350Y003659D02*
X007350Y003659D01*
X007693Y003670D02*
X007748Y003670D01*
X008864Y005097D02*
X009024Y005097D01*
X009024Y005255D02*
X008864Y005255D01*
X008864Y005414D02*
X009024Y005414D01*
X009024Y005572D02*
X008864Y005572D01*
X008864Y005731D02*
X009024Y005731D01*
X009024Y005889D02*
X008864Y005889D01*
X008864Y006048D02*
X009024Y006048D01*
X009024Y006206D02*
X008864Y006206D01*
X008864Y006365D02*
X009024Y006365D01*
X009024Y006370D02*
X009294Y006370D01*
X009276Y006415D01*
X009276Y006530D01*
X009024Y006530D01*
X008864Y006530D01*
X008864Y007811D01*
X008523Y007811D01*
X008523Y007825D01*
X008450Y008001D01*
X008315Y008136D01*
X008139Y008208D01*
X007949Y008208D01*
X007807Y008150D01*
X007807Y009212D01*
X007764Y009315D01*
X007686Y009394D01*
X007583Y009437D01*
X007117Y009437D01*
X007051Y009410D01*
X007024Y009437D01*
X006931Y009530D01*
X006810Y009580D01*
X005929Y009580D01*
X005929Y009674D01*
X005472Y009674D01*
X005472Y009829D01*
X005317Y009829D01*
X005317Y010246D01*
X005016Y010246D01*
X004971Y010234D01*
X004929Y010210D01*
X004896Y010177D01*
X004872Y010136D01*
X004860Y010090D01*
X004860Y009829D01*
X005317Y009829D01*
X005317Y009674D01*
X004860Y009674D01*
X004860Y009530D01*
X004829Y009530D01*
X004707Y009480D01*
X004696Y009468D01*
X004593Y009571D01*
X004794Y009772D01*
X004794Y009980D01*
X004264Y009980D01*
X004264Y010020D01*
X004224Y010020D01*
X004224Y009980D01*
X003694Y009980D01*
X003264Y009980D01*
X003264Y010020D01*
X003224Y010020D01*
X003224Y010550D01*
X003074Y010550D01*
X003074Y015450D01*
X003104Y015421D01*
X003167Y015375D01*
X003237Y015340D01*
X003311Y015315D01*
X003388Y015303D01*
X003726Y015303D01*
X003726Y015782D01*
X003763Y015782D01*
X003763Y015818D01*
X004558Y015818D01*
X004558Y015839D01*
X004546Y015916D01*
X004522Y015991D01*
X004498Y016037D01*
X004839Y015696D01*
X004891Y015645D01*
X004913Y015591D01*
X005076Y015428D01*
X005289Y015340D01*
X006120Y015340D01*
X006333Y015428D01*
X006496Y015591D01*
X006584Y015805D01*
X006584Y015922D01*
X006639Y015922D01*
X006664Y015932D01*
X006664Y015327D01*
X006539Y015378D01*
X006349Y015378D01*
X006173Y015306D01*
X006039Y015171D01*
X005966Y014995D01*
X005966Y014805D01*
X006039Y014629D01*
X006173Y014494D01*
X006349Y014422D01*
X006539Y014422D01*
X006715Y014494D01*
X006791Y014570D01*
X006810Y014570D01*
X006931Y014620D01*
X006966Y014655D01*
X006966Y014386D01*
X007008Y014284D01*
X007087Y014205D01*
X007190Y014162D01*
X009099Y014162D01*
X009202Y014205D01*
X009264Y014268D01*
X009264Y012834D01*
X009315Y012713D01*
X009407Y012620D01*
X009691Y012336D01*
X009589Y012378D01*
X009399Y012378D01*
X009223Y012306D01*
X009089Y012171D01*
X009016Y011995D01*
X009016Y011805D01*
X009089Y011629D01*
X009222Y011496D01*
X009172Y011496D01*
X009172Y011079D01*
X009017Y011079D01*
X009017Y011496D01*
X008716Y011496D01*
X008671Y011484D01*
X008629Y011460D01*
X008596Y011427D01*
X008572Y011386D01*
X008560Y011340D01*
X008560Y011079D01*
X009017Y011079D01*
X009017Y010924D01*
X008560Y010924D01*
X008560Y010663D01*
X008572Y010617D01*
X008596Y010576D01*
X008629Y010542D01*
X008671Y010518D01*
X008716Y010506D01*
X009017Y010506D01*
X009017Y010924D01*
X009172Y010924D01*
X009172Y010506D01*
X009464Y010506D01*
X009476Y010494D01*
X008684Y010494D01*
X008581Y010451D01*
X008503Y010372D01*
X008499Y010364D01*
X008499Y010881D01*
X008457Y010984D01*
X008378Y011062D01*
X008275Y011105D01*
X007514Y011105D01*
X007411Y011062D01*
X007332Y010984D01*
X007289Y010881D01*
X007289Y010815D01*
X007280Y010829D01*
X007223Y010885D01*
X007159Y010932D01*
X007088Y010968D01*
X007013Y010993D01*
X006934Y011005D01*
X006894Y011005D01*
X006855Y011005D01*
X006776Y010993D01*
X006700Y010968D01*
X006630Y010932D01*
X006565Y010885D01*
X006509Y010829D01*
X006462Y010765D01*
X006426Y010694D01*
X006402Y010618D01*
X006389Y010540D01*
X006389Y010500D01*
X006389Y010460D01*
X006402Y010382D01*
X006426Y010306D01*
X006462Y010235D01*
X006509Y010171D01*
X006565Y010115D01*
X006630Y010068D01*
X006700Y010032D01*
X006776Y010007D01*
X006855Y009995D01*
X006894Y009995D01*
X006894Y010500D01*
X006389Y010500D01*
X006894Y010500D01*
X006894Y010500D01*
X006894Y010500D01*
X006894Y011005D01*
X006894Y010500D01*
X006894Y010500D01*
X006894Y009995D01*
X006934Y009995D01*
X007013Y010007D01*
X007088Y010032D01*
X007159Y010068D01*
X007223Y010115D01*
X007280Y010171D01*
X007289Y010185D01*
X007289Y010119D01*
X007332Y010016D01*
X007411Y009938D01*
X007514Y009895D01*
X008275Y009895D01*
X008378Y009938D01*
X008457Y010016D01*
X008460Y010024D01*
X008460Y009528D01*
X008503Y009425D01*
X008581Y009346D01*
X008684Y009304D01*
X008824Y009304D01*
X008907Y009220D01*
X009300Y008828D01*
X009342Y008810D01*
X009334Y008790D01*
X009311Y008790D01*
X009235Y008866D01*
X009059Y008938D01*
X008869Y008938D01*
X008693Y008866D01*
X008559Y008731D01*
X008486Y008555D01*
X008486Y008365D01*
X008559Y008189D01*
X008693Y008054D01*
X008869Y007982D01*
X008876Y007982D01*
X008876Y007925D01*
X008949Y007749D01*
X009024Y007673D01*
X009024Y006530D01*
X009024Y006370D01*
X009024Y006523D02*
X009276Y006523D01*
X009024Y006682D02*
X008864Y006682D01*
X008864Y006840D02*
X009024Y006840D01*
X009024Y006999D02*
X008864Y006999D01*
X008864Y007157D02*
X009024Y007157D01*
X009024Y007316D02*
X008864Y007316D01*
X008864Y007474D02*
X009024Y007474D01*
X009024Y007633D02*
X008864Y007633D01*
X008864Y007791D02*
X008931Y007791D01*
X008876Y007950D02*
X008471Y007950D01*
X008343Y008108D02*
X008640Y008108D01*
X008527Y008267D02*
X007807Y008267D01*
X007807Y008425D02*
X008486Y008425D01*
X008498Y008584D02*
X007807Y008584D01*
X007807Y008742D02*
X008570Y008742D01*
X008778Y008901D02*
X007807Y008901D01*
X007807Y009059D02*
X009069Y009059D01*
X009151Y008901D02*
X009227Y008901D01*
X008910Y009218D02*
X007805Y009218D01*
X007704Y009376D02*
X008552Y009376D01*
X008460Y009535D02*
X006920Y009535D01*
X007024Y009437D02*
X007024Y009437D01*
X007021Y010010D02*
X007338Y010010D01*
X007289Y010169D02*
X007277Y010169D01*
X006894Y010169D02*
X006894Y010169D01*
X006894Y010327D02*
X006894Y010327D01*
X006894Y010486D02*
X006894Y010486D01*
X006894Y010644D02*
X006894Y010644D01*
X006894Y010803D02*
X006894Y010803D01*
X006894Y010961D02*
X006894Y010961D01*
X006687Y010961D02*
X003074Y010961D01*
X003074Y010803D02*
X006490Y010803D01*
X006410Y010644D02*
X003074Y010644D01*
X003264Y010550D02*
X003264Y010020D01*
X004224Y010020D01*
X004224Y010550D01*
X004016Y010550D01*
X003744Y010278D01*
X003472Y010550D01*
X003264Y010550D01*
X003264Y010486D02*
X003224Y010486D01*
X003224Y010327D02*
X003264Y010327D01*
X003264Y010169D02*
X003224Y010169D01*
X003264Y010010D02*
X004224Y010010D01*
X004264Y010010D02*
X004860Y010010D01*
X004794Y010020D02*
X004794Y010228D01*
X004472Y010550D01*
X004264Y010550D01*
X004264Y010020D01*
X004794Y010020D01*
X004794Y010169D02*
X004891Y010169D01*
X004695Y010327D02*
X006420Y010327D01*
X006389Y010486D02*
X004537Y010486D01*
X004264Y010486D02*
X004224Y010486D01*
X004224Y010327D02*
X004264Y010327D01*
X004264Y010169D02*
X004224Y010169D01*
X003952Y010486D02*
X003537Y010486D01*
X003695Y010327D02*
X003794Y010327D01*
X004629Y009535D02*
X004860Y009535D01*
X004715Y009693D02*
X005317Y009693D01*
X005472Y009693D02*
X008460Y009693D01*
X008460Y009852D02*
X005929Y009852D01*
X005929Y009829D02*
X005929Y010090D01*
X005916Y010136D01*
X005893Y010177D01*
X005859Y010210D01*
X005818Y010234D01*
X005772Y010246D01*
X005472Y010246D01*
X005472Y009829D01*
X005929Y009829D01*
X005929Y010010D02*
X006768Y010010D01*
X006894Y010010D02*
X006894Y010010D01*
X006512Y010169D02*
X005897Y010169D01*
X005472Y010169D02*
X005317Y010169D01*
X005317Y010010D02*
X005472Y010010D01*
X005472Y009852D02*
X005317Y009852D01*
X004860Y009852D02*
X004794Y009852D01*
X004262Y011278D02*
X008560Y011278D01*
X008560Y011120D02*
X003074Y011120D01*
X003074Y011278D02*
X003527Y011278D01*
X003452Y011309D02*
X003739Y011190D01*
X004049Y011190D01*
X004336Y011309D01*
X004556Y011528D01*
X004674Y011815D01*
X004674Y012125D01*
X004556Y012412D01*
X004336Y012631D01*
X004049Y012750D01*
X003739Y012750D01*
X003452Y012631D01*
X003233Y012412D01*
X003114Y012125D01*
X003114Y011815D01*
X003233Y011528D01*
X003452Y011309D01*
X003325Y011437D02*
X003074Y011437D01*
X003074Y011595D02*
X003205Y011595D01*
X003140Y011754D02*
X003074Y011754D01*
X003074Y011912D02*
X003114Y011912D01*
X003114Y012071D02*
X003074Y012071D01*
X003074Y012229D02*
X003157Y012229D01*
X003223Y012388D02*
X003074Y012388D01*
X003074Y012546D02*
X003367Y012546D01*
X003629Y012705D02*
X003074Y012705D01*
X003074Y012863D02*
X006398Y012863D01*
X006402Y012842D02*
X006426Y012767D01*
X006462Y012696D01*
X006509Y012632D01*
X006565Y012575D01*
X006630Y012529D01*
X006700Y012493D01*
X006776Y012468D01*
X006855Y012456D01*
X006894Y012456D01*
X006894Y012961D01*
X006894Y013466D01*
X006855Y013466D01*
X006776Y013453D01*
X006700Y013429D01*
X006630Y013393D01*
X006565Y013346D01*
X006509Y013290D01*
X006462Y013225D01*
X006426Y013154D01*
X006402Y013079D01*
X006389Y013000D01*
X006389Y012961D01*
X006894Y012961D01*
X006894Y012961D01*
X006894Y012961D01*
X006894Y013466D01*
X006934Y013466D01*
X007013Y013453D01*
X007088Y013429D01*
X007159Y013393D01*
X007223Y013346D01*
X007280Y013290D01*
X007289Y013276D01*
X007289Y013341D01*
X007332Y013444D01*
X007411Y013523D01*
X007514Y013566D01*
X008275Y013566D01*
X008378Y013523D01*
X008457Y013444D01*
X008499Y013341D01*
X008499Y012580D01*
X008457Y012477D01*
X008378Y012398D01*
X008275Y012356D01*
X007514Y012356D01*
X007411Y012398D01*
X007332Y012477D01*
X007289Y012580D01*
X007289Y012645D01*
X007280Y012632D01*
X007223Y012575D01*
X007159Y012529D01*
X007088Y012493D01*
X007013Y012468D01*
X006934Y012456D01*
X006894Y012456D01*
X006894Y012961D01*
X006389Y012961D01*
X006389Y012921D01*
X006402Y012842D01*
X006458Y012705D02*
X004159Y012705D01*
X004421Y012546D02*
X006606Y012546D01*
X006894Y012546D02*
X006894Y012546D01*
X006894Y012705D02*
X006894Y012705D01*
X006894Y012863D02*
X006894Y012863D01*
X006894Y012961D02*
X006894Y012961D01*
X006894Y013022D02*
X006894Y013022D01*
X006894Y013180D02*
X006894Y013180D01*
X006894Y013339D02*
X006894Y013339D01*
X007231Y013339D02*
X007289Y013339D01*
X007385Y013497D02*
X004674Y013497D01*
X004674Y013414D02*
X004674Y014526D01*
X004632Y014629D01*
X004553Y014707D01*
X004450Y014750D01*
X003339Y014750D01*
X003236Y014707D01*
X003157Y014629D01*
X003114Y014526D01*
X003114Y013414D01*
X003157Y013311D01*
X003236Y013233D01*
X003339Y013190D01*
X004450Y013190D01*
X004553Y013233D01*
X004632Y013311D01*
X004674Y013414D01*
X004643Y013339D02*
X006558Y013339D01*
X006439Y013180D02*
X003074Y013180D01*
X003074Y013022D02*
X006393Y013022D01*
X007183Y012546D02*
X007303Y012546D01*
X007437Y012388D02*
X004566Y012388D01*
X004631Y012229D02*
X009147Y012229D01*
X009047Y012071D02*
X004674Y012071D01*
X004674Y011912D02*
X009016Y011912D01*
X009037Y011754D02*
X004649Y011754D01*
X004583Y011595D02*
X009123Y011595D01*
X009172Y011437D02*
X009017Y011437D01*
X009017Y011278D02*
X009172Y011278D01*
X009172Y011120D02*
X009017Y011120D01*
X009017Y010961D02*
X008466Y010961D01*
X008499Y010803D02*
X008560Y010803D01*
X008565Y010644D02*
X008499Y010644D01*
X008499Y010486D02*
X008664Y010486D01*
X009017Y010644D02*
X009172Y010644D01*
X009172Y010803D02*
X009017Y010803D01*
X008606Y011437D02*
X004464Y011437D01*
X003146Y013339D02*
X003074Y013339D01*
X003074Y013497D02*
X003114Y013497D01*
X003114Y013656D02*
X003074Y013656D01*
X003074Y013814D02*
X003114Y013814D01*
X003114Y013973D02*
X003074Y013973D01*
X003074Y014131D02*
X003114Y014131D01*
X003114Y014290D02*
X003074Y014290D01*
X003074Y014448D02*
X003114Y014448D01*
X003148Y014607D02*
X003074Y014607D01*
X003074Y014765D02*
X005982Y014765D01*
X005966Y014924D02*
X003074Y014924D01*
X003074Y015082D02*
X006002Y015082D01*
X006108Y015241D02*
X003074Y015241D01*
X003074Y015399D02*
X003134Y015399D01*
X003726Y015399D02*
X003763Y015399D01*
X003763Y015303D02*
X004100Y015303D01*
X004178Y015315D01*
X004252Y015340D01*
X004322Y015375D01*
X004385Y015421D01*
X004440Y015476D01*
X004486Y015540D01*
X004522Y015609D01*
X004546Y015684D01*
X004558Y015761D01*
X004558Y015782D01*
X003763Y015782D01*
X003763Y015303D01*
X003763Y015558D02*
X003726Y015558D01*
X003726Y015716D02*
X003763Y015716D01*
X004355Y015399D02*
X005146Y015399D01*
X004947Y015558D02*
X004495Y015558D01*
X004551Y015716D02*
X004819Y015716D01*
X004661Y015875D02*
X004552Y015875D01*
X004502Y016033D02*
X004500Y016033D01*
X005144Y015900D02*
X005684Y015900D01*
X005704Y015920D01*
X005144Y015900D02*
X004244Y016800D01*
X003744Y016800D01*
X005544Y017688D02*
X005544Y018468D01*
X005579Y018700D01*
X005544Y018932D01*
X005544Y019770D01*
X007284Y019770D01*
X007279Y018109D01*
X007089Y018109D01*
X006950Y018051D01*
X006843Y017944D01*
X006785Y017804D01*
X006785Y017662D01*
X006673Y017550D01*
X006260Y017550D01*
X006140Y017600D01*
X005632Y017600D01*
X005544Y017688D01*
X005544Y017777D02*
X006785Y017777D01*
X006741Y017618D02*
X005614Y017618D01*
X005544Y017935D02*
X006839Y017935D01*
X007052Y018094D02*
X005544Y018094D01*
X005544Y018252D02*
X007279Y018252D01*
X007280Y018411D02*
X005544Y018411D01*
X005560Y018569D02*
X007280Y018569D01*
X007281Y018728D02*
X005575Y018728D01*
X005551Y018886D02*
X007281Y018886D01*
X007282Y019045D02*
X005544Y019045D01*
X005544Y019203D02*
X007282Y019203D01*
X007283Y019362D02*
X005544Y019362D01*
X005544Y019520D02*
X007283Y019520D01*
X007283Y019679D02*
X005544Y019679D01*
X007860Y018094D02*
X012743Y018094D01*
X012888Y017935D02*
X007860Y017935D01*
X007860Y017777D02*
X012888Y017777D01*
X012887Y017618D02*
X007860Y017618D01*
X007860Y017460D02*
X012887Y017460D01*
X012886Y017301D02*
X007828Y017301D01*
X007817Y017143D02*
X012886Y017143D01*
X012885Y016984D02*
X007853Y016984D01*
X007853Y016826D02*
X012885Y016826D01*
X012884Y016667D02*
X009324Y016667D01*
X009944Y016100D02*
X009944Y014780D01*
X012070Y014780D01*
X012155Y014745D01*
X012189Y014759D01*
X012454Y014759D01*
X012454Y016024D01*
X012485Y016100D01*
X009944Y016100D01*
X009944Y016033D02*
X012457Y016033D01*
X012454Y015875D02*
X009944Y015875D01*
X009944Y015716D02*
X012454Y015716D01*
X012454Y015558D02*
X009944Y015558D01*
X009944Y015399D02*
X012454Y015399D01*
X012454Y015241D02*
X009944Y015241D01*
X009944Y015082D02*
X012454Y015082D01*
X012454Y014924D02*
X009944Y014924D01*
X009264Y014131D02*
X004674Y014131D01*
X004674Y013973D02*
X009264Y013973D01*
X009264Y013814D02*
X004674Y013814D01*
X004674Y013656D02*
X009264Y013656D01*
X009264Y013497D02*
X008404Y013497D01*
X008499Y013339D02*
X009264Y013339D01*
X009264Y013180D02*
X008499Y013180D01*
X008499Y013022D02*
X009264Y013022D01*
X009264Y012863D02*
X008499Y012863D01*
X008499Y012705D02*
X009323Y012705D01*
X009482Y012546D02*
X008485Y012546D01*
X008352Y012388D02*
X009640Y012388D01*
X010322Y011912D02*
X010498Y011912D01*
X010498Y011916D02*
X010498Y011734D01*
X010498Y011680D01*
X010329Y011680D01*
X010207Y011630D01*
X010174Y011596D01*
X009972Y011596D01*
X010030Y011620D01*
X010325Y011916D01*
X010498Y011916D01*
X010498Y011916D01*
X010498Y011754D02*
X010163Y011754D01*
X010498Y011734D02*
X010914Y011734D01*
X010498Y011734D01*
X010914Y011734D02*
X010914Y011734D01*
X010914Y011734D01*
X011331Y011734D01*
X011331Y011680D01*
X011726Y011680D01*
X011716Y011705D01*
X011716Y011895D01*
X011724Y011916D01*
X011330Y011916D01*
X011331Y011916D01*
X011331Y011734D01*
X010914Y011734D01*
X011331Y011754D02*
X011716Y011754D01*
X011723Y011912D02*
X011331Y011912D01*
X012219Y011322D02*
X012219Y011322D01*
X012219Y010980D01*
X012219Y010980D01*
X012219Y011322D01*
X012219Y011278D02*
X012219Y011278D01*
X012219Y011120D02*
X012219Y011120D01*
X012106Y014765D02*
X012454Y014765D01*
X013631Y018252D02*
X014541Y018252D01*
X014464Y018411D02*
X013759Y018411D01*
X013824Y018569D02*
X014464Y018569D01*
X014464Y018728D02*
X013856Y018728D01*
X013856Y018886D02*
X014464Y018886D01*
X014464Y018848D02*
X014996Y018848D01*
X014996Y019380D01*
X014621Y019380D01*
X014575Y019368D01*
X014534Y019344D01*
X014500Y019311D01*
X014477Y019269D01*
X014464Y019224D01*
X014464Y018848D01*
X014464Y019045D02*
X013819Y019045D01*
X013753Y019203D02*
X014464Y019203D01*
X014564Y019362D02*
X013617Y019362D01*
X014996Y019362D02*
X015092Y019362D01*
X015092Y019203D02*
X014996Y019203D01*
X014996Y019045D02*
X015092Y019045D01*
X015092Y018886D02*
X014996Y018886D01*
X014996Y018728D02*
X015092Y018728D01*
X015092Y018569D02*
X014996Y018569D01*
X014996Y018411D02*
X015092Y018411D01*
X015092Y018252D02*
X014996Y018252D01*
X007323Y010961D02*
X007102Y010961D01*
X008450Y010010D02*
X008460Y010010D01*
X006801Y007977D02*
X006807Y007970D01*
X006807Y007970D01*
X006841Y007936D01*
X006907Y007870D01*
X006893Y007834D01*
X006893Y007625D01*
X006926Y007543D01*
X006611Y007858D01*
X006654Y007858D01*
X006700Y007870D01*
X006741Y007894D01*
X006775Y007928D01*
X006798Y007969D01*
X006801Y007977D01*
X006787Y007950D02*
X006828Y007950D01*
X006841Y007936D02*
X006841Y007936D01*
X006893Y007791D02*
X006679Y007791D01*
X006837Y007633D02*
X006893Y007633D01*
X007777Y007316D02*
X007795Y007316D01*
X007807Y007157D02*
X008364Y007157D01*
X008364Y006999D02*
X007792Y006999D01*
X007807Y006840D02*
X008364Y006840D01*
X008364Y006682D02*
X007807Y006682D01*
X008348Y006523D02*
X008864Y006523D01*
X008364Y007316D02*
X008294Y007316D01*
X004669Y003647D02*
X004472Y003450D01*
X004264Y003450D01*
X004264Y003980D01*
X004224Y003980D01*
X003694Y003980D01*
X003264Y003980D01*
X003264Y004020D01*
X004224Y004020D01*
X004224Y003980D01*
X004224Y003450D01*
X004016Y003450D01*
X003744Y003722D01*
X003552Y003530D01*
X003660Y003530D01*
X003781Y003480D01*
X003783Y003478D01*
X003889Y003478D01*
X004065Y003406D01*
X004200Y003271D01*
X004273Y003095D01*
X004273Y002905D01*
X004244Y002834D01*
X004378Y002834D01*
X004378Y002377D01*
X004378Y002223D01*
X003961Y002223D01*
X003961Y002080D01*
X003948Y002080D01*
X003948Y002546D01*
X003961Y002551D01*
X003961Y002377D01*
X004378Y002377D01*
X004533Y002377D01*
X004533Y002834D01*
X004664Y002834D01*
X004664Y002866D01*
X004715Y002987D01*
X004807Y003080D01*
X005014Y003286D01*
X004873Y003344D01*
X004739Y003479D01*
X004669Y003647D01*
X004725Y003512D02*
X004534Y003512D01*
X004264Y003512D02*
X004224Y003512D01*
X004224Y003670D02*
X004264Y003670D01*
X004264Y003829D02*
X004224Y003829D01*
X004224Y003987D02*
X003264Y003987D01*
X003692Y003670D02*
X003796Y003670D01*
X003705Y003512D02*
X003955Y003512D01*
X004118Y003353D02*
X004865Y003353D01*
X004922Y003195D02*
X004232Y003195D01*
X004273Y003036D02*
X004764Y003036D01*
X004669Y002878D02*
X004261Y002878D01*
X004378Y002719D02*
X004533Y002719D01*
X004533Y002561D02*
X004378Y002561D01*
X004378Y002402D02*
X004533Y002402D01*
X004378Y002244D02*
X003948Y002244D01*
X003948Y002402D02*
X003961Y002402D01*
X003948Y002085D02*
X003961Y002085D01*
X004674Y014290D02*
X007006Y014290D01*
X006966Y014448D02*
X006603Y014448D01*
X006285Y014448D02*
X004674Y014448D01*
X004641Y014607D02*
X006061Y014607D01*
X006262Y015399D02*
X006664Y015399D01*
X006664Y015558D02*
X006462Y015558D01*
X006548Y015716D02*
X006664Y015716D01*
X006664Y015875D02*
X006584Y015875D01*
X006898Y014607D02*
X006966Y014607D01*
D36*
X006744Y014900D02*
X006444Y014900D01*
X006744Y014900D02*
X006994Y015150D01*
X006994Y016481D01*
X007335Y016822D01*
X006744Y017010D02*
X006594Y016860D01*
X006594Y016450D01*
X006544Y016400D01*
X006744Y017010D02*
X006744Y017013D01*
X007322Y017591D01*
X005704Y016920D02*
X005274Y017350D01*
X002894Y017350D01*
X002744Y017200D01*
X002744Y003700D01*
X003244Y003200D01*
X003594Y003200D01*
X003794Y003000D01*
X004544Y002950D02*
X004544Y002750D01*
X004544Y002950D02*
X004644Y003050D01*
X004844Y003050D01*
X005144Y003350D01*
X005194Y003350D01*
X005294Y003450D01*
X005344Y003450D01*
X005444Y003550D01*
X005620Y003550D01*
X005623Y003547D01*
X005623Y003650D01*
X005750Y003777D01*
X006205Y003777D01*
X006744Y003700D02*
X006744Y003450D01*
X006644Y003300D01*
X005494Y003300D01*
X004994Y002800D01*
X004994Y001850D01*
X004894Y001750D01*
X003394Y001750D01*
X003344Y001800D01*
X003344Y002250D01*
X002994Y001500D02*
X003244Y001250D01*
X003544Y001250D01*
X003594Y001250D01*
X003544Y001300D01*
X003544Y001250D01*
X004272Y001255D02*
X004277Y001250D01*
X004544Y001250D01*
X004644Y001350D01*
X004794Y001350D01*
X005144Y003750D02*
X005394Y003750D01*
X005644Y004000D01*
X005644Y004200D01*
X005827Y004383D01*
X006527Y004383D01*
X006694Y004500D01*
X006944Y004500D01*
X007144Y004381D01*
X007154Y004383D01*
X007350Y004383D01*
X007350Y004383D01*
X007350Y004186D02*
X007908Y004186D01*
X008094Y004000D01*
X008494Y003350D02*
X008594Y003250D01*
X012744Y003250D01*
X013294Y002700D01*
X013794Y002700D01*
X014044Y002950D01*
X014044Y003450D01*
X014294Y003700D01*
X019794Y003700D01*
X019994Y003500D01*
X021694Y003500D01*
X021744Y003550D01*
X021744Y008500D01*
X021244Y009000D01*
X020244Y009000D02*
X017344Y009000D01*
X016444Y008100D01*
X016194Y009200D02*
X014244Y009200D01*
X013455Y008411D01*
X012605Y008411D01*
X012605Y007481D01*
X012344Y007250D01*
X011994Y007600D02*
X011994Y006650D01*
X011893Y006548D01*
X010539Y006548D01*
X010540Y006550D01*
X010539Y006745D02*
X011740Y006745D01*
X011794Y006800D01*
X011794Y007700D01*
X011894Y007800D01*
X011894Y009550D01*
X011644Y009800D01*
X011494Y009400D02*
X011394Y009400D01*
X011294Y009500D01*
X010433Y009500D01*
X010034Y009899D01*
X009994Y009850D02*
X010094Y009950D01*
X010094Y010000D01*
X010844Y010350D02*
X010844Y010956D01*
X010914Y011026D01*
X011494Y010964D02*
X011494Y010400D01*
X011844Y010550D02*
X011844Y011300D01*
X011794Y011350D01*
X010394Y011350D01*
X010044Y011000D01*
X010044Y010950D01*
X009994Y010950D02*
X010044Y011000D01*
X010094Y011000D01*
X010044Y011000D02*
X009994Y011000D01*
X010194Y011700D02*
X010229Y011734D01*
X010914Y011734D01*
X011049Y011600D01*
X011844Y011600D01*
X012219Y011226D01*
X012219Y010980D01*
X012694Y010850D02*
X012794Y010750D01*
X013394Y010750D01*
X012694Y010850D02*
X012694Y013131D01*
X013135Y013572D01*
X012422Y014241D02*
X012422Y012028D01*
X012194Y011800D01*
X012200Y011800D01*
X011595Y012550D02*
X011595Y013401D01*
X011644Y013450D01*
X011044Y013450D01*
X010994Y013400D01*
X010994Y013750D01*
X010493Y012550D02*
X009944Y012550D01*
X009594Y012900D01*
X009594Y014800D01*
X009894Y015100D01*
X010144Y015100D01*
X010294Y014950D01*
X010344Y014950D02*
X010344Y015200D01*
X010394Y015250D01*
X010694Y015250D01*
X010744Y015300D01*
X010894Y015300D01*
X010944Y015250D01*
X010944Y015150D01*
X010894Y015100D01*
X010894Y015350D01*
X010394Y015250D02*
X010394Y015000D01*
X010344Y014950D01*
X010344Y014900D01*
X010394Y015250D02*
X010394Y015600D01*
X008953Y016822D02*
X008953Y018309D01*
X010644Y020000D01*
X018744Y020000D01*
X019144Y019600D01*
X019257Y017650D02*
X018766Y017159D01*
X019257Y017650D02*
X019344Y017650D01*
X019044Y016000D02*
X019094Y015950D01*
X017794Y015400D02*
X018794Y014400D01*
X018794Y010650D01*
X018244Y010100D01*
X017944Y010100D01*
X017794Y010250D01*
X017244Y010250D01*
X016944Y009950D01*
X014844Y009950D01*
X014494Y010300D01*
X012294Y010300D01*
X012094Y010300D01*
X011844Y010550D01*
X011494Y010964D02*
X011510Y010980D01*
X011494Y009400D02*
X011644Y009250D01*
X011644Y007950D01*
X011544Y007850D01*
X011544Y007700D01*
X011377Y007533D01*
X010539Y007533D01*
X010539Y007730D02*
X011224Y007730D01*
X011294Y007800D01*
X011294Y008450D01*
X011244Y008500D01*
X010855Y008911D02*
X011044Y009100D01*
X010855Y008911D02*
X010539Y008911D01*
X010539Y009107D02*
X009487Y009107D01*
X009094Y009500D01*
X009094Y009899D01*
X009908Y008714D02*
X009794Y008600D01*
X009908Y008714D02*
X010539Y008714D01*
X010539Y008517D01*
X009994Y007900D02*
X009434Y008460D01*
X008964Y008460D01*
X009354Y008020D02*
X009344Y008010D01*
X009344Y008000D01*
X009544Y007800D01*
X009544Y007650D01*
X010055Y007139D01*
X010539Y007139D01*
X010544Y006950D02*
X009744Y006950D01*
X009644Y007050D01*
X009974Y006750D02*
X009754Y006510D01*
X009974Y006750D02*
X010534Y006750D01*
X010539Y006745D01*
X010539Y006352D02*
X012396Y006352D01*
X012894Y006850D01*
X012894Y007750D01*
X012994Y007850D01*
X013394Y007850D01*
X013394Y007250D02*
X018194Y007250D01*
X017744Y007000D02*
X018144Y006600D01*
X018494Y006600D01*
X018644Y006750D01*
X018644Y007550D01*
X018444Y007750D01*
X017894Y007750D01*
X017744Y007900D01*
X017744Y008200D01*
X017744Y007000D02*
X014694Y007000D01*
X014544Y006850D01*
X014544Y006400D01*
X014744Y006200D01*
X015444Y006200D01*
X015744Y005900D01*
X015744Y005600D01*
X015594Y005450D01*
X014794Y005450D01*
X013794Y004450D01*
X012944Y004450D01*
X012544Y004050D01*
X011744Y004050D01*
X011344Y004450D01*
X011344Y004500D01*
X010894Y004500D01*
X010894Y004727D01*
X010844Y004777D01*
X010539Y004777D01*
X010536Y004780D01*
X010539Y004974D02*
X011574Y004974D01*
X012024Y004499D01*
X011144Y003800D02*
X011137Y003793D01*
X010894Y004100D02*
X010894Y004350D01*
X010861Y004383D01*
X010539Y004383D01*
X010539Y004186D02*
X009881Y004186D01*
X009794Y004100D01*
X009794Y003650D01*
X009344Y004000D02*
X009344Y004150D01*
X009774Y004580D01*
X010539Y004580D01*
X010894Y004500D02*
X010894Y004350D01*
X010894Y004100D02*
X010784Y003989D01*
X010539Y003989D01*
X010539Y005170D02*
X013628Y005170D01*
X013862Y005404D01*
X014307Y005850D01*
X015244Y005850D01*
X014994Y005150D02*
X015994Y005150D01*
X016194Y005350D01*
X016194Y005900D01*
X015444Y006650D01*
X015144Y006650D01*
X014994Y005150D02*
X014694Y004850D01*
X014694Y004450D01*
X014594Y004350D01*
X014394Y004350D01*
X013844Y003800D01*
X013694Y003800D01*
X013544Y003650D01*
X013544Y003200D01*
X015094Y004600D02*
X015100Y004595D01*
X015715Y004595D01*
X016794Y004600D02*
X017110Y004916D01*
X017995Y004916D01*
X018059Y004979D01*
X019144Y004850D02*
X019144Y005429D01*
X018962Y005612D01*
X018794Y003200D02*
X020344Y003200D01*
X020794Y002750D01*
X020794Y002300D01*
X020594Y002300D01*
X019994Y002304D02*
X019994Y002850D01*
X019944Y002900D01*
X019544Y002900D01*
X019194Y002550D01*
X018444Y002550D01*
X017794Y003200D01*
X019994Y001596D02*
X019994Y001300D01*
X020244Y001050D01*
X020644Y001050D01*
X020644Y001596D02*
X019994Y001596D01*
X020644Y001596D02*
X021294Y001596D01*
X021294Y002300D02*
X021394Y002400D01*
X021394Y003000D01*
X018244Y009750D02*
X017494Y009750D01*
X018244Y009750D02*
X019194Y010700D01*
X020444Y010700D01*
X020544Y010800D01*
X020544Y012650D01*
X021094Y013200D01*
X021095Y013250D02*
X021394Y013250D01*
X021694Y013550D01*
X021694Y015750D01*
X021394Y016050D01*
X021044Y016050D01*
X020844Y015850D01*
X020444Y014250D02*
X019993Y013799D01*
X019993Y013250D01*
X019993Y012200D02*
X019794Y012200D01*
X019294Y011700D01*
X019993Y011300D02*
X019993Y012200D01*
X016535Y014722D02*
X016044Y014231D01*
X016044Y013650D01*
X015444Y013300D02*
X015244Y013500D01*
X014825Y013500D01*
X014753Y013572D01*
X015444Y013300D02*
X015444Y011800D01*
X016194Y011050D01*
X016194Y011000D01*
X012544Y009500D02*
X012094Y009050D01*
X012094Y007700D01*
X011994Y007600D01*
X012140Y006155D02*
X010539Y006155D01*
X010539Y005958D02*
X010136Y005958D01*
X009994Y005950D02*
X009954Y006000D01*
X009654Y006000D01*
X009994Y005950D02*
X010454Y005950D01*
X010539Y005761D02*
X010005Y005761D01*
X009844Y005600D01*
X009844Y005450D01*
X009694Y005300D01*
X010539Y005367D02*
X011112Y005367D01*
X011344Y005600D01*
X010944Y005650D02*
X010944Y005900D01*
X010994Y005950D01*
X011844Y005950D01*
X011944Y005850D01*
X011944Y005650D01*
X012094Y005500D01*
X012694Y005500D01*
X012844Y005650D01*
X012844Y005900D01*
X013144Y006200D01*
X013144Y006250D01*
X012394Y005900D02*
X012140Y006155D01*
X010944Y005650D02*
X010858Y005564D01*
X010539Y005564D01*
X010539Y007336D02*
X010258Y007336D01*
X009994Y007600D01*
X009994Y007900D01*
X008044Y007730D02*
X008044Y007730D01*
X007350Y007730D01*
X007350Y007926D02*
X007021Y007926D01*
X006844Y007750D01*
X006840Y007750D01*
X006394Y008196D01*
X005949Y008054D02*
X006864Y007139D01*
X007350Y007139D01*
X007350Y007336D02*
X007058Y007336D01*
X006794Y007600D01*
X006794Y007700D01*
X006844Y007750D01*
X006994Y007600D01*
X006994Y007550D01*
X007012Y007533D01*
X007350Y007533D01*
X007347Y007530D01*
X007350Y006942D02*
X007936Y006942D01*
X007944Y006950D01*
X007944Y007250D01*
X008044Y007350D01*
X007350Y006745D02*
X006249Y006745D01*
X006044Y006950D01*
X006044Y007550D01*
X005894Y007700D01*
X005044Y007700D01*
X004894Y007850D01*
X004894Y008500D01*
X004994Y008600D01*
X005345Y008600D01*
X005394Y008649D01*
X005443Y008600D01*
X005944Y008850D02*
X005944Y008050D01*
X005949Y008054D02*
X005394Y008054D01*
X005394Y007346D02*
X005140Y007346D01*
X004894Y007100D01*
X004894Y005250D01*
X005194Y004950D01*
X005444Y004600D02*
X005844Y004600D01*
X006144Y004900D01*
X006194Y004850D01*
X006194Y004900D01*
X006194Y004901D02*
X006420Y004777D01*
X007350Y004777D01*
X007350Y004580D02*
X008024Y004580D01*
X008494Y004850D02*
X008174Y005170D01*
X007350Y005170D01*
X007350Y005564D02*
X007108Y005564D01*
X006844Y005300D01*
X006344Y005580D02*
X006344Y005860D01*
X006444Y005960D01*
X007348Y005960D01*
X007350Y005958D01*
X007350Y006150D02*
X007350Y006155D01*
X007348Y006350D02*
X005994Y006350D01*
X005844Y006200D01*
X005844Y005999D01*
X005494Y005649D01*
X005697Y006548D02*
X005494Y006751D01*
X005697Y006548D02*
X007350Y006548D01*
X007350Y006551D01*
X007350Y006352D02*
X007348Y006350D01*
X008494Y004850D02*
X008494Y003350D01*
X007350Y003748D02*
X007081Y003479D01*
X007350Y003748D02*
X007350Y003793D01*
X007350Y003989D02*
X007034Y003989D01*
X006744Y003700D01*
X007350Y004580D02*
X007350Y004580D01*
X005444Y004600D02*
X005184Y004340D01*
X005184Y004266D01*
X003244Y006000D02*
X003744Y006500D01*
X003744Y008350D01*
X003894Y008500D01*
X004494Y008500D01*
X004744Y008750D01*
X004744Y009050D01*
X004894Y009200D01*
X005794Y009200D01*
X005844Y009250D01*
X006744Y009250D01*
X006994Y009000D01*
X006994Y008250D01*
X007121Y008123D01*
X007350Y008123D01*
X006394Y008904D02*
X005999Y008904D01*
X005944Y008850D01*
X009494Y011900D02*
X009843Y011900D01*
X010493Y012550D01*
X015344Y016900D02*
X015394Y016850D01*
D37*
X002994Y001500D03*
X003794Y003000D03*
X005144Y003750D03*
X006844Y005300D03*
X006344Y005580D03*
X008044Y006150D03*
X008024Y004580D03*
X008094Y004000D03*
X007081Y003479D03*
X004794Y001350D03*
X009344Y004000D03*
X009794Y003650D03*
X009694Y005300D03*
X009654Y006000D03*
X009754Y006510D03*
X009644Y007050D03*
X009354Y008020D03*
X008964Y008460D03*
X008044Y007730D03*
X006844Y007750D03*
X010194Y011700D03*
X009494Y011900D03*
X010844Y010350D03*
X011494Y010400D03*
X011644Y009800D03*
X012294Y010300D03*
X013394Y010750D03*
X012194Y011800D03*
X011044Y009100D03*
X011244Y008500D03*
X012344Y007250D03*
X013394Y007250D03*
X013394Y007850D03*
X015144Y006650D03*
X015244Y005850D03*
X016444Y008100D03*
X016194Y009200D03*
X017494Y009750D03*
X016194Y011000D03*
X016044Y013650D03*
X019294Y011700D03*
X018194Y007250D03*
X019144Y004850D03*
X021394Y003000D03*
X020644Y001050D03*
X012644Y003700D03*
X012024Y004499D03*
X011344Y004500D03*
X011344Y005600D03*
X012394Y005900D03*
X006444Y014900D03*
X006544Y016400D03*
X019144Y019600D03*
X019344Y017650D03*
D38*
X008044Y006150D02*
X007350Y006150D01*
X010539Y003793D02*
X011137Y003793D01*
D39*
X011144Y003800D03*
X015094Y004600D03*
X009794Y008600D03*
X006394Y017900D03*
X006394Y018450D03*
X006394Y019000D03*
X006394Y019550D03*
X005794Y019550D03*
X005794Y019000D03*
X005794Y018450D03*
X005794Y017900D03*
M02*
