G75*
G70*
%OFA0B0*%
%FSLAX24Y24*%
%IPPOS*%
%LPD*%
%AMOC8*
5,1,8,0,0,1.08239X$1,22.5*
%
%ADD10C,0.0600*%
%ADD11R,0.1000X0.1000*%
%ADD12C,0.1000*%
%ADD13R,0.0800X0.0800*%
%ADD14C,0.0800*%
%ADD15OC8,0.0740*%
%ADD16C,0.0740*%
%ADD17R,0.0476X0.0476*%
%ADD18C,0.0436*%
%ADD19C,0.0100*%
%ADD20C,0.1000*%
%ADD21R,0.0436X0.0436*%
D10*
X014550Y014100D02*
X015150Y014100D01*
X015150Y015100D02*
X014550Y015100D01*
X016850Y015100D02*
X017450Y015100D01*
X017450Y014100D02*
X016850Y014100D01*
X019200Y014100D02*
X019800Y014100D01*
X019800Y015100D02*
X019200Y015100D01*
D11*
X002100Y006600D03*
D12*
X002100Y004600D03*
D13*
X021600Y002630D03*
D14*
X021600Y004078D03*
X021600Y005526D03*
D15*
X022050Y007600D03*
X022050Y008600D03*
X021050Y008600D03*
X021050Y007600D03*
X021050Y009600D03*
X021050Y010600D03*
X022050Y010600D03*
X022050Y009600D03*
X022050Y011600D03*
X022050Y012600D03*
X022050Y013600D03*
X021050Y013600D03*
X021050Y012600D03*
X021050Y011600D03*
X015050Y016600D03*
X014050Y016600D03*
X013050Y016600D03*
X012050Y016600D03*
X011050Y016600D03*
X010050Y016600D03*
X009050Y016600D03*
X009050Y017600D03*
X010050Y017600D03*
X011050Y017600D03*
X012050Y017600D03*
X013050Y017600D03*
X014050Y017600D03*
X015050Y017600D03*
D16*
X016350Y016950D03*
X017350Y017050D03*
X018350Y016950D03*
X019850Y017050D03*
X020850Y017150D03*
X021850Y017050D03*
D17*
X012300Y009850D03*
X011600Y009850D03*
X010900Y009850D03*
X010900Y009000D03*
X011600Y009000D03*
X012250Y009000D03*
X012300Y008100D03*
X011600Y008100D03*
X010900Y008100D03*
X009050Y008000D03*
X009050Y007300D03*
X009050Y006600D03*
X008200Y006650D03*
X008200Y007300D03*
X008200Y008000D03*
X007300Y008000D03*
X007300Y007300D03*
X007300Y006600D03*
X010900Y005000D03*
X011600Y005000D03*
X012300Y005000D03*
X012250Y004150D03*
X011600Y004150D03*
X010900Y004150D03*
X010900Y003250D03*
X011600Y003250D03*
X012300Y003250D03*
X014500Y003550D03*
X014500Y002850D03*
X015350Y002850D03*
X015350Y003500D03*
X016250Y003550D03*
X016250Y002850D03*
X016250Y002150D03*
X015350Y002150D03*
X014500Y002150D03*
X016650Y007050D03*
X016650Y007750D03*
X016650Y008450D03*
X017550Y008450D03*
X018400Y008450D03*
X018400Y007750D03*
X017550Y007750D03*
X017550Y007100D03*
X018400Y007050D03*
X006800Y003550D03*
X006800Y002850D03*
X006800Y002150D03*
X005900Y002150D03*
X005050Y002150D03*
X005050Y002850D03*
X005050Y003550D03*
X005900Y003500D03*
X005900Y002850D03*
D18*
X007100Y009500D03*
X007850Y010400D03*
X009400Y011100D03*
X011850Y013600D03*
X011350Y015600D03*
X012900Y015800D03*
X015250Y012750D03*
X015850Y012100D03*
X015250Y011500D03*
X015850Y010600D03*
X014800Y009850D03*
X013850Y010600D03*
X017000Y010850D03*
X018200Y011300D03*
X017350Y012100D03*
X018200Y012850D03*
X019500Y012900D03*
X019500Y011250D03*
X007960Y014110D03*
X007760Y015410D03*
X006100Y015400D03*
X006150Y017600D03*
X007400Y017600D03*
X002000Y017880D03*
X000750Y011450D03*
X001600Y011300D03*
X003350Y009800D03*
X004600Y009800D03*
D19*
X000600Y001300D02*
X001500Y000400D01*
X006500Y000400D01*
X007350Y001250D01*
X007208Y001920D02*
X007208Y002459D01*
X007167Y002500D01*
X007208Y002541D01*
X007208Y003159D01*
X007167Y003200D01*
X007208Y003241D01*
X007208Y003859D01*
X007187Y003880D01*
X008259Y003880D01*
X008630Y003509D01*
X008630Y003238D01*
X008561Y003238D01*
X008462Y003139D01*
X008462Y002561D01*
X008561Y002462D01*
X009139Y002462D01*
X009238Y002561D01*
X009238Y003139D01*
X009139Y003238D01*
X009070Y003238D01*
X009070Y003691D01*
X008570Y004191D01*
X008441Y004320D01*
X004599Y004320D01*
X004470Y004191D01*
X004380Y004101D01*
X004380Y001431D01*
X003979Y001030D01*
X001781Y001030D01*
X001120Y001691D01*
X001120Y005300D01*
X002900Y005300D01*
X002900Y004850D01*
X010150Y004850D01*
X010150Y005100D01*
X010492Y005100D01*
X010492Y004691D01*
X010591Y004592D01*
X011119Y004592D01*
X011085Y004558D01*
X010591Y004558D01*
X010492Y004459D01*
X010492Y003841D01*
X010591Y003742D01*
X011036Y003742D01*
X011120Y003658D01*
X010591Y003658D01*
X010492Y003559D01*
X010492Y002941D01*
X010591Y002842D01*
X011209Y002842D01*
X011250Y002883D01*
X011291Y002842D01*
X011909Y002842D01*
X011950Y002883D01*
X011991Y002842D01*
X012609Y002842D01*
X012708Y002941D01*
X012708Y003559D01*
X012609Y003658D01*
X012080Y003658D01*
X012164Y003742D01*
X012559Y003742D01*
X012658Y003841D01*
X012658Y004430D01*
X019350Y004430D01*
X019350Y001920D01*
X016658Y001920D01*
X016658Y002459D01*
X016617Y002500D01*
X016658Y002541D01*
X016658Y003159D01*
X016617Y003200D01*
X016658Y003241D01*
X016658Y003859D01*
X016559Y003958D01*
X015941Y003958D01*
X015842Y003859D01*
X015842Y003241D01*
X015883Y003200D01*
X015842Y003159D01*
X015842Y002541D01*
X015883Y002500D01*
X015842Y002459D01*
X015842Y001920D01*
X015758Y001920D01*
X015758Y002459D01*
X015717Y002500D01*
X015758Y002541D01*
X015758Y003159D01*
X015742Y003175D01*
X015758Y003191D01*
X015758Y003809D01*
X015659Y003908D01*
X015041Y003908D01*
X014942Y003809D01*
X014942Y003191D01*
X014958Y003175D01*
X014942Y003159D01*
X014942Y002541D01*
X014983Y002500D01*
X014942Y002459D01*
X014942Y001920D01*
X014908Y001920D01*
X014908Y002459D01*
X014867Y002500D01*
X014908Y002541D01*
X014908Y003159D01*
X014867Y003200D01*
X014908Y003241D01*
X014908Y003859D01*
X014809Y003958D01*
X014191Y003958D01*
X014092Y003859D01*
X014092Y003241D01*
X014133Y003200D01*
X014092Y003159D01*
X014092Y002541D01*
X014133Y002500D01*
X014092Y002459D01*
X014092Y001920D01*
X007208Y001920D01*
X007208Y001982D02*
X014092Y001982D01*
X014092Y002080D02*
X007208Y002080D01*
X007208Y002179D02*
X014092Y002179D01*
X014092Y002277D02*
X007208Y002277D01*
X007208Y002376D02*
X014092Y002376D01*
X014107Y002474D02*
X009151Y002474D01*
X009238Y002573D02*
X014092Y002573D01*
X014092Y002671D02*
X009238Y002671D01*
X009238Y002770D02*
X014092Y002770D01*
X014092Y002868D02*
X012635Y002868D01*
X012708Y002967D02*
X014092Y002967D01*
X014092Y003065D02*
X012708Y003065D01*
X012708Y003164D02*
X014097Y003164D01*
X014092Y003262D02*
X012708Y003262D01*
X012708Y003361D02*
X014092Y003361D01*
X014092Y003459D02*
X012708Y003459D01*
X012708Y003558D02*
X014092Y003558D01*
X014092Y003656D02*
X012611Y003656D01*
X012571Y003755D02*
X014092Y003755D01*
X014092Y003853D02*
X012658Y003853D01*
X012658Y003952D02*
X014185Y003952D01*
X014815Y003952D02*
X015935Y003952D01*
X015842Y003853D02*
X015714Y003853D01*
X015758Y003755D02*
X015842Y003755D01*
X015842Y003656D02*
X015758Y003656D01*
X015758Y003558D02*
X015842Y003558D01*
X015842Y003459D02*
X015758Y003459D01*
X015758Y003361D02*
X015842Y003361D01*
X015842Y003262D02*
X015758Y003262D01*
X015753Y003164D02*
X015847Y003164D01*
X015842Y003065D02*
X015758Y003065D01*
X015758Y002967D02*
X015842Y002967D01*
X015842Y002868D02*
X015758Y002868D01*
X015758Y002770D02*
X015842Y002770D01*
X015842Y002671D02*
X015758Y002671D01*
X015758Y002573D02*
X015842Y002573D01*
X015857Y002474D02*
X015743Y002474D01*
X015758Y002376D02*
X015842Y002376D01*
X015842Y002277D02*
X015758Y002277D01*
X015758Y002179D02*
X015842Y002179D01*
X015842Y002080D02*
X015758Y002080D01*
X015758Y001982D02*
X015842Y001982D01*
X014942Y001982D02*
X014908Y001982D01*
X014908Y002080D02*
X014942Y002080D01*
X014942Y002179D02*
X014908Y002179D01*
X014908Y002277D02*
X014942Y002277D01*
X014942Y002376D02*
X014908Y002376D01*
X014893Y002474D02*
X014957Y002474D01*
X014942Y002573D02*
X014908Y002573D01*
X014908Y002671D02*
X014942Y002671D01*
X014942Y002770D02*
X014908Y002770D01*
X014908Y002868D02*
X014942Y002868D01*
X014942Y002967D02*
X014908Y002967D01*
X014908Y003065D02*
X014942Y003065D01*
X014947Y003164D02*
X014903Y003164D01*
X014908Y003262D02*
X014942Y003262D01*
X014942Y003361D02*
X014908Y003361D01*
X014908Y003459D02*
X014942Y003459D01*
X014942Y003558D02*
X014908Y003558D01*
X014908Y003656D02*
X014942Y003656D01*
X014942Y003755D02*
X014908Y003755D01*
X014908Y003853D02*
X014986Y003853D01*
X016565Y003952D02*
X019350Y003952D01*
X019350Y004050D02*
X012658Y004050D01*
X012658Y004149D02*
X019350Y004149D01*
X019350Y004247D02*
X012658Y004247D01*
X012658Y004346D02*
X019350Y004346D01*
X019350Y003853D02*
X016658Y003853D01*
X016658Y003755D02*
X019350Y003755D01*
X019350Y003656D02*
X016658Y003656D01*
X016658Y003558D02*
X019350Y003558D01*
X019350Y003459D02*
X016658Y003459D01*
X016658Y003361D02*
X019350Y003361D01*
X019350Y003262D02*
X016658Y003262D01*
X016653Y003164D02*
X019350Y003164D01*
X019350Y003065D02*
X016658Y003065D01*
X016658Y002967D02*
X019350Y002967D01*
X019350Y002868D02*
X016658Y002868D01*
X016658Y002770D02*
X019350Y002770D01*
X019350Y002671D02*
X016658Y002671D01*
X016658Y002573D02*
X019350Y002573D01*
X019350Y002474D02*
X016643Y002474D01*
X016658Y002376D02*
X019350Y002376D01*
X019350Y002277D02*
X016658Y002277D01*
X016658Y002179D02*
X019350Y002179D01*
X019350Y002080D02*
X016658Y002080D01*
X016658Y001982D02*
X019350Y001982D01*
X019300Y006050D02*
X019850Y006600D01*
X019850Y009600D01*
X019350Y010100D01*
X016350Y010100D01*
X015850Y010600D01*
X016450Y010400D02*
X016450Y011000D01*
X016200Y011250D01*
X015500Y011250D01*
X015250Y011500D01*
X015850Y012100D02*
X013350Y012100D01*
X012850Y011600D01*
X004400Y011600D01*
X005550Y012650D02*
X002850Y012650D01*
X002600Y012900D01*
X002600Y013500D01*
X003100Y013550D02*
X003300Y013350D01*
X003100Y013550D02*
X003100Y017550D01*
X003750Y018200D01*
X013750Y018200D01*
X014050Y017900D01*
X014050Y017600D01*
X014550Y017100D02*
X014050Y016600D01*
X014550Y017100D02*
X015350Y017100D01*
X016150Y017900D01*
X020150Y017900D01*
X020850Y017200D01*
X020850Y017150D01*
X021850Y017050D02*
X021850Y014400D01*
X021550Y014100D01*
X021550Y013100D01*
X021050Y012600D01*
X021350Y012100D02*
X017350Y012100D01*
X017750Y012400D02*
X017550Y012600D01*
X017050Y012600D01*
X016950Y012500D01*
X016950Y010900D01*
X017000Y010850D01*
X016450Y010400D02*
X019400Y010400D01*
X020150Y009650D01*
X020150Y007200D01*
X020960Y006390D01*
X021650Y006390D01*
X019350Y006411D02*
X019209Y006270D01*
X009959Y006270D01*
X009830Y006141D01*
X009677Y005988D01*
X009561Y005988D01*
X009462Y005889D01*
X009462Y005311D01*
X009561Y005212D01*
X009900Y005212D01*
X009900Y005070D01*
X003150Y005070D01*
X003150Y005650D01*
X001011Y005650D01*
X000991Y005670D01*
X000870Y005791D01*
X000870Y009509D01*
X000941Y009580D01*
X002159Y009580D01*
X002680Y009059D01*
X002809Y008930D01*
X004341Y008930D01*
X004591Y009180D01*
X004941Y009180D01*
X005361Y009600D01*
X006689Y009600D01*
X006712Y009577D01*
X006712Y009423D01*
X006771Y009280D01*
X006880Y009171D01*
X007023Y009112D01*
X007177Y009112D01*
X007320Y009171D01*
X007429Y009280D01*
X007488Y009423D01*
X007488Y009577D01*
X007479Y009600D01*
X014501Y009600D01*
X014580Y009521D01*
X014723Y009462D01*
X014877Y009462D01*
X015020Y009521D01*
X015099Y009600D01*
X019350Y009600D01*
X019350Y006411D01*
X019350Y006414D02*
X000870Y006414D01*
X000870Y006316D02*
X019254Y006316D01*
X019350Y006513D02*
X000870Y006513D01*
X000870Y006611D02*
X019350Y006611D01*
X019350Y006710D02*
X000870Y006710D01*
X000870Y006808D02*
X019350Y006808D01*
X019350Y006907D02*
X000870Y006907D01*
X000870Y007005D02*
X019350Y007005D01*
X019350Y007104D02*
X000870Y007104D01*
X000870Y007202D02*
X019350Y007202D01*
X019350Y007301D02*
X000870Y007301D01*
X000870Y007399D02*
X019350Y007399D01*
X019350Y007498D02*
X000870Y007498D01*
X000870Y007596D02*
X019350Y007596D01*
X019350Y007695D02*
X000870Y007695D01*
X000870Y007793D02*
X019350Y007793D01*
X019350Y007892D02*
X000870Y007892D01*
X000870Y007990D02*
X019350Y007990D01*
X019350Y008089D02*
X000870Y008089D01*
X000870Y008187D02*
X019350Y008187D01*
X019350Y008286D02*
X000870Y008286D01*
X000870Y008384D02*
X019350Y008384D01*
X019350Y008483D02*
X000870Y008483D01*
X000870Y008581D02*
X019350Y008581D01*
X019350Y008680D02*
X000870Y008680D01*
X000870Y008778D02*
X019350Y008778D01*
X019350Y008877D02*
X000870Y008877D01*
X000870Y008975D02*
X002764Y008975D01*
X002665Y009074D02*
X000870Y009074D01*
X000870Y009172D02*
X002567Y009172D01*
X002468Y009271D02*
X000870Y009271D01*
X000870Y009369D02*
X002370Y009369D01*
X002271Y009468D02*
X000870Y009468D01*
X000927Y009566D02*
X002173Y009566D01*
X002250Y009800D02*
X002900Y009150D01*
X004250Y009150D01*
X004500Y009400D01*
X004850Y009400D01*
X005350Y009900D01*
X006700Y009900D01*
X007100Y009500D01*
X006734Y009369D02*
X005130Y009369D01*
X005032Y009271D02*
X006781Y009271D01*
X006879Y009172D02*
X004583Y009172D01*
X004485Y009074D02*
X019350Y009074D01*
X019350Y009172D02*
X007321Y009172D01*
X007419Y009271D02*
X019350Y009271D01*
X019350Y009369D02*
X007466Y009369D01*
X007488Y009468D02*
X014709Y009468D01*
X014891Y009468D02*
X019350Y009468D01*
X019350Y009566D02*
X015065Y009566D01*
X014800Y009850D02*
X014800Y010800D01*
X014350Y011250D01*
X009550Y011250D01*
X009400Y011100D01*
X008400Y010600D02*
X008150Y010850D01*
X003000Y010850D01*
X002000Y011850D01*
X002000Y017880D01*
X006150Y017600D02*
X006350Y017600D01*
X007850Y016100D01*
X008070Y016100D01*
X008560Y015610D01*
X011340Y015610D01*
X011350Y015600D01*
X012350Y015350D02*
X012350Y016000D01*
X012550Y016200D01*
X012550Y016900D01*
X012350Y017100D01*
X007900Y017100D01*
X007400Y017600D01*
X007760Y015410D02*
X007760Y014310D01*
X007960Y014110D01*
X006750Y013700D02*
X006100Y014350D01*
X006100Y015400D01*
X006750Y013700D02*
X010500Y013700D01*
X010600Y013600D01*
X011850Y013600D01*
X012050Y014400D02*
X013350Y013100D01*
X013350Y012600D01*
X012850Y012100D01*
X002600Y012100D01*
X001600Y011300D02*
X002500Y010400D01*
X007850Y010400D01*
X008400Y010600D02*
X013850Y010600D01*
X014535Y009566D02*
X007488Y009566D01*
X006712Y009566D02*
X005327Y009566D01*
X005229Y009468D02*
X006712Y009468D01*
X004600Y009800D02*
X003350Y009800D01*
X002250Y009800D02*
X000850Y009800D01*
X000650Y009600D01*
X000650Y005700D01*
X000900Y005450D01*
X000900Y001600D01*
X001690Y000810D01*
X004070Y000810D01*
X004600Y001340D01*
X004600Y004010D01*
X004690Y004100D01*
X008350Y004100D01*
X008850Y003600D01*
X008850Y002850D01*
X009238Y002868D02*
X010565Y002868D01*
X010492Y002967D02*
X009238Y002967D01*
X009238Y003065D02*
X010492Y003065D01*
X010492Y003164D02*
X009213Y003164D01*
X009070Y003262D02*
X010492Y003262D01*
X010492Y003361D02*
X009070Y003361D01*
X009070Y003459D02*
X010492Y003459D01*
X010492Y003558D02*
X009070Y003558D01*
X009070Y003656D02*
X010589Y003656D01*
X010579Y003755D02*
X009007Y003755D01*
X008908Y003853D02*
X010492Y003853D01*
X010492Y003952D02*
X008810Y003952D01*
X008711Y004050D02*
X010492Y004050D01*
X010492Y004149D02*
X008613Y004149D01*
X008514Y004247D02*
X010492Y004247D01*
X010492Y004346D02*
X001120Y004346D01*
X001120Y004444D02*
X010492Y004444D01*
X010576Y004543D02*
X001120Y004543D01*
X001120Y004641D02*
X010542Y004641D01*
X010492Y004740D02*
X001120Y004740D01*
X001120Y004838D02*
X010492Y004838D01*
X010492Y004937D02*
X010150Y004937D01*
X010150Y005035D02*
X010492Y005035D01*
X009900Y005134D02*
X003150Y005134D01*
X003150Y005232D02*
X009541Y005232D01*
X009462Y005331D02*
X003150Y005331D01*
X003150Y005429D02*
X009462Y005429D01*
X009462Y005528D02*
X003150Y005528D01*
X003150Y005626D02*
X009462Y005626D01*
X009462Y005725D02*
X000937Y005725D01*
X000991Y005670D02*
X000991Y005670D01*
X000870Y005823D02*
X009462Y005823D01*
X009495Y005922D02*
X000870Y005922D01*
X000870Y006020D02*
X009709Y006020D01*
X009807Y006119D02*
X000870Y006119D01*
X000870Y006217D02*
X009906Y006217D01*
X010050Y006050D02*
X019300Y006050D01*
X019350Y008975D02*
X004386Y008975D01*
X000750Y010050D02*
X000350Y009650D01*
X000350Y005550D01*
X000600Y005300D01*
X000600Y001300D01*
X001125Y001686D02*
X004380Y001686D01*
X004380Y001588D02*
X001224Y001588D01*
X001322Y001489D02*
X004380Y001489D01*
X004339Y001391D02*
X001421Y001391D01*
X001519Y001292D02*
X004241Y001292D01*
X004142Y001194D02*
X001618Y001194D01*
X001716Y001095D02*
X004044Y001095D01*
X004380Y001785D02*
X001120Y001785D01*
X001120Y001883D02*
X004380Y001883D01*
X004380Y001982D02*
X001120Y001982D01*
X001120Y002080D02*
X004380Y002080D01*
X004380Y002179D02*
X001120Y002179D01*
X001120Y002277D02*
X004380Y002277D01*
X004380Y002376D02*
X001120Y002376D01*
X001120Y002474D02*
X004380Y002474D01*
X004380Y002573D02*
X001120Y002573D01*
X001120Y002671D02*
X004380Y002671D01*
X004380Y002770D02*
X001120Y002770D01*
X001120Y002868D02*
X004380Y002868D01*
X004380Y002967D02*
X001120Y002967D01*
X001120Y003065D02*
X004380Y003065D01*
X004380Y003164D02*
X001120Y003164D01*
X001120Y003262D02*
X004380Y003262D01*
X004380Y003361D02*
X001120Y003361D01*
X001120Y003459D02*
X004380Y003459D01*
X004380Y003558D02*
X001120Y003558D01*
X001120Y003656D02*
X004380Y003656D01*
X004380Y003755D02*
X001120Y003755D01*
X001120Y003853D02*
X004380Y003853D01*
X004380Y003952D02*
X001120Y003952D01*
X001120Y004050D02*
X004380Y004050D01*
X004427Y004149D02*
X001120Y004149D01*
X001120Y004247D02*
X004526Y004247D01*
X004470Y004191D02*
X004470Y004191D01*
X002900Y004937D02*
X001120Y004937D01*
X001120Y005035D02*
X002900Y005035D01*
X002900Y005134D02*
X001120Y005134D01*
X001120Y005232D02*
X002900Y005232D01*
X007208Y003853D02*
X008286Y003853D01*
X008384Y003755D02*
X007208Y003755D01*
X007208Y003656D02*
X008483Y003656D01*
X008581Y003558D02*
X007208Y003558D01*
X007208Y003459D02*
X008630Y003459D01*
X008630Y003361D02*
X007208Y003361D01*
X007208Y003262D02*
X008630Y003262D01*
X008487Y003164D02*
X007203Y003164D01*
X007208Y003065D02*
X008462Y003065D01*
X008462Y002967D02*
X007208Y002967D01*
X007208Y002868D02*
X008462Y002868D01*
X008462Y002770D02*
X007208Y002770D01*
X007208Y002671D02*
X008462Y002671D01*
X008462Y002573D02*
X007208Y002573D01*
X007193Y002474D02*
X008549Y002474D01*
X011235Y002868D02*
X011265Y002868D01*
X011935Y002868D02*
X011965Y002868D01*
X009850Y005600D02*
X009850Y005850D01*
X010050Y006050D01*
X018200Y011300D02*
X018500Y011600D01*
X019850Y011600D01*
X020350Y011100D01*
X021350Y011100D01*
X021850Y010600D01*
X022050Y010600D01*
X021050Y010600D02*
X020150Y010600D01*
X019500Y011250D01*
X020150Y012400D02*
X017750Y012400D01*
X018200Y012850D02*
X016300Y012850D01*
X016000Y013150D01*
X016000Y014950D01*
X015850Y015100D01*
X014850Y015100D01*
X016050Y015800D02*
X016850Y016600D01*
X016850Y017400D01*
X017100Y017650D01*
X018750Y017650D01*
X019100Y017300D01*
X019100Y016500D01*
X019700Y015900D01*
X020050Y015900D01*
X020350Y015600D01*
X020350Y012600D01*
X020150Y012400D01*
X019500Y012900D02*
X019050Y012900D01*
X018350Y013600D01*
X018350Y014600D01*
X018850Y015100D01*
X019500Y015100D01*
X018500Y016100D01*
X017850Y016100D01*
X017350Y016600D01*
X017350Y017050D01*
X016050Y015800D02*
X012900Y015800D01*
X012350Y015350D02*
X012650Y015050D01*
X012650Y014950D01*
X014850Y012750D01*
X015250Y012750D01*
X012050Y014400D02*
X012050Y016600D01*
X005550Y013350D02*
X004100Y013350D01*
X000750Y011450D02*
X000750Y010050D01*
X021350Y012100D02*
X021850Y012600D01*
X022050Y012600D01*
D20*
X020350Y005100D02*
X012350Y005100D01*
X011850Y004600D01*
X011850Y004375D01*
X011600Y004125D01*
X007350Y001250D02*
X020220Y001250D01*
X021600Y002630D01*
X021600Y004078D02*
X021372Y004078D01*
X020350Y005100D01*
X007350Y001250D02*
X006300Y001250D01*
X005850Y001700D01*
X005850Y003040D01*
X005900Y003040D01*
X005900Y002850D01*
D21*
X008850Y002850D03*
X009760Y003210D03*
X009760Y003910D03*
X009760Y004510D03*
X009850Y005600D03*
X013460Y003310D03*
X013460Y002510D03*
X018360Y002910D03*
X019060Y002910D03*
X021650Y006390D03*
X005550Y012650D03*
X005550Y013350D03*
X004100Y013350D03*
X003300Y013350D03*
X002600Y013500D03*
X002600Y012100D03*
X004400Y011600D03*
M02*
