%
M48
M72
T01C0.0197
T02C0.0236
T03C0.0276
T04C0.0315
T05C0.0360
T06C0.0394
T07C0.0400
T08C0.0512
T09C0.1200
%
T01
X2994Y1500
X3794Y3000
X5144Y3750
X6844Y5300
X6344Y5580
X8044Y6150
X8024Y4580
X8094Y4000
X7081Y3479
X4794Y1350
X9344Y4000
X9794Y3650
X9694Y5300
X9654Y6000
X9754Y6510
X9644Y7050
X9354Y8020
X8964Y8460
X8044Y7730
X6844Y7750
X10194Y11700
X9494Y11900
X10844Y10350
X11494Y10400
X11644Y9800
X12294Y10300
X13394Y10750
X13333Y11536
X13944Y11536
X14556Y11536
X14556Y12209
X13944Y12209
X13333Y12209
X13333Y12881
X13944Y12881
X14556Y12881
X14458Y14438
X14458Y15050
X13786Y15050
X13786Y14438
X13113Y14438
X13113Y15050
X13113Y15662
X13786Y15662
X14458Y15662
X16044Y13650
X16733Y13359
X17344Y13359
X17344Y12686
X16733Y12686
X17956Y12686
X17956Y13359
X17956Y14031
X17344Y14031
X16733Y14031
X16731Y15738
X16731Y16350
X17403Y16350
X17403Y15738
X18075Y15738
X18075Y16350
X18075Y16962
X17403Y16962
X16731Y16962
X19344Y17650
X19144Y19600
X19294Y11700
X17994Y11000
X17494Y9750
X16194Y9200
X15694Y8550
X16444Y8100
X15144Y6650
X15244Y5850
X16944Y5600
X17594Y4300
X19144Y4850
X18194Y7250
X16194Y11000
X13394Y7850
X13394Y7250
X12344Y7250
X12394Y5900
X11344Y5600
X11344Y4500
X12024Y4499
X12644Y3700
X11244Y8500
X11044Y9100
X12194Y11800
X8756Y14786
X8144Y14786
X7533Y14786
X7533Y15459
X7533Y16131
X8144Y16131
X8756Y16131
X8756Y15459
X8144Y15459
X6444Y14900
X6544Y16400
X8013Y17788
X8013Y18400
X8013Y19012
X8686Y19012
X8686Y18400
X8686Y17788
X9358Y17788
X9358Y18400
X9358Y19012
X21394Y3000
X20644Y1050
T02
X15094Y4600
X11144Y3800
X9794Y8600
X6394Y17900
X6394Y18450
X6394Y19000
X6394Y19550
X5794Y19550
X5794Y19000
X5794Y18450
X5794Y17900
T03
X6894Y12961
X7894Y12961
X7894Y10500
X6894Y10500
T04
X8944Y7200
X8944Y6450
X8944Y5700
X10344Y13400
X10344Y14050
X10994Y14050
X10994Y13400
X11624Y13390
X11624Y14050
X11644Y14950
X11644Y15600
X10994Y15600
X10344Y15600
X10344Y14950
X10994Y14950
X19844Y14850
X19844Y14200
X20494Y14200
X21124Y14190
X21124Y14850
X20494Y14850
X20494Y15750
X20494Y16400
X21144Y16400
X21144Y15750
X19844Y15750
X19844Y16400
T05
X5704Y15920
X5704Y16920
T06
X3744Y16800
X3744Y15800
T07
X3244Y10000
X3244Y9000
X3244Y8000
X3244Y7000
X3244Y6000
X3244Y5000
X3244Y4000
X4244Y4000
X4244Y5000
X4244Y6000
X4244Y7000
X4244Y8000
X4244Y9000
X4244Y10000
X13544Y3200
X14544Y3200
X15544Y3200
X16794Y3200
X17794Y3200
X18794Y3200
X20244Y4000
X20244Y5000
X20244Y6000
X20244Y7000
X20244Y8000
X20244Y9000
X20244Y10000
X21244Y10000
X21244Y9000
X21244Y8000
X21244Y7000
X21244Y6000
X21244Y5000
X21244Y4000
X17744Y8200
X14744Y8200
T08
X15044Y18800
X13076Y18800
X11107Y18800
X3894Y13970
X3894Y11970
T09
X3944Y18700
X20694Y18700
M30
