G75*
G70*
%OFA0B0*%
%FSLAX24Y24*%
%IPPOS*%
%LPD*%
%AMOC8*
5,1,8,0,0,1.08239X$1,22.5*
%
%ADD10C,0.0060*%
%ADD11C,0.0080*%
%ADD12R,0.0300X0.0340*%
%ADD13R,0.0340X0.0300*%
%ADD14C,0.0020*%
%ADD15R,0.0200X0.0050*%
%ADD16C,0.0040*%
D10*
X002440Y011130D02*
X007260Y011130D01*
X007283Y011132D01*
X007306Y011137D01*
X007328Y011146D01*
X007348Y011159D01*
X007366Y011174D01*
X007381Y011192D01*
X007394Y011212D01*
X007403Y011234D01*
X007408Y011257D01*
X007410Y011280D01*
X007410Y013920D01*
X007408Y013943D01*
X007403Y013966D01*
X007394Y013988D01*
X007381Y014008D01*
X007366Y014026D01*
X007348Y014041D01*
X007328Y014054D01*
X007306Y014063D01*
X007283Y014068D01*
X007260Y014070D01*
X002440Y014070D01*
X002417Y014068D01*
X002394Y014063D01*
X002372Y014054D01*
X002352Y014041D01*
X002334Y014026D01*
X002319Y014008D01*
X002306Y013988D01*
X002297Y013966D01*
X002292Y013943D01*
X002290Y013920D01*
X002290Y013100D01*
X002290Y012100D01*
X002290Y011280D01*
X002292Y011257D01*
X002297Y011234D01*
X002306Y011212D01*
X002319Y011192D01*
X002334Y011174D01*
X002352Y011159D01*
X002372Y011146D01*
X002394Y011137D01*
X002417Y011132D01*
X002440Y011130D01*
X002290Y012100D02*
X002334Y012102D01*
X002377Y012108D01*
X002419Y012117D01*
X002461Y012130D01*
X002501Y012147D01*
X002540Y012167D01*
X002577Y012190D01*
X002611Y012217D01*
X002644Y012246D01*
X002673Y012279D01*
X002700Y012313D01*
X002723Y012350D01*
X002743Y012389D01*
X002760Y012429D01*
X002773Y012471D01*
X002782Y012513D01*
X002788Y012556D01*
X002790Y012600D01*
X002788Y012644D01*
X002782Y012687D01*
X002773Y012729D01*
X002760Y012771D01*
X002743Y012811D01*
X002723Y012850D01*
X002700Y012887D01*
X002673Y012921D01*
X002644Y012954D01*
X002611Y012983D01*
X002577Y013010D01*
X002540Y013033D01*
X002501Y013053D01*
X002461Y013070D01*
X002419Y013083D01*
X002377Y013092D01*
X002334Y013098D01*
X002290Y013100D01*
X014350Y013700D02*
X014450Y013600D01*
X015250Y013600D01*
X015350Y013700D01*
X015350Y014500D01*
X015250Y014600D01*
X015350Y014700D01*
X015350Y015500D01*
X015250Y015600D01*
X014450Y015600D01*
X014350Y015500D01*
X014350Y014700D01*
X014450Y014600D01*
X014350Y014500D01*
X014350Y013700D01*
X016650Y013700D02*
X016750Y013600D01*
X017550Y013600D01*
X017650Y013700D01*
X017650Y014500D01*
X017550Y014600D01*
X017650Y014700D01*
X017650Y015500D01*
X017550Y015600D01*
X016750Y015600D01*
X016650Y015500D01*
X016650Y014700D01*
X016750Y014600D01*
X016650Y014500D01*
X016650Y013700D01*
X019000Y013700D02*
X019100Y013600D01*
X019900Y013600D01*
X020000Y013700D01*
X020000Y014500D01*
X019900Y014600D01*
X020000Y014700D01*
X020000Y015500D01*
X019900Y015600D01*
X019100Y015600D01*
X019000Y015500D01*
X019000Y014700D01*
X019100Y014600D01*
X019000Y014500D01*
X019000Y013700D01*
D11*
X000683Y007899D02*
X000683Y003301D01*
X000998Y003301D01*
X000998Y007899D01*
X004069Y007899D01*
X004069Y003301D01*
X000998Y003301D01*
X005579Y004140D02*
X008018Y004140D01*
X008018Y001560D01*
X005579Y001560D01*
X010310Y002032D02*
X010310Y004471D01*
X008521Y006010D02*
X006082Y006010D01*
X006082Y008590D01*
X008521Y008590D01*
X010310Y009321D02*
X010310Y006882D01*
X012890Y006882D01*
X012890Y009321D01*
X015432Y009040D02*
X017871Y009040D01*
X015432Y009040D02*
X015432Y006460D01*
X017871Y006460D01*
X020261Y006361D02*
X022702Y006361D01*
X022702Y001794D01*
X020261Y001794D01*
X020261Y006361D01*
X022702Y006361D02*
X023017Y006361D01*
X023017Y001794D01*
X022702Y001794D01*
X017468Y001560D02*
X015029Y001560D01*
X012890Y002032D02*
X010310Y002032D01*
X012890Y002032D02*
X012890Y004471D01*
X015029Y004140D02*
X017468Y004140D01*
X017468Y001560D01*
X012494Y013313D02*
X011706Y013313D01*
X012100Y013313D02*
X012494Y013853D01*
X011706Y013853D01*
X012100Y013313D01*
X010844Y013313D02*
X010056Y013313D01*
X010450Y013313D02*
X010844Y013853D01*
X010056Y013853D01*
X010450Y013313D01*
X009244Y013313D02*
X008456Y013313D01*
X008850Y013313D02*
X009244Y013853D01*
X008456Y013853D01*
X008850Y013313D01*
X000998Y007899D02*
X000683Y007899D01*
D12*
X005892Y007300D03*
X008208Y002850D03*
X015242Y007750D03*
X017658Y002850D03*
D13*
X011600Y001842D03*
X011600Y006692D03*
D14*
X007400Y011270D02*
X002300Y011270D01*
D15*
X002600Y011105D03*
X003100Y011105D03*
X003600Y011105D03*
X004100Y011105D03*
X004600Y011105D03*
X005100Y011105D03*
X005600Y011105D03*
X006100Y011105D03*
X006600Y011105D03*
X007100Y011105D03*
X007100Y014095D03*
X006600Y014095D03*
X006100Y014095D03*
X005600Y014095D03*
X005100Y014095D03*
X004600Y014095D03*
X004100Y014095D03*
X003600Y014095D03*
X003100Y014095D03*
X002600Y014095D03*
D16*
X008100Y014490D02*
X008100Y012710D01*
X009600Y012710D02*
X009600Y014490D01*
X009700Y014490D02*
X009700Y012710D01*
X011200Y012710D02*
X011200Y014490D01*
X011350Y014490D02*
X011350Y012710D01*
X012850Y012710D02*
X012850Y014490D01*
M02*
