G75*
G70*
%OFA0B0*%
%FSLAX24Y24*%
%IPPOS*%
%LPD*%
%AMOC8*
5,1,8,0,0,1.08239X$1,22.5*
%
%ADD10C,0.0560*%
%ADD11C,0.0768*%
%ADD12C,0.0600*%
%ADD13C,0.0594*%
%ADD14C,0.0515*%
%ADD15C,0.0397*%
%ADD16C,0.0476*%
%ADD17C,0.0100*%
%ADD18C,0.0120*%
%ADD19C,0.0160*%
%ADD20C,0.0436*%
D10*
X005704Y015920D03*
X005704Y016920D03*
D11*
X003894Y013970D03*
X003894Y011970D03*
X011107Y018800D03*
X013076Y018800D03*
X015044Y018800D03*
D12*
X020244Y010000D03*
X020244Y009000D03*
X020244Y008000D03*
X020244Y007000D03*
X020244Y006000D03*
X020244Y005000D03*
X020244Y004000D03*
X021244Y004000D03*
X021244Y005000D03*
X021244Y006000D03*
X021244Y007000D03*
X021244Y008000D03*
X021244Y009000D03*
X021244Y010000D03*
X017744Y008200D03*
X014744Y008200D03*
X014544Y003200D03*
X013544Y003200D03*
X015544Y003200D03*
X016794Y003200D03*
X017794Y003200D03*
X018794Y003200D03*
X004244Y004000D03*
X003244Y004000D03*
X003244Y005000D03*
X003244Y006000D03*
X003244Y007000D03*
X003244Y008000D03*
X003244Y009000D03*
X003244Y010000D03*
X004244Y010000D03*
X004244Y009000D03*
X004244Y008000D03*
X004244Y007000D03*
X004244Y006000D03*
X004244Y005000D03*
D13*
X003744Y015800D03*
X003744Y016800D03*
D14*
X010344Y015600D03*
X010344Y014950D03*
X010994Y014950D03*
X010994Y015600D03*
X011644Y015600D03*
X011644Y014950D03*
X011624Y014050D03*
X011624Y013390D03*
X010994Y013400D03*
X010344Y013400D03*
X010344Y014050D03*
X010994Y014050D03*
X008944Y007200D03*
X008944Y006450D03*
X008944Y005700D03*
X019844Y014200D03*
X019844Y014850D03*
X020494Y014850D03*
X021124Y014850D03*
X021124Y014190D03*
X020494Y014200D03*
X020494Y015750D03*
X020494Y016400D03*
X021144Y016400D03*
X021144Y015750D03*
X019844Y015750D03*
X019844Y016400D03*
D15*
X019344Y017650D03*
X018075Y016962D03*
X018075Y016350D03*
X018075Y015738D03*
X017403Y015738D03*
X017403Y016350D03*
X016731Y016350D03*
X016731Y015738D03*
X016731Y016962D03*
X017403Y016962D03*
X019144Y019600D03*
X014458Y015662D03*
X013786Y015662D03*
X013786Y015050D03*
X013786Y014438D03*
X014458Y014438D03*
X014458Y015050D03*
X013113Y015050D03*
X013113Y014438D03*
X013113Y015662D03*
X013333Y012881D03*
X013944Y012881D03*
X014556Y012881D03*
X014556Y012209D03*
X013944Y012209D03*
X013333Y012209D03*
X013333Y011536D03*
X013944Y011536D03*
X014556Y011536D03*
X013394Y010750D03*
X012294Y010300D03*
X011644Y009800D03*
X011494Y010400D03*
X010844Y010350D03*
X011044Y009100D03*
X011244Y008500D03*
X012344Y007250D03*
X013394Y007250D03*
X013394Y007850D03*
X015144Y006650D03*
X015244Y005850D03*
X016944Y005600D03*
X017594Y004300D03*
X019144Y004850D03*
X018194Y007250D03*
X016444Y008100D03*
X015694Y008550D03*
X016194Y009200D03*
X017494Y009750D03*
X017994Y011000D03*
X019294Y011700D03*
X017956Y012686D03*
X017956Y013359D03*
X017344Y013359D03*
X016733Y013359D03*
X016733Y012686D03*
X017344Y012686D03*
X017344Y014031D03*
X016733Y014031D03*
X016044Y013650D03*
X017956Y014031D03*
X016194Y011000D03*
X012194Y011800D03*
X010194Y011700D03*
X009494Y011900D03*
X008756Y014786D03*
X008144Y014786D03*
X007533Y014786D03*
X007533Y015459D03*
X007533Y016131D03*
X008144Y016131D03*
X008756Y016131D03*
X008756Y015459D03*
X008144Y015459D03*
X006444Y014900D03*
X006544Y016400D03*
X008013Y017788D03*
X008013Y018400D03*
X008013Y019012D03*
X008686Y019012D03*
X008686Y018400D03*
X008686Y017788D03*
X009358Y017788D03*
X009358Y018400D03*
X009358Y019012D03*
X008964Y008460D03*
X009354Y008020D03*
X009644Y007050D03*
X009754Y006510D03*
X009654Y006000D03*
X009694Y005300D03*
X009344Y004000D03*
X009794Y003650D03*
X008094Y004000D03*
X008024Y004580D03*
X006844Y005300D03*
X006344Y005580D03*
X008044Y006150D03*
X008044Y007730D03*
X006844Y007750D03*
X005144Y003750D03*
X003794Y003000D03*
X002994Y001500D03*
X004794Y001350D03*
X007081Y003479D03*
X011344Y004500D03*
X012024Y004499D03*
X012644Y003700D03*
X011344Y005600D03*
X012394Y005900D03*
X020644Y001050D03*
X021394Y003000D03*
D16*
X007894Y010500D03*
X006894Y010500D03*
X006894Y012961D03*
X007894Y012961D03*
D17*
X002744Y001750D02*
X002994Y001500D01*
X002744Y001750D02*
X002744Y005750D01*
X002994Y006000D01*
X003244Y006000D01*
X003744Y005550D02*
X004194Y006000D01*
X004244Y006000D01*
X003744Y005550D02*
X003744Y003550D01*
X003644Y003450D01*
X003244Y003450D01*
X003144Y003350D01*
X003144Y002050D01*
X003544Y001650D01*
X004494Y001650D01*
X004794Y001350D01*
X004194Y003000D02*
X003794Y003000D01*
X004194Y003000D02*
X004244Y003050D01*
X005244Y003050D01*
X005344Y003150D01*
X007494Y003150D01*
X007644Y003300D01*
X009494Y003300D01*
X009594Y003200D01*
X010044Y003200D01*
X010144Y003300D01*
X012794Y003300D01*
X013544Y002550D01*
X019394Y002550D01*
X019594Y002350D01*
X019594Y001550D01*
X020094Y001050D01*
X020644Y001050D01*
X021394Y003000D02*
X021794Y003400D01*
X021794Y007200D01*
X021244Y007750D01*
X021244Y008000D01*
X019394Y006650D02*
X019194Y006450D01*
X015844Y006450D01*
X015244Y005850D01*
X013814Y004700D02*
X014644Y003870D01*
X015464Y003870D01*
X015554Y003780D01*
X015554Y003210D01*
X015544Y003200D01*
X013814Y004700D02*
X013814Y008070D01*
X013574Y008310D01*
X013004Y008310D01*
X012474Y007780D01*
X009734Y007780D01*
X009564Y007610D01*
X009304Y007610D01*
X009214Y007700D01*
X008944Y007700D01*
X008194Y008450D01*
X006444Y008450D01*
X005494Y007500D01*
X003894Y007500D01*
X003394Y008000D01*
X003244Y008000D01*
X008024Y004580D02*
X008044Y004580D01*
X009794Y003650D02*
X010294Y003650D01*
X010344Y003700D01*
X010344Y006700D01*
X010294Y006750D01*
X009994Y006750D01*
X009754Y006510D01*
X009744Y006950D02*
X009644Y007050D01*
X009744Y006950D02*
X010894Y006950D01*
X011044Y006800D01*
X012544Y006800D01*
X012994Y007250D01*
X013394Y007250D01*
X012294Y009000D02*
X012294Y010300D01*
X012294Y009000D02*
X011274Y008030D01*
X009354Y008020D01*
X018844Y017550D02*
X019094Y017300D01*
X019694Y017300D01*
X019844Y017150D01*
X021744Y017150D01*
X021844Y017050D01*
X021844Y010850D01*
X021644Y010650D01*
X019644Y010650D01*
X019394Y010400D01*
X019394Y006650D01*
X018844Y017550D02*
X018844Y017850D01*
X019144Y018150D01*
X019144Y019600D01*
D18*
X008044Y007730D02*
X008044Y006150D01*
X007894Y006000D01*
X004244Y006000D01*
X008044Y006150D02*
X008044Y004580D01*
D19*
X010774Y004621D02*
X011449Y004621D01*
X011446Y004614D02*
X011446Y004384D01*
X011477Y004310D01*
X011263Y004398D01*
X011025Y004398D01*
X010806Y004307D01*
X010774Y004276D01*
X010774Y005465D01*
X010854Y005272D01*
X011017Y005110D01*
X011229Y005022D01*
X011459Y005022D01*
X011672Y005110D01*
X011835Y005272D01*
X011923Y005485D01*
X011923Y005554D01*
X012067Y005410D01*
X012279Y005322D01*
X012509Y005322D01*
X012722Y005410D01*
X012885Y005572D01*
X012973Y005785D01*
X012973Y006015D01*
X012885Y006228D01*
X012722Y006390D01*
X012700Y006399D01*
X012788Y006435D01*
X012909Y006556D01*
X013099Y006746D01*
X013279Y006672D01*
X013384Y006672D01*
X013384Y004614D01*
X013450Y004456D01*
X014144Y003762D01*
X014044Y003662D01*
X013930Y003776D01*
X013680Y003880D01*
X013409Y003880D01*
X013223Y003803D01*
X013223Y003815D01*
X013135Y004028D01*
X012972Y004190D01*
X012759Y004278D01*
X012559Y004278D01*
X012603Y004384D01*
X012603Y004614D01*
X012515Y004827D01*
X012352Y004989D01*
X012139Y005077D01*
X011909Y005077D01*
X011697Y004989D01*
X011534Y004827D01*
X011446Y004614D01*
X011446Y004463D02*
X010774Y004463D01*
X010774Y004304D02*
X010802Y004304D01*
X010774Y004780D02*
X011514Y004780D01*
X011645Y004938D02*
X010774Y004938D01*
X010774Y005097D02*
X011048Y005097D01*
X010871Y005255D02*
X010774Y005255D01*
X010774Y005414D02*
X010795Y005414D01*
X011640Y005097D02*
X013384Y005097D01*
X013384Y005255D02*
X011817Y005255D01*
X011893Y005414D02*
X012063Y005414D01*
X012403Y004938D02*
X013384Y004938D01*
X013384Y004780D02*
X012534Y004780D01*
X012600Y004621D02*
X013384Y004621D01*
X013447Y004463D02*
X012603Y004463D01*
X012570Y004304D02*
X013602Y004304D01*
X013761Y004146D02*
X013017Y004146D01*
X013152Y003987D02*
X013919Y003987D01*
X013804Y003829D02*
X014078Y003829D01*
X014053Y003670D02*
X014036Y003670D01*
X013285Y003829D02*
X013217Y003829D01*
X014244Y004878D02*
X014244Y007738D01*
X014359Y007624D01*
X014609Y007520D01*
X014880Y007520D01*
X015130Y007624D01*
X015321Y007815D01*
X015414Y008040D01*
X015579Y007972D01*
X015809Y007972D01*
X015866Y007995D01*
X015866Y007985D01*
X015954Y007772D01*
X016117Y007610D01*
X016329Y007522D01*
X016559Y007522D01*
X016772Y007610D01*
X016935Y007772D01*
X017023Y007985D01*
X017023Y008215D01*
X016935Y008428D01*
X016772Y008590D01*
X016559Y008678D01*
X016447Y008678D01*
X016522Y008710D01*
X016685Y008872D01*
X016773Y009085D01*
X016773Y009315D01*
X016685Y009528D01*
X016522Y009690D01*
X016309Y009778D01*
X016079Y009778D01*
X015867Y009690D01*
X015704Y009528D01*
X015616Y009315D01*
X015616Y009128D01*
X015579Y009128D01*
X015367Y009040D01*
X015204Y008878D01*
X015153Y008753D01*
X015130Y008776D01*
X014880Y008880D01*
X014609Y008880D01*
X014359Y008776D01*
X014168Y008585D01*
X014092Y008401D01*
X014058Y008435D01*
X013818Y008675D01*
X013660Y008740D01*
X012919Y008740D01*
X012761Y008675D01*
X012640Y008554D01*
X012296Y008210D01*
X012088Y008210D01*
X012533Y008633D01*
X012538Y008635D01*
X012595Y008692D01*
X012653Y008747D01*
X012655Y008752D01*
X012659Y008756D01*
X012690Y008830D01*
X012722Y008904D01*
X012722Y008909D01*
X012724Y008914D01*
X012724Y008995D01*
X012726Y009075D01*
X012724Y009080D01*
X012724Y009912D01*
X012785Y009972D01*
X012873Y010185D01*
X012873Y010415D01*
X012785Y010628D01*
X012622Y010790D01*
X012409Y010878D01*
X012179Y010878D01*
X011967Y010790D01*
X011944Y010768D01*
X011822Y010890D01*
X011609Y010978D01*
X011379Y010978D01*
X011167Y010890D01*
X011133Y010857D01*
X010959Y010928D01*
X010729Y010928D01*
X010517Y010840D01*
X010354Y010678D01*
X010266Y010465D01*
X010266Y010235D01*
X010354Y010022D01*
X010517Y009860D01*
X010729Y009772D01*
X010959Y009772D01*
X011066Y009816D01*
X011066Y009685D01*
X011069Y009678D01*
X010929Y009678D01*
X010717Y009590D01*
X010554Y009428D01*
X010466Y009215D01*
X010466Y008985D01*
X010554Y008772D01*
X010679Y008647D01*
X010666Y008615D01*
X010666Y008457D01*
X010382Y008455D01*
X010392Y008481D01*
X010392Y008719D01*
X010301Y008939D01*
X010133Y009107D01*
X009913Y009198D01*
X009675Y009198D01*
X009456Y009107D01*
X009295Y008947D01*
X009292Y008950D01*
X009079Y009038D01*
X008849Y009038D01*
X008637Y008950D01*
X008474Y008788D01*
X008471Y008781D01*
X008438Y008815D01*
X008280Y008880D01*
X006359Y008880D01*
X006201Y008815D01*
X006080Y008694D01*
X005316Y007930D01*
X004924Y007930D01*
X004924Y008135D01*
X004821Y008385D01*
X004706Y008500D01*
X004821Y008615D01*
X004924Y008865D01*
X004924Y009135D01*
X004821Y009385D01*
X004706Y009500D01*
X004821Y009615D01*
X004924Y009865D01*
X004924Y010135D01*
X004821Y010385D01*
X004630Y010576D01*
X004380Y010680D01*
X004109Y010680D01*
X003859Y010576D01*
X003744Y010462D01*
X003630Y010576D01*
X003380Y010680D01*
X003109Y010680D01*
X002874Y010583D01*
X002874Y018700D01*
X002883Y018840D01*
X002956Y019109D01*
X003095Y019351D01*
X003293Y019549D01*
X003535Y019689D01*
X003805Y019761D01*
X003944Y019770D01*
X018589Y019770D01*
X018566Y019715D01*
X018566Y019485D01*
X018654Y019272D01*
X018714Y019212D01*
X018714Y018328D01*
X018601Y018215D01*
X018480Y018094D01*
X018414Y017936D01*
X018414Y017464D01*
X018431Y017424D01*
X018403Y017452D01*
X018190Y017540D01*
X017960Y017540D01*
X017748Y017452D01*
X017739Y017444D01*
X017731Y017452D01*
X017518Y017540D01*
X017288Y017540D01*
X017075Y017452D01*
X017067Y017444D01*
X017058Y017452D01*
X016846Y017540D01*
X016615Y017540D01*
X016403Y017452D01*
X016240Y017289D01*
X016152Y017077D01*
X016152Y016847D01*
X016231Y016656D01*
X016152Y016465D01*
X016152Y016235D01*
X016231Y016044D01*
X016152Y015853D01*
X016152Y015623D01*
X016240Y015411D01*
X016403Y015248D01*
X016615Y015160D01*
X016846Y015160D01*
X017058Y015248D01*
X017067Y015256D01*
X017075Y015248D01*
X017288Y015160D01*
X017518Y015160D01*
X017731Y015248D01*
X017739Y015256D01*
X017748Y015248D01*
X017960Y015160D01*
X018190Y015160D01*
X018403Y015248D01*
X018566Y015411D01*
X018654Y015623D01*
X018654Y015853D01*
X018575Y016044D01*
X018654Y016235D01*
X018654Y016465D01*
X018575Y016656D01*
X018654Y016847D01*
X018654Y017077D01*
X018615Y017172D01*
X018730Y017056D01*
X018851Y016935D01*
X019009Y016870D01*
X019413Y016870D01*
X019304Y016761D01*
X019207Y016527D01*
X019207Y016273D01*
X019289Y016075D01*
X019207Y015877D01*
X019207Y015623D01*
X019304Y015389D01*
X019483Y015210D01*
X019718Y015113D01*
X019971Y015113D01*
X020169Y015195D01*
X020368Y015113D01*
X020621Y015113D01*
X020819Y015195D01*
X021018Y015113D01*
X021271Y015113D01*
X021414Y015172D01*
X021414Y011080D01*
X019559Y011080D01*
X019401Y011015D01*
X019151Y010765D01*
X019030Y010644D01*
X018456Y010644D01*
X018485Y010672D02*
X018573Y010885D01*
X018573Y011115D01*
X018485Y011328D01*
X018322Y011490D01*
X018109Y011578D01*
X017879Y011578D01*
X017667Y011490D01*
X017504Y011328D01*
X017416Y011115D01*
X017416Y010885D01*
X017504Y010672D01*
X017667Y010510D01*
X017879Y010422D01*
X018109Y010422D01*
X018322Y010510D01*
X018485Y010672D01*
X018539Y010803D02*
X019189Y010803D01*
X019347Y010961D02*
X018573Y010961D01*
X018571Y011120D02*
X021414Y011120D01*
X021414Y011278D02*
X019690Y011278D01*
X019622Y011210D02*
X019785Y011372D01*
X019873Y011585D01*
X019873Y011815D01*
X019785Y012028D01*
X019622Y012190D01*
X019409Y012278D01*
X019179Y012278D01*
X018967Y012190D01*
X018804Y012028D01*
X018716Y011815D01*
X018716Y011585D01*
X018804Y011372D01*
X018967Y011210D01*
X019179Y011122D01*
X019409Y011122D01*
X019622Y011210D01*
X019811Y011437D02*
X021414Y011437D01*
X021414Y011595D02*
X019873Y011595D01*
X019873Y011754D02*
X021414Y011754D01*
X021414Y011912D02*
X019833Y011912D01*
X019742Y012071D02*
X021414Y012071D01*
X021414Y012229D02*
X019529Y012229D01*
X019060Y012229D02*
X018317Y012229D01*
X018284Y012196D02*
X018446Y012359D01*
X018535Y012571D01*
X018535Y012801D01*
X018446Y013014D01*
X018438Y013022D01*
X018446Y013031D01*
X018535Y013244D01*
X018535Y013474D01*
X018446Y013686D01*
X018438Y013695D01*
X018446Y013703D01*
X018535Y013916D01*
X018535Y014146D01*
X018446Y014359D01*
X018284Y014521D01*
X018071Y014610D01*
X017841Y014610D01*
X017650Y014530D01*
X017459Y014610D01*
X017229Y014610D01*
X017038Y014530D01*
X016848Y014610D01*
X016617Y014610D01*
X016405Y014521D01*
X016242Y014359D01*
X016184Y014218D01*
X016159Y014228D01*
X015929Y014228D01*
X015717Y014140D01*
X015554Y013978D01*
X015466Y013765D01*
X015466Y013535D01*
X015554Y013322D01*
X015717Y013160D01*
X015929Y013072D01*
X016159Y013072D01*
X016216Y013095D01*
X016242Y013031D01*
X016251Y013022D01*
X016242Y013014D01*
X016154Y012801D01*
X016154Y012571D01*
X016242Y012359D01*
X016405Y012196D01*
X016617Y012108D01*
X016848Y012108D01*
X017038Y012187D01*
X017229Y012108D01*
X017459Y012108D01*
X017650Y012187D01*
X017841Y012108D01*
X018071Y012108D01*
X018284Y012196D01*
X018458Y012388D02*
X021414Y012388D01*
X021414Y012546D02*
X018524Y012546D01*
X018535Y012705D02*
X021414Y012705D01*
X021414Y012863D02*
X018509Y012863D01*
X018439Y013022D02*
X021414Y013022D01*
X021414Y013180D02*
X018508Y013180D01*
X018535Y013339D02*
X021414Y013339D01*
X021414Y013497D02*
X018525Y013497D01*
X018459Y013656D02*
X021414Y013656D01*
X021414Y013814D02*
X018492Y013814D01*
X018535Y013973D02*
X021414Y013973D01*
X021414Y014131D02*
X018535Y014131D01*
X018475Y014290D02*
X021414Y014290D01*
X021414Y014448D02*
X018357Y014448D01*
X018078Y014607D02*
X021414Y014607D01*
X021414Y014765D02*
X014966Y014765D01*
X014957Y014744D02*
X015037Y014935D01*
X015037Y015165D01*
X014957Y015356D01*
X015037Y015547D01*
X015037Y015777D01*
X014948Y015989D01*
X014786Y016152D01*
X014573Y016240D01*
X014343Y016240D01*
X014130Y016152D01*
X014122Y016144D01*
X014113Y016152D01*
X013901Y016240D01*
X013671Y016240D01*
X013458Y016152D01*
X013449Y016144D01*
X013441Y016152D01*
X013228Y016240D01*
X012998Y016240D01*
X012786Y016152D01*
X012623Y015989D01*
X012535Y015777D01*
X012535Y015547D01*
X012614Y015356D01*
X012535Y015165D01*
X012535Y014935D01*
X012614Y014744D01*
X012535Y014553D01*
X012535Y014323D01*
X012623Y014111D01*
X012786Y013948D01*
X012998Y013860D01*
X013228Y013860D01*
X013441Y013948D01*
X013449Y013956D01*
X013458Y013948D01*
X013671Y013860D01*
X013901Y013860D01*
X014113Y013948D01*
X014122Y013956D01*
X014130Y013948D01*
X014343Y013860D01*
X014573Y013860D01*
X014786Y013948D01*
X014948Y014111D01*
X015037Y014323D01*
X015037Y014553D01*
X014957Y014744D01*
X015014Y014607D02*
X016610Y014607D01*
X016855Y014607D02*
X017222Y014607D01*
X017467Y014607D02*
X017834Y014607D01*
X017765Y015241D02*
X017713Y015241D01*
X018385Y015241D02*
X019452Y015241D01*
X019300Y015399D02*
X018554Y015399D01*
X018627Y015558D02*
X019234Y015558D01*
X019207Y015716D02*
X018654Y015716D01*
X018645Y015875D02*
X019207Y015875D01*
X019272Y016033D02*
X018579Y016033D01*
X018636Y016192D02*
X019241Y016192D01*
X019207Y016350D02*
X018654Y016350D01*
X018636Y016509D02*
X019207Y016509D01*
X019265Y016667D02*
X018579Y016667D01*
X018645Y016826D02*
X019368Y016826D01*
X018802Y016984D02*
X018654Y016984D01*
X018644Y017143D02*
X018627Y017143D01*
X018416Y017460D02*
X018385Y017460D01*
X018414Y017618D02*
X009914Y017618D01*
X009937Y017673D02*
X009937Y017903D01*
X009857Y018094D01*
X009937Y018285D01*
X009937Y018515D01*
X009857Y018706D01*
X009937Y018897D01*
X009937Y019127D01*
X009848Y019339D01*
X009686Y019502D01*
X009473Y019590D01*
X009243Y019590D01*
X009030Y019502D01*
X009022Y019494D01*
X009013Y019502D01*
X008801Y019590D01*
X008571Y019590D01*
X008358Y019502D01*
X008349Y019494D01*
X008341Y019502D01*
X008128Y019590D01*
X007898Y019590D01*
X007686Y019502D01*
X007523Y019339D01*
X007435Y019127D01*
X007435Y018897D01*
X007514Y018706D01*
X007435Y018515D01*
X007435Y018285D01*
X007514Y018094D01*
X007435Y017903D01*
X007435Y017673D01*
X007523Y017461D01*
X007686Y017298D01*
X007898Y017210D01*
X008128Y017210D01*
X008341Y017298D01*
X008349Y017306D01*
X008358Y017298D01*
X008571Y017210D01*
X008801Y017210D01*
X009013Y017298D01*
X009022Y017306D01*
X009030Y017298D01*
X009243Y017210D01*
X009473Y017210D01*
X009686Y017298D01*
X009848Y017461D01*
X009937Y017673D01*
X009937Y017777D02*
X018414Y017777D01*
X018414Y017935D02*
X009923Y017935D01*
X009858Y018094D02*
X010817Y018094D01*
X010955Y018036D02*
X010675Y018152D01*
X010460Y018367D01*
X010343Y018648D01*
X010343Y018952D01*
X010460Y019233D01*
X010675Y019448D01*
X010955Y019564D01*
X011259Y019564D01*
X011540Y019448D01*
X011755Y019233D01*
X011871Y018952D01*
X011871Y018648D01*
X011755Y018367D01*
X011540Y018152D01*
X011259Y018036D01*
X010955Y018036D01*
X010575Y018252D02*
X009923Y018252D01*
X009937Y018411D02*
X010442Y018411D01*
X010376Y018569D02*
X009914Y018569D01*
X009866Y018728D02*
X010343Y018728D01*
X010343Y018886D02*
X009932Y018886D01*
X009937Y019045D02*
X010382Y019045D01*
X010447Y019203D02*
X009905Y019203D01*
X009826Y019362D02*
X010589Y019362D01*
X010850Y019520D02*
X009643Y019520D01*
X009074Y019520D02*
X008970Y019520D01*
X008401Y019520D02*
X008298Y019520D01*
X007729Y019520D02*
X004510Y019520D01*
X004499Y019531D02*
X004139Y019680D01*
X003749Y019680D01*
X003389Y019531D01*
X003114Y019255D01*
X002964Y018895D01*
X002964Y018505D01*
X003114Y018145D01*
X003389Y017869D01*
X003749Y017720D01*
X004139Y017720D01*
X004499Y017869D01*
X004775Y018145D01*
X004924Y018505D01*
X004924Y018895D01*
X004775Y019255D01*
X004499Y019531D01*
X004669Y019362D02*
X007545Y019362D01*
X007466Y019203D02*
X004797Y019203D01*
X004862Y019045D02*
X007435Y019045D01*
X007439Y018886D02*
X004924Y018886D01*
X004924Y018728D02*
X007505Y018728D01*
X007457Y018569D02*
X004924Y018569D01*
X004885Y018411D02*
X007435Y018411D01*
X007448Y018252D02*
X004820Y018252D01*
X004724Y018094D02*
X007514Y018094D01*
X007448Y017935D02*
X004565Y017935D01*
X004276Y017777D02*
X007435Y017777D01*
X007458Y017618D02*
X002874Y017618D01*
X002874Y017460D02*
X003568Y017460D01*
X003610Y017477D02*
X003361Y017374D01*
X003171Y017183D01*
X003067Y016935D01*
X003067Y016665D01*
X003171Y016417D01*
X003287Y016300D01*
X003171Y016183D01*
X003067Y015935D01*
X003067Y015665D01*
X003171Y015417D01*
X003361Y015226D01*
X003610Y015123D01*
X003879Y015123D01*
X004128Y015226D01*
X004318Y015417D01*
X004421Y015665D01*
X004421Y015935D01*
X004318Y016183D01*
X004202Y016300D01*
X004318Y016417D01*
X004421Y016665D01*
X004421Y016935D01*
X004318Y017183D01*
X004128Y017374D01*
X003879Y017477D01*
X003610Y017477D01*
X003613Y017777D02*
X002874Y017777D01*
X002874Y017935D02*
X003323Y017935D01*
X003165Y018094D02*
X002874Y018094D01*
X002874Y018252D02*
X003069Y018252D01*
X003003Y018411D02*
X002874Y018411D01*
X002874Y018569D02*
X002964Y018569D01*
X002964Y018728D02*
X002876Y018728D01*
X002896Y018886D02*
X002964Y018886D01*
X002938Y019045D02*
X003026Y019045D01*
X003010Y019203D02*
X003092Y019203D01*
X003106Y019362D02*
X003220Y019362D01*
X003264Y019520D02*
X003378Y019520D01*
X003517Y019679D02*
X003746Y019679D01*
X004143Y019679D02*
X018566Y019679D01*
X018566Y019520D02*
X015302Y019520D01*
X015196Y019564D02*
X015477Y019448D01*
X015692Y019233D01*
X015808Y018952D01*
X015808Y018648D01*
X015692Y018367D01*
X015477Y018152D01*
X015196Y018036D01*
X014892Y018036D01*
X014612Y018152D01*
X014397Y018367D01*
X014280Y018648D01*
X014280Y018952D01*
X014397Y019233D01*
X014612Y019448D01*
X014892Y019564D01*
X015196Y019564D01*
X014787Y019520D02*
X013334Y019520D01*
X013228Y019564D02*
X013509Y019448D01*
X013723Y019233D01*
X013840Y018952D01*
X013840Y018648D01*
X013723Y018367D01*
X013509Y018152D01*
X013228Y018036D01*
X012924Y018036D01*
X012643Y018152D01*
X012428Y018367D01*
X012312Y018648D01*
X012312Y018952D01*
X012428Y019233D01*
X012643Y019448D01*
X012924Y019564D01*
X013228Y019564D01*
X012818Y019520D02*
X011365Y019520D01*
X011626Y019362D02*
X012557Y019362D01*
X012416Y019203D02*
X011767Y019203D01*
X011833Y019045D02*
X012350Y019045D01*
X012312Y018886D02*
X011871Y018886D01*
X011871Y018728D02*
X012312Y018728D01*
X012345Y018569D02*
X011838Y018569D01*
X011773Y018411D02*
X012410Y018411D01*
X012544Y018252D02*
X011640Y018252D01*
X011398Y018094D02*
X012785Y018094D01*
X013366Y018094D02*
X014754Y018094D01*
X014512Y018252D02*
X013608Y018252D01*
X013741Y018411D02*
X014379Y018411D01*
X014313Y018569D02*
X013807Y018569D01*
X013840Y018728D02*
X014280Y018728D01*
X014280Y018886D02*
X013840Y018886D01*
X013801Y019045D02*
X014319Y019045D01*
X014384Y019203D02*
X013736Y019203D01*
X013595Y019362D02*
X014526Y019362D01*
X015563Y019362D02*
X018617Y019362D01*
X018714Y019203D02*
X015704Y019203D01*
X015770Y019045D02*
X018714Y019045D01*
X018714Y018886D02*
X015808Y018886D01*
X015808Y018728D02*
X018714Y018728D01*
X018714Y018569D02*
X015775Y018569D01*
X015710Y018411D02*
X018714Y018411D01*
X018638Y018252D02*
X015577Y018252D01*
X015335Y018094D02*
X018480Y018094D01*
X017766Y017460D02*
X017713Y017460D01*
X017093Y017460D02*
X017040Y017460D01*
X016421Y017460D02*
X009847Y017460D01*
X009689Y017301D02*
X016252Y017301D01*
X016179Y017143D02*
X006327Y017143D01*
X006364Y017051D02*
X006264Y017294D01*
X006078Y017480D01*
X005836Y017580D01*
X005573Y017580D01*
X005330Y017480D01*
X005145Y017294D01*
X005044Y017051D01*
X005044Y016789D01*
X005145Y016546D01*
X005271Y016420D01*
X005145Y016294D01*
X005044Y016051D01*
X005044Y015789D01*
X005145Y015546D01*
X005330Y015360D01*
X005573Y015260D01*
X005836Y015260D01*
X006078Y015360D01*
X006264Y015546D01*
X006364Y015789D01*
X006364Y015848D01*
X006429Y015822D01*
X006659Y015822D01*
X006872Y015910D01*
X006961Y015999D01*
X007042Y015803D01*
X007051Y015795D01*
X007042Y015786D01*
X006954Y015574D01*
X006954Y015344D01*
X007042Y015131D01*
X007051Y015122D01*
X007042Y015114D01*
X007012Y015041D01*
X006935Y015228D01*
X006772Y015390D01*
X006559Y015478D01*
X006329Y015478D01*
X006117Y015390D01*
X005954Y015228D01*
X005866Y015015D01*
X005866Y014785D01*
X005954Y014572D01*
X006117Y014410D01*
X006329Y014322D01*
X006559Y014322D01*
X006772Y014410D01*
X006935Y014572D01*
X006965Y014645D01*
X007042Y014459D01*
X007205Y014296D01*
X007417Y014208D01*
X007648Y014208D01*
X007838Y014287D01*
X008029Y014208D01*
X008259Y014208D01*
X008450Y014287D01*
X008641Y014208D01*
X008871Y014208D01*
X009084Y014296D01*
X009246Y014459D01*
X009335Y014671D01*
X009335Y014901D01*
X009246Y015114D01*
X009238Y015122D01*
X009246Y015131D01*
X009335Y015344D01*
X009335Y015574D01*
X009246Y015786D01*
X009238Y015795D01*
X009246Y015803D01*
X009335Y016016D01*
X009335Y016246D01*
X009246Y016459D01*
X009084Y016621D01*
X008871Y016710D01*
X008641Y016710D01*
X008450Y016630D01*
X008259Y016710D01*
X008029Y016710D01*
X007838Y016630D01*
X007648Y016710D01*
X007417Y016710D01*
X007205Y016621D01*
X007116Y016532D01*
X007035Y016728D01*
X006872Y016890D01*
X006659Y016978D01*
X006429Y016978D01*
X006364Y016952D01*
X006364Y017051D01*
X006364Y016984D02*
X016152Y016984D01*
X016161Y016826D02*
X006937Y016826D01*
X007060Y016667D02*
X007315Y016667D01*
X007750Y016667D02*
X007927Y016667D01*
X008362Y016667D02*
X008538Y016667D01*
X008974Y016667D02*
X016227Y016667D01*
X016170Y016509D02*
X009197Y016509D01*
X009292Y016350D02*
X016152Y016350D01*
X016170Y016192D02*
X014691Y016192D01*
X014905Y016033D02*
X016227Y016033D01*
X016161Y015875D02*
X014996Y015875D01*
X015037Y015716D02*
X016152Y015716D01*
X016179Y015558D02*
X015037Y015558D01*
X014975Y015399D02*
X016252Y015399D01*
X016421Y015241D02*
X015005Y015241D01*
X015037Y015082D02*
X021414Y015082D01*
X021414Y014924D02*
X015032Y014924D01*
X015037Y014448D02*
X016331Y014448D01*
X016213Y014290D02*
X015023Y014290D01*
X014957Y014131D02*
X015707Y014131D01*
X015552Y013973D02*
X014810Y013973D01*
X014671Y013460D02*
X014441Y013460D01*
X014250Y013380D01*
X014059Y013460D01*
X013829Y013460D01*
X013638Y013380D01*
X013448Y013460D01*
X013217Y013460D01*
X013005Y013371D01*
X012842Y013209D01*
X012754Y012996D01*
X012754Y012766D01*
X012842Y012553D01*
X012851Y012545D01*
X012842Y012536D01*
X012754Y012324D01*
X012754Y012094D01*
X012842Y011881D01*
X012851Y011872D01*
X012842Y011864D01*
X012773Y011696D01*
X012773Y011915D01*
X012685Y012128D01*
X012522Y012290D01*
X012309Y012378D01*
X012079Y012378D01*
X011867Y012290D01*
X011704Y012128D01*
X011616Y011915D01*
X011616Y011685D01*
X011704Y011472D01*
X011867Y011310D01*
X012079Y011222D01*
X012309Y011222D01*
X012522Y011310D01*
X012685Y011472D01*
X012754Y011640D01*
X012754Y011421D01*
X012842Y011209D01*
X012939Y011112D01*
X012904Y011078D01*
X012816Y010865D01*
X012816Y010635D01*
X012904Y010422D01*
X013067Y010260D01*
X013279Y010172D01*
X013509Y010172D01*
X013722Y010260D01*
X013885Y010422D01*
X013973Y010635D01*
X013973Y010865D01*
X013934Y010958D01*
X014059Y010958D01*
X014250Y011037D01*
X014441Y010958D01*
X014671Y010958D01*
X014884Y011046D01*
X015046Y011209D01*
X015135Y011421D01*
X015135Y011651D01*
X015046Y011864D01*
X015038Y011872D01*
X015046Y011881D01*
X015135Y012094D01*
X015135Y012324D01*
X015046Y012536D01*
X015038Y012545D01*
X015046Y012553D01*
X015135Y012766D01*
X015135Y012996D01*
X015046Y013209D01*
X014884Y013371D01*
X014671Y013460D01*
X014917Y013339D02*
X015547Y013339D01*
X015482Y013497D02*
X008214Y013497D01*
X008244Y013484D02*
X008017Y013578D01*
X007771Y013578D01*
X007544Y013484D01*
X007394Y013334D01*
X007244Y013484D01*
X007017Y013578D01*
X006771Y013578D01*
X006544Y013484D01*
X006371Y013311D01*
X006277Y013084D01*
X006277Y012838D01*
X006371Y012611D01*
X006544Y012437D01*
X006771Y012343D01*
X007017Y012343D01*
X007244Y012437D01*
X007394Y012587D01*
X007544Y012437D01*
X007771Y012343D01*
X008017Y012343D01*
X008244Y012437D01*
X008418Y012611D01*
X008512Y012838D01*
X008512Y013084D01*
X008418Y013311D01*
X008244Y013484D01*
X008390Y013339D02*
X012972Y013339D01*
X012830Y013180D02*
X008472Y013180D01*
X008512Y013022D02*
X012765Y013022D01*
X012754Y012863D02*
X008512Y012863D01*
X008457Y012705D02*
X012780Y012705D01*
X012850Y012546D02*
X008353Y012546D01*
X008125Y012388D02*
X009164Y012388D01*
X009167Y012390D02*
X009004Y012228D01*
X008916Y012015D01*
X008916Y011785D01*
X009004Y011572D01*
X009167Y011410D01*
X009379Y011322D01*
X009609Y011322D01*
X009712Y011364D01*
X009867Y011210D01*
X010079Y011122D01*
X010309Y011122D01*
X010522Y011210D01*
X010685Y011372D01*
X010773Y011585D01*
X010773Y011815D01*
X010685Y012028D01*
X010522Y012190D01*
X010309Y012278D01*
X010079Y012278D01*
X009976Y012236D01*
X009822Y012390D01*
X009609Y012478D01*
X009379Y012478D01*
X009167Y012390D01*
X009005Y012229D02*
X002874Y012229D01*
X002874Y012071D02*
X008939Y012071D01*
X008916Y011912D02*
X002874Y011912D01*
X002874Y011754D02*
X008929Y011754D01*
X008995Y011595D02*
X002874Y011595D01*
X002874Y011437D02*
X009140Y011437D01*
X009798Y011278D02*
X002874Y011278D01*
X002874Y011120D02*
X012931Y011120D01*
X012856Y010961D02*
X011651Y010961D01*
X011910Y010803D02*
X011996Y010803D01*
X011943Y011278D02*
X010590Y011278D01*
X010711Y011437D02*
X011740Y011437D01*
X011653Y011595D02*
X010773Y011595D01*
X010773Y011754D02*
X011616Y011754D01*
X011616Y011912D02*
X010733Y011912D01*
X010642Y012071D02*
X011680Y012071D01*
X011805Y012229D02*
X010429Y012229D01*
X009825Y012388D02*
X012781Y012388D01*
X012754Y012229D02*
X012583Y012229D01*
X012708Y012071D02*
X012764Y012071D01*
X012773Y011912D02*
X012829Y011912D01*
X012796Y011754D02*
X012773Y011754D01*
X012754Y011595D02*
X012735Y011595D01*
X012754Y011437D02*
X012649Y011437D01*
X012813Y011278D02*
X012446Y011278D01*
X012593Y010803D02*
X012816Y010803D01*
X012816Y010644D02*
X012768Y010644D01*
X012844Y010486D02*
X012878Y010486D01*
X012873Y010327D02*
X012999Y010327D01*
X012866Y010169D02*
X017095Y010169D01*
X017167Y010240D02*
X017004Y010078D01*
X016916Y009865D01*
X016916Y009635D01*
X017004Y009422D01*
X017167Y009260D01*
X017379Y009172D01*
X017609Y009172D01*
X017822Y009260D01*
X017985Y009422D01*
X018073Y009635D01*
X018073Y009865D01*
X017985Y010078D01*
X017822Y010240D01*
X017609Y010328D01*
X017379Y010328D01*
X017167Y010240D01*
X017376Y010327D02*
X013789Y010327D01*
X013911Y010486D02*
X015925Y010486D01*
X015867Y010510D02*
X016079Y010422D01*
X016309Y010422D01*
X016522Y010510D01*
X016685Y010672D01*
X016773Y010885D01*
X016773Y011115D01*
X016685Y011328D01*
X016522Y011490D01*
X016309Y011578D01*
X016079Y011578D01*
X015867Y011490D01*
X015704Y011328D01*
X015616Y011115D01*
X015616Y010885D01*
X015704Y010672D01*
X015867Y010510D01*
X015732Y010644D02*
X013973Y010644D01*
X013973Y010803D02*
X015650Y010803D01*
X015616Y010961D02*
X014679Y010961D01*
X014433Y010961D02*
X014067Y010961D01*
X014957Y011120D02*
X015618Y011120D01*
X015683Y011278D02*
X015075Y011278D01*
X015135Y011437D02*
X015813Y011437D01*
X015135Y011595D02*
X018716Y011595D01*
X018716Y011754D02*
X015092Y011754D01*
X015059Y011912D02*
X018756Y011912D01*
X018847Y012071D02*
X015125Y012071D01*
X015135Y012229D02*
X016372Y012229D01*
X016230Y012388D02*
X015108Y012388D01*
X015039Y012546D02*
X016164Y012546D01*
X016154Y012705D02*
X015109Y012705D01*
X015135Y012863D02*
X016180Y012863D01*
X016250Y013022D02*
X015124Y013022D01*
X015058Y013180D02*
X015696Y013180D01*
X015466Y013656D02*
X004591Y013656D01*
X004542Y013537D02*
X004658Y013818D01*
X004658Y014122D01*
X004542Y014403D01*
X004327Y014618D01*
X004046Y014734D01*
X003742Y014734D01*
X003462Y014618D01*
X003247Y014403D01*
X003130Y014122D01*
X003130Y013818D01*
X003247Y013537D01*
X003462Y013322D01*
X003742Y013206D01*
X004046Y013206D01*
X004327Y013322D01*
X004542Y013537D01*
X004502Y013497D02*
X006575Y013497D01*
X006399Y013339D02*
X004343Y013339D01*
X004656Y013814D02*
X015486Y013814D01*
X017041Y015241D02*
X017093Y015241D01*
X014225Y016192D02*
X014018Y016192D01*
X013553Y016192D02*
X013346Y016192D01*
X012881Y016192D02*
X011882Y016192D01*
X011771Y016237D02*
X012005Y016140D01*
X012185Y015961D01*
X012282Y015727D01*
X012282Y015473D01*
X012200Y015275D01*
X012282Y015077D01*
X012282Y014823D01*
X012185Y014589D01*
X012005Y014410D01*
X011771Y014313D01*
X011518Y014313D01*
X011319Y014395D01*
X011121Y014313D01*
X010868Y014313D01*
X010669Y014395D01*
X010471Y014313D01*
X010218Y014313D01*
X009983Y014410D01*
X009804Y014589D01*
X009707Y014823D01*
X009707Y015077D01*
X009789Y015275D01*
X009707Y015473D01*
X009707Y015727D01*
X009804Y015961D01*
X009983Y016140D01*
X010218Y016237D01*
X010471Y016237D01*
X010669Y016155D01*
X010868Y016237D01*
X011121Y016237D01*
X011319Y016155D01*
X011518Y016237D01*
X011771Y016237D01*
X011407Y016192D02*
X011232Y016192D01*
X010757Y016192D02*
X010582Y016192D01*
X010107Y016192D02*
X009335Y016192D01*
X009335Y016033D02*
X009876Y016033D01*
X009768Y015875D02*
X009276Y015875D01*
X009276Y015716D02*
X009707Y015716D01*
X009707Y015558D02*
X009335Y015558D01*
X009335Y015399D02*
X009738Y015399D01*
X009775Y015241D02*
X009292Y015241D01*
X009260Y015082D02*
X009709Y015082D01*
X009707Y014924D02*
X009325Y014924D01*
X009335Y014765D02*
X009731Y014765D01*
X009797Y014607D02*
X009308Y014607D01*
X009236Y014448D02*
X009945Y014448D01*
X009068Y014290D02*
X012549Y014290D01*
X012535Y014448D02*
X012044Y014448D01*
X012192Y014607D02*
X012557Y014607D01*
X012605Y014765D02*
X012258Y014765D01*
X012282Y014924D02*
X012540Y014924D01*
X012535Y015082D02*
X012280Y015082D01*
X012214Y015241D02*
X012566Y015241D01*
X012596Y015399D02*
X012251Y015399D01*
X012282Y015558D02*
X012535Y015558D01*
X012535Y015716D02*
X012282Y015716D01*
X012221Y015875D02*
X012575Y015875D01*
X012666Y016033D02*
X012113Y016033D01*
X012614Y014131D02*
X004654Y014131D01*
X004658Y013973D02*
X012761Y013973D01*
X011337Y010961D02*
X008307Y010961D01*
X008244Y011024D02*
X008017Y011118D01*
X007771Y011118D01*
X007544Y011024D01*
X007394Y010874D01*
X007244Y011024D01*
X007017Y011118D01*
X006771Y011118D01*
X006544Y011024D01*
X006371Y010850D01*
X006277Y010623D01*
X006277Y010377D01*
X006371Y010150D01*
X006544Y009976D01*
X006771Y009882D01*
X007017Y009882D01*
X007244Y009976D01*
X007394Y010126D01*
X007544Y009976D01*
X007771Y009882D01*
X008017Y009882D01*
X008244Y009976D01*
X008418Y010150D01*
X008512Y010377D01*
X008512Y010623D01*
X008418Y010850D01*
X008244Y011024D01*
X008438Y010803D02*
X010479Y010803D01*
X010340Y010644D02*
X008503Y010644D01*
X008512Y010486D02*
X010274Y010486D01*
X010266Y010327D02*
X008491Y010327D01*
X008426Y010169D02*
X010293Y010169D01*
X010366Y010010D02*
X008278Y010010D01*
X007511Y010010D02*
X007278Y010010D01*
X006511Y010010D02*
X004924Y010010D01*
X004919Y009852D02*
X010536Y009852D01*
X010661Y009535D02*
X004740Y009535D01*
X004825Y009376D02*
X010533Y009376D01*
X010467Y009218D02*
X004890Y009218D01*
X004924Y009059D02*
X009407Y009059D01*
X010181Y009059D02*
X010466Y009059D01*
X010501Y008901D02*
X010317Y008901D01*
X010383Y008742D02*
X010584Y008742D01*
X010666Y008584D02*
X010392Y008584D01*
X011066Y009693D02*
X004853Y009693D01*
X004911Y010169D02*
X006363Y010169D01*
X006297Y010327D02*
X004845Y010327D01*
X004720Y010486D02*
X006277Y010486D01*
X006285Y010644D02*
X004466Y010644D01*
X004022Y010644D02*
X003466Y010644D01*
X003720Y010486D02*
X003768Y010486D01*
X003022Y010644D02*
X002874Y010644D01*
X002874Y010803D02*
X006351Y010803D01*
X006482Y010961D02*
X002874Y010961D01*
X002874Y012388D02*
X006664Y012388D01*
X006435Y012546D02*
X002874Y012546D01*
X002874Y012705D02*
X006332Y012705D01*
X006277Y012863D02*
X002874Y012863D01*
X002874Y013022D02*
X006277Y013022D01*
X006316Y013180D02*
X002874Y013180D01*
X002874Y013339D02*
X003446Y013339D01*
X003287Y013497D02*
X002874Y013497D01*
X002874Y013656D02*
X003198Y013656D01*
X003132Y013814D02*
X002874Y013814D01*
X002874Y013973D02*
X003130Y013973D01*
X003134Y014131D02*
X002874Y014131D01*
X002874Y014290D02*
X003200Y014290D01*
X003292Y014448D02*
X002874Y014448D01*
X002874Y014607D02*
X003451Y014607D01*
X002874Y014765D02*
X005874Y014765D01*
X005866Y014924D02*
X002874Y014924D01*
X002874Y015082D02*
X005894Y015082D01*
X005967Y015241D02*
X004142Y015241D01*
X004301Y015399D02*
X005292Y015399D01*
X005140Y015558D02*
X004376Y015558D01*
X004421Y015716D02*
X005074Y015716D01*
X005044Y015875D02*
X004421Y015875D01*
X004380Y016033D02*
X005044Y016033D01*
X005102Y016192D02*
X004310Y016192D01*
X004252Y016350D02*
X005201Y016350D01*
X005182Y016509D02*
X004356Y016509D01*
X004421Y016667D02*
X005095Y016667D01*
X005044Y016826D02*
X004421Y016826D01*
X004401Y016984D02*
X005044Y016984D01*
X005082Y017143D02*
X004335Y017143D01*
X004200Y017301D02*
X005152Y017301D01*
X005310Y017460D02*
X003921Y017460D01*
X003288Y017301D02*
X002874Y017301D01*
X002874Y017143D02*
X003154Y017143D01*
X003088Y016984D02*
X002874Y016984D01*
X002874Y016826D02*
X003067Y016826D01*
X003067Y016667D02*
X002874Y016667D01*
X002874Y016509D02*
X003132Y016509D01*
X003237Y016350D02*
X002874Y016350D01*
X002874Y016192D02*
X003179Y016192D01*
X003108Y016033D02*
X002874Y016033D01*
X002874Y015875D02*
X003067Y015875D01*
X003067Y015716D02*
X002874Y015716D01*
X002874Y015558D02*
X003112Y015558D01*
X003188Y015399D02*
X002874Y015399D01*
X002874Y015241D02*
X003347Y015241D01*
X004338Y014607D02*
X005940Y014607D01*
X006078Y014448D02*
X004497Y014448D01*
X004589Y014290D02*
X007220Y014290D01*
X007053Y014448D02*
X006810Y014448D01*
X006949Y014607D02*
X006981Y014607D01*
X006995Y015082D02*
X007029Y015082D01*
X006997Y015241D02*
X006922Y015241D01*
X006954Y015399D02*
X006751Y015399D01*
X006954Y015558D02*
X006269Y015558D01*
X006334Y015716D02*
X007013Y015716D01*
X007013Y015875D02*
X006787Y015875D01*
X006138Y015399D02*
X006117Y015399D01*
X007214Y013497D02*
X007575Y013497D01*
X007399Y013339D02*
X007390Y013339D01*
X007353Y012546D02*
X007435Y012546D01*
X007664Y012388D02*
X007125Y012388D01*
X007307Y010961D02*
X007482Y010961D01*
X008587Y008901D02*
X004924Y008901D01*
X004873Y008742D02*
X006128Y008742D01*
X005970Y008584D02*
X004789Y008584D01*
X004781Y008425D02*
X005811Y008425D01*
X005653Y008267D02*
X004870Y008267D01*
X004924Y008108D02*
X005494Y008108D01*
X005336Y007950D02*
X004924Y007950D01*
X012147Y008267D02*
X012353Y008267D01*
X012314Y008425D02*
X012511Y008425D01*
X012480Y008584D02*
X012670Y008584D01*
X012647Y008742D02*
X014325Y008742D01*
X014167Y008584D02*
X013909Y008584D01*
X014067Y008425D02*
X014101Y008425D01*
X014244Y007633D02*
X014350Y007633D01*
X014244Y007474D02*
X017661Y007474D01*
X017704Y007578D02*
X017616Y007365D01*
X017616Y007135D01*
X017704Y006922D01*
X017746Y006880D01*
X015759Y006880D01*
X015687Y006850D01*
X015635Y006978D01*
X015472Y007140D01*
X015259Y007228D01*
X015029Y007228D01*
X014817Y007140D01*
X014654Y006978D01*
X014566Y006765D01*
X014566Y006535D01*
X014654Y006322D01*
X014776Y006200D01*
X014754Y006178D01*
X014666Y005965D01*
X014666Y005735D01*
X014754Y005522D01*
X014917Y005360D01*
X015129Y005272D01*
X015359Y005272D01*
X015572Y005360D01*
X015735Y005522D01*
X015823Y005735D01*
X015823Y005820D01*
X016022Y006020D01*
X016546Y006020D01*
X016454Y005928D01*
X016366Y005715D01*
X016366Y005485D01*
X016454Y005272D01*
X016617Y005110D01*
X016829Y005022D01*
X017059Y005022D01*
X017272Y005110D01*
X017435Y005272D01*
X017523Y005485D01*
X017523Y005715D01*
X017435Y005928D01*
X017342Y006020D01*
X019280Y006020D01*
X019438Y006085D01*
X019559Y006206D01*
X019619Y006266D01*
X019564Y006135D01*
X019564Y005865D01*
X019668Y005615D01*
X019783Y005500D01*
X019668Y005385D01*
X019564Y005135D01*
X019564Y004865D01*
X019668Y004615D01*
X019783Y004500D01*
X019668Y004385D01*
X019564Y004135D01*
X019564Y003865D01*
X019668Y003615D01*
X019859Y003424D01*
X020109Y003320D01*
X020380Y003320D01*
X020630Y003424D01*
X020744Y003538D01*
X020859Y003424D01*
X020959Y003382D01*
X020904Y003328D01*
X020816Y003115D01*
X020816Y002885D01*
X020904Y002672D01*
X021067Y002510D01*
X021279Y002422D01*
X021509Y002422D01*
X021722Y002510D01*
X021764Y002552D01*
X021764Y001900D01*
X021762Y001868D01*
X021175Y001281D01*
X021135Y001378D01*
X020972Y001540D01*
X020759Y001628D01*
X020529Y001628D01*
X020317Y001540D01*
X020264Y001488D01*
X020024Y001728D01*
X020024Y002436D01*
X019959Y002594D01*
X019759Y002794D01*
X019638Y002915D01*
X019480Y002980D01*
X019439Y002980D01*
X019474Y003065D01*
X019474Y003335D01*
X019371Y003585D01*
X019180Y003776D01*
X018930Y003880D01*
X018659Y003880D01*
X018409Y003776D01*
X018294Y003662D01*
X018180Y003776D01*
X017974Y003862D01*
X018085Y003972D01*
X018173Y004185D01*
X018173Y004415D01*
X018085Y004628D01*
X017922Y004790D01*
X017709Y004878D01*
X017479Y004878D01*
X017267Y004790D01*
X017104Y004628D01*
X017016Y004415D01*
X017016Y004185D01*
X017104Y003972D01*
X017267Y003810D01*
X017391Y003758D01*
X017294Y003662D01*
X017180Y003776D01*
X016930Y003880D01*
X016659Y003880D01*
X016409Y003776D01*
X016218Y003585D01*
X016169Y003468D01*
X016121Y003585D01*
X015984Y003722D01*
X015984Y003866D01*
X015919Y004024D01*
X015798Y004145D01*
X015708Y004235D01*
X015608Y004276D01*
X015692Y004481D01*
X015692Y004719D01*
X015601Y004939D01*
X015433Y005107D01*
X015213Y005198D01*
X014975Y005198D01*
X014756Y005107D01*
X014587Y004939D01*
X014496Y004719D01*
X014496Y004626D01*
X014244Y004878D01*
X014244Y004938D02*
X014587Y004938D01*
X014521Y004780D02*
X014343Y004780D01*
X014244Y005097D02*
X014745Y005097D01*
X014863Y005414D02*
X014244Y005414D01*
X014244Y005572D02*
X014733Y005572D01*
X014668Y005731D02*
X014244Y005731D01*
X014244Y005889D02*
X014666Y005889D01*
X014700Y006048D02*
X014244Y006048D01*
X014244Y006206D02*
X014770Y006206D01*
X014636Y006365D02*
X014244Y006365D01*
X014244Y006523D02*
X014571Y006523D01*
X014566Y006682D02*
X014244Y006682D01*
X014244Y006840D02*
X014597Y006840D01*
X014675Y006999D02*
X014244Y006999D01*
X014244Y007157D02*
X014857Y007157D01*
X015138Y007633D02*
X016094Y007633D01*
X015946Y007791D02*
X015297Y007791D01*
X015377Y007950D02*
X015881Y007950D01*
X015432Y007157D02*
X017616Y007157D01*
X017616Y007316D02*
X014244Y007316D01*
X013384Y006523D02*
X012875Y006523D01*
X012748Y006365D02*
X013384Y006365D01*
X013384Y006206D02*
X012894Y006206D01*
X012959Y006048D02*
X013384Y006048D01*
X013384Y005889D02*
X012973Y005889D01*
X012950Y005731D02*
X013384Y005731D01*
X013384Y005572D02*
X012884Y005572D01*
X012726Y005414D02*
X013384Y005414D01*
X014244Y005255D02*
X016471Y005255D01*
X016395Y005414D02*
X015626Y005414D01*
X015755Y005572D02*
X016366Y005572D01*
X016372Y005731D02*
X015821Y005731D01*
X015891Y005889D02*
X016438Y005889D01*
X016648Y005097D02*
X015444Y005097D01*
X015602Y004938D02*
X019564Y004938D01*
X019564Y005097D02*
X017240Y005097D01*
X017417Y005255D02*
X019614Y005255D01*
X019696Y005414D02*
X017493Y005414D01*
X017523Y005572D02*
X019711Y005572D01*
X019620Y005731D02*
X017516Y005731D01*
X017451Y005889D02*
X019564Y005889D01*
X019564Y006048D02*
X019346Y006048D01*
X019558Y006206D02*
X019594Y006206D01*
X018964Y006880D02*
X018642Y006880D01*
X018685Y006922D01*
X018773Y007135D01*
X018773Y007365D01*
X018685Y007578D01*
X018522Y007740D01*
X018309Y007828D01*
X018079Y007828D01*
X018010Y007800D01*
X018057Y007834D01*
X018110Y007887D01*
X018155Y007948D01*
X018189Y008016D01*
X018212Y008088D01*
X018224Y008162D01*
X018224Y008180D01*
X017764Y008180D01*
X017764Y007720D01*
X017782Y007720D01*
X017857Y007732D01*
X017859Y007732D01*
X017704Y007578D01*
X017759Y007633D02*
X016795Y007633D01*
X016942Y007791D02*
X017491Y007791D01*
X017493Y007789D02*
X017560Y007755D01*
X017632Y007732D01*
X017707Y007720D01*
X017724Y007720D01*
X017724Y008180D01*
X017264Y008180D01*
X017264Y008162D01*
X017276Y008088D01*
X017299Y008016D01*
X017334Y007948D01*
X017378Y007887D01*
X017432Y007834D01*
X017493Y007789D01*
X017333Y007950D02*
X017008Y007950D01*
X017023Y008108D02*
X017273Y008108D01*
X017264Y008220D02*
X017724Y008220D01*
X017724Y008180D01*
X017764Y008180D01*
X017764Y008220D01*
X017724Y008220D01*
X017724Y008680D01*
X017707Y008680D01*
X017632Y008668D01*
X017560Y008645D01*
X017493Y008611D01*
X017432Y008566D01*
X017378Y008513D01*
X017334Y008452D01*
X017299Y008384D01*
X017276Y008312D01*
X017264Y008238D01*
X017264Y008220D01*
X017269Y008267D02*
X017001Y008267D01*
X016936Y008425D02*
X017320Y008425D01*
X017456Y008584D02*
X016779Y008584D01*
X016554Y008742D02*
X018964Y008742D01*
X018964Y008584D02*
X018033Y008584D01*
X018057Y008566D02*
X017996Y008611D01*
X017929Y008645D01*
X017857Y008668D01*
X017782Y008680D01*
X017764Y008680D01*
X017764Y008220D01*
X018224Y008220D01*
X018224Y008238D01*
X018212Y008312D01*
X018189Y008384D01*
X018155Y008452D01*
X018110Y008513D01*
X018057Y008566D01*
X018168Y008425D02*
X018964Y008425D01*
X018964Y008267D02*
X018220Y008267D01*
X018216Y008108D02*
X018964Y008108D01*
X018964Y007950D02*
X018155Y007950D01*
X018400Y007791D02*
X018964Y007791D01*
X018964Y007633D02*
X018630Y007633D01*
X018728Y007474D02*
X018964Y007474D01*
X018964Y007316D02*
X018773Y007316D01*
X018773Y007157D02*
X018964Y007157D01*
X018964Y006999D02*
X018716Y006999D01*
X018964Y006880D02*
X018964Y010486D01*
X019030Y010644D01*
X018964Y010486D02*
X018264Y010486D01*
X017894Y010169D02*
X018964Y010169D01*
X018964Y010327D02*
X017613Y010327D01*
X017725Y010486D02*
X016464Y010486D01*
X016656Y010644D02*
X017532Y010644D01*
X017450Y010803D02*
X016739Y010803D01*
X016773Y010961D02*
X017416Y010961D01*
X017418Y011120D02*
X016771Y011120D01*
X016705Y011278D02*
X017483Y011278D01*
X017613Y011437D02*
X016576Y011437D01*
X016976Y010010D02*
X012800Y010010D01*
X012724Y009852D02*
X016916Y009852D01*
X016916Y009693D02*
X016516Y009693D01*
X016678Y009535D02*
X016957Y009535D01*
X017050Y009376D02*
X016747Y009376D01*
X016773Y009218D02*
X017268Y009218D01*
X017720Y009218D02*
X018964Y009218D01*
X018964Y009376D02*
X017938Y009376D01*
X018031Y009535D02*
X018964Y009535D01*
X018964Y009693D02*
X018073Y009693D01*
X018073Y009852D02*
X018964Y009852D01*
X018964Y010010D02*
X018013Y010010D01*
X018964Y009059D02*
X016762Y009059D01*
X016696Y008901D02*
X018964Y008901D01*
X017764Y008584D02*
X017724Y008584D01*
X017724Y008425D02*
X017764Y008425D01*
X017764Y008267D02*
X017724Y008267D01*
X017724Y008108D02*
X017764Y008108D01*
X017764Y007950D02*
X017724Y007950D01*
X017724Y007791D02*
X017764Y007791D01*
X017672Y006999D02*
X015614Y006999D01*
X015227Y008901D02*
X012721Y008901D01*
X012726Y009059D02*
X015412Y009059D01*
X015616Y009218D02*
X012724Y009218D01*
X012724Y009376D02*
X015641Y009376D01*
X015711Y009535D02*
X012724Y009535D01*
X012724Y009693D02*
X015873Y009693D01*
X018376Y011437D02*
X018777Y011437D01*
X018898Y011278D02*
X018505Y011278D01*
X013255Y006682D02*
X013034Y006682D01*
X015667Y004780D02*
X017256Y004780D01*
X017101Y004621D02*
X015692Y004621D01*
X015685Y004463D02*
X017036Y004463D01*
X017016Y004304D02*
X015619Y004304D01*
X015797Y004146D02*
X017032Y004146D01*
X017098Y003987D02*
X015934Y003987D01*
X015984Y003829D02*
X016535Y003829D01*
X016303Y003670D02*
X016036Y003670D01*
X016151Y003512D02*
X016187Y003512D01*
X017054Y003829D02*
X017248Y003829D01*
X017286Y003670D02*
X017303Y003670D01*
X018054Y003829D02*
X018535Y003829D01*
X018303Y003670D02*
X018286Y003670D01*
X018091Y003987D02*
X019564Y003987D01*
X019569Y004146D02*
X018156Y004146D01*
X018173Y004304D02*
X019634Y004304D01*
X019745Y004463D02*
X018153Y004463D01*
X018087Y004621D02*
X019665Y004621D01*
X019600Y004780D02*
X017933Y004780D01*
X019054Y003829D02*
X019579Y003829D01*
X019645Y003670D02*
X019286Y003670D01*
X019401Y003512D02*
X019771Y003512D01*
X020029Y003353D02*
X019467Y003353D01*
X019474Y003195D02*
X020849Y003195D01*
X020816Y003036D02*
X019462Y003036D01*
X019675Y002878D02*
X020819Y002878D01*
X020885Y002719D02*
X019833Y002719D01*
X019973Y002561D02*
X021016Y002561D01*
X021764Y002402D02*
X020024Y002402D01*
X020024Y002244D02*
X021764Y002244D01*
X021764Y002085D02*
X020024Y002085D01*
X020024Y001927D02*
X021764Y001927D01*
X021662Y001768D02*
X020024Y001768D01*
X020143Y001610D02*
X020484Y001610D01*
X020805Y001610D02*
X021504Y001610D01*
X021345Y001451D02*
X021061Y001451D01*
X021170Y001293D02*
X021187Y001293D01*
X020929Y003353D02*
X020459Y003353D01*
X020717Y003512D02*
X020771Y003512D01*
X009027Y017301D02*
X009017Y017301D01*
X008355Y017301D02*
X008344Y017301D01*
X007682Y017301D02*
X006257Y017301D01*
X006098Y017460D02*
X007524Y017460D01*
D20*
X006394Y017900D03*
X006394Y018450D03*
X006394Y019000D03*
X006394Y019550D03*
X005794Y019550D03*
X005794Y019000D03*
X005794Y018450D03*
X005794Y017900D03*
X009794Y008600D03*
X011144Y003800D03*
X015094Y004600D03*
M02*
